<svg width="351" height="73" viewBox="0 0 351 73" fill="none" xmlns="http://www.w3.org/2000/svg">
<path d="M83.0489 4.15113C83.1779 4.15113 83.3392 4.15113 83.436 4.15113C85.2103 4.15113 87.0168 4.1187 88.7911 4.15113C92.3397 4.21598 94.985 6.68031 95.2431 10.0201C95.3721 11.5441 95.2753 13.0681 95.3076 14.5597C95.3399 16.0512 95.114 17.478 94.2753 18.7426C93.1139 20.4935 91.5009 21.5311 89.4041 21.6608C87.3717 21.7905 85.3071 21.7257 83.2747 21.7581C83.0812 21.7581 82.9844 21.7257 82.9844 21.4987C82.9844 15.7594 82.9844 10.0201 83.0166 4.28083C83.0166 4.24841 83.0166 4.21598 83.0489 4.15113ZM86.2103 12.9384C86.2103 14.5273 86.2103 16.1161 86.2103 17.7049C86.2103 18.4183 86.4684 18.7426 87.1781 18.8723C87.4685 18.9371 87.7588 18.9371 88.0492 18.9371C90.1783 19.0344 92.2429 17.1213 92.2107 14.7867C92.1784 13.5221 92.1784 12.2575 92.2107 11.0253C92.2107 9.89042 91.8235 8.91766 91.017 8.13945C89.9525 7.06942 88.6298 6.81001 87.2104 7.00456C86.5652 7.06942 86.2426 7.49095 86.2426 8.17188C86.2103 9.76072 86.2103 11.3496 86.2103 12.9384Z" fill="white" fill-opacity="0.5"/>
<path d="M80.4686 12.9062C80.4686 13.9762 80.5331 15.0462 80.4686 16.1163C80.3073 18.6779 78.7266 20.6882 76.2426 21.4016C74.1135 22.0501 72.0166 21.9204 70.0487 20.8179C68.4035 19.91 67.5002 18.4509 67.2099 16.6026C67.1131 15.9866 67.0808 15.3705 67.0808 14.722C67.0486 13.3277 67.0486 11.9334 67.0808 10.5715C67.1131 8.95025 67.5325 7.45869 68.6293 6.22652C69.5003 5.28618 70.5649 4.70253 71.823 4.4107C73.6296 3.98917 75.4038 4.05402 77.0813 4.83223C79.1137 5.77257 80.2428 7.42626 80.4364 9.66361C80.5654 10.7012 80.4686 11.8037 80.4686 12.9062ZM77.3394 12.9062C77.3394 12.4846 77.3717 12.0631 77.3394 11.6416C77.3072 10.9282 77.3394 10.1824 77.1781 9.50149C76.5007 6.87503 73.2102 6.3238 71.5004 7.84779C70.4681 8.78813 70.21 9.95544 70.2423 11.2525C70.2745 12.4846 70.2745 13.7168 70.2423 14.949C70.2423 16.5054 70.7262 17.7375 72.2101 18.4833C74.307 19.5858 76.9846 18.3536 77.3072 15.7596C77.4362 14.8517 77.3394 13.8465 77.3394 12.9062Z" fill="white" fill-opacity="0.5"/>
<path d="M51.2086 13.0033C51.2086 12.1278 51.2086 11.2524 51.2086 10.3444C51.2086 7.19918 53.37 4.73485 56.467 4.24847C58.2413 3.98907 59.951 4.11877 61.564 4.99425C63.306 5.96702 64.3383 7.45858 64.4996 9.43653C64.6609 11.2848 64.6287 13.1655 64.6287 15.0461C64.6287 15.8568 64.4996 16.6674 64.2738 17.4456C63.7577 19.2614 62.5641 20.526 60.822 21.1745C58.6284 21.9852 56.4347 21.9527 54.3378 20.8827C52.499 19.9424 51.499 18.3859 51.2732 16.3756C51.1441 15.2407 51.2409 14.1058 51.2409 12.9385H51.2086V13.0033ZM54.4023 13.133C54.3701 13.8464 54.3701 14.5922 54.3701 15.3055C54.3701 15.5649 54.3701 15.7919 54.4023 16.0189C54.6927 17.705 56.3057 18.9696 57.9187 18.9047C59.9833 18.8075 61.3059 17.2186 61.4027 15.5974C61.435 15.0137 61.4027 14.43 61.4027 13.8464C61.4027 12.6791 61.435 11.5118 61.3704 10.3444C61.3382 9.43653 60.9511 8.59347 60.2736 7.97739C59.209 7.00463 57.9509 6.77765 56.596 7.23161C55.2411 7.68556 54.5314 8.7556 54.3701 10.1175C54.3056 11.1227 54.4023 12.1278 54.4023 13.133Z" fill="white" fill-opacity="0.5"/>
<path d="M105.083 12.9708C105.083 10.1822 105.083 7.36124 105.083 4.57265C105.083 4.28082 105.244 4.15112 105.535 4.15112C108.986 4.15112 112.438 4.15112 115.922 4.15112C116.245 4.15112 116.309 4.2484 116.309 4.54023C116.277 5.22116 116.277 5.90209 116.309 6.5506C116.309 6.87486 116.245 6.97213 115.922 6.97213C113.89 6.97213 111.858 6.97213 109.825 6.97213C108.761 6.97213 108.309 7.42609 108.309 8.49613C108.309 9.07978 108.309 9.69586 108.309 10.2795C108.309 11.155 108.728 11.609 109.599 11.609C111.696 11.609 113.793 11.609 115.89 11.609C116.18 11.609 116.309 11.7711 116.309 12.0629C116.309 12.7114 116.309 13.3599 116.309 14.0084C116.309 14.2678 116.245 14.3651 115.955 14.3651C113.954 14.3651 111.954 14.3651 109.954 14.3651C109.728 14.3651 109.503 14.3975 109.309 14.43C108.728 14.5597 108.341 15.0136 108.341 15.6621C108.341 16.3106 108.341 16.9916 108.341 17.6401C108.374 18.3859 108.954 18.9047 109.793 18.9371C110.664 18.9695 111.535 18.9371 112.406 18.9371C113.6 18.9371 114.793 18.9371 116.019 18.9371C116.309 18.9371 116.374 19.0344 116.374 19.2938C116.374 20.0071 116.374 20.6881 116.374 21.4014C116.374 21.6608 116.309 21.7581 116.051 21.7581C112.535 21.7581 108.986 21.7581 105.47 21.7581C105.148 21.7581 105.18 21.596 105.18 21.369C105.083 18.5804 105.083 15.7918 105.083 12.9708Z" fill="white" fill-opacity="0.5"/>
<path d="M8.27073 13.7814C8.07717 13.976 7.94813 14.1705 7.78684 14.3327C7.39972 14.819 6.98034 15.273 6.59323 15.7594C6.46419 15.9215 6.36741 16.1161 6.36741 16.3106C6.36741 17.8022 6.36741 19.2937 6.36741 20.7853C6.36741 21.7905 6.33515 21.7905 5.36736 21.7905C4.8512 21.7905 4.33505 21.7905 3.81889 21.7905C3.33499 21.7905 3.30273 21.7256 3.30273 21.2717C3.33499 15.727 3.33499 10.1822 3.33499 4.63747C3.33499 4.15108 3.36725 4.11866 3.85115 4.11866C4.49634 4.11866 5.14154 4.11866 5.78673 4.11866C6.23837 4.11866 6.36741 4.28079 6.36741 4.70232C6.36741 6.93967 6.36741 9.17702 6.36741 11.4144C6.36741 11.5765 6.36741 11.7386 6.39967 11.9656C6.78678 11.5116 7.14164 11.1225 7.46424 10.7334C9.174 8.69064 10.8838 6.68027 12.5935 4.63747C12.8839 4.31321 13.2065 4.11866 13.6258 4.11866C14.2065 4.15108 14.7549 4.11866 15.3356 4.11866C15.4324 4.11866 15.5292 4.08623 15.6259 4.11866C15.8195 4.18351 16.0131 4.24836 16.2066 4.31321C16.1098 4.47534 16.0776 4.63747 15.9485 4.79959C14.3356 6.80997 12.6903 8.82034 11.0451 10.8307C10.9483 10.928 10.8515 11.0577 10.787 11.155C10.3676 11.7062 10.3676 11.7062 10.7547 12.2899C12.6258 15.2081 14.4969 18.1264 16.3679 21.0447C16.4002 21.1096 16.4647 21.1744 16.497 21.2393C16.6583 21.5311 16.5615 21.7256 16.2389 21.7256C15.4001 21.7581 14.5291 21.7581 13.6904 21.7256C13.4645 21.7256 13.2065 21.4987 13.0774 21.3041C11.5935 19.0343 10.1095 16.7321 8.65785 14.4299C8.56107 14.2354 8.43203 14.0408 8.27073 13.7814Z" fill="white" fill-opacity="0.5"/>
<path d="M37.5303 4.15112H48.7244C48.7244 4.34568 48.7567 4.5078 48.7567 4.70235C48.7567 5.31844 48.7244 5.96695 48.7567 6.58303C48.7567 6.87486 48.6599 6.93971 48.4018 6.93971C46.3694 6.93971 44.3371 6.93971 42.337 6.93971C42.1112 6.93971 41.8853 6.97213 41.6595 7.00456C41.1434 7.13426 40.7562 7.58821 40.724 8.17187C40.6917 8.91766 40.6917 9.66344 40.724 10.4092C40.7562 11.1226 41.3047 11.5765 42.0789 11.5765C43.8209 11.5765 45.5952 11.5765 47.3372 11.609C47.7243 11.609 48.1115 11.609 48.4986 11.609C48.7244 11.609 48.7889 11.7062 48.7889 11.9008C48.7889 12.6142 48.7889 13.3599 48.7889 14.0733C48.7889 14.3003 48.6599 14.3327 48.4663 14.3327C47.4985 14.3327 46.5307 14.3327 45.5629 14.3327C44.4984 14.3327 43.4338 14.3327 42.3692 14.3327C41.2724 14.3327 40.7562 14.8191 40.7562 15.9215C40.724 17.7049 40.7562 19.5208 40.7562 21.3042C40.7562 21.7257 40.7562 21.7257 40.3046 21.7257C39.5304 21.7257 38.7561 21.7257 37.9497 21.7257C37.6916 21.7257 37.5948 21.6608 37.5948 21.369C37.5948 15.9215 37.5948 10.4741 37.5948 5.02661C37.5303 4.79963 37.5303 4.47538 37.5303 4.15112Z" fill="white" fill-opacity="0.5"/>
<path d="M19.3037 12.9062C19.3037 10.2149 19.3037 7.52356 19.3037 4.83226C19.3037 4.21617 19.4327 4.1189 20.0457 4.1189C20.6909 4.1189 21.3361 4.1189 21.9813 4.1189C22.2716 4.1189 22.3684 4.21617 22.3684 4.47558C22.3684 4.57285 22.3684 4.70255 22.3684 4.79983C22.3684 9.43666 22.3684 14.0411 22.3684 18.6779C22.3684 19.1319 22.3684 19.1319 22.82 19.1319C24.6266 19.1319 26.4008 19.1319 28.2074 19.1319C29.0139 19.1319 29.8204 19.1319 30.6269 19.1319C31.143 19.1319 31.2721 19.2616 31.2721 19.7479C31.2721 20.2667 31.2721 20.7531 31.2721 21.2719C31.2398 21.661 31.143 21.7583 30.7559 21.7583C27.0783 21.7583 23.433 21.7583 19.7553 21.7583C19.4973 21.7583 19.3682 21.6286 19.336 21.4016C19.3037 21.1747 19.3037 20.9477 19.3037 20.7531C19.3037 18.1267 19.3037 15.5326 19.3037 12.9062Z" fill="white" fill-opacity="0.5"/>
<path d="M98.5977 4.15112C99.63 4.15112 100.598 4.15112 101.598 4.15112C101.662 4.15112 101.759 4.2484 101.791 4.34568C101.824 4.41053 101.791 4.5078 101.791 4.57265C101.791 10.1822 101.791 15.7594 101.791 21.369C101.791 21.6608 101.727 21.7905 101.404 21.7905C100.566 21.7905 99.7268 21.7905 98.888 21.7905C98.6622 21.7905 98.5654 21.7581 98.5654 21.4987C98.5654 15.8891 98.5654 10.2795 98.5654 4.66993C98.5977 4.5078 98.5977 4.34568 98.5977 4.15112Z" fill="white" fill-opacity="0.5"/>
<g clip-path="url(#clip0_644_466)">
<path d="M181.707 -0.000244141C181.64 0.0109453 181.573 0.0277295 181.511 0.0277295C180.124 0.0277295 178.731 0.0277295 177.343 0.0277295C177.035 0.0277295 176.733 0.0333242 176.426 0.0277295C176.336 0.0277295 176.246 0.0109453 176.151 -0.000244141C178.003 -0.000244141 179.855 -0.000244141 181.707 -0.000244141Z" fill="white" fill-opacity="0.5"/>
<path d="M177.842 9.47752C177.814 9.45514 177.786 9.43836 177.747 9.40479C177.697 9.52787 177.647 9.63977 177.602 9.75726C177.428 10.2048 177.261 10.658 177.087 11.1056C176.981 11.3741 176.869 11.6427 176.757 11.9056C176.735 11.9504 176.712 12.0119 176.668 12.0343C176.544 12.1014 176.516 12.2133 176.472 12.3364C176.321 12.756 176.147 13.17 175.979 13.584C175.912 13.7463 175.834 13.9085 175.761 14.0708C175.661 14.3002 175.549 14.524 175.459 14.7533C175.37 14.9827 175.308 15.2233 175.207 15.4471C175.135 15.6205 175 15.7716 174.933 15.9506C174.732 16.4653 174.542 16.9856 174.351 17.5059C174.329 17.5731 174.34 17.6514 174.335 17.7185C174.318 17.7185 174.307 17.7185 174.29 17.7185C174.284 17.6514 174.279 17.5843 174.267 17.4836C174.234 17.5339 174.211 17.5563 174.2 17.5843C174.027 18.0766 173.853 18.5689 173.68 19.0669C173.618 19.2347 173.562 19.4026 173.495 19.5648C173.439 19.6935 173.372 19.811 173.311 19.9341C173.294 19.9676 173.26 19.9956 173.244 20.0292C173.132 20.3033 173.014 20.5774 172.908 20.8572C172.802 21.1537 172.701 21.4502 172.606 21.7467C172.567 21.8642 172.516 21.9482 172.393 21.937C172.276 22.3957 172.108 22.8209 171.923 23.2405C171.862 23.3804 171.811 23.5259 171.744 23.6657C171.604 23.9678 171.453 24.27 171.313 24.5721C171.269 24.6784 171.246 24.7903 171.207 24.9022C171.134 25.126 171.062 25.3497 170.989 25.5735C170.983 25.5959 170.955 25.6127 170.927 25.6407C170.905 25.5735 170.888 25.5288 170.86 25.4616C170.832 25.5232 170.81 25.5623 170.776 25.6183C170.754 25.5903 170.737 25.5791 170.732 25.5567C170.67 25.3777 170.614 25.2043 170.553 25.0252C170.446 24.7287 170.34 24.4266 170.222 24.1301C170.194 24.063 170.116 24.0126 170.077 23.9455C170.015 23.8448 169.959 23.7441 169.92 23.6378C169.825 23.3972 169.747 23.1454 169.646 22.9048C169.59 22.7594 169.501 22.6251 169.439 22.4852C169.322 22.1999 169.21 21.9146 169.098 21.6237C169.076 21.5621 169.081 21.495 169.07 21.4222C169.008 21.4334 168.964 21.4446 168.919 21.4558C168.818 21.1761 168.723 20.8907 168.611 20.6166C168.482 20.3033 168.337 19.99 168.197 19.6823C168.18 19.6487 168.141 19.6319 168.119 19.604C168.096 19.576 168.08 19.548 168.068 19.5144C168.029 19.397 168.001 19.2795 167.957 19.1676C167.895 19.0221 167.8 18.8878 167.744 18.7368C167.632 18.4403 167.526 18.1381 167.431 17.836C167.392 17.6962 167.296 17.7969 167.268 17.7857C167.112 17.3493 166.966 16.9409 166.821 16.5269C166.787 16.4429 166.759 16.3534 166.726 16.2695C166.715 16.2359 166.709 16.1912 166.687 16.18C166.547 16.1185 166.536 16.001 166.541 15.8667C166.541 15.8499 166.519 15.8275 166.508 15.8107C166.468 15.766 166.418 15.7268 166.396 15.6765C166.301 15.4135 166.211 15.1506 166.116 14.8876C166.105 14.8596 166.105 14.8261 166.088 14.8093C165.814 14.4792 165.769 14.054 165.618 13.668C165.618 13.6568 165.618 13.6288 165.612 13.6288C165.394 13.5337 165.461 13.3099 165.389 13.1477C165.383 13.1365 165.372 13.1253 165.349 13.1029C165.333 13.1477 165.321 13.1812 165.299 13.254C165.288 13.0637 165.271 12.9127 165.277 12.7672C165.277 12.6945 165.232 12.5882 165.355 12.549C165.372 12.549 165.366 12.4875 165.377 12.4539C165.417 12.3029 165.433 12.1406 165.506 12.0007C165.657 11.6986 165.646 11.3629 165.696 11.044C165.758 10.686 165.791 10.3279 165.831 9.96986C165.842 9.85796 165.831 9.74607 165.831 9.63977C165.814 9.63977 165.797 9.63977 165.78 9.63977C165.775 9.67893 165.769 9.71809 165.758 9.75726C165.724 9.86915 165.707 10.0034 165.64 10.0985C165.361 10.5069 165.193 10.9713 165.014 11.4245C164.907 11.693 164.829 11.9784 164.566 12.1518C164.538 12.1686 164.521 12.2189 164.516 12.2525C164.477 12.5378 164.342 12.7784 164.191 13.0134C164.119 13.1253 164.096 13.2651 164.046 13.3882C163.956 13.6232 163.856 13.847 163.727 14.0596C163.554 14.3505 163.447 14.6806 163.313 14.9995C163.212 15.2401 163.128 15.4807 163.033 15.7268C162.938 15.6597 162.905 15.6653 162.871 15.7828C162.776 16.1073 162.664 16.4262 162.53 16.7339C162.418 16.9968 162.261 17.243 162.127 17.5004C162.11 17.5283 162.093 17.5619 162.082 17.5899C162.021 17.7521 161.97 17.9144 161.903 18.0766C161.774 18.3787 161.646 18.6808 161.511 18.9774C161.45 19.1172 161.366 19.2459 161.293 19.3802C161.293 19.3858 161.276 19.397 161.276 19.4026C161.237 19.7606 160.93 20.0012 160.868 20.3593C160.834 20.5663 160.678 20.7453 160.594 20.9467C160.51 21.1425 160.471 21.3607 160.359 21.5341C159.995 22.1048 159.833 22.7538 159.592 23.3692C159.581 23.4028 159.564 23.4419 159.548 23.4867C159.52 23.4643 159.497 23.4419 159.458 23.414C159.436 23.4699 159.413 23.5091 159.397 23.5538C159.268 23.8951 159.111 24.2252 159.033 24.5721C158.966 24.8686 158.82 25.098 158.641 25.333C158.585 25.4057 158.569 25.5176 158.535 25.6071C158.524 25.6071 158.507 25.6071 158.496 25.6071C158.485 25.5567 158.468 25.5064 158.457 25.4504C158.412 25.2602 158.378 25.0644 158.211 24.9301C158.177 24.9022 158.171 24.835 158.149 24.7847C158.065 24.5497 157.981 24.3147 157.908 24.0741C157.864 23.9399 157.836 23.8056 157.802 23.6713C157.791 23.6378 157.774 23.6042 157.746 23.5371C157.707 23.6154 157.685 23.6601 157.657 23.7273C157.601 23.5482 157.55 23.3972 157.5 23.2461C157.422 23.0111 157.343 22.7818 157.259 22.5468C157.237 22.4964 157.187 22.4573 157.159 22.4013C157.114 22.3174 157.069 22.2335 157.041 22.144C157.008 22.0433 156.985 21.9426 156.957 21.8363C156.957 21.8195 156.952 21.7915 156.935 21.7859C156.728 21.6796 156.773 21.4446 156.672 21.2824C156.571 21.1089 156.499 20.9187 156.426 20.7285C156.353 20.5383 156.292 20.3481 156.224 20.1522C156.174 20.0124 156.129 19.8725 156.068 19.6935C156.029 19.7718 156.012 19.8054 155.995 19.8445C155.984 19.8333 155.973 19.8222 155.967 19.811C155.799 19.3298 155.631 18.8487 155.464 18.3675C155.396 18.1829 155.324 18.0095 155.173 17.8696C155.122 17.8248 155.117 17.7409 155.089 17.6738C154.966 17.3661 154.837 17.064 154.714 16.7563C154.652 16.5996 154.613 16.4318 154.529 16.2863C154.401 16.0513 154.311 15.7996 154.21 15.5534C153.953 14.9268 153.701 14.3002 153.41 13.6903C153.31 13.4833 153.265 13.2428 153.142 13.0749C153.013 12.9015 152.974 12.7113 152.89 12.5378C152.767 12.2805 152.672 12.0063 152.549 11.7098C152.532 11.7993 152.521 11.8497 152.504 11.9448C152.247 11.2007 152 10.4902 151.749 9.76845C151.732 9.84677 151.721 9.9195 151.704 10.0034C151.542 9.56144 151.396 9.13624 151.234 8.72223C151.189 8.61034 151.111 8.50963 151.066 8.39774C151.005 8.24668 150.96 8.09003 150.909 7.93338C150.904 7.94457 150.893 7.96695 150.87 8.0173C150.786 7.75994 150.708 7.51937 150.63 7.28439C150.624 7.26761 150.63 7.23963 150.613 7.22844C150.428 7.09417 150.406 6.87598 150.328 6.69135C150.233 6.46756 150.165 6.23258 150.093 6.01998C150.053 5.99201 150.009 5.97523 149.998 5.94166C149.846 5.5836 149.707 5.22553 149.561 4.86188C149.561 4.85069 149.561 4.8395 149.55 4.8339C149.332 4.7332 149.41 4.49822 149.321 4.33597C149.225 4.17373 149.186 3.97791 149.114 3.79888C149.074 3.68698 149.024 3.58068 148.957 3.47439C148.968 3.51355 148.985 3.55831 148.996 3.60306C148.895 3.54152 148.884 3.51355 148.722 3.04359C148.649 2.83659 148.565 2.62958 148.487 2.42258C148.409 2.22676 148.33 2.03095 148.241 1.80156C148.224 1.88548 148.213 1.95262 148.202 2.02535C148.056 1.62253 147.911 1.22531 147.771 0.828082C147.743 0.755351 147.732 0.67143 147.642 0.68262C147.592 0.542752 147.536 0.397289 147.469 0.257421C147.43 0.167905 147.452 0.139932 147.541 0.134337C147.625 0.134337 147.704 0.117553 147.788 0.117553C148.974 0.106363 150.16 0.0951738 151.346 0.0951738C152.112 0.0951738 152.879 0.139932 153.64 0.139932C154.25 0.139932 154.68 0.436452 155.038 0.889624C155.156 1.04068 155.29 1.18614 155.385 1.35399C155.486 1.52742 155.547 1.72324 155.626 1.90786C155.682 2.05333 155.732 2.19879 155.788 2.33866C155.861 2.52888 155.934 2.7135 156.012 2.90932C156.029 2.86456 156.045 2.8198 156.073 2.74148C156.118 2.89253 156.152 3.00443 156.191 3.12192C156.286 3.39046 156.381 3.65901 156.482 3.92196C156.532 4.05624 156.616 4.17373 156.672 4.308C156.722 4.42549 156.75 4.55417 156.79 4.67725C156.79 4.68844 156.795 4.70522 156.801 4.71641C156.857 4.79474 156.924 4.86747 156.957 4.95699C157.17 5.4773 157.371 6.0032 157.573 6.5291C157.606 6.61302 157.623 6.70813 157.657 6.83122C157.696 6.7417 157.718 6.68575 157.729 6.65778C157.987 7.32355 158.244 7.99492 158.513 8.69426C158.686 8.5488 158.798 8.38096 158.876 8.19633C158.988 7.92778 159.095 7.65924 159.19 7.3851C159.279 7.13893 159.352 6.88157 159.436 6.6354C159.441 6.61302 159.453 6.59624 159.481 6.54029C159.503 6.62421 159.514 6.67457 159.537 6.75849C159.648 6.45078 159.749 6.17104 159.844 5.8913C159.906 5.71227 159.979 5.53884 160.029 5.35981C160.085 5.1584 160.191 4.97937 160.325 4.82271C160.381 4.76117 160.398 4.66047 160.426 4.57655C160.527 4.308 160.611 4.03945 160.723 3.7765C160.902 3.36249 161.092 2.95408 161.288 2.54566C161.36 2.3946 161.461 2.26033 161.528 2.10368C161.618 1.88548 161.679 1.6561 161.763 1.43791C161.875 1.14698 161.998 0.861651 162.127 0.581915C162.155 0.525967 162.233 0.48121 162.295 0.464425C162.401 0.430857 162.513 0.425262 162.619 0.391694C162.714 0.36372 162.737 0.402883 162.753 0.48121C162.809 0.738567 162.865 0.990329 162.927 1.24209C162.933 1.26447 162.949 1.29244 162.977 1.34839C162.983 1.2309 162.988 1.15817 162.994 1.07984H163.016C163.044 1.15817 163.072 1.24209 163.095 1.32601C163.218 1.82954 163.358 2.33306 163.464 2.84218C163.542 3.21703 163.693 3.5639 163.822 3.92196C163.912 4.16254 163.973 4.41989 164.029 4.67166C164.068 4.82831 164.113 4.96818 164.258 5.06888C164.359 5.14161 164.421 5.27589 164.51 5.39337C164.555 5.11364 164.751 4.92901 164.874 4.69963C164.98 4.49822 165.053 4.28003 165.131 4.06183C165.238 3.74853 165.372 3.45201 165.573 3.18905C165.624 3.12751 165.635 3.038 165.668 2.96527C165.763 2.73029 165.859 2.48971 165.954 2.25474C165.954 2.24355 165.959 2.22676 165.97 2.21557C166.228 1.91346 166.245 1.49945 166.446 1.17495C166.491 1.10782 166.524 1.03509 166.575 0.96795C166.748 0.721783 166.838 0.436452 166.933 0.151121C166.933 0.134337 166.95 0.117553 166.972 0.0839844C167.073 0.36372 167.168 0.621078 167.274 0.906408C167.302 0.839272 167.319 0.800109 167.341 0.744161C167.364 0.77773 167.38 0.794514 167.392 0.822488C167.487 1.10782 167.587 1.39874 167.677 1.68407C167.71 1.79597 167.744 1.90227 167.772 2.01416C167.778 2.04214 167.783 2.0757 167.8 2.09808C168.074 2.42258 168.214 2.80861 168.348 3.20584C168.404 3.36809 168.51 3.50795 168.578 3.66461C168.689 3.93315 168.785 4.20729 168.885 4.47584C168.896 4.50381 168.908 4.54298 168.896 4.57095C168.863 4.66606 168.885 4.69403 168.986 4.68844C169.014 4.68844 169.053 4.72201 169.064 4.74439C169.137 4.90663 169.21 5.06888 169.277 5.23672C169.378 5.4717 169.49 5.70108 169.585 5.93606C169.68 6.17664 169.752 6.4284 169.859 6.66897C169.932 6.82562 170.055 6.9599 170.15 7.10536C170.161 7.12214 170.178 7.14452 170.183 7.1669C170.318 7.55853 170.446 7.95016 170.586 8.34179C170.631 8.46488 170.704 8.57677 170.765 8.68867C170.782 8.68867 170.804 8.68867 170.821 8.68307C170.866 8.58237 170.922 8.48726 170.961 8.38655C171.067 8.10122 171.168 7.81589 171.274 7.53056C171.297 7.46902 171.353 7.42426 171.381 7.36272C171.403 7.30677 171.403 7.23963 171.425 7.18369C171.492 7.04382 171.576 6.91514 171.638 6.77527C171.705 6.6354 171.755 6.48994 171.811 6.34448C171.94 6.04236 172.069 5.74025 172.192 5.43254C172.248 5.29826 172.287 5.1584 172.337 5.02412C172.371 4.92901 172.393 4.81712 172.539 4.81712C172.561 4.81712 172.595 4.74998 172.606 4.71082C172.628 4.63249 172.628 4.54298 172.656 4.46465C172.729 4.26324 172.807 4.06743 172.891 3.87161C173.042 3.53033 173.199 3.18905 173.35 2.84778C173.417 2.70231 173.479 2.55685 173.551 2.41139C173.607 2.29949 173.686 2.19879 173.742 2.09249C173.775 2.02535 173.786 1.94703 173.814 1.87989C173.932 1.60575 174.049 1.33161 174.167 1.05747C174.178 1.03509 174.206 1.00711 174.217 1.01271C174.351 1.06866 174.357 0.945571 174.413 0.884029C174.575 0.693809 174.698 0.47002 174.933 0.358126C175.224 0.218258 175.526 0.134337 175.856 0.134337C176.819 0.134337 177.781 0.0951738 178.749 0.0895791C179.705 0.0895791 180.657 0.106363 181.613 0.117553C181.669 0.117553 181.731 0.111958 181.815 0.106363C181.804 0.1735 181.798 0.235042 181.776 0.285394C181.675 0.542751 181.574 0.800109 181.468 1.05187C181.373 1.27007 181.272 1.47707 181.171 1.68967C181.166 1.70645 181.143 1.71764 181.127 1.72324C181.02 1.74562 181.003 1.82954 180.992 1.91905C180.975 2.09249 180.903 2.23236 180.791 2.37223C180.701 2.47852 180.651 2.62399 180.595 2.75826C180.517 2.94289 180.455 3.12751 180.388 3.31214C180.36 3.39046 180.36 3.48557 180.231 3.47998C180.215 3.47998 180.181 3.54712 180.17 3.58628C180.036 3.99469 179.918 4.4087 179.761 4.80593C179.661 5.07448 179.498 5.32064 179.381 5.58359C179.28 5.80738 179.213 6.04236 179.118 6.27175C179.012 6.5347 178.889 6.79205 178.782 7.0606C178.749 7.15012 178.732 7.24523 178.704 7.33474C178.687 7.3851 178.665 7.42985 178.642 7.47461C178.542 7.65364 178.408 7.82148 178.34 8.0117C178.161 8.48726 178.01 8.97959 177.842 9.47193V9.47752Z" fill="white" fill-opacity="0.5"/>
<path d="M199.926 1.90748C199.898 1.95784 199.875 1.98581 199.847 2.03616C199.937 2.06973 200.015 2.0977 200.099 2.13127C200.328 2.22079 200.558 2.3103 200.787 2.39422C200.927 2.45017 201.067 2.50052 201.207 2.55088C201.229 2.55647 201.263 2.55647 201.274 2.57325C201.419 2.80264 201.688 2.85859 201.884 3.01524C202.096 3.18867 202.354 3.30616 202.572 3.47401C202.885 3.71458 203.176 3.98872 203.484 4.23489C203.607 4.33559 203.758 4.40832 203.892 4.49784C203.926 4.52022 203.982 4.55379 203.982 4.57617C203.954 4.71603 204.06 4.77198 204.133 4.85031C204.267 5.00696 204.407 5.16921 204.541 5.33145C204.547 5.32586 204.575 5.29229 204.608 5.25872C204.731 5.44335 204.849 5.62797 204.972 5.80141C205.028 5.87973 205.106 5.94128 205.173 6.01401C205.19 6.03639 205.218 6.05317 205.229 6.08114C205.308 6.31612 205.459 6.50075 205.615 6.68537C205.783 6.89238 205.929 7.11617 206.024 7.37912C206.091 7.57493 206.248 7.73718 206.343 7.9274C206.466 8.17357 206.55 8.43652 206.678 8.67709C206.841 8.97921 206.947 9.29811 207.025 9.6226C207.148 10.1205 207.299 10.6129 207.417 11.1108C207.635 12.006 207.657 12.9011 207.646 13.8075C207.635 14.3613 207.602 14.9208 207.495 15.4635C207.372 16.1069 207.148 16.7335 206.986 17.3713C206.874 17.8301 206.639 18.2329 206.471 18.6693C206.387 18.8819 206.231 19.0553 206.113 19.2567C206.069 19.3294 206.057 19.419 206.013 19.4917C205.912 19.6651 205.811 19.8386 205.699 20.0064C205.548 20.2414 205.392 20.4764 205.241 20.7169C205.229 20.7337 205.224 20.7561 205.207 20.7617C205 20.8736 204.888 21.0526 204.804 21.2652C204.765 21.3715 204.653 21.4498 204.564 21.5505C204.552 21.517 204.541 21.4946 204.536 21.4666C204.524 21.4666 204.513 21.4666 204.508 21.4778C204.418 21.5897 204.329 21.7016 204.245 21.8191C204.161 21.931 204.082 22.0541 203.993 22.166C203.954 22.2163 203.915 22.2723 203.864 22.2946C203.517 22.4457 203.288 22.7478 203.003 22.9716C202.986 22.9884 202.975 23.0108 202.952 23.022C202.701 23.1954 202.443 23.3688 202.191 23.5367C202.108 23.5926 202.012 23.6374 201.934 23.6989C201.66 23.9115 201.375 24.1073 201.039 24.2192C200.933 24.2528 200.849 24.3423 200.748 24.3983C200.541 24.5046 200.345 24.6556 200.071 24.5997C200.088 24.6612 200.099 24.706 200.11 24.7787C199.926 24.8402 199.735 24.9186 199.545 24.9689C199.142 25.0808 198.728 25.1759 198.325 25.2878C198.174 25.327 198.029 25.3829 197.889 25.4389C197.442 25.6291 196.96 25.6739 196.485 25.7186C196.082 25.7578 195.674 25.7802 195.271 25.8137C195.226 25.8137 195.176 25.8249 195.103 25.8361C195.153 25.8641 195.176 25.8809 195.215 25.9032H193.839C193.889 25.8809 193.917 25.8641 193.945 25.8529C193.945 25.8417 193.945 25.8305 193.945 25.8193C193.055 25.7634 192.171 25.7018 191.287 25.506C191.304 25.4724 191.31 25.4501 191.315 25.4333C190.521 25.2095 189.726 24.9801 188.926 24.7563C188.926 24.7395 188.926 24.7283 188.932 24.7116C188.999 24.706 189.061 24.7004 189.167 24.6836C189.111 24.6444 189.089 24.622 189.061 24.6165C188.697 24.5493 188.367 24.4039 188.048 24.208C187.779 24.0458 187.483 23.9227 187.237 23.7381C187.019 23.5702 186.733 23.4975 186.565 23.2569C186.537 23.2178 186.476 23.201 186.437 23.1674C186.23 22.9996 186.028 22.8317 185.827 22.6695C185.771 22.6247 185.726 22.552 185.665 22.5352C185.407 22.4513 185.234 22.2779 185.111 22.0373C185.072 21.959 184.993 21.903 184.932 21.8359C184.764 21.6736 184.602 21.5114 184.428 21.3547C184.372 21.2988 184.3 21.2596 184.216 21.1925C184.216 21.1869 184.238 21.1365 184.244 21.1198C184.115 20.9295 184.003 20.7561 183.88 20.5883C183.858 20.5603 183.813 20.5547 183.785 20.5267C183.706 20.4484 183.589 20.3812 183.561 20.2861C183.499 20.0903 183.388 19.9449 183.253 19.805C183.141 19.6931 183.052 19.5756 183.046 19.4078C183.046 19.3686 183.018 19.3015 182.996 19.3015C182.867 19.2847 182.856 19.1728 182.811 19.0833C182.711 18.8931 182.604 18.7028 182.515 18.507C182.42 18.3 182.341 18.0874 182.269 17.8748C182.224 17.7405 182.202 17.6007 182.168 17.444C182.146 17.4552 182.101 17.4664 182.028 17.4944C181.955 17.2258 181.877 16.9573 181.804 16.6831C181.603 15.9167 181.541 15.1222 181.418 14.3445C181.318 13.6844 181.351 13.0242 181.373 12.3472C181.39 12.364 181.401 12.3752 181.446 12.4256C181.541 11.3178 181.737 10.2604 182.062 9.18062C182.078 9.28132 182.09 9.34287 182.106 9.44357C182.134 9.37643 182.151 9.34287 182.162 9.3093C182.308 8.90088 182.431 8.48128 182.599 8.08405C182.694 7.86586 182.862 7.67564 182.996 7.46864C183.024 7.42947 183.035 7.38471 183.052 7.33996C183.097 7.23925 183.125 7.13295 183.186 7.04344C183.315 6.84762 183.477 6.66859 183.578 6.46159C183.662 6.28815 183.824 6.21542 183.925 6.06996C184.137 5.76784 184.361 5.47132 184.596 5.18599C184.674 5.09088 184.792 5.02934 184.887 4.95101C184.971 4.88387 185.049 4.81114 185.128 4.74401C185.144 4.73282 185.167 4.71603 185.167 4.70484C185.15 4.50343 185.368 4.47546 185.446 4.34678C185.469 4.31321 185.519 4.27405 185.547 4.27405C185.698 4.28524 185.76 4.17894 185.838 4.08942C186.146 3.74255 186.526 3.49079 186.923 3.25022C187.237 3.06 187.528 2.83621 187.83 2.6292C187.852 2.61242 187.875 2.59563 187.903 2.58444C188.182 2.47255 188.456 2.36066 188.736 2.25436C188.971 2.17044 189.212 2.09211 189.447 1.98581C189.408 1.97462 189.368 1.96343 189.307 1.94105C189.363 1.91308 189.402 1.8907 189.441 1.87951C189.889 1.74524 190.331 1.58858 190.789 1.47669C191.259 1.3648 191.752 1.33682 192.21 1.19136C192.63 1.05709 193.05 1.06268 193.469 1.01792C193.766 0.984355 194.068 0.984354 194.37 0.97876C194.711 0.97876 195.058 0.97876 195.399 0.995544C195.886 1.01792 196.373 1.05709 196.865 1.09065C196.916 1.09065 196.966 1.1522 197.016 1.18017C197.039 1.19136 197.067 1.20255 197.095 1.20255C197.654 1.28087 198.214 1.3648 198.751 1.56061C199.098 1.68929 199.467 1.76762 199.825 1.86832C199.858 1.87951 199.886 1.8851 199.942 1.89629L199.926 1.90748ZM199.847 19.5253C199.73 19.4693 199.797 19.4301 199.847 19.3854C199.937 19.3127 200.021 19.2343 200.116 19.1672C200.172 19.128 200.267 19.1224 200.306 19.0777C200.457 18.9042 200.591 18.714 200.737 18.535C200.888 18.3504 201.045 18.1657 201.196 17.9811C201.279 17.8804 201.358 17.7741 201.425 17.6678C201.481 17.5783 201.498 17.4552 201.565 17.3825C201.721 17.2258 201.811 17.0412 201.884 16.8398C201.912 16.7559 201.968 16.6775 202.007 16.5936C202.119 16.3363 202.298 16.1069 202.354 15.8216C202.415 15.4971 202.505 15.1838 202.566 14.8593C202.645 14.4508 202.729 14.0368 202.762 13.6228C202.807 13.0913 202.762 12.5598 202.611 12.0395C202.46 11.5136 202.443 10.9541 202.141 10.473C202.063 10.3443 201.984 10.21 201.917 10.0758C201.833 9.90234 201.794 9.68974 201.671 9.54987C201.531 9.39322 201.47 9.20859 201.363 9.04075C201.313 8.96243 201.257 8.89529 201.201 8.82256C201.045 8.62674 200.888 8.43093 200.72 8.2463C200.541 8.04489 200.474 7.72599 200.149 7.67005C200.133 7.67005 200.121 7.64767 200.105 7.63648C200.021 7.56375 199.931 7.49661 199.853 7.41828C199.825 7.3959 199.808 7.35674 199.791 7.32877C199.758 7.28401 199.741 7.21687 199.696 7.20009C199.232 6.98749 198.863 6.60145 198.359 6.45599C198.342 6.45599 198.325 6.43921 198.309 6.42802C198.057 6.24339 197.777 6.11471 197.481 6.01401C197.302 5.95247 197.123 5.86855 196.944 5.80141C196.888 5.77903 196.837 5.75106 196.781 5.73987C196.283 5.66714 195.785 5.57203 195.288 5.54405C194.913 5.52167 194.549 5.41537 194.163 5.4881C193.632 5.58881 193.083 5.6 192.552 5.7063C192.104 5.79581 191.679 5.96925 191.243 6.10352C191.215 6.11471 191.192 6.1315 191.17 6.14828C190.974 6.26018 190.778 6.37766 190.582 6.48396C190.437 6.56229 190.241 6.59026 190.146 6.70216C190.034 6.83643 189.883 6.87 189.76 6.95952C189.598 7.077 189.335 7.09938 189.324 7.37912C189.324 7.38471 189.312 7.3959 189.307 7.4015C189.217 7.46304 189.133 7.54137 189.033 7.58612C188.859 7.65326 188.747 7.77075 188.647 7.92181C188.607 7.97775 188.546 8.01692 188.496 8.06727C188.468 8.09524 188.434 8.12322 188.412 8.15679C188.339 8.26868 188.283 8.40295 188.193 8.49247C187.975 8.70507 187.791 8.94005 187.645 9.21419C187.483 9.52749 187.259 9.81282 187.114 10.1317C186.867 10.6688 186.677 11.2171 186.571 11.8045C186.426 12.571 186.414 13.3431 186.465 14.1096C186.515 14.9208 186.666 15.7153 187.013 16.4649C187.153 16.7615 187.254 17.0748 187.483 17.3209C187.55 17.3993 187.589 17.5 187.64 17.5951C187.679 17.6734 187.701 17.7685 187.757 17.8357C187.947 18.0818 188.149 18.3168 188.35 18.5518C188.423 18.6357 188.501 18.7196 188.579 18.8035C188.641 18.8707 188.725 18.9266 188.764 19.0049C188.82 19.128 188.915 19.1728 189.027 19.2287C189.139 19.2847 189.279 19.363 189.318 19.4637C189.357 19.5588 189.402 19.6204 189.475 19.6651C189.603 19.749 189.743 19.8162 189.877 19.8945C190.04 19.9896 190.236 20.0512 190.359 20.1854C190.61 20.4596 191.013 20.4484 191.265 20.7001C191.824 20.868 192.384 21.0526 192.971 21.0918C193.005 21.0918 193.044 21.1086 193.117 21.1253C193.005 21.1533 192.932 21.1701 192.859 21.1869C192.859 21.2037 192.865 21.2261 192.871 21.2428C194.023 21.3715 195.176 21.3883 196.334 21.2316C196.334 21.2205 196.334 21.2093 196.334 21.1925C196.216 21.1701 196.104 21.1477 195.987 21.1253C196.132 21.0862 196.283 21.0918 196.423 21.0638C196.899 20.9519 197.369 20.8232 197.839 20.7001C197.861 20.6946 197.878 20.6666 197.9 20.6554C197.945 20.6218 197.984 20.5771 198.029 20.5547C198.258 20.4428 198.527 20.3813 198.712 20.2246C198.851 20.1015 199.002 20.0232 199.159 19.9337C199.383 19.7994 199.612 19.6707 199.858 19.5253H199.847Z" fill="white" fill-opacity="0.5"/>
<path d="M224.782 24.6781C224.871 24.7005 224.91 24.7116 224.989 24.734C224.921 24.762 224.893 24.7844 224.86 24.79C224.233 24.941 223.612 25.0977 222.986 25.232C222.684 25.2935 222.365 25.2767 222.063 25.3438C221.475 25.4725 220.888 25.4501 220.3 25.4501C217.335 25.4501 214.37 25.4501 211.405 25.4501C211.276 25.4501 211.226 25.4222 211.226 25.2823C211.226 17.7742 211.226 10.2661 211.226 2.75796C211.226 2.44465 211.226 2.13135 211.226 1.81805C211.226 1.72294 211.254 1.68377 211.354 1.68377C212.384 1.66699 213.419 1.6502 214.448 1.62223C215.03 1.61104 215.612 1.61104 216.188 1.55509C217.301 1.44879 218.409 1.40963 219.523 1.49915C220.429 1.57188 221.335 1.6558 222.242 1.74531C222.588 1.77888 222.93 1.84602 223.277 1.89637C223.288 1.89637 223.299 1.91316 223.321 1.92994C223.288 1.95791 223.26 1.98589 223.187 2.04183C224.44 2.22646 225.47 2.77474 226.27 3.73703C226.275 3.70347 226.287 3.6699 226.292 3.63074C226.303 3.64192 226.309 3.65311 226.315 3.6643C226.471 3.91607 226.633 4.16783 226.79 4.42519C226.835 4.49792 226.835 4.59862 226.885 4.67135C226.947 4.76646 227.031 4.85038 227.098 4.9399C227.143 5.00144 227.193 5.06298 227.215 5.13572C227.322 5.56091 227.406 5.99171 227.523 6.41691C227.708 7.08827 227.68 7.77083 227.59 8.4422C227.501 9.12475 227.305 9.79052 227.154 10.4619C227.137 10.5402 227.059 10.6074 227.031 10.6857C226.885 11.0381 226.757 11.3962 226.611 11.7487C226.544 11.9165 226.449 12.0788 226.37 12.2466C226.298 12.2354 226.253 12.2242 226.186 12.213C226.225 12.4536 226.074 12.6159 225.973 12.8005C225.917 12.9068 225.934 12.9907 226.024 13.0746C226.113 13.153 226.197 13.2369 226.287 13.3208C226.292 13.2872 226.303 13.2537 226.309 13.2145C226.32 13.2145 226.331 13.2145 226.337 13.2145C226.426 13.3264 226.505 13.4495 226.605 13.5558C226.779 13.7292 226.891 13.9754 227.148 14.0593C227.159 14.0593 227.171 14.0761 227.182 14.0873C227.439 14.4285 227.702 14.7698 227.959 15.1111C228.077 15.2733 228.217 15.4244 228.301 15.6034C228.429 15.8608 228.508 16.1405 228.62 16.4091C228.894 17.0637 229.011 17.7518 228.994 18.4567C228.983 18.8764 228.95 19.3015 228.838 19.7044C228.664 20.3366 228.413 20.952 228.194 21.573C228.178 21.6178 228.144 21.6569 228.122 21.6961C228.015 21.8639 227.92 22.0318 227.808 22.194C227.719 22.3171 227.613 22.429 227.523 22.5521C227.428 22.6864 227.344 22.8262 227.254 22.9605C227.221 23.0053 227.193 23.0724 227.148 23.0892C226.852 23.2123 226.723 23.4976 226.505 23.699C226.438 23.7605 226.404 23.8557 226.287 23.8221C226.27 23.8221 226.242 23.8389 226.225 23.8557C225.895 24.2193 225.464 24.4263 225.011 24.5942C224.949 24.6165 224.893 24.6445 224.793 24.6837L224.782 24.6781ZM216.233 15.0104C216.227 15.0496 216.222 15.0719 216.222 15.0887C216.222 17.1196 216.222 19.1561 216.222 21.187C216.222 21.2877 216.266 21.3045 216.35 21.3045C217.011 21.3212 217.676 21.338 218.336 21.366C219.31 21.3996 220.283 21.366 221.251 21.2653C221.324 21.2597 221.397 21.2429 221.47 21.2317C221.47 21.2205 221.47 21.2038 221.47 21.1926C221.386 21.1646 221.307 21.1422 221.19 21.103C221.268 21.0919 221.318 21.0807 221.363 21.0807C221.693 21.0695 222.001 20.9744 222.303 20.8513C222.449 20.7897 222.611 20.7338 222.684 20.5604C222.695 20.538 222.734 20.5156 222.751 20.5212C222.913 20.5492 222.986 20.4317 223.058 20.3254C223.226 20.0792 223.4 19.833 223.568 19.5869C223.584 19.5589 223.607 19.5365 223.623 19.5141C223.601 19.4694 223.584 19.4302 223.568 19.3967C223.579 19.3967 223.596 19.4023 223.607 19.4078C223.64 19.3519 223.696 19.3015 223.713 19.24C223.864 18.6749 223.853 18.0987 223.763 17.528C223.724 17.2707 223.629 17.0189 223.562 16.7615C223.551 16.7615 223.54 16.7671 223.528 16.7727L223.545 16.9294C223.5 16.8902 223.484 16.8399 223.461 16.7951C223.355 16.5825 223.249 16.3643 223.137 16.1517C223.086 16.051 223.025 15.9503 222.963 15.8552C222.941 15.816 222.902 15.7713 222.868 15.7601C222.667 15.7153 222.516 15.609 222.398 15.4468C222.376 15.4188 222.337 15.4076 222.298 15.3908C221.755 15.1726 221.173 15.1111 220.602 15.0216C220.138 14.9489 219.657 14.96 219.181 14.96C218.583 14.96 217.978 14.9936 217.38 15.0048C216.999 15.0104 216.613 15.0048 216.222 15.0048L216.233 15.0104ZM216.289 11.5473C217.005 11.564 217.715 11.5976 218.426 11.5864C218.98 11.5864 219.539 11.5473 220.093 11.4969C220.552 11.4522 220.949 11.206 221.369 11.0326C221.447 10.999 221.497 10.8871 221.559 10.8088C221.57 10.792 221.576 10.764 221.593 10.7528C221.699 10.6801 221.816 10.6185 221.906 10.529C222.079 10.3612 222.27 10.1989 222.387 9.99753C222.51 9.78493 222.577 9.53317 222.616 9.287C222.734 8.61004 222.745 7.92189 222.583 7.25052C222.527 7.01554 222.421 6.78616 222.292 6.57915C222.18 6.40012 222.018 6.24347 221.861 6.09801C221.66 5.90779 221.447 5.73435 221.235 5.55532C221.184 5.51616 221.117 5.48818 221.056 5.46021C220.793 5.33713 220.541 5.17488 220.267 5.11334C219.881 5.02942 219.483 4.99025 219.086 4.98466C218.46 4.97347 217.839 5.00144 217.212 5.00704C216.904 5.00704 216.597 5.00704 216.283 5.00704V11.5417L216.289 11.5473Z" fill="white" fill-opacity="0.5"/>
</g>
<g clip-path="url(#clip1_644_466)">
<path d="M279.355 25.2704C279.481 25.051 279.593 24.8728 279.69 24.6864C281.182 21.8455 282.671 19.0029 284.163 16.1604C285.4 13.8029 286.639 11.4454 287.873 9.08622C289.328 6.30307 290.782 3.51827 292.23 0.731826C292.301 0.594896 292.38 0.552002 292.53 0.552002C295.488 0.556951 298.445 0.556951 301.403 0.552002C301.611 0.552002 301.66 0.619642 301.682 0.817614C301.751 1.46762 301.853 2.11433 301.937 2.76268C302.058 3.6816 302.173 4.60052 302.294 5.51779C302.394 6.28163 302.5 7.04382 302.599 7.80766C302.719 8.72657 302.833 9.64549 302.954 10.5644C303.053 11.3282 303.16 12.0904 303.261 12.8543C303.378 13.7385 303.493 14.6228 303.61 15.5087C303.726 16.3798 303.841 17.2509 303.957 18.122C304.075 19.026 304.193 19.9318 304.311 20.8375C304.442 21.8306 304.572 22.8238 304.706 23.8153C304.762 24.2343 304.823 24.6517 304.884 25.0691C304.905 25.2225 304.862 25.2869 304.688 25.2852C302.196 25.2803 299.705 25.2803 297.214 25.2852C297.064 25.2852 297.013 25.2473 297.008 25.0922C296.986 24.3086 296.955 23.5249 296.924 22.7396C296.914 22.4872 296.889 22.2365 296.876 21.9841C296.869 21.8587 296.813 21.796 296.683 21.7993C296.566 21.8026 296.45 21.7993 296.333 21.7993C294.076 21.7993 291.818 21.7993 289.561 21.7943C289.416 21.7943 289.35 21.8339 289.295 21.9758C288.884 23.03 288.465 24.0809 288.038 25.1302C288.01 25.1978 287.908 25.2506 287.829 25.277C287.754 25.3017 287.665 25.2819 287.583 25.2819C284.914 25.2819 282.244 25.2819 279.575 25.2819C279.522 25.2819 279.468 25.277 279.359 25.2704H279.355ZM291.409 17.01C291.488 17.0166 291.572 17.0315 291.656 17.0315C293.124 17.0298 294.591 17.0265 296.059 17.0216C296.541 17.0216 296.546 17.0199 296.513 16.5464C296.445 15.5681 296.376 14.5882 296.3 13.6099C296.224 12.6398 296.134 11.6697 296.061 10.6997C295.993 9.79562 295.942 8.89155 295.883 7.98583C295.876 7.8753 295.861 7.76476 295.851 7.65588L295.813 7.65918C294.35 10.7657 292.887 13.8705 291.409 17.01Z" fill="white" fill-opacity="0.5"/>
<path d="M344.799 7.84244C344.427 7.57023 344.084 7.31122 343.736 7.06045C342.773 6.36755 341.752 5.79179 340.559 5.59382C339.94 5.48988 339.32 5.46184 338.714 5.6961C337.979 5.98151 337.51 6.65626 337.538 7.4267C337.553 7.83749 337.753 8.17404 338.033 8.45615C338.652 9.07811 339.419 9.46911 340.212 9.82216C341.621 10.4491 343.005 11.109 344.249 12.0493C345.297 12.8412 345.94 13.8558 346.241 15.1063C346.666 16.8782 346.564 18.6236 345.812 20.2899C345.077 21.9166 343.924 23.21 342.406 24.1668C341.055 25.0181 339.571 25.4965 337.997 25.7473C336.87 25.9271 335.738 25.9354 334.613 25.8413C332.848 25.6962 331.163 25.2012 329.548 24.4671C328.042 23.7824 326.661 22.9031 325.358 21.8935C325.213 21.7813 325.206 21.7103 325.315 21.552C326.509 19.8181 327.692 18.0792 328.874 16.3354C328.996 16.1556 329.06 16.2298 329.162 16.342C330.111 17.3929 331.2 18.2689 332.472 18.9057C333.541 19.4403 334.674 19.7405 335.872 19.7306C336.535 19.724 337.185 19.5887 337.706 19.1285C338.412 18.5049 338.431 17.5876 337.756 16.9326C337.234 16.4262 336.588 16.1308 335.926 15.8586C334.499 15.273 333.099 14.6411 331.841 13.7255C330.749 12.9303 329.918 11.9306 329.454 10.6685C329.266 10.1587 329.184 9.59614 329.139 9.05172C329.007 7.43825 329.309 5.90397 330.111 4.48353C330.583 3.64545 331.229 2.95915 331.955 2.32894C333.056 1.37373 334.334 0.774862 335.728 0.410264C336.909 0.0951597 338.122 -0.00877528 339.348 -0.000526468C340.607 0.0093721 341.849 0.143003 343.068 0.453158C344.38 0.78806 345.604 1.32588 346.739 2.06168C347.014 2.23985 347.288 2.42297 347.569 2.5929C347.722 2.68529 347.729 2.77932 347.641 2.9278C347.041 3.9457 346.445 4.96691 345.853 5.98976C345.541 6.52758 345.242 7.072 344.936 7.61313C344.896 7.68242 344.853 7.7517 344.799 7.84244Z" fill="white" fill-opacity="0.5"/>
<path d="M263.898 16.1456C263.995 16.2677 264.071 16.3815 264.163 16.4789C265.099 17.4638 266.153 18.2985 267.375 18.9073C268.253 19.3445 269.182 19.6052 270.162 19.7041C270.97 19.785 271.734 19.6909 272.43 19.2554C273.288 18.7192 273.405 17.6997 272.701 16.982C272.186 16.4574 271.541 16.1407 270.87 15.8717C269.443 15.3026 268.039 14.6823 266.791 13.7732C265.737 13.0045 264.901 12.0525 264.407 10.8317C264.178 10.2642 264.054 9.67029 264.02 9.06318C263.964 8.08487 264.015 7.11481 264.3 6.16785C264.767 4.62367 265.61 3.33355 266.866 2.29915C267.992 1.37034 269.268 0.759925 270.668 0.392028C271.76 0.10332 272.877 0.00763377 274.004 -0.000615043C275.388 -0.00886385 276.754 0.123117 278.091 0.491014C279.598 0.906754 280.983 1.57986 282.248 2.49712C282.585 2.74129 282.588 2.74129 282.385 3.10094C281.61 4.46694 280.831 5.83129 280.054 7.1973C279.966 7.35237 279.884 7.5091 279.806 7.66913C279.732 7.82421 279.656 7.84235 279.511 7.73017C278.793 7.16925 278.063 6.62648 277.243 6.21734C276.342 5.76695 275.403 5.4733 274.38 5.52939C273.725 5.56568 273.164 5.80985 272.765 6.34107C272.328 6.92179 272.298 7.77966 272.912 8.44287C273.422 8.99059 274.065 9.33704 274.732 9.65049C275.543 10.0316 276.365 10.3912 277.165 10.7971C278.072 11.2574 278.901 11.8414 279.656 12.5244C280.479 13.2701 280.938 14.2154 281.167 15.2795C281.44 16.5383 281.42 17.8003 281.121 19.0525C280.781 20.4779 280.019 21.6641 279.026 22.7298C277.676 24.1783 275.987 25.0065 274.103 25.4965C272.938 25.8 271.751 25.8924 270.543 25.8825C268.263 25.8627 266.136 25.2671 264.096 24.3037C262.733 23.6603 261.468 22.8618 260.298 21.9115C260.135 21.7779 260.103 21.702 260.237 21.509C261.016 20.3855 261.773 19.2488 262.538 18.1154C262.941 17.5215 263.343 16.9259 263.746 16.332C263.776 16.2875 263.812 16.2479 263.893 16.144L263.898 16.1456Z" fill="white" fill-opacity="0.5"/>
<path d="M330.378 0.61492C330.192 0.857435 330.004 1.09995 329.817 1.34247C329.121 2.24818 328.425 3.1539 327.729 4.05797C326.059 6.22411 324.388 8.3886 322.717 10.5547C321.631 11.962 320.551 13.3742 319.457 14.7765C319.249 15.0437 319.28 15.3572 319.221 15.6509C319.033 16.578 318.86 17.5085 318.686 18.4389C318.475 19.5641 318.274 20.6892 318.061 21.8127C317.878 22.7828 317.685 23.7512 317.499 24.7212C317.474 24.8483 317.456 24.977 317.444 25.1056C317.433 25.2294 317.381 25.2838 317.248 25.2838C314.62 25.2805 311.992 25.2838 309.364 25.2822C309.331 25.2822 309.298 25.2739 309.243 25.2657C309.298 24.9572 309.345 24.6586 309.402 24.3599C309.633 23.1358 309.868 21.9133 310.098 20.6892C310.377 19.1978 310.65 17.7048 310.926 16.2118C310.987 15.8835 311.04 15.5552 311.104 15.2269C311.122 15.1361 311.157 15.0404 311.211 14.9646C312.236 13.521 313.264 12.0791 314.293 10.6389C314.841 9.87174 315.346 9.065 315.959 8.3523C316.647 7.55382 317.122 6.62335 317.746 5.78857C318.65 4.5793 319.513 3.33703 320.394 2.1096C320.74 1.62622 321.087 1.14284 321.445 0.667713C321.491 0.605022 321.6 0.560478 321.681 0.558828C322.072 0.54728 322.463 0.553879 322.854 0.553879C325.282 0.553879 327.712 0.553879 330.141 0.553879C330.213 0.553879 330.286 0.553879 330.357 0.553879L330.378 0.61327V0.61492Z" fill="white" fill-opacity="0.5"/>
<path d="M310.069 12.4913C308.381 8.49891 306.71 4.54773 305.022 0.555301C305.121 0.555301 305.187 0.555301 305.252 0.555301C307.797 0.555301 310.341 0.556951 312.887 0.552002C313.06 0.552002 313.144 0.613043 313.205 0.768121C313.786 2.23146 314.363 3.6981 314.967 5.15154C315.079 5.42045 315.033 5.58378 314.875 5.80154C313.992 7.01082 313.124 8.22999 312.255 9.44752C311.575 10.3994 310.902 11.353 310.224 12.3049C310.19 12.3544 310.147 12.3973 310.069 12.488V12.4913Z" fill="white" fill-opacity="0.5"/>
</g>
<g clip-path="url(#clip2_644_466)">
<path d="M28.7538 56.7918C28.7538 53.8079 28.762 50.8241 28.7477 47.8423C28.7436 47.1148 28.7804 46.9554 29.6801 46.8736C30.4534 46.8021 31.2369 46.8123 32.0143 46.8062C33.3119 46.796 34.6116 46.8103 35.9092 46.8C37.1436 46.7898 38.3801 46.7428 39.6145 46.7469C42.6647 46.7551 45.717 46.8 48.7673 46.798C52.1216 46.798 55.4779 46.7633 58.8322 46.7387C59.479 46.7346 60.1258 46.6938 60.7726 46.6856C61.0031 46.6815 61.2439 46.6917 61.4601 46.7571C61.5969 46.798 61.7295 46.9329 61.809 47.0596C61.8866 47.1802 61.9233 47.3457 61.9253 47.4908C61.9539 48.9398 61.9723 50.3888 61.9865 51.8378C61.9865 51.9768 61.9559 52.1178 61.9274 52.2568C61.8743 52.5245 61.705 52.6553 61.4336 52.6553C60.4604 52.6553 59.4851 52.6594 58.5119 52.6532C58.1691 52.6512 57.8263 52.6165 57.4836 52.5981C57.2244 52.5838 57.1122 52.7125 57.1204 52.9659C57.1245 53.0681 57.1204 53.1683 57.1204 53.2704C57.1204 57.6951 57.1163 62.1197 57.1245 66.5444C57.1245 67.0819 57.0653 67.2985 56.3206 67.3251C55.7758 67.3455 55.2311 67.2822 54.6842 67.2781C53.5886 67.2699 52.4929 67.2699 51.3973 67.2781C50.8729 67.2822 50.3465 67.3046 49.8222 67.3353C48.953 67.3864 48.5959 66.7835 48.598 66.1213C48.6021 65.0504 48.6653 63.9795 48.7041 62.9086C48.7041 62.8882 48.7041 62.8677 48.7041 62.8473C48.7265 61.8357 48.753 60.822 48.7673 59.8103C48.7918 58.1079 48.8163 56.4055 48.8265 54.7031C48.8306 54.1227 48.7959 53.5402 48.7632 52.9598C48.7428 52.6001 48.4756 52.3549 48.094 52.361C47.5493 52.3671 47.0024 52.4141 46.4577 52.4141C45.8007 52.4141 45.1437 52.3528 44.4867 52.363C42.1077 52.3937 39.7287 52.4427 37.3497 52.4775C37.1151 52.4816 37.0192 52.5674 37.0253 52.8004C37.0334 53.1969 37.0334 53.5913 37.0253 53.9878C37.0212 54.2024 37.0926 54.3168 37.3232 54.3005C38.1373 54.2433 38.9513 54.184 39.7654 54.1288C39.9164 54.1186 40.0694 54.1227 40.2204 54.1165C40.7244 54.0982 41.2304 54.045 41.7343 54.0655C42.2852 54.0879 42.8361 54.1676 43.3829 54.2371C43.6278 54.2698 43.7298 54.4251 43.7277 54.6867C43.7175 56.1378 43.7257 57.5888 43.7216 59.0399C43.7216 59.6101 43.4278 59.8982 42.8586 59.9043C42.5443 59.9084 42.2301 59.8982 41.9159 59.9043C40.4693 59.9432 39.0248 59.982 37.5782 60.029C37.1028 60.0454 37.0865 60.0719 37.0865 60.5359C37.0865 61.1755 37.0824 61.8152 37.0906 62.4529C37.1069 63.8303 37.1314 65.2078 37.1477 66.5853C37.1538 67.1411 36.9641 67.3271 36.3969 67.3292C34.5096 67.3312 32.6243 67.3292 30.737 67.3333C30.3636 67.3333 29.9923 67.3803 29.6189 67.3864C29.1864 67.3946 29.0232 67.2862 28.913 66.8755C28.8273 66.5566 28.7538 66.2235 28.7518 65.8965C28.7395 62.8616 28.7457 59.8287 28.7457 56.7938L28.7538 56.7918Z" fill="white" fill-opacity="0.5"/>
<path d="M79.4563 56.8696C79.4563 53.9266 79.4645 50.9837 79.4522 48.0407C79.4481 47.0495 79.6379 47.0086 80.5275 46.8717C80.9845 46.8022 81.4538 46.8083 81.919 46.8022C84.198 46.7777 86.4791 46.7082 88.7581 46.7552C90.8862 46.7981 92.9795 47.1456 94.9301 48.0571C96.2583 48.6783 97.2764 49.6532 98.0069 50.9326C98.6822 52.1138 99.1454 53.3707 99.3474 54.7114C99.5167 55.8313 99.5412 56.9636 99.4412 58.0999C99.3514 59.1258 99.1392 60.117 98.7495 61.0653C97.7722 63.4503 96.2012 65.3019 93.8242 66.3871C92.7163 66.8919 91.5533 67.2496 90.3251 67.2598C87.6931 67.2823 85.059 67.2618 82.427 67.27C81.6578 67.2721 80.8886 67.2986 80.1214 67.3375C79.8705 67.3497 79.7256 67.2618 79.6726 67.037C79.5889 66.6753 79.4685 66.3074 79.4665 65.9437C79.4502 62.919 79.4563 59.8963 79.4563 56.8716V56.8696ZM87.1952 56.7265C87.1605 56.7265 87.1279 56.7265 87.0932 56.7265C87.1483 58.1632 87.1911 59.6 87.2646 61.0367C87.287 61.4679 87.3789 61.8971 87.4605 62.3222C87.5054 62.5552 87.6645 62.6941 87.9195 62.6676C88.1909 62.639 88.4623 62.6124 88.7295 62.5674C89.815 62.3774 90.6699 61.848 91.2269 60.8711C91.8125 59.8432 91.941 58.7048 91.9818 57.5624C92.0165 56.6325 91.992 55.6965 91.9206 54.7686C91.8512 53.8796 91.5982 53.0274 90.9739 52.3509C90.119 51.4231 88.9887 51.2064 87.793 51.1962C87.7216 51.1962 87.6114 51.2371 87.587 51.2902C87.4462 51.5968 87.2217 51.9115 87.2136 52.2283C87.1748 53.7263 87.1952 55.2264 87.1952 56.7265Z" fill="white" fill-opacity="0.5"/>
<path d="M70.5244 46.9229C72.9075 46.9229 75.2906 46.9229 77.6757 46.9229C78.1695 46.9229 78.2449 46.9985 78.247 47.4767C78.247 48.846 78.2409 50.2173 78.2511 51.5866C78.2551 52.1793 78.0226 52.5574 77.3064 52.539C75.9271 52.5063 74.5479 52.5349 73.1686 52.5247C72.481 52.5206 71.7935 52.4899 71.1079 52.4654C70.8916 52.4572 70.7733 52.5104 70.7529 52.7597C70.7162 53.2011 70.6264 53.6365 70.5876 54.0779C70.5509 54.4928 70.5999 54.5316 71.012 54.5316C72.9687 54.5316 74.9274 54.5316 76.8841 54.5316C77.4084 54.5316 77.5757 54.6971 77.5798 55.2162C77.5818 55.6332 77.5737 56.048 77.5818 56.465C77.5982 57.2845 77.6247 58.104 77.639 58.9235C77.6471 59.3752 77.5961 59.3956 77.1595 59.414C76.1312 59.459 75.1049 59.5264 74.0766 59.5857C73.9562 59.5918 73.8338 59.5878 73.7114 59.5918C72.8116 59.6123 71.9118 59.6368 71.01 59.6511C70.8141 59.6552 70.6998 59.7104 70.7019 59.927C70.706 60.3725 70.7039 60.8201 70.7019 61.2656C70.7019 61.4578 70.7896 61.5436 70.9814 61.5354C71.971 61.4945 72.9605 61.4578 73.948 61.4189C73.9786 61.4189 74.0092 61.4148 74.0399 61.4148C75.2844 61.3944 76.529 61.3658 77.7757 61.3556C78.3041 61.3515 78.4877 61.5518 78.4939 62.0668C78.5122 63.5056 78.5367 64.9443 78.551 66.3831C78.5571 66.9799 78.3898 67.1434 77.8002 67.1434C75.9129 67.1434 74.0276 67.1372 72.1403 67.1454C71.2201 67.1495 70.2999 67.1822 69.3777 67.2047C68.5779 67.2231 67.7802 67.2415 66.9803 67.264C65.8072 67.2967 64.636 67.3539 63.4628 67.358C62.9813 67.358 62.6712 67.1025 62.661 66.4526C62.6406 65.0424 62.6467 63.6323 62.6569 62.2221C62.6671 60.8038 62.6998 59.3854 62.712 57.9671C62.7202 57.0842 62.71 56.2013 62.7161 55.3184C62.7344 52.6616 62.7549 50.0068 62.7753 47.35C62.7773 47.0005 62.8671 46.9229 63.2792 46.9229C64.6891 46.9229 66.0989 46.9229 67.5088 46.9229C68.5126 46.9229 69.5165 46.9229 70.5203 46.9229H70.5244Z" fill="white" fill-opacity="0.5"/>
<path d="M3.06891 58.5108C3.06891 56.1258 3.07504 53.7429 3.06687 51.3578C3.06279 50.3952 3.00566 49.4347 3.01587 48.4742C3.02199 48.0348 3.1138 47.5954 3.19949 47.16C3.2607 46.8596 3.45045 46.7309 3.78915 46.7309C5.31735 46.7309 6.84759 46.6716 8.37578 46.692C9.10622 46.7022 9.83665 46.8371 10.565 46.925C10.7017 46.9414 10.8344 47.0068 10.967 47.0558C11.2955 47.1764 11.4179 47.4196 11.4138 47.7629C11.3873 49.9722 11.371 52.1815 11.3506 54.3907C11.3302 56.508 11.3159 58.6273 11.2832 60.7446C11.2792 61.041 11.3669 61.1288 11.6587 61.1145C12.1851 61.0921 12.7135 61.1023 13.2399 61.1084C14.5253 61.1248 15.8107 61.1431 17.0961 61.1738C17.3858 61.1799 17.6776 61.231 17.9612 61.2903C18.3835 61.3761 18.5243 61.5335 18.5264 61.9504C18.5345 63.4628 18.5305 64.9731 18.5305 66.4854C18.5305 66.7674 18.3897 66.9555 18.1203 67.0045C17.6756 67.0863 17.2267 67.1741 16.7778 67.1946C15.7679 67.2395 14.7538 67.2559 13.7439 67.262C10.3998 67.2866 7.0557 67.3029 3.71161 67.3233C3.45862 67.3233 3.27499 67.2334 3.21786 66.9739C3.16073 66.7102 3.073 66.4425 3.073 66.1768C3.06279 63.6201 3.06687 61.0634 3.06687 58.5068L3.06891 58.5108Z" fill="white" fill-opacity="0.5"/>
<path d="M27.4216 59.1626C27.4216 60.2274 27.4134 61.2922 27.4236 62.357C27.4318 63.3277 27.4705 64.3005 27.4767 65.2713C27.4787 65.7863 27.4461 66.3013 27.4155 66.8163C27.391 67.2435 27.2971 67.3252 26.8748 67.3252C25.3343 67.3252 23.7918 67.3211 22.2514 67.3293C21.7678 67.3314 21.2823 67.3804 20.7987 67.3825C20.3947 67.3825 19.9928 67.3457 19.5888 67.3273C19.4011 67.3191 19.3174 67.2169 19.3174 67.035C19.3174 65.817 19.3133 64.601 19.3215 63.3829C19.3235 62.9803 19.3705 62.5756 19.3766 62.173C19.4011 60.3194 19.4174 58.4657 19.4398 56.6121C19.4582 55.114 19.4807 53.6139 19.5011 52.1159C19.5072 51.7092 19.601 51.607 20.0009 51.6152C20.5355 51.6254 21.0701 51.6581 21.6067 51.6663C21.776 51.6704 21.9474 51.6131 22.1167 51.6152C23.747 51.6315 25.3772 51.6561 27.0074 51.6683C27.2624 51.6683 27.3522 51.793 27.3583 52.0178C27.3583 52.0485 27.3583 52.0791 27.3583 52.1098C27.3583 54.46 27.3583 56.8103 27.3583 59.1626C27.3787 59.1626 27.4012 59.1626 27.4216 59.1626Z" fill="white" fill-opacity="0.5"/>
<path d="M23.3752 50.2174C22.1592 50.2174 20.9411 50.2133 19.7251 50.2215C19.4761 50.2215 19.3802 50.1336 19.3782 49.8863C19.366 48.934 19.3476 47.9836 19.317 47.0333C19.3088 46.7738 19.3843 46.6757 19.6598 46.6757C21.747 46.6654 23.8343 46.6409 25.9195 46.6225C26.2745 46.6184 26.6295 46.6164 26.9845 46.6225C27.313 46.6287 27.4211 46.7431 27.4211 47.064C27.4211 47.9877 27.415 48.9115 27.4252 49.8332C27.4293 50.1275 27.313 50.2235 27.0274 50.2215C25.8113 50.2113 24.5933 50.2174 23.3772 50.2174H23.3752Z" fill="white" fill-opacity="0.5"/>
<path d="M61.3247 70.6221C61.3247 71.0983 61.3206 71.5744 61.3247 72.0527C61.3267 72.2836 61.2268 72.3858 60.9962 72.3838C60.631 72.3776 60.2658 72.3735 59.9005 72.3838C59.7006 72.3899 59.6088 72.3 59.5496 72.1242C59.4354 71.7788 59.315 71.4355 59.1803 71.0983C59.1456 71.0104 59.0497 70.947 58.9824 70.8714C58.9518 70.9572 58.8967 71.0431 58.8947 71.131C58.8845 71.4457 58.8824 71.7604 58.8947 72.0731C58.9028 72.3286 58.809 72.4451 58.5417 72.443C57.5358 72.4369 57.595 72.5248 57.6093 71.5397C57.6215 70.6895 57.6501 69.8414 57.6644 68.9912C57.6684 68.7991 57.7358 68.7132 57.9337 68.7173C58.3295 68.7235 58.7253 68.7051 59.1191 68.7296C59.217 68.7357 59.3537 68.84 59.3946 68.9319C59.5598 69.2998 59.6904 69.684 59.8434 70.056C59.872 70.1254 59.9556 70.1725 60.0128 70.2276C60.0413 70.15 60.0944 70.0744 60.0964 69.9967C60.1066 69.7024 60.1046 69.4081 60.1005 69.1138C60.0964 68.842 60.1923 68.6867 60.4943 68.7153C60.6147 68.7275 60.7371 68.7153 60.8595 68.7153C61.2778 68.7153 61.3186 68.7521 61.3226 69.1874C61.3288 69.6636 61.3226 70.1398 61.3226 70.618L61.3247 70.6221Z" fill="white" fill-opacity="0.5"/>
<path d="M33.1235 70.1415C33.148 69.7695 33.1827 69.3996 33.1909 69.0277C33.1949 68.8131 33.2561 68.7048 33.4887 68.7191C33.6805 68.7313 33.8744 68.7293 34.0662 68.7191C34.2783 68.7088 34.36 68.8151 34.36 69.0113C34.36 70.0454 34.3579 71.0796 34.362 72.1137C34.362 72.3099 34.2824 72.3875 34.0886 72.3834C33.7234 72.3773 33.3582 72.3712 32.995 72.3834C32.7706 72.3916 32.6624 72.2792 32.593 72.0891C32.4727 71.7581 32.3523 71.4249 32.2197 71.0979C32.1911 71.0285 32.1013 70.9835 32.0401 70.9283C32.0014 70.9998 31.934 71.0693 31.932 71.1409C31.9197 71.4638 31.9157 71.7908 31.932 72.1137C31.9442 72.3712 31.8381 72.4611 31.5912 72.4427C31.4097 72.4284 31.226 72.4304 31.0444 72.4427C30.769 72.4611 30.6425 72.3119 30.6466 72.0646C30.6588 71.0223 30.6792 69.98 30.7139 68.9398C30.716 68.8642 30.8527 68.7354 30.9322 68.7313C31.3464 68.7109 31.7626 68.7048 32.1768 68.7313C32.2829 68.7375 32.4237 68.8621 32.4706 68.9684C32.6155 69.2893 32.7155 69.6306 32.8481 69.9576C32.8848 70.0495 32.9685 70.1211 33.0297 70.2028C33.0623 70.1824 33.095 70.1599 33.1276 70.1394L33.1235 70.1415Z" fill="white" fill-opacity="0.5"/>
<path d="M65.8883 69.9578C66.4126 70.0294 66.429 70.015 66.431 69.5573C66.431 69.4755 66.431 69.3958 66.431 69.3141C66.4412 68.6253 66.3249 68.7439 67.0676 68.6764C67.9021 68.5988 67.9102 68.703 67.9 69.4428C67.8858 70.3134 67.8898 71.1861 67.9 72.0588C67.9041 72.3408 67.7776 72.443 67.5205 72.443C67.2777 72.443 67.0329 72.4246 66.7921 72.4471C66.4718 72.4777 66.378 72.3081 66.3718 72.0383C66.3657 71.8156 66.3698 71.5928 66.3718 71.37C66.3718 71.2311 66.3718 71.0962 66.1739 71.1084C65.9985 71.1187 65.8862 71.1861 65.8903 71.3843C65.8944 71.6173 65.8801 71.8503 65.8924 72.0833C65.9066 72.3347 65.7781 72.4369 65.5516 72.4409C65.319 72.4471 65.0864 72.443 64.8518 72.4409C64.4886 72.4409 64.3703 72.3469 64.3682 71.9831C64.3662 71.5499 64.405 71.1166 64.4152 70.6833C64.4254 70.1663 64.4213 69.6492 64.4233 69.1322C64.4254 68.7684 64.4682 68.7255 64.8232 68.7234C65.0354 68.7234 65.2497 68.7112 65.4618 68.7275C65.7883 68.75 65.8862 68.8624 65.8903 69.1894C65.8944 69.4408 65.8903 69.6921 65.8903 69.9578H65.8883Z" fill="white" fill-opacity="0.5"/>
<path d="M81.1681 70.5969C81.1681 71.0833 81.1559 71.5718 81.1722 72.0582C81.1804 72.3423 81.0498 72.4424 80.7927 72.4424C80.5499 72.4424 80.3051 72.4342 80.0623 72.4444C79.8052 72.4547 79.6848 72.3525 79.697 72.0888C79.7072 71.8456 79.697 71.6024 79.697 71.3592C79.697 71.1814 79.6113 71.1058 79.4338 71.1058C79.2604 71.1058 79.1645 71.1753 79.1625 71.3531C79.1604 71.5963 79.1502 71.8395 79.1625 72.0827C79.1747 72.3137 79.0686 72.4301 78.8503 72.4383C78.5667 72.4485 78.2831 72.4485 77.9995 72.4383C77.7914 72.4322 77.6914 72.3075 77.6914 72.1011C77.6914 71.0874 77.6914 70.0737 77.6934 69.058C77.6934 68.8271 77.8036 68.7044 78.0546 68.7188C78.277 68.731 78.5014 68.7167 78.7238 68.7228C79.0503 68.7331 79.1564 68.8434 79.1604 69.1663C79.1604 69.3584 79.1645 69.5526 79.1604 69.7447C79.1564 69.9266 79.2461 69.9961 79.4216 69.9981C79.6073 69.9981 79.7093 69.9348 79.7032 69.7345C79.697 69.5219 79.7032 69.3094 79.7032 69.0948C79.7032 68.8659 79.7582 68.7024 80.0419 68.7085C80.2724 68.7126 80.503 68.6636 80.7335 68.6636C81.062 68.6636 81.1661 68.7801 81.1681 69.105C81.1681 69.6016 81.1681 70.0983 81.1681 70.5949V70.5969Z" fill="white" fill-opacity="0.5"/>
<path d="M39.0452 71.3106C39.0452 71.5436 39.0636 71.7786 39.037 72.0096C39.0268 72.1097 38.9411 72.265 38.8657 72.2834C38.0393 72.4755 37.2028 72.6533 36.3744 72.3243C35.6562 72.0402 35.2747 71.2881 35.3033 70.4563C35.3379 69.4059 36.1031 68.756 37.0722 68.6497C37.6068 68.5904 38.1169 68.6252 38.5249 68.9685C38.7351 69.1463 38.835 69.4651 38.9595 69.7308C38.9758 69.7676 38.8534 69.9291 38.7881 69.9332C38.4657 69.9536 38.1393 69.9515 37.8169 69.9352C37.7414 69.9311 37.6374 69.8657 37.6007 69.7983C37.4884 69.6 37.3007 69.6021 37.1518 69.6593C37.0314 69.7043 36.8804 69.8534 36.8723 69.9679C36.8376 70.3644 36.8213 70.7711 36.8723 71.1635C36.9069 71.4332 37.5313 71.5926 37.7414 71.4169C37.7802 71.3842 37.821 71.2984 37.8047 71.2636C37.7761 71.2003 37.7108 71.1308 37.6476 71.1124C37.3109 71.0143 37.162 70.7588 37.2966 70.4277C37.3313 70.3439 37.4742 70.2581 37.5721 70.252C37.9659 70.2315 38.3617 70.2438 38.7575 70.2438C38.9595 70.2438 39.0513 70.3501 39.0493 70.5483C39.0472 70.8017 39.0493 71.0552 39.0493 71.3086L39.0452 71.3106Z" fill="white" fill-opacity="0.5"/>
<path d="M85.7998 70.5483C85.8038 71.1328 85.6386 71.656 85.1979 72.0484C84.6041 72.5777 83.9064 72.6083 83.1841 72.3774C82.5128 72.1628 82.2068 71.6355 82.0762 70.9836C81.913 70.1722 82.0884 69.461 82.7862 68.9726C83.4677 68.4964 84.2226 68.4289 84.9551 68.8499C85.5957 69.2158 85.7936 69.8452 85.7998 70.5483ZM84.4756 70.536C84.4307 70.2969 84.4266 70.0619 84.3369 69.8677C84.2777 69.741 84.0961 69.6041 83.9655 69.6C83.8329 69.5959 83.6187 69.7226 83.5738 69.8411C83.3983 70.303 83.3493 70.7935 83.5371 71.2615C83.5921 71.3964 83.7921 71.5558 83.9247 71.5558C84.0614 71.5558 84.2532 71.3964 84.3144 71.2574C84.4144 71.0326 84.4266 70.771 84.4736 70.534L84.4756 70.536Z" fill="white" fill-opacity="0.5"/>
<path d="M22.0189 68.7213C22.0699 68.7213 22.1209 68.7213 22.172 68.7213C23.0636 68.7336 22.8657 68.5946 23.1534 69.4468C23.441 70.297 23.6961 71.1595 23.9654 72.0158C24.0817 72.3878 24.045 72.4388 23.6553 72.4409C23.4125 72.4409 23.1676 72.4368 22.9248 72.4409C22.7126 72.445 22.5657 72.3632 22.5494 72.1384C22.5331 71.9381 22.4188 71.8911 22.2413 71.8891C22.0618 71.887 21.8782 71.838 21.7006 71.8564C21.6109 71.8646 21.4762 71.9627 21.4558 72.0424C21.3742 72.3734 21.1763 72.4797 20.8539 72.445C20.6642 72.4245 20.4683 72.445 20.2765 72.4409C19.9745 72.4348 19.9072 72.3612 19.999 72.071C20.2275 71.3393 20.4724 70.6118 20.7111 69.8842C20.7927 69.6349 20.8947 69.3917 20.9559 69.1382C21.0294 68.8399 21.164 68.6702 21.5007 68.7172C21.67 68.7418 21.8455 68.7213 22.0169 68.7213H22.0189ZM21.9067 71.0287C22.274 71.0287 22.3474 70.9347 22.2638 70.5688C22.2148 70.3543 22.176 70.1356 22.1169 69.923C22.0965 69.8474 22.0312 69.782 21.9863 69.7125C21.9251 69.782 21.8353 69.8413 21.8108 69.921C21.7353 70.1703 21.6843 70.4258 21.6272 70.6812C21.566 70.951 21.6292 71.0266 21.9088 71.0266L21.9067 71.0287Z" fill="white" fill-opacity="0.5"/>
<path d="M54.9143 68.7209C55.5128 68.7209 55.9046 69.0077 56.0895 69.5813C56.3568 70.4171 56.62 71.2551 56.8832 72.091C56.9771 72.3852 56.9424 72.4343 56.6425 72.4404C56.3691 72.4445 56.0957 72.4363 55.8223 72.4425C55.6223 72.4466 55.4917 72.3893 55.4693 72.1625C55.4509 71.9704 55.3265 71.8927 55.1347 71.8886C54.9653 71.8866 54.7899 71.8294 54.6266 71.8539C54.5165 71.8702 54.3573 71.9745 54.3349 72.0664C54.2573 72.375 54.0839 72.4711 53.784 72.4425C53.5636 72.422 53.3392 72.4384 53.1148 72.4384C52.927 72.4384 52.8189 72.3832 52.8903 72.1625C53.2392 71.0875 53.584 70.0125 53.9288 68.9355C53.9839 68.7638 54.0982 68.7045 54.2757 68.7147C54.4879 68.727 54.7001 68.7168 54.9143 68.7168V68.7209ZM54.9429 69.6099C54.7246 69.7999 54.4267 70.7196 54.5287 70.8811C54.5838 70.9669 54.7613 71.0221 54.8756 71.0119C54.9939 71.0017 55.204 70.879 55.1979 70.83C55.1388 70.4315 55.0388 70.0391 54.9429 69.6099Z" fill="white" fill-opacity="0.5"/>
<path d="M45.0558 72.4405C44.9436 72.4405 44.8314 72.4324 44.7212 72.4405C44.4927 72.463 44.3478 72.3792 44.305 72.1462C44.2662 71.9337 44.1315 71.8663 43.9316 71.8887C43.8724 71.8949 43.8071 71.901 43.75 71.8887C43.4052 71.809 43.1359 71.8233 43.093 72.2791C43.0869 72.3424 42.8849 72.4201 42.7686 72.4303C42.5279 72.4548 42.283 72.4385 42.0402 72.4364C41.7015 72.4344 41.6546 72.3711 41.7627 72.0318C42.0178 71.2347 42.2708 70.4357 42.534 69.6406C42.84 68.7148 42.8421 68.7148 43.8255 68.7148H44.0377C44.6926 68.7148 44.6865 68.7169 44.8783 69.3464C45.1537 70.2538 45.4394 71.1571 45.723 72.0625C45.823 72.3833 45.7944 72.4283 45.4537 72.4344C45.3211 72.4365 45.1905 72.4344 45.0578 72.4344L45.0558 72.4405ZM43.7929 69.6406C43.752 69.6427 43.7112 69.6468 43.6684 69.6488C43.4562 70.0249 43.4052 70.454 43.344 70.873C43.3379 70.9139 43.4582 71.0079 43.5317 71.0222C43.9724 71.1101 44.1132 70.9568 44.0091 70.5256C43.9377 70.2292 43.8643 69.9349 43.7908 69.6386L43.7929 69.6406Z" fill="white" fill-opacity="0.5"/>
<path d="M47.0925 71.2801C47.3598 71.2944 47.672 71.1983 47.8903 71.5192C47.9352 71.5846 48.1351 71.5723 48.2535 71.5458C48.3167 71.5315 48.4126 71.3843 48.3942 71.3475C48.3391 71.2413 48.2494 71.1145 48.1453 71.0778C47.8617 70.9817 47.5557 70.9449 47.27 70.8509C46.6702 70.6568 46.3866 70.3114 46.409 69.827C46.4233 69.4837 46.5681 69.1853 46.8416 68.9932C47.5536 68.4904 48.3351 68.4516 49.1104 68.8072C49.3246 68.9053 49.4756 69.173 49.6123 69.3896C49.7388 69.5899 49.6409 69.7616 49.4001 69.7493C48.9982 69.7289 48.5738 69.8883 48.1922 69.6063C48.131 69.5613 47.9658 69.6553 47.8495 69.686C47.929 69.7616 47.9964 69.8699 48.0902 69.9067C48.4371 70.0375 48.8003 70.1274 49.1451 70.2623C49.9653 70.5832 49.9571 71.699 49.2777 72.1671C48.684 72.5758 47.5006 72.6187 46.915 72.2018C46.7212 72.0649 46.5681 71.8401 46.46 71.6255C46.3335 71.3721 46.4151 71.2842 46.7049 71.278C46.8273 71.276 46.9476 71.278 47.0946 71.278L47.0925 71.2801Z" fill="white" fill-opacity="0.5"/>
<path d="M16.0732 68.7232C16.518 68.7232 16.9404 68.713 17.3627 68.7334C17.4321 68.7375 17.5382 68.8662 17.5566 68.9541C17.6688 69.4855 17.7565 70.0209 17.8646 70.5543C17.881 70.6361 17.9503 70.7056 17.9973 70.7812C18.0503 70.7035 18.1299 70.632 18.1503 70.5462C18.2645 70.0455 18.3727 69.5427 18.4645 69.0379C18.5073 68.807 18.6114 68.7048 18.8522 68.717C19.1154 68.7314 19.3786 68.7232 19.6418 68.7191C19.8213 68.717 19.907 68.7681 19.854 68.9725C19.5948 69.9555 19.352 70.9447 19.0848 71.9257C18.9562 72.4019 18.9317 72.3896 18.4441 72.3855C18.0728 72.3835 17.6994 72.4366 17.328 72.4305C17.2199 72.4284 17.0465 72.3181 17.0179 72.2241C16.6915 71.1123 16.3854 69.9944 16.0773 68.8765C16.0692 68.8499 16.0773 68.8192 16.0773 68.7232H16.0732Z" fill="white" fill-opacity="0.5"/>
<path d="M5.4428 71.0059C5.4428 70.3397 5.44688 69.6714 5.4428 69.0051C5.4428 68.811 5.53258 68.7231 5.7162 68.7231C6.45684 68.7231 7.19544 68.721 7.93607 68.7231C8.12786 68.7231 8.23804 68.8334 8.24824 69.0235C8.28088 69.6019 8.16255 69.8737 7.51781 69.7184C7.35458 69.6795 7.17299 69.6918 7.00365 69.7122C6.94652 69.7184 6.8649 69.8267 6.8649 69.888C6.8649 69.9432 6.95672 70.0433 7.01385 70.0474C7.26685 70.0658 7.51985 70.0576 7.77285 70.0576C7.96668 70.0576 8.07889 70.1332 8.07073 70.3478C8.06665 70.4357 8.09726 70.5256 8.10746 70.6156C8.13194 70.8281 8.06869 70.9753 7.82181 70.9753C7.58922 70.9753 7.35458 70.9691 7.12198 70.9814C6.97304 70.9896 6.80982 71.0406 6.87102 71.2266C6.89551 71.3022 7.06486 71.3676 7.16891 71.3697C7.45048 71.3779 7.73204 71.3493 8.0136 71.3349C8.03401 71.3349 8.05645 71.3288 8.07481 71.339C8.42779 71.5209 8.18907 71.8438 8.2462 72.0952C8.28293 72.2505 8.22376 72.3793 8.02585 72.3752C8.01564 72.3752 8.00544 72.3752 7.99524 72.3752C7.26889 72.3956 6.54049 72.4202 5.81414 72.4345C5.47137 72.4406 5.38771 72.3507 5.38567 72.0032C5.38363 71.6681 5.38567 71.3349 5.38567 70.9998H5.44484L5.4428 71.0059Z" fill="white" fill-opacity="0.5"/>
<path d="M14.0839 68.7231C14.4491 68.7231 14.8143 68.7252 15.1775 68.7231C15.3937 68.7231 15.4978 68.8212 15.4896 69.0358C15.4896 69.0767 15.4896 69.1176 15.4896 69.1585C15.4917 69.7511 15.408 69.8124 14.8041 69.7184C14.6266 69.6898 14.4389 69.6919 14.2593 69.7184C14.1961 69.7266 14.1226 69.839 14.1063 69.9146C14.0981 69.9514 14.2104 70.0516 14.2736 70.0556C14.5164 70.074 14.7592 70.0577 15.002 70.0659C15.304 70.0761 15.3611 70.1783 15.3693 70.5931C15.3754 70.8547 15.2958 71.0019 15.0081 70.9855C14.8163 70.9753 14.6225 70.9794 14.4307 70.9855C14.2675 70.9917 14.0737 70.9937 14.1022 71.2308C14.1287 71.4495 14.3124 71.3963 14.4634 71.3881C14.7245 71.3718 14.9877 71.3391 15.2468 71.3555C15.3325 71.3616 15.4101 71.5006 15.4896 71.5782C15.4958 71.5823 15.4896 71.5987 15.4896 71.6089C15.5366 72.3855 15.5366 72.3773 14.7531 72.3875C14.1879 72.3957 13.6227 72.4304 13.0576 72.4427C12.727 72.4509 12.623 72.361 12.625 72.0401C12.6352 71.0182 12.6618 69.9984 12.6801 68.9766C12.6842 68.7681 12.8148 68.7272 12.9841 68.7252C13.3493 68.7252 13.7146 68.7252 14.0777 68.7252L14.0839 68.7231Z" fill="white" fill-opacity="0.5"/>
<path d="M86.7012 70.5567C86.7012 70.0703 86.7012 69.5839 86.7012 69.0955C86.7012 68.8972 86.7685 68.7317 86.9787 68.7317C87.7152 68.7358 88.4579 68.7194 89.1883 68.795C89.727 68.8502 90.0779 69.3203 90.1146 69.8455C90.1514 70.3769 89.8351 70.8817 89.325 71.0452C89.0802 71.1228 88.8149 71.1535 88.5558 71.1617C88.3293 71.1678 88.2294 71.225 88.2232 71.4723C88.2028 72.4451 88.1947 72.4451 87.2174 72.4431C86.795 72.4431 86.7053 72.3532 86.7032 71.926C86.7032 71.4703 86.7032 71.0125 86.7032 70.5567H86.7012ZM88.0478 69.96C88.0417 70.3319 88.0967 70.4218 88.2987 70.4198C88.5701 70.4178 88.817 70.1848 88.8251 69.9293C88.8333 69.6738 88.6211 69.4654 88.3191 69.4838C87.9805 69.5042 88.0988 69.8046 88.0478 69.96Z" fill="white" fill-opacity="0.5"/>
<path d="M71.4834 70.5235C71.4834 70.0371 71.4854 69.5507 71.4834 69.0643C71.4834 68.8803 71.5262 68.725 71.7405 68.7271C72.477 68.7373 73.2177 68.7352 73.9522 68.7904C74.45 68.8272 74.7765 69.24 74.8846 69.8389C74.9519 70.2129 74.6806 70.732 74.3256 70.9425C74.0073 71.1305 73.6686 71.1938 73.3074 71.1652C73.1136 71.1489 73.0034 71.2 73.0055 71.4289C73.0096 71.6496 72.9483 71.8723 72.9606 72.091C72.9769 72.3833 72.8565 72.4691 72.5852 72.4487C72.3628 72.4303 72.1404 72.4466 71.9159 72.4446C71.5671 72.4446 71.4936 72.3771 71.4895 72.0175C71.4814 71.5208 71.4895 71.0242 71.4875 70.5276L71.4834 70.5235ZM72.8239 69.9635C72.8627 70.1291 72.7259 70.3947 73.0544 70.4193C73.3197 70.4397 73.5931 70.172 73.589 69.9083C73.5849 69.659 73.3891 69.4751 73.0973 69.4832C72.7688 69.4914 72.8443 69.7551 72.8239 69.9635Z" fill="white" fill-opacity="0.5"/>
<path d="M25.8343 68.7212C26.2403 68.7212 26.6463 68.7376 27.0503 68.7151C27.3543 68.6988 27.4584 68.8173 27.4216 69.1034C27.4094 69.1933 27.4216 69.2853 27.4216 69.3773C27.4176 69.69 27.2727 69.8044 26.9564 69.7451C26.6035 69.6777 26.5708 69.7022 26.5688 70.064C26.5688 70.7139 26.5688 71.3617 26.5688 72.0116C26.5688 72.3795 26.5055 72.4388 26.1485 72.4408C25.8955 72.4408 25.6425 72.4347 25.3874 72.4408C25.1446 72.449 25.0304 72.3468 25.0406 72.0975C25.063 71.5109 25.0671 70.9244 25.1018 70.3399C25.1304 69.8432 25.0732 69.7492 24.5672 69.7656C24.2632 69.7758 24.1816 69.6511 24.1857 69.3711C24.1918 68.7192 24.1837 68.7192 24.8325 68.7192C25.1671 68.7192 25.5017 68.7192 25.8363 68.7192L25.8343 68.7212Z" fill="white" fill-opacity="0.5"/>
<path d="M9.09316 70.5403C9.09316 70.0334 9.10132 69.5266 9.08908 69.0198C9.08296 68.7663 9.20946 68.6744 9.43593 68.6642C9.44614 68.6642 9.45634 68.6642 9.46654 68.6642C10.197 68.6301 10.5615 68.9768 10.5601 69.7044C10.5601 70.1295 10.5744 70.5566 10.554 70.9817C10.5418 71.2699 10.656 71.3639 10.9294 71.3435C11.1416 71.3271 11.3559 71.3373 11.5681 71.3435C11.6374 71.3435 11.7578 71.3557 11.7639 71.3843C11.819 71.6316 11.8802 71.885 11.8802 72.1364C11.8802 72.2223 11.717 72.3326 11.6068 72.3837C11.4926 72.4348 11.3518 72.4409 11.2233 72.4409C10.656 72.4471 10.0888 72.445 9.51959 72.443C9.1258 72.443 9.09112 72.4062 9.09112 72.0015C9.09112 71.5151 9.09112 71.0287 9.09112 70.5403H9.09316Z" fill="white" fill-opacity="0.5"/>
<path d="M70.4527 70.5441C70.4527 71.0203 70.4568 71.4965 70.4527 71.9727C70.4487 72.3834 70.3854 72.4407 69.9753 72.4427C69.7121 72.4427 69.4489 72.4386 69.1857 72.4427C68.9511 72.4468 68.8613 72.3323 68.8654 72.1055C68.8878 71.1163 68.9082 70.1251 68.9266 69.136C68.9327 68.7436 68.949 68.7231 69.3408 68.7231C69.5734 68.7231 69.806 68.7231 70.0386 68.7231C70.4038 68.7231 70.4487 68.7681 70.4527 69.1482C70.4568 69.6142 70.4527 70.0802 70.4527 70.5461V70.5441Z" fill="white" fill-opacity="0.5"/>
<path d="M52.1337 70.5504C52.1337 71.0573 52.1255 71.5641 52.1378 72.071C52.1439 72.3489 52.0276 72.4552 51.7562 72.4429C51.4624 72.4307 51.1686 72.4368 50.8748 72.4429C50.7034 72.445 50.6035 72.3918 50.6075 72.2018C50.63 71.1084 50.6443 70.017 50.6769 68.9237C50.6769 68.8542 50.8014 68.7356 50.8707 68.7315C51.2135 68.7111 51.5604 68.7254 51.9031 68.7213C52.099 68.7213 52.1357 68.8358 52.1357 68.9993C52.1317 69.5163 52.1357 70.0334 52.1357 70.5504H52.1337Z" fill="white" fill-opacity="0.5"/>
<path d="M29.6739 70.5484C29.6739 71.0655 29.6678 71.5825 29.676 72.0996C29.6801 72.3448 29.574 72.4511 29.3291 72.445C29.0251 72.4368 28.7211 72.4368 28.4171 72.445C28.2253 72.4491 28.1396 72.3734 28.1437 72.1752C28.1682 71.092 28.1825 70.0109 28.2151 68.9277C28.2171 68.8583 28.3355 68.7356 28.4069 68.7315C28.7497 68.7111 29.0965 68.7254 29.4393 68.7213C29.6331 68.7213 29.676 68.8296 29.6739 68.9952C29.6699 69.5122 29.6739 70.0293 29.6739 70.5464V70.5484Z" fill="white" fill-opacity="0.5"/>
</g>
<g clip-path="url(#clip3_644_466)">
<path d="M247.063 46.6159C246.993 46.6652 246.927 46.7105 246.857 46.7598C246.87 46.7763 246.882 46.8174 246.902 46.8215C247.687 46.9724 248.079 47.4495 248.079 48.253C248.079 49.2443 248.079 50.2315 248.079 51.12C247.392 51.0953 246.746 51.0049 246.121 51.0707C245.121 51.1776 244.381 52.1772 244.517 53.1479C244.529 53.2384 244.751 53.3659 244.879 53.3701C245.714 53.3989 246.553 53.4112 247.388 53.3989C247.75 53.3947 247.906 53.477 247.894 53.876C247.865 54.9044 247.869 55.9327 247.886 56.9611C247.89 57.3395 247.758 57.4588 247.376 57.4423C246.59 57.4135 245.804 57.4547 245.019 57.43C244.636 57.4176 244.471 57.5081 244.471 57.9277C244.48 60.8277 244.459 63.7317 244.447 66.6317C244.447 66.8291 244.426 67.0265 244.414 67.2363H239.511V57.4423C238.997 57.4423 238.528 57.4218 238.063 57.4464C237.701 57.467 237.594 57.3477 237.602 56.9857C237.627 55.9574 237.635 54.929 237.594 53.9007C237.577 53.4688 237.746 53.3742 238.125 53.3906C238.548 53.4071 238.976 53.3906 239.416 53.3906C239.507 52.6749 239.552 51.9674 239.692 51.2805C240.128 49.1456 241.333 47.6442 243.492 47.0066C243.887 46.8915 244.323 46.8997 244.801 46.8421C244.603 46.7516 244.447 46.6776 244.29 46.6035C245.212 46.6035 246.137 46.6035 247.059 46.6035L247.063 46.6159Z" fill="white" fill-opacity="0.5"/>
<path d="M233.734 46.6159C233.87 46.6982 233.998 46.8093 234.146 46.8586C235.491 47.3234 236.309 48.722 235.98 50.0054C235.635 51.3546 234.212 52.2924 232.834 52.0826C231.649 51.9016 230.555 50.6964 230.481 49.483C230.415 48.397 231.357 47.1589 232.48 46.8381C232.632 46.7928 232.768 46.69 232.912 46.6118C233.183 46.6118 233.459 46.6118 233.73 46.6118L233.734 46.6159Z" fill="white" fill-opacity="0.5"/>
<path d="M168.291 54.8877C168.435 54.7808 168.604 54.6821 168.748 54.5546C170.241 53.2054 171.965 52.9668 173.795 53.6537C175.593 54.3324 176.485 55.8009 176.592 57.6149C176.744 60.1364 176.703 62.6703 176.744 65.1959C176.753 65.8047 176.753 66.4094 176.777 67.0182C176.79 67.2896 176.715 67.4213 176.411 67.4213C175.029 67.4172 173.643 67.4295 172.261 67.4295C172.129 67.4295 172.002 67.3843 171.841 67.3513C171.841 65.7718 171.853 64.221 171.837 62.6703C171.825 61.5268 171.833 60.375 171.726 59.2397C171.64 58.3142 171.023 57.7959 170.192 57.7589C169.394 57.7219 168.653 58.2772 168.452 59.1204C168.357 59.5277 168.32 59.9555 168.316 60.3709C168.304 62.5304 168.299 64.69 168.316 66.8495C168.316 67.2691 168.193 67.4172 167.769 67.413C166.469 67.4007 165.173 67.4089 163.873 67.4295C163.45 67.4377 163.322 67.2855 163.322 66.866C163.335 60.6054 163.339 54.3448 163.322 48.0842C163.322 47.5577 163.487 47.426 163.993 47.4425C165.206 47.4754 166.42 47.4548 167.633 47.4548C168.304 47.4548 168.295 47.4548 168.295 48.1459C168.291 50.3671 168.295 52.5925 168.295 54.8919L168.291 54.8877Z" fill="white" fill-opacity="0.5"/>
<path d="M156.946 54.8757C156.946 54.452 156.905 54.1805 156.963 53.9255C156.996 53.7774 157.181 53.5553 157.3 53.5512C158.666 53.5224 160.031 53.5224 161.397 53.5512C161.491 53.5512 161.656 53.7939 161.664 53.9296C161.693 54.4849 161.672 55.0402 161.672 55.5997C161.668 59.3429 161.656 63.0902 161.664 66.8334C161.664 67.2488 161.549 67.3969 161.121 67.3887C159.924 67.3681 158.731 67.3722 157.534 67.3969C157.102 67.4051 156.893 67.3023 156.958 66.8334C156.987 66.6153 156.938 66.3809 156.917 66.0683C156.498 66.4014 156.185 66.71 155.819 66.928C153.742 68.1702 150.936 67.837 148.983 66.1341C146.486 63.9622 145.778 60.0915 147.313 57.101C148.152 55.468 149.382 54.2505 151.146 53.6499C153.088 52.9959 154.91 53.2015 156.514 54.5713C156.609 54.6536 156.716 54.7153 156.946 54.8757ZM156.996 60.5069C157.008 59.022 155.683 57.681 154.178 57.6522C152.639 57.6235 151.229 58.9603 151.2 60.4782C151.171 61.9507 152.598 63.3287 154.145 63.3287C155.655 63.3287 156.979 62.0166 156.991 60.5111L156.996 60.5069Z" fill="white" fill-opacity="0.5"/>
<path d="M130.579 53.5308C131.2 53.5308 131.727 53.5308 132.249 53.5308C133.24 53.5349 134.232 53.5719 135.219 53.5349C135.643 53.5184 135.836 53.6665 135.972 54.0326C136.807 56.2415 137.65 58.4422 138.497 60.6469C138.633 61.0007 138.785 61.3503 138.987 61.8481C139.143 61.5025 139.242 61.301 139.328 61.0912C140.274 58.7095 141.212 56.3238 142.167 53.9462C142.232 53.7858 142.417 53.5596 142.549 53.5554C144.149 53.5266 145.753 53.539 147.448 53.539C147.349 53.8064 147.292 53.9915 147.218 54.1683C145.029 59.343 142.837 64.5135 140.645 69.6841C140.307 70.478 139.995 71.2801 139.62 72.0534C139.522 72.255 139.238 72.4894 139.032 72.4976C137.564 72.5347 136.095 72.5182 134.627 72.5141C134.565 72.5141 134.503 72.4812 134.372 72.4401C134.59 71.9259 134.795 71.4364 135.005 70.9469C135.429 69.9556 135.869 68.9684 136.264 67.9606C136.358 67.722 136.379 67.3806 136.28 67.1502C134.98 64.1104 133.644 61.083 132.34 58.0473C131.768 56.7145 131.245 55.3612 130.703 54.0161C130.653 53.8969 130.641 53.7652 130.583 53.5308H130.579Z" fill="white" fill-opacity="0.5"/>
<path d="M263.289 61.6462H253.639C253.619 62.4401 254.211 63.2217 255.054 63.5219C256.177 63.9209 257.214 63.777 258.07 62.9049C258.308 62.6622 258.481 62.6088 258.81 62.7527C259.917 63.234 261.044 63.67 262.162 64.1266C262.315 64.1883 262.463 64.2624 262.64 64.3405C261.714 65.8296 260.414 66.7715 258.785 67.2405C256.885 67.7834 254.96 67.7999 253.096 67.1294C250.357 66.1422 248.991 64.0978 248.65 61.2966C248.202 57.6192 250.526 54.1969 254.158 53.3865C258.925 52.3212 262.882 55.2088 263.158 59.9597C263.187 60.478 263.24 60.9963 263.289 61.6503V61.6462ZM258.246 58.7504C258.246 57.7426 257.37 56.9652 256.247 56.9364C254.754 56.8994 253.714 57.6192 253.66 58.7504H258.246Z" fill="white" fill-opacity="0.5"/>
<path d="M201.1 67.66C197.402 67.7546 193.733 64.8177 193.778 60.4204C193.823 56.0397 197.566 53.2055 201.305 53.3001C205.456 53.4071 208.656 56.5333 208.623 60.5891C208.59 64.6902 205.39 67.697 201.095 67.66H201.1ZM201.186 63.2464C202.729 63.2464 203.958 62.0164 203.95 60.478C203.946 58.9808 202.7 57.7385 201.198 57.7303C199.668 57.7262 198.368 59.0178 198.381 60.5356C198.393 61.9835 199.697 63.2422 201.182 63.2422L201.186 63.2464Z" fill="white" fill-opacity="0.5"/>
<path d="M185.266 67.66C181.551 67.734 177.89 64.9287 177.915 60.4533C177.94 55.9985 181.65 53.2384 185.402 53.3001C189.494 53.3659 192.789 56.4921 192.756 60.3834C192.723 64.6407 189.601 67.6723 185.27 67.66H185.266ZM185.303 63.2463C186.767 63.3491 188.133 61.9506 188.133 60.5109C188.133 59.0177 186.841 57.7302 185.336 57.7302C183.83 57.7302 182.555 58.9725 182.547 60.4533C182.539 61.9794 183.785 63.2422 185.307 63.2463H185.303Z" fill="white" fill-opacity="0.5"/>
<path d="M223.093 67.2611V47.3029C223.385 47.2905 223.681 47.2659 223.981 47.2659C225.162 47.2659 226.338 47.27 227.519 47.2659C227.864 47.2659 228.086 47.307 228.086 47.7595C228.07 53.0411 228.074 58.3227 228.074 63.6043C228.074 64.6491 228.07 65.698 228.095 66.7428C228.103 67.1212 228.025 67.2817 227.589 67.2734C226.108 67.2488 224.623 67.2652 223.097 67.2652L223.093 67.2611Z" fill="white" fill-opacity="0.5"/>
<path d="M222.239 47.4507C221.852 48.3433 221.507 49.1248 221.173 49.9105C220.285 52.0042 219.401 54.1021 218.516 56.1999C218.031 57.3475 217.558 58.5034 217.06 59.6469C217.002 59.7744 216.834 59.9431 216.71 59.9431C214.888 59.9636 213.066 59.9554 211.194 59.9554C211.235 59.795 211.252 59.6839 211.297 59.5811C212.938 55.7022 214.588 51.8232 216.225 47.9402C216.369 47.6029 216.538 47.4383 216.937 47.4425C218.66 47.463 220.38 47.4507 222.243 47.4507H222.239Z" fill="white" fill-opacity="0.5"/>
<path d="M235.742 67.2402H230.826V53.5261H235.742V67.2402Z" fill="white" fill-opacity="0.5"/>
<path d="M215.779 64.3736C215.779 66.1095 214.282 67.6561 212.521 67.615C210.744 67.5697 209.42 66.1753 209.407 64.497C209.395 62.8928 210.617 61.2598 212.636 61.2598C214.631 61.2598 215.791 62.7941 215.779 64.3777V64.3736Z" fill="white" fill-opacity="0.5"/>
</g>
<g clip-path="url(#clip4_644_466)">
<path d="M297.466 52.5804C300.86 50.4966 304.075 50.662 307.192 53.1009C307.182 53.0243 307.173 52.9616 307.163 52.8989C307.037 52.1504 307.469 51.421 308.171 51.1964C308.927 50.9545 309.69 51.2974 310.04 52.0042C311.581 55.1098 313.13 58.2119 314.679 61.3157C314.695 61.3471 314.724 61.3714 314.773 61.4324C314.842 61.307 314.909 61.2008 314.964 61.0894C316.471 58.0604 317.98 55.0314 319.485 52.0024C319.844 51.2835 320.605 50.9527 321.356 51.1947C322.077 51.428 322.493 52.1486 322.355 52.9303C322.345 52.9895 322.338 53.0486 322.317 53.1862C324.424 51.2991 326.832 50.7334 329.477 51.4053C332.149 52.0842 333.844 53.8912 334.829 56.4589C334.894 56.297 334.949 56.1647 335 56.0306C336.882 51.045 343.338 49.5078 347.237 53.1183C348.161 53.973 348.178 54.8486 347.291 55.7312C345.934 57.0821 344.573 58.4277 343.22 59.7821C342.822 60.1807 342.36 60.3792 341.802 60.2974C341.213 60.2103 340.781 59.8883 340.585 59.3208C340.373 58.708 340.477 58.1335 340.94 57.6635C341.854 56.7339 342.78 55.8148 343.702 54.8904C343.785 54.8069 343.863 54.7181 343.973 54.6032C343.093 54.1976 342.207 54.1227 341.308 54.2811C339.142 54.6624 337.573 56.5511 337.569 58.7446C337.566 60.938 339.127 62.8511 341.284 63.2324C342.791 63.4987 344.131 63.114 345.265 62.0538C345.464 61.8676 345.704 61.69 345.956 61.5995C346.643 61.3558 347.387 61.65 347.762 62.268C348.126 62.8633 348.034 63.6188 347.512 64.148C346.356 65.3231 344.966 66.0455 343.333 66.3049C339.822 66.8602 336.377 64.9192 335.045 61.6256C334.977 61.4585 334.915 61.2879 334.829 61.0616C333.926 63.4883 332.351 65.2204 329.919 66.0055C327.494 66.7888 325.18 66.4354 323 64.9244C323 65.1055 323 65.2308 323 65.3561C323 67.2345 323.006 69.1128 322.997 70.9911C322.993 71.7606 322.418 72.3855 321.658 72.4917C320.93 72.5927 320.205 72.1383 319.991 71.4211C319.934 71.2279 319.925 71.0138 319.925 70.8083C319.925 66.613 319.932 62.4177 319.937 58.2223C319.937 58.1892 319.925 58.1562 319.904 58.0604C319.831 58.1771 319.779 58.2484 319.741 58.3268C317.579 62.6753 315.418 67.0238 313.255 71.3724C312.857 72.1731 312.261 72.5718 311.583 72.5039C310.445 72.3907 309.857 71.2157 310.405 70.0981C310.968 68.9509 311.561 67.8194 312.143 66.6809C312.414 66.1499 312.696 65.6242 312.953 65.0863C313.007 64.9749 313.026 64.7973 312.974 64.6912C311.903 62.5186 310.82 60.3531 309.739 58.1858C309.73 58.1666 309.702 58.1562 309.624 58.097C309.633 58.285 309.645 58.4312 309.645 58.5757C309.647 60.6856 309.659 62.7954 309.645 64.9053C309.638 65.8366 309.007 66.4076 308.068 66.3884C307.145 66.3693 306.561 65.7896 306.561 64.8687C306.559 62.7467 306.554 60.6246 306.57 58.5026C306.584 56.5877 304.979 54.7146 302.939 54.2968C300.562 53.8111 298.193 55.2542 297.592 57.566C297.513 57.8689 297.473 58.191 297.472 58.5043C297.461 60.5898 297.468 62.6753 297.466 64.7608C297.466 65.9567 296.562 66.6409 295.415 66.3188C294.826 66.1534 294.464 65.7339 294.388 65.1246C294.374 65.0167 294.367 64.9053 294.367 64.7956C294.365 59.2981 294.369 53.7989 294.365 48.298C294.365 47.6295 294.624 47.1108 295.219 46.7957C296.243 46.2543 297.451 47.0028 297.463 48.1918C297.477 49.5096 297.466 50.8256 297.466 52.1434C297.466 52.2757 297.466 52.408 297.466 52.5821V52.5804ZM323.002 58.7776C322.826 60.8196 324.723 63.342 327.546 63.3159C330.068 63.2915 332.085 61.2444 332.062 58.7237C332.039 56.2047 330.014 54.2098 327.508 54.2098C324.732 54.2098 322.83 56.6451 323.002 58.7776Z" fill="white" fill-opacity="0.5"/>
<path d="M328.168 60.3947V56.605L331.104 58.5007L328.168 60.3947Z" fill="white" fill-opacity="0.5"/>
<path d="M325.231 60.3947V56.605L328.167 58.5007L325.231 60.3947Z" fill="white" fill-opacity="0.5"/>
</g>
<defs>
<clipPath id="clip0_644_466">
<rect width="81.627" height="25.898" fill="white" transform="translate(147.451)"/>
</clipPath>
<clipPath id="clip1_644_466">
<rect width="87.5413" height="25.898" fill="white" transform="translate(260.155)"/>
</clipPath>
<clipPath id="clip2_644_466">
<rect width="96.4826" height="25.898" fill="white" transform="translate(3.01562 46.6162)"/>
</clipPath>
<clipPath id="clip3_644_466">
<rect width="132.711" height="25.898" fill="white" transform="translate(130.576 46.6162)"/>
</clipPath>
<clipPath id="clip4_644_466">
<rect width="53.6197" height="25.898" fill="white" transform="translate(294.364 46.6162)"/>
</clipPath>
</defs>
</svg>
