<?xml version="1.0" encoding="UTF-8"?>
<svg id="Layer_1" data-name="Layer 1" xmlns="http://www.w3.org/2000/svg" viewBox="0 0 862 294.45">
  <defs>
    <style>
      .cls-1 {
        stroke-width: 0px;
      }
    </style>
  </defs>
  <path class="cls-1" d="m862,194.5c-9.81-.1-19.63-.43-29.43-.2-3.91.09-5.96-1.28-7.85-4.52-5.4-9.29-11.15-18.38-16.96-27.87-27.84,18-55.5,17.33-83.54-.54-3.75,6.1-8.3,11.75-10.95,18.17-5.08,12.35-13.45,17.04-26.61,14.8-5.15-.88-10.58-.14-17.08-.14,32.24-52.81,63.99-104.83,96.21-157.62,12.53,20.49,24.67,40.33,37.12,60.67-6.45,4.64-11.82,10.91-20.17,11.28-9.73.44-12-8.61-17.09-15.12-8.78,14.38-17.33,28.38-26.08,42.7,13.7,9.51,27.76,13.15,43.38,6.09,11.52-5.21,20.29-13.76,28.13-23.31,2.02-2.46,4.07-3.38,7.18-3.33,10.12.16,20.24.06,32.07.06-6.16,8.19-11.25,15.44-16.9,22.24-2.51,3.02-2.96,4.98-.74,8.46,9.97,15.61,19.58,31.44,29.31,47.19v.99Z"/>
  <path class="cls-1" d="m0,135.89c1.38-4.9,2.31-9.99,4.21-14.68,12.92-31.9,51.5-40.89,77.41-18.17.61.54,1.24,1.06,2.63,2.23.21-4.38.38-8.02.57-12h26.21c0,1.61,0,3.35,0,5.09,0,19.52.32,39.05-.13,58.56-.24,10.26,1.32,20.03,4.37,29.7.59,1.86,1.04,3.75,1.74,6.29-8.82,0-17.11.11-25.39-.13-1.08-.03-2.59-1.71-3.07-2.95-1.23-3.19-1.99-6.55-3.06-10.29-1.08.84-1.88,1.36-2.57,2-14.06,13.2-30.52,17.41-48.83,11.37-18.72-6.18-29.06-20.08-33.1-38.94-.23-1.08-.67-2.12-1.01-3.18,0-4.97,0-9.93,0-14.9Zm30.89,6.98c0,14.19,10.33,24.81,24.18,24.85,14.35.04,24.99-10.34,25.12-24.52.14-14.38-10.61-25.17-25.05-25.16-13.8.01-24.24,10.7-24.25,24.84Z"/>
  <path class="cls-1" d="m502.48,192.66h-30.44v-5.57c0-16.06,0-32.11,0-48.17,0-1.99.02-3.98-.09-5.96-.61-10.93-7.44-17.79-17.56-17.69-10.19.1-17.16,6.94-17.35,17.87-.29,16.71-.13,33.44-.15,50.16,0,2.95,0,5.9,0,9.25h-30.88v-5.14c0-16.55,0-33.11,0-49.66,0-1.99.04-3.99-.17-5.95-1.14-10.43-7.92-16.72-17.69-16.51-10.06.23-16.87,6.88-17.12,17.55-.32,14.06-.15,28.14-.18,42.21-.01,5.75,0,11.51,0,17.58h-30.85v-5.45c0-22.02-.17-44.04.11-66.05.08-6.64-.87-12.73-4.11-18.55-1.58-2.85-2.73-5.93-4.41-9.63,10.36,0,19.96-.08,29.56.11,1.08.02,2.5,1.39,3.12,2.49,1.59,2.85,2.82,5.89,4.53,9.58,8.2-10.58,18.87-15.08,31.57-14.78,12.59.3,22.85,5.27,30.36,16.25,5.6-7.62,12.55-12.66,21.47-14.92,26.77-6.78,49.53,9.15,50.51,36.31.75,20.83.2,41.71.2,62.57,0,.62-.24,1.25-.41,2.12Z"/>
  <path class="cls-1" d="m266.65,195.73c-41.86-.52-68-41.8-48.91-77.46,11.37-21.25,37.57-32.21,62.93-26.33,24.99,5.79,41.15,25.08,41.98,50.07.85,25.66-18.76,48.53-45.09,52.51-3.61.55-7.26.81-10.89,1.21Zm.48-28.01c14.23-.02,24.84-10.72,24.76-24.97-.08-14.2-10.86-24.83-25.07-24.72-13.92.11-24.45,10.75-24.51,24.78-.07,14.25,10.58,24.93,24.83,24.91Z"/>
  <path class="cls-1" d="m620.06,154.07h-71.82c.45,7.49,6.59,14.18,15.24,16.68,9.64,2.79,19.18,2.02,28.29-2,3.54-1.56,5.6-1,7.96,1.94,3.81,4.74,8.08,9.1,12.51,14.02-16.43,9.92-33.45,12.95-51.67,9.25-14.64-2.98-26.69-10.01-34.74-22.89-12.46-19.95-9.57-48.48,6.58-65.41,15.37-16.12,43.38-20.53,63.7-9.29,15.33,8.48,23.94,21.57,23.94,39.51,0,5.77,0,11.55,0,18.19Zm-27.13-21.73c-1.92-12.93-11.61-20.12-25.15-19.24-11.39.74-20.22,8.95-20.41,19.24h45.56Z"/>
  <path class="cls-1" d="m144.12,93.02v-24.45h30.83v24.22h32.77c-3.81,8.42-7.16,16.07-10.81,23.58-.44.9-2.46,1.41-3.76,1.45-5.81.15-11.63.07-18.15.07,0,4.33,0,8.39,0,12.46,0,7.94-.07,15.88.03,23.82.13,9.88,3.74,13.45,13.55,13.63,2.29.04,4.58,0,7.15,0v25.85c-10.53-.86-20.89-.83-30.88-2.73-11.9-2.26-18.96-10.39-19.79-22.52-.98-14.33-.68-28.74-.92-43.12-.04-2.28,0-4.56,0-7.31h-14.12v-24.94h14.09Z"/>
</svg>