<?xml version="1.0" encoding="UTF-8"?>
<svg id="Layer_2" data-name="Layer 2" xmlns="http://www.w3.org/2000/svg" viewBox="0 0 198.35 187.77">
  <defs>
    <style>
      .cls-1 {
        fill: #fff;
        stroke-width: 0px;
      }
    </style>
  </defs>
  <g id="Layer_1-2" data-name="Layer 1">
    <g>
      <path class="cls-1" d="m169.97,39.03c2.18.52,4.13.87,6.02,1.45,13.11,4.09,22.26,16.31,22.3,30.07.07,28.55.1,57.1,0,85.65-.06,17.27-14.19,31.46-31.45,31.5-45.14.09-90.28.1-135.42,0-17.13-.04-31.3-14.26-31.34-31.38-.1-36.96-.09-73.92,0-110.88.04-15.77,12.37-28.7,28.69-30.78,17.1-2.18,34.17-4.62,51.26-6.93,18.62-2.52,37.22-5.21,55.87-7.51,17.35-2.14,33.62,12.37,34.08,30.06.08,2.87.01,5.75.01,8.76Zm-14.15-.03c0-2.7.04-5.19,0-7.68-.19-10.44-9.15-18.34-19.47-16.98-16.29,2.15-32.56,4.43-48.84,6.66-18.83,2.59-37.65,5.26-56.5,7.75-10.77,1.42-16.81,8-16.81,18.79,0,35.63,0,71.26,0,106.88,0,11.81,7.36,19.15,19.19,19.15,43.88,0,87.76,0,131.64,0,11.79,0,19.12-7.37,19.12-19.23,0-27.29,0-54.58,0-81.88,0-11.99-7.3-19.3-19.27-19.3-40.12,0-80.24,0-120.36,0-.81,0-1.63.03-2.43-.02-3.45-.24-6.27-2.96-6.62-6.34-.36-3.51,1.91-6.76,5.41-7.58.99-.23,2.05-.21,3.07-.21,36.36,0,72.71,0,109.07,0,.86,0,1.73,0,2.79,0Z"/>
      <path class="cls-1" d="m102.63,157.63c-25.43-.12-46.07-20.84-45.93-46.12.14-25.75,20.86-46.11,46.76-45.95,24.94.15,45.37,21.05,45.28,46.33-.09,25.17-20.94,45.86-46.11,45.74Zm31.95-46.08c.02-17.35-14.28-31.76-31.58-31.83-17.7-.07-32.12,14.16-32.14,31.69-.02,17.69,14.2,32.01,31.8,32.03,17.63.02,31.91-14.24,31.93-31.9Z"/>
      <path class="cls-1" d="m106.25,108.06c4.93,0,9.63-.06,14.33.02,3.59.06,6.5,2.81,6.89,6.28.39,3.48-1.85,7.34-5.36,7.52-8.15.4-16.34.36-24.5.06-3.16-.12-5.44-3.32-5.48-6.57-.07-7.23-.09-14.45,0-21.68.05-3.87,3.19-6.83,6.97-6.87,3.85-.04,7.05,2.99,7.13,6.95.09,4.64.02,9.29.02,14.3Z"/>
    </g>
  </g>
</svg>