<?xml version="1.0" encoding="UTF-8"?>
<svg id="Layer_2" data-name="Layer 2" xmlns="http://www.w3.org/2000/svg" viewBox="0 0 138.9 138.9">
  <defs>
    <style>
      .cls-1 {
        fill: #fff;
      }

      .cls-1, .cls-2 {
        stroke-width: 0px;
      }

      .cls-2 {
        fill: #ff0086;
      }
    </style>
  </defs>
  <g id="Layer_1-2" data-name="Layer 1">
    <g>
      <circle class="cls-2" cx="69.45" cy="69.45" r="69.45"/>
      <path class="cls-1" d="m69.54,81.5c.46-.66.68-1.1,1.01-1.42,8.32-8.35,16.65-16.68,24.96-25.03,1.42-1.43,3.09-1.98,5.03-1.47,1.9.5,3.11,1.77,3.57,3.68.46,1.92-.17,3.52-1.55,4.9-7.85,7.82-15.67,15.67-23.51,23.5-1.91,1.91-3.81,3.83-5.73,5.73-2.46,2.43-5.31,2.45-7.75,0-9.84-9.82-19.67-19.64-29.49-29.48-2.19-2.19-2.25-5.33-.22-7.34,2.04-2.02,5.1-1.91,7.34.27.2.19.39.39.58.58,8.19,8.2,16.38,16.4,24.56,24.61.33.33.6.73,1.2,1.47Z"/>
    </g>
  </g>
</svg>