<?xml version="1.0" encoding="iso-8859-1"?>
<!-- Generator: Adobe Illustrator 19.0.0, SVG Export Plug-In . SVG Version: 6.00 Build 0)  -->
<svg version="1.1" id="Capa_1" xmlns="http://www.w3.org/2000/svg" xmlns:xlink="http://www.w3.org/1999/xlink" x="0px" y="0px"
	 viewBox="0 0 448 448" style="enable-background:new 0 0 448 448;" xml:space="preserve">
<g>
	<g>
		<path d="M428.505,26.016c3.84-4.8,4.608-11.392,1.92-16.928C427.737,3.52,422.137,0,415.993,0h-384
			c-6.144,0-11.744,3.52-14.432,9.056c-2.656,5.536-1.92,12.128,1.92,16.928l188.512,235.648V416h-64c-8.832,0-16,7.168-16,16
			c0,8.832,7.168,16,16,16h160c8.832,0,16-7.168,16-16c0-8.832-7.168-16-16-16h-64V261.632L428.505,26.016z M90.905,64l-25.6-32
			h317.408l-25.6,32H90.905z"/>
	</g>
</g>
<g>
</g>
<g>
</g>
<g>
</g>
<g>
</g>
<g>
</g>
<g>
</g>
<g>
</g>
<g>
</g>
<g>
</g>
<g>
</g>
<g>
</g>
<g>
</g>
<g>
</g>
<g>
</g>
<g>
</g>
</svg>
