<?xml version="1.0" encoding="UTF-8"?>
<svg id="Layer_2" data-name="Layer 2" xmlns="http://www.w3.org/2000/svg" viewBox="0 0 96.91 97.08">
  <defs>
    <style>
      .cls-1 {
        fill: #ff0086;
        stroke-width: 0px;
      }
    </style>
  </defs>
  <g id="Layer_1-2" data-name="Layer 1">
    <path class="cls-1" d="m87.59,34.85v11.81c.49.16.85.28,1.21.38,5.11,1.48,8.38,6.13,8.1,11.5-.27,5.13-4.08,9.46-9.25,10.27-1.32.21-1.78.78-2.18,1.95-5.75,16.62-21.61,27.22-39.16,26.26-15.92-.87-29.72-11.3-34.86-26.4-.35-1.04-.75-1.49-1.94-1.66C4.24,68.22.3,63.83.02,58.6c-.29-5.39,3.06-10.09,8.23-11.54.32-.09.64-.18,1.03-.29,0-2.44,0-4.82,0-7.2.06-18.15,11.6-33.41,29.11-38.16,10.5-2.85,20.51-1.3,29.97,4.06,4,2.27,7.28,5.34,10.31,8.72,4.8,5.35,10.33,9.78,16.59,13.3.84.47,1.64.93,1.65,2.06.01,1.19-.79,1.75-1.72,2.14-2.54,1.08-5.09,2.11-7.6,3.15Zm3.09-5.4c-.51-.35-.78-.55-1.06-.73-5.32-3.46-10.04-7.62-14.29-12.34-8.91-9.88-19.97-13.91-33.13-11.82-14.45,2.29-26.76,14.89-28.51,29.37-.56,4.59-.38,9.28-.49,13.92-.06,2.18-.43,2.64-2.55,2.78-3.96.28-6.93,3.7-6.72,7.75.19,3.76,3.6,6.93,7.3,6.81,2.59-.09,2.71,0,3.42,2.52,6.62,23.24,34.65,33.02,54.29,18.93,6.83-4.91,11.33-11.46,13.58-19.57.48-1.75,1.06-2.11,2.83-2.02.79.04,1.63-.04,2.39-.25,3.44-.96,5.64-4.28,5.24-7.81-.39-3.45-3.2-6.12-6.75-6.41-1.89-.15-2.45-.75-2.45-2.67,0-2.86.02-5.72-.01-8.58-.01-1.26-.14-2.52-.22-3.77-.29-.03-.42-.05-.54-.05-.3.02-.59.06-.89.09-5.15.55-10.22.15-15.19-1.28-1.41-.41-2.06-1.39-1.71-2.52.36-1.15,1.34-1.54,2.79-1.26,2.29.45,4.59.97,6.91,1.2,5.34.53,10.51-.33,15.76-2.31Z"/>
    <path class="cls-1" d="m48.5,40.64c9.98,0,19.96,0,29.94,0,2.49,0,3.03.53,3.03,2.97,0,4.01.06,8.02-.05,12.03-.02.83-.47,1.82-1.04,2.44-1.38,1.5-2.9,2.89-4.47,4.2-.6.5-1.49.89-2.25.9-6.01.07-12.03.05-18.04.04-1.85,0-2.4-.53-2.57-2.39-.23-2.55-1.9-4.09-4.48-4.13-2.64-.05-4.41,1.49-4.69,4.06-.22,2.05-.68,2.47-2.76,2.47-5.88,0-11.77-.02-17.65.02-1.06,0-1.87-.29-2.62-1.04-1.41-1.43-2.86-2.81-4.34-4.16-.79-.72-1.09-1.54-1.08-2.6.04-4.01.01-8.02.02-12.03,0-2.13.62-2.75,2.73-2.75,10.11,0,20.21,0,30.32,0Zm-29.11,3.98c0,2.08.23,4.07-.05,5.98-.52,3.56.74,6.17,3.62,8.12.42.29.96.56,1.45.57,4.9.04,9.81.01,14.71.04.7,0,1.01-.17,1.25-.89,1.16-3.56,4.27-5.73,8.05-5.75,3.8-.01,6.98,2.15,8.11,5.66.28.87.68.99,1.45.98,3.58-.03,7.18-.25,10.74.06,3.4.3,6.06-.59,8.08-3.3.35-.47.69-1.08.71-1.64.07-2.9.04-5.8.03-8.7,0-.36-.07-.73-.1-1.12H19.39Z"/>
    <path class="cls-1" d="m48.09,81.37c-4.28-.04-8.58-1.21-12.57-3.54-1.36-.8-1.76-1.86-1.11-2.93.61-1.02,1.71-1.21,3.01-.49,7.34,4.05,14.68,4.09,22.03.02,1.37-.76,2.49-.55,3.09.54.6,1.09.2,2.11-1.2,2.92-4,2.31-8.3,3.47-13.25,3.49Z"/>
  </g>
</svg>