<?xml version="1.0" encoding="UTF-8"?><svg id="Layer_2" xmlns="http://www.w3.org/2000/svg" viewBox="0 0 156.38 109.84"><defs><style>.cls-1{fill:#ed2f86;}</style></defs><g id="Layer_1-2"><path class="cls-1" d="m148.25,1.38c-.36.35-.64.62-.92.89-1.19,1.19-2.37,2.38-3.55,3.57-2.63,2.64-5.27,5.28-7.9,7.91-2.35,2.35-4.7,4.69-7.05,7.04-2.67,2.68-5.33,5.36-7.99,8.04-3.66,3.67-7.33,7.34-10.99,11.01-4.79,4.8-9.57,9.61-14.36,14.41-3.83,3.84-7.67,7.67-11.52,11.49-1,.99-1.97,2.03-3.11,2.84-1.36.96-3,1.01-4.54.52-.75-.24-1.44-.83-2.02-1.4-3.01-2.96-5.97-5.96-8.95-8.95-1.89-1.9-3.77-3.8-5.66-5.69-1.85-1.84-3.71-3.67-5.55-5.52-2.3-2.3-4.57-4.62-6.87-6.91-1.49-1.5-3.02-2.96-4.51-4.46-.86-.86-1.69-1.75-2.55-2.62-1.03-1.03-2.08-2.03-3.11-3.06-1.01-1.02-1.99-2.07-3-3.09-.52-.53-1.08-1.03-1.61-1.55-1.39-1.36-2.78-2.72-4.15-4.1-.99-1-1.93-2.06-2.93-3.05-.99-.99-2.02-1.93-3.02-2.9-.16-.15-.28-.33-.42-.51-.09-.12-.16-.26-.27-.37-1.02-1-2.05-1.99-3.06-2.99-.46-.45-.86-.96-1.32-1.41-.33-.33-.74-.58-1.07-.9-.45-.43-.85-.91-1.28-1.36-.71-.75-1.42-1.49-2.14-2.23-.64-.66-1.31-1.3-1.95-1.95-.7-.71-1.39-1.44-2.1-2.13-.17-.17-.43-.25-.69-.4.63-.55,1.4-.85,2.18-.98C11.61.3,13,.02,14.37.02,51.73,0,89.09,0,126.45,0c5.21,0,10.42,0,15.63,0,1.53,0,3.05.15,4.51.66.58.21,1.14.49,1.67.72Z"/><path class="cls-1" d="m8.09,108.46c.66-.63,1.26-1.19,1.84-1.77,2.69-2.68,5.38-5.35,8.05-8.04,3.74-3.75,7.47-7.51,11.2-11.26,2.81-2.83,5.63-5.66,8.44-8.49,2.09-2.09,4.19-4.18,6.28-6.27,2.87-2.87,5.75-5.74,8.62-8.61.72-.72,1.43-1.44,2.15-2.15.24-.24.45-.31.73-.02,2.05,2.07,4.11,4.13,6.17,6.2,2.2,2.21,4.39,4.43,6.62,6.61,2.08,2.03,4.6,3.2,7.46,3.77,2.61.51,5.12.13,7.56-.67,1.98-.65,3.69-1.82,5.18-3.32,4.15-4.19,8.34-8.35,12.5-12.53.26-.27.47-.28.73-.03.93.91,1.87,1.81,2.8,2.73,3.11,3.1,6.21,6.21,9.3,9.31,4.68,4.69,9.35,9.39,14.03,14.08,5.28,5.29,10.57,10.58,15.86,15.86,1.27,1.27,2.54,2.54,3.81,3.8.26.25.56.47.78.65-.33.26-.66.52-.99.78-.02.02-.06.03-.09.03-1.48.24-2.97.69-4.45.69-42.84.04-85.68.03-128.52.01-1.33,0-2.68-.17-3.98-.42-.74-.15-1.42-.63-2.09-.95Z"/><path class="cls-1" d="m1.62,7.75c1.15,1.22,2.27,2.45,3.45,3.64,2.3,2.33,4.63,4.62,6.94,6.94,1.72,1.73,3.44,3.47,5.16,5.2,1.44,1.44,2.88,2.87,4.32,4.31,2.78,2.78,5.55,5.56,8.32,8.34,3.05,3.06,6.09,6.12,9.14,9.17,2.86,2.86,5.73,5.72,8.6,8.58.18.18.35.36.53.55.35.37.33.6-.04.97-4.15,4.14-8.29,8.29-12.44,12.43-3.25,3.25-6.5,6.49-9.75,9.74-1.99,1.99-3.96,3.99-5.96,5.98-2.67,2.67-5.37,5.31-8.04,7.99-2.97,2.97-5.91,5.97-8.87,8.95-.47.48-.97.93-1.51,1.43-.09-.17-.17-.33-.26-.49C.28,99.69,0,97.77,0,95.8,0,68.57,0,41.33,0,14.09c0-.95.04-1.9.18-2.83.1-.62.4-1.2.63-1.8.2-.53.41-1.05.62-1.58.06-.04.12-.09.19-.13Z"/><path class="cls-1" d="m107.88,54.93c15.69-15.72,31.31-31.37,46.98-47.06.14.26.31.51.42.78.61,1.48,1.09,2.99,1.09,4.61,0,.36.01.71.01,1.07,0,26.93,0,53.86,0,80.78,0,1.06-.06,2.14-.21,3.19-.11.76-.42,1.49-.66,2.23-.11.34-.24.67-.38.99-.07.16-.18.29-.25.42-15.69-15.7-31.34-31.35-47-47.02Z"/></g></svg>