<?xml version="1.0" encoding="utf-8"?>
<!-- Generator: Adobe Illustrator 27.4.0, SVG Export Plug-In . SVG Version: 6.00 Build 0)  -->
<svg version="1.1" id="Layer_1" xmlns="http://www.w3.org/2000/svg" xmlns:xlink="http://www.w3.org/1999/xlink" x="0px" y="0px"
	 viewBox="0 0 682.7 682.7" style="enable-background:new 0 0 682.7 682.7;" xml:space="preserve">
<style type="text/css">
	.st0{fill:#FFFFFF;}
</style>
<g>
	<path class="st0" d="M391.3,682.7c-40.4,0-80.9,0-121.3,0c-0.1-3.1-0.2-6.2-0.2-9.3c0-98,0-196,0-294c0-0.6-0.1-1.3-0.1-2.1
		c-33.1,0-66,0-99,0c0-0.8,0-1.4,0-2c0-39,0-78,0-117c0-2.3,0-2.3,2.2-2.3c31.6,0,63.1,0,94.7,0c0.7,0,1.4,0,2.2,0
		c0-1.2,0-2.1,0-2.9c0-30.3,0-60.7,0-91c0-16.3,1.2-32.5,4.9-48.4c3.9-17.1,9.7-33.4,18.8-48.5c8.9-14.5,20-27,33.8-37.1
		c12.3-9,25.8-15.6,40.3-20.1c11.5-3.6,23.3-6.1,35.4-6.8c2-0.1,4-0.2,6-0.3c0-0.1,0-0.2,0-0.3c-2.2-0.2-4.4-0.4-6.6-0.6
		c20,0,40,0,60,0c-0.9,0.1-1.9,0.3-2.8,0.3c-4,0.1-8.1,0.2-12.1,0.3c0.5,0.3,1,0.3,1.5,0.3c6.8,0.2,13.6,0.1,20.3,0.5
		c13.6,0.9,27.2,2.2,40.8,3.3c1.6,0.1,2,0.7,2,2.3c0,34.8,0,69.7,0,104.5c0,0.6,0,1.2,0,1.9c-0.9,0-1.6,0-2.2,0
		c-20.4,0-40.9,0-61.3,0c-8.3,0-16.6,0.7-24.7,3c-15.4,4.3-25.5,13.9-29.6,29.5c-1.9,7.1-2.7,14.4-2.7,21.8
		c-0.1,29.2-0.1,58.3-0.1,87.5c0,0.3,0.1,0.5,0.2,1c36.6,0,73.2,0,110.2,0c-5,40.6-10.1,80.9-15.1,121.3c-5.1,0-10.1,0-15.1,0
		c-26,0-52,0-78,0c-2.1,0-2.1,0-2.1,2.2c0,2.1,0.1,4.1,0.1,6.2c0,96.4,0,192.8,0,289.2C391.4,677.5,391.3,680.1,391.3,682.7z"/>
</g>
</svg>
