<?xml version="1.0" encoding="UTF-8"?><svg id="PATTERN" xmlns="http://www.w3.org/2000/svg" viewBox="0 0 1500 555"><defs><style>.cls-1,.cls-2{fill:#fff;}.cls-2,.cls-3{fill-rule:evenodd;}.cls-4{stroke:#fde8db;}.cls-4,.cls-5{stroke-width:1px;}.cls-4,.cls-5,.cls-3{fill:none;stroke-miterlimit:10;}.cls-5,.cls-3{stroke:#fff;}.cls-3{stroke-width:2px;}</style></defs><path class="cls-1" d="m1244.34,207.25c-16.21,1.06-30.95,10.63-32.54,27.99-1.45,15.82,6.36,30.72,21.32,36.78,19.7,7.99,41.94-4.39,45.92-24.64,4.58-23.3-12.83-39.44-34.7-40.13-1.33-.04-1.32,2.02,0,2.06,23.71.74,38.06,19.57,31.44,42.84-5.57,19.58-31.66,24.45-47.54,15.22-11.47-6.67-16-21.34-14.13-33.81,2.3-15.34,15.81-23.3,30.22-24.24,1.32-.09,1.33-2.14,0-2.06h0Z"/><path class="cls-1" d="m1244.24,217c-25.23,1.63-30.7,37.07-7,46.13,22.74,8.7,46.43-27.41,20.54-37.71-9.24-3.68-19.89-1.53-24.26,8.06-3.07,6.74-2.55,17.55,5.38,20.63,6.16,2.4,14.85.78,18.9-4.8,4.52-6.24.85-15.28-6.22-17.77-8.87-3.12-16.49,14.34-3.02,14.51,1.33.02,1.32-2.04,0-2.06-8.19-.1-5.76-8.25-.3-10.38,5.11-1.99,9.25,5.2,9.62,9.34.56,6.28-6.95,9.64-12.05,10.16-7.32.75-11.9-4.35-11.94-11.39-.06-11.16,8.94-17.56,19.42-15.6,9.6,1.8,15.4,10.58,13.21,20-2.66,11.45-16.27,17.54-26.97,15.51-10.55-2-15.8-12.53-15.61-22.34.23-11.54,9.18-19.54,20.3-20.25,1.32-.09,1.32-2.14,0-2.06h0Z"/><path class="cls-1" d="m1246.44,202.05c.81-6.81-.39-13.58,0-20.4.08-1.32-1.98-1.32-2.06,0-.39,6.82.81,13.59,0,20.4-.16,1.32,1.9,1.3,2.06,0h0Z"/><path class="cls-1" d="m1244.38,279.19c.81,6.81-.39,13.58,0,20.4.08,1.32,2.13,1.32,2.06,0-.39-6.82.81-13.59,0-20.4-.15-1.3-2.21-1.32-2.06,0h0Z"/><path class="cls-1" d="m1206.86,239.72c-6.83-.81-13.62.39-20.46,0-1.32-.07-1.32,1.98,0,2.06,6.84.39,13.63-.81,20.46,0,1.32.15,1.3-1.9,0-2.06h0Z"/><path class="cls-1" d="m1284.21,241.78c6.83-.81,13.62.39,20.46,0,1.32-.08,1.33-2.13,0-2.06-6.84.39-13.63-.81-20.46,0-1.3.15-1.32,2.21,0,2.06h0Z"/><path class="cls-1" d="m1218.82,212.71c-4.22-5.43-9.94-9.3-14.47-14.42-.88-1-2.33.46-1.45,1.45,4.52,5.13,10.25,9,14.47,14.42.81,1.05,2.26-.42,1.45-1.45h0Z"/><path class="cls-1" d="m1272.06,268.71c5.44,4.2,9.33,9.92,14.47,14.43.99.87,2.45-.58,1.45-1.45-5.14-4.51-9.03-10.22-14.47-14.43-1.04-.8-2.5.64-1.45,1.45h0Z"/><path class="cls-1" d="m1217.55,267.25c-5.44,4.2-9.33,9.92-14.47,14.43-1,.88.46,2.33,1.45,1.45,5.14-4.51,9.03-10.22,14.47-14.43,1.05-.81-.42-2.25-1.45-1.45h0Z"/><path class="cls-1" d="m1273.7,214.16c4.22-5.43,9.94-9.3,14.47-14.42.87-.99-.58-2.45-1.45-1.45-4.52,5.13-10.25,9-14.47,14.42-.8,1.03.64,2.5,1.45,1.45h0Z"/><path class="cls-1" d="m1231.61,204.76c-1.84-6.62-5.59-12.39-7.83-18.85-.43-1.24-2.42-.71-1.98.55,2.24,6.46,5.99,12.24,7.83,18.85.36,1.27,2.34.73,1.98-.55h0Z"/><path class="cls-1" d="m1259.33,276.82c3.38,5.97,4.84,12.71,7.83,18.85.58,1.19,2.35.15,1.78-1.04-2.99-6.15-4.45-12.87-7.83-18.85-.65-1.15-2.43-.12-1.78,1.04h0Z"/><path class="cls-1" d="m1209.58,254.51c-6.63,1.84-12.43,5.58-18.9,7.81-1.25.43-.71,2.42.55,1.98,6.47-2.23,12.28-5.97,18.9-7.81,1.28-.35.73-2.34-.55-1.98h0Z"/><path class="cls-1" d="m1281.83,226.87c5.99-3.37,12.74-4.83,18.9-7.81,1.19-.58.15-2.35-1.04-1.78-6.16,2.99-12.9,4.44-18.9,7.81-1.16.65-.12,2.43,1.04,1.78h0Z"/><path class="cls-1" d="m1210.27,225.09c-6-3.37-12.74-4.82-18.9-7.81-1.19-.57-2.23,1.2-1.04,1.78,6.16,2.98,12.91,4.44,18.9,7.81,1.16.65,2.19-1.13,1.04-1.78h0Z"/><path class="cls-1" d="m1280.94,256.49c6.62,1.84,12.43,5.58,18.9,7.81,1.26.43,1.79-1.55.55-1.98-6.48-2.23-12.27-5.97-18.9-7.81-1.28-.36-1.82,1.63-.55,1.98h0Z"/><path class="cls-1" d="m1229.96,275.78c-3.38,5.98-4.84,12.71-7.83,18.85-.58,1.19,1.2,2.23,1.78,1.04,2.99-6.14,4.45-12.88,7.83-18.85.65-1.16-1.12-2.19-1.78-1.04h0Z"/><path class="cls-1" d="m1261.44,205.31c1.84-6.61,5.6-12.39,7.83-18.85.43-1.26-1.55-1.79-1.98-.55-2.23,6.46-5.99,12.23-7.83,18.85-.36,1.28,1.63,1.82,1.98.55h0Z"/><path class="cls-1" d="m1238.95,202.99c-.29-3.79-1.67-7.33-2.19-11.08-.18-1.31-2.16-.75-1.98.55.5,3.56,1.84,6.93,2.12,10.53.1,1.31,2.16,1.32,2.06,0h0Z"/><path class="cls-1" d="m1251.94,278.57c1.15,3.52,1.23,7.23,2.16,10.81.33,1.28,2.32.74,1.98-.55-.93-3.57-1.01-7.28-2.16-10.81-.41-1.25-2.39-.72-1.98.55h0Z"/><path class="cls-1" d="m1207.8,247.19c-3.8.29-7.35,1.67-11.11,2.19-1.31.18-.75,2.16.55,1.98,3.57-.49,6.95-1.83,10.56-2.11,1.31-.1,1.32-2.16,0-2.06h0Z"/><path class="cls-1" d="m1283.59,234.24c3.53-1.15,7.25-1.23,10.83-2.15,1.28-.33.74-2.31-.55-1.98-3.58.92-7.3,1-10.83,2.15-1.26.41-.72,2.39.55,1.98h0Z"/><path class="cls-1" d="m1214.21,218.65c-2.88-2.48-6.38-3.99-9.39-6.28-1.06-.8-2.08.99-1.04,1.78,2.87,2.18,6.23,3.6,8.98,5.96,1,.86,2.46-.59,1.45-1.45h0Z"/><path class="cls-1" d="m1276.95,262.93c3.32,1.66,5.99,4.27,9.19,6.12,1.15.67,2.18-1.11,1.04-1.78-3.2-1.85-5.87-4.46-9.19-6.12-1.18-.59-2.22,1.18-1.04,1.78h0Z"/><path class="cls-1" d="m1223.5,271.85c-2.49,2.87-4.01,6.36-6.3,9.37-.8,1.05.98,2.08,1.78,1.04,2.19-2.86,3.61-6.22,5.98-8.95.86-1-.59-2.46-1.45-1.45h0Z"/><path class="cls-1" d="m1267.91,209.29c1.67-3.31,4.28-5.97,6.14-9.16.67-1.15-1.11-2.18-1.78-1.04-1.86,3.19-4.47,5.85-6.14,9.16-.59,1.18,1.18,2.22,1.78,1.04h0Z"/><path class="cls-1" d="m1224.94,208.26c-1.67-3.31-4.28-5.97-6.14-9.16-.67-1.15-2.45-.11-1.78,1.04,1.86,3.19,4.47,5.85,6.14,9.16.6,1.18,2.37.14,1.78-1.04h0Z"/><path class="cls-1" d="m1266.11,273.31c2.37,2.73,3.79,6.09,5.98,8.95.79,1.04,2.58.02,1.78-1.04-2.29-3.01-3.81-6.49-6.3-9.37-.87-1-2.32.46-1.45,1.45h0Z"/><path class="cls-1" d="m1213.08,261.16c-3.32,1.66-5.99,4.27-9.19,6.12-1.15.67-.11,2.44,1.04,1.78,3.2-1.86,5.87-4.46,9.19-6.12,1.19-.59.14-2.37-1.04-1.78h0Z"/><path class="cls-1" d="m1278.31,220.1c2.74-2.36,6.1-3.78,8.98-5.96,1.04-.79.02-2.58-1.04-1.78-3.02,2.29-6.51,3.8-9.39,6.28-1.01.87.45,2.31,1.45,1.45h0Z"/><path class="cls-1" d="m1208.03,232.26c-3.53-1.15-7.25-1.23-10.84-2.15-1.29-.33-1.83,1.65-.55,1.98,3.58.92,7.3,1,10.84,2.15,1.27.41,1.8-1.58.55-1.98h0Z"/><path class="cls-1" d="m1283.27,249.25c3.61.28,6.99,1.62,10.56,2.11,1.3.18,1.86-1.8.55-1.98-3.76-.52-7.31-1.89-11.11-2.19-1.32-.1-1.31,1.96,0,2.06h0Z"/><path class="cls-1" d="m1237.15,278.02c-1.15,3.52-1.23,7.23-2.15,10.81-.33,1.29,1.65,1.83,1.98.55.93-3.57,1.01-7.28,2.15-10.81.41-1.27-1.57-1.8-1.98-.55h0Z"/><path class="cls-1" d="m1254.18,202.99c.28-3.6,1.62-6.97,2.12-10.53.18-1.3-1.8-1.86-1.98-.55-.52,3.75-1.9,7.29-2.19,11.08-.1,1.32,1.96,1.31,2.06,0h0Z"/><path class="cls-1" d="m1196.36,87.36c.27-4.21-.19-8.46-.44-12.66-.16-2.73-.31-17.07,5.16-9.28,4.15,5.92,3.41,14.36,7.51,20.09,1.26,1.76,9.63-2.4,11.17-2.85,2.29-.68,17.78-4.76,11.14,2.58-3.85,4.26-10.04,7.12-15.14,9.64-.31.15-.46.65-.25.94,4.2,5.61,9.27,10.47,12.84,16.56,1.99,3.4-.26,6.41-3.96,4.76-2.12-.94-4.06-2.38-5.95-3.7-4.35-3.04-8.38-6.66-12.14-10.39-.29-.29-.88-.27-1.07.14-1.63,3.43-3.3,6.83-5.12,10.17-.94,1.72-1.98,3.38-3.04,5.03-.93,1.43-1.97,2.77-3.11,4.04-1.5,2.1-3.53,1.89-6.09-.64-.73-7.33,3.29-15.88,5.57-22.71.13-.38-.15-.71-.48-.84-2.59-1.02-5.36-1.55-8.06-2.18-1.75-.41-3.49-.86-5.23-1.33-1.07-.29-10.47-3.25-4.14-5.48,6.12-2.16,13.73-1.23,20.13-1.2.88,0,.88-1.36,0-1.37-4.6-.02-23.34-2.36-24.2,4.69-.34,2.8,6.33,4.22,7.85,4.68,3.3.99,6.7,1.66,10.04,2.48,3.98.99,1.65,3.47.6,6.72-.98,3.04-8.14,23.51,1.49,20.78,4.48-1.27,7.82-8.43,9.84-11.99,1.69-2.97,3.16-6.06,4.63-9.14-.14.3,7.82,6.63,8.56,7.23,1.37,1.11,19.26,13.24,16.51,3.19-1.38-5.07-5.2-9.29-8.48-13.26-.41-.5-5.67-6.21-4.8-6.64,3.97-1.96,7.76-4.25,11.35-6.84,7.71-5.57,5.57-10.4-3.35-8.82-5.41.96-10.74,2.84-15.89,4.71-.7.25-4.91-14.02-5.55-15.67-.58-1.49-5.47-11.05-8.44-6.69-4.34,6.35-.38,18.02-.84,25.25-.06.88,1.31.88,1.37,0h0Z"/><path class="cls-1" d="m1199.47,71.36c1.07,6.97,2.85,15.03,3.94,21.74"/><path class="cls-1" d="m1182.77,91.45c6.51.82,13.27,2.13,18.87,3.23"/><path class="cls-1" d="m1224.28,85.01c-6.24,2.37-12.98,5.68-18.91,9.11"/><path class="cls-1" d="m1201.22,98.27c-3.7,5.02-6.77,10.79-9.4,20.06"/><path class="cls-1" d="m1207.11,97.36c6.01,4.26,11.64,9.42,17,14.66"/><path class="cls-1" d="m27.25,262.93c-4.73,18.29,27.26,21.58,38.49,24.27,12.38,2.97,24.83,6.84,37.49,8.39,6.54.8,12.76-1.21,14.98-7.74.27-.79-.98-1.13-1.24-.34-3.45,10.17-15.96,6.64-23.53,5.05-8.25-1.73-16.39-4-24.59-5.95-10.93-2.59-44.77-6.23-40.35-23.34.21-.81-1.04-1.15-1.24-.34h0Z"/><path class="cls-1" d="m56.39,257.14c-6.42-1.34-16.99-6.07-23.47-2.4-4.87,2.76-6.6,7.72-4.96,13.01,2.07,6.69,12.65,9.04,18.37,10.84,10.89,3.43,22.14,6.23,33.27,8.76,9.01,2.05,18.69,5.17,27.97,5.31,4.88.07,9.46-2.31,11.33-6.87,5.12-12.44-16.65-16.3-23.53-18.15-.81-.22-1.15,1.03-.34,1.24,7.97,2.14,25.68,4.41,22.63,16.56-3.1,12.31-30.04,2.38-37.71.66-12.74-2.85-25.75-6.08-38.09-10.36-7.69-2.67-18.63-9.21-10.64-18.31,5.38-6.13,18.37-.4,24.82.94.81.17,1.16-1.07.34-1.24h0Z"/><path class="cls-1" d="m56.77,261.66c.73-5.56,1.31-11.03,4.41-15.84,5.68-8.83,17.71-2.58,25.38-.17,5.46,1.71,10.38,4.41,10.07,10.69-.23,4.78-2.21,9.68-3.29,14.31-.19.81,1.06,1.15,1.24.34,1.33-5.71,4.01-11.92,3.2-17.88-.69-5.08-6.8-7.26-10.88-8.71-5.32-1.89-17.93-8.05-23.27-3.21-6.09,5.53-7.12,12.64-8.16,20.48-.11.82,1.18.81,1.29,0h0Z"/><path class="cls-1" d="m66.73,244.51c5.93,6.68,17.35,8.2,25.66,9.3.82.11.81-1.18,0-1.29-7.91-1.05-19.13-2.6-24.75-8.92-.55-.62-1.46.29-.91.91h0Z"/><path class="cls-1" d="m54.01,260.82c-.24,1-3.33,8.01-1.44,8.84,3.29,1.45,6.8,2.43,10.24,3.46,9.56,2.85,20.14,6.35,30.22,6.34.31,0,.51-.2.62-.47,3.15-7.7,3.44-7.48-4.32-8.81-11.53-1.98-23.68-4.93-34.38-9.75-.75-.34-1.41.77-.65,1.11,7.38,3.32,15.32,5.4,23.15,7.37,4.36,1.1,8.77,2.03,13.2,2.79,4.53.78,3.82,1.6,2.2,5.82-1.08,2.8-19.94-2.97-22.88-3.75-3.77-.99-7.52-2.1-11.24-3.27-5.97-1.88-4.91-3.53-3.48-9.36.2-.81-1.05-1.15-1.24-.34h0Z"/><path class="cls-1" d="m95.18,271.08c2.85-7.81,6.43-15.22,12.56-20.99,3.57-3.36,7.88-3.78,11.87-6.15-2.25,1.34-3.89,3.53-5.31,5.67-.27.41.08.99.56.97,1.91-.06,13.79-1.13,7.61,1.6-4.01,1.78-8.01,3.51-11.89,5.57-6.33,3.38-11.55,7.5-16.47,12.7-.57.6.34,1.52.91.91,9.15-9.66,20.21-14.45,32.11-19.87.53-.24.35-1.04-.15-1.18-2.04-.56-3.94-.86-6.04-1.05-1.36-.07-2.72-.08-4.09-.05-.24,0,3.94-4.49,5-5.11.51-.31.34-1.28-.33-1.2-15.2,1.66-22.78,14.66-27.59,27.84-.29.78.96,1.12,1.24.34h0Z"/><path class="cls-1" d="m95.69,271.3c7.48-6.52,15.54-9.58,25.46-9.6,3.75,0,7.5.62,11.19,1.24,4.82.81-1.6,2.22-3.55,3.38-.42.25-.41.86,0,1.11,1.12.68,4.94,4.48,6.76,4.66-2.62-.26-5.24-.77-7.84-1.21-3.9-.67-7.8-1.39-11.72-1.91-6.59-.87-15.05-2.42-21.07,1.32-.71.44-.06,1.55.65,1.11,6.17-3.82,15.49-1.85,22.23-.88,6.36.92,12.65,2.35,19.04,2.99.55.06.87-.75.46-1.1-1.86-1.56-3.7-3.56-5.78-4.83-1.2-.73,5.53-3.61,5.97-3.81.5-.23.37-1.07-.15-1.18-15.78-3.17-29.83-3.31-42.55,7.79-.63.55.29,1.46.91.91h0Z"/><path class="cls-1" d="m186.79,262.14c4.22-5.93,6.47-16.87,15.48-16.83,6.24.03,11.08,4.18,17.33,1.91,3.18-1.15,4.75-5.48,6.02-8.24,4.18-9.03,9.55-13.89,19.4-10.43,5.57,1.95,13.63,5.75,18.43.04,5.71-6.8,6.85-18.61,18.47-14.94,4.96,1.57,9.35,3.02,14.62,2.99,1.04,0,.82-1.6-.2-1.6-10.68.06-20.27-9.17-27.97,1.61-5.55,7.78-6.64,15.76-18.09,12.1-3.93-1.26-8.26-3.79-12.53-3.49-4.21.29-6.6,2.55-9.32,5.66-6.84,7.82-5.32,18.3-19.71,14.2-15.23-4.34-15.6,5.37-23.21,16.05-.6.84.68,1.82,1.29.97h0Z"/><path class="cls-1" d="m191.87,274.33c4.22-5.93,6.47-16.87,15.48-16.83,6.24.03,11.08,4.18,17.33,1.91,3.18-1.15,4.75-5.49,6.02-8.24,4.18-9.04,9.55-13.88,19.4-10.43,5.57,1.95,13.63,5.75,18.43.04,5.71-6.8,6.85-18.61,18.47-14.94,4.96,1.57,9.35,3.02,14.62,2.99,1.04,0,.82-1.6-.2-1.6-10.68.05-20.27-9.17-27.97,1.61-5.55,7.77-6.64,15.76-18.09,12.1-3.93-1.25-8.26-3.79-12.53-3.49-4.21.29-6.6,2.55-9.32,5.65-6.84,7.82-5.32,18.3-19.71,14.2-15.23-4.34-15.6,5.36-23.21,16.05-.6.84.68,1.82,1.29.97h0Z"/><path class="cls-1" d="m196.95,286.52c3.82-5.36,6.16-15.41,13.37-16.84,6.77-1.35,12.57,4.41,19.44,1.92,3.18-1.15,4.75-5.49,6.02-8.24,4.18-9.03,9.55-13.89,19.4-10.43,5.57,1.95,13.63,5.76,18.43.04,5.71-6.8,6.85-18.61,18.47-14.94,4.96,1.57,9.35,3.02,14.63,3,1.04,0,.82-1.6-.2-1.6-10.68.05-20.27-9.17-27.97,1.61-5.55,7.78-6.64,15.76-18.09,12.1-3.92-1.25-8.26-3.78-12.53-3.49-4.21.29-6.6,2.55-9.32,5.65-6.84,7.82-5.32,18.3-19.72,14.19-15.17-4.33-15.64,5.43-23.21,16.05-.6.84.68,1.82,1.29.97h0Z"/><path class="cls-1" d="m246.09,246.92c7.28-2.42,13.03,4.82,19.78,2.69,7.58-2.39,7.32-12.02,14.58-14.64.98-.35.35-1.84-.62-1.49-7.67,2.77-7.9,15.09-16.85,14.7-6.64-.29-10.5-5.08-17.51-2.75-.99.33-.36,1.81.62,1.49h0Z"/><path class="cls-1" d="m202.34,252.63c6.94-1.73,13.37,3.48,20.11.56,2.18-.95,3.84-3.52,4.86-5.52,2.85-5.56,5.04-9.76,11.37-11.96.98-.34.36-1.82-.62-1.49-6.12,2.12-8.78,5.75-11.51,11.39-5.79,12-15.13,3.1-24.42,5.41-1,.25-.8,1.85.2,1.6h0Z"/><path class="cls-1" d="m276.21,221.13c3.12-3.53,8.31.63,12.32-.28,1.01-.23.81-1.83-.2-1.6-4.82,1.1-9.41-3.62-13.41.91-.69.78.6,1.75,1.29.97h0Z"/><path class="cls-1" d="m204.94,263.54c-2.46.7-4.3,1.92-5.52,4.2-1.34,2.5-1.41,5.35-3.51,7.47-.72.73.26,2.01.99,1.27,1.58-1.59,2.36-3.42,3.03-5.53.98-3.11,2.34-4.98,5.62-5.92,1-.28.37-1.77-.62-1.49h0Z"/><path class="cls-1" d="m1336.75,53.99c6.65-3.92,13.55-13.54,22.26-9.61,6.03,2.72,8.92,8.83,15.96,9.33,3.58.26,6.97-3.26,9.39-5.38,7.95-6.94,15.25-9.32,23.29-1.72,4.54,4.3,10.72,11.46,17.83,8,8.46-4.12,14.67-15.06,24.33-6.49,4.12,3.66,7.75,6.96,12.87,9.21,1.01.44,1.49-1.2.49-1.64-10.37-4.56-15.66-17.63-27.78-10.51-8.73,5.13-13.24,12.39-22.75,3.9-3.26-2.91-6.37-7.23-10.63-8.79-4.2-1.54-7.5-.38-11.46,1.45-10,4.62-13.06,15.42-25.22,5.23-12.87-10.78-17.43-1.54-29.4,5.52-.95.56-.13,2.06.83,1.5h0Z"/><path class="cls-1" d="m1336.4,67.99c6.65-3.92,13.55-13.54,22.26-9.62,6.03,2.72,8.92,8.83,15.96,9.33,3.58.26,6.97-3.26,9.39-5.38,7.95-6.94,15.25-9.32,23.29-1.72,4.54,4.3,10.72,11.46,17.83,8,8.46-4.12,14.67-15.06,24.33-6.49,4.12,3.66,7.75,6.97,12.87,9.22,1.01.44,1.49-1.2.49-1.64-10.37-4.56-15.66-17.63-27.78-10.52-8.73,5.13-13.24,12.4-22.75,3.9-3.26-2.91-6.37-7.23-10.63-8.79-4.2-1.54-7.5-.38-11.46,1.45-10,4.62-13.06,15.42-25.22,5.23-12.88-10.78-17.42-1.55-29.4,5.52-.95.56-.13,2.06.83,1.5h0Z"/><path class="cls-1" d="m1336.06,81.98c6.01-3.54,12.62-12.26,20.22-10.53,7.14,1.62,10.27,9.7,18,10.25,3.58.26,6.97-3.26,9.39-5.38,7.95-6.94,15.25-9.32,23.29-1.72,4.54,4.3,10.72,11.46,17.83,8,8.46-4.12,14.67-15.06,24.33-6.49,4.12,3.66,7.75,6.97,12.87,9.22,1.01.44,1.49-1.2.49-1.64-10.37-4.56-15.66-17.63-27.78-10.52-8.73,5.13-13.24,12.4-22.75,3.9-3.26-2.91-6.37-7.23-10.63-8.79-4.2-1.54-7.5-.38-11.46,1.45-10,4.62-13.06,15.42-25.22,5.23-12.82-10.74-17.49-1.5-29.4,5.52-.95.56-.13,2.06.83,1.5h0Z"/><path class="cls-1" d="m1400.75,64.87c8.09.8,10.54,10.29,17.99,11.15,8.37.96,12.28-8.48,20.44-7.88,1.1.08,1.14-1.63.04-1.71-8.63-.63-14.16,11.2-22.66,6.95-6.3-3.15-7.97-9.45-15.77-10.22-1.1-.11-1.13,1.6-.04,1.71h0Z"/><path class="cls-1" d="m1355.91,51.49c7.47,1.32,11.44,9.14,19.23,9.23,2.52.03,5.24-1.75,7.09-3.24,5.16-4.15,9.1-7.28,16.18-6.67,1.1.09,1.13-1.61.04-1.71-6.84-.59-10.99,1.77-16.06,6.06-10.79,9.12-15.99-3.53-25.99-5.31-1.07-.19-1.58,1.44-.49,1.64h0Z"/><path class="cls-1" d="m1441.05,52.89c4.54-2.08,7.78,4.2,12.06,5.05,1.07.21,1.57-1.42.49-1.64-5.14-1.01-7.55-7.57-13.38-4.91-1,.46-.17,1.95.83,1.5h0Z"/><path class="cls-1" d="m1353.72,63.18c-2.69-.39-4.99,0-7.16,1.68-2.38,1.84-3.68,4.58-6.62,5.72-1.01.39-.61,2.06.41,1.66,2.21-.86,3.77-2.29,5.32-4.05,2.3-2.59,4.42-3.81,8-3.3,1.09.16,1.12-1.55.04-1.71h0Z"/><path class="cls-1" d="m46.4,112.41c-8.78,10.62,9.92,21.33,14.14,29.73,2.14,4.26,5.22,12.29,11.23,12.29,5.34,0,10.61-3.55,10.52-9.25-.01-.64-1.01-.65-1,0,.07,4.48-3.22,6.9-7.1,8.06-4.73,1.42-8.08-2.92-10.14-6.36-1.88-3.14-2.93-6.85-5.25-9.72-4.96-6.13-18.96-15.28-11.7-24.06.41-.49-.3-1.2-.71-.71h0Z"/><path class="cls-1" d="m60.52,135.23c-4.23-6.06-11.17-10.41-13.61-17.63-1.39-4.11,1.8-7.24,4.86-9.3,3.25-2.19,7.01-1.1,10.01.79,4.7,2.95,7.71,8.63,10.21,13.38,3.66,6.93,15.61,22.79,4.31,27.42-8.71,3.57-12.48-9.26-15.79-14.66-.34-.55-1.2-.05-.86.5,3.79,6.19,8.39,20.22,18.44,14.5,10.58-6.03-1.71-21.18-5.23-28.27-4.81-9.68-15.21-22.5-25.47-11.23-7.47,8.2,8.36,19.4,12.27,25,.37.53,1.23.03.86-.5h0Z"/><path class="cls-1" d="m56.62,117.02c-1.68,3.41-3.86,14.83,1.83,15.8,2.93.5,4.47-2.07,4.04-4.64-.67-4.01-2.88-7.75-5-11.15-.34-.55-1.21-.04-.86.5,1.48,2.37,2.84,4.82,3.9,7.41.57,1.4,1.01,2.88,1.05,4.4.06,1.99-2.08,3.07-3.78,2.24-3.66-1.78-1.68-11.29-.32-14.05.28-.58-.58-1.08-.86-.5h0Z"/><path class="cls-1" d="m56.7,117.62c2.67,2.34,12.28,12.89,15.68,6.98,3.79-6.6-11.91-8.13-15.32-7.83-.64.06-.64,1.06,0,1,3.26-.29,16.13.61,14.6,6-1.57,5.5-12.38-5.22-14.24-6.85-.48-.42-1.19.28-.71.71h0Z"/><path class="cls-1" d="m56.22,121.76c.97.25,1.81-.04,2.71-.37.6-.22.34-1.18-.27-.96-.72.26-1.41.57-2.18.37-.62-.16-.89.8-.27.96h0Z"/><path class="cls-1" d="m55.85,124.82c1.51.04,2.89-.31,4.29-.89.59-.24.33-1.21-.27-.96-1.31.54-2.59.89-4.02.85-.65-.02-.64.98,0,1h0Z"/><path class="cls-1" d="m55.31,127.32c1.81.91,4.2.04,5.84-.89.56-.32.06-1.18-.5-.86-1.28.73-3.39,1.61-4.83.89-.57-.29-1.08.57-.5.86h0Z"/><path class="cls-1" d="m55.6,130.09c2.15.91,4.61.45,6.64-.57.58-.29.07-1.15-.5-.86-1.67.84-3.85,1.33-5.64.57-.59-.25-1.1.61-.5.86h0Z"/><path class="cls-1" d="m60.53,120.38c.73-.74.94-1.63,1.02-2.64.06-.64-.95-.64-1,0-.06.74-.19,1.39-.73,1.93-.45.46.25,1.17.71.71h0Z"/><path class="cls-1" d="m62.81,122.35c1.12-1.11,1.37-2.97,1.01-4.45-.15-.63-1.12-.36-.96.27.28,1.14.12,2.62-.75,3.48-.46.45.25,1.16.71.71h0Z"/><path class="cls-1" d="m65.27,124.25c1.71-1.44,2.17-3.75,1.6-5.85-.17-.62-1.13-.36-.96.27.48,1.78.11,3.66-1.34,4.87-.49.42.22,1.12.71.71h0Z"/><path class="cls-1" d="m67.99,125.77c1.62-1.61,2.7-3.75,2.22-6.07-.13-.63-1.1-.36-.96.27.41,1.95-.62,3.76-1.96,5.09-.46.46.25,1.16.71.71h0Z"/><path class="cls-1" d="m39.76,131.03c9.84-2.35,12.54,10.79,14.93,17.63,1.11,3.16,2.67,5.75,4.7,8.42,2.09,2.74,4.04,5.23,5.36,8.44,2.71,6.6-5.05,13.59-11.47,10.34-.57-.29-1.08.57-.5.86,5.07,2.56,10.46-.35,12.97-5.1,3.42-6.46-5.29-14.3-8.26-18.97-4.67-7.32-5.12-25.67-18-22.6-.63.15-.36,1.11.27.96h0Z"/><path class="cls-1" d="m54.47,152.36c-3.8-6.89-5.01-21.18-14.8-22.34-3.92-.46-9.37,2.84-10.58,6.65-1.7,5.34.61,10.62,3.17,15.29,3.18,5.82,7.71,11.01,11.5,16.44,2.64,3.79,5.85,8.09,10.77,8.62,4.01.43,8.79-4.56,8.63-8.46-.26-6.45-5.42-11.05-8.68-16.2-.34-.54-1.21-.04-.86.5,2.06,3.25,4.58,6.18,6.61,9.46,5.21,8.42-3.55,17.76-11.28,10.81-3.35-3.02-5.66-7.27-8.23-10.94-2.53-3.61-5.33-6.93-7.58-10.74-2.36-4.01-4.27-8.74-3.4-13.45,1.2-6.53,10.31-8.83,14.76-4.57,5.15,4.92,5.78,13.37,9.13,19.43.31.57,1.18.06.86-.5h0Z"/><path class="cls-1" d="m39.06,142.25c3.18,0,13.56,2.84,12.39,7.34-1.11,4.26-5.54.33-7-1.25-1.91-2.06-3.48-4.45-4.95-6.84-.34-.55-1.2-.05-.86.5,1.91,3.11,9.74,15.59,13.61,8.29,2.87-5.43-9.81-9.03-13.18-9.05-.65,0-.65,1,0,1h0Z"/><path class="cls-1" d="m38.58,141.89c1.03,3.88,4.58,11.65,1.69,15.24-1.55,1.93-3.82-.35-4.18-1.94-.39-1.7.05-3.65.42-5.31.59-2.69,1.55-5.51,2.99-7.86.34-.55-.53-1.05-.86-.5-2.12,3.46-7.36,16.72.15,17.2,6.78.44,1.51-14.3.77-17.08-.17-.62-1.13-.36-.96.27h0Z"/><path class="cls-1" d="m42.48,142.79c-.16.79-.73,1.27-1.29,1.8-.47.44.24,1.15.71.71.69-.65,1.36-1.28,1.55-2.24.13-.63-.84-.9-.96-.27h0Z"/><path class="cls-1" d="m45.49,143.58c-.6,1.29-1.49,2.29-2.56,3.22-.49.42.22,1.13.71.71,1.13-.98,2.08-2.06,2.72-3.42.27-.58-.59-1.09-.86-.5h0Z"/><path class="cls-1" d="m47.85,144.73c.02,1.61-1.7,3.11-2.93,3.93-.54.35-.04,1.22.5.86,1.54-1.02,3.45-2.79,3.43-4.79,0-.64-1.01-.65-1,0h0Z"/><path class="cls-1" d="m50.21,146.22c-.11,1.94-1.51,3.67-3.01,4.79-.51.38-.01,1.25.5.86,1.81-1.34,3.38-3.33,3.51-5.65.04-.64-.96-.64-1,0h0Z"/><path class="cls-1" d="m40.01,145.3c-.78.25-1.44.05-2.18-.24-.6-.24-.86.73-.27.96.9.36,1.76.54,2.71.24.61-.2.35-1.16-.27-.96h0Z"/><path class="cls-1" d="m40.75,148.21c-1.15.39-2.56-.1-3.46-.86-.49-.41-1.2.29-.71.71,1.17.98,2.93,1.62,4.44,1.12.61-.2.35-1.17-.27-.96h0Z"/><path class="cls-1" d="m41.24,151.3c-1.68.72-3.53.16-4.86-1.01-.48-.42-1.19.28-.71.71,1.7,1.5,3.95,2.07,6.07,1.16.59-.25.08-1.11-.5-.86h0Z"/><path class="cls-1" d="m41.5,154.35c-1.79.6-3.89.73-5.45-.5-.5-.39-1.21.31-.71.71,1.86,1.47,4.25,1.49,6.42.76.61-.2.35-1.17-.27-.96h0Z"/><path class="cls-1" d="m1379.65,169.92c-5.6,3.49-11.13,7.26-16.96,10.36-.78.41-.09,1.6.69,1.18,5.83-3.1,11.36-6.87,16.96-10.36.75-.46.06-1.65-.69-1.18h0Z"/><path class="cls-1" d="m1373.11,167.86c-3.92,2.36-7.85,4.72-11.77,7.08-.76.45-.07,1.64.69,1.18,3.92-2.36,7.85-4.72,11.77-7.08.76-.45.07-1.64-.69-1.18h0Z"/><path class="cls-1" d="m1382.3,174.29c-4.97,3.66-10.23,6.83-15.51,10.01-.75.46-.07,1.64.69,1.18,5.28-3.18,10.54-6.35,15.51-10.01.7-.52.02-1.71-.69-1.18h0Z"/><path class="cls-1" d="m1415.52,178.95c-5.6,3.48-11.13,7.26-16.96,10.35-.78.41-.09,1.6.69,1.18,5.83-3.09,11.36-6.87,16.96-10.35.75-.46.06-1.65-.69-1.18h0Z"/><path class="cls-1" d="m1408.97,176.89c-3.92,2.36-7.85,4.72-11.77,7.08-.76.45-.07,1.64.69,1.18,3.92-2.36,7.85-4.72,11.77-7.08.76-.45.07-1.64-.69-1.18h0Z"/><path class="cls-1" d="m1418.16,183.32c-4.97,3.66-10.23,6.83-15.51,10.01-.76.45-.07,1.64.69,1.18,5.28-3.18,10.54-6.35,15.51-10.01.7-.52.02-1.71-.69-1.18h0Z"/><path class="cls-1" d="m1359.85,162.14c-3.34,7.61-5.7,19.39,2.36,25.13,6.47,4.61,16.06,4.76,21.15-1.94,1.64-2.17,7.94-15.24,3.75-16.87-8.45-3.29-17.55-6.25-26.66-6.65-.88-.04-.88,1.33,0,1.37,6.9.31,13.63,2.28,20.16,4.41,1.94.63,3.86,1.33,5.77,2.05,1.42.54-.15,5.56-.51,6.95-2.32,8.83-8.6,14.42-18.09,12.04-12-3-10.55-17.12-6.74-25.79.35-.8-.83-1.5-1.18-.69h0Z"/><path class="cls-1" d="m1362.84,166.31c-2.46,5.57-4.09,14.06,1.81,18.23,4.75,3.36,11.77,3.46,15.51-1.42,1.28-1.67,5.81-11.08,2.56-12.34-6.12-2.37-12.69-4.5-19.28-4.81-.88-.04-.88,1.33,0,1.37,4.96.23,9.8,1.65,14.49,3.18,1.4.46,2.79.96,4.17,1.47.8.3-.23,3.75-.49,4.72-1.65,6.25-6.09,10.12-12.79,8.44-8.47-2.12-7.5-12.02-4.79-18.16.35-.8-.83-1.5-1.18-.69h0Z"/><path class="cls-1" d="m1422.93,178.39c-.77,9.42-4.94,19.76-15.94,19.81-4.96.02-9.38-3.13-11.99-7.12-2.08-3.18-1.21-8.32-.59-11.77.21-1.18,1.59-7.09,2.77-6.94,2.26.28,4.5.65,6.74,1.04,6.59,1.15,13.3,2.66,19.35,5.57.79.38,1.49-.8.69-1.18-7.99-3.84-17.05-5.5-25.79-6.66-5.68-.76-5.88,12.59-5.63,16.21.58,8.47,9.97,12.87,17.5,12.05,9.95-1.08,13.57-12.66,14.26-21.01.07-.88-1.3-.87-1.37,0h0Z"/><path class="cls-1" d="m1418.31,180.65c-.54,6.67-3.49,13.92-11.27,13.94-7.74.02-10.04-7.01-8.91-13.28.14-.78,1.14-4.9,1.8-4.82,1.61.2,3.21.47,4.81.75,4.73.83,9.56,1.91,13.91,3.99.79.38,1.49-.8.69-1.18-5.8-2.78-12.36-3.98-18.7-4.83-4.25-.57-4.41,9.12-4.22,11.78.44,6.19,7.31,9.42,12.82,8.84,7.26-.77,9.94-9.07,10.44-15.19.07-.88-1.3-.87-1.37,0h0Z"/><path class="cls-1" d="m1387.42,174.42c2.39-.06,4.68.53,6.71,1.8.75.47,1.44-.71.69-1.18-2.22-1.39-4.78-2.05-7.4-1.99-.88.02-.88,1.39,0,1.37h0Z"/><path class="cls-1" d="m1386.58,177.73c2.39-.06,4.68.53,6.71,1.8.75.47,1.44-.72.69-1.18-2.22-1.39-4.78-2.05-7.4-1.99-.88.02-.88,1.39,0,1.37h0Z"/><path class="cls-5" d="m1360.5,162.43c8.48-4.91,20.34-11.96,29.23-15.71,4.74-1.98,9.76-1.59,8.38,4.58-.46,1.82-2.02,5.3-3.29,2.87-1.23-2.36,1.55-5.77-3.23-3.63-6.07,2.72-18.98,9.02-24.8,12.49"/><path class="cls-5" d="m1423.59,178.32c9.94-6.82,12.85-9.95,22.09-15.4,4.42-2.61,9.76-1.59,8.38,4.58-.46,1.82-2.02,5.31-3.29,2.87-1.23-2.36,1.55-5.77-3.23-3.63-6.07,2.72-18.6,12.74-24.42,16.2"/><path class="cls-1" d="m201.95,163.94c-2.27.15-3.91,1.47-4.21,3.76-.27,2.05,1.08,3.99,2.97,4.65,2.44.85,5.35-.74,5.68-3.33.37-2.94-1.56-4.99-4.44-5.08-.83-.03-.83,1.26,0,1.29,2.24.07,3.59,1.69,3.11,3.94-.42,1.97-2.96,2.54-4.55,1.7-1.13-.6-1.56-1.96-1.48-3.16.11-1.56,1.51-2.38,2.92-2.47.83-.06.83-1.35,0-1.29h0Z"/><path class="cls-1" d="m209.45,157.36c-1.88.13-3.46,1.23-3.71,3.19-.23,1.75.67,3.69,2.4,4.31,2.25.8,4.73-.39,5.23-2.76.56-2.66-1.37-4.64-3.92-4.73-.83-.03-.83,1.26,0,1.29,1.92.06,3.01,1.48,2.62,3.38-.35,1.67-2.47,2.18-3.83,1.45-.97-.52-1.31-1.7-1.24-2.72.09-1.31,1.25-2.02,2.45-2.1.83-.06.83-1.35,0-1.29h0Z"/><path class="cls-1" d="m211.74,166.91c-1.73.12-3.17,1.14-3.41,2.93-.21,1.6.63,3.37,2.21,3.94,2.05.73,4.33-.37,4.79-2.53.51-2.43-1.25-4.26-3.59-4.34-.83-.03-.83,1.26,0,1.29,1.68.06,2.64,1.29,2.29,2.96-.31,1.46-2.16,1.9-3.35,1.27-.85-.46-1.15-1.5-1.08-2.39.08-1.14,1.1-1.76,2.14-1.83.83-.06.83-1.35,0-1.29h0Z"/><path class="cls-1" d="m142.04,98.91c-2.01,17.38-3.82,34.79-5.67,52.19-1.23,11.52-3.75,22.77-1.38,34.14.11.53.94.68,1.18.16,4.86-10.44,4.78-21.74,6.06-33.17,1.97-17.59,3.92-35.18,5.96-52.76.1-.83-1.2-.83-1.29-.01-1.85,15.93-3.61,31.86-5.4,47.79-1.32,11.79-.79,25.38-5.84,36.22-.68,1.47.52,1.13.01-1.3-.24-1.14-.98-2.95-.86-4.12.16-1.48.31-2.96.47-4.44.79-7.5,1.59-15,2.39-22.5,1.85-17.4,3.66-34.81,5.67-52.19.1-.83-1.2-.83-1.29-.01h0Z"/><path class="cls-1" d="m98.51,96.9c3.84-17.8,13.86-33.78,31.76-39.88,16.56-5.64,36.76.89,48.83,12.85,6.32,6.26,9.77,14.68,11.48,23.26.72,3.59-.4,9.89,1,13.17-.74-1.71-2.42-3.64-3.92-4.65-3.99-2.69-7.94-3.52-12.58-2.18-2.03.59-3.5,2.07-4.92,3.52-2.62,2.67-1.29,2.06-2.86-1.06-3.19-6.34-14.22-8.67-19.51-3.77-1.26,1.17-2.57,2.48-3.14,4.16.38-1.12-.6-2.88-1.65-4.45-2.22-3.31-6.41-4.88-10.14-5.51-2.99-.51-7.14.16-9.42,2.33-1.22,1.16-2.42,2.39-2.93,4.06.11-.37-.7-2.31-1.44-3.2-6.31-7.58-16.3-7.47-21.74.86-.45.7.66,1.34,1.12.65,6.01-9.23,18.78-6.72,21.54,3.71.17.63,1.06.63,1.25.01,3.72-12.29,21.42-7.53,22.81,3.59.09.7,1.06.55,1.25.01,4.14-12.07,20.61-8.22,22.43,3.11.09.55.94.65,1.18.16,5.22-10.72,17.92-9.16,22.36,1.15.27.63,1.17.27,1.21-.31,1.73-27.83-14.18-49.24-41.92-53.96-27.86-4.74-47.79,16.58-53.28,42.04-.17.81,1.07,1.15,1.25.34h0Z"/><path class="cls-1" d="m149.73,55.09c-1.9,15.82-4.54,31.53-5.51,47.45-.05.83,1.24.84,1.29.01.97-15.92,3.62-31.63,5.51-47.45.1-.83-1.19-.83-1.29-.01h0Z"/><path class="cls-1" d="m150.21,54.47c-21.11,5.29-29.25,26.2-30.25,46.13-.04.83,1.25.84,1.29.01.96-19.32,8.7-39.74,29.28-44.89.81-.2.49-1.45-.32-1.25h0Z"/><path class="cls-1" d="m151.55,55.92c15.4,10.34,19.41,34.14,16.17,51.23-.15.81,1.09,1.16,1.25.34,3.36-17.72-.83-41.98-16.77-52.69-.69-.46-1.33.66-.65,1.12h0Z"/><path class="cls-1" d="m101.44,86.81c6.62-1.71,14.28-.25,19.56,4.18.63.53,1.55-.38.91-.92-5.63-4.72-13.71-6.34-20.79-4.51-.81.21-.49,1.46.32,1.25h0Z"/><path class="cls-1" d="m103.88,81.04c6.68-1.62,13.04.52,18.71,4.05.71.44,1.35-.68.65-1.12-5.96-3.71-12.68-5.88-19.68-4.18-.81.2-.49,1.45.32,1.25h0Z"/><path class="cls-1" d="m107.31,75.31c6.16-.99,11.87,1.15,16.99,4.35.71.44,1.35-.68.65-1.12-5.43-3.39-11.45-5.52-17.96-4.48-.82.13-.49,1.38.32,1.25h0Z"/><path class="cls-1" d="m111.64,69.8c5.1-1.39,11.2,1,14.86,4.61.59.58,1.5-.33.91-.92-3.97-3.93-10.55-6.45-16.09-4.95-.8.22-.48,1.47.32,1.25h0Z"/><path class="cls-1" d="m117.05,64.61c4.38.51,9.48,1.24,12.01,5.32.44.7,1.56.07,1.12-.64-2.81-4.52-8.23-5.4-13.12-5.97-.83-.1-.83,1.2-.01,1.29h0Z"/><path class="cls-1" d="m122.84,60.73c3.58.43,7.64,1.21,9.69,4.51.44.7,1.56.07,1.12-.64-2.33-3.73-6.72-4.67-10.8-5.16-.83-.1-.83,1.19-.01,1.29h0Z"/><path class="cls-1" d="m130.31,57.36c2.6.36,5.16,1.85,6.82,3.87.53.64,1.43-.28.91-.92-1.89-2.3-4.78-3.84-7.72-4.25-.82-.12-.82,1.18-.01,1.29h0Z"/><path class="cls-1" d="m137.98,55.62c1.56.46,3.11.95,3.94,2.46.4.73,1.52.09,1.12-.64-1.01-1.83-2.82-2.5-4.73-3.07-.8-.24-1.14,1.01-.34,1.25h0Z"/><path class="cls-1" d="m145.95,94.59c7.04-3.39,17.54-2.8,22.93,3.35.55.63,1.46-.29.91-.92-5.79-6.59-16.94-7.18-24.48-3.55-.75.36-.11,1.48.64,1.12h0Z"/><path class="cls-1" d="m146.57,88.39c6.31-2.67,16.19-1.02,22.05,2.25.73.41,1.37-.71.65-1.12-6.36-3.55-16.53-5.13-23.34-2.25-.77.32-.12,1.44.64,1.12h0Z"/><path class="cls-1" d="m147.28,83.17c5.83-3.45,14.78-1,20.38,1.74.74.36,1.39-.75.65-1.12-6.02-2.95-15.4-5.44-21.66-1.74-.72.42-.08,1.54.64,1.12h0Z"/><path class="cls-1" d="m148.35,77.67c5.72-2.53,12.46-2.53,17.76,1.01.69.46,1.34-.66.65-1.12-5.69-3.79-12.91-3.72-19.04-1.01-.76.34-.11,1.45.64,1.12h0Z"/><path class="cls-1" d="m148.62,72.61c4.79-2.1,11.39-1.65,15.93.91.72.41,1.37-.71.65-1.12-4.97-2.8-11.98-3.2-17.21-.91-.76.33-.11,1.45.64,1.12h0Z"/><path class="cls-1" d="m149.35,68.15c3.42-2.34,9.44-1.87,12.87.23.71.44,1.35-.68.65-1.12-3.79-2.33-10.37-2.83-14.15-.24-.68.47-.05,1.59.64,1.12h0Z"/><path class="cls-1" d="m149.64,63.4c3.19-1.16,6.55-1.56,9.7-.04.74.36,1.4-.75.65-1.12-3.45-1.67-7.13-1.38-10.66-.09-.78.28-.46,1.54.32,1.25h0Z"/><path class="cls-1" d="m150.49,59.31c1.5-.89,4.02-.87,5.48.1.69.46,1.34-.66.65-1.12-1.82-1.21-4.9-1.21-6.76-.1-.71.42-.08,1.55.64,1.12h0Z"/><path class="cls-1" d="m149.03,51.71c.35-1.15.34-2.41.47-3.59.13-1.2,1.15-4.58,2.97-2.95.83.75.49,2.66.38,3.61-.13,1.13-.42,2.23-.56,3.35-.11.83,1.18.83,1.29.01.28-2.08,2.05-7.53-1.04-8.43-4.64-1.36-3.97,5.14-4.74,7.65-.24.8,1,1.13,1.25.34h0Z"/><path class="cls-1" d="m150.69,51.24c-1.87-.22-5.96-1.35-6.8,1.19-.94,2.82,4.14,3.05,5.67,3.21,2.16.23,7.52,1.62,7.77-1.83.18-2.52-5.25-2.41-6.64-2.56-.83-.09-.83,1.2-.01,1.29,1.64.18,3.61.15,5.11.92.43.36.34.74-.28,1.14-.5.19-1.19.11-1.72.09-1.16-.04-2.33-.17-3.49-.27-.3-.03-6.61-.76-4.94-2.02,1.1-.83,4.11,0,5.32.13.83.09.83-1.2.01-1.29h0Z"/><path class="cls-1" d="m101.15,214.05c.96,2,2.88,3.03,5.06,2.42,2.01-.56,3.4-2.58,3.17-4.64-.27-2.34-2.43-4.38-4.85-3.93-2.98.56-4.45,3.19-3.43,6,.28.78,1.53.44,1.24-.34-.78-2.16.25-4.17,2.67-4.42,1.9-.19,3.19,1.78,3.11,3.49-.06,1.34-1.3,2.33-2.48,2.67-1.54.43-2.74-.58-3.36-1.89-.36-.75-1.47-.09-1.11.65h0Z"/><path class="cls-1" d="m92.24,209.53c.86,1.78,2.6,2.67,4.53,2.12,1.71-.49,2.94-2.13,2.89-3.9-.06-2.18-2.12-4.1-4.32-3.72-2.67.47-4.07,2.81-3.16,5.35.28.78,1.53.44,1.24-.34-.65-1.79.1-3.22,1.97-3.71,1.73-.45,3.04,1.32,2.97,2.89-.06,1.13-1.14,1.97-2.14,2.25-1.31.37-2.32-.47-2.86-1.59-.36-.75-1.47-.09-1.11.65h0Z"/><path class="cls-1" d="m100.3,203.87c.79,1.63,2.39,2.44,4.15,1.94,1.57-.44,2.69-1.95,2.65-3.57-.06-2.01-1.95-3.76-3.97-3.41-2.43.42-3.72,2.58-2.89,4.89.28.78,1.53.44,1.24-.34-.57-1.58.08-2.83,1.73-3.26,1.51-.39,2.66,1.17,2.59,2.54-.05.99-1.01,1.72-1.88,1.97-1.15.32-2.03-.42-2.5-1.4-.36-.75-1.47-.09-1.11.65h0Z"/><path class="cls-1" d="m54.06,37.28c-1.89-.94-4.07-.79-5.42.97-1.2,1.57-1.4,3.97-.03,5.52,1.75,1.99,4.79,2.26,6.62.26,2.05-2.25,1.23-5.25-1.17-6.75-.71-.44-1.35.67-.65,1.11,1.91,1.19,2.24,3.27.69,4.97-1.41,1.54-3.97.65-4.87-.98-.58-1.05-.24-2.37.39-3.3.88-1.3,2.5-1.33,3.79-.69.74.37,1.4-.74.65-1.11h0Z"/><path class="cls-1" d="m63.87,35.36c-1.7-.84-3.64-.67-4.84.91-1.07,1.41-1.26,3.55-.04,4.95,1.56,1.79,4.27,1.98,5.88.19,1.81-2.01,1.16-4.7-1-6.05-.71-.44-1.35.67-.65,1.11,1.64,1.02,1.86,2.79.55,4.24-1.19,1.31-3.35.58-4.1-.81-.49-.9-.17-2.03.36-2.82.74-1.1,2.1-1.15,3.19-.61.74.37,1.4-.74.65-1.11h0Z"/><path class="cls-1" d="m61.02,44.77c-1.56-.77-3.34-.61-4.44.84-.98,1.29-1.14,3.26-.03,4.53,1.43,1.63,3.91,1.8,5.39.17,1.66-1.84,1.06-4.31-.92-5.55-.71-.44-1.35.67-.65,1.11,1.44.9,1.63,2.44.48,3.71-1.04,1.15-2.93.5-3.59-.71-.43-.79-.14-1.78.33-2.47.65-.96,1.84-.99,2.79-.52.74.37,1.4-.75.65-1.11h0Z"/><path class="cls-1" d="m1249.22,425.5c-14.07-.33-10.84,21.44-14.91,30.14-2.07,4.41-6.56,11.96-2.77,16.78,3.37,4.28,9.56,6.27,14.07,2.59.51-.42-.12-1.22-.63-.8-3.55,2.89-7.57,1.78-10.95-.6-4.13-2.9-2.77-8.33-1.31-12.15,1.33-3.49,3.65-6.68,4.48-10.36,1.78-7.85.28-24.86,11.91-24.59.65.02.78-1,.12-1.01h0Z"/><path class="cls-1" d="m1239.84,451.25c2.19-7.23,1.29-15.54,5.54-22.06,2.42-3.71,6.95-3.13,10.53-1.98,3.81,1.22,5.31,4.93,5.7,8.53.61,5.63-2.05,11.64-4.28,16.65-3.25,7.31-8.42,26.92-19.28,20.79-8.37-4.73-.46-15.86,1.79-21.93.23-.62-.72-.99-.95-.37-2.57,6.95-10.92,19.51.02,23.95,11.52,4.68,15.91-14.76,19.37-22.06,4.73-9.97,8.43-26.42-7.09-27.53-11.3-.81-10.28,18.97-12.3,25.64-.19.63.76,1.01.95.37h0Z"/><path class="cls-1" d="m1251.99,436.61c-3.79.81-14.34,6.28-11.52,11.46,1.45,2.66,4.48,2.28,6.28.3,2.79-3.08,4.39-7.21,5.79-11.06.22-.62-.73-1-.95-.37-.97,2.69-2.07,5.33-3.48,7.81-.76,1.35-1.67,2.63-2.87,3.63-1.56,1.3-3.77.27-4.18-1.62-.88-4.06,8-8.48,11.07-9.13.64-.14.5-1.15-.14-1.01h0Z"/><path class="cls-1" d="m1251.55,437.06c-.19,3.62-2.58,18,4.31,16.99,7.69-1.13-1-14.69-3.4-17.24-.45-.48-1.25.15-.8.63,2.29,2.44,9.71,13.33,4.41,15.5-5.4,2.22-3.64-13.23-3.5-15.76.04-.65-.98-.78-1.01-.12h0Z"/><path class="cls-1" d="m1247.93,439.29c.41.94,1.17,1.42,2.01,1.95.55.35,1.17-.47.61-.82-.66-.41-1.35-.77-1.67-1.52-.26-.6-1.21-.21-.94.4h0Z"/><path class="cls-1" d="m1245.24,440.93c.93,1.24,2.08,2.12,3.42,2.88.57.32,1.18-.5.61-.82-1.26-.71-2.35-1.52-3.22-2.69-.4-.53-1.2.11-.8.63h0Z"/><path class="cls-1" d="m1242.89,442.08c.42,2.03,2.62,3.4,4.4,4.12.61.25.99-.7.37-.95-1.39-.57-3.44-1.71-3.77-3.31-.13-.64-1.14-.5-1.01.14h0Z"/><path class="cls-1" d="m1240.85,444.06c.63,2.3,2.55,3.98,4.66,4.97.6.28.97-.67.37-.95-1.73-.81-3.5-2.24-4.02-4.16-.17-.63-1.19-.49-1.01.14h0Z"/><path class="cls-1" d="m1251.76,441.88c1.05.12,1.9-.28,2.77-.85.55-.36-.09-1.16-.63-.8-.63.41-1.24.72-2.01.63-.65-.07-.78.94-.12,1.01h0Z"/><path class="cls-1" d="m1251.62,444.95c1.6.2,3.24-.78,4.21-2.01.41-.52-.42-1.12-.82-.61-.74.94-2.03,1.75-3.26,1.6-.65-.08-.77.93-.12,1.01h0Z"/><path class="cls-1" d="m1251.65,448.13c2.23.47,4.38-.63,5.7-2.41.39-.53-.43-1.13-.82-.61-1.13,1.51-2.87,2.4-4.76,2-.65-.13-.76.88-.12,1.01h0Z"/><path class="cls-1" d="m1252.15,451.26c2.31.28,4.72-.2,6.27-2.05.42-.5-.4-1.11-.82-.61-1.31,1.56-3.4,1.88-5.33,1.64-.65-.08-.77.94-.12,1.01h0Z"/><path class="cls-1" d="m1230.08,431.95c8.1,6.41-.73,16.87-4.71,23.12-1.84,2.88-2.93,5.77-3.78,9.09-.88,3.41-1.64,6.54-3.38,9.64-3.58,6.35-14.09,4.54-15.55-2.66-.13-.64-1.14-.5-1.01.14,1.15,5.69,6.89,8.17,12.29,7.18,7.35-1.34,8.13-13.28,9.99-18.62,2.92-8.37,17.36-20.33,6.75-28.72-.52-.41-1.12.41-.61.82h0Z"/><path class="cls-1" d="m1222.27,457.23c3.12-7.41,13.82-17.41,8.57-25.99-2.11-3.44-8.2-5.72-12.02-4.28-5.36,2.02-8.13,7.2-10.26,12.2-2.66,6.23-3.96,13.15-5.92,19.61-1.37,4.52-2.79,9.81-.11,14.08,2.19,3.49,9.22,4.17,12.24,1.58,5.01-4.29,5.44-11.33,7.51-17.2.22-.62-.73-1-.95-.37-1.31,3.71-2.06,7.58-3.41,11.28-3.46,9.5-16.5,8.38-15.8-2.22.3-4.6,2.25-9.14,3.58-13.51,1.3-4.31,2.19-8.65,3.83-12.87,1.72-4.43,4.31-8.95,8.64-11.23,6-3.16,13.6,2.69,13,8.95-.7,7.24-7.07,13.09-9.82,19.6-.26.61.69.98.95.37h0Z"/><path class="cls-1" d="m1220.64,438.48c2,2.55,6.29,12.67,1.94,14.58-4.12,1.81-3.77-4.23-3.42-6.41.45-2.84,1.37-5.61,2.36-8.3.23-.62-.72-.99-.95-.37-1.28,3.5-6.35,17.67,1.95,16.16,6.17-1.12,1.05-13.58-1.07-16.29-.41-.52-1.21.11-.8.63h0Z"/><path class="cls-1" d="m1220.63,437.86c-2.46,3.28-6.45,11.04-11.15,10.99-2.53-.03-2.14-3.28-1.09-4.58,1.12-1.39,2.96-2.27,4.53-3.03,2.53-1.23,5.4-2.24,8.2-2.57.66-.08.51-1.09-.14-1.01-4.12.49-18.06,4.66-13.71,10.99,3.94,5.72,12.42-7.83,14.19-10.18.39-.53-.43-1.13-.82-.61h0Z"/><path class="cls-1" d="m1222.37,441.56c-.74.37-1.48.21-2.26.1-.65-.09-.77.92-.12,1.01.96.14,1.88.28,2.78-.17.59-.29.19-1.24-.4-.94h0Z"/><path class="cls-1" d="m1223.64,444.48c-1.42.33-2.78.25-4.2-.02-.65-.12-.76.89-.12,1.01,1.5.29,2.96.37,4.46.02.64-.15.5-1.16-.14-1.01h0Z"/><path class="cls-1" d="m1224.21,447.1c-1.28,1.03-3.57.6-5.01.13-.62-.21-1,.74-.37.95,1.79.59,4.42,1.01,6.01-.28.51-.41-.12-1.22-.63-.8h0Z"/><path class="cls-1" d="m1224.5,449.93c-1.62,1.13-3.9,1.11-5.75.61-.63-.17-1.01.78-.37.95,2.22.6,4.8.6,6.75-.76.54-.38-.09-1.18-.63-.8h0Z"/><path class="cls-1" d="m1218.8,441.16c-.69-.47-.95-1.13-1.18-1.9-.19-.63-1.13-.23-.94.4.28.95.68,1.76,1.52,2.32.54.37,1.15-.45.61-.82h0Z"/><path class="cls-1" d="m1216.93,443.6c-1.04-.68-1.54-2.12-1.5-3.32.02-.65-.99-.78-1.01-.12-.05,1.56.55,3.38,1.91,4.27.55.36,1.16-.46.61-.82h0Z"/><path class="cls-1" d="m1214.76,445.94c-1.64-.9-2.36-2.73-2.27-4.54.04-.65-.98-.78-1.01-.12-.13,2.31.84,4.47,2.91,5.61.58.32.95-.64.37-.95h0Z"/><path class="cls-1" d="m1212.48,448.08c-1.61-1.06-3.04-2.66-3.04-4.69,0-.65-1.01-.78-1.01-.12,0,2.42,1.49,4.35,3.45,5.63.55.36,1.16-.46.61-.82h0Z"/><path class="cls-4" d="m1425.4,470.37c-3.13,14.31-13.52,26.63-13.34,27.98,1.83,14.1,4.77,21.01,4.77,21.01,1.35.29,8.27-1.6,9.03,1.47.83,3.36-7.08,4.03-10.52,4.69l-.17.03c-3.44.66-11.03,2.96-11.51-.46-.44-3.13,6.69-3.94,7.84-4.71,0,0,.16-7.51-3.39-21.28-.34-1.32-14.57-8.92-22.8-21.04"/><path class="cls-4" d="m1402.32,469.62c-4.57,1.01-18.37,2.71-17.64,7.09,1.06,5.65,14.32,1.2,24.3-.81,6.85-1.37,19.45-2.73,16.05-7.81-2.11-3.14-18.9.68-22.71,1.52"/><path class="cls-1" d="m1393.32,484.69c2.68,2.71,5.71,5.08,8.8,7.29,1.57,1.12,5.55,4.27,7.81,3.42,2.48-.93,4.11-4.03,5.44-6.11,1.96-3.06,3.88-6.4,5.06-9.86.08-.24-.09-.52-.33-.58-7.93-2.07-20.03.39-26.69,5.1-.49.35-.02,1.16.47.81,4.17-2.95,9.63-4.06,14.57-4.93,2.87-.5,5.79-.7,8.7-.55,3.82.19.99,3.15-.18,5.36-1.12,2.11-2.37,4.15-3.7,6.13-2.27,3.37-4.14,4.25-7.78,2.27-4.21-2.29-8.15-5.61-11.52-9.01-.43-.43-1.09.23-.66.66h0Z"/><path class="cls-1" d="m1394.11,485.08c8.59,2.05,18.85.31,25.77-5.36.47-.38-.2-1.04-.66-.66-6.64,5.44-16.62,7.08-24.86,5.12-.59-.14-.84.76-.25.9h0Z"/><path class="cls-1" d="m1407.26,482.23c1.41-6.17,3.08-12.28,4.74-18.39.79-2.91,1.59-5.81,2.4-8.71.23-.82.46-1.63.68-2.45.24-.86-.36-.26.2-.28,1.89-.07,11.55-.24,11.56-.56-.15,3.28.51,2.76-2.83,2.9-2.13.09-4.26.18-6.4.28-.22,0-.38.14-.45.34-2.84,8.6-5.39,17.5-7.18,26.38-.12.59.78.84.9.25,1.41-6.99,3.46-13.89,5.44-20.73.41-1.4.83-2.79,1.26-4.18.46-1.48.49-1.15,2.18-1.22,2.46-.11,4.93-.21,7.39-.32.26-.01.46-.21.47-.47.05-1.2.11-2.41.16-3.61.01-.25-.22-.48-.47-.47-4.17.16-8.35.32-12.53.48-.21,0-.39.14-.45.34-2.82,10-5.68,20.02-8,30.16-.13.59.77.84.9.25h0Z"/><path class="cls-1" d="m1405.17,482.51c2.28.6,4.73.27,6.94-.48.57-.19.32-1.1-.25-.9-2.05.7-4.31,1.04-6.44.48-.59-.15-.83.75-.25.9h0Z"/><path class="cls-1" d="m1426.55,397.03c-2.41.16-4.14,1.56-4.47,3.99-.29,2.17,1.15,4.23,3.15,4.93,2.58.9,5.68-.78,6.02-3.53.39-3.12-1.65-5.29-4.71-5.39-.88-.03-.88,1.34,0,1.37,2.38.07,3.81,1.79,3.3,4.17-.45,2.09-3.14,2.7-4.83,1.8-1.2-.64-1.66-2.08-1.57-3.35.12-1.65,1.6-2.52,3.1-2.62.88-.06.88-1.43,0-1.37h0Z"/><path class="cls-1" d="m1434.51,390.05c-1.99.14-3.67,1.3-3.94,3.38-.24,1.85.71,3.91,2.55,4.57,2.38.84,5.02-.42,5.54-2.93.59-2.82-1.45-4.92-4.16-5.01-.88-.03-.88,1.34,0,1.37,2.03.07,3.2,1.56,2.77,3.58-.37,1.77-2.62,2.31-4.06,1.54-1.03-.55-1.39-1.8-1.32-2.89.1-1.39,1.33-2.14,2.6-2.23.88-.06.88-1.43,0-1.37h0Z"/><path class="cls-1" d="m1436.94,400.18c-1.83.13-3.36,1.2-3.61,3.11-.22,1.7.66,3.58,2.34,4.17,2.18.77,4.59-.39,5.07-2.68.54-2.58-1.33-4.51-3.81-4.6-.88-.03-.88,1.34,0,1.37,1.78.06,2.8,1.37,2.43,3.14-.32,1.54-2.29,2.02-3.55,1.34-.9-.49-1.22-1.59-1.15-2.54.08-1.21,1.17-1.87,2.27-1.94.88-.06.88-1.43,0-1.37h0Z"/><path class="cls-1" d="m1422.94,284.36c2.38,9.97,4.87,19.9,7.33,29.85,1.63,6.58,2.5,13.28,6.08,19.06.17.27.66.18.68-.15.58-6.71-1.73-12.92-3.31-19.46-2.44-10.07-4.89-20.14-7.29-30.22-.11-.47-.82-.22-.71.25,2.17,9.13,4.39,18.25,6.6,27.37,1.63,6.75,4.65,14.12,4.04,21.09-.08.94.51.52-.25-.72-.36-.58-1.13-1.43-1.3-2.09-.21-.85-.42-1.69-.63-2.54-1.07-4.28-2.13-8.57-3.19-12.85-2.47-9.94-4.96-19.88-7.34-29.85-.11-.47-.82-.22-.71.25h0Z"/><path class="cls-1" d="m1398.59,291.97c-1.45-10.56.86-21.36,9.48-28.3,7.98-6.42,20.4-6.87,29.44-2.71,4.73,2.18,8.32,6.12,10.98,10.5,1.11,1.83,1.76,5.52,3.19,7.04-.75-.79-2.06-1.52-3.09-1.77-2.74-.68-5.07-.35-7.36,1.32-1,.73-1.51,1.84-2,2.92-.91,1.99-.3,1.39-1.79-.01-3.02-2.85-9.56-1.92-11.49,1.84-.46.89-.91,1.88-.89,2.92-.01-.69-.91-1.47-1.8-2.12-1.88-1.37-4.5-1.4-6.68-1-1.75.32-3.89,1.52-4.71,3.17-.44.88-.85,1.8-.8,2.82-.01-.23-.85-1.13-1.43-1.47-4.99-2.91-10.47-.85-11.78,4.83-.11.47.63.6.74.13,1.46-6.28,8.98-7.46,12.59-2.27.22.32.71.13.69-.24-.41-7.51,10.28-8.43,13.26-2.6.19.37.69.09.69-.24-.14-7.47,9.69-8.65,12.96-2.78.16.29.65.17.68-.15.73-6.94,8.02-8.63,12.53-3.85.28.29.7-.09.6-.41-4.62-15.65-17.66-24.25-33.87-21.29-16.27,2.97-22.97,18.7-20.89,33.8.07.48.82.42.75-.06h0Z"/><path class="cls-1" d="m1418.39,258.71c2.13,9.08,3.82,18.25,6.47,27.21.14.47.85.21.71-.25-2.65-8.95-4.35-18.12-6.47-27.21-.11-.47-.82-.22-.71.25h0Z"/><path class="cls-1" d="m1418.53,258.27c-10.55,7.14-10.84,20.27-7.4,31.44.14.47.86.21.71-.25-3.34-10.82-3.18-23.6,7.11-30.56.4-.27-.02-.9-.43-.62h0Z"/><path class="cls-1" d="m1419.56,258.81c10.54,2.61,17.52,14.89,19.16,24.94.08.48.83.42.75-.06-1.7-10.42-8.86-22.93-19.78-25.62-.47-.12-.6.63-.13.74h0Z"/><path class="cls-1" d="m1398.18,285.84c3.3-2.27,7.81-3,11.6-1.62.45.16.78-.52.32-.69-4.04-1.47-8.81-.74-12.34,1.68-.4.28.02.9.43.62h0Z"/><path class="cls-1" d="m1398.37,282.18c3.35-2.23,7.28-2.33,11.1-1.52.48.1.61-.64.13-.74-4.02-.85-8.15-.69-11.66,1.64-.41.27.02.89.43.62h0Z"/><path class="cls-1" d="m1399.11,278.34c3.19-1.78,6.76-1.74,10.22-1.01.48.1.61-.64.13-.74-3.67-.78-7.4-.75-10.78,1.13-.43.24,0,.86.43.62h0Z"/><path class="cls-1" d="m1400.38,274.44c2.53-1.78,6.36-1.69,9.1-.44.44.2.76-.48.32-.69-2.97-1.36-7.1-1.44-9.84.5-.4.28.03.9.43.62h0Z"/><path class="cls-1" d="m1402.32,270.5c2.51-.6,5.46-1.22,7.67.52.38.3.87-.28.49-.58-2.45-1.92-5.61-1.32-8.41-.65-.47.11-.22.82.25.71h0Z"/><path class="cls-1" d="m1404.73,267.2c2.05-.48,4.45-.86,6.23.54.38.3.87-.28.49-.58-2.03-1.58-4.63-1.22-6.97-.67-.47.11-.22.82.25.71h0Z"/><path class="cls-1" d="m1408.16,263.85c1.5-.32,3.21-.02,4.53.76.42.25.73-.44.32-.69-1.5-.89-3.4-1.15-5.1-.79-.48.1-.22.81.25.71h0Z"/><path class="cls-1" d="m1412.03,261.36c.95-.06,1.9-.1,2.66.56.37.32.86-.26.49-.58-.92-.8-2.05-.81-3.21-.74-.49.03-.42.78.06.75h0Z"/><path class="cls-1" d="m1424.23,281.2c3.2-3.28,9.09-5.05,13.29-2.75.43.23.74-.45.32-.69-4.51-2.47-10.76-.55-14.18,2.95-.34.35.24.84.58.49h0Z"/><path class="cls-1" d="m1423.32,277.67c2.94-2.73,8.7-3.81,12.58-3.18.48.08.61-.67.13-.74-4.21-.68-10.12.49-13.29,3.44-.36.33.22.82.58.49h0Z"/><path class="cls-1" d="m1422.67,274.65c2.52-3.07,7.93-3.51,11.56-3.13.48.05.62-.69.13-.74-3.9-.41-9.56.09-12.27,3.38-.31.38.27.87.58.49h0Z"/><path class="cls-1" d="m1422.16,271.41c2.64-2.54,6.35-3.89,9.97-3,.47.12.6-.63.13-.74-3.89-.95-7.85.54-10.68,3.26-.35.34.23.82.58.49h0Z"/><path class="cls-1" d="m1421.29,268.58c2.22-2.12,5.94-3.19,8.94-2.69.48.08.61-.66.13-.74-3.3-.54-7.23.64-9.65,2.95-.35.34.23.82.58.49h0Z"/><path class="cls-1" d="m1420.8,265.98c1.41-1.97,4.82-2.92,7.13-2.45.48.1.61-.65.13-.74-2.55-.52-6.27.52-7.83,2.7-.28.39.29.88.58.49h0Z"/><path class="cls-1" d="m1420.01,263.31c1.52-1.28,3.29-2.17,5.32-1.97.48.05.62-.7.13-.74-2.23-.23-4.2.67-5.88,2.09-.37.31.05.94.43.62h0Z"/><path class="cls-1" d="m1419.65,260.88c.64-.79,2.04-1.28,3.03-1.04.47.11.6-.63.13-.74-1.24-.3-2.94.31-3.74,1.3-.31.38.27.87.58.49h0Z"/><path class="cls-1" d="m1417.33,256.99c-.04-.7-.3-1.39-.46-2.07-.17-.69-.29-2.75,1.04-2.22.61.24.8,1.36.93,1.91.15.65.22,1.31.36,1.96.1.48.82.22.71-.25-.26-1.2-.38-4.55-2.26-4.43-2.83.18-1.15,3.62-1.07,5.16.03.49.78.42.75-.06h0Z"/><path class="cls-1" d="m1418.15,256.4c-1.07.26-3.55.45-3.51,2.02.05,1.74,2.89.85,3.76.63,1.24-.31,4.46-.62,3.91-2.57-.4-1.43-3.37-.28-4.17-.08-.47.12-.22.83.25.71.94-.23,2.02-.64,3-.52.31.11.34.34.08.68-.24.21-.63.3-.93.39-.65.21-1.32.37-1.98.55-.17.05-3.79.91-3.12-.12.44-.68,2.26-.83,2.95-.99.47-.11.22-.82-.25-.71h0Z"/><path class="cls-1" d="m1230.9,355.71c-2-.99-4.31-.84-5.74,1.03-1.28,1.67-1.48,4.21-.03,5.85,1.86,2.11,5.08,2.4,7.02.28,2.17-2.39,1.3-5.57-1.24-7.16-.75-.47-1.44.72-.69,1.18,2.03,1.26,2.37,3.46.73,5.27-1.49,1.64-4.21.69-5.16-1.04-.61-1.11-.25-2.51.41-3.5.93-1.38,2.66-1.41,4.02-.73.79.39,1.48-.79.69-1.18h0Z"/><path class="cls-1" d="m1241.29,353.68c-1.8-.89-3.85-.71-5.13.96-1.14,1.49-1.33,3.77-.04,5.24,1.65,1.89,4.53,2.09,6.24.21,1.92-2.13,1.22-4.98-1.06-6.41-.75-.47-1.44.72-.69,1.18,1.74,1.08,1.97,2.96.58,4.49-1.26,1.39-3.55.62-4.35-.86-.52-.95-.18-2.15.38-2.99.78-1.17,2.23-1.22,3.39-.64.79.39,1.48-.79.69-1.18h0Z"/><path class="cls-1" d="m1238.28,363.65c-1.66-.82-3.54-.64-4.71.89-1.04,1.37-1.21,3.45-.03,4.8,1.51,1.73,4.15,1.91,5.71.19,1.76-1.95,1.13-4.57-.97-5.88-.75-.47-1.44.72-.69,1.18,1.52.95,1.73,2.59.51,3.94-1.11,1.22-3.11.53-3.81-.76-.45-.84-.15-1.89.35-2.62.69-1.02,1.95-1.05,2.96-.55.79.39,1.48-.79.69-1.18h0Z"/><path class="cls-1" d="m1251.18,17c2.99-.84,5.34,2.17,3.68,4.87-1.01,1.64-3.64,1.83-4.99.59-1.95-1.81-.89-4.6,1.31-5.45.81-.32.46-1.64-.36-1.32-2.69,1.05-4.19,3.69-2.79,6.46,1.32,2.63,4.69,3.28,7.02,1.47,1.66-1.29,2.15-3.6,1.33-5.51-.97-2.27-3.26-3.07-5.55-2.42-.85.24-.49,1.56.36,1.32h0Z"/><path class="cls-1" d="m1241.35,13.07c2.54-.71,4.48,1.86,3.14,4.15-.84,1.43-3.08,1.58-4.22.51-1.63-1.53-.81-3.92,1.07-4.66.81-.32.46-1.64-.36-1.32-2.42.94-3.69,3.32-2.46,5.8,1.17,2.34,3.99,2.89,6.12,1.44,1.6-1.09,1.98-3.27,1.29-4.99-.82-2.06-2.91-2.82-4.96-2.24-.85.24-.49,1.56.36,1.32h0Z"/><path class="cls-1" d="m1242.45,23.43c2.22-.62,3.93,1.63,2.75,3.63-.73,1.25-2.69,1.38-3.69.44-1.43-1.34-.71-3.44.94-4.08.81-.32.46-1.64-.36-1.32-2.22.86-3.39,3.05-2.25,5.32,1.07,2.14,3.66,2.64,5.61,1.32,1.46-1,1.82-2.99,1.2-4.57-.75-1.89-2.67-2.59-4.55-2.07-.85.24-.49,1.56.36,1.32h0Z"/><path class="cls-1" d="m295.11,482.31c-11.24.74-21.47,7.38-22.57,19.42-1,10.98,4.41,21.31,14.79,25.52,13.67,5.54,29.1-3.05,31.86-17.1,3.18-16.16-8.9-27.36-24.08-27.84-.92-.03-.92,1.4,0,1.43,16.45.52,26.41,13.58,21.82,29.72-3.86,13.58-21.97,16.96-32.98,10.56-7.96-4.63-11.1-14.8-9.8-23.46,1.6-10.65,10.97-16.17,20.97-16.82.91-.06.92-1.49,0-1.43h0Z"/><path class="cls-1" d="m295.04,489.08c-17.5,1.13-21.3,25.72-4.86,32.01,15.78,6.03,32.22-19.01,14.25-26.16-6.41-2.55-13.8-1.06-16.83,5.59-2.13,4.67-1.77,12.17,3.73,14.31,4.28,1.66,10.3.54,13.11-3.33,3.14-4.33.59-10.6-4.31-12.33-6.15-2.17-11.44,9.95-2.09,10.07.92.01.92-1.42,0-1.43-5.68-.07-4-5.72-.21-7.2,3.55-1.38,6.42,3.61,6.67,6.48.39,4.36-4.82,6.69-8.36,7.05-5.08.52-8.26-3.02-8.29-7.9-.04-7.74,6.2-12.18,13.47-10.82,6.66,1.25,10.68,7.34,9.17,13.88-1.84,7.95-11.29,12.17-18.71,10.76-7.32-1.39-10.97-8.69-10.83-15.5.16-8,6.37-13.55,14.08-14.05.91-.06.92-1.49,0-1.43h0Z"/><path class="cls-1" d="m296.57,478.71c.56-4.73-.27-9.42,0-14.15.05-.92-1.37-.91-1.43,0-.27,4.73.56,9.43,0,14.15-.11.91,1.32.9,1.43,0h0Z"/><path class="cls-1" d="m295.14,532.23c.56,4.73-.27,9.42,0,14.15.05.91,1.48.92,1.43,0-.27-4.73.56-9.43,0-14.15-.11-.9-1.54-.91-1.43,0h0Z"/><path class="cls-1" d="m269.11,504.84c-4.74-.56-9.45.27-14.19,0-.92-.05-.91,1.38,0,1.43,4.74.27,9.45-.56,14.19,0,.91.11.9-1.32,0-1.43h0Z"/><path class="cls-1" d="m322.77,506.27c4.74-.56,9.45.27,14.19,0,.91-.05.92-1.48,0-1.43-4.75.27-9.45-.56-14.19,0-.9.11-.91,1.53,0,1.43h0Z"/><path class="cls-1" d="m277.41,486.1c-2.93-3.76-6.9-6.45-10.04-10.01-.61-.69-1.61.32-1.01,1.01,3.14,3.56,7.11,6.24,10.04,10.01.56.73,1.57-.29,1.01-1.01h0Z"/><path class="cls-1" d="m314.35,524.95c3.77,2.92,6.47,6.88,10.04,10.01.69.6,1.7-.4,1.01-1.01-3.57-3.13-6.27-7.09-10.04-10.01-.72-.55-1.74.45-1.01,1.01h0Z"/><path class="cls-1" d="m276.52,523.95c-3.77,2.92-6.47,6.88-10.04,10.01-.69.61.32,1.61,1.01,1.01,3.57-3.13,6.26-7.09,10.04-10.01.73-.56-.29-1.56-1.01-1.01h0Z"/><path class="cls-1" d="m315.48,487.11c2.93-3.76,6.9-6.45,10.04-10.01.61-.69-.4-1.7-1.01-1.01-3.14,3.56-7.11,6.24-10.04,10.01-.56.72.44,1.73,1.01,1.01h0Z"/><path class="cls-1" d="m286.28,480.59c-1.28-4.59-3.88-8.6-5.43-13.08-.3-.86-1.68-.49-1.38.38,1.55,4.48,4.15,8.49,5.43,13.08.25.88,1.62.51,1.38-.38h0Z"/><path class="cls-1" d="m305.51,530.58c2.34,4.14,3.36,8.82,5.43,13.08.4.83,1.63.1,1.23-.72-2.08-4.26-3.09-8.93-5.43-13.08-.45-.8-1.69-.08-1.23.72h0Z"/><path class="cls-1" d="m270.99,515.1c-4.6,1.28-8.62,3.87-13.11,5.42-.86.3-.49,1.68.38,1.38,4.49-1.55,8.52-4.14,13.11-5.42.89-.25.51-1.62-.38-1.38h0Z"/><path class="cls-1" d="m321.12,495.93c4.16-2.34,8.84-3.35,13.11-5.42.83-.4.1-1.63-.72-1.23-4.28,2.07-8.95,3.08-13.11,5.42-.8.45-.08,1.68.72,1.23h0Z"/><path class="cls-1" d="m271.48,494.69c-4.16-2.34-8.84-3.35-13.11-5.42-.82-.4-1.55.83-.72,1.23,4.27,2.07,8.96,3.08,13.11,5.42.8.45,1.52-.78.72-1.23h0Z"/><path class="cls-1" d="m320.51,516.48c4.6,1.27,8.62,3.87,13.11,5.42.87.3,1.24-1.08.38-1.38-4.49-1.55-8.51-4.14-13.11-5.42-.89-.25-1.26,1.13-.38,1.38h0Z"/><path class="cls-1" d="m285.14,529.86c-2.35,4.15-3.36,8.82-5.43,13.08-.4.82.83,1.55,1.23.72,2.07-4.26,3.09-8.94,5.43-13.08.45-.8-.78-1.52-1.23-.72h0Z"/><path class="cls-1" d="m306.98,480.97c1.28-4.59,3.88-8.6,5.43-13.08.3-.87-1.08-1.24-1.38-.38-1.55,4.48-4.15,8.49-5.43,13.08-.25.89,1.13,1.26,1.38.38h0Z"/><path class="cls-1" d="m291.37,479.36c-.2-2.63-1.16-5.09-1.52-7.69-.13-.91-1.5-.52-1.38.38.34,2.47,1.28,4.81,1.47,7.31.07.91,1.5.92,1.43,0h0Z"/><path class="cls-1" d="m300.38,531.8c.8,2.44.85,5.02,1.5,7.5.23.89,1.61.51,1.38-.38-.64-2.48-.7-5.05-1.5-7.5-.28-.87-1.66-.5-1.38.38h0Z"/><path class="cls-1" d="m269.76,510.02c-2.64.2-5.1,1.16-7.71,1.52-.91.13-.52,1.5.38,1.38,2.48-.34,4.82-1.27,7.33-1.47.91-.07.92-1.5,0-1.43h0Z"/><path class="cls-1" d="m322.34,501.04c2.45-.79,5.03-.85,7.52-1.49.89-.23.51-1.61-.38-1.38-2.48.64-5.06.7-7.52,1.49-.87.28-.5,1.66.38,1.38h0Z"/><path class="cls-1" d="m274.21,490.22c-2-1.72-4.43-2.77-6.52-4.36-.73-.56-1.44.68-.72,1.23,1.99,1.51,4.32,2.5,6.23,4.14.69.6,1.71-.41,1.01-1.01h0Z"/><path class="cls-1" d="m317.74,520.95c2.3,1.15,4.16,2.96,6.37,4.25.8.46,1.51-.77.72-1.23-2.22-1.29-4.07-3.09-6.37-4.25-.82-.41-1.54.82-.72,1.23h0Z"/><path class="cls-1" d="m280.65,527.14c-1.72,1.99-2.78,4.41-4.37,6.5-.56.73.68,1.44,1.23.72,1.52-1.99,2.51-4.31,4.15-6.21.6-.69-.41-1.71-1.01-1.01h0Z"/><path class="cls-1" d="m311.46,483.73c1.16-2.3,2.97-4.14,4.26-6.35.46-.8-.77-1.51-1.23-.72-1.29,2.21-3.1,4.06-4.26,6.36-.41.82.82,1.54,1.23.72h0Z"/><path class="cls-1" d="m281.65,483.01c-1.16-2.3-2.97-4.14-4.26-6.36-.46-.79-1.7-.08-1.23.72,1.29,2.21,3.1,4.06,4.26,6.35.41.82,1.64.1,1.23-.72h0Z"/><path class="cls-1" d="m310.22,528.15c1.64,1.9,2.63,4.22,4.15,6.21.55.72,1.79.01,1.23-.72-1.59-2.09-2.64-4.51-4.37-6.5-.6-.7-1.61.32-1.01,1.01h0Z"/><path class="cls-1" d="m273.42,519.72c-2.3,1.15-4.16,2.96-6.37,4.25-.8.46-.08,1.69.72,1.23,2.22-1.29,4.07-3.09,6.37-4.25.82-.41.1-1.64-.72-1.23h0Z"/><path class="cls-1" d="m318.68,491.23c1.9-1.64,4.24-2.62,6.23-4.13.72-.55.01-1.79-.72-1.23-2.09,1.59-4.52,2.64-6.52,4.36-.7.6.32,1.61,1.01,1.01h0Z"/><path class="cls-1" d="m269.92,499.67c-2.45-.79-5.03-.85-7.52-1.49-.89-.23-1.27,1.15-.38,1.38,2.48.64,5.07.7,7.52,1.49.88.28,1.25-1.09.38-1.38h0Z"/><path class="cls-1" d="m322.12,511.45c2.5.19,4.85,1.12,7.33,1.47.9.12,1.29-1.25.38-1.38-2.61-.36-5.07-1.31-7.71-1.52-.92-.07-.91,1.36,0,1.43h0Z"/><path class="cls-1" d="m290.12,531.42c-.8,2.45-.85,5.02-1.49,7.5-.23.89,1.15,1.27,1.38.38.64-2.48.7-5.05,1.49-7.5.29-.88-1.09-1.25-1.38-.38h0Z"/><path class="cls-1" d="m301.94,479.36c.19-2.5,1.12-4.84,1.47-7.31.13-.9-1.25-1.29-1.38-.38-.36,2.6-1.32,5.06-1.52,7.69-.07.92,1.36.91,1.43,0h0Z"/><path class="cls-1" d="m272.6,318.25c.26-3.98-.18-7.98-.41-11.94-.15-2.58-.29-16.1,4.86-8.75,3.92,5.58,3.21,13.55,7.08,18.95,1.19,1.66,9.08-2.26,10.53-2.69,2.16-.64,16.77-4.49,10.51,2.44-3.63,4.02-9.47,6.72-14.28,9.09-.29.14-.43.61-.23.88,3.97,5.29,8.74,9.87,12.11,15.62,1.88,3.21-.24,6.04-3.74,4.49-2-.89-3.83-2.24-5.61-3.49-4.1-2.87-7.9-6.28-11.45-9.8-.28-.27-.83-.25-1.01.13-1.54,3.23-3.11,6.44-4.83,9.59-.88,1.63-1.86,3.19-2.86,4.74-.88,1.35-1.86,2.62-2.93,3.81-1.42,1.98-3.33,1.78-5.74-.6-.69-6.91,3.1-14.98,5.26-21.42.12-.36-.14-.67-.45-.79-2.44-.96-5.05-1.46-7.6-2.06-1.65-.39-3.29-.81-4.93-1.25-1.01-.27-9.87-3.06-3.9-5.17,5.77-2.04,12.95-1.16,18.98-1.13.83,0,.83-1.29,0-1.29-4.34-.02-22.01-2.23-22.83,4.43-.32,2.65,5.97,3.98,7.4,4.41,3.11.93,6.32,1.56,9.47,2.34,3.75.93,1.56,3.27.56,6.34-.93,2.86-7.68,22.18,1.41,19.6,4.23-1.2,7.37-7.95,9.28-11.3,1.59-2.8,2.98-5.71,4.37-8.62-.13.28,7.37,6.25,8.07,6.82,1.29,1.04,18.16,12.49,15.58,3.01-1.3-4.78-4.9-8.77-8-12.5-.39-.47-5.35-5.85-4.52-6.26,3.74-1.85,7.32-4.01,10.7-6.46,7.27-5.26,5.25-9.81-3.16-8.32-5.1.9-10.13,2.68-14.99,4.44-.66.24-4.63-13.23-5.23-14.78-.55-1.4-5.16-10.42-7.96-6.31-4.09,5.99-.36,16.99-.8,23.81-.05.83,1.24.83,1.29,0h0Z"/><path class="cls-1" d="m275.52,303.16c1.01,6.57,2.68,14.18,3.72,20.5"/><path class="cls-1" d="m259.77,322.11c6.14.77,12.51,2.01,17.8,3.04"/><path class="cls-1" d="m298.92,316.03c-5.88,2.23-12.24,5.36-17.83,8.59"/><path class="cls-1" d="m277.18,328.54c-3.49,4.74-6.38,10.18-8.87,18.92"/><path class="cls-1" d="m282.73,327.68c5.67,4.02,10.98,8.89,16.04,13.83"/><path class="cls-1" d="m69.03,516.98c6.27-3.7,12.78-12.77,20.99-9.07,5.69,2.57,8.41,8.33,15.05,8.8,3.38.24,6.57-3.08,8.85-5.07,7.5-6.55,14.38-8.79,21.97-1.62,4.29,4.05,10.11,10.81,16.81,7.54,7.98-3.89,13.84-14.2,22.95-6.12,3.89,3.45,7.31,6.57,12.14,8.69.95.42,1.4-1.13.47-1.54-9.78-4.3-14.77-16.63-26.2-9.92-8.24,4.84-12.49,11.69-21.46,3.68-3.07-2.75-6-6.82-10.02-8.29-3.97-1.45-7.07-.36-10.81,1.37-9.43,4.35-12.32,14.55-23.79,4.94-12.14-10.17-16.44-1.45-27.73,5.2-.89.53-.12,1.94.78,1.41h0Z"/><path class="cls-1" d="m68.71,530.18c6.27-3.7,12.78-12.78,20.99-9.07,5.69,2.57,8.41,8.33,15.05,8.8,3.38.24,6.57-3.08,8.85-5.07,7.5-6.55,14.38-8.79,21.97-1.62,4.29,4.05,10.11,10.81,16.81,7.54,7.98-3.89,13.84-14.2,22.95-6.12,3.89,3.45,7.31,6.57,12.14,8.69.95.42,1.4-1.13.47-1.54-9.78-4.3-14.77-16.63-26.2-9.92-8.24,4.84-12.49,11.69-21.46,3.68-3.07-2.74-6-6.82-10.02-8.29-3.97-1.45-7.07-.36-10.81,1.37-9.43,4.35-12.32,14.54-23.79,4.94-12.15-10.17-16.43-1.46-27.73,5.2-.89.53-.12,1.94.78,1.41h0Z"/><path class="cls-1" d="m68.39,543.38c5.67-3.34,11.9-11.57,19.07-9.93,6.73,1.53,9.69,9.15,16.97,9.67,3.38.24,6.57-3.08,8.85-5.07,7.5-6.55,14.38-8.79,21.97-1.62,4.29,4.05,10.11,10.81,16.81,7.55,7.98-3.89,13.84-14.21,22.95-6.12,3.89,3.45,7.31,6.57,12.14,8.69.95.42,1.4-1.13.47-1.54-9.78-4.3-14.77-16.63-26.2-9.92-8.24,4.84-12.49,11.69-21.46,3.68-3.07-2.74-6-6.82-10.02-8.29-3.97-1.45-7.07-.36-10.81,1.37-9.43,4.35-12.32,14.55-23.79,4.93-12.09-10.13-16.5-1.41-27.73,5.21-.89.53-.12,1.94.78,1.41h0Z"/><path class="cls-1" d="m129.39,527.23c7.63.76,9.94,9.71,16.97,10.52,7.89.91,11.59-8,19.28-7.43,1.04.08,1.07-1.54.04-1.61-8.14-.6-13.36,10.56-21.37,6.56-5.95-2.97-7.52-8.91-14.88-9.64-1.04-.1-1.07,1.51-.04,1.61h0Z"/><path class="cls-1" d="m87.11,514.62c7.04,1.25,10.79,8.62,18.14,8.7,2.38.03,4.94-1.65,6.69-3.06,4.86-3.91,8.58-6.87,15.26-6.29,1.04.09,1.07-1.52.04-1.61-6.45-.56-10.36,1.67-15.15,5.72-10.18,8.6-15.08-3.33-24.51-5-1.01-.18-1.49,1.36-.47,1.54h0Z"/><path class="cls-1" d="m167.41,515.94c4.29-1.96,7.33,3.96,11.37,4.76,1.01.2,1.48-1.34.47-1.54-4.85-.96-7.12-7.14-12.62-4.63-.95.43-.16,1.84.78,1.41h0Z"/><path class="cls-1" d="m85.04,525.64c-2.53-.36-4.71,0-6.75,1.58-2.24,1.73-3.47,4.32-6.24,5.39-.95.37-.58,1.94.39,1.56,2.09-.81,3.55-2.16,5.02-3.82,2.16-2.44,4.17-3.6,7.55-3.11,1.03.15,1.05-1.46.04-1.61h0Z"/><path class="cls-1" d="m69.26,361.66c-5.11,3.54-10.15,7.35-15.5,10.54-.72.43,0,1.51.7,1.08,5.35-3.18,10.38-6.99,15.5-10.54.68-.47-.02-1.56-.7-1.08h0Z"/><path class="cls-1" d="m63,360.02c-3.59,2.4-7.17,4.81-10.76,7.21-.69.46.01,1.55.7,1.08,3.59-2.4,7.17-4.81,10.76-7.21.69-.46-.01-1.55-.7-1.08h0Z"/><path class="cls-1" d="m71.96,365.66c-4.51,3.68-9.32,6.9-14.15,10.14-.69.46.01,1.55.7,1.08,4.83-3.24,9.64-6.47,14.15-10.14.64-.52-.06-1.61-.7-1.08h0Z"/><path class="cls-1" d="m103.46,368.52c-5.11,3.54-10.15,7.35-15.5,10.53-.72.43,0,1.51.7,1.08,5.35-3.18,10.38-6.99,15.5-10.53.68-.47-.02-1.56-.7-1.08h0Z"/><path class="cls-1" d="m97.2,366.88c-3.59,2.4-7.17,4.81-10.76,7.21-.69.46.01,1.55.7,1.08,3.59-2.4,7.18-4.81,10.76-7.21.69-.46-.01-1.55-.7-1.08h0Z"/><path class="cls-1" d="m106.16,372.51c-4.51,3.68-9.32,6.91-14.15,10.14-.69.46.01,1.55.7,1.08,4.83-3.24,9.64-6.47,14.15-10.14.64-.52-.06-1.61-.7-1.08h0Z"/><path class="cls-1" d="m50.24,355.24c-2.8,7.32-4.48,18.53,3.38,23.56,6.31,4.04,15.35,3.74,19.83-2.8,1.45-2.12,6.77-14.73,2.75-16.07-8.11-2.71-16.82-5.08-25.42-5.04-.83,0-.77,1.29.06,1.29,6.51-.03,12.95,1.52,19.19,3.23,1.86.51,3.7,1.07,5.53,1.66,1.36.44.12,5.25-.16,6.57-1.78,8.42-7.44,13.98-16.49,12.18-11.44-2.28-10.72-15.64-7.54-23.98.29-.77-.85-1.37-1.15-.6h0Z"/><path class="cls-1" d="m53.26,359.04c-2.06,5.36-3.2,13.43,2.54,17.09,4.63,2.95,11.25,2.72,14.54-2.06,1.12-1.63,4.96-10.71,1.85-11.74-5.87-1.95-12.17-3.65-18.39-3.64-.83,0-.77,1.29.06,1.29,4.68-.01,9.31,1.1,13.8,2.33,1.34.37,2.67.77,3.99,1.2.77.25-.05,3.54-.24,4.47-1.26,5.96-5.27,9.81-11.66,8.54-8.07-1.61-7.62-10.98-5.35-16.89.29-.77-.85-1.37-1.15-.6h0Z"/><path class="cls-1" d="m110.42,367.65c-.29,8.91-3.74,18.84-14.11,19.4-4.67.25-8.98-2.52-11.62-6.15-2.11-2.9-1.52-7.78-1.09-11.06.14-1.12,1.17-6.75,2.28-6.67,2.14.16,4.27.4,6.4.67,6.26.78,12.65,1.89,18.49,4.35.76.32,1.36-.82.6-1.15-7.7-3.25-16.32-4.4-24.6-5.09-5.39-.45-4.96,12.13-4.56,15.53.94,7.95,9.98,11.67,17.04,10.55,9.32-1.47,12.2-12.55,12.47-20.45.03-.83-1.26-.76-1.29.06h0Z"/><path class="cls-1" d="m106.17,369.99c-.2,6.31-2.64,13.28-9.97,13.65-7.29.37-9.78-6.14-9.01-12.1.1-.74.85-4.67,1.47-4.62,1.53.11,3.05.29,4.57.48,4.5.56,9.1,1.36,13.29,3.12.76.32,1.36-.82.6-1.15-5.59-2.35-11.83-3.18-17.84-3.69-4.03-.34-3.74,8.79-3.44,11.29.7,5.81,7.32,8.54,12.49,7.73,6.8-1.06,8.95-9,9.13-14.79.03-.83-1.26-.76-1.29.06h0Z"/><path class="cls-1" d="m76.79,365.54c2.25-.16,4.43.28,6.41,1.39.73.41,1.32-.74.6-1.15-2.16-1.21-4.6-1.71-7.06-1.53-.83.06-.77,1.35.06,1.29h0Z"/><path class="cls-1" d="m76.15,368.7c2.25-.16,4.43.28,6.4,1.39.73.41,1.32-.74.6-1.15-2.16-1.21-4.6-1.71-7.06-1.53-.83.06-.77,1.35.06,1.29h0Z"/><path class="cls-5" d="m50.87,355.49c7.76-5.01,18.61-12.2,26.81-16.15,4.37-2.08,9.13-1.95,8.1,3.93-.35,1.74-1.66,5.09-2.96,2.86-1.27-2.16,1.19-5.51-3.21-3.27-5.59,2.84-17.46,9.37-22.78,12.91"/><path class="cls-5" d="m111.04,367.55c9.05-6.88,11.65-9.97,20.1-15.52,4.05-2.66,9.12-1.95,8.1,3.92-.35,1.74-1.66,5.09-2.96,2.86-1.27-2.17,1.19-5.51-3.21-3.27-5.59,2.84-16.93,12.86-22.26,16.39"/><path class="cls-1" d="m320.51,403.98c-2.27.15-3.91,1.47-4.21,3.76-.27,2.05,1.08,3.99,2.97,4.65,2.44.85,5.35-.74,5.68-3.33.37-2.94-1.56-4.99-4.44-5.08-.83-.03-.83,1.26,0,1.29,2.24.07,3.59,1.69,3.11,3.94-.42,1.97-2.96,2.54-4.55,1.7-1.13-.6-1.56-1.96-1.48-3.16.11-1.56,1.51-2.38,2.92-2.47.83-.06.83-1.35,0-1.29h0Z"/><path class="cls-1" d="m328.01,397.4c-1.88.13-3.46,1.23-3.71,3.19-.23,1.75.67,3.69,2.4,4.31,2.25.8,4.73-.39,5.23-2.76.56-2.66-1.37-4.64-3.92-4.73-.83-.03-.83,1.26,0,1.29,1.92.06,3.01,1.48,2.62,3.38-.35,1.67-2.47,2.18-3.83,1.45-.97-.52-1.31-1.7-1.24-2.72.09-1.31,1.25-2.02,2.45-2.1.83-.06.83-1.35,0-1.29h0Z"/><path class="cls-1" d="m330.31,406.96c-1.73.12-3.17,1.14-3.41,2.93-.21,1.6.63,3.37,2.21,3.94,2.05.73,4.33-.37,4.79-2.53.51-2.43-1.25-4.26-3.59-4.34-.83-.03-.83,1.26,0,1.29,1.68.06,2.64,1.29,2.29,2.96-.31,1.46-2.16,1.9-3.35,1.27-.85-.46-1.15-1.5-1.08-2.39.08-1.14,1.1-1.76,2.14-1.83.83-.06.83-1.35,0-1.29h0Z"/><path class="cls-3" d="m1315.42,135.41c-2.02-.42-2.82-1.98-3.31-3.78-.15-.53-.12-1.1-.22-1.64-.15-.8-.63-1.2-1.42-1.24-.14,0-.28.03-.41.03-1.92.02-3.86.18-5.85-.79-.02.68-.13,1.16-.04,1.59.75,3.25,1.09,6.53,1.29,9.85.09,1.43.49,2.85.75,4.27.51.32.98.6,1.42.88.03.26.1.47.07.66-.37,1.91-1,3.73-1.82,5.49-.21.44-.43.87-.64,1.3q-1.24,2.58-3.34,4.27c-.52.42-1.06.61-1.73.38-.73-.25-1.24-.71-1.19-1.5.07-1.17.1-2.37.43-3.47.69-2.32,1.58-4.58,3.41-6.31.45-.42.51-.93.45-1.51-.45-4.26-.76-8.54-1.34-12.78-.4-2.89-.37-5.78-.56-8.68-.04-.6-.17-1.23-.41-1.78-.32-.73-.25-1.33.26-1.91.32-.36.62-.74.92-1.09,1.17.27,1.5,1.04,1.8,1.93.54,1.63,1.15,3.23,1.75,4.84.12.32.31.6.52,1.02,1.23.03,2.46.07,3.69.1.55.02,1.11,0,1.66.07,1.59.18,2.72,1,3.2,2.55.34,1.12.6,2.27.8,3.42.13.74.11,1.46.47,2.19.27.53.13,1.24-.58,1.66Z"/><path class="cls-3" d="m59.88,446.7c-2.11.3-3.43-.92-4.55-2.5-.33-.46-.5-1.02-.8-1.51-.43-.72-1.04-.94-1.82-.7-.14.04-.26.12-.39.17-1.86.7-3.69,1.54-5.96,1.3.22.67.28,1.17.53,1.55,1.88,2.88,3.37,5.96,4.74,9.11.59,1.36,1.49,2.59,2.24,3.87.61.13,1.16.24,1.69.35.12.24.27.42.3.62.31,1.98.35,3.98.17,5.97-.05.5-.11.99-.16,1.49q-.29,2.94-1.74,5.33c-.35.59-.82.96-1.54.98-.8.02-1.45-.26-1.68-1.03-.34-1.16-.74-2.33-.81-3.52-.16-2.5-.08-5.01,1.08-7.33.29-.57.17-1.08-.1-1.63-1.94-3.98-3.76-8.02-5.82-11.93-1.41-2.66-2.4-5.48-3.61-8.22-.25-.57-.6-1.14-1.03-1.58-.57-.6-.71-1.2-.42-1.94.18-.46.34-.94.51-1.39,1.23-.15,1.83.48,2.43,1.23,1.1,1.39,2.26,2.73,3.41,4.08.22.27.51.48.86.8,1.21-.4,2.41-.81,3.62-1.21.54-.18,1.08-.39,1.63-.52,1.61-.39,3,0,4,1.34.73.96,1.39,1.99,1.98,3.03.38.67.62,1.38,1.23,1.95.45.42.57,1.15.02,1.81Z"/><path class="cls-3" d="m1321.92,532.42c.93-4.54,1.69-8.61,2.6-12.64.91-4.02,1.98-8.01,3.01-12.12-1.55-.53-3.05-.86-4.36-1.56-1.2-.64-2.09-1.84-3.27-2.52-3.77-2.15-7-4.95-10.08-7.96-.26-.26-.7-.33-1.33-.61-.57,1.85-.26,3.62-.26,5.35,0,1.8.09,3.6.08,5.4,0,1.66-.11,3.32-.12,4.98-.02,1.8.08,3.61.02,5.4-.05,1.78-.23,3.55-.35,5.26-2.65,1.17-5.04,2.23-7.43,3.28-1.43.62-2.92.86-4.47.64-3.16-.46-4.69-3.41-3.16-6.17.4-.72.95-1.37,1.4-2.06,1.03-1.56,2.55-2.16,4.31-1.95,1.75.21,3.48.67,5.28,1.03.88-.44.67-1.36.67-2.13.02-5.4-.03-10.81.02-16.21.03-2.63.17-5.26.39-7.88.14-1.67.51-3.26-.77-4.73-.29-.34-.17-1.45.18-1.82.37-.4,1.25-.5,1.86-.42.64.09,1.31.46,1.82.89,2.31,1.97,4.6,3.97,6.85,6.02,3.69,3.37,7.65,6.41,11.87,9.07,1.58,1,3.55,1.37,5.74,2.17.95,1.59.65,3.58,0,5.59-2.41,7.38-4.52,14.81-4.67,22.68-.05,2.47-.59,4.93-.91,7.4-.18,1.39-1.01,2.36-2.31,2.64-3.28.71-6.62.71-9.89-.01-2.33-.52-3.57-3.41-2.71-5.67,1.13-2.97,3.77-4.13,6.7-2.89,1,.43,1.98.92,3.3,1.54Z"/><path class="cls-3" d="m231.42,69.13c.64-3.13,1.16-5.93,1.79-8.71.63-2.77,1.37-5.52,2.07-8.35-1.07-.37-2.1-.59-3-1.07-.83-.44-1.44-1.27-2.25-1.74-2.6-1.48-4.83-3.41-6.95-5.48-.18-.18-.48-.23-.92-.42-.39,1.28-.18,2.49-.18,3.69,0,1.24.06,2.48.05,3.72,0,1.15-.07,2.29-.08,3.43-.01,1.24.05,2.48.01,3.72-.04,1.22-.16,2.45-.24,3.63-1.83.81-3.47,1.54-5.12,2.26-.98.43-2.01.59-3.08.44-2.18-.31-3.23-2.35-2.18-4.25.28-.5.65-.94.97-1.42.71-1.08,1.76-1.49,2.97-1.34,1.21.14,2.4.46,3.64.71.61-.3.46-.94.46-1.47.02-3.72-.02-7.45.02-11.17.02-1.81.12-3.63.27-5.43.1-1.15.35-2.25-.53-3.26-.2-.23-.12-1,.12-1.26.25-.27.86-.35,1.29-.29.44.06.91.32,1.25.61,1.59,1.36,3.17,2.74,4.72,4.15,2.54,2.32,5.27,4.42,8.18,6.25,1.09.69,2.45.94,3.96,1.5.65,1.09.45,2.47,0,3.85-1.66,5.09-3.12,10.21-3.22,15.63-.03,1.7-.41,3.4-.63,5.1-.13.96-.7,1.63-1.59,1.82-2.26.49-4.57.49-6.81,0-1.61-.36-2.46-2.35-1.87-3.91.78-2.05,2.6-2.84,4.62-1.99.69.29,1.36.64,2.27,1.06Z"/><path class="cls-2" d="m258.29,419.7c-1.15-2.51-2.61-4.83-4.15-7.12-1.79-2.66-3.35-5.48-5.13-8.16-1.68-2.52-3.3-5.07-4.56-7.83-.88-1.91-1.91-3.75-2.89-5.62-1.67-3.16-3.56-6.21-4.92-9.54-.55-1.35-1.4-2.58-2.15-3.83-.76-1.26-1.5-2.54-2.37-3.71-2.48-3.32-4.53-3.84-7.52-2.53-.08.04-.17.06-.26.1-5.32,2.5-10.82,4.61-15.94,7.54-.47.27-.98.45-1.44.65-.33-.19-.62-.28-.8-.47-1.24-1.35-2.52-2.67-3.67-4.09-1.16-1.42-2.58-1.99-4.36-1.75-1,.13-2.02.17-3,.39-4.94,1.13-9.7,2.77-14.28,4.93-.83.39-1.65.83-2.51,1.14-3.6,1.32-6.55,3.68-9.46,6.05-.73.6-1.37,1.6-1.54,2.52-.62,3.27-.87,6.57.56,9.74.45,1,.89,2,1.34,2.99-.73,1.32-1.76,1.58-2.66,2.01-3.57,1.69-7.07,3.51-10.3,5.81-1.26.9-2.71,1.54-3.97,2.45-1.37.99-2.47,2.26-2.11,4.15.31,1.61.51,3.29,1.14,4.79,1.74,4.15,3.56,8.27,5.58,12.29,2.1,4.18,4.63,8.14,6.7,12.33,2.65,5.36,5.72,10.47,8.83,15.56.62,1.02,1.4,1.93,2.13,2.87.85,1.09,1.87,1.56,3.36,1.32,1.28-.21,2.5-.44,3.68-.99,2.58-1.2,5.21-2.29,7.8-3.48,5.17-2.37,10.48-4.48,15.24-7.66.84-.56,1.7-1.09,2.54-1.65,4.36-2.89,8.72-5.78,13.07-8.67,1.14-.76,2.24-1.62,3.42-2.3,2.3-1.33,4.71-2.49,6.98-3.87,6.37-3.89,13.19-6.85,20.01-9.8,2.11-.91,4.2-1.85,6.3-2.77.85-.37,1.64-.81,2.12-1.91-.25-.56-.54-1.22-.84-1.88Zm-17.17-18.9c.74,1.42.67,2.82.07,4.25-.14.34-.27.69-.41,1.02-1.91,4.45-3.59,6-8.19,7.45-.6.19-1.26.3-1.89.27-5.45-.31-9.65-2.83-12.36-7.53-1.36-2.35-1.28-5.1-1.3-7.78-.02-2.28,1.08-4.16,1.91-6.13.25-.6.95-1.12,1.57-1.45,3.66-1.91,7.51-2.31,11.47-1.15.94.28,1.84.83,2.65,1.41,2.52,1.81,4.45,4.1,5.14,6.67.58,1.31.92,2.17,1.34,2.98Zm-28.6-21.53c4.03-1.98,8.14-3.79,12.26-5.56,2.95-1.27,4.21-.83,5.9,2.01,1.45,2.43,2.81,4.94,4.09,7.47,1.36,2.69,2.58,5.44,3.86,8.14-.45.39-.74.06-1.02-.12-.38-.25-.74-.54-1.08-.85-4.07-3.58-8.66-3.99-13.59-2.2-.94.34-1.86.78-2.76,1.23-.82.41-1.6.88-2.09,1.72-.23.38-.53.85-.91.99-1.44.56-1.71,1.79-1.97,3.06-.2.97-.41,1.94-.61,2.9-.31-.07-.57-.06-.62-.16-2.7-4.79-5.09-9.72-7.44-14.92,1.82-1.8,3.95-2.73,5.98-3.72Zm-43.73,15.52c-.1-.25-.2-.55-.16-.8.33-1.79.65-3.59,1.1-5.35.15-.57.63-1.12,1.1-1.52,2.37-2.03,4.83-3.93,7.79-5.08.94-.36,1.88-.75,2.77-1.22,4.01-2.1,8.36-3.25,12.66-4.52,1.48-.44,3.06-.59,4.6-.72.58-.05,1.36.16,1.75.55,1.3,1.28,2.47,2.69,3.67,4.07.16.19.17.51.27.85-.82,1.05-2.04,1.43-3.25,2.02-2.09-1.13-3.48-3.28-6.01-4-6.66,2.97-13.42,6-20.31,9.07-.88,3.26-1.07,6.41,1.35,9.43q-2.22,2.8-5.28,2.47c-.66-1.69-1.36-3.47-2.05-5.26Zm29.88-10.31c-.54.44-1.04.98-1.65,1.33-5.92,3.48-11.87,6.93-17.81,10.39-.14.08-.34.04-.68.07-.58-1.13-1.15-2.32-2.02-3.39-.98-1.19-.23-3.25,1.21-3.95,1.32-.64,2.69-1.18,4.02-1.79,3.59-1.62,7.18-3.26,10.77-4.88.83-.37,1.7-.65,2.46-.93q2.28,1.25,3.69,3.14Zm-40.31,44.95c-2.44-5.11-5.12-10.13-5.62-16.06,1.55-1.03,3.21-1.98,4.71-3.14,3.55-2.74,7.71-4.2,11.83-5.72,1.07-.4,2.26-.51,3.44-.76,1.35,2.46,2.65,4.97,4.09,7.4,1.39,2.35,2.94,4.61,4.4,6.88-.59.61-.92.12-1.27-.04-2.75-1.26-5.57-1.78-8.55-.92-.18.05-.36.09-.53.15-1.81.56-3.08,1.94-4.61,2.91-1.56.99-3.17,1.81-4.08,3.52-.13.24-.29.48-.48.67-1.58,1.55-2.34,3.46-2.47,5.61-.55.2-.7-.18-.84-.49Zm4.05,4.33c-1.06-2.05-.77-4.3-.67-6.48.02-.48.45-1,.81-1.39,1.37-1.48,2.78-2.92,4.18-4.36.25-.26.54-.49.82-.72,4.58-3.73,11.15-3.7,15.3,2.3.42.6.78,1.24,1.12,1.9.33.65.6,1.33.91,2,1.14,2.35,1.65,4.83,1.57,7.46-.08,2.92-1.39,5.27-3.27,7.38-.3.33-.69.62-1.1.79-4.1,1.7-8.08,1.94-12.13-.41-3.49-2.03-5.77-5-7.55-8.46Zm36.23,19.23c-5.9,2.75-11.84,5.43-17.77,8.15-1.29.6-2.63.69-4.1.49-4.17-6.02-8.14-12.17-11.02-18.96.63-.27,1.03.2,1.47.46.79.47,1.54,1,2.34,1.44,3.95,2.19,8.06,2.28,12.23.74,3.72-1.37,5.58-4.38,6.46-8,.52-2.13.61-4.36-.02-6.55-.12-.4-.09-.85-.2-1.91,2.66,4.04,4.88,7.58,7.26,11.02,2.4,3.46,4.95,6.82,7.52,10.34-1.14,1.17-2.63,2.06-4.17,2.78Zm22.3-14.42c-2.27,1.37-4.34,3.07-6.54,4.56-2.2,1.49-4.44,2.93-6.69,4.35-.76.48-1.59.86-2.31,1.24-1.28-.67-1.99-1.64-2.7-2.59-1.25-1.69-2.48-3.41-3.68-5.14-2.29-3.32-4.57-6.65-6.82-10-3.06-4.57-6.07-9.18-9.13-13.76-1.68-2.51-3.44-4.98-5.12-7.49-1.53-2.28-2.77-4.73-3.81-7.06.27-1.06.94-1.38,1.61-1.68,1.69-.74,3.21-1.71,4.72-2.79,2.16-1.54,4.51-2.83,6.8-4.18,5.53-3.27,11.07-6.52,16.61-9.77.23-.13.51-.18.91-.32.28.42.64.83.85,1.29.79,1.76,1.58,3.52,2.29,5.31,1.35,3.43,3.16,6.62,4.85,9.88,1.81,3.5,3.4,7.12,5.03,10.71,2.98,6.61,5.92,13.24,8.88,19.86.2.44.4.88.65,1.29.04.72.31,1.51.83,2.02-2.43,1.39-4.84,2.8-7.23,4.24Zm31.06-15.91c-5.96,2.84-12.18,5.14-17.96,8.36-1.29.72-2.57,1.45-3.85,2.18-.12-.19-.25-.36-.38-.51-.03-.21-.08-.41-.13-.61,0-.03.01-.06.01-.1,0-.44-.17-.9-.36-1.3-1.28-2.74-2.59-5.47-3.87-8.22-1.01-2.16-2.01-4.33-2.99-6.5-.29-.64-.59-1.29-.73-2.27.57.15.92.17,1.19.33,1.79,1.01,3.75,1.52,5.73,1.9,1.15.22,2.43.39,3.53.1,5.59-1.45,9.82-4.45,11.24-10.44.21-.89.47-1.77.72-2.65.02-.08.1-.15.18-.25.63-.13.7.46.9.79,1.5,2.42,2.95,4.87,4.45,7.28,1.02,1.64,2.12,3.22,3.16,4.84,1.03,1.62,1.9,3.32,2.59,5.18-1.09.94-2.29,1.35-3.43,1.9Z"/><path class="cls-2" d="m212.99,410.74c-.43.1-.99.15-1.47.36-3.11,1.35-6.25,2.61-9.07,4.56-2.11,1.45-4.35,2.71-6.49,4.12-1.45.95-2.84,2.01-4.24,3.04-.21.15-.35.39-.7.78,1.09.12,1.69.19,2.37.27,1.19,1.89,2.26,3.92,3.64,5.72,2.64,3.42,4.52,7.3,6.96,10.83,1,1.45,1.81,1.76,3.12.64,1.22-1.04,2.61-1.67,4.03-2.31,2.76-1.24,5.52-2.47,8.28-3.71.59-.26,1.19-.5,1.74-.81,1.06-.59,1.42-1.32,1.15-2.51-.18-.79-.52-1.56-.84-2.32-.85-2.02-2.06-3.96-2.53-6.06-.82-3.64-2.55-6.86-4-10.21-.4-.92-.86-1.83-1.96-2.38Zm3.78,10.56c.42,2.56,1.41,4.92,2.48,7.25.49,1.07,1.11,2.11,1.19,3.47-.41.28-.8.66-1.27.87-3.08,1.41-6.19,2.77-9.27,4.18-1.32.61-2.59,1.31-4.17,2.11-2.35-3.62-4.67-7.21-7.06-10.9.53-.83,1.56-1.03,2.41-1.48,2.43-1.29,4.91-2.46,7.28-3.84,2.39-1.38,4.93-2.36,7.61-3.5.32.71.7,1.25.79,1.83Zm-1.76-3.97c-1.29.65-2.47,1.36-3.73,1.87-2.14.87-4.06,2.09-5.99,3.32-2.41,1.53-5.06,2.54-7.87,3.7-1.06-1.19-2.29-1.88-2.98-3.35.94-.62,1.83-1.24,2.75-1.81,2.18-1.35,4.4-2.63,6.55-4.03,2.71-1.77,5.65-3.01,8.65-4.16.15-.06.35.03.75.07.66,1.34,1.43,2.76,1.88,4.4Z"/><path class="cls-2" d="m188.51,408.72c2.09-.93,4.22-1.85,6.11-3.11,1.54-1.03,3.12-1.89,4.79-2.64,1.5-.68,3.02-1.32,4.51-2.02.55-.26,1.05-.65,1.6-1-.36-1.75-.9-3.25-2.36-4.76-3.72,1.64-7.39,3.04-10.75,5.12-1.24.77-2.51,1.49-3.8,2.16-1.22.63-2.49,1.15-3.74,1.73-.75.34-1.49.69-1.85,1.59.26.43.51.89.8,1.33,1.17,1.74,2.88,2.4,4.68,1.6Zm-1.87-3.38c.64-.29,1.32-.55,1.96-.88,1.7-.89,3.46-1.71,5.07-2.75,2.57-1.65,5.42-2.68,8.18-3.9.77-.34,1.21.08,1.37,1.22-1.25.6-2.38,1.21-3.55,1.68-2.23.9-4.32,2.01-6.22,3.47-1.64,1.25-3.6,1.79-5.47,2.52-.73.28-.92.06-1.34-1.35Z"/><path class="cls-2" d="m247.2,415.61c-1.26.51-2.5,1.08-3.74,1.65-2.5,1.15-3,2.04-1.62,4.97.15.32.38.62.6.91.49.66,1.18.88,1.93.61.94-.35,1.83-.8,2.74-1.21.01.03.03.06.04.09.97-.49,1.97-.94,2.91-1.49.74-.43.93-1.07.6-1.88-.42-1.01-.88-2-1.39-2.96-.45-.85-1.15-1.08-2.08-.7Zm-3.38,6.16c-.4-.78-.67-1.33-.92-1.81.13-.27.17-.49.29-.57,1.35-.93,2.88-1.4,4.52-2.05.39.77.69,1.36,1.01,2.01-1.42,1.27-3.07,1.7-4.91,2.42Z"/><path class="cls-2" d="m234.94,421.21c-1.49,1.03-2.92,2.13-4.45,3.26-.2,1.16.33,2.24.79,3.31.47,1.1,1.1,1.41,2.17.91,1.43-.65,2.89-1.04,4.43-1.28.57-.09,1.09-.54,1.7-.86-.16-1.09-.27-2.07-.45-3.05-.08-.44-.27-.87-.46-1.28-.84-1.8-2.09-2.16-3.74-1.01Zm2.58,4.04c-1.58.48-2.79.85-4.01,1.2-.6.17-.64.13-1.46-.99,1.28-.97,2.55-1.95,3.84-2.9.47-.34,1.2-.12,1.33.44.16.69.19,1.4.29,2.24Z"/><path class="cls-2" d="m202.81,405.62c-.36.51-.64,1.09-.95,1.62.08.32.1.6.22.84,1.05,2.1,2.07,2.48,4.18,1.55.49-.22.94-.52,1.61-.89-.38-1.43-.71-2.56-1.6-3.42-1.19-1.15-2.5-1.04-3.46.31Z"/><path class="cls-2" d="m190.57,411.69c.86,1.91,1.63,3.64,2.41,5.4,1.25-.35,1.62-1.34,2.28-2.24-.43-.97-.82-2-1.34-2.96-.77-1.44-1.69-1.48-3.36-.2Z"/><path class="cls-2" d="m198.6,412.09c.75.61,1.27.44,2.19-.59q-1.02-3.16-2.63-4.71c-.84.2-1.7.41-2.35,1.65.85.69,1.55,1.35,1.78,2.41.1.47.59.91,1,1.25Z"/><path class="cls-2" d="m193.41,444.55c-.48.25-.95.55-1.4.86-1.42.99-2.82,1.99-4.32,3.05.07,1.35.53,2.61,1.28,3.78.33.51.85.76,1.42.53,2.37-.94,4.72-1.92,7.02-3.16-.16-1.24-.22-2.34-.46-3.39-.51-2.23-1.57-2.71-3.54-1.67Zm1.8,3.74c-1.34,1.09-2.83,1.57-4.25,2.15-.72.29-.86.14-1.48-1.35,2.01-.75,3.23-2.61,5.54-2.89.07.79.14,1.46.19,2.1Z"/><path class="cls-2" d="m182.22,450.78c-.96.91-2.1,1.42-3.27,1.95-2.75,1.26-2.97,1.82-1.81,4.62.14.34.27.68.44,1,.57,1.06,1.13,1.33,2.24.86,1.85-.78,3.66-1.64,5.47-2.51.38-.18.67-.56,1.12-.95-.67-1.54-1.26-3.07-2-4.52-.54-1.08-1.35-1.25-2.2-.45Zm1.97,4.27c-1.61.94-3.13,1.66-4.9,2.12-.42-.6-.82-1.18-1.23-1.77.25-.3.38-.58.59-.68,1.39-.65,2.81-1.27,4.26-1.92.85.33.98,1.16,1.28,2.25Z"/><path class="cls-2" d="m215.48,388.09c1.28.05,2.58.16,3.72-.61,1.67-.51,2.87-1.6,3.83-3,.42-.62.69-1.3.48-2.08-.42-1.49-2.47-2.61-3.9-2.05-1.36.53-2.71,1.14-4.01,1.8-1.74.88-2.45,2.85-1.74,4.68.29.75.82,1.21,1.64,1.25Zm-.31-3.57c1.74-.79,3.48-1.56,5.27-2.24.25-.1.71.35,1.17.6-1.29,2.38-3.1,3.46-5.63,3.33-.25-.01-.52-.13-.74-.26-.4-.22-.48-1.25-.07-1.43Z"/><path class="cls-2" d="m163.3,418.05c1.85-.79,3.69-1.63,5.5-2.52.69-.34,1.17-1.08,1-1.82-.35-1.5-.78-3.02-2.23-3.99-2.46.47-4.26,2.07-6.09,3.57-.85.7-.91,1.79-.91,2.76,0,1.12,1.52,2.51,2.74,1.99Zm-.97-3.49c1.44-1.19,2.8-2.59,5.03-2.95.3.6.55.98.69,1.4.16.46.06.96-.38,1.19-1.67.87-3.27,1.92-5.15,2.11-.67-.61-.71-1.33-.19-1.75Z"/><path class="cls-2" d="m173.45,421.67c-1.23.61-2.53,1.1-3.73,1.76-1.91,1.05-2.65,2.93-3.19,4.9-.07.24,0,.56.1.81.74,2.06,1.5,4.12,2.39,6.55.17.39.47,1.16.85,1.89.57,1.09,1.4,1.96,2.6,2.31,1.32.38,2.67.66,4.02.91.42.08.92-.04,1.33-.21.85-.35,1.77-.65,2.46-1.22,3.2-2.67,4.62-3.98,3.29-7.84-.06-.17-.08-.36-.11-.54-.65-4.39-3.34-7.21-7.11-9.16-.9-.47-1.88-.67-2.9-.16Zm7.6,8.08c.14.53.32,1.05.42,1.59.74,4.01.55,3.37-2.09,5.87-1.5,1.42-4.96,1.46-6.68.23-.36-.26-.68-.63-.89-1.02-.43-.81-.76-1.66-1.28-2.82-1.35-1.85-1.17-4.38-1.44-6.83-.09-.86.29-1.45.98-1.79,1.16-.55,2.33-1.08,3.55-1.48.9-.29,1.81,0,2.62.49,2.28,1.35,4.09,3.09,4.8,5.75Z"/><path class="cls-2" d="m237.3,400.48c-.34-.75-.61-1.55-1.02-2.25-1.48-2.5-3.46-4.49-6.17-5.68-1.43-.63-2.85-.61-4.28-.05-.62.24-5.16,3.85-5.53,4.4-1.06,1.58-.99,3.32-.54,5.03.79,2.98,2.45,5.55,4.33,7.93,1.87,2.37,5.39,3.18,8.25,2.14.69-.25,1.36-.55,2-.91,3.56-1.97,5.75-5.58,3.42-9.91-.13-.24-.25-.49-.37-.74-.03.01-.06.03-.09.04Zm-1.14,1.87c.97,2.34.3,4.31-1.49,5.93-1.25,1.13-2.78,1.81-4.42,2.06-1.73.26-3.33-.35-4.37-1.76-1.35-1.83-2.58-3.76-3.74-5.72-.84-1.42-.93-2.98.04-4.41.86-1.27,1.7-2.59,2.78-3.66.93-.92,2.27-1.09,3.61-.83,1.5.29,2.73,1.05,3.75,2.14,1.31,1.41,2.46,2.94,3.18,4.76.22.5.46,1,.67,1.5Z"/><path class="cls-2" d="m203.66,419.12c-.45.44-.43.97-.05,1.45.32.41,1.09.53,1.47.23.49-.38.6-.89.27-1.43-.18-.29-.47-.52-.77-.85-.35.22-.68.36-.92.59Z"/><path class="cls-2" d="m208.78,417.44c.28.47.88.55,1.38.1.22-.19.28-.55.52-1.06-.73-.11-1.28-.35-1.69-.21-.43.15-.48.71-.21,1.17Z"/><path class="cls-2" d="m199.38,422.04c-.28.18-.64.38-.73.65-.1.29.06.67.16,1,.02.06.42.11.46.04.26-.42.47-.88.68-1.29-.3-.21-.51-.43-.56-.4Z"/><path class="cls-2" d="m174.34,428.97c-.7.05-1.16.42-1.52,1.01-.79,1.29-.31,2.46.19,3.49.18.4.28.66.41.9.69,1.32,1.61,1.72,2.93,1.01.86-.46,1.56-1.22,2.28-1.9.44-.41.41-.98.23-1.54-.54-1.63-2.76-3.09-4.52-2.98Zm2.46,3.12c0-.09-.01-.18-.02-.27.05.05.09.11.14.16-.04.04-.08.08-.12.11Z"/><path class="cls-2" d="m225.53,401.93c-.48.82-.62,1.68-.46,2.62.42,2.46,1.8,3.25,4.26,2.23.01,0,.18-.07.34-.15,1.54-.79,2.29-2.06,2-3.51-.33-1.66-1.36-2.76-2.93-3.31-.92-.32-2.39.72-3.21,2.12Z"/><path class="cls-1" d="m299.88,158.17c3,0,6.31-1.19,9.84-3.51.19,0,.37.01.56.01,10.67,0,21.04-10.3,21.47-10.73.18-.19.28-.44.25-.7-.03-.26-.17-.5-.38-.64-.43-.29-10.64-7.04-21.14-7.13-7.81-6.98-9.92-6.99-10.61-6.99-3.58,0-18.96,5.08-19.61,5.28-.47.15-.83.78-.41,1.37.07.1,1.49,1.86,3.67,3.8-9.63-.23-16.17-6.64-16.24-6.71-.27-.27-.68-.33-1.01-.16-3.51,1.77-5.69,6.08-5.69,11.26s2.18,9.49,5.69,11.26c.33.17.74.1,1.01-.16.07-.07,6.84-6.73,16.76-6.73,2.96,0,6.46,1.41,10.18,2.9,2.33.94,4.81,1.93,7.43,2.71-.61,1.24-1.38,2.36-2.39,3.38-.56.56-.16,1.49.63,1.49Zm2.06-1.96c.56-.76,1.03-1.58,1.43-2.44,1.09.27,2.21.5,3.35.65-1.44.77-3.08,1.46-4.77,1.79Zm-19.9-21.19c5.06-1.64,15.31-4.79,17.82-4.79.6,0,2.55.57,8.04,5.31-4.18.22-7.61.97-10.93,1.7-3.43.76-6.71,1.47-10.77,1.67-1.8-1.41-3.29-2.93-4.16-3.89Zm-11.34,14.7c-2.03,1.2-3.47,2.38-4.17,3.01-2.58-1.62-4.21-5.23-4.21-9.4s1.64-7.78,4.21-9.4c.7.63,2.15,1.81,4.18,3.02-1.75,3.84-1.76,8.94-.01,12.78Zm24.16-.75c-3.87-1.56-7.53-3.03-10.83-3.03-4.75,0-8.77,1.38-11.8,2.93-1.49-3.35-1.48-7.75,0-11.09,3.03,1.55,7.05,2.93,11.79,2.93,5.31,0,9.38-.9,13.31-1.77,4.02-.89,7.81-1.73,12.93-1.73,8.27,0,16.67,4.6,19.43,6.25-1.78,1.61-6.29,5.42-11.62,7.68-2.36-4.33-1.69-9.4-1.68-9.45.07-.48-.26-.92-.74-.99-.48-.06-.92.26-.99.74-.03.24-.75,5.55,1.77,10.33-2,.7-4.09,1.14-6.17,1.14-5.57,0-10.8-2.1-15.42-3.96Z"/><path class="cls-1" d="m323.38,145.42c.96,0,1.74-.78,1.74-1.75s-.78-1.75-1.74-1.75-1.74.78-1.74,1.75.78,1.75,1.74,1.75Z"/><path class="cls-2" d="m1356.17,321.54c-.23-.46-.52-.99-.47-1.47.26-2.8-.51-5.45-1.06-8.13-.39-1.93-1.08-3.75-2.02-5.47-1.32-2.43-3.32-4.21-5.97-4.99-3.13-.92-6.27-1.63-9.66-1.07-3.8.63-7.06,2.2-10.03,4.52-.62.49-1.23,1.07-1.61,1.75-.58,1.01-1.3,1.84-2.14,2.63-1.73,1.64-2.37,3.66-1.76,6.04.21.84.35,1.76.27,2.61-.43,4.31.01,8.49,1.59,12.52.5,1.28.75,2.51.33,3.87-.16.54-.02,1.25.2,1.79.27.69.38,1.33.22,2.06-.09.42-.14.9-.04,1.31.25,1.09.1,2.08-.38,3.09-.3.63-.44,1.35-.61,2.03-2.17,8.59-4.35,17.18-6.48,25.78-.66,2.66-1.32,5.31-1.52,8.08-.15,2.07-.22,4.24-1.66,6.02-.31.38-.35,1-.49,1.51-.55,2.05-1.07,4.12-1.66,6.16-.57,1.99-.81,4-.43,6.04.17.91.09,1.76-.21,2.61-.29.83-.66,1.64-.92,2.49-.62,1.94-1.39,3.85-1.74,5.84-.48,2.75,2.19,4.84,4.77,3.73,2.01-.87,4.09-.87,6.16-1.28.27.39.51.65.66.96,1.48,3.04,1.45,6.17.42,9.3-.53,1.59-1.3,3.1-1.96,4.65-.22.51-.32,1.03.25,1.4.59.38,1.25.35,1.72-.06.2-.18.39-.37.53-.59,2.29-3.67,3.16-7.68,2.55-11.94-.21-1.46-.85-2.88-1.41-4.27-.41-1.04-1.3-1.65-2.37-1.97-1.31-.4-2.61-.42-3.92-.03-.66.19-1.34.55-2.26-.06.48-2.74.96-5.43,1.43-8.12.05-.26.06-.54.18-.77,1.18-2.38,1.75-5,3.1-7.32.75-1.29,1.3-2.71,1.88-4.1.27-.65.63-1.4.53-2.03-.25-1.45.41-2.58.97-3.77.72-1.52,1.42-3.05,2.22-4.53.93-1.73,1.65-3.53,2.12-5.43.69-2.76,1.57-5.45,3-7.93.27-.46.45-.96.66-1.45,1.09-2.52,2.2-5.03,3.25-7.57,1.32-3.19,2.58-6.4,3.88-9.6.23-.56.48-1.14.87-1.58.99-1.12,2.02-2.22,3.11-3.24,1.25-1.17,2.35-2.38,2.35-4.16.44-.24.76-.39,1.06-.58,3.76-2.38,7.44-4.86,9.56-8.96.41-.78,1.04-1.14,1.71-1.57,1.78-1.16,2.2-2.88,1.26-4.77Zm-3.46-5.59c.28.24.62.39.72.64.34.85.31,1.71-.17,2.64-.41-.04-.84-.07-1.32-.11-.25-1.15.04-2.11.77-3.16Zm-3.8.2c-.19-.96-.09-1.92.48-2.67.53-.71,1.4-.95,2.52-.91-.33,3.12-.43,3.24-3,3.58Zm1.87,1.2c-.14.59-.28,1.14-.45,1.83-.7-.18-1.33-.33-2.02-.5.91-1.21.91-1.22,2.47-1.33Zm-.04-9.18c.77.74,1.09,1.68,1.19,2.93-.81.25-1.6.5-2.41.75-.42-3.01-.4-3.07,1.23-3.68Zm-1.15-1.78c.12.1.25.2.37.3-.09.12-.19.24-.28.35-.11-.09-.31-.18-.31-.27,0-.13.14-.26.23-.38Zm-3.66,12.61c-1.42-.12-2.64-.47-3.96-.95,1.39-2.01,3.41-2.7,5.39-3.59.19,2.11.12,2.32-1.43,4.54Zm.48-5.54c-.61.31-1.27.54-1.91.78-.06.02-.16-.06-.27-.11-.3-2.58,1.3-3.7,3.42-4.43.73,2.12.48,2.89-1.25,3.76Zm1.24-8.54c.2.2.38.29.42.43.09.34.11.69.15,1.04.14,1.09-.27,1.89-1.27,2.36-.39.19-.77.37-1.18.57q-.35-1.37.14-3.84c.65-.21,1.22-.39,1.75-.56Zm-1.95-1.7c.18.25.37.51.55.76-.18.12-.36.24-.54.35-.17-.26-.35-.51-.49-.78,0-.01.23-.16.48-.33Zm-3.54,7.86c-1.38.74-2.75,1.49-4.43,2.4,0-.77-.02-1.11,0-1.45.08-1.71.73-3.02,2.47-3.65,1.38-.5,2.47-1.63,3.97-1.94.29,2.37-.32,3.73-2.01,4.64Zm-2.72,6.52c-.77-.42-1.6-.89-2.61-1.44.32-.4.5-.81.82-1.01,1.57-.96,3.08-2.05,4.81-2.75.66,2.18-.14,3.55-3.03,5.2Zm4.45-14.88c.14.82.25,1.46.38,2.2-1.94,1-3.73,2.03-5.76,2.78-.52-1.02-.12-1.85-.1-2.8,1.78-.71,3.55-1.41,5.49-2.18Zm-5.42-.45c.9-.24,1.86-.43,3.1,0-1.1.99-2.16.95-3.09,1.1-.55-.48-.45-.99-.01-1.1Zm-3.86,13.4c-.86-.16-1.64-.24-2.39-.45-.91-.25-1.11-1.23-.33-1.82,1.39-1.06,2.74-2.19,4.56-2.97.07.4.21.71.18.99-.19,1.53-.96,2.8-2.02,4.25Zm2.37-7.29c-1.45,1.09-3.01,1.99-4.79,2.93-.26-1.49.18-2.66.16-3.9,1.37-1.07,2.77-1.9,4.6-2,.49,1.03.08,1.96.02,2.96Zm-1.03-5.8c.44-.1.98-.02,1.01.49.02.34-.3.87-.6,1.01-1.17.53-2.4.94-3.69,1.43-.24-.49-.41-.85-.65-1.33,1.3-.83,2.58-1.31,3.93-1.6Zm-6.23,10.88c-1.37-.3-2.05-1.17-2.44-2.42.79-1.08,1.87-1.58,3.13-2.2.51,1.77.39,3.21-.69,4.62Zm1.6-8.68c.16,2.7-2.08,2.99-3.69,4.15-.11-.48-.34-.87-.23-1.09.8-1.58,1.95-2.75,3.92-3.06Zm-7.63,20.26c-.37-1.81-.53-3.39-.17-5.05q2.83,1.25,3.6,2.39c-1.05.87-2.02,1.85-3.43,2.66Zm.57,2.56c-.07-.23-.03-.55.09-.76.52-.9,1.03-1.82,2.31-2.22.02.72.08,1.31.04,1.89-.1,1.22-.21,2.44-.4,3.64-.06.34-.42.63-.7,1.03-.99-1.14-.99-2.43-1.34-3.58Zm-10.92,69.94c-.27-.46-.66-.86-.72-1.3-.08-.59.06-1.22.18-1.83.48-2.34.98-4.67,1.49-7,.07-.33.28-.62.48-1.05,1.17.02,2.23.24,3.36.95-1.59,3.39-3.15,6.72-4.79,10.22Zm19.72-48.27c-1.38,3.25-2.93,6.43-4.33,9.67-1.44,3.32-2.81,6.67-4.2,10.01-.68,1.63-1.33,3.27-2,4.91-.23.57-.56,1.13-.67,1.72-.52,2.65-2.04,4.88-3.09,7.3-.21.48-.55.91-.85,1.34-.51.73-1.14.74-1.94.2-.13-2.6.37-5.19,1.03-7.75,1.12-4.37,2.32-8.71,3.38-13.09,1.61-6.61,3.14-13.25,4.71-19.87.08-.32.25-.62.45-1.11,2.4,2.11,5.51,1.97,8.22,3.11.33,1.3-.24,2.46-.71,3.56Zm1.79-5.42c-1.82-.45-3.7-.91-5.59-1.38-1.15-.29-2.07-.99-2.92-1.77-.61-.57-.99-1.24-.59-2.44,3.4,2.12,7.21,2.32,10.71,3.61.14,1.21-.79,1.48-1.62,1.98Zm2.86-3.85c-.5.07-1.04-.12-1.56-.25-1.98-.47-3.94-1.02-5.93-1.42-1.44-.29-2.64-1.03-3.78-1.83-.9-.63-1.84-1.46-1.21-3.07,2.74.53,4.82,2.16,7.31,2.78,2.46.61,4.82,1.6,7.31,2.46-.36,1.21-1.33,1.23-2.14,1.33Zm.02-11.36c-.62-.44-.26-.9-.02-1.38.94-.28,1.69.21,2.64.61.01.57.07,1.17.03,1.76-.07.87-.28,1.74-.33,2.61-.11,1.69-.27,1.87-2.31,2.02-.92-2.49-.3-4.45,2.14-5.79-.88-.58-1.44.31-2.13.18Zm-1.48,5.51c.05.64-.74,1.04-1.33.72-1.01-.57-1.26-1.86-.47-2.62.34-.32.82-.5,1.43-.85.15,1.06.3,1.9.37,2.75Zm-2.71-2.79c-.74-1.23-.22-2.41-.5-3.73,1.2-.68,1.83-2.28,3.61-1.15-.22,1.11-.43,2.21-.67,3.42-.78.47-1.58.94-2.44,1.46Zm-.11-5.51c-.06.01-.32-.35-.29-.49.04-.16.3-.38.46-.38.19,0,.39.21.76.44-.4.2-.65.37-.93.44Zm-1.67,7.08c-1.08.31-1.9,0-2.65-.44-.94-.56-.93-1.68-.03-2.35.69-.51,1.4-1.01,2.13-1.53q.73,1.51.56,4.32Zm-1.4-5.03c-.73.45-1.51.82-2.31,1.25-.36-1.79-.19-3.76.5-5.9.55.21,1.08.43,1.62.63.49.18.99.33,1.43.48.46,2.25.37,2.54-1.24,3.54Zm9.37,7.58c.07-.03.17-.11.21-.09.12.08.22.19.33.29-.11.07-.23.15-.34.22-.06-.14-.13-.28-.19-.43Zm2.17-7.31c.91-.02,1.59-.04,2.26-.06.03.32.11.51.04.63-.2.39-.69.78-.64,1.1.22,1.58-.94,1.84-2,2.49-.62-1.52-.05-2.71.35-4.16Zm1.24,6.88c-.29.21-.82.24-1.17.13-.46-.16-.52-.97-.1-1.33.5-.43,1.08-.78,1.91-1.37.09,1.26.06,2.07-.64,2.57Zm6.23-5.64c-.65.86-1.82,1.25-1.92,2.64-.05.71-1.01,1.11-1.95,1.23-.19-.99-.19-1.96.52-2.69.61-.63.27-1.25.21-1.96.5-.13,1-.29,1.51-.37.68-.11,1.38-.16,2.04-.23.44.7-.13.99-.42,1.38Zm4.61-4.76c-1.2.35-2.37.82-3.58.98-1.11.15-2.3.11-3.41-.08-1.64-.27-3.19-1.03-4.93-.46-.43.14-1.03-.15-1.53-.31-.84-.27-1.63-.76-2.49-.9-3.05-.51-5.61-2.05-8.2-3.58-1.36-.8-2.74-1.57-4.1-2.38-1.47-.87-2.15-2.31-2.63-3.85-.31-.99-.03-1.92.71-2.66.3-.29.78-.23.88.13.4,1.49,1.87,1.96,2.79,2.92,1.66,1.73,3.85,2.78,6.06,3.71.24.1.52.26.76.23,2.41-.3,4.46.94,6.64,1.56,3.49.99,6.96,2.02,10.59,2.37.86.08,1.7.4,2.85.68-.14.57-.26,1.07-.41,1.64Z"/><path class="cls-2" d="m1329.57,350.46c-.18-.04-.36-.08-.54-.12-.28.41-.68.78-.81,1.23-.66,2.2-1.27,4.41-1.86,6.63-.13.5-.19,1.05-.13,1.57.03.26.36.62.62.68.28.07.67-.1.93-.29.18-.13.28-.44.33-.69.55-2.5,1.1-5,1.59-7.52.09-.47-.07-.99-.12-1.49Z"/></svg>