<?xml version="1.0" encoding="UTF-8"?><svg id="PATTERN" xmlns="http://www.w3.org/2000/svg" viewBox="0 0 1500 864.33"><defs><style>.cls-1{fill:#fff;}.cls-2{stroke:#fde8db;}.cls-2,.cls-3{fill:none;stroke-miterlimit:10;stroke-width:1px;}.cls-3{stroke:#fff;}</style></defs><path class="cls-1" d="m1141.65,344.18c-23.73,1.55-45.32,15.57-47.64,40.98-2.12,23.17,9.31,44.98,31.22,53.86,28.85,11.7,61.41-6.43,67.24-36.09,6.71-34.11-18.78-57.75-50.82-58.76-1.94-.06-1.94,2.95,0,3.01,34.73,1.09,55.73,28.65,46.05,62.74-8.15,28.67-46.36,35.8-69.61,22.28-16.79-9.76-23.44-31.25-20.69-49.52,3.37-22.47,23.15-34.12,44.26-35.5,1.93-.13,1.94-3.14,0-3.01h0Z"/><path class="cls-1" d="m1141.5,358.47c-36.94,2.38-44.95,54.28-10.25,67.56,33.3,12.74,68-40.13,30.08-55.22-13.53-5.38-29.13-2.23-35.53,11.8-4.5,9.86-3.73,25.69,7.88,30.21,9.02,3.51,21.75,1.15,27.68-7.03,6.62-9.13,1.25-22.37-9.11-26.02-12.99-4.57-24.15,21-4.42,21.25,1.94.02,1.94-2.99,0-3.01-12-.15-8.44-12.08-.43-15.19,7.49-2.91,13.54,7.62,14.08,13.68.82,9.2-10.17,14.12-17.64,14.88-10.72,1.09-17.43-6.37-17.49-16.68-.09-16.35,13.1-25.72,28.43-22.84,14.05,2.63,22.55,15.5,19.35,29.29-3.89,16.77-23.83,25.68-39.5,22.71-15.45-2.93-23.14-18.34-22.86-32.71.34-16.9,13.44-28.61,29.72-29.66,1.93-.12,1.94-3.14,0-3.01h0Z"/><path class="cls-1" d="m1144.72,336.57c1.18-9.98-.57-19.89,0-29.88.11-1.94-2.9-1.93-3.01,0-.57,9.99,1.18,19.9,0,29.88-.23,1.93,2.79,1.9,3.01,0h0Z"/><path class="cls-1" d="m1141.7,449.53c1.18,9.98-.57,19.89,0,29.88.11,1.93,3.12,1.94,3.01,0-.57-9.99,1.18-19.9,0-29.88-.23-1.9-3.24-1.93-3.01,0h0Z"/><path class="cls-1" d="m1086.76,391.73c-10-1.18-19.94.57-29.96,0-1.94-.11-1.93,2.9,0,3.01,10.01.57,19.95-1.18,29.96,0,1.93.23,1.9-2.79,0-3.01h0Z"/><path class="cls-1" d="m1200.03,394.74c10-1.18,19.95.57,29.96,0,1.93-.11,1.94-3.12,0-3.01-10.02.57-19.96-1.18-29.96,0-1.9.22-1.93,3.24,0,3.01h0Z"/><path class="cls-1" d="m1104.28,352.18c-6.18-7.94-14.56-13.61-21.19-21.12-1.29-1.46-3.41.68-2.13,2.13,6.63,7.51,15.01,13.18,21.19,21.12,1.19,1.53,3.31-.62,2.13-2.13h0Z"/><path class="cls-1" d="m1182.24,434.18c7.96,6.16,13.66,14.53,21.19,21.13,1.45,1.27,3.59-.85,2.13-2.13-7.53-6.6-13.22-14.97-21.19-21.13-1.52-1.17-3.66.94-2.13,2.13h0Z"/><path class="cls-1" d="m1102.42,432.05c-7.96,6.16-13.66,14.52-21.19,21.13-1.46,1.28.68,3.4,2.13,2.13,7.53-6.61,13.22-14.97,21.19-21.13,1.53-1.19-.61-3.3-2.13-2.13h0Z"/><path class="cls-1" d="m1184.64,354.31c6.18-7.94,14.56-13.61,21.19-21.12,1.28-1.45-.84-3.59-2.13-2.13-6.62,7.51-15.01,13.18-21.19,21.12-1.18,1.51.94,3.66,2.13,2.13h0Z"/><path class="cls-1" d="m1123,340.54c-2.7-9.69-8.19-18.15-11.47-27.61-.63-1.82-3.54-1.04-2.9.8,3.27,9.45,8.77,17.93,11.47,27.6.52,1.87,3.43,1.07,2.9-.8h0Z"/><path class="cls-1" d="m1163.6,446.06c4.94,8.75,7.09,18.61,11.47,27.6.85,1.75,3.45.22,2.6-1.52-4.38-9-6.52-18.85-11.47-27.6-.96-1.69-3.56-.17-2.6,1.52h0Z"/><path class="cls-1" d="m1090.74,413.38c-9.71,2.69-18.2,8.17-27.68,11.43-1.82.63-1.04,3.54.8,2.9,9.48-3.26,17.98-8.75,27.68-11.43,1.87-.52,1.07-3.42-.8-2.9h0Z"/><path class="cls-1" d="m1196.55,372.91c8.77-4.93,18.66-7.07,27.68-11.44,1.75-.85.22-3.44-1.52-2.6-9.03,4.37-18.9,6.5-27.68,11.44-1.69.95-.18,3.55,1.52,2.6h0Z"/><path class="cls-1" d="m1091.76,370.31c-8.78-4.94-18.65-7.06-27.68-11.44-1.74-.84-3.27,1.75-1.52,2.6,9.02,4.37,18.91,6.5,27.68,11.44,1.69.95,3.21-1.65,1.52-2.6h0Z"/><path class="cls-1" d="m1195.25,416.29c9.7,2.69,18.2,8.17,27.68,11.43,1.84.63,2.63-2.28.8-2.9-9.48-3.26-17.97-8.74-27.68-11.43-1.88-.52-2.67,2.39-.8,2.9h0Z"/><path class="cls-1" d="m1120.6,444.54c-4.95,8.76-7.09,18.61-11.47,27.61-.85,1.74,1.75,3.27,2.6,1.52,4.38-9,6.52-18.86,11.47-27.61.96-1.69-1.65-3.21-2.6-1.52h0Z"/><path class="cls-1" d="m1166.69,341.34c2.7-9.68,8.19-18.15,11.47-27.6.64-1.84-2.27-2.62-2.9-.8-3.27,9.46-8.77,17.91-11.47,27.61-.52,1.88,2.38,2.67,2.9.8h0Z"/><path class="cls-1" d="m1133.75,337.95c-.43-5.55-2.45-10.74-3.21-16.23-.27-1.92-3.17-1.1-2.9.8.73,5.22,2.7,10.15,3.1,15.42.15,1.92,3.16,1.94,3.01,0h0Z"/><path class="cls-1" d="m1152.77,448.62c1.68,5.16,1.8,10.59,3.16,15.82.49,1.88,3.39,1.08,2.9-.8-1.36-5.23-1.48-10.66-3.16-15.82-.6-1.84-3.51-1.05-2.9.8h0Z"/><path class="cls-1" d="m1088.14,402.67c-5.56.43-10.77,2.44-16.27,3.2-1.92.27-1.1,3.17.8,2.9,5.23-.72,10.18-2.69,15.47-3.09,1.92-.15,1.94-3.16,0-3.01h0Z"/><path class="cls-1" d="m1199.12,383.71c5.17-1.68,10.62-1.79,15.86-3.15,1.88-.49,1.08-3.39-.8-2.9-5.24,1.35-10.69,1.47-15.86,3.15-1.84.6-1.05,3.51.8,2.9h0Z"/><path class="cls-1" d="m1097.53,360.87c-4.22-3.63-9.34-5.85-13.76-9.2-1.55-1.17-3.04,1.44-1.52,2.6,4.21,3.19,9.13,5.27,13.15,8.73,1.46,1.26,3.61-.86,2.13-2.13h0Z"/><path class="cls-1" d="m1189.4,425.73c4.86,2.44,8.77,6.25,13.45,8.97,1.68.98,3.2-1.63,1.52-2.6-4.68-2.72-8.59-6.53-13.45-8.97-1.73-.87-3.26,1.73-1.52,2.6h0Z"/><path class="cls-1" d="m1111.13,438.79c-3.64,4.21-5.87,9.32-9.23,13.72-1.18,1.54,1.44,3.04,2.6,1.52,3.2-4.19,5.29-9.1,8.76-13.11,1.26-1.46-.86-3.6-2.13-2.13h0Z"/><path class="cls-1" d="m1176.16,347.18c2.44-4.85,6.26-8.74,8.99-13.41.98-1.68-1.62-3.2-2.6-1.52-2.72,4.67-6.54,8.56-8.99,13.41-.87,1.73,1.73,3.25,2.6,1.52h0Z"/><path class="cls-1" d="m1113.24,345.66c-2.44-4.85-6.26-8.74-8.99-13.41-.98-1.68-3.58-.16-2.6,1.52,2.72,4.67,6.55,8.56,8.99,13.41.88,1.74,3.47.21,2.6-1.52h0Z"/><path class="cls-1" d="m1173.53,440.92c3.47,4,5.55,8.91,8.75,13.11,1.16,1.52,3.78.03,2.6-1.52-3.36-4.4-5.58-9.51-9.22-13.72-1.27-1.47-3.39.67-2.13,2.13h0Z"/><path class="cls-1" d="m1095.87,423.13c-4.86,2.44-8.77,6.25-13.45,8.97-1.68.98-.16,3.58,1.52,2.6,4.68-2.72,8.59-6.53,13.45-8.97,1.74-.87.21-3.47-1.52-2.6h0Z"/><path class="cls-1" d="m1191.39,363c4.02-3.46,8.94-5.54,13.15-8.73,1.53-1.16.03-3.78-1.52-2.6-4.42,3.35-9.53,5.56-13.76,9.2-1.47,1.27.67,3.39,2.13,2.13h0Z"/><path class="cls-1" d="m1088.48,380.81c-5.18-1.68-10.62-1.79-15.87-3.15-1.88-.49-2.68,2.42-.8,2.9,5.24,1.35,10.69,1.47,15.87,3.15,1.85.6,2.64-2.31.8-2.9h0Z"/><path class="cls-1" d="m1198.65,405.68c5.29.41,10.24,2.37,15.47,3.09,1.9.26,2.72-2.64.8-2.9-5.5-.76-10.71-2.77-16.27-3.2-1.94-.15-1.92,2.86,0,3.01h0Z"/><path class="cls-1" d="m1131.12,447.82c-1.68,5.16-1.8,10.59-3.16,15.82-.49,1.88,2.42,2.68,2.9.8,1.35-5.23,1.47-10.66,3.15-15.82.6-1.85-2.3-2.64-2.9-.8h0Z"/><path class="cls-1" d="m1156.06,337.95c.41-5.27,2.37-10.21,3.1-15.42.27-1.9-2.64-2.72-2.9-.8-.77,5.49-2.78,10.68-3.21,16.23-.15,1.94,2.86,1.92,3.01,0h0Z"/><path class="cls-1" d="m1071.39,168.62c.4-6.17-.28-12.38-.64-18.54-.24-4-.46-25,7.55-13.59,6.08,8.67,4.99,21.03,10.99,29.43,1.84,2.58,14.1-3.51,16.36-4.18,3.35-.99,26.04-6.98,16.32,3.78-5.64,6.24-14.71,10.43-22.16,14.11-.45.22-.67.95-.36,1.37,6.16,8.21,13.57,15.33,18.8,24.25,2.92,4.98-.38,9.38-5.8,6.98-3.11-1.38-5.94-3.48-8.71-5.42-6.37-4.45-12.26-9.75-17.78-15.21-.43-.42-1.29-.39-1.57.2-2.39,5.02-4.84,10-7.49,14.89-1.37,2.52-2.89,4.95-4.44,7.37-1.36,2.09-2.88,4.06-4.56,5.92-2.2,3.07-5.17,2.76-8.91-.93-1.07-10.73,4.81-23.26,8.16-33.26.19-.56-.22-1.04-.7-1.23-3.79-1.49-7.85-2.26-11.8-3.19-2.56-.6-5.11-1.26-7.65-1.95-1.57-.42-15.33-4.75-6.06-8.03,8.96-3.16,20.1-1.8,29.47-1.76,1.29,0,1.29-2,0-2-6.74-.03-34.18-3.46-35.44,6.87-.5,4.11,9.27,6.18,11.49,6.85,4.83,1.44,9.81,2.43,14.7,3.64,5.83,1.45,2.42,5.08.88,9.84-1.44,4.45-11.92,34.43,2.18,30.43,6.57-1.86,11.45-12.34,14.41-17.55,2.47-4.34,4.63-8.87,6.78-13.38-.21.44,11.44,9.71,12.54,10.59,2,1.62,28.2,19.39,24.18,4.67-2.03-7.43-7.61-13.61-12.42-19.41-.6-.73-8.3-9.09-7.02-9.72,5.81-2.87,11.37-6.23,16.62-10.02,11.29-8.16,8.16-15.23-4.9-12.92-7.93,1.4-15.72,4.16-23.27,6.89-1.02.37-7.18-20.54-8.12-22.94-.85-2.17-8-16.18-12.36-9.8-6.35,9.3-.55,26.38-1.24,36.98-.08,1.29,1.92,1.28,2,0h0Z"/><path class="cls-1" d="m1075.94,145.2c1.57,10.2,4.17,22.02,5.78,31.83"/><path class="cls-1" d="m1051.48,174.61c9.53,1.2,19.43,3.13,27.63,4.72"/><path class="cls-1" d="m1112.27,165.18c-9.13,3.46-19,8.32-27.69,13.34"/><path class="cls-1" d="m1078.51,184.59c-5.42,7.36-9.91,15.81-13.77,29.37"/><path class="cls-1" d="m1087.13,183.26c8.8,6.23,17.05,13.79,24.9,21.47"/><path class="cls-1" d="m43.59,424.15c-7.34,28.39,42.33,33.5,59.76,37.68,19.22,4.61,38.55,10.62,58.21,13.02,10.16,1.24,19.82-1.87,23.26-12.01.42-1.23-1.52-1.75-1.93-.53-5.35,15.79-24.78,10.31-36.53,7.85-12.8-2.69-25.45-6.22-38.19-9.24-16.97-4.03-69.52-9.68-62.65-36.24.32-1.25-1.61-1.78-1.93-.53h0Z"/><path class="cls-1" d="m88.84,415.16c-9.97-2.07-26.38-9.43-36.44-3.73-7.56,4.29-10.24,11.98-7.7,20.19,3.22,10.38,19.64,14.04,28.51,16.83,16.91,5.33,34.38,9.67,51.66,13.61,13.98,3.19,29.02,8.03,43.43,8.24,7.58.11,14.68-3.59,17.59-10.66,7.94-19.32-25.85-25.31-36.53-28.17-1.25-.33-1.78,1.6-.53,1.93,12.37,3.32,39.87,6.84,35.13,25.71-4.81,19.12-46.64,3.69-58.55,1.02-19.79-4.43-39.97-9.43-59.13-16.08-11.94-4.14-28.92-14.3-16.51-28.42,8.36-9.51,28.52-.63,38.53,1.46,1.26.26,1.8-1.67.53-1.93h0Z"/><path class="cls-1" d="m89.42,422.18c1.14-8.63,2.04-17.13,6.84-24.6,8.81-13.7,27.49-4,39.41-.27,8.47,2.65,16.12,6.84,15.64,16.6-.36,7.42-3.43,15.03-5.11,22.22-.29,1.26,1.64,1.79,1.93.53,2.07-8.86,6.23-18.51,4.97-27.75-1.07-7.89-10.55-11.28-16.9-13.52-8.27-2.93-27.85-12.5-36.12-4.99-9.46,8.59-11.06,19.62-12.66,31.79-.17,1.28,1.84,1.26,2,0h0Z"/><path class="cls-1" d="m104.88,395.55c9.21,10.37,26.94,12.73,39.84,14.44,1.28.17,1.26-1.84,0-2-12.29-1.63-29.7-4.03-38.42-13.86-.86-.97-2.27.45-1.42,1.42h0Z"/><path class="cls-1" d="m85.13,420.88c-.38,1.55-5.17,12.44-2.24,13.73,5.11,2.25,10.56,3.77,15.9,5.37,14.85,4.43,31.27,9.86,46.92,9.85.49,0,.79-.31.97-.73,4.89-11.96,5.34-11.61-6.7-13.67-17.91-3.07-36.76-7.65-53.38-15.14-1.17-.53-2.19,1.2-1.01,1.73,11.46,5.16,23.78,8.39,35.94,11.45,6.77,1.71,13.61,3.15,20.5,4.33,7.03,1.2,5.94,2.49,3.41,9.04-1.67,4.34-30.96-4.61-35.52-5.82-5.86-1.54-11.67-3.25-17.45-5.07-9.27-2.92-7.62-5.48-5.41-14.53.31-1.26-1.63-1.79-1.93-.53h0Z"/><path class="cls-1" d="m149.06,436.81c4.43-12.13,9.98-23.63,19.5-32.59,5.54-5.22,12.23-5.87,18.43-9.55-3.5,2.08-6.04,5.48-8.24,8.8-.42.63.13,1.53.87,1.51,2.96-.1,21.41-1.76,11.81,2.49-6.23,2.76-12.44,5.44-18.46,8.65-9.84,5.25-17.93,11.64-25.58,19.72-.89.94.53,2.36,1.42,1.42,14.2-15.01,31.37-22.44,49.86-30.86.82-.37.54-1.62-.24-1.83-3.17-.87-6.12-1.34-9.37-1.63-2.11-.11-4.23-.13-6.34-.07-.37,0,6.12-6.96,7.76-7.94.8-.47.53-1.98-.51-1.87-23.6,2.58-35.36,22.76-42.84,43.22-.44,1.22,1.49,1.74,1.93.53h0Z"/><path class="cls-1" d="m149.86,437.15c11.61-10.13,24.13-14.88,39.52-14.91,5.82,0,11.65.97,17.37,1.93,7.48,1.26-2.48,3.45-5.51,5.25-.65.39-.64,1.34,0,1.73,1.75,1.06,7.67,6.95,10.5,7.23-4.07-.41-8.14-1.19-12.17-1.88-6.06-1.04-12.11-2.15-18.2-2.96-10.23-1.35-23.36-3.76-32.72,2.04-1.1.68-.09,2.41,1.01,1.73,9.58-5.94,24.05-2.88,34.51-1.36,9.87,1.43,19.63,3.64,29.57,4.64.85.09,1.36-1.17.71-1.71-2.88-2.42-5.74-5.53-8.97-7.49-1.86-1.13,8.59-5.6,9.27-5.91.78-.36.58-1.67-.24-1.83-24.51-4.92-46.31-5.13-66.06,12.09-.98.85.45,2.26,1.42,1.42h0Z"/><path class="cls-1" d="m274.25,400.89c6.56-9.21,10.04-26.19,24.04-26.13,9.69.04,17.2,6.49,26.91,2.96,4.94-1.79,7.37-8.52,9.35-12.79,6.49-14.03,14.83-21.56,30.12-16.19,8.64,3.03,21.17,8.93,28.61.06,8.86-10.56,10.64-28.89,28.67-23.2,7.69,2.43,14.52,4.69,22.71,4.65,1.61,0,1.28-2.49-.31-2.48-16.59.09-31.46-14.23-43.42,2.51-8.62,12.07-10.31,24.47-28.09,18.79-6.09-1.95-12.83-5.88-19.46-5.42-6.54.45-10.25,3.97-14.47,8.78-10.62,12.14-8.26,28.41-30.61,22.04-23.65-6.74-24.23,8.33-36.03,24.92-.93,1.31,1.06,2.83,2,1.51h0Z"/><path class="cls-1" d="m282.15,419.81c6.56-9.21,10.04-26.2,24.03-26.14,9.69.04,17.2,6.49,26.91,2.96,4.94-1.79,7.37-8.52,9.35-12.79,6.49-14.03,14.83-21.56,30.12-16.19,8.64,3.03,21.17,8.93,28.61.06,8.86-10.56,10.64-28.89,28.67-23.2,7.69,2.43,14.52,4.69,22.71,4.65,1.61,0,1.28-2.49-.31-2.48-16.59.08-31.46-14.24-43.42,2.5-8.62,12.07-10.31,24.47-28.09,18.79-6.09-1.95-12.83-5.88-19.46-5.42-6.54.45-10.25,3.96-14.47,8.78-10.62,12.14-8.27,28.41-30.61,22.04-23.65-6.74-24.22,8.32-36.03,24.92-.93,1.31,1.06,2.83,2,1.51h0Z"/><path class="cls-1" d="m290.04,438.73c5.93-8.33,9.56-23.93,20.76-26.15,10.52-2.09,19.52,6.84,30.18,2.98,4.94-1.79,7.37-8.52,9.35-12.79,6.49-14.03,14.83-21.56,30.12-16.19,8.64,3.03,21.17,8.94,28.61.07,8.86-10.56,10.64-28.9,28.67-23.2,7.69,2.43,14.52,4.69,22.71,4.65,1.61,0,1.28-2.49-.31-2.48-16.59.08-31.47-14.24-43.42,2.5-8.62,12.08-10.31,24.47-28.09,18.79-6.09-1.95-12.83-5.88-19.46-5.42-6.54.45-10.25,3.96-14.47,8.78-10.62,12.14-8.26,28.41-30.61,22.04-23.55-6.72-24.29,8.43-36.03,24.92-.93,1.31,1.06,2.83,2,1.51h0Z"/><path class="cls-1" d="m366.33,377.26c11.3-3.75,20.24,7.48,30.71,4.18,11.76-3.7,11.37-18.66,22.64-22.73,1.52-.55.55-2.86-.96-2.31-11.91,4.3-12.26,23.43-26.16,22.82-10.31-.45-16.3-7.89-27.19-4.27-1.53.51-.56,2.81.96,2.31h0Z"/><path class="cls-1" d="m298.39,386.11c10.77-2.68,20.75,5.4,31.22.87,3.39-1.47,5.96-5.46,7.55-8.57,4.42-8.63,7.82-15.16,17.66-18.57,1.53-.53.55-2.83-.96-2.31-9.5,3.29-13.64,8.92-17.86,17.69-8.99,18.63-23.49,4.81-37.92,8.4-1.55.39-1.25,2.87.31,2.48h0Z"/><path class="cls-1" d="m413.09,337.2c4.84-5.49,12.91.98,19.13-.44,1.56-.36,1.26-2.84-.31-2.48-7.48,1.71-14.61-5.62-20.82,1.42-1.07,1.21.93,2.71,2,1.51h0Z"/><path class="cls-1" d="m302.43,403.05c-3.82,1.09-6.68,2.98-8.57,6.51-2.08,3.88-2.19,8.31-5.44,11.6-1.12,1.13.41,3.12,1.54,1.97,2.45-2.47,3.67-5.31,4.7-8.59,1.52-4.84,3.64-7.74,8.73-9.19,1.55-.44.57-2.74-.96-2.31h0Z"/><path class="cls-1" d="m1245.76,90.59c9.74-5.74,19.84-19.83,32.6-14.08,8.84,3.98,13.06,12.93,23.37,13.67,5.24.38,10.2-4.77,13.75-7.87,11.64-10.17,22.33-13.65,34.1-2.52,6.66,6.29,15.69,16.78,26.1,11.71,12.4-6.03,21.49-22.05,35.63-9.51,6.04,5.35,11.35,10.2,18.84,13.49,1.48.65,2.18-1.76.72-2.4-15.19-6.68-22.94-25.81-40.68-15.4-12.79,7.51-19.39,18.15-33.31,5.72-4.77-4.26-9.32-10.59-15.56-12.88-6.16-2.25-10.98-.55-16.79,2.13-14.64,6.76-19.12,22.58-36.93,7.66-18.85-15.79-25.52-2.26-43.06,8.08-1.39.82-.18,3.01,1.21,2.19h0Z"/><path class="cls-1" d="m1245.26,111.09c9.74-5.74,19.84-19.83,32.6-14.08,8.84,3.99,13.06,12.93,23.37,13.67,5.24.38,10.2-4.78,13.75-7.87,11.65-10.17,22.33-13.65,34.1-2.52,6.66,6.29,15.69,16.78,26.1,11.71,12.4-6.03,21.49-22.05,35.63-9.51,6.04,5.35,11.35,10.2,18.84,13.49,1.48.65,2.18-1.76.72-2.4-15.18-6.68-22.94-25.82-40.68-15.4-12.79,7.51-19.39,18.15-33.31,5.72-4.77-4.26-9.32-10.59-15.56-12.87-6.16-2.25-10.98-.56-16.79,2.12-14.64,6.76-19.12,22.58-36.93,7.67-18.86-15.79-25.51-2.27-43.06,8.08-1.39.82-.18,3.01,1.21,2.19h0Z"/><path class="cls-1" d="m1244.76,131.58c8.81-5.19,18.48-17.96,29.61-15.42,10.45,2.38,15.04,14.2,26.35,15.01,5.24.38,10.2-4.78,13.75-7.87,11.64-10.17,22.33-13.65,34.1-2.52,6.66,6.29,15.69,16.78,26.1,11.72,12.4-6.03,21.49-22.06,35.63-9.51,6.04,5.35,11.35,10.2,18.84,13.5,1.48.65,2.18-1.76.72-2.4-15.18-6.68-22.94-25.82-40.68-15.4-12.79,7.52-19.39,18.15-33.31,5.72-4.77-4.26-9.32-10.59-15.56-12.87-6.16-2.25-10.98-.56-16.79,2.12-14.65,6.76-19.12,22.58-36.93,7.66-18.77-15.73-25.62-2.19-43.06,8.08-1.39.82-.18,3.01,1.21,2.19h0Z"/><path class="cls-1" d="m1339.48,106.52c11.85,1.17,15.43,15.07,26.35,16.33,12.25,1.41,17.99-12.41,29.93-11.54,1.61.12,1.67-2.39.06-2.5-12.63-.92-20.74,16.4-33.18,10.18-9.23-4.61-11.67-13.84-23.1-14.97-1.61-.16-1.66,2.34-.06,2.5h0Z"/><path class="cls-1" d="m1273.83,86.93c10.93,1.94,16.75,13.39,28.16,13.51,3.7.04,7.67-2.56,10.38-4.75,7.55-6.08,13.32-10.66,23.69-9.76,1.61.14,1.66-2.36.06-2.5-10.02-.87-16.09,2.59-23.52,8.88-15.8,13.36-23.41-5.18-38.05-7.77-1.57-.28-2.31,2.12-.72,2.4h0Z"/><path class="cls-1" d="m1398.5,88.99c6.65-3.04,11.39,6.15,17.65,7.39,1.57.31,2.31-2.08.72-2.4-7.53-1.48-11.06-11.08-19.59-7.19-1.47.67-.25,2.86,1.21,2.19h0Z"/><path class="cls-1" d="m1270.61,104.05c-3.93-.57-7.31,0-10.48,2.46-3.48,2.69-5.38,6.7-9.7,8.38-1.48.57-.9,3.01.61,2.43,3.24-1.26,5.52-3.35,7.79-5.93,3.36-3.8,6.47-5.58,11.72-4.83,1.6.23,1.64-2.27.06-2.5h0Z"/><path class="cls-1" d="m56.28,168.41c-13.63,16.49,15.41,33.12,21.96,46.16,3.32,6.62,8.11,19.09,17.43,19.09,8.29,0,16.48-5.52,16.34-14.36-.02-1-1.57-1-1.55,0,.11,6.96-5,10.72-11.02,12.52-7.34,2.2-12.54-4.53-15.74-9.87-2.92-4.87-4.55-10.64-8.15-15.09-7.7-9.51-29.43-23.72-18.16-37.35.63-.77-.46-1.87-1.1-1.1h0Z"/><path class="cls-1" d="m78.21,203.84c-6.57-9.41-17.34-16.16-21.13-27.38-2.15-6.38,2.8-11.24,7.55-14.44,5.04-3.39,10.88-1.7,15.55,1.22,7.3,4.58,11.96,13.4,15.86,20.78,5.68,10.75,24.23,35.38,6.69,42.57-13.53,5.55-19.37-14.37-24.51-22.76-.52-.85-1.87-.07-1.34.78,5.88,9.61,13.03,31.4,28.62,22.51,16.42-9.36-2.65-32.88-8.12-43.89-7.46-15.03-23.62-34.93-39.55-17.44-11.6,12.74,12.98,30.12,19.05,38.81.57.82,1.92.04,1.34-.78h0Z"/><path class="cls-1" d="m72.15,175.56c-2.61,5.29-6,23.03,2.85,24.53,4.55.77,6.94-3.21,6.27-7.21-1.05-6.23-4.48-12.03-7.77-17.32-.53-.85-1.87-.07-1.34.78,2.29,3.69,4.41,7.48,6.06,11.51.89,2.18,1.57,4.47,1.64,6.84.09,3.08-3.22,4.76-5.86,3.47-5.68-2.77-2.6-17.53-.49-21.82.44-.89-.9-1.68-1.34-.78h0Z"/><path class="cls-1" d="m72.27,176.5c4.14,3.64,19.07,20.01,24.34,10.84,5.88-10.25-18.49-12.63-23.79-12.16-.99.09-1,1.64,0,1.55,5.06-.44,25.05.95,22.66,9.32-2.44,8.54-19.22-8.1-22.11-10.64-.75-.66-1.85.44-1.1,1.1h0Z"/><path class="cls-1" d="m71.53,182.92c1.5.39,2.8-.06,4.21-.57.93-.34.53-1.84-.41-1.5-1.11.4-2.19.88-3.39.57-.97-.25-1.38,1.24-.41,1.5h0Z"/><path class="cls-1" d="m70.95,187.68c2.35.06,4.49-.49,6.66-1.38.91-.38.51-1.88-.41-1.5-2.04.84-4.03,1.38-6.24,1.32-1-.02-1,1.53,0,1.55h0Z"/><path class="cls-1" d="m70.13,191.56c2.81,1.41,6.52.07,9.07-1.38.87-.49.09-1.84-.78-1.34-1.99,1.13-5.27,2.5-7.5,1.38-.89-.45-1.68.89-.78,1.34h0Z"/><path class="cls-1" d="m70.57,195.86c3.35,1.41,7.16.69,10.32-.89.9-.45.11-1.79-.78-1.34-2.6,1.3-5.97,2.07-8.75.89-.91-.39-1.7.95-.78,1.34h0Z"/><path class="cls-1" d="m78.22,180.79c1.14-1.15,1.45-2.54,1.59-4.1.09-1-1.47-.99-1.55,0-.1,1.14-.3,2.16-1.13,3-.71.71.39,1.81,1.1,1.1h0Z"/><path class="cls-1" d="m81.77,183.84c1.75-1.73,2.12-4.61,1.56-6.91-.24-.97-1.73-.56-1.5.41.43,1.77.18,4.07-1.16,5.4-.71.71.39,1.8,1.1,1.1h0Z"/><path class="cls-1" d="m85.58,186.8c2.66-2.23,3.36-5.82,2.49-9.08-.26-.97-1.76-.56-1.5.41.74,2.77.16,5.68-2.09,7.57-.77.64.34,1.74,1.1,1.1h0Z"/><path class="cls-1" d="m89.8,189.15c2.51-2.49,4.2-5.83,3.45-9.42-.2-.98-1.7-.56-1.5.41.63,3.03-.96,5.83-3.05,7.91-.71.71.39,1.8,1.1,1.1h0Z"/><path class="cls-1" d="m45.98,197.33c15.27-3.65,19.46,16.75,23.18,27.37,1.72,4.91,4.14,8.92,7.3,13.07,3.25,4.26,6.27,8.11,8.32,13.11,4.21,10.25-7.84,21.1-17.81,16.06-.89-.45-1.68.89-.78,1.34,7.87,3.98,16.23-.55,20.14-7.92,5.32-10.03-8.21-22.21-12.83-29.45-7.25-11.36-7.95-39.86-27.94-35.08-.97.23-.56,1.73.41,1.5h0Z"/><path class="cls-1" d="m68.81,230.44c-5.91-10.7-7.79-32.88-22.98-34.68-6.08-.72-14.54,4.41-16.42,10.32-2.63,8.3.95,16.48,4.92,23.74,4.94,9.03,11.98,17.09,17.85,25.53,4.1,5.89,9.09,12.56,16.72,13.38,6.23.67,13.64-7.08,13.4-13.13-.41-10.02-8.41-17.15-13.48-25.15-.53-.84-1.88-.07-1.34.78,3.2,5.05,7.11,9.6,10.26,14.69,8.09,13.07-5.52,27.58-17.52,16.78-5.21-4.68-8.79-11.29-12.77-16.98-3.92-5.61-8.28-10.75-11.77-16.68-3.67-6.22-6.63-13.56-5.29-20.88,1.87-10.14,16.01-13.71,22.92-7.1,7.99,7.65,8.98,20.76,14.17,30.17.48.88,1.83.09,1.34-.78h0Z"/><path class="cls-1" d="m44.89,214.75c4.93.01,21.05,4.41,19.24,11.4-1.72,6.62-8.6.52-10.88-1.95-2.96-3.21-5.4-6.92-7.69-10.62-.52-.85-1.87-.07-1.34.78,2.97,4.82,15.13,24.21,21.13,12.88,4.46-8.42-15.23-14.03-20.46-14.04-1,0-1,1.55,0,1.55h0Z"/><path class="cls-1" d="m44.14,214.17c1.61,6.03,7.11,18.09,2.63,23.66-2.41,2.99-5.93-.54-6.49-3.01-.6-2.65.08-5.67.64-8.25.91-4.17,2.4-8.55,4.64-12.21.52-.86-.82-1.64-1.34-.78-3.3,5.38-11.43,25.95.23,26.71,10.53.68,2.34-22.2,1.19-26.52-.26-.96-1.76-.55-1.5.41h0Z"/><path class="cls-1" d="m50.2,215.58c-.25,1.23-1.14,1.97-2.01,2.79-.73.69.37,1.79,1.1,1.1,1.07-1.02,2.1-1.98,2.41-3.48.2-.98-1.3-1.39-1.5-.41h0Z"/><path class="cls-1" d="m54.88,216.81c-.93,2.01-2.31,3.56-3.97,4.99-.76.66.34,1.75,1.1,1.1,1.75-1.52,3.23-3.19,4.22-5.31.42-.9-.92-1.69-1.34-.78h0Z"/><path class="cls-1" d="m58.54,218.6c.03,2.5-2.64,4.83-4.56,6.1-.83.55-.05,1.9.78,1.34,2.39-1.58,5.36-4.33,5.33-7.44-.01-1-1.56-1-1.55,0h0Z"/><path class="cls-1" d="m62.2,220.91c-.17,3.01-2.34,5.7-4.68,7.43-.79.59-.02,1.94.78,1.34,2.81-2.08,5.24-5.17,5.45-8.78.06-1-1.5-1-1.55,0h0Z"/><path class="cls-1" d="m46.36,219.47c-1.21.39-2.24.08-3.38-.37-.93-.37-1.33,1.13-.41,1.5,1.4.55,2.74.84,4.2.37.95-.3.54-1.8-.41-1.5h0Z"/><path class="cls-1" d="m47.51,223.99c-1.79.6-3.97-.16-5.38-1.34-.76-.64-1.87.45-1.1,1.1,1.81,1.52,4.55,2.52,6.89,1.74.94-.32.54-1.82-.41-1.5h0Z"/><path class="cls-1" d="m48.27,228.8c-2.62,1.11-5.49.25-7.55-1.56-.75-.66-1.85.44-1.1,1.1,2.64,2.33,6.13,3.21,9.43,1.81.92-.39.13-1.73-.78-1.34h0Z"/><path class="cls-1" d="m48.68,233.53c-2.78.93-6.04,1.14-8.46-.78-.78-.61-1.88.48-1.1,1.1,2.88,2.28,6.6,2.31,9.98,1.18.94-.32.54-1.82-.41-1.5h0Z"/><path class="cls-2" d="m380.01,59.68c-4.58,20.95-19.79,38.99-19.54,40.97,2.68,20.65,6.98,30.77,6.98,30.77,1.98.43,12.11-2.35,13.22,2.15,1.21,4.91-10.36,5.9-15.4,6.87l-.25.05c-5.04.97-16.15,4.34-16.86-.67-.65-4.59,9.8-5.76,11.48-6.89,0,0,.23-10.99-4.97-31.16-.5-1.93-21.34-13.06-33.39-30.81"/><path class="cls-2" d="m346.21,58.59c-6.7,1.48-26.9,3.96-25.84,10.38,1.55,8.27,20.97,1.75,35.59-1.18,10.03-2.01,28.48-4,23.5-11.43-3.09-4.6-27.67,1-33.25,2.23"/><path class="cls-1" d="m333.03,80.66c3.93,3.96,8.35,7.44,12.89,10.68,2.3,1.64,8.12,6.25,11.44,5.01,3.63-1.36,6.01-5.9,7.97-8.95,2.87-4.48,5.69-9.37,7.41-14.44.12-.35-.13-.75-.48-.84-11.62-3.03-29.33.57-39.09,7.46-.72.51-.03,1.7.69,1.19,6.11-4.32,14.1-5.95,21.34-7.22,4.21-.74,8.48-1.02,12.74-.8,5.6.29,1.44,4.62-.26,7.84-1.63,3.09-3.47,6.07-5.42,8.97-3.32,4.93-6.07,6.22-11.39,3.32-6.17-3.36-11.93-8.21-16.87-13.2-.62-.63-1.59.34-.97.97h0Z"/><path class="cls-1" d="m334.2,81.22c12.58,3,27.61.45,37.74-7.85.69-.56-.29-1.53-.97-.97-9.73,7.97-24.34,10.37-36.4,7.5-.86-.21-1.23,1.12-.37,1.32h0Z"/><path class="cls-1" d="m353.44,77.05c2.07-9.04,4.52-17.99,6.95-26.93,1.16-4.26,2.33-8.51,3.52-12.76.33-1.2.67-2.39,1-3.58.35-1.25-.53-.38.29-.41,2.76-.11,16.91-.35,16.93-.81-.22,4.8.75,4.04-4.14,4.25-3.12.13-6.24.27-9.37.4-.32.01-.56.2-.66.5-4.16,12.6-7.89,25.63-10.51,38.64-.17.86,1.15,1.23,1.32.37,2.07-10.24,5.06-20.34,7.97-30.36.59-2.05,1.21-4.09,1.84-6.12.67-2.17.72-1.68,3.19-1.79,3.61-.16,7.22-.31,10.82-.47.39-.02.67-.3.69-.69.08-1.76.16-3.52.24-5.29.02-.36-.33-.7-.69-.69-6.11.23-12.23.47-18.34.7-.31.01-.58.2-.66.5-4.13,14.65-8.32,29.32-11.71,44.16-.2.86,1.13,1.23,1.32.37h0Z"/><path class="cls-1" d="m350.38,77.46c3.35.88,6.93.4,10.16-.71.83-.29.47-1.61-.37-1.32-3.01,1.03-6.31,1.53-9.43.71-.86-.23-1.22,1.1-.37,1.32h0Z"/><path class="cls-1" d="m1356.21,341.52c-8.2,5.11-16.3,10.63-24.83,15.16-1.14.61-.13,2.34,1.01,1.73,8.53-4.53,16.63-10.06,24.83-15.16,1.09-.68.09-2.42-1.01-1.73h0Z"/><path class="cls-1" d="m1346.63,338.5c-5.75,3.46-11.49,6.91-17.24,10.37-1.11.66-.1,2.4,1.01,1.73,5.75-3.46,11.49-6.91,17.24-10.37,1.11-.66.1-2.4-1.01-1.73h0Z"/><path class="cls-1" d="m1360.09,347.92c-7.28,5.36-14.98,10-22.71,14.66-1.1.67-.1,2.4,1.01,1.73,7.74-4.66,15.43-9.3,22.71-14.66,1.03-.76.03-2.5-1.01-1.73h0Z"/><path class="cls-1" d="m1408.72,354.75c-8.2,5.1-16.3,10.63-24.83,15.16-1.14.61-.13,2.34,1.01,1.73,8.53-4.53,16.63-10.06,24.83-15.16,1.09-.68.09-2.42-1.01-1.73h0Z"/><path class="cls-1" d="m1399.14,351.73c-5.75,3.45-11.49,6.91-17.24,10.36-1.11.66-.1,2.4,1.01,1.73,5.75-3.45,11.49-6.91,17.24-10.36,1.11-.66.1-2.4-1.01-1.73h0Z"/><path class="cls-1" d="m1412.6,361.15c-7.28,5.36-14.98,10-22.72,14.66-1.11.66-.1,2.4,1.01,1.73,7.74-4.66,15.44-9.3,22.72-14.66,1.03-.76.03-2.5-1.01-1.73h0Z"/><path class="cls-1" d="m1327.2,330.13c-4.89,11.14-8.35,28.39,3.45,36.8,9.48,6.75,23.52,6.97,30.97-2.84,2.41-3.17,11.62-22.32,5.49-24.71-12.37-4.82-25.7-9.15-39.04-9.74-1.29-.06-1.29,1.95,0,2,10.1.45,19.96,3.34,29.52,6.46,2.84.93,5.66,1.94,8.45,3,2.08.79-.22,8.15-.75,10.17-3.4,12.93-12.59,21.11-26.49,17.63-17.57-4.4-15.44-25.07-9.87-37.76.51-1.17-1.21-2.19-1.73-1.01h0Z"/><path class="cls-1" d="m1331.58,336.24c-3.6,8.16-5.98,20.59,2.65,26.7,6.95,4.92,17.23,5.07,22.71-2.08,1.87-2.45,8.5-16.23,3.75-18.07-8.96-3.48-18.59-6.59-28.24-7.04-1.29-.06-1.29,1.94,0,2,7.26.34,14.35,2.42,21.22,4.66,2.05.67,4.08,1.4,6.1,2.16,1.18.44-.34,5.49-.72,6.92-2.41,9.15-8.92,14.81-18.72,12.36-12.4-3.1-10.98-17.61-7.01-26.59.52-1.17-1.21-2.19-1.73-1.01h0Z"/><path class="cls-1" d="m1419.58,353.93c-1.13,13.8-7.23,28.94-23.35,29.01-7.26.03-13.73-4.59-17.55-10.43-3.05-4.65-1.77-12.19-.86-17.23.31-1.72,2.32-10.38,4.05-10.17,3.3.41,6.59.95,9.87,1.52,9.64,1.68,19.48,3.89,28.34,8.16,1.16.56,2.17-1.17,1.01-1.73-11.7-5.63-24.97-8.06-37.76-9.76-8.32-1.11-8.61,18.43-8.24,23.74.85,12.41,14.59,18.85,25.62,17.65,14.57-1.58,19.88-18.54,20.88-30.77.11-1.29-1.9-1.28-2,0h0Z"/><path class="cls-1" d="m1412.81,357.24c-.79,9.77-5.11,20.39-16.5,20.42-11.33.03-14.7-10.26-13.05-19.44.2-1.14,1.67-7.17,2.63-7.05,2.36.29,4.7.69,7.04,1.09,6.93,1.21,14,2.8,20.37,5.85,1.16.55,2.17-1.17,1.01-1.73-8.5-4.07-18.1-5.83-27.38-7.08-6.22-.83-6.46,13.35-6.18,17.25.64,9.07,10.7,13.79,18.78,12.94,10.63-1.12,14.56-13.28,15.28-22.25.1-1.29-1.9-1.28-2,0h0Z"/><path class="cls-1" d="m1367.58,348.11c3.5-.08,6.85.78,9.83,2.64,1.1.69,2.1-1.05,1.01-1.73-3.26-2.04-7-3-10.84-2.91-1.29.03-1.29,2.03,0,2h0Z"/><path class="cls-1" d="m1366.36,352.96c3.5-.08,6.85.77,9.83,2.64,1.1.69,2.1-1.05,1.01-1.73-3.26-2.04-7-3-10.84-2.91-1.29.03-1.29,2.03,0,2h0Z"/><path class="cls-3" d="m1328.16,330.56c12.42-7.18,29.78-17.51,42.81-23.01,6.94-2.89,14.3-2.33,12.27,6.7-.67,2.67-2.96,7.77-4.81,4.2-1.8-3.45,2.27-8.45-4.73-5.32-8.88,3.98-27.79,13.21-36.31,18.29"/><path class="cls-3" d="m1420.54,353.83c14.56-9.98,18.82-14.57,32.35-22.55,6.47-3.82,14.3-2.33,12.27,6.7-.68,2.67-2.96,7.77-4.81,4.2-1.8-3.45,2.27-8.45-4.73-5.32-8.88,3.98-27.24,18.65-35.76,23.73"/><path class="cls-1" d="m297.79,248.41c-3.52.24-6.07,2.29-6.54,5.85-.42,3.18,1.68,6.19,4.62,7.21,3.78,1.32,8.31-1.15,8.82-5.17.58-4.57-2.42-7.75-6.9-7.89-1.29-.04-1.29,1.96,0,2.01,3.48.11,5.57,2.62,4.83,6.11-.65,3.06-4.59,3.95-7.07,2.64-1.76-.93-2.42-3.05-2.29-4.91.17-2.42,2.34-3.69,4.54-3.84,1.28-.09,1.29-2.09,0-2.01h0Z"/><path class="cls-1" d="m309.43,238.19c-2.92.2-5.37,1.91-5.77,4.95-.35,2.71,1.04,5.73,3.73,6.69,3.49,1.24,7.35-.61,8.12-4.29.87-4.13-2.13-7.21-6.09-7.34-1.29-.04-1.29,1.96,0,2,2.98.1,4.68,2.29,4.06,5.24-.54,2.59-3.83,3.39-5.94,2.25-1.5-.81-2.04-2.64-1.93-4.23.14-2.04,1.94-3.14,3.81-3.27,1.28-.09,1.29-2.09,0-2h0Z"/><path class="cls-1" d="m313,253.03c-2.68.19-4.93,1.76-5.29,4.56-.33,2.49.97,5.24,3.43,6.11,3.19,1.13,6.73-.57,7.43-3.93.79-3.77-1.94-6.61-5.57-6.74-1.29-.04-1.29,1.96,0,2.01,2.61.09,4.1,2,3.56,4.59-.47,2.26-3.36,2.96-5.2,1.96-1.32-.71-1.78-2.32-1.68-3.72.12-1.78,1.71-2.73,3.33-2.84,1.28-.09,1.29-2.09,0-2.01h0Z"/><path class="cls-1" d="m1264.6,228.25c-3.52.24-6.07,2.29-6.54,5.85-.42,3.18,1.68,6.19,4.62,7.21,3.78,1.32,8.31-1.15,8.82-5.17.58-4.57-2.42-7.75-6.9-7.89-1.29-.04-1.29,1.96,0,2.01,3.48.11,5.57,2.62,4.83,6.11-.65,3.06-4.59,3.95-7.07,2.64-1.76-.93-2.42-3.05-2.29-4.91.17-2.42,2.34-3.69,4.54-3.84,1.28-.09,1.29-2.09,0-2.01h0Z"/><path class="cls-1" d="m1276.25,218.03c-2.92.2-5.37,1.91-5.77,4.95-.35,2.71,1.04,5.73,3.73,6.69,3.49,1.24,7.35-.61,8.12-4.29.87-4.13-2.13-7.21-6.09-7.34-1.29-.04-1.29,1.96,0,2,2.98.1,4.68,2.29,4.06,5.24-.54,2.59-3.83,3.39-5.94,2.25-1.5-.81-2.04-2.64-1.93-4.23.14-2.04,1.94-3.14,3.81-3.27,1.28-.09,1.29-2.09,0-2h0Z"/><path class="cls-1" d="m1279.82,232.87c-2.68.19-4.93,1.76-5.29,4.56-.33,2.49.97,5.24,3.43,6.11,3.19,1.13,6.73-.57,7.43-3.93.79-3.77-1.94-6.61-5.57-6.74-1.29-.04-1.29,1.96,0,2.01,2.61.09,4.1,2,3.56,4.59-.47,2.26-3.36,2.96-5.2,1.96-1.32-.71-1.78-2.32-1.68-3.72.12-1.78,1.71-2.73,3.33-2.84,1.28-.09,1.29-2.09,0-2.01h0Z"/><path class="cls-1" d="m204.77,147.45c-3.12,26.99-5.93,54.02-8.81,81.04-1.9,17.88-5.82,35.36-2.15,53,.17.83,1.47,1.05,1.84.25,7.55-16.2,7.42-33.76,9.41-51.49,3.06-27.31,6.09-54.62,9.25-81.92.15-1.28-1.86-1.29-2-.02-2.87,24.73-5.61,49.47-8.39,74.2-2.05,18.3-1.23,39.4-9.07,56.23-1.06,2.28.81,1.76.02-2.02-.37-1.77-1.52-4.58-1.33-6.39.24-2.3.48-4.6.73-6.89,1.23-11.64,2.46-23.28,3.7-34.93,2.87-27.02,5.69-54.05,8.81-81.04.15-1.28-1.86-1.29-2-.02h0Z"/><path class="cls-1" d="m137.19,144.33c5.97-27.64,21.52-52.45,49.31-61.91,25.72-8.76,57.07,1.38,75.82,19.95,9.81,9.72,15.17,22.8,17.83,36.12,1.11,5.57-.63,15.36,1.55,20.44-1.14-2.66-3.76-5.65-6.09-7.22-6.2-4.18-12.32-5.46-19.54-3.39-3.15.91-5.44,3.22-7.64,5.46-4.07,4.14-2.01,3.2-4.45-1.65-4.95-9.85-22.07-13.47-30.29-5.85-1.96,1.81-3.98,3.85-4.88,6.46.6-1.74-.93-4.48-2.56-6.91-3.45-5.13-9.96-7.57-15.74-8.56-4.64-.8-11.08.24-14.62,3.61-1.89,1.8-3.76,3.71-4.54,6.31.17-.57-1.09-3.59-2.24-4.96-9.79-11.77-25.32-11.6-33.75,1.34-.71,1.08,1.03,2.08,1.74,1,9.33-14.32,29.16-10.43,33.44,5.77.26.99,1.65.97,1.94.02,5.78-19.08,33.26-11.69,35.41,5.57.14,1.08,1.65.86,1.94.02,6.43-18.74,32-12.76,34.82,4.83.14.86,1.47,1.02,1.84.25,8.11-16.64,27.83-14.23,34.71,1.78.42.98,1.81.41,1.87-.49,2.68-43.21-22.01-76.46-65.08-83.78-43.25-7.36-74.2,25.75-82.73,65.28-.27,1.26,1.66,1.79,1.93.53h0Z"/><path class="cls-1" d="m216.71,79.41c-2.95,24.56-7.05,48.95-8.56,73.67-.08,1.29,1.93,1.3,2,.02,1.51-24.72,5.61-49.11,8.56-73.67.15-1.28-1.85-1.29-2-.02h0Z"/><path class="cls-1" d="m217.47,78.45c-32.78,8.21-45.42,40.68-46.96,71.62-.06,1.29,1.94,1.31,2,.02,1.5-29.99,13.5-61.7,45.45-69.7,1.26-.31.76-2.26-.49-1.94h0Z"/><path class="cls-1" d="m219.55,80.7c23.91,16.06,30.14,53,25.1,79.54-.24,1.26,1.69,1.8,1.93.53,5.22-27.51-1.29-65.17-26.04-81.8-1.07-.72-2.07,1.02-1,1.74h0Z"/><path class="cls-1" d="m141.74,128.67c10.28-2.65,22.17-.38,30.37,6.49.98.82,2.41-.59,1.41-1.42-8.75-7.32-21.29-9.84-32.28-7.01-1.25.32-.75,2.26.49,1.94h0Z"/><path class="cls-1" d="m145.53,119.71c10.37-2.51,20.24.8,29.05,6.29,1.1.68,2.1-1.05,1-1.74-9.25-5.76-19.69-9.12-30.55-6.49-1.26.31-.76,2.25.49,1.94h0Z"/><path class="cls-1" d="m150.85,110.81c9.57-1.53,18.43,1.79,26.38,6.75,1.1.68,2.1-1.05,1-1.74-8.44-5.26-17.77-8.58-27.88-6.96-1.28.2-.77,2.14.49,1.94h0Z"/><path class="cls-1" d="m157.58,102.26c7.92-2.15,17.39,1.55,23.07,7.16.92.91,2.33-.51,1.41-1.42-6.17-6.09-16.39-10.02-24.98-7.68-1.25.34-.75,2.28.49,1.94h0Z"/><path class="cls-1" d="m165.98,94.2c6.81.79,14.72,1.92,18.65,8.26.68,1.09,2.42.1,1.74-.99-4.36-7.02-12.78-8.39-20.37-9.27-1.28-.15-1.29,1.86-.02,2h0Z"/><path class="cls-1" d="m174.97,88.18c5.56.66,11.86,1.88,15.05,7,.68,1.09,2.42.1,1.74-.99-3.61-5.79-10.43-7.25-16.77-8.01-1.28-.15-1.29,1.85-.02,2h0Z"/><path class="cls-1" d="m186.57,82.95c4.04.56,8.01,2.87,10.58,6.01.82,1,2.23-.43,1.41-1.42-2.93-3.57-7.43-5.96-11.98-6.6-1.28-.18-1.28,1.83-.02,2h0Z"/><path class="cls-1" d="m198.47,80.24c2.43.72,4.82,1.47,6.12,3.82.63,1.13,2.37.14,1.74-.99-1.57-2.84-4.38-3.88-7.34-4.76-1.24-.37-1.77,1.57-.53,1.93h0Z"/><path class="cls-1" d="m210.85,140.75c10.94-5.26,27.23-4.35,35.61,5.19.85.97,2.26-.45,1.41-1.42-8.99-10.24-26.31-11.14-38.01-5.51-1.16.56-.16,2.3.99,1.74h0Z"/><path class="cls-1" d="m211.8,131.12c9.79-4.14,25.14-1.59,34.24,3.49,1.13.63,2.13-1.1,1-1.74-9.87-5.51-25.66-7.97-36.24-3.5-1.19.5-.18,2.24.99,1.74h0Z"/><path class="cls-1" d="m212.91,123.01c9.06-5.36,22.95-1.56,31.64,2.69,1.15.56,2.16-1.17,1-1.74-9.35-4.58-23.91-8.45-33.64-2.7-1.11.66-.12,2.4.99,1.74h0Z"/><path class="cls-1" d="m214.58,114.47c8.89-3.93,19.35-3.92,27.57,1.56,1.08.72,2.07-1.02,1-1.74-8.84-5.89-20.05-5.77-29.57-1.57-1.18.52-.18,2.26.99,1.74h0Z"/><path class="cls-1" d="m214.99,106.62c7.44-3.27,17.68-2.56,24.73,1.41,1.12.63,2.13-1.1,1-1.74-7.72-4.35-18.61-4.97-26.73-1.41-1.18.52-.18,2.25.99,1.74h0Z"/><path class="cls-1" d="m216.12,99.7c5.3-3.63,14.66-2.9,19.98.36,1.1.68,2.1-1.06,1-1.74-5.89-3.62-16.1-4.39-21.97-.37-1.06.72-.07,2.47.99,1.74h0Z"/><path class="cls-1" d="m216.58,92.32c4.95-1.81,10.17-2.43,15.05-.07,1.16.56,2.17-1.17,1-1.74-5.36-2.59-11.07-2.14-16.55-.14-1.21.44-.72,2.38.49,1.94h0Z"/><path class="cls-1" d="m217.89,85.96c2.32-1.38,6.25-1.35,8.51.16,1.08.72,2.07-1.02,1-1.74-2.83-1.88-7.6-1.88-10.5-.16-1.11.66-.12,2.4.99,1.74h0Z"/><path class="cls-1" d="m215.62,74.16c.55-1.79.53-3.73.73-5.58.2-1.87,1.78-7.12,4.61-4.58,1.29,1.16.76,4.12.59,5.61-.2,1.75-.64,3.46-.88,5.21-.17,1.28,1.84,1.28,2,.02.43-3.23,3.18-11.69-1.62-13.09-7.21-2.11-6.16,7.99-7.36,11.88-.38,1.24,1.55,1.76,1.93.53h0Z"/><path class="cls-1" d="m218.2,73.44c-2.91-.33-9.25-2.1-10.56,1.84-1.46,4.37,6.42,4.73,8.81,4.98,3.36.36,11.68,2.52,12.07-2.85.29-3.92-8.15-3.75-10.31-3.98-1.29-.14-1.29,1.87-.02,2,2.54.27,5.61.23,7.94,1.43.68.56.53,1.16-.43,1.77-.78.29-1.85.17-2.67.14-1.81-.06-3.62-.26-5.43-.41-.46-.04-10.27-1.18-7.67-3.13,1.71-1.29,6.38,0,8.26.21,1.29.15,1.29-1.86.02-2h0Z"/><path class="cls-1" d="m125.92,340.08c1.49,3.1,4.48,4.7,7.85,3.75,3.12-.88,5.28-4,4.91-7.21-.41-3.64-3.78-6.8-7.54-6.1-4.63.87-6.91,4.95-5.33,9.32.43,1.2,2.37.69,1.93-.53-1.21-3.36.39-6.48,4.14-6.87,2.94-.3,4.95,2.77,4.84,5.42-.09,2.07-2.01,3.63-3.85,4.14-2.38.67-4.25-.91-5.22-2.93-.56-1.16-2.29-.15-1.73,1.01h0Z"/><path class="cls-1" d="m112.09,333.07c1.34,2.77,4.03,4.14,7.03,3.29,2.66-.75,4.57-3.3,4.48-6.05-.1-3.39-3.3-6.37-6.71-5.78-4.14.72-6.32,4.37-4.91,8.3.43,1.2,2.37.69,1.93-.53-1-2.78.16-5,3.07-5.76,2.68-.7,4.73,2.04,4.61,4.48-.09,1.76-1.78,3.06-3.33,3.5-2.03.57-3.61-.73-4.44-2.46-.56-1.16-2.29-.15-1.73,1.01h0Z"/><path class="cls-1" d="m124.6,324.28c1.22,2.53,3.7,3.78,6.44,3.01,2.44-.69,4.18-3.02,4.11-5.54-.09-3.12-3.03-5.84-6.16-5.3-3.78.66-5.78,4.01-4.49,7.59.43,1.2,2.37.69,1.93-.53-.88-2.45.12-4.39,2.69-5.06,2.35-.61,4.13,1.81,4.02,3.94-.07,1.54-1.57,2.67-2.92,3.05-1.78.5-3.16-.65-3.89-2.17-.56-1.16-2.29-.15-1.73,1.01h0Z"/><path class="cls-1" d="m68.18,51.76c-2.93-1.45-6.32-1.23-8.41,1.51-1.87,2.44-2.17,6.16-.05,8.57,2.72,3.09,7.44,3.51,10.28.4,3.18-3.5,1.91-8.16-1.82-10.49-1.1-.69-2.1,1.05-1.01,1.73,2.97,1.85,3.48,5.07,1.07,7.72-2.18,2.4-6.16,1-7.56-1.52-.9-1.63-.37-3.68.6-5.12,1.37-2.02,3.89-2.06,5.88-1.07,1.15.57,2.17-1.16,1.01-1.73h0Z"/><path class="cls-1" d="m83.4,48.79c-2.63-1.3-5.64-1.04-7.51,1.41-1.67,2.19-1.95,5.52-.07,7.68,2.42,2.77,6.63,3.07,9.13.3,2.82-3.12,1.79-7.3-1.56-9.39-1.1-.69-2.1,1.05-1.01,1.73,2.54,1.59,2.88,4.33.85,6.58-1.85,2.04-5.2.91-6.37-1.26-.76-1.39-.26-3.15.56-4.38,1.15-1.71,3.27-1.78,4.96-.94,1.15.57,2.17-1.16,1.01-1.73h0Z"/><path class="cls-1" d="m78.99,63.4c-2.43-1.2-5.18-.94-6.9,1.31-1.53,2.01-1.77,5.05-.04,7.03,2.21,2.54,6.08,2.8,8.36.27,2.58-2.85,1.65-6.69-1.42-8.61-1.1-.69-2.1,1.05-1.01,1.73,2.23,1.39,2.53,3.79.75,5.76-1.62,1.79-4.55.78-5.58-1.11-.67-1.23-.22-2.77.51-3.84,1-1.49,2.86-1.54,4.33-.81,1.15.57,2.17-1.16,1.01-1.73h0Z"/><path class="cls-1" d="m1139.31,632.58c-7.34,28.39,42.33,33.5,59.76,37.68,19.22,4.61,38.55,10.62,58.21,13.02,10.16,1.24,19.82-1.87,23.26-12.01.42-1.23-1.52-1.75-1.93-.53-5.35,15.79-24.78,10.31-36.53,7.85-12.8-2.69-25.45-6.22-38.19-9.24-16.97-4.03-69.52-9.68-62.65-36.24.32-1.25-1.61-1.78-1.93-.53h0Z"/><path class="cls-1" d="m1184.56,623.58c-9.97-2.07-26.38-9.43-36.44-3.73-7.56,4.29-10.24,11.98-7.7,20.19,3.22,10.38,19.64,14.04,28.51,16.83,16.91,5.33,34.38,9.67,51.66,13.61,13.98,3.19,29.02,8.03,43.43,8.24,7.58.11,14.68-3.59,17.59-10.66,7.94-19.32-25.85-25.31-36.53-28.17-1.25-.33-1.78,1.6-.53,1.93,12.37,3.32,39.87,6.84,35.13,25.71-4.81,19.12-46.64,3.69-58.55,1.02-19.79-4.43-39.97-9.43-59.13-16.08-11.94-4.14-28.92-14.3-16.51-28.42,8.36-9.51,28.52-.63,38.53,1.46,1.26.26,1.8-1.67.53-1.93h0Z"/><path class="cls-1" d="m1185.15,630.6c1.14-8.63,2.04-17.13,6.84-24.6,8.81-13.7,27.49-4,39.41-.27,8.47,2.65,16.12,6.84,15.64,16.6-.36,7.42-3.43,15.03-5.11,22.22-.29,1.26,1.64,1.79,1.93.53,2.07-8.86,6.23-18.51,4.97-27.75-1.07-7.89-10.55-11.28-16.9-13.52-8.27-2.93-27.85-12.5-36.12-4.99-9.46,8.59-11.06,19.62-12.66,31.79-.17,1.28,1.84,1.26,2,0h0Z"/><path class="cls-1" d="m1200.61,603.98c9.21,10.37,26.94,12.73,39.84,14.44,1.28.17,1.26-1.84,0-2-12.29-1.63-29.7-4.03-38.42-13.86-.86-.97-2.27.45-1.42,1.42h0Z"/><path class="cls-1" d="m1180.86,629.3c-.38,1.55-5.17,12.44-2.24,13.73,5.11,2.25,10.56,3.77,15.9,5.37,14.85,4.43,31.27,9.86,46.92,9.85.49,0,.79-.31.97-.73,4.89-11.96,5.34-11.61-6.7-13.67-17.91-3.07-36.76-7.65-53.38-15.14-1.17-.53-2.19,1.2-1.01,1.73,11.46,5.16,23.78,8.39,35.94,11.45,6.77,1.71,13.61,3.15,20.5,4.33,7.03,1.2,5.94,2.49,3.41,9.04-1.67,4.34-30.96-4.61-35.52-5.82-5.86-1.54-11.67-3.25-17.45-5.07-9.27-2.92-7.62-5.48-5.41-14.53.31-1.26-1.63-1.79-1.93-.53h0Z"/><path class="cls-1" d="m1244.79,645.23c4.43-12.13,9.98-23.63,19.5-32.59,5.54-5.22,12.23-5.87,18.43-9.55-3.5,2.08-6.04,5.48-8.24,8.8-.42.63.13,1.53.87,1.51,2.96-.1,21.41-1.76,11.81,2.49-6.23,2.76-12.44,5.44-18.46,8.65-9.84,5.25-17.93,11.64-25.58,19.72-.89.94.53,2.36,1.42,1.42,14.2-15.01,31.37-22.44,49.86-30.86.82-.37.54-1.62-.24-1.83-3.17-.87-6.12-1.34-9.37-1.63-2.11-.11-4.23-.13-6.34-.07-.37,0,6.12-6.96,7.76-7.94.8-.47.53-1.98-.51-1.87-23.6,2.58-35.36,22.76-42.84,43.22-.44,1.22,1.49,1.74,1.93.53h0Z"/><path class="cls-1" d="m1245.58,645.57c11.61-10.13,24.13-14.88,39.52-14.91,5.82,0,11.65.97,17.37,1.93,7.48,1.26-2.48,3.45-5.51,5.25-.65.39-.64,1.34,0,1.73,1.75,1.06,7.67,6.95,10.5,7.23-4.07-.41-8.14-1.19-12.17-1.88-6.06-1.04-12.11-2.15-18.2-2.96-10.23-1.35-23.36-3.76-32.72,2.04-1.1.68-.09,2.41,1.01,1.73,9.58-5.94,24.05-2.88,34.51-1.36,9.87,1.43,19.63,3.64,29.57,4.64.85.09,1.36-1.17.71-1.71-2.88-2.42-5.74-5.53-8.97-7.49-1.86-1.13,8.59-5.6,9.27-5.91.78-.36.58-1.67-.24-1.83-24.51-4.92-46.31-5.13-66.06,12.09-.98.85.45,2.26,1.42,1.42h0Z"/><path class="cls-1" d="m1053.73,681.44c-17.59,21.27,19.88,42.73,28.33,59.55,4.29,8.54,10.46,24.63,22.49,24.63,10.69,0,21.25-7.12,21.07-18.53-.02-1.29-2.02-1.29-2,0,.14,8.98-6.45,13.82-14.21,16.15-9.47,2.84-16.18-5.84-20.31-12.73-3.77-6.28-5.87-13.73-10.52-19.47-9.93-12.27-37.97-30.6-23.43-48.18.82-.99-.59-2.41-1.42-1.42h0Z"/><path class="cls-1" d="m1082.02,727.15c-8.48-12.14-22.37-20.84-27.26-35.32-2.78-8.23,3.61-14.5,9.74-18.63,6.51-4.38,14.04-2.19,20.06,1.58,9.41,5.91,15.43,17.28,20.46,26.81,7.32,13.87,31.26,45.65,8.63,54.92-17.46,7.16-24.99-18.54-31.62-29.37-.67-1.1-2.41-.09-1.73,1.01,7.59,12.4,16.81,40.5,36.93,29.04,21.19-12.08-3.43-42.42-10.48-56.62-9.63-19.39-30.47-45.06-51.02-22.49-14.96,16.43,16.74,38.86,24.57,50.07.73,1.05,2.47.05,1.73-1.01h0Z"/><path class="cls-1" d="m1074.2,690.67c-3.36,6.82-7.73,29.71,3.67,31.65,5.87.99,8.95-4.14,8.08-9.3-1.35-8.04-5.78-15.51-10.02-22.34-.68-1.09-2.41-.09-1.73,1.01,2.96,4.76,5.69,9.65,7.82,14.84,1.15,2.81,2.02,5.77,2.11,8.82.12,3.98-4.16,6.14-7.56,4.48-7.32-3.57-3.36-22.62-.63-28.14.57-1.15-1.16-2.17-1.73-1.01h0Z"/><path class="cls-1" d="m1074.36,691.89c5.34,4.69,24.6,25.82,31.4,13.98,7.58-13.22-23.85-16.29-30.69-15.69-1.28.11-1.29,2.12,0,2,6.53-.57,32.32,1.23,29.23,12.02-3.14,11.01-24.79-10.45-28.53-13.73-.97-.85-2.39.56-1.42,1.42h0Z"/><path class="cls-1" d="m1073.41,700.17c1.94.51,3.62-.08,5.44-.74,1.21-.43.69-2.37-.53-1.93-1.44.52-2.82,1.14-4.37.74-1.25-.33-1.78,1.61-.53,1.93h0Z"/><path class="cls-1" d="m1072.66,706.31c3.03.08,5.8-.63,8.59-1.77,1.18-.48.66-2.42-.53-1.93-2.63,1.08-5.19,1.77-8.05,1.7-1.29-.03-1.29,1.97,0,2h0Z"/><path class="cls-1" d="m1071.59,711.32c3.63,1.82,8.42.09,11.7-1.78,1.12-.64.11-2.37-1.01-1.73-2.56,1.46-6.8,3.22-9.68,1.78-1.15-.58-2.17,1.15-1.01,1.73h0Z"/><path class="cls-1" d="m1072.16,716.86c4.32,1.83,9.23.89,13.31-1.15,1.16-.58.14-2.31-1.01-1.73-3.35,1.68-7.7,2.67-11.29,1.15-1.18-.5-2.2,1.23-1.01,1.73h0Z"/><path class="cls-1" d="m1082.04,697.42c1.47-1.48,1.88-3.27,2.05-5.29.11-1.29-1.89-1.28-2,0-.13,1.47-.39,2.79-1.46,3.87-.91.92.51,2.34,1.42,1.42h0Z"/><path class="cls-1" d="m1086.61,701.36c2.25-2.23,2.74-5.94,2.01-8.92-.31-1.25-2.24-.72-1.93.53.55,2.28.24,5.25-1.5,6.97-.92.91.5,2.33,1.42,1.42h0Z"/><path class="cls-1" d="m1091.53,705.17c3.43-2.88,4.34-7.51,3.21-11.71-.34-1.25-2.27-.72-1.93.53.96,3.57.21,7.33-2.69,9.76-.99.83.43,2.24,1.42,1.42h0Z"/><path class="cls-1" d="m1096.97,708.2c3.24-3.22,5.42-7.52,4.45-12.15-.26-1.26-2.2-.73-1.93.53.82,3.9-1.24,7.52-3.93,10.2-.92.91.5,2.33,1.42,1.42h0Z"/><path class="cls-1" d="m1040.44,718.75c19.7-4.71,25.11,21.61,29.91,35.31,2.21,6.33,5.34,11.51,9.42,16.86,4.19,5.49,8.09,10.47,10.74,16.91,5.44,13.22-10.11,27.22-22.97,20.72-1.15-.58-2.16,1.15-1.01,1.73,10.16,5.13,20.94-.71,25.98-10.22,6.86-12.94-10.59-28.65-16.55-37.99-9.36-14.65-10.25-51.42-36.05-45.26-1.26.3-.72,2.23.53,1.93h0Z"/><path class="cls-1" d="m1069.9,761.47c-7.62-13.81-10.04-42.42-29.64-44.74-7.85-.93-18.76,5.68-21.18,13.32-3.4,10.7,1.23,21.27,6.34,30.62,6.37,11.65,15.45,22.05,23.03,32.93,5.29,7.6,11.73,16.21,21.56,17.26,8.03.86,17.6-9.14,17.28-16.94-.53-12.92-10.85-22.13-17.39-32.45-.69-1.09-2.42-.08-1.73,1.01,4.13,6.52,9.17,12.38,13.23,18.95,10.43,16.87-7.12,35.58-22.6,21.65-6.72-6.04-11.34-14.56-16.48-21.91-5.06-7.24-10.68-13.87-15.18-21.51-4.73-8.03-8.56-17.5-6.82-26.94,2.41-13.08,20.65-17.69,29.56-9.16,10.31,9.86,11.58,26.78,18.28,38.92.62,1.13,2.36.12,1.73-1.01h0Z"/><path class="cls-1" d="m1039.04,741.22c6.36.02,27.16,5.69,24.81,14.71-2.22,8.54-11.09.67-14.03-2.51-3.82-4.13-6.97-8.92-9.92-13.7-.68-1.1-2.41-.09-1.73,1.01,3.83,6.22,19.52,31.23,27.26,16.61,5.76-10.87-19.64-18.1-26.4-18.12-1.29,0-1.29,2,0,2h0Z"/><path class="cls-1" d="m1038.07,740.49c2.07,7.77,9.17,23.34,3.39,30.52-3.11,3.86-7.65-.7-8.37-3.88-.77-3.41.1-7.32.83-10.65,1.18-5.38,3.1-11.04,5.98-15.75.68-1.1-1.06-2.11-1.73-1.01-4.25,6.94-14.75,33.48.3,34.45,13.59.88,3.02-28.64,1.53-34.22-.33-1.24-2.27-.72-1.93.53h0Z"/><path class="cls-1" d="m1045.89,742.3c-.32,1.59-1.47,2.54-2.59,3.6-.94.89.48,2.31,1.42,1.42,1.38-1.31,2.71-2.55,3.11-4.49.26-1.26-1.67-1.8-1.93-.53h0Z"/><path class="cls-1" d="m1051.92,743.89c-1.2,2.59-2.98,4.59-5.13,6.44-.98.85.44,2.26,1.42,1.42,2.26-1.96,4.17-4.12,5.44-6.85.54-1.16-1.19-2.18-1.73-1.01h0Z"/><path class="cls-1" d="m1056.65,746.19c.04,3.22-3.41,6.23-5.88,7.87-1.07.71-.07,2.45,1.01,1.73,3.08-2.04,6.92-5.59,6.87-9.6-.02-1.29-2.02-1.29-2,0h0Z"/><path class="cls-1" d="m1061.37,749.18c-.22,3.88-3.02,7.36-6.04,9.59-1.03.76-.03,2.5,1.01,1.73,3.62-2.68,6.76-6.67,7.03-11.32.07-1.29-1.93-1.28-2,0h0Z"/><path class="cls-1" d="m1040.93,747.32c-1.56.5-2.89.1-4.36-.48-1.2-.47-1.72,1.46-.53,1.93,1.81.71,3.53,1.09,5.42.48,1.23-.39.7-2.33-.53-1.93h0Z"/><path class="cls-1" d="m1042.42,753.15c-2.31.78-5.13-.21-6.94-1.73-.98-.83-2.41.58-1.42,1.42,2.34,1.96,5.87,3.25,8.89,2.24,1.22-.41.7-2.34-.53-1.93h0Z"/><path class="cls-1" d="m1043.4,759.35c-3.37,1.44-7.08.33-9.74-2.02-.97-.85-2.39.56-1.42,1.42,3.41,3,7.91,4.14,12.17,2.33,1.19-.51.16-2.23-1.01-1.73h0Z"/><path class="cls-1" d="m1043.92,765.46c-3.59,1.2-7.79,1.47-10.92-1.01-1-.79-2.43.62-1.42,1.42,3.72,2.94,8.51,2.97,12.87,1.52,1.22-.41.7-2.34-.53-1.93h0Z"/><path class="cls-2" d="m1344.33,729.58c-4.58,20.95-19.79,38.99-19.54,40.97,2.68,20.65,6.98,30.77,6.98,30.77,1.98.43,12.11-2.35,13.22,2.15,1.21,4.91-10.36,5.9-15.4,6.87l-.25.05c-5.04.97-16.15,4.34-16.86-.67-.65-4.59,9.8-5.76,11.48-6.89,0,0,.23-10.99-4.97-31.16-.5-1.93-21.34-13.06-33.39-30.81"/><path class="cls-2" d="m1310.53,728.48c-6.7,1.48-26.9,3.96-25.84,10.38,1.55,8.27,20.97,1.75,35.59-1.18,10.03-2.01,28.48-4,23.5-11.43-3.09-4.6-27.67,1-33.25,2.23"/><path class="cls-1" d="m1297.36,750.55c3.93,3.96,8.35,7.44,12.89,10.68,2.3,1.64,8.12,6.25,11.44,5.01,3.63-1.36,6.01-5.9,7.97-8.95,2.87-4.48,5.69-9.37,7.41-14.44.12-.35-.13-.75-.48-.84-11.62-3.03-29.33.57-39.09,7.46-.72.51-.03,1.7.69,1.19,6.11-4.32,14.1-5.95,21.34-7.22,4.21-.74,8.48-1.02,12.74-.8,5.6.29,1.44,4.62-.26,7.84-1.63,3.09-3.47,6.07-5.42,8.97-3.32,4.93-6.07,6.22-11.39,3.32-6.17-3.36-11.93-8.21-16.87-13.2-.62-.63-1.59.34-.97.97h0Z"/><path class="cls-1" d="m1298.52,751.12c12.58,3,27.61.45,37.74-7.85.69-.56-.29-1.53-.97-.97-9.73,7.97-24.34,10.37-36.4,7.5-.86-.21-1.23,1.12-.37,1.32h0Z"/><path class="cls-1" d="m1317.76,746.94c2.07-9.04,4.52-17.99,6.95-26.93,1.16-4.26,2.33-8.51,3.52-12.76.33-1.2.67-2.39,1-3.58.35-1.25-.53-.38.29-.41,2.76-.11,16.91-.35,16.93-.81-.22,4.8.75,4.04-4.14,4.25-3.12.13-6.24.27-9.37.4-.32.01-.56.2-.66.5-4.16,12.6-7.89,25.63-10.51,38.64-.17.86,1.15,1.23,1.32.37,2.07-10.24,5.06-20.34,7.97-30.36.59-2.05,1.21-4.09,1.84-6.12.67-2.17.72-1.68,3.19-1.79,3.61-.16,7.22-.31,10.82-.47.39-.02.67-.3.69-.69.08-1.76.16-3.52.24-5.29.02-.36-.33-.7-.69-.69-6.11.23-12.23.47-18.34.7-.31.01-.58.2-.66.5-4.13,14.65-8.32,29.32-11.71,44.16-.2.86,1.13,1.23,1.32.37h0Z"/><path class="cls-1" d="m1314.7,747.36c3.35.88,6.93.4,10.16-.71.83-.29.47-1.61-.37-1.32-3.01,1.03-6.31,1.53-9.43.71-.86-.23-1.22,1.1-.37,1.32h0Z"/><path class="cls-1" d="m1423.52,760.76c-3.52.24-6.07,2.29-6.54,5.85-.42,3.18,1.68,6.19,4.62,7.21,3.78,1.32,8.31-1.15,8.82-5.17.58-4.57-2.42-7.75-6.9-7.89-1.29-.04-1.29,1.96,0,2.01,3.48.11,5.57,2.62,4.83,6.11-.65,3.06-4.59,3.95-7.07,2.64-1.76-.93-2.42-3.05-2.29-4.91.17-2.42,2.34-3.69,4.54-3.84,1.28-.09,1.29-2.09,0-2.01h0Z"/><path class="cls-1" d="m1435.16,750.54c-2.92.2-5.37,1.91-5.77,4.95-.35,2.71,1.04,5.73,3.73,6.69,3.49,1.24,7.35-.61,8.12-4.29.87-4.13-2.13-7.21-6.09-7.34-1.29-.04-1.29,1.96,0,2,2.98.1,4.68,2.29,4.06,5.24-.54,2.59-3.83,3.39-5.94,2.25-1.5-.81-2.04-2.64-1.93-4.23.14-2.04,1.94-3.14,3.81-3.27,1.28-.09,1.29-2.09,0-2h0Z"/><path class="cls-1" d="m1438.73,765.38c-2.68.19-4.93,1.76-5.29,4.56-.33,2.49.97,5.24,3.43,6.11,3.19,1.13,6.73-.57,7.43-3.93.79-3.77-1.94-6.61-5.57-6.74-1.29-.04-1.29,1.96,0,2.01,2.61.09,4.1,2,3.56,4.59-.47,2.26-3.36,2.96-5.2,1.96-1.32-.71-1.78-2.32-1.68-3.72.12-1.78,1.71-2.73,3.33-2.84,1.28-.09,1.29-2.09,0-2.01h0Z"/><path class="cls-1" d="m1366.9,561.34c6.3,26.43,12.91,52.79,19.45,79.16,4.33,17.45,6.63,35.21,16.12,50.54.44.72,1.74.49,1.81-.39,1.55-17.81-4.58-34.26-8.78-51.6-6.47-26.71-12.97-53.41-19.34-80.14-.3-1.26-2.18-.58-1.89.67,5.77,24.21,11.65,48.4,17.51,72.6,4.33,17.9,12.33,37.45,10.72,55.94-.22,2.5,1.36,1.38-.67-1.91-.95-1.54-3-3.78-3.44-5.55-.56-2.24-1.12-4.48-1.68-6.73-2.83-11.36-5.65-22.72-8.47-34.08-6.55-26.37-13.15-52.73-19.45-79.16-.3-1.26-2.19-.57-1.89.67h0Z"/><path class="cls-1" d="m1302.33,581.53c-3.85-28.01,2.28-56.65,25.14-75.05,21.17-17.03,54.1-18.23,78.07-7.2,12.55,5.77,22.06,16.23,29.11,27.84,2.95,4.86,4.67,14.65,8.45,18.67-1.98-2.11-5.47-4.02-8.19-4.7-7.26-1.81-13.45-.92-19.52,3.5-2.64,1.93-4.01,4.89-5.31,7.75-2.41,5.29-.79,3.69-4.74-.03-8.02-7.56-25.35-5.1-30.47,4.87-1.22,2.37-2.42,4.99-2.37,7.74-.03-1.84-2.4-3.89-4.77-5.61-5-3.64-11.95-3.71-17.72-2.66-4.63.84-10.33,4.02-12.5,8.4-1.16,2.34-2.26,4.77-2.11,7.48-.03-.6-2.26-3-3.8-3.9-13.23-7.71-27.76-2.24-31.25,12.81-.29,1.26,1.68,1.6,1.97.35,3.86-16.65,23.83-19.78,33.4-6.03.58.84,1.88.35,1.83-.65-1.1-19.9,27.25-22.36,35.18-6.89.5.97,1.84.25,1.83-.65-.37-19.81,25.7-22.94,34.37-7.38.42.76,1.73.45,1.81-.39,1.92-18.41,21.28-22.89,33.22-10.2.73.78,1.85-.23,1.59-1.1-12.26-41.52-46.84-64.31-89.82-56.46-43.16,7.89-60.91,49.58-55.4,89.65.18,1.28,2.17,1.12,2-.17h0Z"/><path class="cls-1" d="m1354.84,493.32c5.64,24.09,10.13,48.41,17.17,72.15.37,1.24,2.25.57,1.89-.67-7.04-23.74-11.53-48.06-17.17-72.15-.29-1.26-2.18-.58-1.89.67h0Z"/><path class="cls-1" d="m1355.22,492.16c-27.99,18.93-28.76,53.76-19.62,83.37.38,1.24,2.27.56,1.89-.67-8.86-28.69-8.43-62.59,18.86-81.05,1.07-.73-.06-2.38-1.13-1.66h0Z"/><path class="cls-1" d="m1357.94,493.57c27.96,6.91,46.45,39.49,50.81,66.15.21,1.27,2.21,1.11,2-.17-4.51-27.63-23.51-60.8-52.46-67.96-1.25-.31-1.6,1.67-.35,1.97h0Z"/><path class="cls-1" d="m1301.24,565.26c8.75-6.01,20.7-7.95,30.76-4.3,1.2.44,2.06-1.38.84-1.82-10.73-3.89-23.37-1.96-32.73,4.46-1.07.73.07,2.38,1.13,1.66h0Z"/><path class="cls-1" d="m1301.74,555.55c8.88-5.91,19.29-6.17,29.45-4.03,1.27.27,1.61-1.71.35-1.97-10.66-2.25-21.62-1.83-30.93,4.35-1.08.72.06,2.37,1.13,1.66h0Z"/><path class="cls-1" d="m1303.7,545.37c8.46-4.71,17.93-4.63,27.1-2.69,1.26.27,1.61-1.71.35-1.97-9.73-2.06-19.63-1.98-28.58,3-1.13.63.01,2.28,1.13,1.66h0Z"/><path class="cls-1" d="m1307.09,535.02c6.71-4.73,16.87-4.49,24.13-1.16,1.17.54,2.02-1.28.84-1.82-7.88-3.62-18.83-3.81-26.1,1.33-1.06.75.08,2.4,1.13,1.66h0Z"/><path class="cls-1" d="m1312.23,524.58c6.67-1.59,14.49-3.23,20.35,1.38,1.01.8,2.31-.73,1.3-1.53-6.5-5.1-14.88-3.51-22.31-1.73-1.26.3-.58,2.19.67,1.89h0Z"/><path class="cls-1" d="m1318.62,515.84c5.45-1.28,11.79-2.29,16.53,1.42,1.01.79,2.31-.73,1.3-1.53-5.37-4.2-12.29-3.24-18.5-1.78-1.26.3-.58,2.18.67,1.89h0Z"/><path class="cls-1" d="m1327.72,506.96c3.98-.85,8.51-.04,12,2.03,1.11.66,1.95-1.17.84-1.82-3.98-2.35-9.02-3.06-13.51-2.1-1.26.27-.58,2.16.67,1.89h0Z"/><path class="cls-1" d="m1337.98,500.35c2.53-.15,5.04-.27,7.06,1.49.98.85,2.27-.68,1.3-1.53-2.45-2.13-5.45-2.15-8.52-1.96-1.29.08-1.12,2.08.17,2h0Z"/><path class="cls-1" d="m1370.32,552.96c8.48-8.69,24.1-13.4,35.23-7.3,1.13.62,1.97-1.2.84-1.82-11.95-6.55-28.53-1.47-37.61,7.83-.9.93.63,2.21,1.53,1.3h0Z"/><path class="cls-1" d="m1367.91,543.59c7.79-7.25,23.08-10.09,33.37-8.43,1.27.21,1.63-1.77.35-1.97-11.16-1.8-26.84,1.29-35.25,9.11-.94.88.6,2.16,1.53,1.3h0Z"/><path class="cls-1" d="m1366.18,535.59c6.68-8.14,21.03-9.32,30.65-8.29,1.28.14,1.63-1.84.35-1.97-10.35-1.1-25.36.24-32.53,8.97-.82,1,.71,2.29,1.53,1.3h0Z"/><path class="cls-1" d="m1364.82,527c7.01-6.73,16.84-10.3,26.44-7.97,1.26.31,1.6-1.67.35-1.97-10.32-2.51-20.82,1.44-28.32,8.65-.93.9.61,2.18,1.53,1.3h0Z"/><path class="cls-1" d="m1362.52,519.48c5.88-5.62,15.74-8.46,23.72-7.14,1.27.21,1.62-1.76.35-1.97-8.74-1.44-19.18,1.69-25.59,7.82-.93.89.61,2.18,1.53,1.3h0Z"/><path class="cls-1" d="m1361.22,512.59c3.74-5.22,12.79-7.74,18.9-6.49,1.27.26,1.61-1.71.35-1.97-6.77-1.38-16.63,1.39-20.77,7.17-.75,1.04.78,2.35,1.53,1.3h0Z"/><path class="cls-1" d="m1359.12,505.5c4.04-3.39,8.72-5.76,14.12-5.21,1.28.13,1.64-1.84.35-1.97-5.92-.6-11.13,1.78-15.6,5.53-.98.83.14,2.48,1.13,1.66h0Z"/><path class="cls-1" d="m1358.18,499.07c1.71-2.09,5.41-3.4,8.05-2.76,1.26.3,1.6-1.67.35-1.97-3.3-.8-7.79.83-9.92,3.44-.82,1,.71,2.3,1.53,1.3h0Z"/><path class="cls-1" d="m1352.01,488.76c-.1-1.87-.78-3.69-1.23-5.49-.45-1.83-.76-7.3,2.76-5.88,1.61.65,2.13,3.61,2.47,5.07.41,1.71.58,3.47.96,5.19.28,1.26,2.16.58,1.89-.67-.7-3.18-1.01-12.07-6-11.74-7.49.49-3.06,9.61-2.85,13.69.07,1.29,2.06,1.12,2-.17h0Z"/><path class="cls-1" d="m1354.19,487.2c-2.85.68-9.41,1.2-9.3,5.35.12,4.61,7.65,2.25,9.98,1.67,3.28-.81,11.83-1.63,10.37-6.81-1.07-3.78-8.94-.73-11.05-.21-1.26.31-.57,2.2.67,1.89,2.48-.61,5.35-1.7,7.95-1.37.83.3.9.9.2,1.81-.64.54-1.68.79-2.46,1.05-1.72.57-3.49.99-5.24,1.47-.45.12-10.05,2.41-8.28-.32,1.17-1.8,6-2.19,7.83-2.63,1.26-.3.58-2.19-.67-1.89h0Z"/><path class="cls-1" d="m1182.72,824.15c1.49,3.1,4.48,4.7,7.85,3.75,3.12-.88,5.28-4,4.91-7.21-.41-3.64-3.78-6.8-7.54-6.1-4.63.87-6.91,4.95-5.33,9.32.43,1.2,2.37.69,1.93-.53-1.21-3.36.39-6.48,4.14-6.87,2.94-.3,4.95,2.77,4.84,5.42-.09,2.07-2.01,3.63-3.85,4.14-2.38.67-4.25-.91-5.22-2.93-.56-1.16-2.29-.15-1.73,1.01h0Z"/><path class="cls-1" d="m1168.9,817.13c1.34,2.77,4.03,4.14,7.03,3.29,2.66-.75,4.57-3.3,4.48-6.05-.1-3.39-3.3-6.37-6.71-5.78-4.14.72-6.32,4.37-4.91,8.3.43,1.2,2.37.69,1.93-.53-1-2.78.16-5,3.07-5.76,2.68-.7,4.73,2.04,4.61,4.48-.09,1.76-1.78,3.06-3.33,3.5-2.03.57-3.61-.73-4.44-2.46-.56-1.16-2.29-.15-1.73,1.01h0Z"/><path class="cls-1" d="m1181.4,808.34c1.22,2.53,3.7,3.78,6.44,3.01,2.44-.69,4.18-3.02,4.11-5.54-.09-3.12-3.03-5.84-6.16-5.3-3.78.66-5.78,4.01-4.49,7.59.43,1.2,2.37.69,1.93-.53-.88-2.45.12-4.39,2.69-5.06,2.35-.61,4.13,1.81,4.02,3.94-.07,1.54-1.57,2.67-2.92,3.05-1.78.5-3.16-.65-3.89-2.17-.56-1.16-2.29-.15-1.73,1.01h0Z"/><path class="cls-1" d="m1124.98,535.83c-2.93-1.45-6.32-1.23-8.41,1.51-1.87,2.44-2.17,6.16-.05,8.57,2.72,3.09,7.44,3.51,10.28.4,3.18-3.5,1.91-8.16-1.82-10.49-1.1-.69-2.1,1.05-1.01,1.73,2.97,1.85,3.48,5.07,1.07,7.72-2.18,2.4-6.16,1-7.56-1.52-.9-1.63-.37-3.68.6-5.12,1.37-2.02,3.89-2.06,5.88-1.07,1.15.57,2.17-1.16,1.01-1.73h0Z"/><path class="cls-1" d="m1140.2,532.85c-2.63-1.3-5.64-1.04-7.51,1.41-1.67,2.19-1.95,5.52-.07,7.68,2.42,2.77,6.63,3.07,9.13.3,2.82-3.12,1.79-7.3-1.56-9.39-1.1-.69-2.1,1.05-1.01,1.73,2.54,1.59,2.88,4.33.85,6.58-1.85,2.04-5.2.91-6.37-1.26-.76-1.39-.26-3.15.56-4.38,1.15-1.71,3.27-1.78,4.96-.94,1.15.57,2.17-1.16,1.01-1.73h0Z"/><path class="cls-1" d="m1135.79,547.46c-2.43-1.2-5.18-.94-6.9,1.31-1.53,2.01-1.77,5.05-.04,7.03,2.21,2.54,6.08,2.8,8.36.27,2.58-2.85,1.65-6.69-1.42-8.61-1.1-.69-2.1,1.05-1.01,1.73,2.23,1.39,2.53,3.79.75,5.76-1.62,1.79-4.55.78-5.58-1.11-.67-1.23-.22-2.77.51-3.84,1-1.49,2.86-1.54,4.33-.81,1.15.57,2.17-1.16,1.01-1.73h0Z"/><path class="cls-1" d="m1151.67,65.59c4.38-1.23,7.82,3.18,5.38,7.13-1.48,2.4-5.33,2.68-7.3.86-2.86-2.65-1.3-6.74,1.92-7.99,1.19-.46.67-2.4-.53-1.93-3.94,1.53-6.13,5.4-4.09,9.46,1.93,3.85,6.86,4.81,10.28,2.16,2.43-1.89,3.15-5.27,1.94-8.08-1.43-3.32-4.77-4.49-8.13-3.55-1.24.35-.71,2.28.53,1.93h0Z"/><path class="cls-1" d="m1137.27,59.83c3.71-1.04,6.57,2.72,4.6,6.07-1.22,2.09-4.5,2.31-6.17.75-2.39-2.24-1.19-5.75,1.57-6.82,1.19-.46.67-2.4-.53-1.93-3.55,1.38-5.41,4.86-3.6,8.49,1.71,3.43,5.84,4.23,8.97,2.1,2.34-1.59,2.9-4.79,1.9-7.3-1.2-3.01-4.27-4.12-7.27-3.29-1.24.35-.71,2.28.53,1.93h0Z"/><path class="cls-1" d="m1138.87,75c3.26-.91,5.75,2.38,4.03,5.32-1.07,1.82-3.94,2.01-5.4.65-2.1-1.96-1.05-5.03,1.37-5.97,1.19-.46.67-2.4-.53-1.93-3.25,1.26-4.96,4.47-3.3,7.79,1.57,3.13,5.35,3.87,8.21,1.93,2.14-1.46,2.67-4.38,1.75-6.69-1.1-2.76-3.9-3.8-6.66-3.03-1.24.35-.71,2.28.53,1.93h0Z"/><path class="cls-1" d="m387.32,702.76c-23.73,1.55-45.32,15.57-47.64,40.98-2.12,23.17,9.31,44.98,31.22,53.86,28.85,11.7,61.41-6.43,67.24-36.09,6.71-34.11-18.78-57.75-50.82-58.76-1.94-.06-1.94,2.95,0,3.01,34.73,1.09,55.73,28.65,46.05,62.74-8.15,28.67-46.36,35.8-69.61,22.28-16.79-9.76-23.44-31.25-20.69-49.52,3.37-22.47,23.15-34.12,44.26-35.5,1.93-.13,1.94-3.14,0-3.01h0Z"/><path class="cls-1" d="m387.17,717.04c-36.94,2.38-44.95,54.28-10.25,67.56,33.3,12.74,68-40.13,30.08-55.22-13.53-5.38-29.13-2.23-35.53,11.8-4.5,9.86-3.73,25.69,7.88,30.21,9.02,3.51,21.75,1.15,27.68-7.03,6.62-9.13,1.25-22.37-9.11-26.02-12.99-4.57-24.15,21-4.42,21.25,1.94.02,1.94-2.99,0-3.01-12-.15-8.44-12.08-.43-15.19,7.49-2.91,13.54,7.62,14.08,13.68.82,9.2-10.17,14.12-17.64,14.88-10.72,1.09-17.43-6.37-17.49-16.68-.09-16.35,13.1-25.72,28.43-22.84,14.05,2.63,22.55,15.5,19.35,29.29-3.89,16.77-23.83,25.68-39.5,22.71-15.45-2.93-23.14-18.34-22.86-32.71.34-16.9,13.44-28.61,29.72-29.66,1.93-.12,1.94-3.14,0-3.01h0Z"/><path class="cls-1" d="m390.39,695.15c1.18-9.98-.57-19.89,0-29.88.11-1.94-2.9-1.93-3.01,0-.57,9.99,1.18,19.9,0,29.88-.23,1.93,2.79,1.9,3.01,0h0Z"/><path class="cls-1" d="m387.37,808.1c1.18,9.98-.57,19.89,0,29.88.11,1.93,3.12,1.94,3.01,0-.57-9.99,1.18-19.9,0-29.88-.23-1.9-3.24-1.93-3.01,0h0Z"/><path class="cls-1" d="m332.43,750.3c-10-1.18-19.94.57-29.96,0-1.94-.11-1.93,2.9,0,3.01,10.01.57,19.95-1.18,29.96,0,1.93.23,1.9-2.79,0-3.01h0Z"/><path class="cls-1" d="m445.7,753.32c10-1.18,19.95.57,29.96,0,1.93-.11,1.94-3.12,0-3.01-10.02.57-19.96-1.18-29.96,0-1.9.22-1.93,3.24,0,3.01h0Z"/><path class="cls-1" d="m349.95,710.75c-6.18-7.94-14.56-13.61-21.19-21.12-1.29-1.46-3.41.68-2.13,2.13,6.63,7.51,15.01,13.18,21.19,21.12,1.19,1.53,3.31-.62,2.13-2.13h0Z"/><path class="cls-1" d="m427.91,792.76c7.96,6.16,13.66,14.53,21.19,21.13,1.45,1.27,3.59-.85,2.13-2.13-7.53-6.6-13.22-14.97-21.19-21.13-1.52-1.17-3.66.94-2.13,2.13h0Z"/><path class="cls-1" d="m348.09,790.63c-7.96,6.16-13.66,14.52-21.19,21.13-1.46,1.28.68,3.4,2.13,2.13,7.53-6.61,13.22-14.97,21.19-21.13,1.53-1.19-.61-3.3-2.13-2.13h0Z"/><path class="cls-1" d="m430.31,712.88c6.18-7.94,14.56-13.61,21.19-21.12,1.28-1.45-.84-3.59-2.13-2.13-6.62,7.51-15.01,13.18-21.19,21.12-1.18,1.51.94,3.66,2.13,2.13h0Z"/><path class="cls-1" d="m368.67,699.12c-2.7-9.69-8.19-18.15-11.47-27.61-.63-1.82-3.54-1.04-2.9.8,3.27,9.45,8.77,17.93,11.47,27.6.52,1.87,3.43,1.07,2.9-.8h0Z"/><path class="cls-1" d="m409.27,804.63c4.94,8.75,7.09,18.61,11.47,27.6.85,1.75,3.45.22,2.6-1.52-4.38-9-6.52-18.85-11.47-27.6-.96-1.69-3.56-.17-2.6,1.52h0Z"/><path class="cls-1" d="m336.41,771.96c-9.71,2.69-18.2,8.17-27.68,11.43-1.82.63-1.04,3.54.8,2.9,9.48-3.26,17.98-8.75,27.68-11.43,1.87-.52,1.07-3.42-.8-2.9h0Z"/><path class="cls-1" d="m442.22,731.49c8.77-4.93,18.66-7.07,27.68-11.44,1.75-.85.22-3.44-1.52-2.6-9.03,4.37-18.9,6.5-27.68,11.44-1.69.95-.18,3.55,1.52,2.6h0Z"/><path class="cls-1" d="m337.43,728.88c-8.78-4.94-18.65-7.06-27.68-11.44-1.74-.84-3.27,1.75-1.52,2.6,9.02,4.37,18.91,6.5,27.68,11.44,1.69.95,3.21-1.65,1.52-2.6h0Z"/><path class="cls-1" d="m440.92,774.86c9.7,2.69,18.2,8.17,27.68,11.43,1.84.63,2.63-2.28.8-2.9-9.48-3.26-17.97-8.74-27.68-11.43-1.88-.52-2.67,2.39-.8,2.9h0Z"/><path class="cls-1" d="m366.27,803.11c-4.95,8.76-7.09,18.61-11.47,27.61-.85,1.74,1.75,3.27,2.6,1.52,4.38-9,6.52-18.86,11.47-27.61.96-1.69-1.65-3.21-2.6-1.52h0Z"/><path class="cls-1" d="m412.36,699.92c2.7-9.68,8.19-18.15,11.47-27.6.64-1.84-2.27-2.62-2.9-.8-3.27,9.46-8.77,17.91-11.47,27.61-.52,1.88,2.38,2.67,2.9.8h0Z"/><path class="cls-1" d="m379.42,696.53c-.43-5.55-2.45-10.74-3.21-16.23-.27-1.92-3.17-1.1-2.9.8.73,5.22,2.7,10.15,3.1,15.42.15,1.92,3.16,1.94,3.01,0h0Z"/><path class="cls-1" d="m398.44,807.2c1.68,5.16,1.8,10.59,3.16,15.82.49,1.88,3.39,1.08,2.9-.8-1.36-5.23-1.48-10.66-3.16-15.82-.6-1.84-3.51-1.05-2.9.8h0Z"/><path class="cls-1" d="m333.81,761.24c-5.56.43-10.77,2.44-16.27,3.2-1.92.27-1.1,3.17.8,2.9,5.23-.72,10.18-2.69,15.47-3.09,1.92-.15,1.94-3.16,0-3.01h0Z"/><path class="cls-1" d="m444.79,742.29c5.17-1.68,10.62-1.79,15.86-3.15,1.88-.49,1.08-3.39-.8-2.9-5.24,1.35-10.69,1.47-15.86,3.15-1.84.6-1.05,3.51.8,2.9h0Z"/><path class="cls-1" d="m343.2,719.45c-4.22-3.63-9.34-5.85-13.76-9.2-1.55-1.17-3.04,1.44-1.52,2.6,4.21,3.19,9.13,5.27,13.15,8.73,1.46,1.26,3.61-.86,2.13-2.13h0Z"/><path class="cls-1" d="m435.07,784.3c4.86,2.44,8.77,6.25,13.45,8.97,1.68.98,3.2-1.63,1.52-2.6-4.68-2.72-8.59-6.53-13.45-8.97-1.73-.87-3.26,1.73-1.52,2.6h0Z"/><path class="cls-1" d="m356.8,797.36c-3.64,4.21-5.87,9.32-9.23,13.72-1.18,1.54,1.44,3.04,2.6,1.52,3.2-4.19,5.29-9.1,8.76-13.11,1.26-1.46-.86-3.6-2.13-2.13h0Z"/><path class="cls-1" d="m421.83,705.75c2.44-4.85,6.26-8.74,8.99-13.41.98-1.68-1.62-3.2-2.6-1.52-2.72,4.67-6.54,8.56-8.99,13.41-.87,1.73,1.73,3.25,2.6,1.52h0Z"/><path class="cls-1" d="m358.91,704.23c-2.44-4.85-6.26-8.74-8.99-13.41-.98-1.68-3.58-.16-2.6,1.52,2.72,4.67,6.55,8.56,8.99,13.41.88,1.74,3.47.21,2.6-1.52h0Z"/><path class="cls-1" d="m419.2,799.49c3.47,4,5.55,8.91,8.75,13.11,1.16,1.52,3.78.03,2.6-1.52-3.36-4.4-5.58-9.51-9.22-13.72-1.27-1.47-3.39.67-2.13,2.13h0Z"/><path class="cls-1" d="m341.54,781.7c-4.86,2.44-8.77,6.25-13.45,8.97-1.68.98-.16,3.58,1.52,2.6,4.68-2.72,8.59-6.53,13.45-8.97,1.74-.87.21-3.47-1.52-2.6h0Z"/><path class="cls-1" d="m437.06,721.58c4.02-3.46,8.94-5.54,13.15-8.73,1.53-1.16.03-3.78-1.52-2.6-4.42,3.35-9.53,5.56-13.76,9.2-1.47,1.27.67,3.39,2.13,2.13h0Z"/><path class="cls-1" d="m334.15,739.38c-5.18-1.68-10.62-1.79-15.87-3.15-1.88-.49-2.68,2.42-.8,2.9,5.24,1.35,10.69,1.47,15.87,3.15,1.85.6,2.64-2.31.8-2.9h0Z"/><path class="cls-1" d="m444.32,764.26c5.29.41,10.24,2.37,15.47,3.09,1.9.26,2.72-2.64.8-2.9-5.5-.76-10.71-2.77-16.27-3.2-1.94-.15-1.92,2.86,0,3.01h0Z"/><path class="cls-1" d="m376.79,806.39c-1.68,5.16-1.8,10.59-3.16,15.82-.49,1.88,2.42,2.68,2.9.8,1.35-5.23,1.47-10.66,3.15-15.82.6-1.85-2.3-2.64-2.9-.8h0Z"/><path class="cls-1" d="m401.73,696.53c.41-5.27,2.37-10.21,3.1-15.42.27-1.9-2.64-2.72-2.9-.8-.77,5.49-2.78,10.68-3.21,16.23-.15,1.94,2.86,1.92,3.01,0h0Z"/><path class="cls-1" d="m395.67,538.79c.4-6.17-.28-12.38-.64-18.54-.24-4-.46-25,7.55-13.59,6.08,8.67,4.99,21.03,10.99,29.43,1.84,2.58,14.1-3.51,16.36-4.18,3.35-.99,26.04-6.98,16.32,3.78-5.64,6.24-14.71,10.43-22.16,14.11-.45.22-.67.95-.36,1.37,6.16,8.21,13.57,15.33,18.8,24.25,2.92,4.98-.38,9.38-5.8,6.98-3.11-1.38-5.94-3.48-8.71-5.42-6.37-4.45-12.26-9.75-17.78-15.21-.43-.42-1.29-.39-1.57.2-2.39,5.02-4.84,10-7.49,14.89-1.37,2.52-2.89,4.95-4.44,7.37-1.36,2.09-2.88,4.06-4.56,5.92-2.2,3.07-5.17,2.76-8.91-.93-1.07-10.73,4.81-23.26,8.16-33.26.19-.56-.22-1.04-.7-1.23-3.79-1.49-7.85-2.26-11.8-3.19-2.56-.6-5.11-1.26-7.65-1.95-1.57-.42-15.33-4.75-6.06-8.03,8.96-3.16,20.1-1.8,29.47-1.76,1.29,0,1.29-2,0-2-6.74-.03-34.18-3.46-35.44,6.87-.5,4.11,9.27,6.18,11.49,6.85,4.83,1.44,9.81,2.43,14.7,3.64,5.83,1.45,2.42,5.08.88,9.84-1.44,4.45-11.92,34.43,2.18,30.43,6.57-1.86,11.45-12.34,14.41-17.55,2.47-4.34,4.63-8.87,6.78-13.38-.21.44,11.44,9.71,12.54,10.59,2,1.62,28.2,19.39,24.18,4.67-2.03-7.43-7.61-13.61-12.42-19.41-.6-.73-8.3-9.09-7.02-9.72,5.81-2.87,11.37-6.23,16.62-10.02,11.29-8.16,8.16-15.23-4.9-12.92-7.93,1.4-15.72,4.16-23.27,6.89-1.02.37-7.18-20.54-8.12-22.94-.85-2.17-8-16.18-12.36-9.8-6.35,9.3-.55,26.38-1.24,36.98-.08,1.29,1.92,1.28,2,0h0Z"/><path class="cls-1" d="m400.21,515.37c1.57,10.2,4.17,22.02,5.78,31.83"/><path class="cls-1" d="m375.76,544.79c9.53,1.2,19.43,3.13,27.63,4.72"/><path class="cls-1" d="m436.54,535.35c-9.13,3.46-19,8.32-27.69,13.34"/><path class="cls-1" d="m402.78,554.77c-5.42,7.36-9.91,15.81-13.77,29.37"/><path class="cls-1" d="m411.41,553.44c8.8,6.23,17.05,13.79,24.9,21.47"/><path class="cls-1" d="m33.6,786.21c9.74-5.74,19.84-19.83,32.6-14.08,8.84,3.98,13.06,12.93,23.37,13.67,5.24.38,10.2-4.77,13.75-7.87,11.64-10.17,22.33-13.65,34.1-2.52,6.66,6.29,15.69,16.78,26.1,11.71,12.4-6.03,21.49-22.05,35.63-9.51,6.04,5.35,11.35,10.2,18.84,13.49,1.48.65,2.18-1.76.72-2.4-15.19-6.68-22.94-25.81-40.68-15.4-12.79,7.51-19.39,18.15-33.31,5.72-4.77-4.26-9.32-10.59-15.56-12.88-6.16-2.25-10.98-.55-16.79,2.13-14.64,6.76-19.12,22.58-36.93,7.66-18.85-15.79-25.52-2.26-43.06,8.08-1.39.82-.18,3.01,1.21,2.19h0Z"/><path class="cls-1" d="m33.1,806.71c9.74-5.74,19.84-19.83,32.6-14.08,8.84,3.99,13.06,12.93,23.37,13.67,5.24.38,10.2-4.78,13.75-7.87,11.65-10.17,22.33-13.65,34.1-2.52,6.66,6.29,15.69,16.78,26.1,11.71,12.4-6.03,21.49-22.05,35.63-9.51,6.04,5.35,11.35,10.2,18.84,13.49,1.48.65,2.18-1.76.72-2.4-15.18-6.68-22.94-25.82-40.68-15.4-12.79,7.51-19.39,18.15-33.31,5.72-4.77-4.26-9.32-10.59-15.56-12.87-6.16-2.25-10.98-.56-16.79,2.12-14.64,6.76-19.12,22.58-36.93,7.67-18.86-15.79-25.51-2.27-43.06,8.08-1.39.82-.18,3.01,1.21,2.19h0Z"/><path class="cls-1" d="m32.6,827.2c8.81-5.19,18.48-17.96,29.61-15.42,10.45,2.38,15.04,14.2,26.35,15.01,5.24.38,10.2-4.78,13.75-7.87,11.64-10.17,22.33-13.65,34.1-2.52,6.66,6.29,15.69,16.78,26.1,11.72,12.4-6.03,21.49-22.06,35.63-9.51,6.04,5.35,11.35,10.2,18.84,13.5,1.48.65,2.18-1.76.72-2.4-15.18-6.68-22.94-25.82-40.68-15.4-12.79,7.52-19.39,18.15-33.31,5.72-4.77-4.26-9.32-10.59-15.56-12.87-6.16-2.25-10.98-.56-16.79,2.12-14.65,6.76-19.12,22.58-36.93,7.66-18.77-15.73-25.62-2.19-43.06,8.08-1.39.82-.18,3.01,1.21,2.19h0Z"/><path class="cls-1" d="m127.32,802.14c11.85,1.17,15.43,15.07,26.35,16.33,12.25,1.41,17.99-12.41,29.93-11.54,1.61.12,1.67-2.39.06-2.5-12.63-.92-20.74,16.4-33.18,10.18-9.23-4.61-11.67-13.84-23.1-14.97-1.61-.16-1.66,2.34-.06,2.5h0Z"/><path class="cls-1" d="m61.66,782.55c10.93,1.94,16.75,13.39,28.16,13.51,3.7.04,7.67-2.56,10.38-4.75,7.55-6.08,13.32-10.66,23.69-9.76,1.61.14,1.66-2.36.06-2.5-10.02-.87-16.09,2.59-23.52,8.88-15.8,13.36-23.41-5.18-38.05-7.77-1.57-.28-2.31,2.12-.72,2.4h0Z"/><path class="cls-1" d="m186.34,784.61c6.65-3.04,11.39,6.15,17.65,7.39,1.57.31,2.31-2.08.72-2.4-7.53-1.48-11.06-11.08-19.59-7.19-1.47.67-.25,2.86,1.21,2.19h0Z"/><path class="cls-1" d="m58.45,799.67c-3.93-.57-7.31,0-10.48,2.46-3.48,2.69-5.38,6.7-9.7,8.38-1.48.57-.9,3.01.61,2.43,3.24-1.26,5.52-3.35,7.79-5.93,3.36-3.8,6.47-5.58,11.72-4.83,1.6.23,1.64-2.27.06-2.5h0Z"/><path class="cls-1" d="m104.23,635.19c-8.2,5.11-16.3,10.63-24.83,15.16-1.14.61-.13,2.34,1.01,1.73,8.53-4.53,16.63-10.06,24.83-15.16,1.09-.68.09-2.42-1.01-1.73h0Z"/><path class="cls-1" d="m94.65,632.17c-5.75,3.46-11.49,6.91-17.24,10.37-1.11.66-.1,2.4,1.01,1.73,5.75-3.46,11.49-6.91,17.24-10.37,1.11-.66.1-2.4-1.01-1.73h0Z"/><path class="cls-1" d="m108.11,641.59c-7.28,5.36-14.98,10-22.71,14.66-1.1.67-.1,2.4,1.01,1.73,7.74-4.66,15.43-9.3,22.71-14.66,1.03-.76.03-2.5-1.01-1.73h0Z"/><path class="cls-1" d="m156.74,648.42c-8.2,5.1-16.3,10.63-24.83,15.16-1.14.61-.13,2.34,1.01,1.73,8.53-4.53,16.63-10.06,24.83-15.16,1.09-.68.09-2.42-1.01-1.73h0Z"/><path class="cls-1" d="m147.16,645.4c-5.75,3.45-11.49,6.91-17.24,10.36-1.11.66-.1,2.4,1.01,1.73,5.75-3.45,11.49-6.91,17.24-10.36,1.11-.66.1-2.4-1.01-1.73h0Z"/><path class="cls-1" d="m160.62,654.81c-7.28,5.36-14.98,10-22.72,14.66-1.11.66-.1,2.4,1.01,1.73,7.74-4.66,15.44-9.3,22.72-14.66,1.03-.76.03-2.5-1.01-1.73h0Z"/><path class="cls-1" d="m75.22,623.8c-4.89,11.14-8.35,28.39,3.45,36.8,9.48,6.75,23.52,6.97,30.97-2.84,2.41-3.17,11.62-22.32,5.49-24.71-12.37-4.82-25.7-9.15-39.04-9.74-1.29-.06-1.29,1.95,0,2,10.1.45,19.96,3.34,29.52,6.46,2.84.93,5.66,1.94,8.45,3,2.08.79-.22,8.15-.75,10.17-3.4,12.93-12.59,21.11-26.49,17.63-17.57-4.4-15.44-25.07-9.87-37.76.51-1.17-1.21-2.19-1.73-1.01h0Z"/><path class="cls-1" d="m79.61,629.91c-3.6,8.16-5.98,20.59,2.65,26.7,6.95,4.92,17.23,5.07,22.71-2.08,1.87-2.45,8.5-16.23,3.75-18.07-8.96-3.48-18.59-6.59-28.24-7.04-1.29-.06-1.29,1.94,0,2,7.26.34,14.35,2.42,21.22,4.66,2.05.67,4.08,1.4,6.1,2.16,1.18.44-.34,5.49-.72,6.92-2.41,9.15-8.92,14.81-18.72,12.36-12.4-3.1-10.98-17.61-7.01-26.59.52-1.17-1.21-2.19-1.73-1.01h0Z"/><path class="cls-1" d="m167.6,647.6c-1.13,13.8-7.23,28.94-23.35,29.01-7.26.03-13.73-4.59-17.55-10.43-3.05-4.65-1.77-12.19-.86-17.23.31-1.72,2.32-10.38,4.05-10.17,3.3.41,6.59.95,9.87,1.52,9.64,1.68,19.48,3.89,28.34,8.16,1.16.56,2.17-1.17,1.01-1.73-11.7-5.63-24.97-8.06-37.76-9.76-8.32-1.11-8.61,18.43-8.24,23.74.85,12.41,14.59,18.85,25.62,17.65,14.57-1.58,19.88-18.54,20.88-30.77.11-1.29-1.9-1.28-2,0h0Z"/><path class="cls-1" d="m160.83,650.9c-.79,9.77-5.11,20.39-16.5,20.42-11.33.03-14.7-10.26-13.05-19.44.2-1.14,1.67-7.17,2.63-7.05,2.36.29,4.7.69,7.04,1.09,6.93,1.21,14,2.8,20.37,5.85,1.16.55,2.17-1.17,1.01-1.73-8.5-4.07-18.1-5.83-27.38-7.08-6.22-.83-6.46,13.35-6.18,17.25.64,9.07,10.7,13.79,18.78,12.94,10.63-1.12,14.56-13.28,15.28-22.25.1-1.29-1.9-1.28-2,0h0Z"/><path class="cls-1" d="m115.61,641.78c3.5-.08,6.85.78,9.83,2.64,1.1.69,2.1-1.05,1.01-1.73-3.26-2.04-7-3-10.84-2.91-1.29.03-1.29,2.03,0,2h0Z"/><path class="cls-1" d="m114.38,646.63c3.5-.08,6.85.77,9.83,2.64,1.1.69,2.1-1.05,1.01-1.73-3.26-2.04-7-3-10.84-2.91-1.29.03-1.29,2.03,0,2h0Z"/><path class="cls-3" d="m76.18,624.23c12.42-7.18,29.78-17.51,42.81-23.01,6.94-2.89,14.3-2.33,12.27,6.7-.67,2.67-2.96,7.77-4.81,4.2-1.8-3.45,2.27-8.45-4.73-5.32-8.88,3.98-27.79,13.21-36.31,18.29"/><path class="cls-3" d="m168.56,647.49c14.56-9.98,18.82-14.57,32.35-22.55,6.47-3.82,14.3-2.33,12.27,6.7-.68,2.67-2.96,7.77-4.81,4.2-1.8-3.45,2.27-8.45-4.73-5.32-8.88,3.98-27.24,18.65-35.76,23.73"/><path class="cls-1" d="m278.08,668.64c-3.52.24-6.07,2.29-6.54,5.85-.42,3.18,1.68,6.19,4.62,7.21,3.78,1.32,8.31-1.15,8.82-5.17.58-4.57-2.42-7.75-6.9-7.89-1.29-.04-1.29,1.96,0,2.01,3.48.11,5.57,2.62,4.83,6.11-.65,3.06-4.59,3.95-7.07,2.64-1.76-.93-2.42-3.05-2.29-4.91.17-2.42,2.34-3.69,4.54-3.84,1.28-.09,1.29-2.09,0-2.01h0Z"/><path class="cls-1" d="m289.72,658.43c-2.92.2-5.37,1.91-5.77,4.95-.35,2.71,1.04,5.73,3.73,6.69,3.49,1.24,7.35-.61,8.12-4.29.87-4.13-2.13-7.21-6.09-7.34-1.29-.04-1.29,1.96,0,2,2.98.1,4.68,2.29,4.06,5.24-.54,2.59-3.83,3.39-5.94,2.25-1.5-.81-2.04-2.64-1.93-4.23.14-2.04,1.94-3.14,3.81-3.27,1.28-.09,1.29-2.09,0-2h0Z"/><path class="cls-1" d="m293.29,673.26c-2.68.19-4.93,1.76-5.29,4.56-.33,2.49.97,5.24,3.43,6.11,3.19,1.13,6.73-.57,7.43-3.93.79-3.77-1.94-6.61-5.57-6.74-1.29-.04-1.29,1.96,0,2.01,2.61.09,4.1,2,3.56,4.59-.47,2.26-3.36,2.96-5.2,1.96-1.32-.71-1.78-2.32-1.68-3.72.12-1.78,1.71-2.73,3.33-2.84,1.28-.09,1.29-2.09,0-2.01h0Z"/><path class="cls-1" d="m290.58,521.02c4.38-1.23,7.82,3.18,5.38,7.13-1.48,2.4-5.33,2.68-7.3.86-2.86-2.65-1.3-6.74,1.92-7.99,1.19-.46.67-2.4-.53-1.93-3.94,1.53-6.13,5.4-4.09,9.46,1.93,3.85,6.86,4.81,10.28,2.16,2.43-1.89,3.15-5.27,1.94-8.08-1.43-3.32-4.77-4.49-8.13-3.55-1.24.35-.71,2.28.53,1.93h0Z"/><path class="cls-1" d="m276.19,515.26c3.71-1.04,6.57,2.72,4.6,6.07-1.22,2.09-4.5,2.31-6.17.75-2.39-2.24-1.19-5.75,1.57-6.82,1.19-.46.67-2.4-.53-1.93-3.55,1.38-5.41,4.86-3.6,8.49,1.71,3.43,5.84,4.23,8.97,2.1,2.34-1.59,2.9-4.79,1.9-7.3-1.2-3.01-4.27-4.12-7.27-3.29-1.24.35-.71,2.28.53,1.93h0Z"/><path class="cls-1" d="m277.78,530.44c3.26-.91,5.75,2.38,4.03,5.32-1.07,1.82-3.94,2.01-5.4.65-2.1-1.96-1.05-5.03,1.37-5.97,1.19-.46.67-2.4-.53-1.93-3.25,1.26-4.96,4.47-3.3,7.79,1.57,3.13,5.35,3.87,8.21,1.93,2.14-1.46,2.67-4.38,1.75-6.69-1.1-2.76-3.9-3.8-6.66-3.03-1.24.35-.71,2.28.53,1.93h0Z"/></svg>