<?xml version="1.0" encoding="UTF-8"?><svg id="Layer_2" xmlns="http://www.w3.org/2000/svg" viewBox="0 0 311.48 311.44"><defs><style>.cls-1{fill:#fff;}</style></defs><g id="Layer_1-2"><path class="cls-1" d="m156.03,0c85.64.04,155.57,70.04,155.45,155.61-.11,86.12-69.9,155.8-156.06,155.83C69.35,311.46-.14,241.37,0,154.67.14,69.47,70.26-.04,156.03,0ZM23.96,155.46c-.11,72.35,58.73,131.83,130.58,132.02,73.42.19,132.75-58.31,132.99-131.11.23-72.97-58.67-132.18-131.73-132.41-72.43-.23-131.72,58.91-131.83,131.51Z"/><path class="cls-1" d="m155.72,83.85c25.05,0,46.56,19.53,47.69,44.43.72,15.77-6.71,28.53-17.97,39.2-3.44,3.25-6.93,6.46-10.16,9.92-4.21,4.52-7.38,9.44-7.83,16.08-.44,6.52-7.11,11.03-13.47,10.03-6.47-1.01-11-7.02-10.04-13.55,2.03-13.86,8.34-25.41,18.81-34.76,3.8-3.4,7.28-7.16,10.84-10.82,14.02-14.43.93-32.95-11.98-35.88-14.96-3.4-29.06,7.02-29.8,22.36-.39,7.94-5.47,13.15-12.53,12.85-6.88-.29-11.57-5.85-11.43-13.53.47-25.39,22.11-46.32,47.88-46.33Z"/><path class="cls-1" d="m167.71,227.47c.06,6.51-5.25,11.97-11.75,12.09-6.49.11-12.02-5.19-12.18-11.67-.16-6.69,5.25-12.25,11.93-12.26,6.51-.01,11.93,5.35,12,11.85Z"/></g></svg>