<?xml version="1.0" encoding="UTF-8"?><svg id="Layer_2" xmlns="http://www.w3.org/2000/svg" viewBox="0 0 211.4 211.4"><defs><style>.cls-1{fill:#fff;}.cls-2{fill:#ed2f86;}</style></defs><g id="Layer_1-2"><rect class="cls-1" width="211.4" height="211.4" rx="45.19" ry="45.19"/><path class="cls-2" d="m89.93,178.76c-.04-3.1-.1-6.21-.1-9.31,0-18.22,0-36.44,0-54.67,0-.62,0-1.24,0-2.05-.75,0-1.31,0-1.88,0-6.37,0-12.75-.04-19.12.03-1.34.01-1.81-.28-1.8-1.73.08-7.95.08-15.9.02-23.86,0-1.39.4-1.81,1.79-1.79,6.37.07,12.75-.02,19.12.06,1.56.02,1.92-.48,1.91-1.97-.08-6.48-.14-12.96,0-19.43.16-7.08,1.93-13.76,5.86-19.72,5.84-8.84,14.48-12.8,24.75-13.24,7.41-.32,14.85-.04,22.28-.09,1.26,0,1.63.41,1.62,1.64-.04,7.16-.05,14.32,0,21.49,0,1.28-.48,1.62-1.67,1.61-4.9-.04-9.8-.01-14.69,0-5.48.03-9.93,4.46-9.95,9.94-.03,6.32,0,12.63,0,19.27.79,0,1.5,0,2.2,0,7,0,14.01.04,21.01-.03,1.45-.01,1.93.32,1.75,1.87-.87,7.48-1.67,14.96-2.41,22.45-.14,1.45-.63,1.94-2.13,1.92-6.37-.08-12.75,0-19.12-.07-1.42-.02-1.75.45-1.75,1.8.03,21.43.01,42.87.01,64.3,0,.52.08,1.04.13,1.56h-27.81Z"/></g></svg>