<?xml version="1.0" encoding="UTF-8"?><svg id="Layer_2" xmlns="http://www.w3.org/2000/svg" viewBox="0 0 211.4 211.4"><defs><style>.cls-1{fill:#fff;}.cls-2{fill:#ed2f86;}</style></defs><g id="Layer_1-2"><rect class="cls-1" width="211.4" height="211.4" rx="45.19" ry="45.19"/><path class="cls-2" d="m105.65,33.44c10.6,0,21.2-.19,31.79.05,10.83.25,20.43,3.84,28.17,11.69,7.11,7.21,10.87,16.01,11.32,26.02.42,9.38.24,18.79.26,28.19.03,11.56,0,23.12-.01,34.68-.01,7.12-1.12,14.01-4.26,20.48-4.89,10.09-12.92,16.48-23.5,19.79-5.04,1.58-10.24,2.03-15.51,2.02-19.76-.05-39.52.08-59.28-.08-11.38-.1-21.39-3.95-29.41-12.25-5.73-5.93-8.96-13.12-10.34-21.22-.98-5.77-.65-11.57-.66-17.36-.03-17.6-.11-35.2.09-52.8.1-8.84,2.78-17.01,8.2-24.11,5.4-7.08,12.59-11.42,21.15-13.65,4.84-1.26,9.78-1.54,14.75-1.54,9.08,0,18.16,0,27.24,0v.09Zm.36,13.24h0c-8.04-.01-16.08-.02-24.12-.01-4.83,0-9.68-.21-14.44.98-7.17,1.79-12.84,5.57-16.43,12.19-2.72,5.03-3.58,10.46-3.58,16.09,0,16.6-.04,33.2.02,49.8.02,5.03-.06,10.11.61,15.08,1.08,8.05,5,14.52,12.33,18.55,4.99,2.75,10.42,3.75,16.06,3.75,17.56,0,35.12.04,52.68-.02,4.11-.01,8.26-.02,12.32-.57,7.13-.97,13.12-4.25,17.5-10.09,4.02-5.36,5.54-11.53,5.55-18.13,0-16.68.04-33.36,0-50.04-.01-5.15.39-10.32-.61-15.44-1.1-5.63-3.42-10.67-7.56-14.7-5.43-5.28-12.2-7.32-19.59-7.41-10.24-.11-20.48-.03-30.72-.03Z"/><path class="cls-2" d="m142.56,104.59c.02,20.3-16.52,36.88-36.81,36.91-20.49.03-37-16.47-36.98-36.96.02-20.27,16.62-36.84,36.91-36.83,20.23,0,36.87,16.64,36.88,36.88Zm-36.88,23.6c12.98.01,23.61-10.59,23.63-23.56.01-13.02-10.65-23.67-23.67-23.66-12.91.02-23.5,10.59-23.54,23.52-.04,13.06,10.53,23.68,23.59,23.69Z"/><path class="cls-2" d="m143.99,58.48c4.63,0,8.41,3.76,8.4,8.38-.01,4.57-3.75,8.31-8.32,8.33-4.64.02-8.4-3.74-8.38-8.38.02-4.6,3.73-8.32,8.31-8.33Z"/></g></svg>