<?xml version="1.0" encoding="UTF-8"?><svg id="Layer_2" xmlns="http://www.w3.org/2000/svg" viewBox="0 0 408.8 408.88"><g id="Layer_1-2"><path d="m198,408.88c-1.91-.45-3.84-.87-5.74-1.34-24.62-6.13-39.82-21.69-46.29-46.1-.4-1.52-1.74-3.35-3.12-3.99-14.69-6.79-21.96-18.3-22.29-34.34-.21-10.37.28-20.8-.59-31.12-1.74-20.69-10.51-38.46-24-54.11-24.23-28.1-35.67-60.83-35.29-97.88.56-54.77,35.91-107.37,86.49-128.36,68.6-28.47,144.43-3.35,181.88,60.67,16.24,27.77,21.83,57.93,17.69,89.89-3.63,28.07-14.74,52.82-32.89,74.42-9.24,11-17.4,22.72-21.06,36.72-2.37,9.05-3.53,18.48-4.42,27.82-.69,7.25-.03,14.63-.16,21.95-.3,16.04-7.58,27.56-22.28,34.33-1.32.61-2.68,2.21-3.05,3.6-6.99,26.42-23.57,42.44-50.67,47.23-.5.09-.95.41-1.43.62h-12.78Zm66.55-120.79c1.47-6.5,2.64-12.77,4.31-18.91,5.2-19.15,16.07-35.03,28.39-50.28,22.23-27.53,30.59-59.09,25.24-94.12-3.88-25.4-15.09-47.3-33.18-65.38-22.61-22.6-50.28-34.9-82.21-35.23-48.55-.52-85.55,20.89-108.61,63.55-23.75,43.93-16.91,95.84,15.13,134.28,6.93,8.31,12.91,17.56,18.3,26.96,6.86,11.97,10.11,25.32,11.91,39.13h120.7Zm-120.06,24.32c0,3.5,0,6.56,0,9.61.03,9.62,4.55,14.17,14.15,14.18,17.15.02,34.3,0,51.45,0,13.83,0,27.65.04,41.48-.02,6.24-.03,11.15-3.24,12.05-8.91.77-4.84.16-9.91.16-14.86h-119.29Zm26.55,47.79c3.84,14.11,19.41,25.21,34.26,24.66,14.72-.54,30-12.17,32.27-24.66h-66.53Z"/><path d="m408.8,158.91c-3.18,6.89-8.64,9.33-16.06,8.87-6.35-.4-12.74-.02-19.12-.1-7.42-.1-12.71-5.14-12.7-11.97,0-6.84,5.29-11.86,12.71-11.95,6.37-.07,12.77.32,19.12-.11,7.46-.5,12.86,2,16.05,8.87v6.39Z"/><path d="m44.4,91c-.29,6.07-2.36,9.78-6.67,11.92-4.13,2.05-8.65,2.16-12.03-.92-6.88-6.24-13.53-12.79-19.75-19.69-4.02-4.45-3.04-11.44,1.23-15.57,4.26-4.12,11.15-4.73,15.61-.64,6.56,6.01,12.8,12.39,18.85,18.91,1.67,1.8,2.18,4.68,2.76,5.98Z"/><path d="m392.36,63.35c5.63.29,9.26,2.25,11.42,6.36,2.23,4.23,2.39,8.87-.8,12.38-6.34,6.97-13,13.69-20.02,19.97-4.15,3.71-10.97,2.67-14.94-1.26-4.01-3.96-5.22-10.73-1.5-14.9,6.44-7.22,13.49-13.91,20.55-20.55,1.49-1.4,4.11-1.58,5.3-2Z"/><path d="m44.44,220.63c-.86,1.61-1.91,4.88-4.01,7.2-5.17,5.71-10.73,11.08-16.3,16.4-5.21,4.98-12.49,4.95-17.16.2-4.6-4.68-4.71-11.79.13-16.87,5.59-5.88,11.35-11.6,17.22-17.18,3.71-3.53,8.25-4.18,12.95-2.11,4.58,2.02,6.74,5.8,7.18,12.36Z"/><path d="m405.32,234.72c-.28,6.07-2.32,9.79-6.63,11.94-4.27,2.12-8.85,2.13-12.36-1.09-6.75-6.19-13.31-12.64-19.43-19.45-4.01-4.46-3.08-11.43,1.17-15.58,4.24-4.13,11.15-4.78,15.61-.7,6.56,6,12.8,12.38,18.86,18.91,1.67,1.8,2.2,4.67,2.78,5.98Z"/><path d="m24.31,143.75c3.86,0,7.72-.1,11.58.02,6.84.21,11.95,5.38,11.96,11.93,0,6.54-5.08,11.8-11.94,11.94-7.98.16-15.97.16-23.95,0C5.09,167.5,0,162.26,0,155.71c0-6.55,5.1-11.73,11.94-11.94,4.12-.13,8.25-.02,12.37-.02Z"/><path d="m300.01,140.63c0,1.73.25,3.5-.04,5.17-1.03,5.91-6.35,10.13-12.23,9.87-6.22-.27-11.21-5.09-11.4-11.65-.34-11.19-2.34-21.98-7.55-31.94-12.79-24.46-33.04-37.83-60.58-40.1-2.12-.17-4.29-.04-6.35-.49-6.09-1.31-10.05-6.94-9.36-12.98.69-6.04,5.71-10.63,12.03-10.57,19.82.17,38.07,5.67,54.31,17.07,20.56,14.44,33.73,34.01,39.12,58.61,1.22,5.56,1.69,11.29,2.5,16.94-.15.02-.29.03-.44.05Z"/></g></svg>