<?xml version="1.0" encoding="UTF-8"?><svg id="Layer_1" xmlns="http://www.w3.org/2000/svg" viewBox="0 0 100 100"><defs><style>.cls-1{fill:#efc337;}</style></defs><path class="cls-1" d="m38.76,60.08c-.44,0-.78,0-1.13,0-3.89,0-7.79,0-11.68,0-2.77,0-4.93-1.08-6.08-3.67-1.13-2.54-.54-4.81,1.27-6.89,11.88-13.69,23.74-27.4,35.59-41.12,1.01-1.17,2.18-2.04,3.73-2.34,4.41-.86,8.22,2.98,7.18,7.36-1.91,8.03-3.92,16.04-5.89,24.05-.18.74-.35,1.48-.55,2.35.44,0,.78,0,1.13,0,3.93,0,7.85,0,11.78,0,2.74,0,4.84,1.1,5.99,3.64,1.12,2.49.63,4.77-1.15,6.83-11.97,13.82-23.94,27.65-35.91,41.48-2.03,2.34-4.97,2.93-7.6,1.56-2.57-1.33-3.78-4.08-3.06-7.06,2.05-8.42,4.13-16.84,6.2-25.26.07-.27.12-.55.2-.93Zm1.04,24.61c.06.03.12.06.18.09,10.94-12.64,21.87-25.28,32.95-38.08-4.32,0-8.37.01-12.41,0-4.35-.02-7.18-3.57-6.15-7.8,1.68-6.94,3.41-13.86,5.12-20.79.24-.96.46-1.92.68-2.88-.06-.03-.13-.05-.19-.08-10.92,12.62-21.85,25.25-32.93,38.05.55,0,.86,0,1.17,0,3.77,0,7.53-.01,11.3,0,4.29.02,7.11,3.58,6.11,7.75-1.43,5.92-2.91,11.82-4.37,17.73-.49,2-.98,4-1.47,6Z"/></svg>