<?xml version="1.0" encoding="UTF-8"?><svg id="Layer_2" xmlns="http://www.w3.org/2000/svg" viewBox="0 0 383.24 287.45"><defs><style>.cls-1{fill:#fff;}</style></defs><g id="Layer_1-2"><path class="cls-1" d="m383.24,27.7c-.97,2.54-1.67,5.24-2.97,7.6-4.37,7.95-11.27,12.05-20.31,12.59-.87.05-1.75.02-2.62.02-110.52,0-221.04,0-331.56,0-13.25,0-22.78-7.3-25.29-19.33C-2.44,14.55,8.07.89,22.43.06c1.62-.09,3.24-.05,4.86-.05,108.9,0,217.8,0,326.7,0,17.37,0,23.11,3.96,29.24,20.21v7.49Z"/><path class="cls-1" d="m383.24,147.47c-.97,2.54-1.67,5.24-2.97,7.6-4.37,7.95-11.27,12.05-20.31,12.59-.87.05-1.75.02-2.62.02-110.52,0-221.04,0-331.56,0-13.25,0-22.78-7.3-25.29-19.32-2.93-14.02,7.58-27.7,21.93-28.52,1.62-.09,3.24-.05,4.86-.05,108.9,0,217.8,0,326.7,0,17.36,0,23.11,3.97,29.25,20.21,0,2.5,0,4.99,0,7.49Z"/><path class="cls-1" d="m383.24,267.23c-1.03,2.65-1.75,5.48-3.14,7.93-4.4,7.75-11.25,11.75-20.13,12.26-.87.05-1.75.02-2.62.02-110.52,0-221.04,0-331.56,0-13.25,0-22.78-7.3-25.29-19.32-2.93-14.02,7.58-27.7,21.94-28.52,1.62-.09,3.24-.05,4.86-.05,108.9,0,217.8,0,326.7,0,17.36,0,23.11,3.97,29.25,20.21v7.49Z"/></g></svg>