<?xml version="1.0" encoding="UTF-8"?>
<svg id="Layer_2" data-name="Layer 2" xmlns="http://www.w3.org/2000/svg" viewBox="0 0 330.51 383.44">
  <defs>
    <style>
      .cls-1 {
        fill: #ff0086;
        stroke-width: 0px;
      }
    </style>
  </defs>
  <g id="Layer_1-2" data-name="Layer 1">
    <path class="cls-1" d="m275.55,383.44c-23.36-6.23-42.94-20.3-64.07-31.1-18.37-9.4-36.67-18.64-57.1-22.65-39.53-7.76-77.13-2.3-112.74,16.61-5.05,2.68-10.1,5.37-15.22,8.1-5.42,2.89-12.15.84-15.04-4.58l-.11-.2c-2.88-5.41-.83-12.14,4.58-15.03s10.56-5.63,15.81-8.42c34.48-18.28,71.18-25.36,109.95-21.21,23.03,2.46,44.91,9.1,65.44,19.87,20.2,10.59,40.31,21.35,60.43,32.09,6.17,3.29,12.54,4.92,19.56,3.45,19.84-4.16,27.28-28.82,13.57-43.74-9.52-10.36-20.06-19.81-30.21-29.76-5.61,5.77-11.43,11.74-17.34,17.81-1.47,1.51-3.88,1.65-5.47.26,0,0-.01-.01-.02-.02-55.29-48.41-110.57-96.84-165.93-145.17-1.73-1.51-3.92-2.38-6.22-2.48C34.49,155.42,2.27,123.05.1,81.4-1.93,42.45,27.25,7.12,66.54.97c46.54-7.29,88.9,27.66,90.74,74.74.06,1.65,1.02,4.03,2.11,5.28,48.11,55.06,96.3,110.04,144.47,165.04.18.21.36.42.54.63,1.38,1.6,1.29,4-.21,5.49-5.99,5.9-11.93,11.76-18.03,17.77,1.35,1.45,2.24,2.45,3.18,3.39,9.42,9.46,19.09,18.69,28.23,28.42,23.87,25.43,13.26,67.61-19.72,78.95-3.38,1.16-6.93,1.83-10.41,2.72-4.03.02-7.86.03-11.89.05Zm-122.07-190.76c30.71,26.88,61.48,53.82,91.9,80.45,1.62,1.42,4.07,1.33,5.6-.19,7.44-7.43,14.74-14.73,22.12-22.11,1.53-1.53,1.61-3.98.19-5.6-26.73-30.51-53.66-61.25-80.48-91.87-1.38-1.58-3.82-1.65-5.3-.17-11.45,11.45-22.73,22.71-34.19,34.18-1.49,1.49-1.41,3.92.17,5.31ZM33.61,106.62c24.47-24.43,48.79-48.71,73.08-72.96,1.11-1.11.92-2.98-.42-3.8-18.32-11.2-47.3-10.62-67.16,8.94-18.01,17.75-21.86,47.57-9.27,67.44.83,1.31,2.68,1.48,3.77.39Zm138.81,23.44c-8.26-9.42-16.59-18.92-24.74-28.21-1-1.14-2.74-1.18-3.81-.12-14.14,14.09-28.02,27.93-42.09,41.95-1.07,1.07-1.02,2.83.12,3.82,9.43,8.25,18.96,16.59,28.32,24.79,1.43,1.25,3.57,1.17,4.91-.17,12.43-12.44,24.69-24.71,37.12-37.15,1.34-1.34,1.41-3.49.17-4.92Zm-49.09-78.92c-24.12,24.11-48.12,48.11-72.07,72.05-1.38,1.38-1.07,3.7.63,4.65,7.01,3.94,16.31,6.71,24.06,6.77,1.26,0,3.01-.74,3.9-1.63,17.77-17.63,35.46-35.34,53.12-53.07.81-.81,1.68-2.05,1.67-3.09-.1-9.08-2.47-17.47-6.63-24.99-.96-1.73-3.29-2.09-4.69-.69Z"/>
  </g>
</svg>