<?xml version="1.0" encoding="UTF-8"?><svg id="Layer_1" xmlns="http://www.w3.org/2000/svg" viewBox="0 0 100 100"><defs><style>.cls-1{fill:#8eaaef;}</style></defs><path class="cls-1" d="m50.01,61.87v-1.48c0-17.38,0-34.77,0-52.15,0-3.14,2.21-5.25,5.21-4.95.57.06,1.15.24,1.66.49,6.18,3.07,12.35,6.14,18.5,9.25,2.15,1.09,3.09,3.22,2.51,5.39-.58,2.17-2.5,3.64-4.71,3.47-.81-.06-1.64-.36-2.38-.72-3.44-1.68-6.85-3.41-10.28-5.13-.32-.16-.65-.3-1.15-.54,0,.59,0,1.05,0,1.5,0,20.2,0,40.39,0,60.59,0,8.5-5.08,15.64-12.87,18.2-10.35,3.41-21.43-2.75-24.03-13.35-2.59-10.56,4.47-21.16,15.24-22.86,3.87-.61,7.56-.04,11.07,1.7.35.17.71.34,1.23.59Zm0,16.17c0-5.13-4.17-9.33-9.31-9.38-5.1-.05-9.33,4.15-9.37,9.3-.03,5.19,4.19,9.45,9.34,9.43,5.12-.02,9.33-4.23,9.33-9.35Z"/></svg>