<?xml version="1.0" encoding="UTF-8"?><svg id="Layer_2" xmlns="http://www.w3.org/2000/svg" viewBox="0 0 563.43 584.78"><defs><style>.cls-1{fill:#93bfd8;}</style></defs><g id="Layer_1-2"><path class="cls-1" d="m182.66,554.63c-.25-8.95-.35-18.02-.43-27.11l1.89.22c.7.08,1.26-.79,1.25-1.96-.13-9.12-.26-18.27-.5-27.43l1.81.17c.67.06,1.19-.84,1.15-2.01-.3-9.2-.71-18.39-1.28-27.56l1.72.09c.64.03,1.1-.89,1.01-2.07-.65-9.21-1.47-18.4-2.48-27.54h1.63c.61,0,.99-.96.85-2.13-1.1-9.18-2.4-18.31-3.9-27.37l1.54-.09c.57-.04.87-1.01.67-2.17-1.59-9.09-3.38-18.13-5.38-27.08l1.45-.18c.54-.07.75-1.05.49-2.2-2.08-8.98-4.36-17.88-6.83-26.7l1.34-.24c.5-.09.65-1.08.32-2.21-2.54-8.84-5.28-17.59-8.18-26.25l1.23-.29c.46-.11.54-1.1.16-2.21-2.98-8.68-6.14-17.26-9.42-25.77l1.13-.33c.42-.12.42-1.1-.02-2.19-3.37-8.51-6.88-16.93-10.52-25.27l1.03-.35c.38-.13.31-1.1-.16-2.17-3.71-8.34-7.54-16.59-11.5-24.78l.93-.37c.34-.14.21-1.1-.31-2.14-5.24-10.67-10.67-21.21-16.25-31.65,2.19.99,4.75,2.13,7.7,3.41.95.4-1.18-4.74-.14-4.35.43.16,1.67,1.71,2.83,3.29,1.17,1.58,2.25,3.18,2.68,3.36l10.13,4.32c1.06.44-2.23-3.41-1.58-9.02.06-.53,1.22,1.87,2.54,4.61,1.35,2.75,2.77,5.84,4.11,6.68,2.25,1.39,4.67,2.21,6.85,3.31.21.11.59-1.61.91-3.35.32-1.74.59-3.5.85-3.39.63.28,1.19,2.44,1.55,4.55.38,2.12.54,4.18,1,4.43,2.93,1.57,5.34,2.96,7.33,4.21.21.14.33-.89.45-2.53.14-1.65.21-3.93,1.01-6.02.19-.54,1.14,2.22,1.37,4.97.32,2.79-.31,5.26-.1,5.39l1.18.88c.25.2,1.51-1.35,2.38-3.32.9-1.93,1.36-4.18,1.75-3.94.38.22.6,2.98.06,5.33-.47,2.39-1.62,4.2-1.41,4.41,1.29,1.36,2.37,2.94,3.22,4.51.14.26,1.25-.84,2.16-2.21.95-1.34,1.65-2.96,1.84-2.73.33.37.05,2.62-.66,4.62-.68,2.02-1.73,3.79-1.58,4.14,1.1,2.83,1.71,4.63,1.73,4.61-.02-.04,1.76-.69,4.26-3.26.42-.45.48-2.96.07-5.42-.35-2.47-1.18-4.78-.98-5.54.13-.47,1.45.59,2.62,1.93,1.19,1.3,2.23,2.82,2.45,2.21.71-1.96,1.23-4.33,1.29-7.05.03-.6-1.49-2.94-3.29-4.8-1.79-1.9-3.77-3.3-3.96-3.82-.22-.64,1.36-.47,2.98-.09,1.61.35,3.23.92,2.96.08-1.2-3.73-3.31-7.49-6.11-10.85-.46-.59-4.82-2.03-8.91-2.51-4.12-.57-7.97-.43-8.48-.77-.61-.39,2.11-1.29,5.03-1.9,2.89-.64,6.01-.93,5.29-1.47-2.12-1.58-4.41-3-6.85-4.25l-1.58-.77c-.43-.21-5,.11-9.24.96-4.27.8-8.24,2.02-8.64,1.92-.67-.16,2.22-1.67,5.29-2.97,3.07-1.32,6.35-2.4,5.61-2.64-1.8-.57-3.61-1.06-5.42-1.47-.71-.17-4.9.91-8.81,2.33-3.93,1.38-7.6,3.06-8.26,3.03-.62-.03,1.73-1.8,4.25-3.46,2.51-1.66,5.18-3.19,4.51-3.26-9.05-.89-16.16.07-21.52,1.59.86-.48,1.78-.96,2.8-1.42.38-.17-.68-.75-1.75-1.28-1.08-.54-2.19-1.02-1.74-1.3.36-.23,2.27-.16,4.08.13,1.83.27,3.57.74,3.95.6,2.71-1,5.9-2.02,9.57-3.07,1.05-.32-3.76-1.26-6.94-5.92-.29-.44,2.15.62,4.88,1.91,2.75,1.27,5.77,2.79,7.36,2.59,2.65-.34,5.17-1.27,7.76-1.9.57-.14-3.58-6.14-3.06-6.27.68-.19,2.56,1.08,4.33,2.41,1.78,1.32,3.46,2.7,4.08,2.55,3.78-.95,7.27-1.89,10.45-2.81.74-.24-4.49-2.58-6.58-6.57-.26-.51,2.5.69,5.25,2.16,2.77,1.45,5.46,3.17,5.84,3.05l2.07-.66c.46-.15-.92-1.92-2.48-3.64-1.53-1.72-3.21-3.39-2.75-3.57.43-.18,3,1.14,5.36,2.61,2.38,1.45,4.5,3.06,4.87,2.93l6.32-2.21c.31-.1-.83-1.33-2.18-2.49-1.32-1.16-2.8-2.25-2.51-2.38.45-.21,2.66.55,4.69,1.51,2.05.94,3.8,2.08,4.15,1.98,2.89-.91,4.73-1.25,4.73-1.27-.02.03-.46-1.9-2.94-4.6-.43-.48-2.93-.67-5.32-.56-2.42.09-4.77.39-5.44-.01-.41-.25.91-1.23,2.33-2.14,1.39-.92,2.89-1.76,2.38-2.06-1.62-.96-3.5-1.88-5.6-2.69-.47-.18-2.64.58-4.7,1.45-2.07.87-4.04,1.82-4.53,1.7-.59-.15.3-1.38,1.22-2.6.91-1.22,1.88-2.42,1.2-2.56-3.07-.66-6.46-1.08-10.13-1.16-.61-.02-3.91,2.25-6.94,4.69-3.06,2.43-5.86,5.02-6.44,5.1-.71.1.75-2.35,2.38-4.74,1.62-2.39,3.38-4.73,2.57-4.63-2.35.29-4.79.72-7.3,1.33l-1.61.41c-.43.11-3.57,3.26-6.36,6.58-2.82,3.31-5.22,6.79-5.6,6.97-.64.31.69-2.71,2.31-5.68,1.6-2.96,3.45-5.86,2.73-5.58-1.75.68-3.48,1.45-5.2,2.29-.67.32-3.35,3.83-5.59,7.53-2.29,3.68-3.98,7.52-4.48,7.98-.5.44.04-2.55.97-5.54.89-2.99,2.08-5.96,1.47-5.55-6.01,4.05-10.57,8.88-13.36,13.79-.52.89-.94,1.78-1.33,2.67-.58-2.9-1.54-6.11-3.11-9.54-.39-.86-.91.43-1.48,1.65-.57,1.22-1.22,2.39-1.59,1.52-.31-.69-.42-3.44-.92-6.27-.45-2.84-1.3-5.72-1.87-6.43-4.08-5.19-9.88-10.21-17.18-14.04-1.04-.53.2.71,1.35,2.83,1.17,2.12,2.13,5.11,1.07,7.77-.2.49-1.42-2.7-3.86-6.32-2.38-3.63-6.13-7.56-9.25-8.72-5.15-1.96-10.67-2.64-15.94-3.02-.54-.04.28,1.73,1.01,3.5.75,1.78,1.41,3.56.92,3.52-1.21-.12-3.62-2.01-6.22-3.76-2.58-1.76-5.34-3.36-6.57-3.26-7.61.57-14.35,2.22-20.18,4.36-.66.25,1.49.45,4.15,1.17,2.66.71,5.8,2,7.25,3.96.37.5-3.93-.52-8.72-1.14-4.77-.66-10.04-.81-10.71-.45-1.22.63-2.38,1.28-3.49,1.94-.75.45,2.34,1.12,5.31,2,2.98.85,5.82,1.9,5.15,2.25-.63.34-4.78.03-9.06.14-4.26.07-8.62.58-9.16,1.04-3.44,2.82-6.08,5.62-8.09,8.17-.33.42,2.27-.18,4.87-.59,2.59-.43,5.17-.67,4.86-.34-.48.53-3.8,1.66-7.02,3.1-3.23,1.41-6.35,3.12-6.64,3.65-2.26,4.09-2.72,6.44-2.74,6.43,0,.03,2.39-.58,6.7-1.73.74-.2,2.88-2.54,5.35-4.72,2.43-2.21,5.17-4.24,6.21-4.38.64-.08-.47,1.68-1.42,3.45-.97,1.77-1.78,3.55-1.1,3.38,2.2-.51,4.6-1.04,7.22-1.57.57-.12,2.48-2.02,4.58-3.81,2.09-1.81,4.37-3.5,5.03-3.56.79-.08-.05,1.45-.79,2.97-.75,1.52-1.39,3.04-.59,2.9,3.64-.59,7.58-1.14,11.84-1.56.69-.07,4.31-2.75,8.42-5.03,4.06-2.32,8.58-4.15,9.38-4.06.96.11-1.83,2.02-4.31,4.13-2.5,2.09-4.71,4.34-3.78,4.29,2.7-.1,5.48-.12,8.36-.04l1.84.07c.49.02,4.82-2,9.63-3.3,4.77-1.38,9.99-1.84,10.52-1.62.88.32-2.96,1.15-6.42,2.49-3.5,1.3-6.64,3.02-5.82,3.12,1.99.27,3.96.6,5.89,1.03.75.15,5.16-.87,9.93-.92,4.74-.16,9.77.88,10.5,1.44.7.5-2.83.25-6.14.62-3.33.32-6.38,1.16-5.71,1.41,10.06,3.89,16.54,9.85,21.06,15.21-4.76-2.6-11.51-4.58-19.95-5.73-1.82-.26,3.08,4.52,1.09,4.28-.79-.1-3.28-1.45-5.84-2.7-2.56-1.27-5.19-2.47-6.06-2.51-3.14-.13-6.46-.15-9.97-.06-1.76.05-3.57.13-5.44.26l-.71.05-.37.03-.61.07-1.85.29c-1.02.16-2.05.34-3.1.55-1.19.24.61.44,2.91,1.33.59.23,1.17.5,1.81.81.4.13.8.28,1.2.47.44.18.59.41.88.63,1.03.91,1.88,2.04,2.32,3.4.08.26-.65-.03-1.93-.58l-.5-.22-.71-.21c-.52-.12-.94-.27-1.39-.43-.91-.32-1.93-.64-3.02-.96-4.33-1.27-9.92-2.05-13.33-1-5.63,1.69-10.96,4.66-15.89,7.94-.5.34,1.31,1.16,3.06,2.08,1.76.9,3.45,1.87,2.99,2.16-1.15.72-4.44.83-7.82,1.26-3.37.4-6.8,1.16-7.81,2.15-6.29,6.01-10.82,12.73-13.84,19.2-.33.74,1.45-.94,4.06-2.58,2.6-1.66,6.01-3.15,8.49-2.78.64.1-3.57,2.57-7.7,6.06-4.18,3.41-8.14,7.88-8.34,8.73-.42,1.51-.76,2.98-1.05,4.42-.19.98,2.46-1.28,5.22-3.2,2.75-1.95,5.62-3.53,5.37-2.73-.23.76-3.49,3.97-6.35,7.76C2.43,240.57,0,244.82,0,245.61c-.04,4.96.56,9.17,1.37,12.62.13.57,1.22-2.14,2.51-4.7,1.27-2.58,2.71-5,2.78-4.51.11.77-1.11,4.44-1.91,8.24-.85,3.78-1.31,7.66-1.06,8.24,1.94,4.67,3.57,6.65,3.54,6.67.03.01.96-2.46,2.58-7.04.29-.79-.33-4.24-.56-7.84-.28-3.59-.14-7.33.42-8.33.34-.61.99,1.52,1.79,3.52.78,2.01,1.7,3.88,1.99,3.18.93-2.26,2.02-4.69,3.28-7.24.27-.56.03-3.41.08-6.35.03-2.94.38-5.96.8-6.53.5-.69,1.01,1.05,1.63,2.68.61,1.64,1.31,3.18,1.76,2.44,2.02-3.3,4.39-6.69,7.21-10.07.44-.55,1.25-5.11,3.07-9.72,1.71-4.61,4.46-9.11,5.2-9.57.89-.57-.34,2.81-1.04,6.13-.75,3.33-1.01,6.53-.31,5.87,2.07-1.9,4.3-3.79,6.77-5.61l1.6-1.15c.41-.3,2.9-4.75,6.47-8.89,3.46-4.19,7.9-7.92,8.5-8.1,1.01-.32-1.9,2.81-4.22,6.12-2.4,3.3-4.16,6.71-3.36,6.25,1.96-1.09,4-2.11,6.1-3.06.41-.18,1.48-1.21,3.01-2.58.76-.69,1.64-1.47,2.6-2.28l1.49-1.23c.49-.39,1.17-.86,1.3-1.16.03-.08.18-.18.33-.27l.44-.29.89-.56,1.76-1.1c1.15-.71,2.26-1.37,3.25-1.93,1.98-1.13,3.5-1.89,4.01-1.99.99-.18-2.05,2.28-4.94,4.82-2.93,2.54-5.64,5.14-4.72,4.9,9.26-2.35,17.31-4.26,23.86-5.78,6.58-1.51,11.81-2.59,15.77-3.1,1.98-.25,3.67-.37,5.01-.33,1.35.03,2.55.31,3.39.7.13.06.23.12.34.18-1.33-.23-2.84-.37-4.55-.33-3.06.08-6.71.75-10.61,2.33-.66.27.48.88,1.56,1.54,1.09.66,2.11,1.37,1.46,1.63-.53.2-2.77,0-5.09.07-2.32.03-4.7.29-5.25.67-4,2.67-7.98,6.26-11.63,10.82-.51.65.67.05,2.61-.31,1.95-.36,4.64-.41,7.09,1.05.45.27-2.38.53-5.76,1.47-3.37.91-7.26,2.6-8.65,4.54-2.31,3.2-3.76,6.92-5.11,10.55-.14.37,1.7.31,3.53.3,1.84,0,3.66.04,3.52.37-.32.83-2.56,1.98-4.76,3.31-2.21,1.31-4.36,2.81-4.56,3.72-1.22,5.56-1.51,10.89-1.07,15.76.06.56.85-1.03,2.27-2.79,1.42-1.78,3.48-3.68,5.74-4.18.58-.12-1.52,2.58-3.43,5.92-1.96,3.28-3.56,7.34-3.39,7.95.27,1.07.58,2.11.94,3.11.24.68,1.68-1.7,3.34-3.76,1.64-2.09,3.44-3.89,3.59-3.34.15.52-1.31,3.41-2.34,6.71-1.08,3.25-1.55,6.97-1.21,7.47,1.98,3.16,4.29,5.53,6.46,7.17.36.27.07-1.99.16-4.12.05-2.15.42-4.14.67-3.89.4.39.72,2.99,1.58,5.59.81,2.59,2.23,5.08,2.69,5.23,3.62,1.28,5.57.89,5.56.95.05,0-.59-1.96-1.09-5.16-.09-.54-1.82-1.74-3.36-3.43-1.56-1.65-2.85-3.74-2.72-4.51.07-.47,1.47.41,2.89,1.02,1.42.64,2.83,1,2.84.54.06-1.48.2-3.04.42-4.73.05-.36-1.2-1.6-2.33-3.17-1.14-1.53-2.13-3.33-2-3.78.15-.54,1.38.28,2.62.97,1.25.7,2.52,1.25,2.61.74.47-2.31,1.06-4.82,1.78-7.57.11-.43-1.51-3.33-2.72-6.68-1.25-3.31-2.07-6.98-1.83-7.51.29-.64,1.58,1.86,3.05,4.13,1.46,2.29,3.09,4.33,3.27,3.71.53-1.78,1.11-3.65,1.74-5.6l.42-1.25c.1-.33-1.02-3.94-1.65-7.85-.68-3.89-.82-8.03-.61-8.38.34-.6.95,2.59,1.88,5.58.9,3,2.08,5.79,2.29,5.21.52-1.39,1.06-2.77,1.63-4.14.21-.53-.36-4.2-.4-8.06-.1-3.85.44-7.86.85-8.39.37-.51.48,2.46.95,5.27.43,2.83,1.16,5.5,1.4,5.02,4.93-9.81,9.47-15.53,13.49-19.1.83-.73,1.61-1.35,2.35-1.91.04.23.11.47.19.73-1.26,2.06-3.44,6.09-5.42,11.84-.25.75,4.51-1.56,4.27-.75-.17.72-5.42,4.38-5.64,5.01-.72,2.45-1.41,5.13-2.05,8.06-.17.84,2.77-2.22,8.4-2.68.53-.04-1.55,1.18-3.89,2.6-2.34,1.44-4.94,3.03-5.36,4.17-.7,1.9-.73,3.86-1.01,5.73-.06.41,6.96-.52,6.91-.15-.05.51-1.88,1.37-3.7,2.13-1.83.76-3.65,1.43-3.7,1.86-.28,2.7-.38,5.16-.37,7.44,0,.55,3.65-1.94,8.05-2.06.56,0-1.39,1.42-3.54,2.69-2.14,1.3-4.44,2.36-4.43,2.64l.09,1.53c.02.34,2.01.12,4.03-.27,2.02-.37,4.05-.9,4.09-.54.05.35-1.9,1.57-3.87,2.56-1.97,1.01-3.95,1.76-3.92,2.05.2,1.86.43,3.57.63,5.13.03.26,1.38-.07,2.74-.53,1.35-.45,2.71-1.02,2.77-.78.09.39-1.15,1.59-2.44,2.63-1.28,1.06-2.61,1.94-2.57,2.25.36,2.53.66,4.11.67,4.11,0-.02,1.63.13,4.38-.63.47-.13,1.03-1.84,1.44-3.56.43-1.72.73-3.45,1.27-3.75.33-.19.9,1.09,1.4,2.42.52,1.32.95,2.7,1.35,2.47,1.25-.76,2.54-1.72,3.84-2.88.29-.25.15-2.07-.1-3.81-.24-1.75-.58-3.44-.34-3.73.3-.35,1.22.68,2.09,1.76.89,1.07,1.73,2.18,2.06,1.76,1.48-1.91,2.86-4.15,4.02-6.69.2-.42-.95-3.46-2.32-6.29-1.35-2.84-2.88-5.48-2.76-5.9.14-.5,1.95,1.21,3.68,3.04,1.74,1.82,3.39,3.77,3.55,3.18.43-1.56.76-3.2,1.01-4.9,2.66,8.51,5.11,17.06,7.33,25.66.28,1.1.82,1.89,1.2,1.76l1.03-.36c2.25,8.66,4.28,17.36,6.06,26.1.22,1.11.74,1.92,1.17,1.79l1.12-.33c1.79,8.76,3.34,17.54,4.63,26.35.17,1.13.66,1.95,1.12,1.84l1.23-.3c1.3,8.83,2.33,17.69,3.07,26.54.1,1.13.56,1.98,1.07,1.89l1.34-.24c.75,8.88,1.23,17.77,1.41,26.64.02,1.13.48,2,1.01,1.93l1.44-.18c.2,8.9.08,17.79-.32,26.64-.04,1.13.37,2.02.95,1.99l1.54-.1c-.4,8.89-1.07,17.75-2.04,26.56-.13,1.13.26,2.04.87,2.04h1.63c-.96,8.85-2.2,17.65-3.69,26.41-.18,1.12.17,2.05.81,2.08l1.72.09c-1.48,8.8-3.21,17.55-5.12,26.28-.25,1.11.09,2.07.77,2.13l1.8.17c-1.9,8.76-3.99,17.49-6.17,26.25-.28,1.12.06,2.09.76,2.17l1.89.22-6.58,26.52c-.29,1.14.09,2.14.83,2.21l1.99.21c-2.13,8.93-4.18,17.98-5.89,27.3-.22,1.19.23,2.19,1.02,2.22l25.32,1.03c.78.03,1.31-.83,1.19-1.94-.85-8.65-1.27-17.53-1.52-26.49l2,.21c.74.08,1.31-.79,1.27-1.93Zm-57.18-324.85c0-.34,1.02.39,2.34,1.49.33.98.64,1.96.96,2.94-1.72-2.28-3.29-4.18-3.3-4.43Z"/><path class="cls-1" d="m557.08,111.02c-1.53-1.59-17.69-4.49-19.92-6.35-1.39-1.21,11.48-1.43,9.86-2.73-2.6-2.12-5.57-4.36-8.96-6.7-.75-.51-4.86-.89-9.01-1.2-4.14-.32-8.3-.54-9.14-1.03-2.07-1.24,9.25-3.46,6.99-4.71-5.14-2.89-10.99-5.78-17.69-8.41-1.09-.43-8.48.01-15.75.97-7.29.91-14.36,2.4-15.53,2.16-1.44-.3,2.99-2.43,7.6-4.3,4.6-1.9,9.36-3.56,7.77-3.97-4.58-1.18-9.47-2.16-14.63-2.88l-3.32-.41c-.9-.12-8.93,1.97-16.46,4.81-7.58,2.78-14.57,6.25-15.41,6.34-1.42.13,3.24-3.2,8.31-6.22,5.04-3.04,10.46-5.73,8.91-5.74-3.75.01-7.51.18-11.26.5-1.45.11-8.85,3.43-15.45,7.36-2.96,1.88-6.19,3.72-8.74,5.14-2.56,1.42-4.51,2.43-5.16,2.56-1.26.24,2.6-3.06,6.45-6.29,3.91-3.23,7.37-6.48,6.22-6.23-5.76,1.23-11.73,2.45-17.13,3.88-5.43,1.43-10.45,3.05-14.95,4.86-4.21,1.68-7.95,3.56-11.23,5.54-.1-.02-.2-.04-.3-.06-1.65-.35-3.31-.68-2.57-1.36.6-.56,3.61-1.42,6.62-2.11,3.01-.71,6.02-1.28,6.68-1.8l16.6-12.93c.37-.28.16-.37-.44-.41-.62,0-2.04.39-3.3.29-2.67-.05-6.31-.46-9.31-2.79-.28-.21.6-.36,2.17-.5l2.79-.21,1.66-.11c.58-.04,1.27-.16,1.91-.25,4.68-.31,9.99-.39,12.62-1.91,4.33-2.49,8.35-5.69,12.54-8.46.89-.59-8.07-5.54-7.23-6.11,1.07-.76,4.61-.42,8.06.04,3.46.45,6.83,1.03,7.81.39l16.66-10.8c.56-.35-1.58-.51-4.51-.96-2.93-.47-6.69-1.2-9.17-3.11-.64-.48,4.45-.81,9.68-.71,5.26.05,10.51.67,11.1.31l3.23-1.99c.71-.43-2.32-1.96-5.64-3.25-3.29-1.3-6.8-2.38-6.1-2.9.66-.5,5.53-.39,10.13.22,4.64.55,8.81,1.69,9.38,1.38,3.67-2.05,6.92-3.68,9.84-4.89.48-.2-1.77-1.62-4.48-2.7-2.66-1.11-5.63-1.89-5.18-2.19.71-.46,4.86-.36,8.67.45,3.87.74,7.11,2.29,7.68,2.15,4.78-1.19,7.88-1.09,7.86-1.16-.01,0-.29-.7-1.15-1.94-.87-1.23-2.35-3.02-4.9-4.89-.88-.7-5.49-.92-9.79-.15-4.32.67-8.36,2.02-9.68,1.78-.81-.15,1.15-1.98,3.35-3.66,2.16-1.7,4.63-3.21,3.6-3.45-3.32-.78-7.08-1.26-11.16-1.34-.91-.03-4.48,1.97-7.69,4.2-3.25,2.21-6.22,4.59-7.1,4.72-1.06.17-.07-1.94,1.03-4.02,1.08-2.08,2.27-4.14,1.03-3.94-5.55.89-11.45,2.43-17.56,4.69-1.01.36-5.52,5.37-9.48,10.56-4.02,5.16-7.58,10.47-8.49,10.98-1.11.61.36-3.6,2.07-7.79,1.68-4.19,3.6-8.36,2.33-7.7-3.66,1.91-7.37,4.09-11.1,6.55l-2.38,1.6c-.65.44-4.42,6.61-7.69,12.94-3.33,6.31-6.09,12.82-6.61,13.36-.92.89.28-4.28,1.88-9.39,1.56-5.11,3.43-10.17,2.41-9.32-2.48,2.06-4.92,4.22-7.3,6.53-.46.45-1.47,2.31-2.67,4.95-.58,1.3-1.29,2.88-1.88,4.46-.28,1.27-1,2.99-1.53,4.57-2.29,6.44-4.17,12.94-4.87,13.88-.69.91-.32-3.75.31-8.45.6-4.69,1.4-9.4.64-8.5-7.51,8.96-13.01,17.62-16.63,25.39-1.78,3.81-3.1,7.4-4.06,10.7-.03-.44-.05-.89-.08-1.36-.29-4.28-.75-9.34-1.87-15.35-.37-2.01-4.47,5.33-4.93,3.15-.18-.87.57-4.1,1.16-7.46.6-3.35.98-6.88.64-7.87-1.19-3.57-2.74-7.39-4.81-11.34-2.04-3.93-4.71-8.09-7.85-11.99-.81-1.01-.26.85-.02,3.97.2,3.07-.33,7.04-3.02,9.72-.52.5-.19-3.8-1.03-9.26-.17-1.31-.34-2.65-.6-4.01-.3-1.39-.65-2.78-1.08-4.1-.86-2.63-2.02-4.98-3.37-6.45-4.5-4.91-10.17-8.75-15.82-12.14-.58-.34-.73,2.2-1,4.72-.25,2.52-.61,5-1.12,4.68-1.28-.8-2.79-4.38-4.63-7.92-1.81-3.53-3.95-6.99-5.4-7.58-8.88-3.61-17.45-5.41-25.18-6.06-.88-.07,1.44,1.37,4.01,3.73,2.59,2.34,5.37,5.63,5.85,8.8.12.81-4.04-2.82-9.06-6.21C285.69,3.06,279.86-.06,278.91,0c-1.69.08-3.33.21-4.92.39-1.08.12,2.01,2.67,4.84,5.38,2.86,2.7,5.44,5.54,4.52,5.6-.89.05-5.33-2.62-10.13-4.89-4.76-2.31-9.86-4.21-10.7-3.98-5.27,1.4-9.63,3.14-13.2,4.89-.59.29,2.58,1.19,5.64,2.26,3.08,1.05,6.06,2.25,5.54,2.48-.81.36-5.09-.23-9.4-.51-4.31-.31-8.64-.33-9.24.09-4.74,3.26-6.66,5.56-6.68,5.54-.01.02,2.91,1.04,8.32,2.48.94.24,4.65-1.09,8.57-2.19,3.89-1.12,8.01-1.95,9.24-1.51.75.27-1.41,1.74-3.43,3.29-2.03,1.54-3.9,3.16-3.06,3.37l8.89,2.37c.7.2,3.82-1,7.09-1.98,3.26-1,6.65-1.79,7.41-1.49.91.35-.83,1.72-2.45,3.15-1.62,1.42-3.13,2.89-2.18,3.19,4.31,1.33,8.87,2.83,13.65,4.64.78.29,6.11-.99,11.84-1.49,5.68-.58,11.7-.29,12.51.26.99.65-3.21,1.4-7.12,2.57-3.93,1.14-7.56,2.65-6.55,3.1,2.91,1.33,5.87,2.79,8.89,4.43l1.93,1.07c.51.28,6.41.21,12.57,1.26,6.15.93,12.44,3.04,12.92,3.54.83.82-4.09-.09-8.83-.34-4.77-.31-9.3.04-8.44.6,2.05,1.37,4.07,2.84,6.05,4.37.39.3,2,.73,4.25,1.38,1.09.29,2.47.8,3.88,1.25,1.34.39,2.71.81,4.12,1.31,5.6,1.96,11.16,5.4,11.79,6.33.62.9-3.58-.86-7.74-1.92-4.16-1.12-8.19-1.49-7.54-.89,6.4,6.07,11.33,13.01,15.73,19.23.41.59.81,1.16,1.21,1.73-1.84-1.22-3.78-2.41-5.85-3.57-1.18-.65-.68,1.16-.26,2.97.41,1.8.75,3.59-.48,2.9-.99-.55-3.59-3.53-6.44-6.4-2.82-2.88-5.85-5.62-7.02-6.08-8.4-3.29-18.05-6.04-28.68-8.21-3-.65,7.89,4.74,7.91,12.44.01.72-3.46-2.68-8.14-6.41-1.18-.93-2.4-1.88-3.69-2.81-1.38-.93-2.83-1.81-4.27-2.59-2.88-1.54-5.76-2.65-8.16-2.95-7.92-1-15.99-.38-23.77.54-.8.1.84,2.18,2.4,4.31,1.57,2.12,3.05,4.27,2.31,4.35-1.83.18-5.9-1.63-10.15-3.22-4.24-1.61-8.67-2.95-10.48-2.48-11.11,2.84-20.94,7.07-29.25,12.14-.95.58,2.35.01,6.5.04,4.17.01,9.15.73,11.75,2.87.66.55-6,.47-13.32,1.39-3.65.44-7.46,1.12-10.49,1.88-3.01.74-5.24,1.53-5.7,1.92-1.66,1.41-3.22,2.86-4.69,4.32-.99,1,3.8.26,8.42.11,4.64-.21,9.11.1,8.21.82-.85.7-7.07,1.92-13.29,4.24-6.23,2.19-12.34,5.68-12.94,6.68-3.88,6.04-6.15,11.87-7.39,16.86-.2.82,2.83-2.12,6.11-4.52,3.26-2.45,6.71-4.36,6.44-3.73-.45.99-4.49,4.6-7.88,8.96-3.46,4.29-6.11,9.26-6.1,10.17,0,7.21,1.42,10.48,1.35,10.5.04.06,2.15-3,6.43-7.97.73-.86,1.72-5.46,3.67-10,1.86-4.56,4.67-8.93,6.03-9.72.83-.49.04,2.46-.35,5.34-.42,2.89-.47,5.64.3,4.99,2.49-2.04,5.31-4.11,8.51-6.12.7-.44,2.41-3.85,4.73-7.16,2.25-3.33,5.05-6.52,5.97-6.85,1.12-.42.31,1.93-.27,4.24-.61,2.31-.98,4.57.07,4.06,4.82-2.28,10.26-4.43,16.41-6.39.98-.33,5.74-5.07,11.52-9.28,5.67-4.26,12.17-7.92,13.41-8.02,1.5-.14-2.3,3.15-5.64,6.63-3.39,3.47-6.28,7.09-4.86,6.75,4.12-.93,8.47-1.78,13.03-2.5l2.94-.44c.76-.12,7.15-3.99,14.26-7.07,7.04-3.17,14.75-5.36,15.63-5.24,1.46.15-3.95,2.4-8.88,5.18-4.97,2.73-9.47,5.87-8.12,5.76,3.29-.23,6.6-.37,9.87-.39.65,0,2.62-.67,5.35-1.52,1.27-.43,3.12-.87,4.89-1.35l5.62-1.47c7.61-1.97,15.41-3.47,16.85-3.24,1.36.2-3.66,1.97-8.53,3.98-4.87,2-9.63,4.17-8.3,4.25,2.86.18,5.6.36,8.24.56-.19.55,7.15,2.78,9.26,9.34.21.68-2.98-1.53-7.16-3.71-4.16-2.2-9.36-4.32-12.53-3.89-5.21.69-10.27,2.56-15.24,4.39-.51.19,1.16,1.99,2.78,3.82,1.63,1.83,3.21,3.69,2.75,3.87-1.18.42-4.4-.8-7.74-1.88-3.32-1.1-6.77-2.02-7.92-1.44-7.02,3.52-13.13,7.71-18.19,12.27-.57.52,1.82.04,4.94.05,3.14,0,6.97.53,9.42,2.45.62.5-4.19.66-9.49,1.46-5.27.72-11.07,2.35-11.61,3.03-.98,1.18-1.89,2.36-2.73,3.55-.57.81,3.19.46,6.82.52,3.64.02,7.14.4,6.64,1.03-.48.61-4.96,1.52-9.49,3.13-4.52,1.53-9.04,3.88-9.36,4.63-2.08,4.63-3.15,8.92-3.62,12.57-.07.6,2.36-1.26,4.89-2.78,2.54-1.54,5.11-2.75,5-2.27-.17.76-2.98,3.24-5.46,6.15-2.52,2.87-4.64,6.15-4.56,6.82.55,5.22,1.9,7.6,1.84,7.61.02.04,2.15-1.82,5.85-4.83.64-.51,1.15-3.68,2.22-6.89,1.01-3.21,2.57-6.41,3.57-6.92.61-.31.58,2.01.78,4.22.2,2.22.62,4.3,1.21,3.91,1.88-1.25,3.96-2.53,6.22-3.83.48-.28,1.15-2.87,2.19-5.52,1.01-2.64,2.36-5.29,2.99-5.55.76-.32.75,1.73.89,3.7.13,1.98.4,3.88,1.11,3.53,3.21-1.62,6.75-3.28,10.7-5.04.62-.28,2.81-4.61,5.74-8.88,2.87-4.28,6.34-8.42,7.16-8.66.98-.29-.71,3.28-2.11,6.84-1.41,3.57-2.48,7.11-1.57,6.72l8.36-3.43,1.89-.76c.5-.21,3.82-4.7,7.72-9.04,3.83-4.36,8.14-8.53,8.73-8.69.99-.28-1.76,3.43-4.24,7.19-2.5,3.76-4.7,7.57-3.8,7.22l6.62-2.52c.86-.33,4.61-4.48,8.77-8.49,4.1-4.02,8.56-7.88,9.53-8.14.92-.26-1.69,3.05-4.13,6.41-1.35,1.84-2.63,3.7-3.38,4.95-3.45,2.71-6.94,5.84-10.38,9.44-.8.84.9.14,3.59-.2,2.69-.35,6.37-.24,9.5,1.89.6.41-3.37.66-8.12,1.7-4.74,1-10.28,2.88-12.51,5.37-3.73,4.1-6.47,8.98-9.11,13.68-.27.48,2.18.75,4.62,1.08,2.43.32,4.86.69,4.6,1.14-.64,1.11-3.91,2.33-7.18,3.7-3.26,1.36-6.5,2.86-7,4.03-3.12,7.17-5.17,14.01-6.47,20.32-.15.71,1.48-.94,3.94-2.73,2.47-1.8,5.81-3.71,8.92-3.74.79,0-2.86,3.18-6.61,6.87-3.76,3.65-7.58,7.83-7.67,8.62-.15,1.41-.26,2.8-.35,4.14-.06.92,2.94-1.07,5.99-2.91,3.04-1.86,6.12-3.58,6.07-2.77-.06.77-3.22,4.09-6.23,7.63-3.03,3.52-5.92,7.24-5.88,7.99.25,4.67.87,8.72,1.62,12.12.13.57,1.83-1.79,3.6-4.08,1.76-2.29,3.58-4.51,3.7-4.01.15.77-1.37,4.23-2.76,7.75-1.41,3.5-2.66,7.07-2.44,7.68,1.75,4.84,3.28,7.11,3.27,7.12,0,.01,1.92-2.09,4.86-6.22.52-.72.29-4.21.25-7.82-.06-3.6.06-7.3.76-8.24.43-.58,1.38,1.63,2.4,3.75,1.02,2.13,2.08,4.18,2.51,3.5,1.38-2.17,2.86-4.56,4.4-7.17.33-.57-.13-3.62-.49-6.73-.37-3.11-.61-6.28-.22-6.9.48-.75,1.58,1.06,2.71,2.79,1.14,1.74,2.3,3.42,2.75,2.61,2.05-3.65,4.2-7.62,6.49-11.9.37-.7-.34-5.92-.68-11.31-.38-5.38-.34-10.91.13-11.65.58-.89,1.56,3.01,2.73,6.75,1.16,3.76,2.48,7.36,2.97,6.42l4.44-8.48.99-1.88c.26-.5-.06-6.22.15-12.08.16-5.85.9-11.86,1.27-12.36.61-.84.76,3.8,1.26,8.29.46,4.51,1.23,8.86,1.7,8.01,1.12-2.07,2.28-4.13,3.46-6.17.44-.8.67-6.33,1.47-12.01.75-5.65,2.15-11.41,2.81-12.17.61-.74.34,3.48.42,7.59.04,4.13.4,8.13.87,7.39,9.4-14.68,17.37-24.3,22.84-31.02,1.6-1.92,2.96-3.58,4.08-4.98.25,16.58-.9,33.11-3.38,49.37-.23,1.46-.06,2.67.37,2.71l1.16.1c-1.8,11.48-4.24,22.83-7.24,34-.39,1.43-.33,2.65.13,2.75l1.25.25c-3.06,11.22-6.68,22.25-10.8,33.09-.53,1.38-.56,2.62-.07,2.77l1.32.39c-4.15,10.88-8.78,21.55-13.81,32.02-.65,1.34-.76,2.58-.25,2.78l1.38.53c-5.06,10.52-10.51,20.82-16.28,30.95-.74,1.29-.91,2.54-.37,2.79l1.44.67c-5.8,10.17-11.9,20.15-18.25,29.97-.8,1.25-1.01,2.5-.45,2.8l1.49.78c-6.35,9.87-12.94,19.58-19.7,29.19-.86,1.23-1.1,2.48-.51,2.82l1.56.89c-6.75,9.64-13.68,19.18-20.71,28.68-.91,1.21-1.14,2.49-.52,2.85l1.64.98c-7,9.53-14.1,19.01-21.23,28.54-.91,1.22-1.13,2.51-.49,2.9l1.73,1.03c-7.07,9.57-14.18,19.17-21.18,28.96-.9,1.25-1.07,2.58-.38,2.96l1.85,1.04c-6.93,9.8-13.76,19.79-20.3,30.19-.84,1.33-.9,2.7-.15,3.06l2.01.95c-6.39,10.4-12.46,21.2-17.75,32.86-.68,1.49-.54,2.93.3,3.18l2.23.69c-4.98,11.57-9.17,24.02-11.06,37.74-.24,1.76.35,3.19,1.25,3.19h29.57c.91,0,1.48-1.01,1.33-2.27-1.2-9.9-.47-20.76,1.47-31.71l2.23.69c.83.25,1.69-.65,1.95-2.02,2-10.8,5.13-21.78,8.84-32.69l2.01.96c.74.35,1.72-.48,2.2-1.87,3.71-10.85,8.01-21.69,12.59-32.48l1.85,1.03c.69.39,1.71-.42,2.29-1.79,4.56-10.78,9.41-21.52,14.36-32.25l1.73,1.03c.65.38,1.68-.42,2.31-1.79,4.93-10.75,9.98-21.49,15.02-32.25l1.64.97c.61.36,1.63-.46,2.26-1.84,5.01-10.8,10.02-21.62,14.94-32.48l1.56.89c.59.33,1.56-.53,2.19-1.92,4.87-10.92,9.65-21.89,14.25-32.92l1.5.79c.56.29,1.49-.62,2.07-2.04,4.55-11.1,8.91-22.28,13.03-33.53l1.44.67c.54.25,1.4-.72,1.91-2.17,4.05-11.33,7.84-22.74,11.27-34.24l1.38.53c.52.2,1.29-.83,1.72-2.32,3.35-11.58,6.36-23.25,8.93-34.99l1.32.39c.49.15,1.15-.96,1.47-2.47,2.48-11.83,4.51-23.72,6.02-35.65l1.24.25c.48.09.99-1.08,1.17-2.61,1.4-12.01,2.27-24.05,2.57-36.07l1.16.1c.22.02.43-.3.58-.81.2,2.46.58,4.92.82,7.39.08.81,8.76-3.76,8.85-2.98.26,2.02-8.14,9.22-7.9,11.04.79,5.72,1.81,11.02,3.04,15.88.28,1.08,3.51-6.67,9.05-9.11,1.43-.61-7.47,14.78-7.09,16,.34,1.08.69,2.13,1.05,3.15.49,1.37,8.81-9.22,9.32-7.95.48,1.18-6.84,14.29-6.3,15.47,1.59,3.52,3.25,6.54,4.84,9.07.49.79,4.34-9.03,4.85-8.27.38.58-.1,3.73-.56,6.89-.45,3.15-.84,6.31-.49,6.76,2.82,3.5,4.79,5.03,4.78,5.03,0,0,1.43-2.12,3.33-6.18.33-.71-.71-3.52-1.68-6.44-.98-2.92-1.91-5.93-1.51-6.89.46-1.14,6.24,6.02,6.72,4.65.74-2.14,1.49-4.51,2.19-7.13.3-1.12-5.43-9.74-5.13-11.02.36-1.52,6.71,4.35,7,2.69.68-3.73,1.22-7.84,1.53-12.37.05-.74-2.78-4.88-5.65-9.03-2.87-4.15-5.82-8.25-5.82-9.03,0-.95,2.96,1.4,5.88,3.8,2.92,2.39,5.81,4.81,5.78,3.79-.08-2.95-.28-6.05-.63-9.29l-.25-2.08c-.08-.56-3.6-5.02-7.27-9.33-3.66-4.32-7.5-8.41-7.62-8.95-.21-.91,3.31,1.68,6.75,4.45,3.45,2.76,6.82,5.67,6.63,4.71-.47-2.33-1.03-4.67-1.66-7-.24-.91-4.04-5.11-8.05-9.03-3.99-3.95-8.18-7.52-8.53-8.34-.34-.8,3.2,1.08,6.67,3.2,3.47,2.1,6.88,4.41,6.57,3.55-3.15-8.56-7.03-15.5-10.97-20.79-3.94-5.31-7.92-8.97-11.27-11.43-2.19-1.58-4.1-2.68-5.68-3.47.04-.01.07-.03.11-.04,5.38-1.84,13.51-2.81,25.34-2.72,1.01.01-.07-1.34-1.17-2.68-1.11-1.34-2.22-2.67-1.07-2.72.94-.04,4.09,1.25,7.16,2.68,3.08,1.41,6.11,2.93,7.09,2.96l11.53.3c2.09.03,4.27.05,6.62.01l3.49-.09h2.99c1.2,0-.56-.76-2.69-2.42-.53-.42-1.12-.89-1.79-1.39-.69-.51-1.38-1.08-2-1.73-1.24-1.29-2.26-2.84-2.74-4.68-.09-.34.81.09,2.38.91.76.41,1.77.91,2.74,1.48l3.09,1.9c4.47,2.66,9.46,5.84,12.8,6.31,5.57.75,11.21.88,16.73,1.58.56.07-.12-2.31-.86-4.68-.73-2.38-1.53-4.74-.94-4.69,1.47.14,4.28,2.73,6.87,5.41,2.62,2.66,5.04,5.4,6.35,5.61,8.09,1.3,15.62,2.71,22.62,4.02.79.15-1.09-1.51-3.36-3.94-2.27-2.44-4.98-5.63-5.71-8.76-.17-.8,4.41,2.56,8.99,6.37,4.61,3.79,9.24,8.01,10.12,8.17l4.66.82c1.03.18-1.05-3.13-3.24-6.41-2.19-3.29-4.5-6.55-3.52-6.44.95.1,5.18,3.6,9.23,7.23,4.07,3.6,8.02,7.3,8.89,7.42,5.39.77,10.21,1.3,14.35,1.62,1.39.09-9.74-9.68-8.55-9.61,1.97.03,16.13,10,17.66,10.04,6.17.08,9.38-.39,9.38-.39,0,0-1.91-2.72-6.35-7.22Zm-184.71-3.05h-.14c.06-.06.12-.13.18-.2-.02.07-.03.13-.04.2Zm-28.95-8.81c.25.62.27,1.04-.25.99-.5-.05-1.75-.78-3.28-1.72,1.22.24,2.4.48,3.53.73Zm-.57,17.85c.26-.1.53-.2.78-.3-.04.06-.11.11-.21.16-.12.06-.33.1-.57.14Zm44.64,28.56c.67-.23-1.51,2.61-3.97,5.96-1.94,2.67-4.07,5.63-4.92,7.92,0-2.3,0-4.59-.05-6.89,1.26-1.56,4-5.25,8.94-6.99Zm-6.1-18.39c.09.62-1,3.05-2.2,5.39-.46.92-.93,1.82-1.34,2.62-.12-1.84-.24-3.69-.39-5.53,1.46-1.11,3.8-3.52,3.92-2.49Z"/></g></svg>