<?xml version="1.0" encoding="UTF-8"?><svg id="Layer_2" xmlns="http://www.w3.org/2000/svg" viewBox="0 0 653.08 546.22"><defs><style>.cls-1{fill:#93bfd8;}</style></defs><g id="Layer_1-2"><path class="cls-1" d="m403.52,216.25c4.06-8.54,8.6-16.87,13.67-24.9l1.11.86c.42.32,1.26-.25,1.9-1.27,7.42-11.68,15.97-22.73,25.81-32.64.85-.86,1.32-1.83,1.03-2.18l-5.47-6.58c-.29-.34-1.36-.02-2.4.72-11.96,8.61-23.09,18.51-33.44,29.23-.9.93-1.28,1.96-.87,2.27l1.11.86c-6.86,7.32-13.39,15.01-19.57,22.99-.79,1.02-1.03,2.09-.54,2.39l1.31.8c-6.05,7.98-11.78,16.24-17.24,24.69-.7,1.08-.81,2.18-.26,2.45l1.49.73c-5.34,8.45-10.41,17.1-15.26,25.89-.62,1.12-.62,2.23,0,2.49l1.66.67c-4.73,8.78-9.26,17.71-13.59,26.75-.56,1.15-.45,2.27.23,2.5l1.82.6c-4.23,9.02-8.28,18.16-12.18,27.39-.5,1.17-.31,2.29.43,2.49l1.98.53c-3.8,9.21-7.45,18.5-10.98,27.87-.45,1.2-.17,2.31.62,2.48l2.13.47c-3.43,9.35-6.74,18.77-9.93,28.26-.41,1.21-.05,2.32.79,2.47l2.27.41c-3.1,9.46-6.1,18.99-9.01,28.57-.38,1.23.06,2.32.95,2.45l2.41.34c-2.82,9.55-5.54,19.17-8.18,28.84-.34,1.23.16,2.32,1.11,2.42l2.55.27c-2.55,9.64-5.02,19.33-7.4,29.08-.31,1.25.26,2.31,1.26,2.39l2.68.19c-2.3,9.72-4.51,19.49-6.63,29.33-.27,1.26.36,2.31,1.41,2.36l2.82.11c-2.04,9.8-3.98,19.67-5.8,29.63-.23,1.28.47,2.31,1.57,2.31h35.74c1.09,0,1.8-.98,1.57-2.19-1.75-9.47-3.27-19.04-4.56-28.67l2.82.11c1.05.04,1.76-.92,1.59-2.14-1.33-9.58-2.44-19.22-3.34-28.89l2.68.19c1,.07,1.71-.87,1.59-2.1-.94-9.63-1.67-19.3-2.18-29l2.55.27c.95.1,1.66-.82,1.58-2.05-.55-9.66-.89-19.34-1-29.03l2.41.34c.9.13,1.6-.77,1.58-2.01-.15-9.66-.08-19.33.23-29.01l2.27.41c.85.15,1.55-.72,1.59-1.96.27-9.64.78-19.29,1.55-28.91l2.13.47c.79.17,1.51-.68,1.6-1.9.73-9.59,1.73-19.18,3.01-28.74l1.98.53c.73.2,1.46-.62,1.62-1.84,1.24-9.52,2.77-19.01,4.62-28.46l1.82.6c.68.22,1.41-.57,1.64-1.77,1.82-9.4,3.95-18.74,6.45-28.01l1.66.67c.62.25,1.37-.51,1.68-1.69,2.46-9.21,5.29-18.35,8.53-27.34l1.49.73c.56.27,1.34-.43,1.74-1.58,3.21-8.94,6.83-17.75,10.92-26.36l1.31.8c.49.3,1.3-.35,1.81-1.44Z"/><path class="cls-1" d="m204.4,197.4c-.53-10.09-.84-20.24-1.12-30.43l1.4.09c.52.04.91-.99.87-2.3-.51-15.02-.97-30.15-2.07-45.25-.09-1.31-.54-2.37-.99-2.37h-8.56c-.45,0-.9,1.04-1.01,2.31-1.26,14.73-3.41,29.4-5.79,44.15-.21,1.28.04,2.35.57,2.38l1.4.09-4.83,30.28c-.2,1.3.09,2.38.66,2.4l1.53.08c-1.51,10.16-2.92,20.38-4.1,30.72-.16,1.32.23,2.39.85,2.39h1.66c-1.08,10.3-1.92,20.7-2.41,31.19-.07,1.34.43,2.39,1.09,2.34l1.78-.13c-.38,10.42-.42,20.92-.06,31.48.04,1.35.66,2.35,1.37,2.24l1.89-.31c.47,10.47,1.34,20.99,2.59,31.51.16,1.34.9,2.28,1.64,2.09l1.98-.51c1.36,10.41,3.11,20.83,5.23,31.22.26,1.33,1.11,2.19,1.88,1.92l2.05-.72c2.2,10.28,4.76,20.52,7.64,30.72.36,1.3,1.3,2.08,2.09,1.73l2.11-.94c1.47,5.04,3.02,10.07,4.64,15.08l4.91,14.83c.41,1.24,1.39,1.91,2.2,1.5l2.17-1.1c3.25,9.66,6.23,19.13,8.45,28.5.28,1.19,1.22,1.87,2.1,1.51l2.37-.98c2.26,9.48,3.77,18.92,4.51,28.34.09,1.2.95,1.98,1.92,1.74l2.61-.65c.75,9.61.74,19.2.1,28.75-.08,1.22.69,2.12,1.73,2.01l2.81-.3c-.64,9.72-1.9,19.38-3.62,28.98-.22,1.22.48,2.22,1.58,2.22h35.74c1.1,0,1.8-1.11,1.56-2.47-1.85-10.67-4.1-21.28-6.87-31.73l2.8-.3c1.04-.11,1.59-1.29,1.22-2.65-2.95-10.59-6.45-21.01-10.61-31.08l2.61-.65c.97-.24,1.32-1.5.76-2.8-4.36-10.21-9.38-20.01-14.86-29.27l2.37-.97c.88-.36,1.02-1.63.3-2.82-5.66-9.32-11.68-18.04-17.59-26.47l2.17-1.1c.81-.41.85-1.61.09-2.68-2.97-4.19-5.89-8.3-8.68-12.38-2.8-4.11-5.53-8.28-8.16-12.5l2.1-.94c.79-.35.87-1.49.2-2.56-5.25-8.38-10.16-17-14.68-25.85l2.05-.72c.77-.27.91-1.39.34-2.51-4.5-8.78-8.59-17.79-12.26-27.02l1.99-.51c.74-.19.95-1.29.48-2.45-3.64-9.15-6.84-18.52-9.58-28.07l1.9-.31c.7-.11.98-1.18.63-2.39-2.72-9.48-5-19.14-6.83-28.94l1.79-.13c.66-.05,1.01-1.1.77-2.34-1.83-9.74-3.23-19.63-4.28-29.61h1.66c.62,0,1-1.02.87-2.29-1.06-9.94-1.77-19.98-2.26-30.08l1.53.08c.57.03.97-.99.91-2.28Z"/><path class="cls-1" d="m380.41,65.18c.64.27.48-2.43.21-5.13-.26-2.71-.64-5.41.08-5.14,6.97,2.69,13.93,5.81,19.9,10.14,1.8,1.31,3.59,3.56,5.16,6.16.8,1.31,1.52,2.7,2.14,4.08l.98,2.12c.34.74.66,1.45.96,2.17,2.4,5.73,3.16,10.52,3.59,9.89,2.24-3.36,1.75-7.79.7-11.09-1.02-3.28-2.42-5.37-1.1-4.33,4.57,3.72,8.54,7.8,11.82,11.97,3.29,4.16,5.88,8.4,7.92,12.45.58,1.12.88,5.25.76,9.18-.09,3.94-.5,7.69-.21,8.69.36,1.24,1.46-.25,2.51-1.81,1.06-1.55,2.06-3.18,2.41-1.98,2,7.05,2.84,13.02,3.36,18.04.5,5.03.62,9.13.65,12.41.03,6.54-.39,9.79-.39,9.8,0,.02-4.39-3.41-11.53-12.65-3.59-4.55-7.82-10.59-13.02-17.15-2.6-3.26-5.47-6.61-8.71-9.78-3.24-3.17-6.84-6.15-11.04-8.87-.84-.52,3.58-.86,8.27-.3,4.68.47,9.51,1.9,8.68,1-.43-.47-2.3-1.49-4.89-2.51-2.59-1.03-5.9-1.98-9.17-2.59-1.64-.31-3.27-.54-4.8-.7-1.5-.14-3.05-.31-4.5-.54-2.79-.38-4.73-.59-5.27-.86-2.74-1.38-5.48-2.69-8.22-3.9-1.13-.49,3.99-1.47,9.45-1.87,2.71-.22,5.49-.33,7.44-.44,1.97-.11,3.11-.27,2.52-.65-.72-.47-8.24-1.63-15.48-1.76-7.27-.23-14.04.64-14.68.43l-2.47-.86c-3.84-1.31-7.53-2.38-11.08-3.27-1.23-.29,2.5-2.51,6.7-4.33,4.16-1.85,8.74-3.27,7.48-3.81-1.03-.46-7.92.14-14.18,1.73-6.33,1.51-11.89,3.97-12.78,3.85-5.63-.84-10.9-1.24-15.86-1.36-1.09-.02.09-1.97,1.46-3.87,1.36-1.91,2.9-3.78,1.81-3.9-.91-.09-4.44,1.63-7.65,3.65-3.25,1.98-6.18,4.24-6.98,4.28-3.67.2-7.08.49-10.22.84-.98.11.44-2.23,2.09-4.54,1.63-2.31,3.52-4.56,2.61-4.56-1.48-.01-5.68,2.35-9.46,5.04-3.81,2.67-7.22,5.61-8.3,5.77-6.27.95-9.73,1.34-9.73,1.31.03.01,1.13-3.17,4.96-8.54.49-.67,5.14-2.6,9.93-4.05,4.79-1.5,9.67-2.51,10.44-3.16.5-.42-3.17-.54-6.92-.38-3.74.14-7.51.59-6.97.05,3.27-3.25,7.5-6.78,13.01-10.12.87-.55,7.26-.48,13.35.41,6.13.81,11.87,2.43,12.85,2.15,1.04-.29-2.63-2.58-6.65-4.53-3.99-1.99-8.3-3.59-7.09-4.06,1.77-.68,3.64-1.29,5.58-1.87,1.08-.34,8.71,1.24,15.26,3.7,6.62,2.37,12.17,5.4,11.85,4.58-1.28-3.22-5.23-6.1-8.8-7.97-3.55-1.89-6.62-2.8-5.58-2.94,9.15-1.17,19.51-.88,30.3,1.49,1.76.38,4.92,3.68,7.7,7.12,2.82,3.44,5.28,6.99,6.87,7.64Z"/><path class="cls-1" d="m543.14,165.78c-.59-.3-.65,2.37-.8,5.02-.14,2.66-.35,5.28-.9,4.98-5.48-3.02-10.75-5.05-15.52-7.08-.73-.31-1.49-.8-2.3-1.42-.68-.6-1.55-1.32-2.59-2.13-2.04-1.62-4.31-3.48-6.53-5.16-4.43-3.36-8.58-5.96-8.39-5.25.92,3.93,3.92,6.76,6.12,8.75,2.22,1.97,3.79,3.02,2.59,2.86-8.57-1.06-17.16-.8-25.24-.38-1.11.05-4.71-1.25-8.42-2.47-3.71-1.22-7.47-2.39-8.58-2.31-2.74.21,5.17,5.49,2.67,5.63-7.38.41-14.01.54-19.66.27-5.66-.26-10.33-.91-13.96-1.67-7.27-1.54-10.4-3.31-10.42-3.27,0-.01,1.33-.69,4.08-1.96,2.75-1.29,6.88-3.18,12.46-5.85,5.62-2.65,12.62-6.16,21.98-10.26,4.7-2.03,10.02-4.19,16.22-6.21,6.22-2.01,13.36-3.9,21.69-4.91,1.66-.19-3.8,2.98-8.51,6.59-4.76,3.58-8.93,7.44-7.5,7.06,1.51-.36,8.68-4.95,17.16-8.47,4.21-1.78,8.72-3.26,12.47-4.16,1.87-.46,3.54-.77,4.86-.97,1.37-.18,2.38-.25,2.94-.17,5.1.66,9.88,1.8,14.46,3.3,1.89.66-5.57,1.02-12.61,2.75-.88.21-1.74.44-2.6.67-.91.22-1.72.49-2.49.75-1.53.52-2.83,1.07-3.9,1.55-2.12.97-3.18,1.69-2.34,1.73.52.04,2.89-.62,6.5-1.3,3.75-.67,8.56-1.17,13.51-1.17,4.92-.02,9.84.41,13.57.9,3.74.49,6.31,1,6.77,1.24,1.15.61,2.27,1.23,3.37,1.86,5.15,2.93,9.62,5.85,13.66,8.52,1.39.93-3.77,1.08-9.19,1.1-5.41.02-10.93.15-9.52,1.08,1.14.71,9.17,2.45,16.77,4,3.8.76,7.49,1.37,10.28,1.78,1.36.19,2.67.42,3.6.6.89.15,1.49.29,1.72.44,5.61,3.59,10.96,6.57,16.09,9.15,1.13.57-1.04,1.68-3.36,2.7-2.3,1.02-4.73,1.93-3.66,2.57.88.53,5.27.72,9.56.53,4.29-.15,8.49-.64,9.35-.27,3.88,1.67,7.52,3.16,10.87,4.5,1.05.42-1.73,1.68-4.63,2.82-2.89,1.16-5.92,2.18-5.02,2.63,1.46.75,6.82.81,12.03.5,5.22-.28,10.29-.85,11.43-.38,6.53,2.71,9.82,4.5,9.81,4.51,0-.01-3.13,1.84-9.82,4.15-.84.29-6.2-.68-11.53-1.94-5.34-1.22-10.61-2.78-11.69-2.61-.7.12,2.8,2.06,6.43,3.82,3.62,1.78,7.32,3.39,6.53,3.57-4.81,1.04-10.59,1.93-17.46,2.15-1.09.04-7.09-3.12-12.6-6.82-5.57-3.66-10.54-7.82-11.64-8.05-1.16-.23,1.46,3.56,4.49,7.21,2.99,3.66,6.35,7.13,4.98,6.97-2.02-.25-4.1-.58-6.23-.98-1.19-.2-7.82-5.18-13.19-10.45-1.36-1.31-2.65-2.61-3.82-3.83l-3.04-3.22c-1.75-1.84-2.83-2.9-2.83-2.45.03,1.76.68,3.72,1.68,5.67.53.98,1.04,1.9,1.65,2.83.6.92,1.29,1.83,1.95,2.66,2.65,3.33,5.2,5.57,4.14,5.22-2.33-.79-4.7-1.69-7.08-2.7l-3.43-1.5c-1.19-.53-2.37-1.09-3.54-1.66-4.69-2.29-9.25-4.83-13.69-7.38-1.45-.83-3.21-4.71-4.99-8.51-1.77-3.81-3.69-7.55-5.18-8.28Z"/><path class="cls-1" d="m510.66,108.74c-.47.22,1.38,2.02,3.19,3.84,1.81,1.82,3.58,3.66,3.13,3.86-4.5,2.01-8.86,4.45-13.54,6.12-2.81,1-8.28.1-13.09-.65-4.81-.78-8.91-1.47-8.41-.92,2.7,2.97,6.23,4.18,8.82,4.85,2.6.66,4.29.73,3.37,1.18-6.53,3.24-12.32,6.29-17.48,9.15-.71.39-3.79.38-6.91.53-3.11.13-6.27.44-6.94.89-.84.55.82,1.2,2.46,1.86,1.64.66,3.28,1.34,2.52,1.77-8.89,5.21-15.53,9.56-20.11,12.51-4.57,2.97-7.06,4.44-7.07,4.42,0,0-.18-1.2-.07-3.67.12-2.47.53-6.23,2.01-11.26,1.48-5.01,4.06-11.31,8.61-18.43,4.53-7.1,11.07-14.99,20.15-22.74.91-.77-.67,3.9-1.91,8.58-1.28,4.68-2.2,9.33-1.39,8.54.83-.82,3.49-7.07,6.81-13.2,3.26-6.14,7.09-12.14,8.13-12.83,2.64-1.81,5.34-3.52,8.07-5.13,1.13-.66-1.41,4.15-3.63,9.02-2.25,4.86-4.15,9.77-3.12,9.09.6-.4,4.19-6.37,8.33-12.16,4.09-5.81,8.68-11.42,9.37-11.74l2.64-1.21c.55-.25,1.1-.49,1.64-.71l1.41-.58,2.81-1.12c1.88-.73,3.77-1.42,5.63-2.07,1.29-.45-1,3.5-3.09,7.45-1.06,1.97-2.08,3.95-2.69,5.38-.69,1.45-.93,2.38-.32,2.16.54-.19,1.81-1.42,3.5-3.2l6.08-6.41c4.42-4.62,9.29-9.11,10.31-9.33,6.18-1.38,12.1-2.16,17.63-2.37,1.23-.04-.12,1.96-1.37,3.99-1.26,2.03-2.43,4.09-1.38,4.06.88-.02,4.01-2.11,7.4-4.01,3.36-1.92,7.07-3.61,7.96-3.47,4.02.55,7.69,1.46,10.91,2.64,1.01.37-1.62,1.7-3.93,3.25-2.34,1.52-4.43,3.23-3.65,3.47,1.27.41,5.36-.57,9.71-.82,2.17-.14,4.39-.08,6.18.17,1.79.25,3.14.69,3.53,1.09,2.29,2.27,3.44,4.34,4.05,5.72.61,1.39.72,2.15.74,2.14.02.09-3.09-.52-7.83.24-.29.04-1.13-.42-2.35-1.05-1.23-.63-2.9-1.39-4.7-2-3.6-1.24-7.66-1.81-8.39-1.41-.47.25,2.37,1.42,4.83,2.87,2.51,1.43,4.48,3.15,3.99,3.31-2.91.99-6.17,2.35-9.91,4.08-.57.26-4.52-1.42-9.03-2.6-4.46-1.22-9.26-2.02-9.96-1.59-.74.44,2.62,2.06,5.74,3.87,3.15,1.79,6,3.78,5.26,4.13l-3.37,1.66c-.62.3-5.75-1.04-10.96-1.87-5.18-.87-10.26-1.36-9.68-.76,2.25,2.39,5.92,3.73,8.78,4.66,2.88.91,4.99,1.38,4.4,1.67-5.32,2.62-11.23,5.51-18.03,8.61-.55.25-1.66.08-3.08-.29-.71-.19-1.49-.42-2.32-.68-.81-.27-1.75-.52-2.5-.86-1.53-.64-3.24-1.19-4.67-1.52-1.43-.34-2.58-.46-3.16-.18Z"/><path class="cls-1" d="m349.84,147.75c1.07-.58-8.17-6.61-7.11-7.15,5.28-2.78,10.97-5.95,17.47-7.78,3.91-1.13,10.8.2,16.13,2.23,5.38,1.98,9.14,4.5,8.94,3.77-1.09-3.88-4.48-6.39-7.39-7.75-2.89-1.38-5.13-1.74-3.67-2.02,5.17-.95,10.29-1.31,15.08-1.16,2.4.08,4.72.28,6.94.59,2.21.3,4.45.75,6.08,1.17.98.24,3.76,2.48,6.42,4.81,2.67,2.32,5.17,4.75,6.04,5.07,1.08.4.59-1.35.01-3.09-.57-1.74-1.21-3.48-.17-3.1,6.13,2.27,11.31,4.95,15.41,7.82,4.12,2.86,7.12,5.93,9.02,8.68,1.91,2.76,2.68,5.12,2.97,6.63.29,1.53.21,2.29.23,2.28,0,.04-1.11-.65-3.34-1.46-2.23-.79-5.5-1.46-10.02-1.6-4.51-.17-10.32.11-17.73.78-3.72.33-7.76.77-12.42,1.25-3.9.52-7.76,1.39-11.91,2.77-.81.29,1.35-3.23,4.28-6.47,2.87-3.27,6.55-6.12,5.47-6.04-.56.04-2.3.84-4.42,2.18-2.13,1.33-4.59,3.23-6.8,5.3-4.44,4.1-7.85,8.85-8.76,9.29-2.27,1.11-4.59,2.33-6.97,3.62-.97.54,1.06-3.94,3.46-8.25,2.34-4.33,5.32-8.45,4.22-8.09-.33.11-1.68,1.36-3.39,3.26-1.72,1.9-3.78,4.48-5.73,7.13-3.89,5.3-7.6,11-8.24,11.35l-2.34,1.3c-3.69,2.03-7.41,4-11.15,5.81-1.29.62.67-3.65,2.47-7.88,1.8-4.24,3.55-8.45,2.39-7.93-.97.42-4.84,5.65-8.97,10.88-4.09,5.2-7.98,10.28-8.87,10.65-5.58,2.26-10.63,4.1-15.21,5.74-1.01.36-.61-1.85-.13-4.1.48-2.25,1.05-4.53.06-4.23-.81.25-3.19,3.08-5.35,5.95-2.18,2.85-4.11,5.74-4.81,5.98l-8.84,3.12c-.84.3-.29-2.17.46-4.68.73-2.52,1.67-5.06.86-4.85-1.28.35-4.25,3.46-6.78,6.72-2.58,3.23-4.69,6.57-5.59,6.94-5.28,2.06-8.26,3.23-8.28,3.19.05.01-.08-3.12,1.74-8.86.22-.74,3.85-3.46,7.66-5.76,3.8-2.35,7.74-4.34,8.21-5.12.29-.5-2.94.19-6.18,1.11-3.23.9-6.49,2.05-6.17,1.45,1.94-3.67,4.62-7.82,8.19-12.1.57-.71,5.96-2,11.24-2.85,5.29-.88,10.49-1.44,11.14-2.05.68-.64-3.18-1.34-7.12-1.91-3.93-.58-7.96-.99-7.18-1.72,1.15-1.08,2.36-2.15,3.6-3.23.7-.62,7.08-1.38,12.93-1.8,5.86-.45,11.27-.75,10.6-1.27-2.65-2.02-6.77-2.67-10.12-2.88-3.35-.22-5.91,0-5.25-.48,5.83-4.28,12.35-8.39,19.18-12.45,2.21-1.32,14.88,2.66,17.48,1.31Z"/><path class="cls-1" d="m469.81,213.36c-.09-.38-2.29.84-4.51,1.98-2.22,1.15-4.46,2.21-4.53,1.87-.65-3.38-1.82-6.71-2.23-10.3-.23-2.15,1.92-6.36,3.7-10.26,1.8-3.87,3.29-7.32,2.67-6.9-3.34,2.2-5.23,5.09-6.44,7.16-1.2,2.08-1.67,3.4-1.87,2.67-1.5-5.2-3.06-9.97-4.56-14.32-.2-.6.46-3.22.97-5.92.53-2.69.91-5.46.65-6.06-.32-.74-1.24.72-2.18,2.16-.93,1.44-1.89,2.87-2.12,2.21-2.8-7.74-5.14-13.87-6.65-18.16-1.53-4.28-2.18-6.69-2.15-6.7,0,0,1.05-.11,3.13.09,2.08.2,5.2.72,9.27,2.17,4.06,1.46,9.08,3.86,14.64,7.97,5.54,4.11,11.65,9.93,17.3,18.23.56.83-3.6-.79-7.74-2-4.15-1.25-8.28-2.1-7.71-1.39.6.73,5.88,3.11,11.05,6.25,5.18,3.06,10.18,6.91,10.64,7.89,1.2,2.46,2.29,4.99,3.25,7.57.39,1.07-3.7-1.77-7.9-4.08-4.2-2.36-8.46-4.21-8.03-3.31.25.53,5.19,3.89,9.85,8.07,4.69,4.1,9.01,9.05,9.14,9.72.18.82.35,1.63.5,2.45.71,3.84,1.09,7.59,1.18,11.21.03,1.25-3-1.84-6.21-4.51-3.2-2.72-6.55-5.04-6.47-3.99.07.85,3.52,5.12,6.49,10.07,3.02,4.88,5.46,10.43,5.28,11.35-.95,5.57-2.57,10.55-4.52,14.83-.44.95-1.74-.86-3.12-2.57-1.37-1.73-2.82-3.36-3.2-2.55-.31.66.39,3.77.83,7.03.47,3.23.65,6.58.22,7.17-1.93,2.66-3.93,4.87-5.87,6.69-.61.57-1.17-1.78-1.87-4.04-.68-2.27-1.5-4.46-1.99-3.99-.8.75-1.32,4.08-2.15,7.36-.79,3.28-1.86,6.5-2.62,6.9-4.38,2.29-7.04,2.66-7.03,2.69-.03,0-.26-2.62-.43-7.07-.02-.56,2.22-2.66,4.29-5.07,2.09-2.38,3.99-5.06,3.87-5.76-.07-.44-2.11,1.13-4.2,2.46-2.09,1.35-4.22,2.47-4.24,2-.13-2.81-.31-5.95-.57-9.35-.04-.53,2.9-2.64,5.65-5.28,2.78-2.58,5.32-5.68,5.18-6.32-.13-.66-2.89,1.16-5.71,2.62-2.82,1.5-5.68,2.62-5.74,2l-.29-2.8c-.05-.51,3.08-3.32,5.73-6.6,2.68-3.22,4.86-6.77,4.1-6.5-3.01,1.02-5.53,3.17-7.42,4.79-1.87,1.63-3.07,2.81-3.12,2.36-.53-4.13-1.18-8.56-2-13.41-.13-.78,2.03-2.79,4.06-5.07,2.05-2.25,3.96-4.75,3.73-5.7Z"/><path class="cls-1" d="m84.85,81.11c.76-.2-1.16-2.2-3.15-4.14-1.99-1.95-4.06-3.85-3.25-4.08,7.99-2.3,16.27-4.28,24.51-4.67,2.48-.11,5.6.5,8.78,1.53,1.6.52,3.22,1.14,4.79,1.82,1.59.67,3.2,1.4,4.67,2.14,5.93,2.96,10.1,6.11,10,5.35-.55-4.02-4.07-7.09-7.16-8.98-3.08-1.91-5.6-2.68-3.81-2.68,12.59.12,23.99,2.3,33.6,5.75,1.34.47,4.83,3.41,7.9,6.57,3.11,3.14,5.76,6.47,6.79,7.12,1.27.8,1.02-1.1.65-3.05-.37-1.93-.85-3.9.41-3.13,7.41,4.56,12.9,9.62,16.92,14.26,4.02,4.65,6.62,8.88,8.39,12.31,1.77,3.44,2.73,6.09,3.3,7.86.57,1.77.74,2.67.75,2.67,0,.01-1.39-.67-4.13-2.15-2.76-1.45-6.87-3.72-12.51-6.25-11.31-5.01-28.61-11.05-54.07-8.68-1.27.13,2.88-2.94,7.55-5.55,4.61-2.67,9.77-4.78,8.34-4.92-.74-.06-3.13.39-6.2,1.31-3.08.91-6.84,2.32-10.42,3.94-1.8.81-3.56,1.66-5.19,2.5l-4.57,2.4c-2.8,1.47-4.83,2.55-5.52,2.68-3.57.68-7.09,1.42-10.56,2.26-1.42.36,2.82-3.72,7.62-7.51,4.75-3.81,10-7.33,8.42-7.17-.94.09-8.67,3.94-15.58,8.49-7,4.47-12.99,9.6-13.78,9.85l-2.98.96c-4.62,1.53-8.97,3.14-13.06,4.85-1.41.59.93-3.69,3.84-7.89,2.85-4.21,6.26-8.28,4.71-7.89-1.27.32-7.41,5.25-12.54,10.71-5.22,5.41-9.38,11.24-10.36,11.76-6.13,3.2-11.65,6.51-16.66,9.79-1.1.73-.9-1.77-.54-4.33.34-2.55.84-5.17-.28-4.54-.93.52-3.44,4.33-5.58,8.23-2.17,3.89-4,7.86-4.76,8.43-3.51,2.59-6.7,5.07-9.59,7.36-.9.72-.56-2.36-.03-5.52.51-3.15,1.24-6.35.37-5.78-1.42.92-4.31,5.65-6.73,10.45-2.45,4.79-4.46,9.63-5.42,10.42-5.58,4.58-8.69,6.85-8.7,6.82.03,0-.21-3.72,1.1-10.97.17-.91,3.71-5.35,7.57-9.51,3.83-4.2,7.98-8.09,8.4-9.15.27-.68-3.26,1.46-6.7,3.82-3.44,2.35-6.78,4.92-6.52,4.11,1.6-4.87,3.89-10.52,7.35-16.73.54-1,6.46-4.71,12.58-7.71,6.11-3.07,12.38-5.38,13.15-6.24.82-.91-3.88-.47-8.65.37-4.75.8-9.53,2.01-8.67.88,1.27-1.65,2.66-3.31,4.12-4.98.8-.94,8.59-4.28,16.03-6.4,7.44-2.22,14.4-3.38,13.61-3.83-3.1-1.76-8.42-1.6-12.74-.88-4.32.69-7.6,1.82-6.74,1.06,7.65-6.63,17.13-12.92,28.33-17.88,1.82-.81,6.71-.2,11.43.74,4.74.91,9.31,2.12,11.18,1.61Z"/><path class="cls-1" d="m97.17,161.91c.56-.45-1.9-1.59-4.45-2.61-2.54-1.03-5.15-1.95-4.54-2.47,3-2.55,6.11-5,9.37-7.2,1.62-1.1,3.31-2.13,4.8-2.98,1.57-.9,3.23-1.76,4.88-2.52,4.02-1.86,11.17-1.73,16.96-1.01,5.81.69,10.4,1.79,9.98,1.16-2.26-3.34-6.23-4.77-9.36-5.42-3.12-.66-5.37-.57-4.01-1.14,9.61-4.01,18.21-6.66,25.8-8.78,2.12-.58,14.66,2.26,16.61,1.71,2.39-.64-5.83-4.51-3.62-5.03,12.94-3.04,22.36-4.89,28.78-6.16,6.39-1.26,9.69-1.72,9.7-1.7,0,0-.56,1.27-2.15,3.68-1.58,2.41-4.22,5.95-8.49,10.32-4.25,4.37-10.18,9.52-17.94,15.06-7.73,5.57-17.35,11.45-28.05,18.01-1.07.66,1.29-3.84,3.89-8.35,2.58-4.51,5.3-9.02,4.14-8.38-1.2.67-6.3,6.49-10.97,12.36-4.73,5.88-8.76,11.81-9.77,12.52l-3.95,2.71-3.88,2.78c-.49.36-.36-.65.37-2.5.66-1.81,1.73-4.31,2.94-6.83,2.4-5.04,5.29-10.07,4.05-9.38-.73.41-5.53,6.55-9.43,12.9-4.04,6.28-6.15,12.39-6.67,12.87-.63.56-1.24,1.13-1.84,1.7-2.83,2.68-5.36,5.38-7.66,8.1-.78.95-1.22-3.31-.98-7.83.17-4.5,1.07-9.2,0-8.34-.89.7-3.53,7.07-4.77,13.36-1.37,6.3-1.46,12.4-1.97,13.18-3.15,4.81-5.83,9.65-8.19,14.31-.51,1.04-1.71-.97-2.81-3.1-1.11-2.12-2.12-4.36-2.71-3.39-.48.8-.47,4.83-.15,8.77.29,3.95.86,7.81.51,8.59-1.6,3.55-3.04,6.88-4.37,9.92-.41.95-1.68-1.6-2.85-4.27-1.18-2.66-2.25-5.45-2.69-4.63-.72,1.33-.71,6.24-.39,11,.29,4.77.85,9.41.38,10.44-2.73,5.92-4.51,8.94-4.53,8.93.01,0-1.84-2.86-4.13-9.01-.29-.78.7-5.67,1.94-10.53,1.21-4.87,2.71-9.67,2.52-10.67-.13-.64-2.01,2.55-3.75,5.84-1.74,3.29-3.37,6.66-3.54,5.93-1.04-4.42-1.96-9.71-2.31-15.99-.06-1,2.97-6.44,6.46-11.49,3.44-5.1,7.34-9.68,7.51-10.69.18-1.08-3.46,1.32-6.95,4.09-3.5,2.74-6.85,5.81-6.74,4.55.18-1.86.42-3.78.74-5.75.16-1.09,4.82-7.25,9.84-12.25,4.96-5.09,10.15-8.94,9.26-8.98-3.47-.18-7.81,2.25-11.03,4.76-3.22,2.48-5.35,4.88-5.04,3.87,2.82-8.82,7.53-18.43,14.84-27.45,1.17-1.48,5.69-2.95,10.14-3.93,4.48-1.01,8.87-1.56,10.25-2.66Z"/><path class="cls-1" d="m241.53,146.03c-.17-.24-1.81,1.62-3.49,3.42-1.67,1.81-3.37,3.58-3.52,3.36-1.5-2.21-3.28-4.14-4.34-6.58-.62-1.46.5-5.48,1.28-9.19.83-3.69,1.36-7.05.94-6.44-2.29,3.27-3.34,6.32-4.01,8.39-.66,2.09-.84,3.25-1.12,2.82-2.04-3.04-3.81-5.63-5.47-7.92-.23-.31-.15-2.58-.38-4.89-.19-2.31-.74-4.64-1.08-4.93-.43-.36-.56,1.31-.77,2.96-.21,1.66-.49,3.28-.76,2.95-1.6-1.95-3.25-3.66-4.94-5.09-1.69-1.44-3.39-2.6-4.88-3.51-3.02-1.81-5-2.77-4.97-2.8,0,0,.33-.86,1.38-2.3,1.06-1.42,2.89-3.47,6.25-5.33,3.32-1.84,8.35-3.41,14.73-3.09,6.35.27,13.79,2.53,20.87,6.95.71.45-3.33.9-7.17,1.79-3.87.85-7.45,2.19-6.78,2.48.67.28,5.66-.31,10.9-.01,5.22.21,10.51,1.15,11.14,1.71,1.63,1.41,3.17,2.89,4.61,4.41.59.63-3.68.27-7.88.29-4.21-.02-8.3.38-7.72.9.33.29,5.34.8,10.41,1.93,5.06,1.08,10.1,2.69,10.39,3.09l1.06,1.49c1.62,2.34,2.98,4.66,4.15,6.95.4.79-3.21.25-6.8-.09-3.6-.36-7.17-.52-6.82.18.29.57,4.48,2.03,8.64,3.84,4.16,1.78,8.27,3.87,8.47,4.48,1.22,3.76,1.95,7.32,2.33,10.63.08.73-1.86.48-3.8.27-1.94-.22-3.89-.4-3.85.27.03.55,2.05,1.94,4.03,3.42,1.98,1.47,3.93,3.04,3.91,3.57-.09,2.4-.35,4.61-.72,6.6-.12.62-1.98-.16-3.85-.88-1.87-.73-3.74-1.42-3.87-.89-.2.85,1.32,2.89,2.78,4.97,1.46,2.07,2.85,4.2,2.58,4.85-1.57,3.72-3.08,5.54-3.07,5.54,0,0-2.06-1.02-5.22-3.04-.4-.25-.24-2.66-.23-5.15.03-2.48-.08-5.01-.57-5.32-.31-.2-.99,1.83-1.75,3.8-.75,1.97-1.58,3.87-1.9,3.64-1.92-1.38-4.03-3.01-6.23-4.9-.35-.3.69-3.32,1.57-6.48.9-3.15,1.64-6.41,1.24-6.74-.41-.35-1.94,2.23-3.56,4.71-1.61,2.49-3.31,4.86-3.69,4.49l-1.72-1.7c-.31-.32.85-3.94,1.73-7.5.9-3.55,1.53-6.99.96-6.45-4.47,4.32-5.63,10.81-6.19,10.2-2.36-2.65-4.73-5.59-7.07-8.81-.38-.52.88-2.98,2.04-5.53,1.17-2.55,2.22-5.2,1.78-5.8Z"/><path class="cls-1" d="m255.32,71.86c-.36.27,1.7,1.76,3.72,3.27,2.03,1.51,4.02,3.05,3.67,3.3-3.46,2.41-6.73,5.21-10.51,7.28-2.27,1.24-7.38.97-11.89.72-4.5-.26-8.38-.52-7.8-.06,6.25,4.95,13.82,3.42,12.38,4.48l-3.74,2.67-1.78,1.28-1.47,1.01c-1.98,1.43-4.07,3.14-6.07,4.78-.55.45-3.41.9-6.33,1.47-2.91.56-5.85,1.18-6.41,1.66-1.39,1.19,6.74,1.83,5.43,2.88-3.86,3.1-7.55,5.76-10.91,7.76-3.36,2.02-6.36,3.4-8.82,4.27-4.94,1.74-7.58,1.61-7.57,1.65-.06-.03,1.17-4.27,3.44-12.14,1.16-3.97,2.54-8.9,4.87-15.19,1.18-3.15,2.62-6.65,4.63-10.56,1.01-1.96,2.18-4.01,3.58-6.17.64-1.01,1.61-2.37,2.41-3.4.82-1.09,1.55-2.04,2.37-3.08.32-.4.4.53.37,2.11l-.09,2.8-.24,3.46c-.19,4.68.31,8.97.8,8.16.28-.44.59-2.16,1.09-4.59.23-1.2.64-2.71,1-4.15l1.12-4.46c1.56-6.04,3.6-12.06,4.37-12.83,1.94-1.98,3.94-3.88,6-5.71.85-.75-.28,4.08-1.13,8.89-.87,4.81-1.45,9.59-.68,8.85.45-.43,2.29-6.38,4.61-12.31,2.27-5.93,5.02-11.82,5.56-12.21l2.01-1.44c3.15-2.21,6.3-4.17,9.42-5.88,1.08-.59-.19,3.5-1.22,7.58-1.06,4.09-1.9,8.16-.95,7.63.78-.44,3.39-5.48,6.43-10.45,2.98-4.97,6.45-9.85,7.31-10.18,5.21-2.02,10.22-3.4,14.91-4.26,1.04-.19.3,1.92-.38,4.04-.67,2.13-1.29,4.25-.38,4.11.75-.11,3.06-2.5,5.54-4.78,2.46-2.3,5.14-4.48,5.9-4.5,3.4-.1,6.52.11,9.3.49.87.12-.76,2.03-2.25,3.99-1.51,1.96-2.88,3.97-2.17,4.07,1.15.17,4.36-1.52,7.71-2.94,3.33-1.45,6.82-2.61,7.67-2.23,4.88,2.05,6.89,4.03,6.91,3.99.02.02-2.15,1.73-5.85,4.6-.46.35-3.73-.11-7.18-.21-3.43-.13-6.99.07-7.53.6-.34.34,2.33.95,4.86,1.74,2.54.77,4.91,1.74,4.52,2.05l-8.02,6.39c-.47.38-4.35-.56-8.48-1.13-4.12-.6-8.43-.87-8.95-.39-.55.5,2.69,1.73,5.75,3.12,3.08,1.38,5.97,2.93,5.4,3.38l-2.61,2.04c-.48.37-5.19-.36-9.86-.65-4.65-.33-9.17-.3-8.54.22,2.46,2.07,5.9,3.01,8.56,3.63,2.66.61,4.57.85,4.12,1.18-4.04,3.06-8.51,6.35-13.47,9.89-.8.57-3.91-.25-7.11-.95-3.19-.71-6.47-1.3-7.37-.64Z"/><path class="cls-1" d="m123.48,17.21c.77.28.29-2.47-.29-5.22-.57-2.75-1.23-5.51-.41-5.23,8.13,2.74,16.38,5.94,23.7,10.61,4.45,2.8,9.18,9.65,12.22,15.66,3.1,6.01,4.68,11.09,5.05,10.42,1.92-3.57.86-8.19-.55-11.6-1.39-3.4-2.98-5.57-1.53-4.48,10.25,7.8,18.3,16.4,24.25,24.98.83,1.18,2.02,5.68,2.75,10.13.78,4.45,1.07,8.81,1.55,9.98.59,1.44,1.48-.29,2.29-2.12.81-1.82,1.53-3.74,2.13-2.33,3.54,8.26,5.15,15.9,5.63,22.3.49,6.42-.1,11.61-.91,15.55-.82,3.95-1.86,6.69-2.6,8.46-.76,1.76-1.24,2.57-1.24,2.57-.01,0-.56-1.48-1.64-4.48-1.11-2.98-2.78-7.48-5.68-13.03-2.91-5.55-7.08-12.1-13.43-19.05-6.35-6.94-14.9-14.31-26.36-21.36-1.15-.69,4.18-.54,9.65.23,5.45.71,10.99,2.15,9.87,1.16-.58-.51-2.84-1.6-5.96-2.76-3.12-1.16-7.1-2.36-11.07-3.29-7.96-1.93-15.83-2.63-17.11-3.22-3.29-1.56-6.65-3-10.03-4.34-1.4-.54,4.51-1.41,10.7-1.64,6.16-.3,12.56.1,11.17-.74-.82-.52-9.47-2.08-17.9-2.4-8.46-.43-16.56.29-17.38.05l-3.11-.94c-4.86-1.43-9.56-2.62-14.08-3.6-1.56-.33,2.99-2.48,7.94-4.23,4.91-1.79,10.19-3.16,8.63-3.73-1.28-.48-9.39,0-17,1.51-7.67,1.4-14.64,3.79-15.77,3.66-7.06-.89-13.55-1.25-19.47-1.22-1.31.01.18-1.98,1.9-3.93,1.7-1.95,3.62-3.84,2.3-3.94-1.08-.09-5.38,1.71-9.24,3.89-3.91,2.14-7.33,4.65-8.24,4.76-4.18.49-8,1.19-11.47,2.02-1.07.27.38-2.37,2.25-4.95,1.84-2.58,4.07-5.07,3.02-4.98-1.72.14-6.62,3.04-10.73,6.56-4.19,3.46-7.49,7.44-8.63,7.92-3.31,1.36-5.84,2.58-7.54,3.4l-2.6,1.26s.15-.94.68-2.78c.55-1.83,1.5-4.56,3.36-8.02.45-.89,5.49-4.4,10.96-6.88,5.44-2.59,11.14-4.18,12.06-4.93.58-.48-3.7-.23-8.05.59-4.35.76-8.71,2.14-8.11,1.45,3.69-4.19,8.74-8.66,15.38-12.65.53-.32,2.68-.64,5.6-.77,2.92-.13,6.58-.04,10.15.29,7.18.59,13.89,2.21,15.06,1.92,1.23-.3-3.04-2.58-7.69-4.48-4.61-1.94-9.62-3.4-8.18-3.91,2.11-.73,4.31-1.41,6.6-2.01.63-.16,3.16.08,6.48.73,3.31.64,7.38,1.69,11.19,2.91,7.66,2.41,14.22,5.49,13.83,4.66-1.6-3.22-6.19-6.15-10.3-8.03-4.09-1.9-7.59-2.83-6.4-2.97,10.52-1.12,22.2-.76,34.52,1.62,2.01.38,5.79,3.7,9.25,7.19,3.5,3.48,6.69,7.11,8.58,7.79Z"/></g></svg>