<?xml version="1.0" encoding="UTF-8"?>
<svg id="Layer_2" data-name="Layer 2" xmlns="http://www.w3.org/2000/svg" viewBox="0 0 162.78 195.29">
  <defs>
    <style>
      .cls-1 {
        fill: #ff0086;
        stroke-width: 0px;
      }
    </style>
  </defs>
  <g id="Layer_1-2" data-name="Layer 1">
    <path class="cls-1" d="m145.14,0c1.03.28,2.06.53,3.09.83,8.22,2.37,14.17,9.99,14.51,18.57.02.57.04,1.14.04,1.72,0,37.44.01,74.87,0,112.31,0,9.61-5.17,17.21-13.8,20.01-2.31.75-4.85,1-7.3,1.08-4.7.16-9.41-.06-14.11.09-2.79.09-4.47-.96-5.68-3.48-3.33-6.93-8.87-11.12-16.47-12.49-1.11-.2-2.25-.2-3.68-.31,0,.86,0,1.53,0,2.21,0,4.26,0,8.52,0,12.78-.02,13.16-7.25,22.31-20.31,25.42,0,1.3.01,2.67,0,4.05-.07,7.23-5.31,12.48-12.57,12.49-18.75.03-37.51.03-56.26,0-7.2-.01-12.47-5.15-12.49-12.33-.06-18.11-.24-36.23.06-54.34.33-20.01,8.88-36.06,24.67-48.28,4.67-3.62,9.37-7.2,14.15-10.68,1.35-.98,1.77-2.03,1.76-3.64-.06-14.49-.03-28.98-.03-43.47,0-12.34,5.58-19.45,17.51-22.33.12-.03.22-.13.32-.2,6.74,0,13.48,0,20.22,0,1,1.25,2.23,2.38,2.97,3.77,4.31,8.06,11,12.46,20.09,12.45,9.09,0,15.75-4.47,20.06-12.51C122.62,2.33,123.89,1.23,124.92,0c6.74,0,13.48,0,20.22,0Zm9.54,48.83c0-.78,0-1.33,0-1.89,0-8.64.01-17.29,0-25.93-.02-7.63-5.15-12.82-12.77-12.89-3.88-.04-7.76.04-11.63-.04-1.19-.02-1.78.43-2.37,1.42-11.94,19.92-40.28,19.88-52.28-.08-.61-1.01-1.27-1.36-2.42-1.33-3.69.07-7.37.02-11.06.03-8.16.02-13.2,5.04-13.22,13.18-.02,8.52,0,17.03,0,25.55,0,.61.06,1.23.11,1.99,1.39,0,2.65-.05,3.91.01,2.33.11,4.03,1.79,4.07,3.97.05,2.26-1.66,3.99-4.1,4.1-1.25.05-2.51,0-3.86,0v36.57c.67-.59,1.14-.99,1.59-1.4,6.78-6.24,13.54-12.5,20.34-18.73,4.35-3.99,9.09-3.69,12.96.76,8.06,9.28,7.66,22.95-1,31.85-3.9,4.01-7.88,7.94-11.88,11.85-.79.77-.96,1.43-.59,2.48,1.86,5.34,2.32,10.82,1.03,16.32-.78,3.3-2.04,6.48-3.13,9.84,1.54,0,3.23-.08,4.91.03,1.18.08,1.8-.36,2.39-1.36,11.84-19.93,40.35-19.93,52.26.02.61,1.03,1.26,1.36,2.41,1.34,3.69-.07,7.37-.02,11.06-.03,8.24,0,13.28-5.05,13.28-13.31,0-24.66,0-49.32,0-73.98v-2.26c-1.52,0-2.84.06-4.16-.01-2.38-.13-3.94-1.77-3.92-4.04.01-2.23,1.64-3.9,3.99-4.01,1.27-.06,2.54-.01,4.1-.01Zm-114.07,29.76c-3.95,2.99-7.64,5.69-11.23,8.5-13.53,10.59-20.83,24.48-21.11,41.67-.29,17.92-.08,35.85-.06,53.77,0,3,1.57,4.62,4.59,4.63,18.63.03,37.25.03,55.88,0,3.01,0,4.57-1.61,4.65-4.61.05-2.22,0-4.45.02-6.67.02-3.51,1.31-4.85,4.76-5.02,7.61-.37,14-5.84,15.19-13.37.46-2.92.3-5.95.35-8.93.05-2.82.01-5.64.01-8.67-.63.25-.98.38-1.31.53-4.91,2.31-8.51,5.97-10.77,10.87-1.1,2.4-2.76,3.46-5.39,3.3-2.15-.13-4.32-.04-6.48-.02-2.66.03-5.66-.65-7.88.36-2.15.98-3.5,3.72-5.19,5.7-1.93,2.27-4.23,2.74-6.14,1.23-1.98-1.56-2.06-4.06-.15-6.37,2.71-3.29,5.52-6.49,8.15-9.83,6.1-7.73,7.15-16.17,3.33-25.23-1.13-2.68-.94-3.89,1.14-5.97,4.53-4.54,9.11-9.05,13.6-13.64,1.19-1.21,2.31-2.57,3.14-4.04,3.3-5.88,2.06-13.97-2.66-17.85-.46.4-.95.8-1.41,1.23-10.38,9.56-20.75,19.13-31.12,28.69-4.3,3.96-8.58,7.95-12.92,11.87-2.38,2.15-5.44,1.63-6.69-1.02-.82-1.74-.39-3.49,1.36-5.11,4.43-4.1,8.91-8.15,13.28-12.32.64-.61,1.12-1.7,1.14-2.58.09-6.42.05-12.84.05-19.26,0-.49-.05-.98-.11-1.84Z"/>
    <path class="cls-1" d="m83,56.92c-2.41,0-4.83.04-7.24-.01-2.65-.06-4.31-1.67-4.29-4.07.02-2.35,1.76-3.99,4.38-4.01,4.76-.03,9.53-.03,14.29,0,2.65.02,4.36,1.63,4.39,4,.03,2.39-1.64,4.02-4.28,4.08-2.41.05-4.83.01-7.24.01Z"/>
    <path class="cls-1" d="m120.58,56.92c-2.42,0-4.83.04-7.25-.01-2.58-.05-4.39-1.76-4.37-4.04.01-2.3,1.83-4.01,4.41-4.03,4.77-.04,9.53-.03,14.3,0,2.6.02,4.41,1.68,4.46,3.97.05,2.37-1.77,4.07-4.49,4.11-2.35.04-4.7,0-7.05,0Z"/>
  </g>
</svg>