<svg width="73" height="124" viewBox="0 0 73 124" fill="none" xmlns="http://www.w3.org/2000/svg">
<g clip-path="url(#clip0_152_746)">
<path d="M74.3811 67.7195C74.3811 67.7195 80.4997 68.4393 82.6597 70.236C84.8197 72.0327 94.5377 103.311 94.5377 103.311L81.941 111.222C81.941 111.222 79.4217 113.02 74.7423 113.02C70.063 113.02 74.383 67.7214 74.383 67.7214" fill="white"/>
<path d="M74.3811 67.7195C74.3811 67.7195 80.4997 68.4393 82.6597 70.236C84.8197 72.0327 94.5377 103.311 94.5377 103.311L81.941 111.222C81.941 111.222 79.4217 113.02 74.7423 113.02C70.063 113.02 74.383 67.7214 74.383 67.7214L74.3811 67.7195Z" stroke="black" stroke-width="2" stroke-miterlimit="10"/>
<path d="M45.0477 70.7752C45.0477 70.7752 50.9876 66.6405 53.1457 68.4391C55.3057 70.2358 65.0237 103.313 65.0237 103.313L51.7063 113.199C51.7063 113.199 46.1276 111.402 44.867 110.862C40.5661 109.022 45.0477 70.7771 45.0477 70.7771" fill="white"/>
<path d="M45.0477 70.7752C45.0477 70.7752 50.9876 66.6405 53.1457 68.4391C55.3057 70.2358 65.0237 103.313 65.0237 103.313L51.7063 113.199C51.7063 113.199 46.1276 111.402 44.867 110.862C40.5661 109.022 45.0477 70.7771 45.0477 70.7771V70.7752Z" stroke="black" stroke-width="2" stroke-miterlimit="10"/>
<path d="M44.5786 111.157C44.5786 111.157 59.5958 92.7078 45.3296 70.2075C45.3296 70.2075 -1.67282 88.9568 44.5786 111.157Z" fill="url(#paint0_linear_152_746)"/>
<path d="M49.6833 68.2571C49.6833 68.2571 52.6876 54.0071 67.5546 52.5067C82.4216 51.0063 75.6545 65.8565 74.6829 67.6569C74.6829 67.6569 87.677 88.5068 74.6125 113.708C74.6125 113.708 75.664 123.759 69.6575 123.609C63.651 123.459 60.1981 122.708 57.7947 120.608C55.3913 118.507 52.2388 113.858 50.4363 112.958C50.4363 112.958 67.7067 91.9577 49.6852 68.2571" fill="url(#paint1_linear_152_746)"/>
<path d="M33.0144 88.5069C33.0144 86.4348 34.6952 84.7578 36.7697 84.7578C38.8441 84.7578 40.523 86.4367 40.523 88.5069C40.523 90.5771 38.8422 92.2579 36.7697 92.2579C34.6971 92.2579 33.0144 90.579 33.0144 88.5069Z" fill="white"/>
<path d="M94.5371 103.311L81.9404 111.22C81.9404 111.22 79.5009 112.961 74.9642 113.014C86.903 89.196 75.7323 69.423 74.7512 67.7688C76.1031 67.9549 80.8205 68.7032 82.6591 70.2359C84.8191 72.0326 94.5371 103.311 94.5371 103.311Z" stroke="white" stroke-width="2" stroke-miterlimit="10"/>
<path d="M94.5371 103.311L81.9404 111.22C81.9404 111.22 79.5009 112.961 74.9642 113.014C86.903 89.196 75.7323 69.423 74.7512 67.7688C76.1031 67.9549 80.8205 68.7032 82.6591 70.2359C84.8191 72.0326 94.5371 103.311 94.5371 103.311Z" stroke="white" stroke-width="2" stroke-miterlimit="10"/>
<path d="M50.5436 112.821C48.838 112.262 45.7635 111.244 44.8679 110.861C44.8527 110.855 44.8375 110.847 44.8223 110.84C46.6932 108.327 58.4058 91.139 45.4992 70.4772C46.3015 69.9606 48.0546 68.9046 49.7545 68.3481C66.8252 90.9073 51.9658 110.996 50.5436 112.821Z" stroke="white" stroke-width="2" stroke-miterlimit="10"/>
<path d="M50.5436 112.821C48.838 112.262 45.7635 111.244 44.8679 110.861C44.8527 110.855 44.8375 110.847 44.8223 110.84C46.6932 108.327 58.4058 91.139 45.4992 70.4772C46.3015 69.9606 48.0546 68.9046 49.7545 68.3481C66.8252 90.9073 51.9658 110.996 50.5436 112.821Z" stroke="white" stroke-width="2" stroke-miterlimit="10"/>
<path d="M45.4989 70.4772C45.4437 70.3879 45.3867 70.2968 45.3296 70.2075C45.3296 70.2075 -1.67282 88.9568 44.5786 111.157C44.5786 111.157 44.6661 111.049 44.822 110.84C46.6929 108.327 58.4055 91.1391 45.4989 70.4772ZM36.7696 92.2558C34.697 92.2558 33.0162 90.5769 33.0162 88.5067C33.0162 86.4365 34.697 84.7557 36.7696 84.7557C38.8421 84.7557 40.5248 86.4346 40.5248 88.5067C40.5248 90.5788 38.844 92.2558 36.7696 92.2558Z" stroke="white" stroke-width="2" stroke-miterlimit="10"/>
<path d="M40.525 88.5069C40.525 90.577 38.8441 92.256 36.7697 92.256C34.6953 92.256 33.0164 90.577 33.0164 88.5069C33.0164 86.4367 34.6972 84.7559 36.7697 84.7559C38.8422 84.7559 40.525 86.4348 40.525 88.5069Z" stroke="white" stroke-width="2" stroke-miterlimit="10"/>
<path d="M74.9643 113.015C74.8502 113.244 74.7323 113.474 74.6125 113.706C74.6125 113.706 75.664 123.757 69.6575 123.607C63.6491 123.457 60.1962 122.706 57.7928 120.606C55.3913 118.505 52.2369 113.856 50.4344 112.956C50.4344 112.956 50.4724 112.91 50.5428 112.821C51.965 110.996 66.8244 90.9075 49.7537 68.3483C49.7309 68.3179 49.7062 68.2856 49.6833 68.2552C49.6833 68.2552 52.6876 54.0071 67.5546 52.5067C82.4216 51.0063 75.6545 65.8565 74.6829 67.6569C74.6829 67.6569 74.7057 67.6949 74.7513 67.769C75.7324 69.4232 86.9031 89.1962 74.9643 113.015Z" stroke="white" stroke-width="2" stroke-miterlimit="10"/>
<path d="M40.525 88.5069C40.525 90.577 38.8441 92.256 36.7697 92.256C34.6953 92.256 33.0164 90.577 33.0164 88.5069C33.0164 86.4367 34.6972 84.7559 36.7697 84.7559C38.8422 84.7559 40.525 86.4348 40.525 88.5069Z" stroke="white" stroke-width="2" stroke-miterlimit="10"/>
<path d="M14.2344 84.8276C14.2344 83.0765 15.6604 81.6521 17.4116 81.6521C19.1628 81.6521 20.5907 83.0765 20.5907 84.8276C20.5907 86.5787 19.1647 88.0032 17.4116 88.0032C15.6585 88.0032 14.2344 86.5787 14.2344 84.8276Z" stroke="white" stroke-width="2" stroke-miterlimit="10"/>
<path d="M11.0872 73.5672C11.0872 71.29 12.941 69.4382 15.2208 69.4382C17.5006 69.4382 19.3563 71.29 19.3563 73.5672C19.3563 75.8444 17.5006 77.6961 15.2208 77.6961C12.941 77.6961 11.0872 75.8444 11.0872 73.5672Z" stroke="white" stroke-width="2" stroke-miterlimit="10"/>
<path d="M16.917 63.3344C16.917 60.6375 19.1131 58.4438 21.8131 58.4438C24.5131 58.4438 26.7092 60.6375 26.7092 63.3344C26.7092 66.0313 24.5112 68.2268 21.8131 68.2268C19.115 68.2268 16.917 66.0313 16.917 63.3344Z" stroke="white" stroke-width="2" stroke-miterlimit="10"/>
<path d="M7.01855 50.5107C7.01855 47.3941 9.55692 44.8567 12.679 44.8567C15.8011 44.8567 18.3414 47.3941 18.3414 50.5107C18.3414 53.6274 15.8011 56.1648 12.679 56.1648C9.55692 56.1648 7.01855 53.6274 7.01855 50.5107Z" stroke="white" stroke-width="2" stroke-miterlimit="10"/>
<path d="M3.14893 22.6449C3.14893 12.3643 11.5227 4 21.8149 4C32.1072 4 40.4809 12.3643 40.4809 22.6449C40.4809 32.9255 32.1091 41.2897 21.8149 41.2897C11.5208 41.2897 3.14893 32.9255 3.14893 22.6449Z" stroke="white" stroke-width="2" stroke-miterlimit="10"/>
<path d="M16.7574 25.0246V27.4043H8.98828V25.0246H11.597V20.8899C10.9163 21.4559 9.99792 21.5357 9.21455 21.5357V18.9071C9.99792 18.9071 10.8022 18.6355 11.597 17.8872H14.7381V25.0246H16.7574Z" fill="white"/>
<path d="M17.3579 24.6388C17.3579 23.5392 17.9131 22.7244 18.9912 22.1698V21.9894C18.4246 21.638 18.05 20.9581 18.05 20.2231C18.05 18.7512 19.2631 17.6401 21.9403 17.6401C24.6174 17.6401 25.8533 18.7512 25.8533 20.2231C25.8533 20.96 25.4559 21.6399 24.8893 21.9894V22.1698C25.9674 22.7244 26.5226 23.5411 26.5226 24.6388C26.5226 26.1905 25.4217 27.6529 21.9403 27.6529C18.4588 27.6529 17.3579 26.1924 17.3579 24.6388ZM23.4709 24.2419C23.4709 23.6759 23.0849 23.1878 21.9403 23.1878C20.7956 23.1878 20.4096 23.674 20.4096 24.2419C20.4096 24.8098 20.7842 25.296 21.9403 25.296C23.0963 25.296 23.4709 24.8193 23.4709 24.2419ZM23.0849 20.5935C23.0849 20.0617 22.6761 19.7673 21.9403 19.7673C21.2044 19.7673 20.7956 20.0617 20.7956 20.5935C20.7956 21.0797 21.136 21.3968 21.9403 21.3968C22.7446 21.3968 23.0849 21.0797 23.0849 20.5935Z" fill="white"/>
<path d="M35.4007 23.8792H32.6912V26.5761H30.0711V23.8792H27.3711V21.3987H30.0711V18.6904H32.6912V21.3987H35.4007V23.8792Z" fill="white"/>
</g>
<defs>
<linearGradient id="paint0_linear_152_746" x1="37.8482" y1="70.2075" x2="37.8482" y2="111.157" gradientUnits="userSpaceOnUse">
<stop stop-color="#FF0086"/>
<stop offset="1" stop-color="#DEA05B"/>
</linearGradient>
<linearGradient id="paint1_linear_152_746" x1="65.0603" y1="52.4004" x2="65.0603" y2="123.61" gradientUnits="userSpaceOnUse">
<stop stop-color="#FF0086"/>
<stop offset="1" stop-color="#DEA05B"/>
</linearGradient>
<clipPath id="clip0_152_746">
<rect width="95" height="124" fill="white"/>
</clipPath>
</defs>
</svg>
