<?xml version="1.0" encoding="UTF-8"?><svg id="Layer_2" xmlns="http://www.w3.org/2000/svg" viewBox="0 0 546.99 136.07"><defs><style>.cls-1{fill:#fff;}</style></defs><g id="Layer_1-2"><path class="cls-1" d="m29.94,58.47s-.19-.34-.44-.98l-.97-2.4c-.38-1.02-.75-2-1.22-2.96-.46-1.01-.94-1.78-1.41-2.49,0,0-.45-.67-1.12-1.42-.7-.85-1.44-1.58-2.13-2.18l-.86-.78c-.43-.39-1.41-1.22-2.08-1.91-.6-.58-1.2-1.23-1.7-1.96l-.4-.66c-.53-1.05-.71-2.15-.65-3.26l6.27-4.19c1.73-1.15,3.16-1.18,4.72-.61.76.25,1.64.68,2.48,1.18.86.53,1.8,1.17,2.65,1.92.58.55,1.05,1.08,1.41,1.6.72,1.09,1.04,2.19.87,3.4-.19,1.74-1.35,3.44-3.19,4.68l-1.73,1.16.59.88c.34.58.73,1.29,1.17,2.27.41,1,.77,1.91,1.16,3,.42,1.08.76,1.91,1.15,2.67l-4.57,3.05Zm-.54-18.76c-.1-.15-.2-.29-.37-.43,0,0-.76-.68-1.03-.97-.43-.39-.97-.63-1.54-.71-.55-.06-1.16.05-1.62.36l-1.7,1.14c1.06,1.33,2.77,2.68,4.08,3.89l1.7-1.14c.79-.53.97-1.41.48-2.14"/><path class="cls-1" d="m45.48,48.4s-.38-.96-.94-2.59c-.49-1.58-1.17-3.92-2.39-6.14-.66-1.16-1.38-2.21-2.29-3.32-.89-1.07-1.88-2.1-2.82-3.1-.84-.98-1.62-1.92-2.19-2.93l-.14-.25c-.56-1.14-.8-2.27-.74-3.51l4.75-2.7s-.03.3,0,.85c.04.5.12,1.22.45,2.01.11.34.3.68.49,1.02.26.46.59.96,1.01,1.49.71.89,1.53,1.77,2.45,2.74.94,1.01,1.78,1.99,2.6,3.15.41.58.77,1.14,1.1,1.73.33.58.63,1.18.92,1.83,1.01,2.27,1.51,4.74,2.49,7.02l-4.75,2.7Z"/><path class="cls-1" d="m62.4,39.59s-.34-.39-.77-1.08c-.47-.67-1.04-1.65-1.7-2.74-.68-1.12-1.4-2.18-2.33-3.27-.92-1.05-1.87-1.93-2.78-2.63,0,0,.3.4.71,1.11l.57,1.13c.24.51.49,1.14.72,1.8.44,1.27.72,2.47.99,3.89.3,1.41.49,2.49.86,3.53l-4.99,2.31-.21-.71-.45-1.97c-.15-.74-.39-1.92-.66-2.92-.25-1.13-.63-2.27-1.13-3.44-.56-1.21-1.22-2.3-2.08-3.47-.83-1.13-1.8-2.19-2.65-3.27-.79-.96-1.48-1.92-1.95-2.94l-.18-.38c-.44-1.2-.55-2.35-.26-3.65l4.99-2.31s-.05.56.23,1.33l.18.46c.33.7.89,1.41,1.72,2.19.98.94,2.28,1.82,3.58,2.69,1.46.96,2.37,1.58,3.39,2.35,0,0-.27-.42-.81-1.06-.5-.66-1.26-1.55-2.09-2.57-.73-.9-1.51-1.9-2.01-2.99l-.16-.35c-.5-1.24-.61-2.48-.32-3.78l4.99-2.31s-.09.31-.14.88c-.06.53-.03,1.26.16,2.1.1.38.23.75.41,1.13.22.48.52.96.89,1.49.63.95,1.41,1.87,2.28,2.9.88,1.07,1.71,2.09,2.46,3.29.35.58.65,1.14.91,1.71.29.64.56,1.29.81,1.99.85,2.6,1.14,5.3,1.78,7.26l-4.95,2.3Z"/><path class="cls-1" d="m79.48,32.95l-.59-.99c-.43-.71-.74-1.32-1.32-2.38-.51-.98-1.03-1.96-1.69-2.93-.67-1-1.32-1.82-1.94-2.55l.15.44c.2.6.56,1.78.83,3.25.19,1.13.28,2.17.42,3.35.11,1.23.24,2.15.43,3.05l-5.18,1.74-.13-.74c-.09-.49-.17-1.06-.26-1.99-.1-.75-.21-1.94-.37-2.96-.16-1.14-.41-2.32-.78-3.53-.43-1.27-.96-2.43-1.65-3.68-.7-1.22-1.48-2.4-2.2-3.57-.65-1.05-1.22-2.08-1.57-3.12l-.15-.43c-.34-1.22-.32-2.38.01-3.61l5.21-1.75s-.16.5-.25,1.24c-.1.82-.02,1.72.33,2.75.35,1.04.86,2.01,1.49,2.99.6.99,1.2,1.9,1.63,2.65l-.68-3.79c-.14-1.07-.21-2.27-.05-3.48.2-1.29.62-2.48,1.24-3.61l5.38-1.81s-.45.67-.81,1.68c-.38,1.09-.59,2.24-.56,3.65.05,1.36.28,2.73.56,4.09.3,1.46.46,2.49.6,3.66l1.06,1.06c.68.7,1.46,1.59,2.25,2.7.81,1.18,1.43,2.27,2.1,3.57.69,1.29,1.18,2.28,1.84,3.25l-5.35,1.8Z"/><path class="cls-1" d="m87.78,30.36l-.14-1.13-.1-2.76c-.07-1.14-.1-2.25-.24-3.41-.09-.74-.2-1.4-.33-1.98l-.26-1.02s-.2-.75-.52-1.73c-.34-1.04-.73-2.01-1.09-2.83,0,0-.34-.72-.73-1.68-.48-1.05-.82-1.95-1.12-2.82l-.23-.85-.16-.9c-.07-.49-.11-1.02-.1-1.6.03-.55.13-1.04.25-1.5l13.36-2.93-.13.57c-.1.35-.14.83-.18,1.34,0,.68.08,1.32.2,1.9.08.38.19.72.3,1.05l-7.99,1.75s.24.78.63,1.7c.39.96.89,2.08,1.23,2.8l6.65-1.46.73,1.68c.42,1.07.69,1.98.92,2.87l-6.68,1.46.21.82c.15.69.35,1.77.44,3.01.1,1.13.15,2.17.2,3.39.02,1.22.09,2.18.18,3.1l-5.3,1.16Z"/><path class="cls-1" d="m104.32,27.02s0-1.03.09-2.75c.14-1.65.38-4.07.09-6.59-.18-1.33-.45-2.57-.88-3.94-.43-1.33-.96-2.65-1.45-3.93-.41-1.22-.78-2.39-.93-3.54l-.04-.28c-.09-1.27.11-2.4.63-3.53l5.42-.72s-.14.27-.32.79c-.15.48-.34,1.18-.33,2.04-.03.36.03.74.08,1.13.07.52.18,1.11.38,1.76.32,1.1.75,2.21,1.24,3.46.49,1.29.9,2.51,1.23,3.89.16.69.28,1.35.37,2.01.09.66.14,1.33.16,2.04.08,2.48-.37,4.96-.33,7.44l-5.42.72Z"/><path class="cls-1" d="m115.43,24.12c-.93-1.09-1.39-2.44-1.45-3.99-.02-.42,0-.84,0-1.27,0,0,.05-.32.05-.49l5.49-.26-.1,1.52c.04.95.75,1.66,1.77,1.61,1.27-.06,2.21-.95,2.34-2.05v-.21c-.05-.7-.54-1.57-1.36-2.44-.93-1.02-2.18-2.05-3.57-3.12-1.29-1.03-2.68-2.03-3.78-3.07-1.14-1.04-2.08-2.23-2.35-3.56-.05-.28-.1-.56-.11-.81-.08-1.73.84-3.04,2.38-4.1,1.75-1.14,4.08-1.77,6.16-1.87,2.08-.1,3.03.7,3.87,2.01.38.65.81,1.48,1.17,2.34.36.86.76,1.91,1.02,2.88l-5.04.23-.17-.66c-.13-.56-.47-1.07-.88-1.4-.4-.37-.94-.56-1.51-.53-.84.04-1.56.46-1.53,1.34l.05.28c.32,1.57,3.4,3.3,6.29,5.49,1.31,1,2.6,2,3.53,3.12.75.95,1.26,1.99,1.31,3.15,0,.21.02.46,0,.67-.22,1.99-1.44,3.77-2.94,5.01-1.49,1.27-3.4,2.03-5.47,2.13-2.08.1-3.98-.66-5.17-1.95"/><path class="cls-1" d="m140.34,25.56l.2-1.12c.19-.84.37-1.5.68-2.68.31-1.11.59-2.19.76-3.35.15-.77.22-1.47.26-2.1l.02-.95-4.08-.24-.03.53c-.04.67-.15,1.9-.41,3.33-.24,1.12-.51,2.12-.83,3.3-.28,1.18-.55,2.12-.67,3.04l-5.45-.31.21-1.12c.19-.84.37-1.5.68-2.68.28-1.11.55-2.19.72-3.35.15-.77.23-1.47.26-2.1l.02-.95s.05-.78-.04-1.8c-.08-1.1-.23-2.13-.35-3.02l-.19-1.07c-.07-.57-.26-1.64-.34-2.56-.1-.75-.12-1.53-.08-2.26l.09-.88c.2-1.08.57-1.98,1.15-2.79l5.45.31s-.3.37-.59,1.02c-.32.65-.58,1.49-.64,2.51l-.02.31c-.05.92.04,1.87.16,2.84.15,1.07.34,2.1.47,2.88l4.08.24s-.05-.39-.19-1.07l-.38-2.56c-.06-.74-.09-1.49-.05-2.26.02-.28.03-.56.09-.88.2-1.08.58-1.98,1.15-2.79l5.49.32s-.19.24-.46.72c-.24.44-.52,1.1-.71,1.94l-.13,1.05c-.03.56,0,1.2.03,1.87.11,1.14.32,2.31.57,3.63.21,1.36.41,2.64.47,4.05.03.71.03,1.38-.01,2.05-.04.67-.11,1.34-.22,2.03-.43,2.49-1.3,4.76-1.69,7.25l-5.45-.32Z"/><path class="cls-1" d="m149.41,26.24l.29-1.1.92-2.6c.36-1.08.74-2.13,1.03-3.26.19-.72.33-1.37.42-1.96l.14-1.05s.09-.77.15-1.8c.07-1.1.06-2.13.03-3.03,0,0-.05-.79-.06-1.83-.06-1.15-.05-2.12,0-3.04l.1-.88.18-.9c.12-.48.27-.99.5-1.53.22-.5.5-.92.78-1.3l13.5,2.2-.33.48c-.23.28-.44.71-.66,1.18-.25.64-.42,1.25-.51,1.85-.06.38-.09.73-.11,1.09l-8.07-1.32s-.06.81-.05,1.81c0,1.04.06,2.26.11,3.05l6.71,1.09.06,1.83c0,1.14-.09,2.09-.21,3l-6.75-1.1-.1.84c-.11.7-.33,1.77-.7,2.96-.32,1.09-.66,2.07-1.06,3.22-.44,1.15-.73,2.06-.98,2.95l-5.36-.87Z"/><path class="cls-1" d="m165.08,28.97s.28-.76.72-1.67c.4-.91.92-2.01,1.27-2.76,0,0,.38-.84.79-1.9.36-.92.63-1.76.86-2.58l.2-.71s.17-.76.34-1.77c.19-1.08.29-2.12.39-3,0,0,.04-.8.14-1.83.1-1.14.22-2.1.36-3.01l.2-.86.28-.87c.33-1.04.83-1.93,1.51-2.69l13.18,3.66-.38.44c-.22.27-.46.64-.71,1.12-.31.61-.55,1.2-.71,1.78-.1.37-.17.72-.23,1.07l-7.88-2.18s-.15.8-.24,1.8c-.14,1.02-.22,2.24-.29,3.03l6.59,1.83-.17,1.82c-.17,1.12-.32,2.07-.53,2.96l-6.59-1.82-.16.58c-.1.37-.23.85-.43,1.42-.37,1.18-.84,2.25-1.25,3.2l7.88,2.19-.78,1.65c-.47,1.04-.9,1.91-1.21,2.77l-13.15-3.64Z"/><path class="cls-1" d="m183.49,32.78c-.45-1.36-.34-2.79.19-4.24.14-.4.32-.78.5-1.17,0,0,.17-.27.23-.44l5.17,1.87-.68,1.37c-.32.89.06,1.82,1.02,2.17,1.19.43,2.41-.03,2.94-1l.08-.2c.24-.66.11-1.65-.31-2.77-.47-1.29-1.22-2.73-2.1-4.25-.79-1.44-1.69-2.9-2.31-4.28-.65-1.4-1.06-2.86-.81-4.19.06-.28.12-.55.21-.79.59-1.62,1.94-2.48,3.78-2.87,2.05-.38,4.45-.08,6.4.63,1.96.71,2.53,1.81,2.81,3.34.1.75.18,1.68.18,2.61,0,.94-.03,2.05-.17,3.05l-4.74-1.72.1-.68c.09-.57-.03-1.17-.27-1.63-.23-.5-.66-.88-1.19-1.07-.8-.29-1.62-.18-1.93.65l-.06.28c-.31,1.57,1.87,4.35,3.7,7.49.83,1.43,1.63,2.84,2.07,4.24.32,1.17.4,2.32,0,3.41-.08.2-.16.43-.27.62-.97,1.75-2.78,2.93-4.64,3.5-1.86.6-3.92.57-5.87-.14-1.95-.71-3.42-2.14-4.03-3.78"/><path class="cls-1" d="m200.37,40.8s.41-.7,1.18-1.87c.7-1.01,1.98-2.76,2.9-4.48.3-.52.52-1.04.76-1.59.19-.46.38-.91.54-1.38.34-1.08.59-2.12.8-3.22.48-2.4.61-4.14,1.21-5.92l-4.45-1.89s.08-.27.26-.7c.11-.26.26-.62.47-.95.23-.44.56-.87.95-1.32.4-.4.81-.73,1.26-.99l13.89,5.89-.5.36c-.28.22-.66.56-.98.96-.48.6-.83,1.22-1.09,1.84l-.31.83-4.44-1.89s-.27.81-.53,2.15c-.27,1.34-.51,3.27-1.03,5.3-.24,1.01-.55,2.03-.99,3.06-.44,1.04-.95,1.97-1.56,2.94-1.13,1.85-2.43,3.56-3.24,5.02l-5.09-2.16Z"/><path class="cls-1" d="m213.73,46.88s.53-.88,1.49-2.31c.96-1.35,2.41-3.3,3.45-5.62.53-1.23.93-2.44,1.26-3.83.31-1.36.53-2.76.77-4.12.27-1.26.55-2.45,1.01-3.52l.11-.26c.57-1.14,1.32-2,2.35-2.71l5.02,2.16s-.26.16-.68.51c-.38.34-.9.84-1.33,1.58-.2.3-.36.65-.51,1.01-.21.49-.41,1.05-.58,1.71-.28,1.11-.48,2.29-.7,3.61-.24,1.36-.51,2.62-.94,3.97-.21.67-.44,1.31-.71,1.92-.26.62-.56,1.22-.9,1.84-1.2,2.17-2.86,4.07-4.09,6.22l-5.02-2.16Z"/><path class="cls-1" d="m228.22,52.2s.2-1.02.71-2.64c.48-1.55,1.23-3.79,1.52-6.4.15-1.37.21-2.71.15-4.24-.07-1.5-.2-3.02-.31-4.5-.1-1.51-.1-2.87.09-4.16.08-.5.21-.94.37-1.37.26-.66.59-1.25,1.05-1.75l5.1,1.96s-.48.46-.92,1.31l-.3.68c-.3.79-.51,1.73-.58,2.99-.1,1.55-.03,3.31.02,4.96.03,1.78-.03,3.12-.15,4.43l.68-1.4c.21-.45.37-.84.54-1.3l1.39-3.73c.35-.92.75-1.86,1.22-2.7.84-1.41,1.89-2.45,3.22-3.26l5.13,1.97s-.29.16-.79.49c-.46.31-1.06.8-1.66,1.48-.6.68-1.17,1.48-1.7,2.48-.54,1-.95,2.09-1.49,3.28-.51,1.24-1.03,2.4-1.74,3.64-.7,1.24-1.46,2.34-2.35,3.48-1.79,2.22-3.97,4.14-5.36,5.8l-3.85-1.48Z"/><path class="cls-1" d="m245.83,59.38l1.17-3.33-3.76-1.61-.91,1.03c-.59.66-1.06,1.23-1.49,1.77l-5.02-2.16s.73-.8,1.98-2.1c1.24-1.27,3-3.05,4.58-5.12.85-1.09,1.58-2.16,2.3-3.39.77-1.24,1.35-2.33,2.03-3.57,1.39-2.51,2.65-4.47,4.65-5.99l3.76,1.62-.17.39c-.17.39-.46,1.15-.68,2.2-.17.85-.32,1.82-.38,3.02-.07,1.23-.1,2.45-.12,3.86-.04,1.44-.09,2.8-.26,4.26-.13,1.48-.36,2.8-.67,4.16-.58,2.7-1.47,5.12-1.99,7.13l-5.02-2.16Zm3.11-10.09c.22-1.32.37-2.56.48-3.71-.91,1.76-1.81,3.33-3.03,4.99l2.07.89s.26-.96.47-2.18"/><path class="cls-1" d="m252.52,62.33s.44-.69,1.05-1.49l1.89-2.42s.52-.69,1.25-1.82c.41-.62.81-1.29,1.2-2.12.36-.77.71-1.66,1.03-2.67.29-1.03.54-2.04.74-3.2.25-1.09.44-2.25.75-3.31.18-.7.4-1.33.69-1.94.15-.32.35-.65.53-.96.58-.82,1.32-1.48,2.23-1.98l4.94,2.34s-.96.45-1.86,1.54c-.34.38-.64.86-.91,1.44l-.26.62c-.36.84-.58,1.79-.79,2.82-.23,1.06-.41,2.18-.66,3.28-.26,1.13-.55,2.16-.96,3.18-.16.43-.35.81-.53,1.19-.74,1.56-1.61,2.83-2.46,3.95l7.42,3.52-1.15,1.44c-.71.91-1.31,1.68-1.79,2.47l-12.36-5.86Z"/><path class="cls-1" d="m520.79,71.12c-10.66,0-15.94-6.7-19.44-11.13-3.27-4.15-4.63-5.44-6.7-5.44s-3.41,1.29-6.69,5.44c-3.49,4.43-8.77,11.13-19.44,11.13s-15.93-6.7-19.43-11.13c-3.26-4.15-4.61-5.44-6.67-5.44s-3.41,1.29-6.69,5.44c-3.49,4.43-8.77,11.13-19.43,11.13s-15.94-6.7-19.43-11.13c-3.26-4.15-4.61-5.44-6.68-5.44v-12.43c10.66,0,15.94,6.7,19.43,11.13,3.26,4.15,4.61,5.44,6.68,5.44s3.41-1.29,6.69-5.44c3.49-4.43,8.77-11.13,19.43-11.13s15.94,6.7,19.43,11.13c3.26,4.15,4.61,5.44,6.67,5.44s3.42-1.29,6.69-5.44c3.49-4.43,8.77-11.13,19.43-11.13s15.95,6.7,19.44,11.13c3.27,4.15,4.63,5.44,6.7,5.44s3.46-1.29,6.73-5.45c3.5-4.43,9.35-11.13,19.47-11.13v12.43s-3.45,1.29-6.73,5.44c-3.5,4.43-8.8,11.13-19.47,11.13"/><path class="cls-1" d="m520.79,108.4c-10.66,0-15.94-6.7-19.44-11.13-3.27-4.15-4.63-5.44-6.7-5.44s-3.41,1.29-6.69,5.44c-3.49,4.43-8.77,11.13-19.44,11.13s-15.93-6.7-19.43-11.13c-3.26-4.15-4.61-5.44-6.67-5.44s-3.41,1.29-6.69,5.44c-3.49,4.43-8.77,11.13-19.43,11.13s-15.94-6.7-19.43-11.13c-3.26-4.15-4.61-5.44-6.68-5.44v-12.43c10.66,0,15.94,6.7,19.43,11.13,3.26,4.15,4.61,5.44,6.68,5.44s3.41-1.29,6.69-5.44c3.49-4.43,8.77-11.13,19.43-11.13s15.94,6.7,19.43,11.13c3.26,4.15,4.61,5.44,6.67,5.44s3.42-1.29,6.69-5.44c3.49-4.43,8.77-11.13,19.43-11.13s15.95,6.7,19.44,11.13c3.27,4.15,4.63,5.44,6.7,5.44s3.46-1.29,6.73-5.45c3.5-4.43,9.35-11.13,19.47-11.13v12.43s-3.45,1.29-6.73,5.44c-3.5,4.43-8.8,11.13-19.47,11.13"/><path class="cls-1" d="m119.87,136.07c-13.86,0-27.18-1.45-39.89-4.35-20.28-4.63-38.78-12.86-54.98-24.46C11.99,97.94,3.97,88.92.34,84.38l-.34-.43.32-.45c3.65-5.08,11.8-15.17,25.44-25.63l.89,1.16c-13.09,10.04-21.07,19.73-24.82,24.87,3.73,4.61,11.56,13.24,24.02,22.17,16.04,11.49,34.36,19.64,54.45,24.22,26.64,6.08,56.02,5.73,87.34-1.03,18.24-3.95,37.38-10.14,56.91-18.42,20.95-8.88,42.86-20.39,65.14-34.21-6.08-3.36-12.19-6.59-18.16-9.61l.66-1.31c6.34,3.21,12.83,6.65,19.3,10.24l1.08.61-1.05.65c-22.71,14.15-45.05,25.92-66.4,34.97-19.61,8.31-38.84,14.54-57.17,18.5-16.6,3.59-32.67,5.39-48.08,5.39"/><path class="cls-1" d="m341.68,75.31c34.94-7.23,37.78-27.49,37.97-32.05-7.86-3.1-54.33-18.22-88.52,33.33,36.76,49.76,82.4,32.31,90.09,28.82-.42-4.55-4.29-24.64-39.54-30.1"/><path class="cls-1" d="m46.39,75.59c.11,4.57-3.5,8.37-8.07,8.48-4.57.12-8.37-3.5-8.48-8.07-.11-4.57,3.5-8.37,8.06-8.48,4.57-.11,8.37,3.5,8.49,8.07"/></g></svg>