<?xml version="1.0" encoding="UTF-8"?><svg id="Layer_2" xmlns="http://www.w3.org/2000/svg" viewBox="0 0 1319.13 114.02"><defs><style>.cls-1{fill:#fff;}</style></defs><g id="Layer_1-2"><path class="cls-1" d="m614.61,34.64c-13.04-.12-12.97-6.99-26.01-7.11-13.04-.12-13.1,6.74-26.14,6.62-13.04-.12-12.97-6.99-26.01-7.11-13.04-.12-13.1,6.74-26.14,6.62-8.95-.08-12.17-4.57-17.45-6.55l-.11,11.62c5.28,1.98,8.5,6.47,17.45,6.55,13.04.12,13.1-6.74,26.14-6.62,13.04.12,12.97,6.99,26.01,7.11,13.04.12,13.1-6.74,26.14-6.62,13.04.12,12.97,6.99,26.01,7.11,12.12.11,13.03-5.81,23.57-6.55l-.1-11.6c-10.34.8-11.33,6.64-23.36,6.53Z"/><path class="cls-1" d="m614.42,55.04c-13.04-.12-12.97-6.99-26.01-7.11-13.04-.12-13.1,6.74-26.14,6.62-13.04-.12-12.97-6.99-26.01-7.11-13.04-.12-13.1,6.74-26.14,6.62-8.95-.08-12.17-4.57-17.45-6.55l-.11,11.62c5.28,1.98,8.5,6.47,17.45,6.55,13.04.12,13.1-6.74,26.14-6.62,13.04.12,12.97,6.99,26.01,7.11,13.04.12,13.1-6.74,26.14-6.62,13.04.12,12.97,6.99,26.01,7.11,12.26.11,13.05-5.95,23.94-6.57l-.1-11.61c-10.69.69-11.55,6.67-23.73,6.56Z"/><path class="cls-1" d="m614.23,75.35c-13.04-.12-12.97-6.99-26.01-7.11-13.04-.12-13.1,6.74-26.14,6.62s-12.97-6.99-26.01-7.11c-13.04-.12-13.1,6.74-26.14,6.62-8.95-.08-12.17-4.57-17.45-6.55l-.11,11.62c5.28,1.98,8.5,6.47,17.45,6.55,13.04.12,13.1-6.74,26.14-6.62,13.04.12,12.97,6.99,26.01,7.11,13.04.12,13.1-6.74,26.14-6.62,13.04.12,12.97,6.99,26.01,7.11,12.39.12,13.07-6.08,24.3-6.59l-.1-11.61c-11.03.58-11.78,6.69-24.09,6.58Z"/><path class="cls-1" d="m67.15,61.24l17.12,14.2c4.84,4.02,5.31,11.28,1.02,15.89h0c-4.31,4.62-11.63,4.65-15.97.06l-15.22-16.11-3.73,21.98c-1.05,6.19-7.1,10.22-13.22,8.79h0c-6.12-1.42-9.77-7.71-7.97-13.73l6.36-21.37-20.77,7.73c-5.92,2.2-12.48-1.05-14.3-7.11h0c-1.81-6.03,1.81-12.34,7.94-13.8l21.63-5.18-17.14-14.22c-4.82-4-5.27-11.24-.98-15.81h0c4.28-4.56,11.53-4.57,15.83-.02l15.31,16.2,3.73-21.98c1.05-6.19,7.1-10.22,13.22-8.79h0c6.12,1.42,9.77,7.71,7.97,13.73l-6.36,21.37,20.89-7.77c5.87-2.18,12.36,1.03,14.19,7.01h0c1.83,5.99-1.77,12.29-7.87,13.75l-21.66,5.18Z"/><path class="cls-1" d="m256.33,57.01c-40.93,8.88-48.13,16.08-57.01,57.01-8.88-40.93-16.08-48.13-57.01-57.01,40.93-8.88,48.13-16.08,57.01-57.01,8.88,40.93,16.08,48.13,57.01,57.01Z"/><polygon class="cls-1" points="364.89 106.16 364.9 7.86 443 57.02 364.89 106.16"/><polygon class="cls-1" points="315.32 88.2 315.33 25.81 364.9 57.01 315.32 88.2"/><path class="cls-1" d="m1295.31,34.64c-13.04-.12-12.97-6.99-26.01-7.11-13.04-.12-13.1,6.74-26.14,6.62-13.04-.12-12.97-6.99-26.01-7.11-13.04-.12-13.1,6.74-26.14,6.62-8.95-.08-12.17-4.57-17.45-6.55l-.11,11.62c5.28,1.98,8.5,6.47,17.45,6.55,13.04.12,13.1-6.74,26.14-6.62,13.04.12,12.97,6.99,26.01,7.11,13.04.12,13.1-6.74,26.14-6.62,13.04.12,12.97,6.99,26.01,7.11,12.12.11,13.03-5.81,23.57-6.55l-.1-11.6c-10.34.8-11.33,6.64-23.36,6.53Z"/><path class="cls-1" d="m1295.13,55.04c-13.04-.12-12.97-6.99-26.01-7.11-13.04-.12-13.1,6.74-26.14,6.62-13.04-.12-12.97-6.99-26.01-7.11-13.04-.12-13.1,6.74-26.14,6.62-8.95-.08-12.17-4.57-17.45-6.55l-.11,11.62c5.28,1.98,8.5,6.47,17.45,6.55,13.04.12,13.1-6.74,26.14-6.62,13.04.12,12.97,6.99,26.01,7.11,13.04.12,13.1-6.74,26.14-6.62,13.04.12,12.97,6.99,26.01,7.11,12.26.11,13.05-5.95,23.94-6.57l-.1-11.61c-10.69.69-11.55,6.67-23.73,6.56Z"/><path class="cls-1" d="m1294.94,75.35c-13.04-.12-12.97-6.99-26.01-7.11-13.04-.12-13.1,6.74-26.14,6.62s-12.97-6.99-26.01-7.11c-13.04-.12-13.1,6.74-26.14,6.62-8.95-.08-12.17-4.57-17.45-6.55l-.11,11.62c5.28,1.98,8.5,6.47,17.45,6.55,13.04.12,13.1-6.74,26.14-6.62,13.04.12,12.97,6.99,26.01,7.11,13.04.12,13.1-6.74,26.14-6.62,13.04.12,12.97,6.99,26.01,7.11,12.39.12,13.07-6.08,24.3-6.59l-.1-11.61c-11.03.58-11.78,6.69-24.09,6.58Z"/><path class="cls-1" d="m747.85,61.24l17.12,14.2c4.84,4.02,5.31,11.28,1.02,15.89h0c-4.31,4.62-11.63,4.65-15.97.06l-15.22-16.11-3.73,21.98c-1.05,6.19-7.1,10.22-13.22,8.79h0c-6.12-1.42-9.77-7.71-7.97-13.73l6.36-21.37-20.77,7.73c-5.92,2.2-12.48-1.05-14.3-7.11h0c-1.81-6.03,1.81-12.34,7.94-13.8l21.63-5.18-17.14-14.22c-4.82-4-5.27-11.24-.98-15.81h0c4.28-4.56,11.53-4.57,15.83-.02l15.31,16.2,3.73-21.98c1.05-6.19,7.1-10.22,13.22-8.79h0c6.12,1.42,9.77,7.71,7.97,13.73l-6.36,21.37,20.89-7.77c5.87-2.18,12.36,1.03,14.19,7.01h0c1.83,5.99-1.77,12.29-7.87,13.75l-21.66,5.18Z"/><path class="cls-1" d="m937.03,57.01c-40.93,8.88-48.13,16.08-57.01,57.01-8.88-40.93-16.08-48.13-57.01-57.01,40.93-8.88,48.13-16.08,57.01-57.01,8.88,40.93,16.08,48.13,57.01,57.01Z"/><polygon class="cls-1" points="1045.59 106.16 1045.6 7.86 1123.71 57.02 1045.59 106.16"/><polygon class="cls-1" points="996.03 88.2 996.03 25.81 1045.6 57.01 996.03 88.2"/></g></svg>