<?xml version="1.0" encoding="UTF-8"?><svg id="Layer_2" xmlns="http://www.w3.org/2000/svg" viewBox="0 0 133.43 140.47"><defs><style>.cls-1{fill:#ed2f86;}</style></defs><g id="Layer_1-2"><path class="cls-1" d="m86.65,140.46c-9.5.04-17.89-3.22-25.82-8.27-12.74-8.11-23.24-18.59-32.87-30.07-8.46-10.08-16.01-20.77-21.6-32.72C2.46,61.1-.49,52.52.07,43.17c.61-10.23,4.47-18.89,13.26-24.65,5.63-3.69,12.04-4.92,18.74-4.37,3.72.3,5.91,2.66,7.11,5.9.96,2.61,1.68,5.33,2.25,8.05,1.3,6.15,2.43,12.34,3.68,18.5.46,2.29-.09,4.23-2.01,5.5-1.84,1.22-3.86,2.16-5.83,3.16-1.26.64-2.6,1.14-3.86,1.78-2.05,1.05-2.42,2.02-2.01,4.27.8,4.36,2.92,8.18,4.93,12.03,6.2,11.93,15.06,21.49,26.13,29.04,1.95,1.33,3.91,2.67,6,3.72,2.16,1.08,3.45.71,5.04-1.11.83-.95,1.43-2.1,2.2-3.12,1.37-1.8,2.69-3.65,4.2-5.32,1.6-1.76,3.68-2.06,5.87-1.21,5.64,2.19,11.3,4.32,16.88,6.66,3.04,1.28,5.93,2.93,8.89,4.42,3.07,1.54,4.38,3.88,4.23,7.45-.6,13.85-12.94,26.11-27.01,26.58-.71.02-1.42,0-2.13,0Z"/><path class="cls-1" d="m133.14,71.89c0,1.23.04,2.46,0,3.69-.08,2.18-1.37,3.54-3.26,3.51-1.9-.03-3.14-1.44-3.09-3.63.18-7.68-.78-15.2-3.04-22.54-5.44-17.68-16.32-30.93-32.55-39.78-5.81-3.17-11.98-5.38-18.45-6.75-2.22-.47-3.32-2.04-2.85-3.96.44-1.81,1.84-2.78,3.93-2.29,3.36.78,6.72,1.61,9.96,2.77,14.92,5.33,27.06,14.39,36.15,27.42,6.12,8.79,10.09,18.49,11.93,29.03.72,4.14,1.06,8.34,1.58,12.51-.1.01-.19.02-.29.03Z"/><path class="cls-1" d="m114.53,70.21c0,.47.02.95,0,1.42-.11,2.02-1.45,3.35-3.33,3.31-1.82-.05-2.92-1.37-3.12-3.36-.39-3.94-.53-7.96-1.45-11.79-3.65-15.04-12.72-25.72-26.8-32.09-2.61-1.18-5.42-1.93-8.16-2.82-2.11-.69-3.08-2.12-2.58-4.02.47-1.78,2.06-2.69,4.16-2.15,16.17,4.16,28.21,13.55,35.73,28.52,3.62,7.21,5.29,14.94,5.57,22.98Z"/><path class="cls-1" d="m95.48,67.57c.06,2.83-1.09,4.43-3.2,4.45-2.06.01-3.21-1.51-3.25-4.27-.13-10.94-7.26-20.19-17.81-23.11-.5-.14-1-.27-1.5-.43-1.78-.59-2.67-2.15-2.23-3.87.43-1.67,2.06-2.64,3.86-2.25,6.09,1.32,11.31,4.23,15.61,8.72,5.54,5.8,8.24,12.8,8.51,20.77Z"/></g></svg>