<?xml version="1.0" encoding="UTF-8"?>
<svg id="Layer_2" data-name="Layer 2" xmlns="http://www.w3.org/2000/svg" viewBox="0 0 294.2 294.23">
  <defs>
    <style>
      .cls-1 {
        fill: #ff0086;
        stroke-width: 0px;
      }
    </style>
  </defs>
  <g id="Layer_1-2" data-name="Layer 1">
    <path class="cls-1" d="m81.98,223.48c-12.32,12.36-23.84,23.93-35.38,35.49-5.29,5.3-10.54,10.64-15.93,15.83-2.8,2.69-6.65,3.02-9.66,1.24-2.95-1.75-4.72-5.38-3.58-8.68.7-2.01,2.17-3.91,3.7-5.46,15.29-15.41,30.66-30.74,46.01-46.09.95-.95,1.86-1.94,2.95-3.09-1.08-1.14-1.98-2.14-2.93-3.09-20.99-21-41.99-42-62.98-63-5.57-5.57-5.65-9.51.25-14.81,32.4-29.09,69.52-37.84,111.42-25.55,1.82.53,3.27,1.18,5.02-.59,14.74-14.9,29.6-29.69,44.41-44.51.26-.26.43-.61,1.14-1.64-1.79-1.52-3.82-2.98-5.54-4.75-12.64-13-12.83-32.47-.51-45.09,12.31-12.61,31.9-13.04,45.06-.49,11.91,11.36,23.36,23.21,35.01,34.86,14.65,14.64,29.4,29.18,43.9,43.97,13.99,14.26,12.93,35.73-2.07,47.89-12.1,9.8-29.6,9.41-41.2-1.06-2.3-2.08-4.19-4.61-6.43-7.1-1.34,1.16-2.19,1.81-2.93,2.55-14.12,14.11-28.2,28.26-42.38,42.31-1.84,1.83-2.14,3.31-1.4,5.84,12.12,41.71,3.53,78.8-25.28,111.2-5.48,6.16-9.44,6.02-15.38.08-20.82-20.82-41.64-41.64-62.44-62.48-.96-.96-1.66-2.18-2.85-3.77Zm72.97,50.59c.08-.06.41-.26.64-.54.8-.96,1.62-1.9,2.34-2.92,20.14-28.53,24.58-59.31,13-92.27-1.55-4.41-1.85-8.05,1.73-11.61,18.4-18.3,36.71-36.69,55.09-55.01,4.07-4.06,8.34-4.04,12.47-.05,3.41,3.29,6.69,6.72,10.08,10.04,6.99,6.86,16.53,7.15,23.08.75,6.46-6.32,6.45-16.29-.31-23.09-26.06-26.17-52.17-52.29-78.34-78.35-6.63-6.61-16.52-6.6-22.8-.31-6.35,6.37-6.28,16.03.24,22.83,3.11,3.24,6.35,6.36,9.51,9.54,5.11,5.14,5.09,9.17-.11,14.38-17.55,17.57-35.2,35.03-52.59,52.75-4.18,4.26-8.12,5.09-13.68,2.94-18.8-7.27-38.1-8.35-57.65-3.38-14.1,3.58-26.68,10.16-37.54,19.46,45.03,45.04,89.91,89.92,134.84,134.85Z"/>
  </g>
</svg>