<?xml version="1.0" encoding="UTF-8"?><svg id="Layer_2" xmlns="http://www.w3.org/2000/svg" viewBox="0 0 1678.79 765.44"><defs><style>.cls-1{fill:#fff;}</style></defs><g id="Layer_1-2"><path class="cls-1" d="m608.47,506.65c0,34.79.04,69.57-.02,104.36-.03,19.67-12.82,36.58-31.46,41.85-18.95,5.36-34.92-5.1-37.4-24.63-.51-4.01-.59-8.08-.64-12.13-.9-66.8-1.73-133.6-2.67-200.4-.34-24.15-20.21-37.27-42.82-28.44-16.51,6.45-28.27,22.92-28.08,40.68.49,46.1.7,92.21,2.17,138.28,1.85,57.94-46,117.48-103.8,127.32-33.85,5.76-63.62-1.68-86.37-29-12.12-14.55-18.55-31.76-18.88-50.6-1.25-71.7-2.13-143.41-2.95-215.12-.25-21.88,13.98-39.37,34.31-43.1,19.14-3.5,34.28,8.94,34.53,28.51.64,49.51,1.21,99.03,1.82,148.54.25,19.85.57,39.69.81,59.54.31,26.03,21.99,39.99,45.42,28.62,16.22-7.87,25.63-21.07,25.51-39.6-.29-45.67-.02-91.38-1.62-137.01-2.09-59.6,44.78-117.57,103.51-128.76,48.03-9.15,95.16,16.41,104.43,70.16,1.08,6.28,1.46,12.74,1.48,19.12.14,33.93.07,67.86.07,101.8.88,0,1.76,0,2.64,0Z"/><path class="cls-1" d="m207.84,454.97c0,22.4-.16,44.8.03,67.2.54,61.62-44.64,116.01-105.28,126.64-8.17,1.43-16.22,3.75-24.43,4.61-6.18.64-7.04,3.58-6.9,8.82.52,20.47.41,40.97,1.13,61.43.72,20.38-18.62,43.47-42.44,41.68-13.34-1-24.66-11.61-24.85-25.15-.54-37.75-.97-75.51-1.46-113.26-.45-34.55-.93-69.11-1.38-103.66-.4-30.93-.76-61.85-1.19-92.78C.73,405.96.23,381.43,0,356.91c-.17-18.95,12.78-36.35,31.24-40.13,27.28-5.59,54.65-11.03,82.21-14.82,43.34-5.96,84.43,24.77,90.39,68.06,2.81,20.38,2.05,41.25,2.74,61.91.26,7.67.04,15.36.04,23.04.4,0,.81,0,1.21,0Zm-136.92,131.6c13.36-2.68,25.78-4.56,37.86-7.72,18.1-4.73,30.91-21.5,30.79-40.14-.29-46.53-.78-93.05-1.56-139.57-.31-18.81-16.47-31.3-34.97-27.85-6.27,1.17-12.54,2.36-18.82,3.51-16.24,2.98-16.19,2.97-16,19.4.7,59.97,1.35,119.94,2.06,179.91.04,3.8.38,7.59.64,12.47Z"/><path class="cls-1" d="m724.06,410.06c5.7-1.05,11.04-1.51,15.96-3.21,2.02-.7,3.58-3.89,4.56-6.28,17.14-41.31,34.13-82.68,51.2-124.01,5.72-13.86,15.45-23.52,30.3-26.85,23.41-5.26,41.61,13.39,34.89,36.55-3.65,12.59-9.77,24.48-15.05,36.57-11.26,25.76-22.7,51.45-34.06,77.17-.85,1.93-1.61,3.89-2.61,6.32,1.91.9,3.57,1.7,5.24,2.47,31.09,14.49,47.8,39.31,49.86,73.11,1.6,26.39,1.42,52.91,1.35,79.36-.06,24-25.51,44.49-47.53,38.99-12.41-3.1-20.65-12.88-20.97-25.7-.57-23.25-1.42-46.53-1.05-69.77.35-21.97-17.24-35.93-36.51-31.67-9.96,2.2-20.06,3.8-30.11,5.59-3.42.61-4.97,2.06-4.91,5.93.55,31.79.62,63.6,1.38,95.39.45,18.74-6.2,33.45-22.57,42.82-23.57,13.49-46.6-.07-46.91-27.15-1.01-87.71-2.04-175.42-3.15-263.13-.5-39.69-1.32-79.38-1.79-119.07-.23-19.27,12.02-36.31,29.64-41.96,20.75-6.66,38.13,5.01,39.69,26.71.23,3.19.14,6.4.18,9.6.86,65.3,1.71,130.6,2.57,195.9.02,1.87.23,3.73.4,6.32Z"/><path class="cls-1" d="m1537.92,97.47c13.75-2.53,26.62-5.41,39.64-7.21,50.97-7.04,91.63,23.57,97.96,72.59,1.93,14.95,1.38,30.25,1.54,45.39.61,58.25.77,116.51,1.74,174.75.26,15.44-11.74,33.51-28.95,38.86-21,6.53-38.34-6.28-38.59-28.41-.6-52.28-1.21-104.56-1.84-156.85-.19-15.79-.53-31.58-.74-47.37-.27-20.52-14.53-32.94-34.7-29.88-9.67,1.47-19.21,3.73-28.89,5.15-4.97.73-6.61,2.7-6.52,7.83.71,41.61,1.13,83.22,1.64,124.83.45,36.92,1,73.83,1.28,110.75.16,21.26-15.76,39.03-36.71,41.51-16.4,1.94-30.22-9.3-30.61-25.94-.86-36.27-1.19-72.55-1.68-108.82-.88-65.3-1.72-130.59-2.56-195.89-.34-26.46-.88-52.92-.82-79.38C1469.14,18.17,1487.99-.05,1509.01,0c15.58.04,27.04,11.13,27.41,26.81.49,21.12.79,42.25,1.19,63.37.04,2.1.18,4.2.31,7.29Z"/><path class="cls-1" d="m1220.2,270.43c-.04-64.53,48.87-120.47,107.06-128.18,49.6-6.57,89.33,22.89,97.46,72.28,4.35,26.42-9.07,48-33.04,53.12-17.29,3.69-33.59-8.15-33.67-25.77-.11-24.57-23.35-39.21-47.23-26.06-12.09,6.66-19.79,16.96-22.22,30.5-3.73,20.76,10.48,40.34,38.29,34.9,40.01-7.82,78.98,12.99,93.8,49.8,9.13,22.68,9.3,46.03,1.53,68.87-15.69,46.14-46.72,76.75-94.74,87.97-57.08,13.34-107.02-27.66-105.33-85.72.7-24.04,26.79-44.18,48.45-37.39,10.93,3.43,18.06,12.58,18.94,24.02.31,4.02.64,8.14,1.76,11.98,4.07,13.89,16.86,21.35,32.54,19.37,23.3-2.94,41.02-29.41,34.14-50.99-4.39-13.78-17.68-21.99-31.93-19.43-20.64,3.7-40.85,3.01-59.83-6.69-31.8-16.26-45.14-43.66-45.98-72.56Z"/><path class="cls-1" d="m891.93,696.43c0-2.64.02-4.95,0-7.26-.15-14.08.27-28.2-.65-42.24-.71-10.91-.29-18.39,12.39-23.85,15-6.45,21.68-21.12,21.45-37.87-1.08-79.79-2.02-159.59-3.47-239.38-1.05-57.44,47.11-115.36,103.92-124.05,21.98-3.36,37.73,17.4,30.07,40.03-5.08,15-15.42,24.65-31,28.46-17.98,4.4-29.32,15.63-34.01,33.56-.32,1.23-.55,2.5-.63,3.77-.08,1.24.1,2.5.21,4.78,9.65-1.76,18.92-3.63,28.26-5.09,5.63-.87,11.54-2.25,17-1.39,18.57,2.93,28,20.24,21.64,39.39-5.61,16.88-17.68,26.61-35.16,29.72-8.17,1.45-16.28,3.26-24.48,4.45-5.1.74-6.85,2.57-6.74,8.16.82,42.24,1.25,84.49,1.69,126.73.17,16.43.51,32.87.01,49.29-1.49,49.25-47.31,102.92-95.57,112.37-1.41.28-2.89.25-4.92.41Z"/><path class="cls-1" d="m1178.35,353.25c.7,45.42,1.45,90.84,2.08,136.26.25,17.95-10.12,33.88-26.03,40.51-22.12,9.22-41.67-3.23-42.12-27.15-.48-25.59-.44-51.19-.76-76.78-.8-65.26-1.74-130.51-2.49-195.77-.23-20.45,12.1-37.19,30.54-42.17,20.42-5.51,37.07,6.99,37.12,28.18.11,45.64.03,91.28.03,136.92.54,0,1.07,0,1.61,0Z"/><path class="cls-1" d="m294.9,246.89c17.79-.01,30.55,12.66,30.76,30.54.26,22.19-18.58,43.29-40.1,44.92-21.52,1.63-35.91-13.03-33.92-34.54,2.08-22.52,21.52-40.91,43.26-40.92Z"/><path class="cls-1" d="m1177.99,111.04c.17,22.69-20.39,43.83-42.83,44.03-17.03.16-29.35-11.95-30.2-29.68-1.09-22.7,19.73-44.71,42.41-44.83,17.8-.1,30.48,12.53,30.62,30.48Z"/></g></svg>