<?xml version="1.0" encoding="UTF-8"?>
<svg id="Layer_2" data-name="Layer 2" xmlns="http://www.w3.org/2000/svg" viewBox="0 0 85.57 93.37">
  <defs>
    <style>
      .cls-1 {
        fill: #fff;
        stroke-width: 0px;
      }
    </style>
  </defs>
  <g id="Layer_1-2" data-name="Layer 1">
    <g>
      <path class="cls-1" d="m41.22,93.37c-.68-.15-1.36-.27-2.03-.46-5.43-1.55-8.95-5.06-10.5-10.48-.17-.6-.41-.74-.98-.74-5.62.02-11.24.02-16.86,0-3.72-.01-6.57-2.58-6.91-6.28-.21-2.26.62-4.19,2.33-5.68,2.65-2.3,4.82-4.96,6.42-8.08,1.97-3.86,2.89-7.96,2.88-12.29-.01-4.16-.18-8.34.15-12.48.77-9.82,5.68-17.1,14.22-21.95,3.04-1.73,6.36-2.68,9.93-3.11.02-.34.04-.66.04-.98,0-2.55,0-5.11,0-7.66C39.91,1.29,41.09,0,42.78,0c1.69,0,2.93,1.29,2.94,3.16.02,2.85,0,5.71,0,8.6,1.08.21,2.12.38,3.14.61,11.44,2.61,20.02,12.28,20.97,23.96.35,4.35.17,8.74.18,13.12.02,6.31,1.93,11.95,5.94,16.82,1.09,1.33,2.4,2.49,3.63,3.71,2.09,2.07,2.73,5.11,1.49,7.71-1.24,2.59-3.35,3.97-6.23,3.99-5.56.04-11.12.01-16.68.01-.33,0-.66,0-.85,0-.7,1.58-1.21,3.16-2.04,4.55-2.32,3.9-5.8,6.2-10.29,6.95-.17.03-.33.11-.5.17h-3.28Zm1.5-17.51c10.54,0,21.09,0,31.63,0,.6,0,1.31.01,1.4-.68.06-.42-.27-1.04-.61-1.35-7.35-6.63-10.96-14.9-10.95-24.78,0-3.31.05-6.63-.02-9.94-.03-1.54-.13-3.11-.46-4.61-2.52-11.55-13.29-18.7-24.96-16.63-9.2,1.63-16.68,9.85-17.22,19.17-.24,4.09-.14,8.2-.14,12.3.01,7.12-1.97,13.62-6.26,19.31-1.45,1.93-3.28,3.56-4.9,5.37-.26.29-.48.86-.37,1.16.12.31.66.48,1.04.64.21.09.48.02.72.02,10.36,0,20.72,0,31.09,0Zm8.2,5.89h-16.24c.69,3.1,4.4,5.75,8.02,5.78,3.72.03,7.46-2.58,8.21-5.78Z"/>
      <path class="cls-1" d="m85.56,37.08c0,.85.03,1.43,0,2.01-.08,1.44-1.2,2.59-2.6,2.7-1.51.12-2.87-.77-3.08-2.23-.21-1.4-.17-2.84-.29-4.26-.88-9.93-4.84-18.45-11.73-25.63-.47-.49-.89-1.11-1.07-1.74-.37-1.29.24-2.55,1.36-3.18,1.15-.65,2.58-.55,3.51.51,1.99,2.28,4.06,4.53,5.78,7.02,5.2,7.53,7.81,15.96,8.14,24.82Z"/>
      <path class="cls-1" d="m0,37.57C.52,25.09,5.04,14.33,13.8,5.38c1.26-1.29,3.03-1.37,4.23-.23,1.24,1.18,1.25,2.96-.06,4.3-5.39,5.5-9.07,11.96-10.92,19.44-.8,3.26-1.18,6.57-1.21,9.92-.02,1.66-1.18,2.9-2.71,2.98-1.7.09-3.05-1.14-3.11-2.85-.02-.46,0-.91,0-1.37Z"/>
    </g>
  </g>
</svg>