<svg id="Layer_1" enable-background="new 0 0 67 67" viewBox="0 0 67 67" xmlns="http://www.w3.org/2000/svg"><g><g id="XMLID_2305_"><path d="m55.7 17.5-2.9-1.2c-.2-.7-.5-1.4-.8-2l1.3-2.9c.2-.4.1-.8-.2-1.1l-3.2-3.2c-.3-.3-.7-.4-1.1-.2l-2.9 1.2c-.6-.3-1.3-.6-2-.8l-1.2-2.9c-.3-.4-.7-.7-1.1-.7h-4.6c-.4 0-.8.3-.9.6l-1.2 2.9c-.7.2-1.4.5-2 .8l-2.9-1.1c-.4-.2-.8-.1-1.1.2l-3.2 3.2c-.3.3-.4.7-.2 1.1l1.3 2.9c-.3.6-.6 1.3-.8 2l-3 1.2c-.4.1-.6.5-.6.9v4.6c0 .4.3.8.6.9l2.9 1.2c.2.7.5 1.4.8 2l-1.2 2.9c-.2.4-.1.8.2 1.1l3.2 3.3c.3.3.7.4 1.1.2l2.9-1.3c.7.3 1.3.6 2 .8l1.2 2.9c.1.4.5.6.9.6h4.6c.4 0 .8-.2.9-.6l1.2-2.9c.7-.2 1.4-.5 2-.8l2.9 1.2c.4.2.8.1 1.1-.2l3.2-3.3c.3-.3.4-.7.2-1.1l-1.3-2.9c.3-.6.6-1.3.8-2l2.9-1.2c.4-.1.6-.5.6-.9v-4.6c.2-.3 0-.6-.4-.8zm-16.4 10.9c-4.3 0-7.7-3.5-7.7-7.7s3.4-7.7 7.7-7.7c4.2 0 7.7 3.5 7.7 7.7 0 4.3-3.4 7.7-7.7 7.7z"/></g><path d="m13.1 37.2c0 .6 0 20.8 0 19.8 0 .6-.5 1-1 1h-7.6c-.6 0-1-.5-1-1v-19.8c0-.6.5-1 1-1h7.6c.6 0 1 .4 1 1z"/><path d="m62.4 46.9-24.1 15.1c-2.5 1.6-5.8 1.7-8.4.2l-14.8-8.3v-14.1h2.1c6.3-.1 11.3-.2 13 3.5.5 1.1 1.7 1.8 3 1.8h6.6c1.2 0 2.1.9 2.1 2.1 0 1.1-.9 2.1-2.1 2.1h-11.7c-.6 0-1 .4-1 1s.4 1 1 1h11.7c1.6 0 3-.9 3.7-2.3l17-6c1-.4 2.2-.1 2.7.9.6 1 .3 2.4-.8 3z"/></g></svg>