<?xml version="1.0" encoding="UTF-8"?>
<svg id="Layer_1" data-name="Layer 1" xmlns="http://www.w3.org/2000/svg" viewBox="0 0 972.51 296.87">
  <defs>
    <style>
      .cls-1, .cls-2 {
        stroke-width: 0px;
      }

      .cls-2 {
        fill: #ff3100;
      }
    </style>
  </defs>
  <path class="cls-2" d="m972.51,186.5c-.16.27-.42.52-.46.8-.68,4.96-3.38,8.7-7.13,11.8-9.43,7.78-18.88,15.54-28.33,23.31-29.57,24.32-59.14,48.62-88.68,72.97-1.25,1.03-2.49,1.51-4.11,1.5-8.32-.06-16.63-.03-24.95-.03-.79,0-1.58,0-2.39,0,.26-1.93,58.76-139.2,60.87-142.92h24.19c-.38,1-.66,1.79-.99,2.56-10.83,25.31-21.66,50.63-32.49,75.94-3.05,7.12-6.11,14.23-9.12,21.36-.33.79-1.3,1.78-.13,2.54.96.62,1.59-.44,2.22-.96,26.49-21.76,52.97-43.54,79.45-65.33.89-.73,2.14-1.37,1.61-2.88-.53-1.49-1.87-1.24-3.05-1.24-11.84,0-23.67,0-35.51,0-.88,0-1.75,0-2.88,0,.29-.83.48-1.49.75-2.12,1.97-4.63,3.97-9.24,5.92-13.87,1.52-3.61,3.79-6.63,6.82-9.11,5.75-4.71,11.48-9.45,17.21-14.17.49-.41,1.12-.75,1.42-1.27.33-.56.62-1.4.42-1.93-.19-.52-.98-.98-1.59-1.15-.75-.2-1.59-.09-2.39-.09-25.99,0-51.98,0-77.98,0-3.06,0-6.06-.37-8.92-1.5-13.57-5.36-17.11-22.38-6.79-32.77,3.6-3.63,7.29-7.18,10.94-10.76,15.17-14.89,30.34-29.78,45.51-44.67,17.16-16.85,34.33-33.7,51.46-50.58,1.34-1.32,2.69-1.96,4.62-1.91,5.44.13,10.88.04,16.31.04.87,0,1.74,0,2.99,0-.38,1.02-.62,1.74-.92,2.44-12.14,28.4-24.29,56.79-36.44,85.19-2.64,6.16-5.3,12.32-7.89,18.5-.52,1.24-1.14,1.9-2.61,1.88-6.96-.07-13.92-.03-20.87-.04-.46,0-.92-.12-1.64-.22.4-1.02.73-1.9,1.1-2.76,5.74-13.43,11.49-26.85,17.21-40.29.35-.81,1.32-1.84.31-2.59-1.21-.9-1.81.54-2.47,1.19-17.59,17.22-35.15,34.46-52.71,51.71-.57.56-1.19,1.09-1.63,1.75-.78,1.16-.22,2.47,1.17,2.73.85.16,1.75.1,2.63.1,26.71,0,53.42,0,80.13,0,4.76,0,9.18,1.07,13.05,3.97,10.21,7.64,10.67,22.67.91,31.33-2.45,2.17-5.04,4.18-7.57,6.28-.6.5-1.18,1.04-1.85,1.63.83.82,1.74.48,2.55.55,2.54.24,5.16.12,7.6.75,6.98,1.8,11.79,6.15,14.15,13.04.35,1.02.64,2.07.96,3.1v6.23Z"/>
  <path class="cls-1" d="m248.76,200.67c-12.42.02-23.75-3.3-33.53-11.01-12.89-10.16-19.38-23.56-19.76-39.99-.26-11.2,2.38-21.54,8.74-30.78,8.71-12.67,20.83-20.03,36.06-22.03,11.04-1.46,21.91-.59,32.08,4.32,17.14,8.29,27.07,21.95,29.32,40.86,1.79,15.05-1.89,28.71-11.8,40.38-8.47,9.97-19.35,15.73-32.3,17.53-2.92.41-5.88.49-8.83.73Zm23.25-52.53c-.5-12.77-8.41-22.98-21.75-23.7-11.41-.61-20.02,5.49-23.14,15.49-1.06,3.39-1.49,6.86-1.24,10.39.83,11.62,8.04,21.25,21.25,22.07,10.59.66,19.66-4.53,23.12-15.15.95-2.92,1.2-6.06,1.76-9.11Z"/>
  <path class="cls-1" d="m412.23,197.7v-98.8c.64-.08,1.24-.21,1.85-.21,14.23-.01,28.45-.03,42.68,0,5.58.01,10.97,1.09,16.02,3.51,7.66,3.67,12.99,9.4,14.37,17.94,1.37,8.45-.33,16.21-6.87,22.37-.23.22-.42.47-.62.72-.04.05,0,.15,0,.4.42.2.9.44,1.38.67,9,4.31,13.85,11.56,14.86,21.35.81,7.94-.92,15.26-6.28,21.42-4.93,5.68-11.35,8.69-18.64,9.93-2.66.45-5.4.66-8.11.67-15.99.06-31.97.03-47.96.03-.85,0-1.71,0-2.69,0Zm29.93-38.19c-.49,3.4-.34,12.08.29,13.96,5.79-.12,11.68-.24,17.56-.38.47-.01.94-.16,1.4-.29,3.11-.93,4.72-2.95,4.83-6.04.11-3.07-1.33-5.46-4.25-6.49-1.55-.54-3.26-.82-4.9-.87-4.46-.11-8.93-.04-13.39-.03-.47,0-.93.08-1.53.14Zm.06-36.61c-.51,2.98-.41,11.6.12,13.32,3.56,0,7.15.2,10.7-.06,3.49-.25,5.57-2.81,5.65-6.26.1-3.99-2.32-6.69-6.59-6.96-3.25-.2-6.52-.04-9.89-.04Z"/>
  <path class="cls-1" d="m93.43,98.79h29.6v45.61c10.56-2.73,20.79-5.37,31.24-8.07v-37.51h29.43c.47,1.72.58,95.75.1,98.71h-29.46c-.11-2.82-.04-5.66-.05-8.51-.01-2.95,0-5.91,0-8.86v-8.62c0-2.86,0-5.72,0-8.93-10.53,2.72-20.78,5.37-31.18,8.05v26.86h-29.67v-98.73Z"/>
  <path class="cls-1" d="m710.56,98.8h29.62v50.63c.15.04.31.07.46.11.45-.71.92-1.41,1.34-2.14,9.03-15.53,18.08-31.04,27.04-46.61.92-1.6,1.89-2.18,3.74-2.16,9.27.1,18.55.05,27.82.05h2.86c-.63,1.13-1.05,1.94-1.52,2.72-8.01,13.53-15.99,27.09-24.08,40.57-1.04,1.73-1.09,2.97-.1,4.74,9.06,16.06,18.01,32.18,26.99,48.28.42.75.79,1.52,1.31,2.52-.93.07-1.61.17-2.29.17-10.07,0-20.15-.03-30.22.04-1.66.01-2.54-.52-3.32-2-6.31-12.1-12.71-24.16-19.08-36.22-.48-.91-1-1.8-1.48-2.67h-9.4v40.39c-1.99.56-26.79.67-29.7.18v-98.62Z"/>
  <path class="cls-1" d="m314.02,197.54v-98.63c.63-.07,1.23-.21,1.84-.21,16.31-.01,32.63-.15,48.94.04,11.85.14,21.55,4.81,28.25,14.87,3.07,4.61,4.74,9.76,5.34,15.23.82,7.5.11,14.84-3.12,21.77-4.89,10.5-13.23,16.56-24.53,18.6-2.58.46-5.24.56-7.87.6-5.44.09-10.88.03-16.31.03h-2.59c-.32,3.15-.12,6.16-.16,9.15-.03,3.11,0,6.23,0,9.34v9.21h-29.77Zm29.86-54.61c5.85,0,11.43.02,17-.03.77,0,1.57-.29,2.31-.57,3.3-1.26,5.11-4.08,5.11-7.88,0-3.81-1.76-6.67-5.17-7.79-1.71-.56-3.59-.82-5.4-.88-4.07-.13-8.15-.05-12.22-.03-.53,0-1.05.14-1.63.23v16.95Z"/>
  <path class="cls-1" d="m700.79,123.1c-8.94,4.3-17.78,8.55-26.78,12.88-.51-.74-.96-1.36-1.37-2.01-4.01-6.29-9.86-9.35-17.19-9.76-6.88-.39-12.99,1.47-17.89,6.48-9.19,9.42-8.95,26.18.44,35.39,3.69,3.62,8.18,5.63,13.27,5.94,2.92.18,5.94-.01,8.8-.6,5.14-1.05,9.16-4.01,12.12-8.36.54-.79,1.04-1.6,1.75-2.69,8.99,4.23,17.91,8.58,27.02,12.97-.5.9-.89,1.67-1.33,2.41-8.1,13.31-20.02,20.99-35.25,23.63-9.99,1.73-19.98,1.48-29.56-2.09-19.14-7.15-30.7-20.85-33.76-41.08-2.29-15.12,1-29.1,10.82-41.12,9.2-11.26,21.23-17.41,35.69-18.74,10.62-.98,20.9.37,30.64,4.88,9.42,4.37,16.67,11.14,21.86,20.12.2.35.39.7.56,1.06.07.14.08.3.17.7Z"/>
  <path class="cls-1" d="m538.17,98.79h24.85c13.6,32.77,27.22,65.62,40.86,98.48-1.87.51-28.03.65-31.42.19-1.83-4.97-3.7-10.04-5.62-15.23-.6.09-1.14.12-1.65.25-10.75,2.77-21.49,5.58-32.25,8.29-1.41.36-2.21.96-2.62,2.36-.44,1.52-1.1,2.97-1.66,4.45h-31.47c13.72-33.08,27.34-65.92,40.98-98.8Zm19.78,59.27c-2.45-6.29-4.8-12.34-7.15-18.38-.15.02-.31.04-.46.06-2.85,7.36-5.69,14.73-8.71,22.54,5.66-1.46,10.81-2.79,16.32-4.21Z"/>
  <path class="cls-1" d="m26.63,162.41c.55.98.95,1.76,1.4,2.5,4.5,7.59,12.95,10.27,20.94,8.37.69-.17,1.38-.43,2.01-.77,3.38-1.84,3.86-6.33.72-8.54-1.79-1.26-3.92-2.16-6.03-2.82-5.02-1.58-10.15-2.83-15.18-4.4-2.81-.87-5.61-1.91-8.24-3.22-10.41-5.17-15.66-13.72-16.12-25.25-.4-10.06,3.74-17.94,11.67-23.93,6.16-4.65,13.22-7.07,20.83-7.82,9.64-.95,18.78.81,27.25,5.65,7.52,4.3,11.93,10.89,14.07,19.13.08.3.06.61.12,1.2-8.11,2.09-16.18,4.16-24.29,6.25-.33-.52-.57-.83-.73-1.18-3.16-6.64-10.72-7.05-15.23-5.34-1.75.66-3.06,1.75-3.22,3.77-.16,2.01.91,3.38,2.55,4.26,1.54.83,3.15,1.58,4.82,2.09,4.88,1.5,9.81,2.87,14.72,4.28,4.09,1.17,8.03,2.7,11.66,4.91,10.45,6.37,14.65,15.9,13.65,27.8-1.07,12.74-8.13,21.35-19.42,26.73-8.69,4.14-17.92,5.04-27.39,4.08-6.84-.69-13.3-2.7-19.29-6.09-9.19-5.19-14.99-12.97-17.6-23.16-.12-.45-.17-.92-.3-1.61,8.85-2.29,17.64-4.57,26.63-6.9Z"/>
</svg>