<?xml version="1.0" encoding="UTF-8"?><svg id="Layer_2" xmlns="http://www.w3.org/2000/svg" viewBox="0 0 132.55 162.68"><defs><style>.cls-1{fill:#f3f;}</style></defs><g id="Layer_1-2"><path class="cls-1" d="m34.18,37.77c-.89-11.84,2-22.08,11.05-29.94C51.36,2.5,58.55-.13,66.7,0c9.86.17,17.98,4.1,24.33,11.59,6.34,7.48,8.06,16.37,7.35,26.09.82.04,1.45.09,2.07.09,5.86,0,11.71,0,17.57,0,9.01,0,14.53,5.48,14.54,14.44,0,32.05,0,64.1,0,96.15,0,8.81-5.48,14.3-14.26,14.3-34.66,0-69.32,0-103.98,0-8.79,0-14.3-5.49-14.3-14.26,0-32.11,0-64.22,0-96.33,0-8.73,5.58-14.28,14.32-14.3,5.86-.01,11.71,0,17.57,0,.64,0,1.28,0,2.29,0Zm-.1,11.46c-.73-.04-1.25-.1-1.77-.1-5.97,0-11.95,0-17.92,0-2.49,0-3.03.54-3.03,3.02,0,32.05,0,64.1,0,96.14,0,2.54.48,3.03,2.98,3.03,34.66,0,69.31,0,103.97,0,2.38,0,2.89-.52,2.89-2.94,0-32.11,0-64.21,0-96.32,0-2.35-.58-2.92-2.94-2.93-6.03-.01-12.06,0-18.1,0-.51,0-1.03.07-1.67.11,0,.79,0,1.43,0,2.07,0,2.48.09,4.97-.04,7.45-.17,3.27-2.68,5.58-5.77,5.53-3.08-.06-5.45-2.49-5.52-5.75-.05-2.42-.01-4.85-.02-7.27,0-.68,0-1.35,0-1.99h-41.73c0,3.33.05,6.52-.02,9.7-.05,2.3-1.33,3.9-3.35,4.82-2.06.93-4.04.59-5.82-.82-1.56-1.24-2.14-2.92-2.14-4.84,0-2.94,0-5.88,0-8.91Zm52.85-11.53c1.07-9.92-1.42-18-9.7-23.24-7.16-4.54-16.46-4.13-23.18.86-7.4,5.49-9.52,13.42-8.35,22.39h41.22Z"/></g></svg>