<?xml version="1.0" encoding="UTF-8"?><svg id="Layer_2" xmlns="http://www.w3.org/2000/svg" viewBox="0 0 353.44 417.62"><g id="Layer_1-2"><path d="m333.52,417.62c-9.65-3.49-12.96-10.53-12.95-20.55.17-104.48.1-208.96.11-313.44,0-21.17-9.22-36.97-28.35-46.03-6.17-2.92-13.54-4.52-20.39-4.62-31.38-.48-62.78-.29-94.17-.18-27.22.09-48.81,21.79-48.94,49.03-.07,14.67-.02,29.35,0,44.02,0,1.2.11,2.4.17,3.76,14.92,2.36,28.92,7.02,41.55,15.04,34.77,22.1,53.08,53.8,54.44,95.06.35,10.56-6.54,17.45-17.12,17.46-63.6.04-127.19.05-190.79,0C6.56,257.16-.05,250.23,0,239.63c.25-52.64,38.85-99,90.79-109.05,1.71-.33,3.41-.69,5.43-1.1,0-8.63-.19-17.18.04-25.71.35-12.6-.29-25.41,1.76-37.75C104.18,29.07,138.01.62,175.46.26c32.88-.32,65.77-.36,98.65,0,42.18.47,77.76,35.76,79.08,77.85.09,2.85.1,5.71.1,8.56,0,103.26-.09,206.52.15,309.77.02,10.15-2.88,17.38-12.58,21.18h-7.34ZM34.75,224.24h155.71c-6.31-36.22-42.36-64.56-79.95-63.2-46.1,1.66-71.92,37.58-75.76,63.2Z"/><path d="m172.87,417.62c-9.72-3.35-13.64-10.27-13.08-20.38.37-6.64,0-13.31.09-19.96.13-9.57,7.21-16.75,16.35-16.72,9.19.02,16.13,7.16,16.23,16.81.07,6.79-.27,13.6.08,20.37.52,10.02-3.58,16.68-13.15,19.88h-6.52Z"/><path d="m44.84,417.62c-9.64-3.43-13.55-10.37-13-20.42.35-6.49,0-13.02.08-19.53.13-9.89,7.1-17.12,16.36-17.11,9.33,0,16.13,7.17,16.22,17.15.06,6.24-.36,12.51.1,18.71.75,10.11-2.79,17.35-12.43,21.2h-7.34Z"/><path d="m108.45,417.62c-.92-.49-1.83-1.01-2.77-1.47-6.01-2.94-9.41-7.69-9.53-14.42-.14-8.27-.13-16.55-.02-24.82.12-9.17,6.93-16.14,15.76-16.35,8.82-.21,16.27,6.37,16.68,15.47.39,8.66.35,17.36.01,26.03-.32,8.19-5.55,12.82-12.79,15.56h-7.34Z"/><path d="m128.82,309.16c0,4.2.1,8.41-.02,12.61-.26,9.22-7.43,16.1-16.54,16-8.86-.09-15.87-7.03-16.01-16.11-.14-8.27-.14-16.55,0-24.82.16-8.96,7.33-16,16.11-16.1,8.95-.09,16.19,7.01,16.43,16.2.11,4.07.02,8.14.02,12.2Z"/><path d="m192.58,309.21c0,4.34.13,8.68-.03,13.01-.31,8.34-6.8,15.02-14.86,15.52-8.61.53-16.42-4.85-17.1-13.34-.8-10.08-.78-20.33.04-30.41.67-8.21,8.83-13.87,16.86-13.22,8.29.67,14.69,7.13,15.04,15.41.18,4.33.03,8.67.04,13.01Z"/><path d="m64.67,309.37c0,4.34.2,8.69-.04,13.01-.49,8.78-7.28,15.27-15.82,15.39-8.68.12-15.91-5.94-16.4-14.71-.51-9.05-.49-18.17-.04-27.22.43-8.75,7.69-15.12,16.16-15.08,8.66.03,15.64,6.68,16.11,15.6.23,4.33.04,8.67.03,13.01Z"/></g></svg>