<?xml version="1.0" encoding="UTF-8"?><svg id="Layer_2" xmlns="http://www.w3.org/2000/svg" viewBox="0 0 599.28 236.89"><defs><style>.cls-1{fill:#fff;}</style></defs><g id="Layer_1-2"><path class="cls-1" d="m374.21,143.76c-2.35.93-4.85,1.46-7.06,2.75-.37.14-.87-.15-1.14.34-2.42.75-4.81,1.56-7.12,2.6-.24.05-.47.09-.71.14-2.48,1.02-5.09,1.71-7.53,2.85-.24.05-.47.09-.71.14-.96.56-2.18.57-3.01,1.42-.24.03-.49.07-.73.1-2.87,1.11-5.74,2.23-8.61,3.34-.44.39-1.13.14-1.53.63-1.65.55-3.37.94-4.85,1.91-.37.14-.87-.15-1.14.34-.81.12-1.56.38-2.21.89-.3-.06-.6-.14-.79.22-1.76.33-3.34,1.18-5.01,1.74-2.26.76-4.5,1.59-6.76,2.38-.24.08-.46.16-.56.42-.65.05-1.32.05-1.74.68-3.05.63-5.91,1.81-8.74,3.06-.37.14-.89-.17-1.13.38-.37.13-.86-.15-1.14.32-.61.05-1.22.1-1.84.15-.6-.79-.43-1.57-.06-2.42,1.35-3.05,2.35-6.23,2.93-9.51.32-1.78.62-3.68-.54-5.36-.15-.99,0-2.11-1.15-2.66,0,0,.02.02.02.02-.34-.77-.39-1.79-1.59-1.8-1.57-1.11-3.3-1.81-5.25-1.85-.48-.21-.96-.39-1.5-.25-.37-.11-.75-.11-1.12,0-.38-.11-.75-.11-1.13,0-2.48-.23-4.77.56-7.01,1.4-1.64.61-3.19,1.48-4.6,2.54-.48.11-.84.39-1.14.76-.37.05-.57.33-.77.6-.44.21-.82.47-1.05.92-.78.47-1.4,1.11-1.9,1.87-.46.23-.71.63-.92,1.06-4.54,5.35-6.4,11.45-5.07,18.4.26,1.33,1.01,2.48,1.55,3.71-.15.37-.3.74-.45,1.11-.2.03-.32.14-.36.34-.37.16-.73.31-1.1.47-.51-.07-.98.12-1.45.26-4.09,1.22-8.27,2.05-12.42,3.04-.56-.1-1.06.04-1.5.4-1.42-.07-2.76.32-4.04.86-.41.17-.81.2-1.21.31-.31-.07-.63-.17-.77.25-1.84-.18-3.55.51-5.33.77-3.05.46-6,1.44-9.09,1.68-.44.03-1.03,0-1.31.54-.37.01-.74.03-1.11.04-2.62.09-5.14.81-7.73,1.14-3.57.47-7.13,1.02-10.69,1.55-.49.07-.97.22-1.45.34-.25-.13-.49-.14-.71.06-.65-.06-1.29-.05-1.89.26-.39-.13-.77-.06-1.13.09-1.77.07-3.52.28-5.24.67-.51-.15-1.01-.01-1.5.1-2.13.12-4.26.23-6.35.64-1.01-.06-2.01,0-3.01.14-.65-.08-1.29-.17-1.88.22-.37.03-.74.05-1.11.08-2.13,0-4.26-.03-6.37.35l-1.87.06c-.75-.12-1.5-.13-2.25.02-1.03-.16-2.01.06-3,.3-2.75.05-5.49.09-8.24.14-1.32.06-2.23-.88-3.32-1.36,0,0,.02.01.02.01-.22-.59-.49-1.16-1.06-1.5-.17-.74-.58-1.33-1.09-1.86-.1-.59-.24-1.16-.84-1.47-1.08-3.14-1.37-6.42-1.71-9.69.12-.5.11-1,.03-1.5.14-1.92.52-3.81.54-5.75.01-1.06.46-2.11.74-3.16,1.28-4.92,3.15-9.58,5.85-13.91,1.77-2.85,3.49-5.74,5.65-8.32,1.67-1.98,3.28-4.05,5.17-5.8,3.71-3.43,7.51-6.76,12.03-9.15,3.8-2.01,7.71-3.7,11.95-4.56,3.98-.81,7.97-1.27,12.03-.72,6.3.85,11.81,3.15,15.75,8.39.13.22.26.4.34-.03.54-1.6.96-3.27,1.67-4.79.54-1.15,1.37-2.06,3-2.03,6.04.1,12.09.04,18.13.03.19,0,.37,0,.56,0,1.06.08,1.39.42,1.05,1.41-.56,1.63-.96,3.33-1.65,4.88-1.44,3.26-2.48,6.66-3.76,9.98-1.57,4.06-3.07,8.16-4.48,12.28-1.17,3.43-2.46,6.81-3.65,10.23-1.16,3.35-2.46,6.67-3.69,10.01-.76,2.06-1.72,4.06-2.16,6.24-.06.26.05.36.3.32,3.33-.36,6.58-1.21,9.86-1.83.57-.11.69-.45.58-.95-.76-3.35-.25-6.7.1-10.04.15-1.48.65-2.92,1.14-4.35.95-2.73,2-5.39,3.29-7.99,1.15-2.33,2.59-4.45,4.03-6.56,4.04-5.93,9.31-10.64,15.08-14.82,6.43-4.66,13.63-7.7,21.37-9.38,5.62-1.22,11.3-1.7,17.04-.84,1.66.25,3.32.47,4.88,1.15,1,.43,2.07.68,3.1,1.01,1.5.48,2.89,1.11,4.22,1.92,0,.22.06.37.32.28,6.04,3.33,8.73,8.88,10.09,15.28.59,2.75.59,5.53.14,8.31-.05.3,0,.61,0,.92-.3.24-.6.56-.26.89.3.29.68.08.96-.21,2.6-.86,5.1-1.97,7.64-2.96,1.04-.4,1.53-1.24,2.11-2.02,4.23-5.69,9.12-10.71,14.94-14.81,7.41-5.21,15.62-8.28,24.6-9.44,5.79-.75,11.55-.67,17.31.33.91.16,1.78.51,2.73.49.63-.02,1.24-.01,1.83-.28,3.03-1.36,6.28-2.05,9.43-3.03,8.32-2.57,16.79-4.49,25.34-6.14,13.02-2.52,26.14-3.41,39.36-2.83,3.9.17,7.79.68,11.68,1.29,4.44.69,8.84,1.5,13.15,2.73,3.33.94,6.62,2,9.88,3.22,4.14,1.55,8.14,3.33,12.1,5.25,6,2.92,11.66,6.47,17.47,9.74,4.17,2.35,8.23,4.95,12.56,7,6.78,3.21,13.75,6.06,21.29,7.01,8.03,1.01,15.85.36,23.37-2.91.93-.41,1.95-.73,2.95-1.04.25-.07.49-.14.7.05.29.25.23.57.09.85-.16.33-.36.66-.58.95-3.71,4.84-8.32,8.52-14.02,10.83-2.02.82-4.09,1.47-6.17,2.11-.3-.04-.57-.01-.78.24-2.97.41-5.94.89-8.96.85-.62-.12-1.25-.12-1.87,0-2.29-.23-4.6-.34-6.85-.91-3.36-.85-6.54-2.14-9.66-3.64-12.64-6.08-24.86-12.96-37.06-19.86-4.44-2.51-9.02-4.73-13.76-6.6-5.6-2.2-11.35-3.96-17.25-5.13-7.24-1.44-14.54-2.42-21.95-2.69-5.38-.2-10.74-.05-16.07.39-10.2.85-20.27,2.55-30.14,5.33-8.3,2.34-16.24,5.67-24.36,8.5-4.27,1.49-8.5,3.09-12.74,4.64-.41.15-.79.35-1.19.53-.63-.12-1.04.38-1.57.54Zm-184.59,34.2c.03.22.13.35.38.31,2.86.86,5.74.94,8.64.23,4.19-1.03,7.89-3.06,11.17-5.81,3.97-3.33,6.48-7.56,7.62-12.63.28-1.24.46-2.45.29-3.67-.46-3.41-1.81-6.34-5.03-8.03-3.46-1.82-7.09-1.81-10.78-.84-4.25,1.12-7.92,3.3-11.11,6.23-3.42,3.13-5.94,6.89-6.98,11.47-1.43,6.25,1.35,10.93,5.81,12.75Z"/><path class="cls-1" d="m149.18,127.81c.58.36,1.14.76,1.84.88,1.3.92,2.57,1.88,3.73,2.97,0,0-.02-.01-.02-.01.3.59.56,1.2,1.14,1.58.83,1.85,1.55,3.73,1.93,5.75.61,3.18.26,6.34-.18,9.47-.67,4.78-2.24,9.34-3.85,13.87-1.46,4.11-2.87,8.24-4.35,12.35-1.59,4.44-3.24,8.85-4.86,13.28-.8,2.17-1.49,4.38-2.47,6.47-.1.21-.02.49-.03.74-.4.1-.79.2-.73.75-.14.05-.28.09-.42.14-.27-.15-.3.04-.33.23-.13.07-.26.15-.39.22-.43-.14-.77.09-1.13.25-1.18-.09-2.18.76-3.37.61-.38-.05-.76-.04-1.12.13-4.51.59-9.02,1.25-13.48,2.13-.62.06-1.25.12-1.87.18-.7-.09-1.02-.35-.95-1.19.1-1.23.94-2.21,1-3.43.12-.12.3-.22.36-.37.19-.42.6-.97.15-1.31-.48-.37-.87.14-1.12.56-.22.38-.83.25-.93.75-.68.12-1.2.47-1.51,1.1-1.45.85-2.91,1.69-4.36,2.54-3.03.93-5.99,2.08-9.12,2.66-.37.04-.75.07-1.12.11-.9-.11-1.75.17-2.62.33-3-.09-6.01-.01-8.99-.42-.37-.2-.74,0-1.11-.02-1-.34-2.01-.68-3.01-1.01-.35-.2-.66-.51-1.11-.48-1.93-1.33-3.85-2.67-5.48-4.41-.58-.62-.78-1.54-1.61-1.92-.6-1.45-.76-3.04-1.46-4.45.42-1.37-.04-2.76.06-4.14.51-1.09.2-2.28.52-3.44.54-1.94,1.16-3.8,2.1-5.58.94-1.79,1.8-3.6,3-5.25.95-1.31,1.91-2.55,3.17-3.6,1.46-1.21,2.5-2.86,4.12-3.95,2.4-1.62,4.82-3.17,7.48-4.38,2.95-1.35,6.07-2.15,9.11-3.18.5-.09,1.06.04,1.49-.36.74-.18,1.57.07,2.23-.45.24-.04.48-.08.72-.12,1.95-.28,3.9-.55,5.85-.83.8-.11,1.59-.24,2.39-.36.52.09,1.02.05,1.5-.18.76.05,1.51,0,2.25-.15.38-.02.75-.03,1.13-.05.88.07,1.75.15,2.61-.13,2.54-.03,5.07-.07,7.61-.07.84,0,1.52-.09,1.38-1.19.92-3.6-1.51-7.2-5.51-8.26-2.98-.79-5.97-.9-8.89.31-.55.23-1.26-.25-1.73.37-.67.01-1.28.18-1.72.73-1.39-.14-2.5.76-3.57,1.32-2.6,1.35-5.24,2.72-7.42,4.77-.62.19-1.23.11-1.83-.1-.21-.36-.41-.71-.62-1.07-.57-1.04-.98-2.19-1.95-2.98-.06-.27-.02-.58-.32-.75-.59-1.03-.99-2.18-1.94-2.98.04-.72-.64-1.05-.89-1.6-.16-.58-.36-1.13-.97-1.39-.02-.12-.05-.25-.05-.37,0-.63-.91-1.03-.6-1.62.3-.58.86-1.08,1.41-1.46,4.52-3.12,9.44-5.43,14.6-7.33,5.92-2.18,12.06-3.1,18.26-3.78.25,0,.5-.02.75-.03.63.09,1.25.07,1.87-.06,1.37.16,2.74.2,4.12.11.74.18,1.48.36,2.25.3.25.02.5.04.75.06.67.58,1.47.4,2.25.37.97.37,1.97.6,3,.73.61.19,1.22.38,1.83.57.39.18.78.37,1.17.55Zm-20.64,41.19c-1.3,0-2.54.02-3.78,0-4.95-.11-9.83.39-14.57,1.85-3.51,1.08-6.69,2.69-8.52,6.13-1,1.9-1.03,4.78,1.23,5.98,1.67.88,3.34,1.19,5.11,1.26,3.44.13,6.68-.74,9.82-2.12,4.11-1.8,7.47-4.44,9.28-8.65.59-1.37,1.49-2.7,1.43-4.45Z"/><path class="cls-1" d="m450.74,137.97c1.76-1.48,3.45-3.04,5.28-4.44,3.29-2.51,6.88-4.5,11.04-5.07,5.73-.79,11.4-.55,16.88,1.53,2.13.81,4.01,2.02,5.52,3.73,1,1.12,1.87,2.33,2.13,3.87-.08.26.06.35.28.4.26,1.23.52,2.47.78,3.7-.11.62-.12,1.25,0,1.87-.13.98-.48,1.93-.42,2.94-.22.06-.35.17-.29.42.09,1.78-.52,3.43-1.03,5.08-.75,2.43-1.6,4.83-2.41,7.24-.22.04-.36.13-.28.39-.41,1.24-.81,2.49-1.22,3.73-.22.03-.36.12-.28.38-.41,1.24-.81,2.48-1.22,3.72-.22.04-.37.13-.28.39-.03.24-.07.48-.1.73-.22.04-.36.14-.29.4l-.84,2.59c-.2.06-.36.14-.27.4-.03.24-.07.49-.1.73-.22.04-.36.14-.28.39-.4,1.24-.81,2.49-1.21,3.73-.22.04-.36.12-.28.38-1.32,4.11-2.92,8.11-4.34,12.19-1.12,3.21-2.34,6.4-3.52,9.59-.7,1.89-1.16,2.22-3.12,2.22-6.05,0-12.1,0-18.14,0-.68,0-1.37.05-2.05.08-.25-.05-.49-.1-.74-.15-.45-.92-.16-1.91.12-2.71,1.36-3.92,2.9-7.77,4.31-11.67,1.57-4.36,3.14-8.73,4.7-13.09,1.54-4.3,3.16-8.58,4.58-12.92.44-1.33.92-2.72.89-4.18,0-.25-.03-.53.08-.73,1.44-2.66-.23-4.58-1.69-6.42-.75-.94-2.14-.82-3.26-1-2.23-.36-4.39.15-6.51.81-.75.23-1.45.61-2.17.92-.5.1-.93.29-1.1.83-.85-.09-1.39.62-1.82,1.05-1.81,1.8-3.73,3.57-4.65,6.07-.64.93-1.15,1.92-1.5,3-.6.84-.94,1.79-1.21,2.78-.19.45-.67.8-.48,1.38-.65,1.67-1.3,3.35-1.93,5.03-.83,2.19-1.65,4.39-2.46,6.59-.12.34-.16.71-.23,1.06-.37.17-.31.47-.24.78-1.03,1.94-1.58,4.06-2.35,6.1-1.07,2.83-2.13,5.67-3.17,8.51-.13.34-.16.71-.24,1.07-.34.45-.73.89-.61,1.52-.72,1.07-.79,2.38-1.28,3.54-.48,1.16-1.16,1.94-2.52,1.84-.62-.13-1.25-.13-1.87,0-5.37-.14-10.74-.14-16.11,0-.25,0-.5,0-.75,0-.12-.02-.24-.05-.37-.07-.76-.15-1.78.41-2.24-.39-.43-.74-.12-1.74.13-2.54.63-2.02,1.27-4.05,2.16-5.96.85-1.82,1.32-3.77,2.09-5.61,1.43-3.41,2.55-6.95,3.87-10.4,1.74-4.52,3.33-9.1,5.03-13.64,1.35-3.63,2.66-7.28,3.95-10.94,1.74-4.91,3.48-9.82,5.31-14.7.51-1.37,1.44-2.29,3.14-2.53,6.39-.92,12.74-2.08,19.19-2.56,2.85-.21,2.89-.07,2.1,2.68-.31,1.09-1.03,2.1-.78,3.32-.1.2-.33.53-.28.58.21.21.46.06.64-.12.13-.13.22-.29.32-.44Z"/><path class="cls-1" d="m74.27,178.31c.4.44.28.9.09,1.39-1.62,4.3-3.32,8.57-4.79,12.91-.73,2.15-1.71,4.23-2.3,6.41-.51,1.9-1.61,2.66-3.48,2.53-.56-.03-1.12-.08-1.67-.08-18.98,0-37.97,0-56.95,0-.56,0-1.12.05-1.67.08-.62-.11-1.25-.1-1.87.01-.53-.14-1.12-.05-1.6-.39-.03-2.46,1.12-4.6,1.92-6.82,3.09-8.58,6.28-17.12,9.4-25.69,3.2-8.79,6.34-17.6,9.53-26.39,3.3-9.08,6.66-18.14,9.95-27.22.79-2.19,1.78-4.33,2.27-6.62.07-.13.14-.26.21-.4.81-.41,1.32-1.39,2.41-1.26,2.1.03,4.2.11,6.3.09,4.14-.03,8.29.13,12.43-.09.92.03,1.83.05,2.75.08.54.02,1.12-.08,1.52.43-.01.25-.03.5-.04.75-1.41,3.8-2.83,7.6-4.24,11.4-1.69,4.55-3.39,9.09-5.05,13.65-1.58,4.32-3.09,8.66-4.67,12.98-1.28,3.52-2.64,7.02-3.92,10.54-1.63,4.5-3.19,9.02-4.81,13.52-.77,2.13-1.63,4.23-2.45,6.34-.04.48-.59.84-.3,1.41.65.27,1.34.14,2.01.14,12.16,0,24.33,0,36.49,0,.87,0,1.74-.05,2.57.3Z"/><path class="cls-1" d="m385.89,195.53c-.88.48-1.76.97-2.64,1.45-1.51.57-2.97,1.27-4.39,2.04-.2-.05-.37-.03-.47.19-.72.05-1.38.21-1.89.77-.24.03-.49.07-.73.1-.55.35-1.32.18-1.77.76-.32-.05-.66-.17-.85.23-.25.04-.5.08-.75.12-1.78.31-3.48,1.03-5.32,1.07-.49.01-1,.02-1.43.33-.38-.07-.75-.03-1.11.1-2.75.12-5.49.23-8.24.35-1.22-.43-2.56.32-3.75-.42-1.84-.46-3.72-.65-5.6-.8-.11-.4-.48-.29-.75-.37-.67-.48-1.44-.68-2.25-.75-.21-.39-.47-.65-.97-.72-.52-.08-1.14-.17-1.51-.49-1.56-1.37-3.44-2.31-5.02-3.64-.76-.97-1.63-1.83-2.59-2.59.02-.8-.79-1.11-1.03-1.76-2.44-3.67-3.53-7.71-3.57-12.1-.02-2.75.17-5.47.47-8.19.26-2.35,1.74-3.72,3.97-4.47,5.63-1.88,11.07-4.24,16.54-6.51,2.68-1.11,5.36-2.19,7.92-3.56.32.02.65.03.97.05.38.78.04,1.47-.36,2.07-2.08,3.11-3.53,6.49-4.13,10.17-.31,1.87-.43,3.78.13,5.66.36,1.2.91,2.24,1.84,3.1,1.09,1,1.96,2.24,3.48,2.76.83.28,1.65.39,2.49.54,4.95.89,9.55.16,13.94-2.44,2.57-1.51,4.87-3.22,6.78-5.48.4-.11.31-.47.38-.75,2.36-2,3.43-4.76,4.41-7.55.6-1.7,1.05-3.47,1.39-5.24.56-2.94-.58-5.5-2.08-7.92-.39-.63-1.11-.94-1.87-1.03.09-.94-.66-.64-1.12-.75-1.2-1.07-1.1-2.45.35-2.9,1.37-.43,2.68-1.07,4.13-1.24.25.06.34-.09.37-.3.6-.27,1.23-.4,1.88-.44.25.05.34-.09.37-.3,6.04-1.71,11.96-3.82,18.07-5.31.24-.06.47-.17.71-.22,1.38-.27,1.73-.07,2.31,1.2,2.29,5.07,2.9,10.38,1.96,15.8-.78,4.51-2.3,8.8-4.17,13.01-2.29,5.17-5.5,9.68-9.07,13.95-1.78,2.13-3.78,4.12-6.07,5.75-.38.27-.55.64-.76,1-.5.36-1.01.72-1.51,1.09-.63.47-1.26.94-1.9,1.4-.83.09-1.25.8-1.83,1.25-.58.26-1.23.42-1.51,1.1-.68.14-1.4.17-1.85.82Z"/><path class="cls-1" d="m139.77,224.32c.72-.38,1.25-.99,1.82-1.54,5.69-5.49,11.38-10.99,17.08-16.48.99-.96,1.72-.98,2.73-.07.55.5,1.08,1.03,1.58,1.59,2.57,2.85,5.74,4.67,9.46,5.61,5.42,1.37,10.8,1.36,16.14-.33,3.41-1.08,6.58-2.77,9.1-5.24,2.39-2.34,4.33-5.17,5.48-8.4.53-1.48,1.44-2.09,2.98-2.25,4.46-.48,8.9-1.07,13.35-1.65,2.35-.31,4.68-.69,7.02-1.03.49-.07,1-.16,1.48-.12.77.06.97.49.69,1.25-2.85,7.7-6.9,14.69-12.1,21.05-1.86,2.27-4.08,4.17-6.03,6.34-.58.33-1.08.73-1.5,1.25-.4.08-.61.34-.71.72-.55,0-.93.26-1.18.74,0,0,.02-.01.02-.01-.67.52-1.52.76-2.11,1.41-.28.18-.55.37-.83.55-2.06.85-3.88,2.17-5.89,3.12-.71.2-1.51.21-2.02.88-.28.05-.62-.02-.77.34-1.12.39-2.23.77-3.35,1.16-.38.1-.89-.12-1.1.43-.74,0-1.46.17-2.13.45-1.74.72-3.54,1.11-5.43,1.12-.61,0-1.23.08-1.79.36-.25.02-.5.04-.75.06-.89-.08-1.78-.12-2.62.29-.25.02-.5.04-.75.06-3.62,0-7.24,0-10.86,0-1.01-.11-2-.54-3.05-.31-.08-.07-.16-.08-.25-.03-.15-.03-.3-.06-.45-.09-1.71-.42-3.48-.43-5.22-.66-2.42-.32-4.73-1.16-6.98-2.1-.42-.18-.79-.22-1.19-.26l-5.31-3.01c-.5-.38-1-.75-1.49-1.13-.33-.35-.71-.67-.99-1.05-.71-.99-1.98-1.59-2.08-2.99Z"/><path class="cls-1" d="m285.22,79.24c-.28.74-.56,1.49-.84,2.23-.23.03-.36.13-.3.39-.28.74-.55,1.48-.83,2.23-.23.03-.37.13-.29.39-.22,1.07-.76,2.01-1.2,2.99-.23.03-.37.12-.29.38-.65,1.62-1.31,3.23-1.96,4.85-.22.03-.37.13-.29.39-1.15,2.74-2.3,5.48-3.45,8.23-.23.02-.37.11-.29.37l-.83,2.24c-.22.03-.36.12-.29.37-.28.75-.55,1.49-.83,2.24-.23.03-.37.12-.29.38-1.23,3.51-2.87,6.85-4.59,10.14-.56,1.08-1.49,1.39-2.63,1.4-2.11,0-4.23.06-6.34.09-.5-.12-1-.12-1.5,0-.18-.03-.37-.08-.55-.08-3.47.02-2.98-.46-3.14-3.19-.3-5.22-.57-10.45-.87-15.67-.03-.55-.17-1.1-.26-1.65.03-.8.06-1.61.1-2.41.12-.07.14-.19,0-.26-.15-.08-.34-.09-.36.17-.33.82-1.07,1.5-.91,2.5-.78,1.36-1.5,2.74-1.99,4.27-.55,1.74-1.41,3.39-2.14,5.07-.23.02-.37.11-.29.37-.62,1.93-1.54,3.75-2.33,5.61-.23.03-.36.12-.3.38-.3,1.15-.83,2.21-1.42,3.24-.6,1.04-1.48,1.6-2.76,1.58-2.93-.04-5.86,0-8.79-.02-1.75-.02-2.02-.3-2.11-2.09-.39-7.71-.74-15.42-1.13-23.13-.29-5.78-.6-11.56-.93-17.34-.12-2.16.43-2.88,2.59-2.92,2.62-.05,5.24-.03,7.86,0,1.71.03,1.72.12,1.8,1.83.32,7.02.67,14.04,1.02,21.47,1.12-2.03,1.97-3.74,2.63-5.54.68-1.87,1.44-3.69,2.51-5.38.2-.31.36-.66.47-1.01.9-2.78,2.19-5.38,3.53-7.96.06-.11.09-.23.12-.35.61-2.83,1.92-3.11,4.43-3.09,2.31.02,4.62-.02,6.92,0,1.8.02,1.84.15,1.96,1.91.46,6.45.8,12.91,1.53,19.35-.07.68-.16,1.36.07,2.26.63-.83.94-1.48,1.08-2.22,1.28-3.3,2.64-6.57,4.11-9.8,1.07-2.35,1.97-4.79,2.88-7.21.38-1.02,1.04-1.89,1.32-2.98.2-.77,1.08-1.17,1.93-1.22,3.24-.19,6.48-.14,9.72-.04.93.03,1.26.69.72,1.8-.66,1.33-1.07,2.75-1.7,4.08-.23.02-.37.11-.29.37Z"/><path class="cls-1" d="m210.16,91.59c.7-1.65.77-3.44,1.17-5.15.57-2.48.93-5.01,1.43-7.51.28-1.42.52-2.87.85-4.28.24-1,1.07-1.67,2.08-1.68,2.68-.02,5.35-.03,8.03.02,1.49.03,1.75.36,1.48,1.82-.48,2.58-.94,5.18-1.54,7.73-.57,2.42-.86,4.9-1.39,7.32-.34,1.55-.68,3.09-.82,4.68-.22.05-.36.17-.29.42,0,1.98-.66,3.84-.96,5.77-.48,3.05-1.26,6.05-1.72,9.1-.33,2.16-.97,4.28-1.18,6.47-.11,1.14-1.27,2.11-2.47,2.12-3.24.03-6.49-.04-9.73.02-1.44.03-1.91-.91-2.31-1.95-.41-1.07-.64-2.2-1.04-3.27-.87-2.3-1.7-4.62-2.49-6.95-1.02-3.02-2.13-6-2.99-9.07-.03-.18-.03-.36-.09-.53-.1-.28-.19-.62-.59-.55-.43.08-.28.45-.27.72,0,.12.06.23.09.35-.44,1.46-.92,2.92-.81,4.49-.14.2-.35.39-.39.61-.27,1.54-.5,3.08-.74,4.63-.04.37-.07.74-.11,1.11-.56,1.32-.63,2.76-.92,4.14-.36,1.7-.63,3.43-.94,5.14-.79.92-1.78,1.27-2.98,1.15-.49-.05-.99.04-1.49.07-1.5-.12-3-.12-4.49,0-.74-.18-1.54,0-2.25-.38-.13-.13-.26-.25-.4-.38-.05-1.92.7-3.71.93-5.59.32-2.6.96-5.15,1.42-7.72.49-2.68,1.05-5.36,1.56-8.05.71-3.79,1.58-7.54,2.19-11.35.53-3.3,1.26-6.58,1.96-9.85.38-1.78.98-2.21,2.85-2.24,3.11-.05,6.22-.07,9.34-.1.37.03.75.06,1.12.08.15.24.3.47.44.71-.06.25.07.36.3.39.03.24.07.49.1.73-.09.25.06.34.27.4h-.01c.07.26-.06.62.34.74.05.24.09.48.14.73-.08.25.06.36.28.4,0,0-.02-.01-.02-.01-.02.66.2,1.22.74,1.63-.1.76.33,1.4.5,2.09-.08.26.06.36.28.4.04.24.07.48.11.73-.09.26.07.34.27.4-.09.46.22.76.46,1.09-.05.3-.19.62.25.77.04.25.09.49.13.74-.08.26.06.35.28.39h-.01c.44.54.18,1.36.73,1.87.04.25.09.49.13.74-.09.26.07.34.27.4.04.27-.07.61.31.74.19.35-.14.88.39,1.11.14.5-.02,1.12.53,1.48.09,1.17.54,2.21,1.25,3.6.19-1.48.33-2.54.47-3.6Z"/><path class="cls-1" d="m519.6,175.69c.36.57,1,.57,1.55.76,0,.21.03.37.3.24l.42.14c.17.54.56.75,1.1.75.11.45.57.16.79.37.17.53.56.72,1.08.74.37.54.95.64,1.53.76.18.52.56.74,1.09.74.37.53.96.62,1.53.75,0,.22.06.37.33.27,3.39,1.72,6.73,3.55,10.2,5.14,5.35,2.45,10.92,4.1,16.72,5.01,4.38.69,8.76.63,13.16.2,3.45-.34,6.78-1.11,9.98-2.39,1.17-.47,2.58-.28,3.54-1.3.24-.07.49-.13.73-.2,1.06.07.68.86.72,1.44-.49.25-.76.67-.89,1.18-1.58,1.59-3.16,3.17-4.74,4.76-.8.36-1.43.94-2.12,1.45-.39.17-.74.38-.86.82-1.54.51-2.92,1.36-4.36,2.09-.7.23-1.55.15-1.99.94-.52.06-1.08,0-1.48.45-2.16.91-4.46,1.32-6.74,1.8-.26-.09-.5-.05-.74.07-1.03.35-2.11.17-3.16.27-2.02.19-4.06.33-6.09.14-.71-.07-1.3.32-1.97.24-.37-.61-.99-.42-1.53-.49-.48-.19-.94-.2-1.35.18,0,0-.02-.03-.02-.03-1.39-.44-2.7-1.2-4.23-1.14-.26-.55-.67-.54-1.15-.31-.54-.23-.99-.72-1.66-.6-1.46-.69-2.94-1.33-4.36-2.1-2.93-1.59-6.07-2.77-8.82-4.75-1.12-.8-2.37-1.67-3.82-1.99,0,0,.02.02.02.02-.5-.68-1.14-1.17-1.96-1.43-.35-.17-.64-.49-1.07-.5-.76-.77-1.62-1.39-2.67-1.7-.31-.21-.57-.54-1.01-.46-.28-.45-.57-.88-1.21-.77-.12-.37-.47-.31-.74-.39-1.59-1.19-3.25-2.23-5.24-2.63-.18-.39-.59-.29-.89-.42-.48-.49-1.1-.63-1.75-.66-2.76-1.27-5.62-1.76-8.63-1.06-.2.05-.32.15-.4.32-.77-.03-1.41.36-2.1.59-2.87.97-5.32,2.67-7.68,4.49-.53.41-1.21.62-1.61,1.18-.49.68-1.27.78-1.81.44-.55-.34-.3-1.11-.12-1.71.82-2.7,2.2-5.15,3.73-7.47,1.57-2.38,3.54-4.48,5.87-6.18.25.07.33-.08.35-.29,3.19-2.08,6.66-3.29,10.5-3.35.25.46.5.46.76,0,.92.11,1.95-.23,2.7.63,0,0,.11.08.11.08.97-.08,1.86.51,2.84.32.05.49.38.45.72.39.37.16.65.55,1.13.42.13.38.42.39.74.33.11.05.23.07.35.07.07.18.12.37.38.23.54.25,1.07.51,1.61.76.5.47,1.07.81,1.77.89h0c.06.17.11.36.37.21.14.05.29.09.43.14,0,.21.05.37.32.25.14.04.27.08.41.13.19.52.57.74,1.11.73Z"/><path class="cls-1" d="m148.8,72.87c2.18.03,4.36.04,6.54.09,1.8.04,2.04.39,1.65,2.15-.55,2.5-1.25,4.98-1.72,7.48-.52,2.8-.98,5.62-1.54,8.42-.63,3.15-1.14,6.32-1.83,9.46-.31,1.41-.31,2.95-.16,4.45.16,1.55,1,2.54,2.4,3.03,2.6.92,5.13.65,7.52-.72,1.05-.6,1.71-1.54,2.2-2.68.94-2.21,1.36-4.56,1.78-6.88.56-3.12,1.18-6.23,1.8-9.33.35-1.75.59-3.52.88-5.28.24-1.5.7-2.95.87-4.47.14-1.32.56-2.61.91-3.9.31-1.16,1.07-1.75,2.32-1.73,2.68.03,5.36-.02,8.04.03,1.55.03,1.68.25,1.39,1.81-.5,2.64-1.02,5.28-1.53,7.93-.06.3-.05.62-.08.93-.22.08-.35.21-.25.46-.62,3.15-1.34,6.29-1.84,9.47-.38,2.39-1.01,4.74-1.28,7.16-.25,2.27-1.11,4.4-1.84,6.56-.22.03-.37.12-.29.38-.03,1.06-1.07,1.62-1.27,2.6-.43.25-.66.65-.87,1.08-2.64,3.05-5.74,5.46-9.66,6.66-3.23.99-6.55,1.42-9.91,1.09-1.76-.17-3.53-.26-5.27-.85-2.82-.96-5.01-2.56-6.62-5.04-1.82-2.81-1.76-5.92-1.51-9.05.35-4.39,1.49-8.65,2.25-12.98.66-3.78,1.32-7.57,2.12-11.33.34-1.6.61-3.22.97-4.82.28-1.26.94-1.74,2.01-2.02.24-.06.49-.08.73-.12.38.11.75.1,1.12-.01Z"/><path class="cls-1" d="m583.56,176.56c-1.47.73-2.94,1.47-4.42,2.2-.25-.06-.35.09-.41.29,0,0,.02-.02.02-.02-.49.16-.98.32-1.47.48-1.78.77-3.64,1.3-5.44,2.04-1.04.42-2.28.36-3.42.54-.67.1-1.33.24-2,.37-.38-.09-.75-.08-1.12.04-2.25.02-4.49.05-6.74.07-.52-.05-1.08-.39-1.52.19-.91-.58-1.93-.64-2.97-.62-1.75-.38-3.56-.52-5.19-1.36-.35-.29-.78-.15-1.17-.22-1.04-.76-2.3-1.03-3.44-1.56-3.16-1.48-6.19-3.21-9.3-4.77-.89-.72-1.89-1.23-2.91-1.72-.84-.65-1.75-1.15-2.77-1.45-.01-.07-.05-.12-.11-.17-.57-.6-1.27-1.01-2.02-1.34-.24-.15-.48-.31-.72-.46-2.18-1.48-4.36-2.94-6.77-4.03-.64-.47-1.31-.88-2.12-1-.36-.41-.86-.25-1.3-.33-.08-.31-.28-.43-.59-.41-1.04-.37-2.04-.86-3.16-.99-.66-.57-1.45-.46-2.23-.45-.27-.49-.71-.39-1.14-.35-2.09-.53-4.07-.11-6.01.69-.6-.01-1.09.28-1.56.6-1.47.58-2.87,1.27-4.1,2.29-.85.41-1.64.91-2.29,1.6-.73.28-1.32.76-1.85,1.32-.66.45-1.37.72-2.19.59-.07-1.38.26-2.65.93-3.87.62-1.14,1.08-2.37,1.73-3.5,2.46-4.29,5.63-7.87,10.27-9.89,3.6-1.57,7.25-2.21,11.2-1.25,1.86.46,3.65,1.06,5.45,1.67.03.22.13.36.38.3,2.72.95,5.16,2.47,7.65,3.87,5,2.81,9.88,5.82,15.05,8.32,3.43,1.67,6.89,3.31,10.54,4.43,4.54,1.39,9.16,2.5,13.96,2.5.37.1.75.12,1.12.02,1,.19,2,.48,3,.02.75.08,1.5.08,2.24-.04,4.38-.02,8.57-1.1,12.7-2.42.93-.3,1.86-.61,2.78-.95,1.68-.62,1.69-.62,1.74,1.15-.29.14-.44.4-.55.69-1.45,1.48-2.9,2.97-4.35,4.45-.73.39-1.38.89-1.93,1.5,0,0,.02-.02.02-.02-.59.18-1.05.56-1.5.95Z"/><path class="cls-1" d="m307.61,118.53c-.31-.03-.62-.07-.93-.08-2.15-.09-2.23-.2-2.45-2.29-.18-1.65-.49-3.28-.7-4.92-.11-.88-.67-.88-1.34-.87-2.24.05-4.49.08-6.73.09-1.31,0-2.62-.02-3.92-.09-.78-.04-1.22.2-1.58.96-.85,1.79-1.84,3.52-2.77,5.28-.67,1.26-1.6,1.94-3.14,1.88-2.68-.11-5.36-.05-8.04-.08-1.36-.02-1.76-.67-1.07-1.82,1.76-2.93,3.2-6.02,4.81-9.03,2.25-4.21,4.53-8.41,6.66-12.67,2.48-4.96,5.28-9.74,7.71-14.72.69-1.42,1.25-2.9,1.88-4.35.09-.08.16-.18.21-.29.77-.11.81-.87,1.14-1.35.55-.78,1.21-1.2,2.18-1.2,3.24,0,6.49,0,9.73-.04.94-.01,1.34.34,1.42,1.28.24,3.09,1.01,6.11,1.32,9.18.33,3.17,1.05,6.27,1.43,9.42.4,3.31,1.27,6.55,1.37,9.92.04,1.43.66,2.86.81,4.34.18,1.78.61,3.52.66,5.33.03.96.49,1.89.65,2.86.38,2.36-.22,3.07-2.57,3.19-.25.01-.49.05-.74.08-2-.13-4-.11-5.99,0Zm-12.16-18.52h6.31c.26-3.25-.92-6.18-1.2-9.28-1.82,3-3.19,6.15-5.12,9.28Z"/><path class="cls-1" d="m267.16,202.65c-.84-.34-1.73-.4-2.62-.39-.48-.27-.99.1-1.47-.07-.81-.46-1.68-.74-2.62-.75-2.99-1.27-5.96-2.57-8.61-4.5-.15-.33-.39-.55-.73-.69-.53-1.24-1.63-1.91-2.65-2.68-1.02-2.08-.73-2.77,1.62-3.13,4.59-.71,9.1-1.8,13.61-2.81,7.16-1.61,14.27-3.45,21.38-5.29,4.4-1.14,8.77-2.44,13.14-3.72,3.45-1.01,6.88-2.08,10.3-3.18,4.24-1.37,8.46-2.79,12.68-4.22.54-.18,1.05-.36,1.62-.33.71.04.69.59.73,1.08-.11.23-.22.47-.33.7-2.19,3.11-4.16,6.37-6.61,9.31-1.47,1.77-3.19,3.29-4.75,4.96-.55.59-1.11,1.15-1.67,1.73-.58.3-1.04.74-1.46,1.23-.84.78-2.05,1.12-2.64,2.2-.36.05-.74.04-.91.46-.08.02-.14.06-.18.12-.85.45-1.76.84-2.31,1.7-.27.02-.57-.06-.74.25-2.28.84-4.21,2.32-6.37,3.39-1.15.04-2.03.7-2.94,1.28-.89.32-1.79.63-2.68.95-.79-.07-1.38.69-2.19.56-.84.3-1.67.59-2.51.89-4.74.9-9.52,1.37-14.35,1.36-.49-.12-.99-.18-1.5-.09-.32-.23-.68-.26-1.06-.19-.38-.16-.78-.19-1.19-.12Z"/><path class="cls-1" d="m134.19,83.76c-1.96-.57-3.93-.95-6-.79-.82.06-1.58.25-2.32.58-1.58.7-2.05,2.17-1.2,3.68.66,1.17,1.69,1.98,2.73,2.76.99.75,2.03,1.43,3.06,2.12,2.56,1.72,4.34,4.02,5.28,6.97-.26.7.2,1.25.36,1.87,0,1.48-.17,2.94-.41,4.39-.46,2.78-1.78,5.08-3.71,7.1-1.19,1.25-2.53,2.32-3.83,3.44-1.02.21-1.75.94-2.63,1.41-3.32,1.28-6.76,2-10.33,1.88-2.3-.08-4.59-.34-6.85-.75-.86-.16-1.27-.52-1.19-1.49.15-1.83.49-3.63.94-5.38.26-1.01.15-2.06.56-3.06.48-1.17.78-1.51,2.26-1.55.04.22.15.36.4.3.25.02.49.05.74.07.04.21.12.37.38.26,1.74.4,3.5.59,5.28.54.86-.02,1.69-.12,2.53-.37,2.32-.7,2.96-1.8,2.31-4.17-.25-.99-.87-1.62-1.85-1.9-.56-1.04-1.63-1.49-2.54-2.09-1.93-1.27-3.79-2.59-5.13-4.54-.98-1.44-1.71-2.93-1.7-4.71.01-1.68-.05-3.35.03-5.03.04-.9.52-1.78.89-2.53,2.78-5.7,7.33-9.14,13.65-10.21,3.73-.63,7.43-.41,11.13.13,1.61.24,1.64.35,1.58,2.07-.41.16-.33.46-.22.77-.36,2.23-1.06,4.39-1.32,6.66-.13,1.1-1,1.66-2.15,1.65-.25-.02-.5-.04-.75-.06Z"/><path class="cls-1" d="m330.07,74.8c.65,2.71,1.29,5.42,1.94,8.13.45,1.85,1.08,3.67,1.17,5.58.9.13.97-.58,1.23-1.01,2.52-4.33,5.38-8.44,8.04-12.68.84-1.35,1.94-1.95,3.56-1.89,2.55.1,5.12.01,7.67.05.64,0,1.5-.28,1.83.53.3.74-.07,1.44-.52,2.08-.75,1.06-1.45,2.15-2.17,3.23-4.82,7.18-9.62,14.38-14.47,21.54-1.24,1.83-1.79,3.89-2.2,6-.67,3.46-1.27,6.93-1.95,10.39-.21,1.08-1.07,1.69-2.37,1.7-2.81.03-5.62-.03-8.42.01-.82.01-1.06-.32-1.17-1.06-.16-1.09.24-2.11.47-3.07.85-3.44,1.18-6.97,2.11-10.39.27-.98.16-1.97-.18-2.94-1.29-3.78-2.29-7.65-3.35-11.48-1.18-4.28-2.56-8.5-3.54-12.83-.09-.42-.22-.85-.38-1.25-.49-1.2-.26-1.8.93-2.19.41-.14.85-.24,1.28-.24,2.93-.03,5.87,0,8.8-.05,1.08-.02,1.46.47,1.4,1.47-.06.25.07.36.29.4Z"/><path class="cls-1" d="m317.85,64.65c-1.74.74-2.91.55-3.87-.56-.93-1.08-.91-2.88.03-4.36,1.78-2.81,3.88-5.36,6.28-7.72,5.84-5.73,12.85-8.47,20.87-9.08,7.16-.55,13.76,1.27,19.64,5.15,9.66,6.36,14.75,15.47,14.96,27.09.16,8.6-2.87,16.06-8.61,22.45-.33.37-.69.72-1.05,1.07-.61.58-1.29.78-2.02.25-.81-.59-.56-1.31-.12-1.97,1.29-1.92,2.53-3.85,3.35-6.02,3.76-10.03,2.33-19.29-4.11-27.81-.11-.14-.28-.24-.42-.37-.28-.6-.68-1.1-1.25-1.46-.25-.5-.62-.87-1.13-1.12-.34-.58-.84-.98-1.44-1.26-2.21-1.83-4.54-3.32-7.35-4.21-2.08-.66-4.17-1.42-6.29-1.84-2.68-.53-5.46-.4-8.18-.01-2.13.31-4.17.98-6.18,1.79-1.18.48-2.46.72-3.51,1.51-.57-.12-.87.23-1.12.65-.64.42-1.14,1.04-1.9,1.28-.21-.09-.26,0-.23.2-2.11,1.42-3.6,3.43-5.15,5.39-.27.34-.57.64-1,.79-.2-.1-.25-.01-.21.17Z"/><path class="cls-1" d="m301,15.74c.16-5.1,5.18-7.42,8.75-5.64,1.56.78,2.42,2.07,3,3.64,2.14,5.77,4.29,11.54,6.43,17.31.67,1.81,1.33,3.62,2.03,5.41.4,1.03.31,1.92-.43,2.77-1.22,1.39-2.41,1.46-3.58.01-1.73-2.15-3.34-4.41-5.04-6.6-1.43-1.84-2.9-3.67-4.22-5.57-1.04-1.51-2.34-2.82-3.25-4.44-.74-1.33-1.98-2.33-2.73-3.7-.59-1.07-.9-2.17-.97-3.18Z"/><path class="cls-1" d="m414.76,78.76c1.25,0,2.49-.02,3.74,0,2.3.04,3.95,1.18,4.83,3.23.9,2.09.68,4.11-.87,5.93-1.88,2.21-4.08,2.97-6.99,2.31-5.59-1.25-11.17-2.57-16.82-3.58-2.38-.42-4.69-1.19-7.12-1.45-1.43-.15-2.01-2.3-1.04-3.6.7-.94,1.71-1.14,2.8-1.21,2.99-.2,5.97-.45,8.95-.66,4.17-.29,8.34-.57,12.51-.85,0-.04,0-.09,0-.13Z"/><path class="cls-1" d="m341.83,23.54c-.17,2.23-.37,4.46-.48,6.7-.06,1.18-.36,2.21-1.31,2.96-1.21.96-2.57.63-3.21-.78-.13-.28-.22-.58-.29-.89-.58-2.54-1.14-5.08-1.76-7.6-.51-2.07-.8-4.26-1.24-6.38-.68-3.29-1.34-6.57-2.21-9.82-.76-2.83.71-6.04,3.33-7.15.99-.42,2.16-.4,3.25-.59.06.2.18.32.41.29,2.68-.05,4.77,2.77,4.65,5.01-.09,1.72-.08,3.44-.12,5.16-.37.84-.36,1.72-.26,2.61-.13,2.37-.55,4.73-.47,7.12-.31,1.1-.39,2.22-.28,3.35Z"/><path class="cls-1" d="m358.56,33.8c-.14-1.48.82-2.83,1-4.37.14-1.23.28-2.54.65-3.64.51-1.51.3-3.18,1.13-4.58.12-.2.15-.48.18-.72.34-3.25,1.46-6.32,2.05-9.51.14-.73.13-1.5.35-2.2.94-2.98,4.6-4.86,7.64-3.97,3.57,1.05,5.1,4.72,3.31,8.05-2.24,4.17-4.53,8.31-6.8,12.47-1.64,3-3.29,6.01-4.95,9-.3.54-.66,1.06-1.05,1.54-.61.76-1.43,1.01-2.35.71-.98-.33-1.24-1.14-1.19-2.09.01-.19.02-.37.03-.68Z"/><path class="cls-1" d="m414.12,48.85c1.68.15,3.34.7,4.37,2.43,1.21,2.04,1.39,4.09.05,6.15-1.03,1.57-2.4,2.7-4.27,3.11-3.41.76-6.82,1.5-10.23,2.24-4.43.97-8.85,1.93-13.28,2.89-.36.08-.73.17-1.1.22-.93.12-1.76-.03-2.23-.96-.43-.85-.16-2.37.65-2.88,1.08-.67,2.04-1.6,3.36-1.81,1.02-.16,1.79-.87,2.57-1.39,2.46-1.63,5.15-2.77,7.7-4.21,1.7-.96,3.37-2,5.12-2.87,1.81-.9,3.61-1.83,5.43-2.72.52-.25,1.1-.18,1.85-.2Z"/><path class="cls-1" d="m402.75,28.14c-.05,1.1-.76,2.37-1.8,3.5-1.54,1.66-3.45,2.86-5.23,4.21-5.11,3.88-10.26,7.7-15.39,11.55-.15.11-.3.22-.46.33-1.18.78-2.15.8-2.89.07-.73-.72-.78-2.02-.04-3.09.91-1.32,1.86-2.62,2.83-3.9,4.05-5.38,8.12-10.76,12.18-16.14,1.77-2.35,4.38-3.17,7.1-2.24,2.28.77,3.73,2.84,3.7,5.72Z"/><path class="cls-1" d="m571.91,133.22c.11-4.43,3.5-8.82,7.85-10.03,3.38-.94,6.59-.62,9.59,1.41,3.15,2.13,4.87,7.28,3.87,10.72-1.29,4.46-4.19,7.16-8.5,8.26-4.19,1.06-7.74-.46-10.54-3.66-1.66-1.89-2.32-4.19-2.26-6.7Zm6.73,6.18c2.69,1.86,5.47,2.04,8.35.46.72-.4,1.37-.89,1.75-1.63,1.3-2.57,1.85-5.14.56-7.95-1.16-2.52-2.94-4.19-5.66-4.59-2.83-.42-5.27.43-7.04,2.83-1.52,2.06-1.48,4.34-.89,6.65.36,1.42,1.08,2.67,2.64,3.76,0-.92,0-1.52,0-2.12,0-2.3-.02-4.6.01-6.9.02-1.26.43-1.91,1.42-2.1,1.97-.38,3.98-.49,5.91.15,1.91.63,2.47,2.56,1.29,4.21-.14.2-.33.37-.5.55-.29.3-.38.6-.08.97.77.96.98,2.09,1.09,3.3.11,1.29-.02,1.74-.9,1.94-1.33.31-1.85.04-2.29-1.17-.17-.47-.28-.95-.44-1.42-.16-.49-.45-.88-.91-1.14-.88-.5-1.38-.25-1.46.77-.03.43,0,.87-.04,1.31-.09,1.16-.43,1.55-1.54,1.74-.43.08-.87.09-1.3.13-.04.02-.11.07-.11.07.04.07.08.14.12.2Zm3.1-8.18c-.07.64.16,1.12,1,1.03.57-.07,1.33.06,1.34-.86,0-.63-.77-1.19-1.59-1.24-.74-.04-.73.46-.75,1.07Z"/><path class="cls-1" d="m356.18,222.69c.13-2.43.06-4.93.49-7.33.15-.81,1.53-1.92,2.38-1.95.91-.03,2.67,1.02,2.68,1.64.19,7.15.12,14.3.12,21.55h-4.54c-.58-3.08-.72-6.1-1.87-8.66-.39-.86-3.34-.58-5.75-.9,0,2.75.18,5.12-.09,7.43-.1.89-1.46,2.44-1.86,2.33-1.17-.33-3.04-1.31-3.07-2.1-.25-6.38-.21-12.79-.02-19.18.02-.73,1.54-1.93,2.4-1.96.81-.03,1.76,1.12,2.45,1.91.29.34.09,1.1.11,1.67q.14,5.55,6.58,5.55Z"/><path class="cls-1" d="m432.54,236.53c0-7.22-.06-14.15.09-21.08.02-.7,1.32-1.93,2.06-1.97,4.31-.19,8.63-.09,12.82-.09,1.38,4.44,1.15,4.77-2.91,4.77-1.6,0-3.24-.21-4.78.1-.85.17-1.52,1.21-2.27,1.86.75.83,1.35,2,2.28,2.39.96.4,2.24.03,3.38.04,3.43.02,3.9.67,3.19,4.85-2.05,0-4.24-.27-6.3.12-.92.17-1.58,1.68-2.36,2.58.86.67,1.63,1.69,2.6,1.94,1.28.32,2.72.05,4.09.02,4.3-.09,4.59.3,3.25,4.47h-15.15Z"/><path class="cls-1" d="m374.21,225.05c.57-2.75.52-5.87,1.87-8.17,2.14-3.66,6.2-4.07,10.04-3.25,3.37.72,5.07,3.51,5.54,6.67.41,2.77.36,5.68.05,8.48-.56,5.11-4.09,8.22-8.73,8.11-4.76-.11-8.04-3.65-8.33-9.04-.05-.91,0-1.82,0-2.73l-.43-.07Zm5.54-.74c.16,1.64-.01,3.13.51,4.32.57,1.3,1.79,2.32,2.72,3.46,1.19-1.06,3.25-2.01,3.39-3.19.35-2.96,0-6.06-.48-9.04-.12-.73-1.9-1.69-2.87-1.65-.93.04-2.19,1.09-2.6,2.01-.58,1.29-.51,2.88-.67,4.08Z"/><path class="cls-1" d="m461.13,236.73c0-7.55-.05-14.69.1-21.82.01-.56,1.45-1.44,2.3-1.55,1.48-.18,2.97.05,2.92,2.27-.1,3.98.15,7.98-.09,11.95-.2,3.28.51,5.06,4.26,4.34,1.2-.23,2.58-.18,3.72.2.83.28,2.02,1.39,1.94,1.99-.12.93-1.14,2.46-1.85,2.49-4.51.23-9.04.12-13.3.12Z"/><path class="cls-1" d="m420.16,213.53c.41,2.79.41,4.74-2.94,4.66-2.09-.05-2.89,1.29-2.76,3.42.21,3.53.2,7.07.3,10.6q.13,4.76-5.47,4.33c0-4.75-.19-9.6.07-14.43.15-2.88-.35-4.41-3.61-3.95-1.64.24-2.89-.18-2.95-2.3-.07-2.14,1.06-2.39,2.79-2.37,4.77.07,9.54.02,14.57.02Z"/></g></svg>