<?xml version="1.0" encoding="UTF-8"?><svg id="Layer_2" xmlns="http://www.w3.org/2000/svg" viewBox="0 0 73.8 51.09"><defs><style>.cls-1{fill:#fff;}</style></defs><g id="Layer_1-2"><path class="cls-1" d="m36.95,0C45.64,0,54.33,0,63.02,0c6.26,0,10.77,4.52,10.78,10.79,0,1.03-.02,2.07,0,3.1.05,1.63-.44,3.07-1.35,4.41-3.27,4.77-3.28,9.7-.02,14.45.93,1.36,1.44,2.83,1.37,4.49-.08,1.89.09,3.82-.29,5.65-1.01,4.93-5.22,8.2-10.28,8.2-17.56,0-35.11,0-52.67,0-.62,0-1.24-.06-1.85-.15C3.8,50.16.08,45.85,0,40.87c-.02-1.3,0-2.6,0-3.9-.02-1.47.42-2.78,1.23-4,3.43-5.11,3.44-9.74.02-14.82C.42,16.91-.04,15.57,0,14.07c.07-1.95-.1-3.94.27-5.83C1.23,3.34,5.5.01,10.52,0c8.81-.01,17.62,0,26.42,0Zm14.14,45.39c4.33,0,8.55.08,12.77-.03,2.36-.06,4.18-2.17,4.25-4.55.03-1.03-.03-2.07.02-3.1.04-.81-.2-1.45-.64-2.13-3.89-5.99-4.35-12.26-.87-18.51,1.16-2.09,1.6-4.06,1.53-6.33-.1-3.06-2.01-5.05-5.07-5.05-3.72,0-7.45,0-11.17,0-.25,0-.51.03-.81.05,0,.92,0,1.77,0,2.62-.02,1.73-1.23,2.99-2.83,3-1.61,0-2.82-1.27-2.84-2.99-.01-.87,0-1.75,0-2.68-1.14,0-2.17,0-3.2,0-10.52,0-21.04,0-31.57,0-2.95,0-4.95,2.01-4.96,4.95,0,.92.04,1.83-.01,2.75-.04.81.2,1.45.64,2.13,3.89,5.99,4.33,12.26.87,18.51-1.12,2.02-1.61,3.92-1.53,6.15.11,3.3,1.95,5.23,5.25,5.23,11.17,0,22.34,0,33.52,0h.99c0-1-.01-1.88,0-2.76.03-1.67,1.24-2.91,2.82-2.91,1.58,0,2.81,1.24,2.84,2.9.02.88,0,1.77,0,2.76Z"/><path class="cls-1" d="m45.41,25.5c0-1.77,0-3.55,0-5.32,0-1.88,1.17-3.16,2.85-3.15,1.64.01,2.81,1.29,2.82,3.1,0,3.61,0,7.21,0,10.82,0,1.81-1.17,3.09-2.81,3.11-1.67.01-2.85-1.28-2.86-3.15,0-1.8,0-3.61,0-5.41Z"/></g></svg>