<svg width="10" height="8" viewBox="0 0 10 8" fill="none" xmlns="http://www.w3.org/2000/svg">
<path d="M3.37337 7.84256C3.45432 7.92351 3.56414 7.96898 3.67861 7.96898C3.79312 7.96898 3.9029 7.92349 3.98382 7.84256L9.86863 1.95776C9.9496 1.87681 9.99507 1.76703 9.99507 1.65255C9.99507 1.53805 9.9496 1.42826 9.86863 1.34731L8.64771 0.126421C8.47916 -0.0421259 8.20583 -0.0421547 8.03726 0.126421L3.67873 4.48501L2.45778 3.26406C2.37683 3.18311 2.26701 3.13762 2.15254 3.13762C2.03806 3.13762 1.92828 3.18311 1.84733 3.26406L0.62641 4.48498C0.457863 4.65356 0.457863 4.92685 0.62641 5.09543L3.37337 7.84256Z" fill="black"/>
</svg>
