<?xml version="1.0" encoding="UTF-8"?><svg id="Layer_2" xmlns="http://www.w3.org/2000/svg" viewBox="0 0 336.41 382.77"><defs><style>.cls-1{fill:#fff;}</style></defs><g id="Layer_1-2"><path class="cls-1" d="m239.35,0c1.2,48.05,33.23,85.8,80.51,94.69,4.51.85,9.17.98,13.77,1.28,1.76.11,2.79.43,2.78,2.5-.06,19.46-.07,38.93-.11,58.39,0,.34-.24.68-.49,1.36-35.5-.17-67.36-11.22-96.39-32.75,0,2.03,0,3.35,0,4.67.13,43.55.15,87.09.42,130.64.15,23.92-4.99,46.42-18.29,66.41-25.81,38.77-62.31,57.66-108.87,55.39-51.41-2.5-94.74-37.72-108.45-86.94-17.15-61.59,19.53-126.82,81.16-144.51,15.67-4.5,31.55-6,47.74-4.32,1.48.15,2.94.47,4.61.74v62.97c-1.16-.23-2.19-.38-3.2-.64-37.18-9.43-72.31,18.72-71.1,57,.89,28.33,23.67,51.69,52.75,54.12,27.71,2.32,54.29-17.83,59.4-45.25.88-4.75,1.14-9.67,1.15-14.51.11-85.22.13-170.44.19-255.66,0-1.86.18-3.73.27-5.59,20.72,0,41.43,0,62.15,0Z"/></g></svg>