<?xml version="1.0" encoding="UTF-8"?><svg id="Layer_1" xmlns="http://www.w3.org/2000/svg" viewBox="0 0 100 100"><defs><style>.cls-1{fill:#ed2582;}</style></defs><path class="cls-1" d="m58.29,49.87c3.19,2.05,6.41,3.92,9.41,6.1,4.52,3.3,8.06,7.44,9.55,12.98.48,1.78.73,3.66.78,5.51.11,4.27.04,8.55.04,12.83,0,.39,0,.79,0,1.31.91,0,1.74,0,2.57,0,2.82,0,4.46,1.3,4.44,3.54-.02,2.19-1.64,3.48-4.39,3.48-17.61,0-35.22,0-52.83,0-3.03,0-6.07,0-9.1,0-2.23,0-3.82-1.46-3.83-3.49-.01-2.04,1.56-3.51,3.79-3.52,1.02,0,2.04,0,3.22,0v-1.2c0-3.91.09-7.82-.02-11.73-.2-7.36,2.77-13.22,8.17-18.02,3.08-2.74,6.54-4.89,10.16-6.82.44-.24.88-.48,1.51-.83-.73-.4-1.32-.72-1.91-1.04-4.51-2.46-8.79-5.22-12.25-9.1-3.81-4.27-5.75-9.24-5.68-14.99.05-4.06,0-8.11,0-12.17v-1.3c-1.18,0-2.26.01-3.35,0-2.12-.03-3.68-1.55-3.67-3.54.02-1.96,1.55-3.46,3.62-3.47,20.97,0,41.94,0,62.92,0,2.05,0,3.6,1.54,3.61,3.48,0,1.95-1.53,3.48-3.57,3.52-1.09.02-2.19,0-3.44,0v1.21c0,4.06-.05,8.11.01,12.17.08,6.02-2.08,11.11-6.14,15.47-3.61,3.88-8.03,6.64-12.67,9.09-.35.18-.69.38-.98.53Zm12.76,38.67c0-3.91,0-7.74,0-11.57,0-1.35.04-2.71-.12-4.05-.51-4.36-2.97-7.61-6.2-10.36-3.91-3.32-8.45-5.56-12.99-7.85-1.29-.65-2.37-.86-3.62-.02-.75.5-1.63.8-2.45,1.21-3.89,1.95-7.69,4.06-10.96,6.98-3.82,3.41-5.97,7.55-5.77,12.81.12,3.32.02,6.65.02,9.97v2.87h42.09ZM28.95,11.45c0,4.29.12,8.49-.03,12.68-.19,5.43,2,9.69,5.99,13.16,4.32,3.76,9.42,6.21,14.56,8.6.29.14.79.04,1.11-.11,1.78-.84,3.56-1.69,5.3-2.61,3.72-1.96,7.32-4.12,10.34-7.11,3.14-3.12,4.94-6.8,4.85-11.33-.08-3.69-.02-7.38-.02-11.07v-2.2H28.95Z"/></svg>