<?xml version="1.0" encoding="UTF-8"?><svg id="Layer_2" xmlns="http://www.w3.org/2000/svg" viewBox="0 0 211.4 211.4"><defs><style>.cls-1{fill:#fff;}.cls-2{fill:#ed2f86;}</style></defs><g id="Layer_1-2"><rect class="cls-1" width="211.4" height="211.4" rx="45.19" ry="45.19"/><path class="cls-2" d="m95.35,113.82c-1.11-.23-2.16-.48-3.21-.67-10.59-1.94-21.12,4.87-23.36,15.44-2.96,13.94,7.77,24.23,18.12,24.83,9.26.53,17.37-4.51,20.73-13.13.64-1.64.77-3.56.79-5.35.16-10.76.26-21.53.3-32.29.05-12.31,0-24.62.02-36.93,0-7.61.04-15.22.07-22.83.01-2.91.04-5.82.06-8.73,0-.57.02-1.03.81-1.03,7.36,0,14.73-.03,22.09-.05.1,0,.2.04.39.08.19,1.53.34,3.09.59,4.64,1.21,7.4,4.03,14.07,9.28,19.55,4.69,4.9,10.49,7.91,16.98,9.63,2.67.71,5.42,1.14,8.14,1.63.67.12.87.35.86,1-.02,7.44-.02,14.87,0,22.31,0,.79-.31.92-1.01.89-11.04-.54-21.33-3.48-30.73-9.39-.91-.57-1.82-1.15-2.92-1.84-.03.61-.07,1-.07,1.4-.02,14.2.01,28.41-.08,42.61-.03,5.04.17,10.1-.97,15.08-3.22,14.11-11.09,24.62-24,31.26-7.4,3.8-15.33,5.24-23.55,4.58-10.69-.86-19.98-5.07-27.66-12.6-7.49-7.35-12.03-16.25-13.26-26.69-2.34-19.77,7.91-36.85,23.31-45.07,8.63-4.61,17.75-6.33,27.45-4.98.9.13,1.25.44,1.23,1.39-.12,8.17-.19,16.34-.27,24.5,0,.24-.07.47-.11.79Z"/></g></svg>