<?xml version="1.0" encoding="UTF-8"?><svg id="Layer_2" xmlns="http://www.w3.org/2000/svg" viewBox="0 0 1620.46 1621.76"><defs><style>.cls-1{fill:#fff;}</style></defs><g id="Layer_1-2"><path class="cls-1" d="m1620.46,225.75v1169.29c-1.39,4.95-3.71,9.84-4.01,14.85-1.13,19.06-5.56,37.32-12.64,54.91-19.27,47.88-47.94,88.26-92.33,116.41-44.03,27.92-91.98,40.57-143.93,40.55-372.64-.16-745.28-.1-1117.92-.07-29.44,0-58.09-4.36-86.15-13.47-64.33-20.9-108.98-63.74-138.82-123.33C6.32,1448.28.06,1409.04.05,1368.59c-.06-360.89-.07-721.78,0-1082.67,0-19.57.29-39.16,1.34-58.7,1.35-25.03,6.62-49.38,16.13-72.62C42.28,94.15,84.39,50.16,143.91,23.19c23.69-10.73,48.25-18.4,74.81-17.57,14.14.44,28.3.08,42.46.08,0-.59,0-1.18,0-1.77-15.41-.93-30.83-1.83-46.24-2.82C212.97.98,211.03.38,209.07,0,611.94,0,1014.81,0,1417.68,0c-6.92.52-13.83,1.15-20.75,1.53-14.06.78-28.13,1.42-42.2,2.11,8.16,1.26,16.27.94,24.35,1.32,17,.8,34.3.24,50.89,3.35,34.95,6.53,66.55,21.39,94.61,43.55,46.13,36.43,77.17,82.39,89.27,140.4,2.32,11.14,4.42,22.32,6.62,33.48ZM288.72,1159.25c2.64-1.03,4.36-1.42,5.77-2.3,37.36-23.42,74.49-47.23,112.13-70.18,12.74-7.77,26.31-14.81,40.37-19.65,17.12-5.89,35.13-2.67,52.81-.4,39.41,5.05,78.87,9.77,118.29,14.75,4.54.57,6.17-.87,5.92-5.43-1.75-31.03-2.13-62.01,1.66-92.98,5.12-41.83,16.31-81.87,34.44-119.89,33.11-69.4,83.82-123.78,145.84-167.97,54.83-39.06,116.19-63.14,182.05-76.28,30.24-6.03,60.64-10.5,91.49-11.42,5.05-.15,6.27-2.6,5.71-6.86-1.33-10.02-2.34-20.09-4.16-30.02-12.66-69.21-42.36-130.44-87.01-184.59-46.64-56.55-103.97-99.24-169.94-130.59-50.31-23.91-103.3-39.22-158.5-45.91-31.67-3.84-63.61-6.57-95.63-3.2-23.67,2.49-47.49,4.04-70.94,7.9-39.14,6.45-76.68,18.87-113.32,34-68.63,28.33-130.06,67.44-178.19,124.52-74.6,88.46-109.5,190.72-101.68,306.8,2.59,38.47,12.39,75.2,26.93,110.77,25.5,62.38,66.22,113.7,116.07,158.08,16.44,14.64,34.53,27.44,51.91,41.02,15.04,11.74,20.24,26.4,15.59,45.29-9.6,38.99-18.48,78.15-27.56,117.26-.46,1.99-.06,4.19-.06,7.3Zm1088.63,263.24c.56-.5,1.13-1,1.69-1.51-1.4-12.18-4.11-23.93-9.86-35.09-17.92-34.76-13.33-62.14,14.03-90.08,20.76-21.21,43.19-40.69,61.64-64.29,41.98-53.7,65.56-114.32,70.25-182.08,2.6-37.46-1.08-74.61-11.63-110.8-25.76-88.38-77.25-157.99-153.4-209.52-75.68-51.22-160.28-73.6-250.61-76.34-36.27-1.1-72.34,3.28-107.74,11.11-83.87,18.56-156.19,58.14-216.13,120.12-71.41,73.84-107.11,161.02-100.67,264.45,2.19,35.12,10.47,68.77,23.8,101.14,19.81,48.12,49.41,89.48,86.58,125.91,50.43,49.44,108.51,85.58,176.41,105.55,29.84,8.78,60.28,14.83,91.37,15.61,26.25.66,52.8,1.31,78.78-1.74,24.34-2.86,48.37-9.66,72.06-16.39,31.58-8.97,62.46-10.06,92.77,3.75,16.76,7.64,33.08,16.25,49.57,24.48,10.4,5.19,20.75,10.46,31.12,15.7Z"/><path class="cls-1" d="m798.56,493.43c28.96-.83,59.11,25.53,56.42,62.19-1.88,25.73-25.73,54.34-62.43,52.45-28.53-1.47-54.89-28.71-54.37-57.74.55-30.76,29.08-57.65,60.38-56.91Z"/><path class="cls-1" d="m422.26,493.48c31.78-.36,58.7,25.24,59.21,56.91.51,31.17-28,57.6-60.3,57.55-31.07-.05-56.22-25.73-56.81-56.64-.6-31.78,28.62-58.99,57.9-57.82Z"/><path class="cls-1" d="m859.44,915.85c-1.64-25.2,23.6-48.06,48.38-47.66,25.75.42,47.21,22.68,47.02,49.19-.18,25.41-22.52,46.28-49.04,46.27-23.53-.01-48.07-21.47-46.37-47.8Z"/><path class="cls-1" d="m1163.77,916.09c-.19-25.23,21.3-47.45,46.21-47.78,25.28-.33,47.43,21.57,47.68,47.14.26,26.25-20.96,47.81-47.16,48.04-25.83.22-47.72-22.23-46.74-47.41Z"/></g></svg>