<?xml version="1.0" encoding="UTF-8"?><svg id="Layer_2" xmlns="http://www.w3.org/2000/svg" viewBox="0 0 179.27 143.22"><defs><style>.cls-1{fill:#ed2f86;}</style></defs><g id="Layer_1-2"><path class="cls-1" d="m130.59,36c-3.71,0-7.08-.22-10.42.04-17.11,1.33-32.04,7.57-43.93,20.21-7.3,7.76-11.82,16.95-13.17,27.59-.95,7.49.01,14.75,2.63,21.82.2.53.39,1.06.67,1.85-2.34-.14-4.5-.22-6.64-.4-6.41-.53-12.64-1.87-18.73-3.92-.42-.14-1.06.02-1.46.26-6.97,4.15-13.92,8.33-20.88,12.5-.15.09-.31.16-.7.37.67-2.05,1.26-3.89,1.87-5.72,1.6-4.81,3.18-9.63,4.84-14.43.28-.82-.19-1.02-.65-1.32-5.15-3.44-9.73-7.51-13.59-12.36C4.69,75.25,1.07,67.13.2,57.89c-.98-10.5,1.6-20.14,7.37-28.93,6.59-10.04,15.73-17.06,26.55-21.99C45.18,1.93,56.83-.21,68.93.02c11.07.21,21.71,2.47,31.76,7.17,10.71,5.01,19.7,12.1,26.16,22.14,1.33,2.06,2.41,4.28,3.74,6.67Zm-45.52-13.61c-4.92.03-8.97,4.09-8.92,8.96.05,4.98,4.11,8.97,9.07,8.92,4.89-.05,8.89-4.11,8.86-9.02-.03-4.9-4.09-8.89-9.01-8.86Zm-44.65,0c-5,0-9.11,4.03-9.07,8.92.03,4.88,4.03,8.94,8.82,8.96,5.09.02,9.1-3.94,9.09-8.98,0-4.88-3.99-8.9-8.83-8.91Z"/><path class="cls-1" d="m161.28,143.22c-3.87-2.32-7.46-4.47-11.04-6.61-2.3-1.38-4.59-2.77-6.92-4.09-.44-.25-1.1-.35-1.59-.22-7.85,1.98-15.81,2.54-23.83,1.52-15.16-1.94-28.25-8-37.76-20.32-8.56-11.08-10.77-23.49-6.18-36.82,2.88-8.36,8.3-14.94,15.3-20.23,9.34-7.05,19.96-10.69,31.57-11.5,12.32-.86,23.99,1.46,34.79,7.55,8.79,4.95,15.76,11.74,20.01,20.99,4.58,9.99,4.86,20.18.68,30.38-3.9,9.51-10.71,16.52-19.36,21.85-1.02.63-1.14,1.15-.78,2.2,1.63,4.73,3.17,9.48,4.75,14.23.09.26.17.52.35,1.08Zm-44.8-67.13c.02-4.88-4-8.93-8.91-8.97-4.84-.04-8.92,3.95-8.96,8.79-.04,5.05,3.85,9.07,8.83,9.1,4.99.04,9.02-3.93,9.04-8.92Zm26.94,8.91c5.02-.02,8.89-3.97,8.87-9.04-.02-4.87-4.02-8.82-8.9-8.83-4.93,0-8.94,4.01-8.94,8.92,0,5.03,3.96,8.97,8.98,8.95Z"/></g></svg>