<?xml version="1.0" encoding="iso-8859-1"?>
<!-- Generator: Adobe Illustrator 19.0.0, SVG Export Plug-In . SVG Version: 6.00 Build 0)  -->
<svg version="1.1" id="Layer_1" xmlns="http://www.w3.org/2000/svg" xmlns:xlink="http://www.w3.org/1999/xlink" x="0px" y="0px"
	 viewBox="0 0 512 512" style="enable-background:new 0 0 512 512;" xml:space="preserve">
<g>
	<g>
		<path d="M3.862,35.182h17.922V512H146.93v-17.591c0-4.937-0.05-9.744-0.147-14.433h218.433c-0.095,4.689-0.147,9.496-0.147,14.433
			V512h125.146V35.182h17.922V0H3.862V35.182z M293.992,35.182c-0.263,50.122,0.296,125.044,52.217,214.245h-72.617V35.182H293.992z
			 M273.592,284.609h95.359c9.131,12.825,19.363,25.896,30.844,39.188c-11.551,17.407-27.499,53.045-32.871,120.997h-93.332V284.609
			z M218.009,35.182h20.401v214.245h-72.617C217.713,160.226,218.271,85.304,218.009,35.182z M143.051,284.609h95.359v160.185
			h-93.332c-5.371-67.952-21.319-103.59-32.871-120.997C123.688,310.505,133.92,297.434,143.051,284.609z"/>
	</g>
</g>
<g>
</g>
<g>
</g>
<g>
</g>
<g>
</g>
<g>
</g>
<g>
</g>
<g>
</g>
<g>
</g>
<g>
</g>
<g>
</g>
<g>
</g>
<g>
</g>
<g>
</g>
<g>
</g>
<g>
</g>
</svg>
