<?xml version="1.0" encoding="UTF-8"?><svg id="Layer_2" xmlns="http://www.w3.org/2000/svg" viewBox="0 0 132.86 132.98"><defs><style>.cls-1{fill:#ed2f86;}</style></defs><g id="Layer_1-2"><path class="cls-1" d="m132.86,67.18c-.37,15.91-7.47,32.02-21.81,44.81-9.25,8.25-20.09,13.27-32.3,15.17-13.72,2.13-26.82-.04-39.18-6.4-.82-.42-1.47-.49-2.34-.14-9.81,3.97-19.63,7.88-29.45,11.82-2.24.9-4.34.75-6.11-.96-1.81-1.75-2.07-3.85-1.14-6.17,3.88-9.67,7.72-19.36,11.62-29.02.45-1.12.49-2.01-.09-3.14-5.21-10.13-7.74-20.91-7.01-32.28,1.38-21.6,11.19-38.48,29.14-50.57,6.91-4.65,14.54-7.71,22.73-9.17,19.01-3.37,36.27.77,51.56,12.62,9.44,7.32,16.14,16.74,20.4,27.9,2.56,6.7,3.98,14.7,3.99,25.53ZM14.97,117.97c.72-.24,1.17-.37,1.59-.54,6.26-2.51,12.56-4.93,18.76-7.59,2.69-1.16,4.97-.99,7.47.49,6.02,3.57,12.58,5.69,19.52,6.51,11.88,1.41,23.05-.84,33.42-6.87,22.27-12.96,32.31-40.02,23.17-64.2-7.39-19.57-21.83-31.15-42.56-34.52-10.68-1.73-20.96.04-30.66,4.77-10.96,5.34-19.22,13.52-24.6,24.48-5.63,11.47-6.89,23.49-3.98,35.94,1.24,5.33,3.38,10.3,6.12,15.03.92,1.59,1.06,3.25.38,4.95-2.13,5.34-4.29,10.67-6.43,16-.71,1.76-1.4,3.52-2.22,5.57Z"/><path class="cls-1" d="m47.58,63.99c0-8.63,0-17.27,0-25.9,0-4.04,2.12-6.14,6.12-6.13,6.79.02,13.59-.03,20.38.01,5.92.04,11.03,2.11,15.02,6.55,6.26,6.96,6.38,17.1.26,24.18-.87,1.01-.81,1.5.01,2.51,9.32,11.4,3.23,26.77-10.23,30.05-1.84.45-3.79.62-5.69.64-6.71.07-13.43.04-20.14.02-3.55,0-5.72-2.23-5.73-5.8,0-8.71,0-17.43,0-26.14Zm10.75-21.34v15.83c.16.06.23.11.3.11,5.75,0,11.51.18,17.26-.05,5.67-.23,9.11-6.75,6.26-11.57-1.73-2.92-4.5-4.25-7.82-4.3-4.63-.07-9.27-.02-13.9-.02-.67,0-1.34,0-2.09,0Zm0,42.54c5.79,0,11.47.18,17.12-.06,3.62-.16,6.67-2.87,7.45-5.85,1.3-4.99-2.34-9.88-7.52-9.95-5.39-.07-10.78-.02-16.17-.02-.27,0-.54.05-.88.09v15.79Z"/></g></svg>