<?xml version="1.0" encoding="UTF-8"?><svg id="Layer_2" xmlns="http://www.w3.org/2000/svg" viewBox="0 0 211.4 211.4"><defs><style>.cls-1{fill:#fff;}.cls-2{fill:#ed2f86;}</style></defs><g id="Layer_1-2"><rect class="cls-1" width="211.4" height="211.4" rx="45.19" ry="45.19"/><path class="cls-2" d="m145.3,110.56h-10.59v-10.02h10.62v-10.21c-1.73,0-3.41,0-5.08,0-2.13,0-2.41-.23-2.43-2.37-.02-2.16.03-4.31.05-6.47,0-.98.44-1.49,1.47-1.48,1.57,0,3.14-.08,4.71-.01.98.04,1.45-.13,1.25-1.24-.14-.74-.1-1.52-.14-2.37h10.04v3.59c1.5,0,2.93-.15,4.31.03,2.76.36,5.51.72,8.04,2.13,3.29,1.85,5.05,4.62,5.25,8.3.16,3.03.04,6.07.04,9.1,0,.32,0,.65,0,.78,2.01.3,3.97.35,5.77.92,4.75,1.5,6.67,4.6,6.86,9.44.17,4.35.02,8.7.1,13.06.06,3.48-1.4,6.13-4.17,8.11-1.65,1.17-3.6,1.38-5.53,1.5-2.08.12-4.17.07-6.25,0-.39-.01-.97-.36-1.13-.71-1.06-2.27-2.03-4.59-3.02-6.89-.41-.96.25-1.08.92-1.08,2.34,0,4.68.02,7.02.02,1.39,0,1.96-.55,2.07-1.96.01-.15.02-.29.02-.44,0-2.71.02-5.41-.02-8.12-.03-1.99-1.03-3.12-3.01-3.41-.94-.14-1.89-.2-2.84-.2-4.35-.02-8.71,0-13.06,0-.39,0-.79,0-1.25,0v22.74h-10.01v-22.72Zm17.99-9.99c.03-.33.07-.61.07-.89-.05-2.41-.14-4.82-.13-7.23,0-1.07-.48-1.78-1.44-1.87-2.15-.2-4.32-.23-6.47-.32v10.31h7.98Z"/><path class="cls-2" d="m134.47,123.24v10.06h-34.78c1.46-3.17,2.9-6.34,4.4-9.49.14-.29.68-.52,1.05-.53,2.12-.06,4.24-.05,6.36-.07.79,0,1.59,0,2.43,0v-32.85h-6.71c-.08-.21-.18-.34-.18-.47,0-2.67-.02-5.34.05-8.01.04-1.55.34-1.89,1.92-1.9,6.95-.03,13.9.02,20.84.04.9,0,1.35.44,1.35,1.34,0,2.92,0,5.85,0,8.93h-6.84c0,.73,0,1.31,0,1.88-.01,9.91,0,19.83-.06,29.74,0,1.05.23,1.38,1.31,1.36,2.88-.07,5.77-.03,8.85-.03Z"/><path class="cls-2" d="m38.76,124.64h7.12c0-1.11,0-2.15,0-3.2.02-14.41.05-28.83.03-43.24,0-1.09.32-1.33,1.36-1.3,2.52.08,5.05.03,7.57,0,.59,0,.92.07.92.83,0,14.34.04,28.68.06,43.02,0,1.43-.04,2.85-.01,4.28.05,2.21-.91,4.06-2.2,5.72-1.44,1.85-3.57,2.47-5.82,2.61-1.46.09-2.93.07-4.39-.02-.42-.03-1-.37-1.18-.73-.95-1.97-1.81-3.98-2.68-5.99-.26-.6-.48-1.21-.79-1.98Z"/><path class="cls-2" d="m99.14,76.3c-1.5,3.36-2.98,6.6-4.4,9.86-.48,1.09-.88,2.23-1.22,3.38-.25.86.1,1.26,1.07,1.24,2.34-.06,4.68-.03,7.02-.02.49,0,.99.09,1.65.15-.33.71-.58,1.26-.83,1.81-1.54,3.38-3.08,6.77-4.62,10.15-.83,1.82-1.66,3.64-2.49,5.47-.54,1.2-.22,1.72,1.08,1.72,1.54,0,3.07-.03,4.61-.01,1.13.01,1.17.2.7,1.22-1.01,2.18-1.99,4.38-2.91,6.6-.29.7-.61,1.06-1.42,1.05-2.74-.04-5.49.04-8.23-.04-1.19-.03-2.4-.25-3.57-.52-1.97-.46-2.88-2.16-2.24-4.26.43-1.43.97-2.83,1.55-4.21.97-2.28,2.02-4.53,3.01-6.8.23-.53.41-1.1.56-1.66.17-.63-.05-.95-.77-.93-1.21.04-2.41.03-3.62,0-3.1-.06-4.58-2.46-3.33-5.39.92-2.15,1.91-4.26,2.87-6.39,1.79-4,3.56-8,5.36-11.99.08-.19.35-.41.54-.41,3.2-.03,6.4-.02,9.6-.02Z"/><path class="cls-2" d="m73.75,90.82c.32,4.22.65,8.27.93,12.32.23,3.35.35,6.71.59,10.06.06.84.53,1.65.61,2.49.07.73,0,1.56-.28,2.22-1.24,2.88-2.59,5.71-3.89,8.56-.25.55-.42,1.14-.63,1.74-2.51-3.57-4.22-7.42-5.07-11.64-1.1-5.52-1.15-11.15-1.65-16.73-.22-2.51-.38-5.02-.57-7.53-.04-.47-.07-.93-.11-1.5h10.07Z"/><path class="cls-2" d="m30.53,128.08c-1.32-3.06-2.52-6.09-3.94-9.02-.78-1.61-.92-3.11-.54-4.84.39-1.8.45-3.69.62-5.54.22-2.38.43-4.77.59-7.16.12-1.86.12-3.73.25-5.59.11-1.65.33-3.3.52-5.09.37-.03.75-.08,1.13-.08,2.63-.01,5.27.02,7.9-.03.85-.02.99.33.93,1.04-.24,2.53-.47,5.05-.66,7.58-.1,1.24-.06,2.49-.16,3.72-.42,5.19-.64,10.41-2.01,15.48-.93,3.44-2.46,6.6-4.61,9.52Z"/><path class="cls-2" d="m77.08,132.81c.15-.45.21-.73.33-.99,1.24-2.76,2.5-5.51,3.71-8.28.25-.59.57-.69,1.16-.68,4.74.12,9.49.19,14.23.28.38,0,.76.04,1.28.08-1.5,3.26-2.9,6.37-4.38,9.45-.17.35-.8.67-1.22.68-4.05.05-8.11.06-12.17,0-.95-.01-1.9-.34-2.94-.54Z"/><path class="cls-2" d="m178.27,90.33c-2.78,0-2.8,0-2.78-2.78,0-1.02.02-2.05.21-3.05.59-3.11,3.32-4.85,6.36-3.99,1.37.39,2.26,1.48,2.84,2.8.41.93.85,1.79.55,2.89-.63,2.3-2.77,4.02-5.32,4.13-.62.03-1.24,0-1.86,0Z"/></g></svg>