<?xml version="1.0" encoding="UTF-8"?><svg id="Layer_2" xmlns="http://www.w3.org/2000/svg" viewBox="0 0 1620.52 1621.58"><defs><style>.cls-1{fill:#fff;}</style></defs><g id="Layer_1-2"><path class="cls-1" d="m809.19.07c202.87,0,405.74,0,608.61-.05,3.94,0,7.12.81,10.57,3.12,3.4,2.28,7.98,2.96,12.15,3.93,39.34,9.1,75.48,24.72,105.88,51.97,33.47,30.01,53.19,68.08,64.48,111.01,1.48,5.62,2.64,11.32,4.02,16.96.35,1.43.55,3.26,1.52,4.12,4.62,4.13,4.06,9.47,4.06,14.8-.02,403.97-.03,807.94.05,1211.92,0,5.82-1.52,10.8-3.83,16.14-3.46,8.01-5.24,16.74-7.78,25.15-17.14,56.71-48.75,102.47-100.8,132.54-28.07,16.21-58.51,25.26-90.74,27.95-13.08,1.09-26.26,1.47-39.39,1.5-62.79.15-125.59.04-188.38.07-247.17.12-494.34.3-741.51.37-72.78.02-145.56-.21-218.34-.38-50.18-.12-96.85-12.27-138.1-41.72-45.22-32.29-72.83-76.37-85.28-130.21-4.32-18.71-6.14-37.72-6.14-56.94-.02-335.14-.09-670.28-.12-1005.43,0-53.66-.35-107.33.24-160.98C1.43,126.45,55.59,46.83,153.74,14.17c7.4-2.46,15.02-4.25,22.52-6.41,3.18-.92,6.77-1.32,9.4-3.11C192.14.25,199.15,0,206.57,0c200.87.09,401.74.07,602.61.07Zm486.9,970.32c2.6,19.33,5.81,38.27,15.43,55.43,9.57,17.07,24.48,25.63,43.73,27.36,21.56,1.93,42.52-1.47,62.86-8.07,31.21-10.13,51.36-35.86,51.89-68.55.71-43.45.4-86.94-.8-130.38-.63-22.73-11.39-41.44-29.77-55.27-16.46-12.39-35.67-17.41-55.62-20.21-3.85-.54-5.73-1.98-6.47-5.95-3.13-16.81-6.56-33.57-9.89-50.35-4.53-22.85-9.38-45.59-19.79-66.71-4.62-9.39-10.46-17.75-18.7-24.33-15.54-12.39-33.94-16.38-53.09-17.6-14.27-.91-28.6-1.11-42.91-1.27-4.6-.05-6.4-1.66-7.67-6.14-4.26-15.04-11.83-28.5-37.28-29.84-17.81-.93-35.08,2.4-52.28,6.26-1.43.32-2.97,2.83-3.36,4.58-1.43,6.31-2.51,12.71-3.47,19.12-.53,3.51-1.97,4.97-5.74,5.25-15.09,1.11-30.15,2.66-45.23,3.91-2.76.23-3.75,1.31-3.74,4.02.03,5.99-.04,11.99-.31,17.98-.82,18.14-1.62,36.26,1.32,54.32,1.61,9.91,2.48,11.38,12.54,13.18,11.43,2.05,22.98,3.58,34.52,4.84,5.01.55,6.65,2.35,6.57,7.46-.29,18.66-.11,37.32-.12,55.99,0,6.76-.03,6.78-7.03,6.78-23.82.01-47.63.09-71.44-.07-4.45-.03-5.99,1.19-5.96,5.88.22,26.83.22,53.66,0,80.48-.04,4.89,1.47,6.19,6.21,6.15,23.81-.21,47.63-.12,71.44-.08,10.8.02,9.76-1.06,9.77,9.53.03,56.99,0,113.98.03,170.97,0,2.57.25,5.13.4,8.02,17.65,0,34.62.09,51.59-.04,7.14-.06,14.31-.36,21.42-1,10.02-.9,15.05-5.31,16.38-15,1.04-7.55,1.39-15.24,1.41-22.87.12-47.99.12-95.98-.03-143.97-.01-4.66,1.07-6.27,6.06-6.23,30.64.24,61.29-.16,91.93.26,12.42.17,24.9,1.28,37.2,3.01,10.24,1.44,16.38,8.33,18.56,18.46.7,3.24,1.31,6.57,1.34,9.86.16,16.15.13,32.3.08,48.44,0,1.24-.35,2.74-1.1,3.67-4.24,5.34-8.27,10.95-13.16,15.65-2.79,2.68-6.95,4.94-10.74,5.4-9.7,1.16-19.54,1.38-29.33,1.65-8.94.24-17.89.05-27.69.05Zm-325.09-268.13c2.82-.45,5.3-.72,7.73-1.25,10.04-2.18,20.18-4.05,30.07-6.8,7.23-2.01,11.66-7.47,13.4-14.83.69-2.9,1.32-5.88,1.41-8.85.39-13.3.64-26.6.76-39.9.02-1.7-.65-3.74-1.7-5.07-3.9-4.97-7.99-9.8-12.19-14.52-3.02-3.4-6.94-4.82-11.57-4.88-16.81-.21-33.61-.9-50.42-.9-36.13.01-72.26.11-108.38.79-5.8.11-11.66,3.13-17.28,5.34-3.68,1.45-5.21,4.85-5.33,8.88-.12,4.16-.57,8.3-.76,12.46-.78,16.46-1.34,32.87,1.39,49.29,1.19,7.17,4.28,11.19,11.34,12.27,1.31.2,2.58.63,3.89.85,9.5,1.57,19.04,2.92,28.5,4.72,6.47,1.23,7.63,3,7.63,9.46,0,54.48,0,108.97,0,163.45,0,24.16-.06,48.32.07,72.48.02,3.62-.89,5.29-4.75,5.87-13.13,1.97-26.15,4.72-39.31,6.46-25.97,3.43-43.9,16.81-53.26,41.45-5.25,13.83-10.61,27.62-15.96,41.41-1.42,3.68-2.96,7.31-4.64,11.44,2.1.11,3.55.26,5.01.26,92.42-.06,184.84-.13,277.25-.23,9.24,0,16.96-7.37,17.18-16.49.31-12.99.99-26,.46-38.96-.39-9.56-2.5-19.05-3.77-28.58-.72-5.39-4.2-7.83-9.13-8.19-11.27-.82-22.57-1.24-33.84-2.05-11.22-.81-22.43-1.91-33.8-2.9v-252.48ZM255.1,978.44c.39,1.35.57,2.31.93,3.19,6.39,15.68,12.88,31.32,19.2,47.03,5.25,13.07,14.34,22.01,28.49,23.5,10.31,1.09,20.93.85,31.25-.29,16.76-1.86,32.45-7.28,45.47-18.62,17.29-15.05,23.79-35.07,24.43-57.04.88-30.47.94-60.97.95-91.45.02-70.15-.21-140.31-.33-210.46-.03-20.32.03-40.64-.02-60.96-.02-7.81.05-15.64-.48-23.42-.48-7.13-4.05-10.86-11.07-12.17-4.07-.76-8.24-1.17-12.38-1.27-14.8-.39-29.61-.93-44.4-.73-12.73.17-20.58,6.8-23.17,18.64-.81,3.71-1.27,7.59-1.25,11.38.2,32.65.69,65.3.82,97.95.1,24.49-.26,48.99-.34,73.48-.16,46.82-.22,93.65-.44,140.47-.03,7.31-.52,14.64-1.15,21.93-1.05,12.07-6.75,21.12-18.14,25.98-5.34,2.28-10.8,4.32-16.31,6.15-7.2,2.38-14.51,4.44-22.07,6.73Zm406.58-193.07c-.45,1.21-1.01,2.92-1.7,4.58-10.02,24.28-20.14,48.52-30.05,72.84-3.88,9.53-8.15,19.02-10.77,28.91-4.2,15.87,4.71,30.38,19.11,32.22,10.87,1.39,21.83,2.67,32.77,2.88,24.29.46,48.6.04,72.89.4,5.78.09,9.5-2.17,12.47-6.55,1.21-1.78,2.33-3.66,3.2-5.63,8.48-19.33,16.9-38.69,25.3-58.06.48-1.11.64-2.36,1.05-3.94-18.82-2.14-37.04-4.21-55.89-6.35,22.13-50.51,43.91-100.2,65.99-150.59-28.15-2.25-55.26-4.42-83.03-6.64,17.16-39.87,34.13-79.28,51.46-119.55-3.68,0-6.14,0-8.6,0-15.46-.04-30.92-.13-46.38-.11-7.29,0-14.74-.74-21.84.47-16.35,2.79-24.85,14.6-30.99,28.88-12.48,29.01-25.4,57.82-37.75,86.88-7.66,18.02-14.93,36.21-21.66,54.59-1.8,4.91-1.91,10.93-1.14,16.2,1.66,11.27,10.47,16.48,20.24,19,14.75,3.8,29.82,6.36,45.33,9.57Zm-204.01-90.78c0,2.14-.12,3.62.02,5.09,2.92,32.3,6.36,64.57,8.67,96.91,2.29,32.21,4.35,64.4,10.25,96.2,7.6,40.99,21.59,79.5,45.04,114.24,1.37,2.03,2.84,4,4.78,6.72,2.23-5.55,4.01-10.33,6.05-15.01,8.96-20.58,18.48-40.92,26.86-61.73,9.46-23.5,11.53-47.75,6.64-72.94-4.04-20.85-7.08-42.01-8.71-63.18-2.58-33.68-3.7-67.48-5.19-101.24-.19-4.34-1.74-5.17-5.65-5.14-20.82.16-41.63.08-62.45.08h-26.3Zm-309.34,194.22c1.54,10.38,2.39,19.5,4.32,28.39,6.76,31.25,24.13,58.22,36.06,87.39.84,2.06,5.58,2.89,8.66,3.45.96.17,2.77-2.24,3.6-3.8,3.12-5.87,6.2-11.78,8.91-17.85,7.1-15.91,15.32-31.49,20.58-48,4.5-14.1,5.98-29.25,7.96-44.06,3.56-26.69,6.67-53.44,9.64-80.2,2.16-19.5,3.98-39.05,5.61-58.61,1.11-13.42,2.14-26.89,2.28-40.34.16-14.73-6.27-22.41-20.43-23.2-15.41-.85-30.99-.88-46.35.41-18.22,1.53-23.19,6.65-24.68,24.99-1.63,20.05-1.96,40.22-2.55,60.35-.75,25.3-2.46,50.49-7.22,75.41-2.33,12.21-4.4,24.47-6.4,35.67Zm603.4,70.78c-7.79-.36-14.42-.67-21.05-.96-37.24-1.62-74.48-3.2-111.72-4.86-6.78-.3-11.47,2.49-14.28,8.65-13.07,28.59-26.17,57.16-39.23,85.75-.5,1.09-.71,2.31-1.13,3.71,1.21.11,1.86.23,2.51.23,42.46-.05,84.92-.15,127.38-.14,10.34,0,17.41-5.02,21.72-13.98,6.93-14.39,13.59-28.9,20.23-43.42,5.17-11.31,10.12-22.72,15.58-34.99Zm657.24-260.67c6.46-.83,15.01-1.2,23.2-3.1,27.79-6.46,41.72-26.74,37.3-53.41-3.22-19.48-19.94-35.42-39.48-37.65-21.03-2.4-38.52,7.86-46.38,27.7-7.08,17.85-6.6,36.48-4.51,55.11.6,5.33,4.1,8.78,9.49,9.5,6.08.81,12.23,1.14,20.38,1.85Z"/><path class="cls-1" d="m1224.62,736.33c0-8.82.37-17.65-.14-26.44-.29-4.95,1.52-6.93,6.05-7.47,9.83-1.16,19.63-3.02,29.49-3.42,7.86-.32,13.6,4.69,14.81,12.28,1.56,9.76,2.07,19.77,2.02,29.67-.05,8.09-1.68,16.17-2.41,24.27-.26,2.9-1.39,4.03-4.33,4.01-13.8-.09-27.59-.11-41.39,0-3.33.03-4.22-1.3-4.16-4.46.17-9.48.06-18.96.06-28.44Z"/></g></svg>