<svg width="281" height="100" viewBox="0 0 281 100" fill="none" xmlns="http://www.w3.org/2000/svg">
<g clip-path="url(#clip0_354_629)">
<path d="M36.3435 40.3346C36.407 38.793 36.4487 37.2054 36.4704 35.5699C36.4741 35.3382 36.4741 35.1066 36.4741 34.8769C36.4741 33.497 36.4197 32.169 36.3127 30.8929C36.1858 29.4072 35.9755 28.0512 35.6818 26.8271C35.3899 25.6109 34.9964 24.6704 34.5142 24.0074V24.0034L34.5106 24.0014C33.8996 23.1107 33.2124 22.6894 32.3948 22.6654H32.3349C31.5481 22.6654 30.8591 23.0668 30.2228 23.9395C29.7423 24.5985 29.2582 25.7228 28.7959 27.2984C28.33 28.882 27.9075 30.5614 27.5268 32.3328C27.1443 34.1101 26.8052 35.8255 26.5097 37.483C26.2124 39.1464 25.9767 40.3985 25.8081 41.2453V41.2493V41.2513C25.7609 41.4569 25.7029 41.6247 25.6086 41.7645C25.5325 41.8743 25.4364 41.9282 25.3294 41.9742C25.2225 42.0181 25.0974 42.05 24.9487 42.074C24.6495 42.1239 24.2398 42.1479 23.7013 42.1479C23.1756 42.1479 22.4231 42.1719 21.4496 42.2178H21.4441H21.4387C21.3009 42.2178 21.1812 42.2018 21.0688 42.1599C20.9582 42.1179 20.8494 42.0381 20.786 41.9143C20.7443 41.8324 20.7262 41.7405 20.7262 41.6526L20.7298 41.5867C20.7497 41.3611 20.7606 41.1354 20.7606 40.9098V40.8998C20.8023 39.6357 20.8458 38.2678 20.8875 36.794C20.902 36.3067 20.9075 35.8195 20.9093 35.3322C20.9093 34.3537 20.8803 33.3752 20.8241 32.3967C20.7407 30.9329 20.5811 29.515 20.3491 28.1451C20.1188 26.7872 19.7544 25.6069 19.2576 24.6045V24.6005C18.8007 23.6419 18.2695 22.913 17.6658 22.4018C17.0512 21.8846 16.4184 21.5651 15.7567 21.4333C15.5065 21.3833 15.2581 21.3594 15.0097 21.3594C14.5945 21.3594 14.1793 21.4293 13.7624 21.5671C13.0915 21.7927 12.5186 22.1462 12.0345 22.6334C11.4634 23.2166 11.0283 23.9195 10.7201 24.7522C10.4046 25.6109 10.1418 26.4337 9.93144 27.2205C9.20986 30.1181 8.64783 32.5245 8.24533 34.4376C7.84103 36.3567 7.52375 37.9103 7.28987 39.1025C7.05599 40.2947 6.88557 41.1854 6.78041 41.7665C6.66982 42.3676 6.55741 42.7789 6.39605 43.0505C6.31628 43.1823 6.21475 43.2942 6.09328 43.368C5.97181 43.4439 5.83402 43.4799 5.6926 43.4799C5.49498 43.4799 5.17952 43.5038 4.7589 43.5498H4.75527H4.75165C3.41726 43.6416 2.295 43.9731 1.3758 44.5363C0.927986 44.8119 0.598016 45.1553 0.369576 45.5767C0.142948 45.9961 0.01785 46.4973 -0.00390625 47.0924C-0.00209323 47.7854 0.190087 48.4004 0.585325 48.9676C0.976938 49.5287 1.54623 49.9441 2.32039 50.2137H2.32401L2.32945 50.2177C2.78633 50.4014 3.16525 50.5132 3.45896 50.5552C3.78168 50.6031 4.04094 50.651 4.24219 50.6989H4.244C4.4525 50.7549 4.60842 50.8068 4.73895 50.9426C4.84411 51.0644 4.86224 51.2042 4.86405 51.336C4.86405 51.4278 4.85317 51.5217 4.83504 51.6275V51.6335L4.83323 51.6395C4.53952 52.9376 4.23131 54.7348 3.91403 57.0214C3.59675 59.3059 3.38463 61.6843 3.27947 64.1546C3.24321 64.9793 3.2269 65.7901 3.2269 66.5829C3.2269 68.1645 3.2976 69.6822 3.43902 71.136C3.64752 73.3067 4.15154 74.9223 4.92026 75.9887L4.92207 75.9946C5.66178 77.079 6.59549 77.8279 7.74313 78.2572C8.42664 78.5128 9.10471 78.6386 9.77734 78.6406C10.2378 78.6406 10.6965 78.5807 11.1534 78.4629C12.2775 78.1693 13.3218 77.5183 14.2972 76.4899C15.2545 75.4794 15.9489 74.0416 16.3677 72.1565C16.6215 71.0382 16.8536 69.838 17.0657 68.5559C17.2778 67.2699 17.5117 65.832 17.7673 64.2404C18.023 62.6509 18.2967 60.8616 18.5959 58.8726C18.8932 56.8836 19.2322 54.603 19.6166 52.0269C19.642 51.7554 19.7381 51.5097 19.9176 51.346C20.1007 51.1782 20.34 51.1103 20.6083 51.1103H24.1546V51.3659C24.1546 51.4818 24.1401 51.6994 24.1129 52.0549C24.0857 52.4084 24.0458 52.8876 23.9932 53.4967C23.8863 54.7129 23.7702 56.1048 23.6433 57.6724C23.5164 59.238 23.4094 60.8036 23.3242 62.3693C23.239 63.9349 23.1973 65.183 23.1973 66.1096C23.1973 66.8745 23.3297 67.6872 23.5998 68.5559C23.8681 69.4226 24.2416 70.2314 24.7184 70.9842C25.188 71.7271 25.7791 72.3322 26.497 72.8055C27.2023 73.2728 27.9964 73.5064 28.8956 73.5064C29.8475 73.5064 30.6543 73.3347 31.3178 73.0032C31.9941 72.6637 32.5634 72.2264 33.0311 71.6892C33.5007 71.148 33.8669 70.5429 34.1334 69.8699C34.4018 69.185 34.5758 68.528 34.6592 67.8989V67.8929L34.661 67.8869C34.8278 66.9643 34.9112 66.1036 34.9112 65.3048C34.9112 64.506 34.9203 63.3957 34.9421 62.0358C34.9638 60.6738 35.0273 58.8925 35.1342 56.6919C35.2412 54.4852 35.4642 51.5576 35.8051 47.9032C35.8885 47.0625 35.9845 45.9741 36.0915 44.6421C36.1967 43.3121 36.2819 41.8763 36.3453 40.3346H36.3435Z" fill="white"/>
<path d="M53.5743 60.5421C54.3793 59.4897 55.0428 58.3055 55.5795 56.9975C55.5958 56.7119 55.6049 56.4344 55.623 56.1468C55.7517 54.036 55.933 52.0071 56.1669 50.058C56.4026 48.107 56.6909 46.5393 57.0371 45.3451V45.3412L57.0408 45.3372C57.1314 45.0616 57.2402 44.6901 57.3653 44.2428C57.262 43.0726 57.0607 41.8904 56.7507 40.7002C56.3953 39.3462 55.8659 38.1341 55.1607 37.0577C54.459 35.9913 53.5416 35.1146 52.4012 34.4297C51.2754 33.7527 49.8612 33.4072 48.1461 33.4072C47.0256 33.4072 45.9269 33.6249 44.8482 34.0582C43.7676 34.4936 42.8067 35.1186 41.9582 35.9414C41.1098 36.7621 40.4281 37.7506 39.9095 38.9169C39.3946 40.0731 39.1372 41.3552 39.1372 42.771C39.1408 43.1804 39.2568 43.464 39.5034 43.7016C39.7663 43.9493 40.0528 44.0751 40.3864 44.097H40.4788C40.7816 44.099 41.088 44.0092 41.4071 43.8135C41.7352 43.6118 41.9981 43.2683 42.1976 42.7451L42.2012 42.7371L42.2048 42.7291C42.3444 42.4196 42.5493 42.11 42.814 41.7945C43.0805 41.475 43.3724 41.2034 43.6879 40.9798C43.9961 40.7601 44.3188 40.5764 44.6506 40.4306C44.986 40.2828 45.2743 40.2029 45.5335 40.2029C46.246 40.2029 46.8498 40.3767 47.323 40.7401C47.8107 41.1176 48.1098 41.7486 48.244 42.5753C48.244 42.5753 48.244 42.5813 48.244 42.5833C48.244 42.5833 48.244 42.5873 48.244 42.5893C48.3727 43.2084 48.4489 43.8294 48.4706 44.4485C48.4924 45.0596 48.5033 45.6966 48.5033 46.3536C48.5033 46.4994 48.4996 46.6252 48.4888 46.733C48.4779 46.8409 48.4652 46.9288 48.4325 47.0166C48.4108 47.0725 48.38 47.1384 48.3056 47.1963C48.3056 47.1963 48.3056 47.1963 48.3038 47.1963C48.2494 47.2343 48.2041 47.2483 48.157 47.2622C48.1098 47.2742 48.0591 47.2822 48.001 47.2902C47.8868 47.3022 47.7454 47.3082 47.5714 47.3082C45.6477 47.3082 43.9906 47.7455 42.5856 48.6102C41.1641 49.4849 39.9893 50.5732 39.0538 51.8793C38.1128 53.1913 37.4148 54.5931 36.9561 56.0849C36.5337 57.4608 36.3252 58.7189 36.3252 59.8652C36.3252 59.969 36.3252 60.0709 36.3306 60.1727V60.1827C36.3306 61.1752 36.5246 62.0678 36.909 62.8706C37.3006 63.6854 37.7992 64.3584 38.4102 64.8975C39.0266 65.4407 39.7228 65.8581 40.5078 66.1536C41.2892 66.4492 42.1124 66.597 42.9808 66.597C44.1429 66.597 45.3613 66.3693 46.6377 65.908C47.9104 65.4487 49.1324 64.7697 50.3054 63.8711C51.4766 62.9725 52.5662 61.8641 53.5743 60.5461V60.5421ZM47.6076 53.0555C47.5605 53.4109 47.4408 53.8982 47.2468 54.5392C47.051 55.1882 46.7881 55.8253 46.4636 56.4463C46.1354 57.0714 45.762 57.6166 45.3432 58.0779C44.908 58.5611 44.3823 58.8227 43.8093 58.8187C43.4721 58.8187 43.1875 58.7768 42.95 58.679C42.7143 58.5831 42.5185 58.4194 42.4097 58.1897C42.3354 58.0379 42.3027 57.8662 42.3027 57.6865C42.3027 57.0215 42.5783 56.3385 43.0859 55.6316C43.5918 54.9286 44.2463 54.2816 45.0494 53.6825C45.8599 53.0794 46.6358 52.7619 47.3774 52.7619H47.6439L47.6058 53.0535L47.6076 53.0555Z" fill="white"/>
<path d="M81.5498 44.0929C82.3276 42.0959 82.7138 40.0111 82.7138 37.8244C82.7138 37.7146 82.7138 37.6047 82.7102 37.4929C82.6685 35.1884 82.188 33.1395 81.2743 31.3283C80.3605 29.525 79.0297 28.1371 77.2621 27.1486C76.1398 26.5235 74.8217 26.208 73.2988 26.208C72.4485 26.208 71.5347 26.3059 70.5575 26.5056H70.5539H70.5503C70.2584 26.5515 69.9918 26.6074 69.7453 26.6753C69.4751 26.7492 69.1832 26.7851 68.8768 26.7871C67.6875 26.879 66.6106 27.3263 65.6225 28.1411C64.6217 28.9678 63.7134 29.9803 62.8957 31.1785C62.078 32.3807 61.3746 33.7086 60.7871 35.1664C60.1943 36.6362 59.6758 38.0581 59.2316 39.43C58.7874 40.8079 58.4266 42.03 58.1528 43.1004C57.8772 44.1748 57.6542 44.9696 57.4802 45.4948C57.1466 46.6431 56.8619 48.1867 56.6281 50.1178C56.396 52.0549 56.2165 54.0718 56.0878 56.1746C55.9609 58.2774 55.8757 60.3223 55.834 62.3053C55.7923 64.2903 55.7705 65.9139 55.7705 67.174C55.8122 69.2428 56.28 70.7765 57.143 71.8169C58.0313 72.8853 58.9741 73.5044 59.9767 73.7041C60.2541 73.76 60.5242 73.786 60.7871 73.786C61.487 73.786 62.1378 73.5942 62.7543 73.2068C63.1731 72.9432 63.4795 72.6237 63.6916 72.2423C63.9019 71.8609 64.0198 71.4155 64.0397 70.8903C64.0814 69.766 64.1467 68.4061 64.2319 66.8145C64.3171 65.2189 64.4331 63.5315 64.5836 61.7522C64.7323 59.9729 64.8918 58.1816 65.0622 56.3783C65.2308 54.575 65.4013 52.8996 65.5735 51.3539L65.6134 50.9885L65.9089 51.1582C67.0421 51.8052 68.0102 52.1927 68.8007 52.3265C69.2014 52.3944 69.6383 52.4283 70.1115 52.4283C70.5847 52.4283 71.0942 52.3944 71.6381 52.3245C74.1074 52.0009 76.1634 51.0724 77.8259 49.5387C79.4993 47.993 80.7394 46.1798 81.5535 44.0869L81.5498 44.0929ZM73.7103 36.7381C73.2589 37.6067 72.5065 38.3916 71.4658 39.1085C70.4016 39.8414 69.0799 40.2008 67.5189 40.2008C67.4572 40.2008 67.3865 40.1808 67.3303 40.1369C67.2741 40.093 67.2379 40.0351 67.2143 39.9811C67.169 39.8713 67.1617 39.7695 67.1599 39.6497C67.1599 39.5318 67.1726 39.396 67.1944 39.2383C67.2632 38.765 67.4174 38.2118 67.6549 37.5688C67.8924 36.9258 68.1734 36.2847 68.4961 35.6457C68.8224 34.9967 69.185 34.4515 69.5857 34.0102L69.5912 34.0042L69.5966 34.0002C70.0009 33.6048 70.4397 33.3352 70.9056 33.2074C71.348 33.0856 71.8139 33.0237 72.2998 33.0237C72.773 33.0237 73.1701 33.1155 73.4873 33.3232C73.8046 33.5289 74.0222 33.8604 74.1183 34.2658C74.1727 34.4875 74.198 34.7151 74.198 34.9468C74.198 35.5279 74.0313 36.127 73.7122 36.7401L73.7103 36.7381Z" fill="white"/>
<path d="M106.596 44.0929C107.374 42.0959 107.76 40.0091 107.76 37.8224C107.76 37.7126 107.76 37.6028 107.757 37.4929C107.715 35.1884 107.235 33.1395 106.319 31.3283C105.405 29.525 104.075 28.1371 102.307 27.1486C101.185 26.5235 99.8665 26.208 98.3436 26.208C97.4933 26.208 96.5795 26.3059 95.6023 26.5056H95.5987H95.5932C95.3013 26.5515 95.0348 26.6074 94.7882 26.6753C94.5181 26.7492 94.2262 26.7851 93.9198 26.7871C92.7305 26.879 91.6535 27.3263 90.6654 28.1411C89.6646 28.9678 88.7563 29.9803 87.9386 31.1785C87.121 32.3807 86.4175 33.7086 85.8301 35.1664C85.2372 36.6362 84.7187 38.0581 84.2745 39.43C83.8303 40.8079 83.4696 42.03 83.1958 43.1004C82.9202 44.1748 82.6972 44.9696 82.5232 45.4948C82.1896 46.6431 81.9049 48.1867 81.671 50.1178C81.439 52.0549 81.2595 54.0718 81.1308 56.1746C81.0038 58.2774 80.9186 60.3223 80.8769 62.3053C80.8352 64.2903 80.8135 65.9139 80.8135 67.174C80.8552 69.2428 81.3229 70.7765 82.1859 71.8169C83.0761 72.8873 84.0171 73.5044 85.0197 73.7041C85.2971 73.76 85.5672 73.786 85.8301 73.786C86.5299 73.786 87.1808 73.5942 87.7972 73.2068C88.216 72.9432 88.5224 72.6237 88.7346 72.2423C88.9449 71.8609 89.0627 71.4155 89.0827 70.8903C89.1244 69.764 89.1896 68.4061 89.2748 66.8145C89.3601 65.2189 89.4761 63.5315 89.6266 61.7522C89.7752 59.9729 89.9348 58.1816 90.1052 56.3783C90.2738 54.575 90.4442 52.8996 90.6165 51.3539L90.6564 50.9885L90.9519 51.1582C92.085 51.8052 93.0532 52.1927 93.8437 52.3265C94.2443 52.3944 94.6813 52.4283 95.1545 52.4283C95.6277 52.4283 96.1371 52.3944 96.681 52.3245C99.1504 52.0009 101.206 51.0724 102.869 49.5387C104.542 47.993 105.782 46.1798 106.596 44.0869V44.0929ZM98.7569 36.7381C98.3055 37.6067 97.5531 38.3916 96.5124 39.1085C95.4482 39.8414 94.1265 40.2008 92.5655 40.2008C92.5038 40.2008 92.4331 40.1808 92.3769 40.1369C92.3207 40.093 92.2845 40.0351 92.2609 39.9811C92.2156 39.8713 92.2083 39.7695 92.2065 39.6497C92.2065 39.5318 92.2192 39.396 92.2409 39.2383C92.3098 38.765 92.4639 38.2118 92.7015 37.5688C92.939 36.9258 93.22 36.2847 93.5427 35.6457C93.869 34.9967 94.2316 34.4515 94.6323 34.0102L94.6378 34.0042L94.6432 34.0002C95.0475 33.6048 95.4862 33.3352 95.9522 33.2074C96.3946 33.0856 96.8605 33.0237 97.3464 33.0237C97.8196 33.0237 98.2167 33.1155 98.5339 33.3232C98.8512 33.5289 99.0688 33.8604 99.1649 34.2658C99.2193 34.4875 99.2446 34.7151 99.2446 34.9468C99.2446 35.5279 99.0778 36.127 98.7587 36.7401L98.7569 36.7381Z" fill="white"/>
<path d="M132.202 40.0629C132.35 38.9906 132.477 37.9062 132.583 36.8099C132.657 36.0311 132.695 35.2602 132.695 34.4934C132.695 34.1898 132.689 33.8863 132.677 33.5848C132.635 32.5284 132.49 31.6038 132.243 30.813C132.001 30.0321 131.62 29.4091 131.103 28.9238C130.601 28.4565 129.919 28.2129 129.022 28.2129C128.665 28.2129 128.336 28.3287 128.014 28.5723C127.691 28.816 127.379 29.1914 127.084 29.7086C126.48 30.765 125.911 32.105 125.385 33.7305C124.855 35.3621 124.359 37.1454 123.893 39.0804C123.423 41.0255 122.944 42.8427 122.455 44.5322C121.964 46.2276 121.438 47.6774 120.879 48.8876C120.595 49.5027 120.285 49.9919 119.94 50.3514C119.598 50.7108 119.213 50.9425 118.802 51.0224H118.8C118.727 51.0363 118.655 51.0443 118.584 51.0443C118.33 51.0463 118.087 50.9425 117.917 50.7428C117.745 50.5451 117.641 50.2735 117.58 49.948C117.505 49.5546 117.471 49.0993 117.471 48.5761C117.471 48.1407 117.496 47.6594 117.545 47.1322C117.652 45.976 117.823 44.7059 118.058 43.32C118.292 41.9361 118.548 40.5762 118.825 39.2382C119.101 37.9042 119.346 36.712 119.56 35.6596C119.77 34.6152 119.873 33.8623 119.873 33.433V33.421C119.875 33.3571 119.877 33.2932 119.877 33.2293C119.877 32.3366 119.619 31.5458 119.095 30.8189C118.528 30.0421 117.826 29.5529 116.962 29.3272C116.684 29.2573 116.398 29.2214 116.102 29.2214C115.482 29.2214 114.819 29.3791 114.106 29.7006C113.083 30.1619 112.081 31.1864 111.12 32.7999C110.279 34.2338 109.552 35.7994 108.943 37.4928C108.332 39.1843 107.913 40.9177 107.681 42.701C107.559 43.6335 107.499 44.5541 107.499 45.4648C107.499 46.2955 107.55 47.1163 107.65 47.929C107.858 49.6305 108.337 51.2121 109.088 52.6818C110.045 54.5131 111.312 55.8151 112.902 56.6119C113.997 57.1611 115.081 57.4326 116.158 57.4326C116.652 57.4326 117.143 57.3767 117.634 57.2609C118.222 57.1231 118.736 56.9733 119.172 56.8116C119.61 56.6518 119.973 56.5021 120.261 56.3663C120.591 56.1845 120.879 56.0028 121.122 55.8231L121.594 55.4776L121.478 56.0887C121.26 57.2409 120.867 58.3233 120.301 59.3298C119.821 60.1965 119.179 61.0212 118.377 61.808C117.553 62.6168 116.441 63.1839 115.054 63.5174H115.051H115.047C114.568 63.6133 114.13 63.6612 113.731 63.6612C113.332 63.6612 112.971 63.6133 112.648 63.5114C112.03 63.3177 111.493 63.0342 111.044 62.6627C110.611 62.3053 110.208 61.9218 109.84 61.5165C109.501 61.145 109.117 60.8734 108.681 60.6977H108.678L108.674 60.6957C108.364 60.5599 108.076 60.494 107.806 60.494C107.557 60.494 107.325 60.5479 107.101 60.6578C106.611 60.8974 106.212 61.2688 105.893 61.794C105.576 62.3212 105.364 62.9503 105.26 63.6912C105.213 64.0307 105.191 64.3761 105.191 64.7296C105.191 65.151 105.224 65.5823 105.291 66.0276C105.454 66.8743 105.788 67.6412 106.296 68.3381C106.81 69.0411 107.438 69.6541 108.185 70.1793C108.928 70.7025 109.766 71.1019 110.701 71.3755C111.639 71.6511 112.605 71.7889 113.606 71.7889C115.785 71.7889 117.703 71.3396 119.367 70.4449C121.041 69.5443 122.506 68.3581 123.762 66.8843C125.02 65.4046 126.09 63.6852 126.973 61.7162C127.861 59.7392 128.61 57.6803 129.223 55.5395C129.836 53.3948 130.343 51.24 130.746 49.0713C131.148 46.8966 131.498 44.8537 131.796 42.9366C131.923 42.0979 132.06 41.1393 132.209 40.0629H132.202Z" fill="white"/>
<path d="M175.644 28.6903C175.353 27.5261 174.911 26.5815 174.322 25.8427C173.751 25.1317 172.973 24.7743 171.914 24.7703C171.156 24.7703 170.346 25.0339 169.479 25.579C168.605 26.1302 167.726 26.8551 166.845 27.7558C165.96 28.6604 165.085 29.6828 164.22 30.8211C163.351 31.9634 162.515 33.1416 161.712 34.3538C159.848 37.1975 158.005 40.4425 156.183 44.085L155.813 44.8239L155.749 43.9832C155.579 41.7386 155.378 39.4241 155.144 37.0397C154.912 34.6673 154.511 32.5205 153.942 30.5975C153.376 28.6843 152.575 27.1147 151.539 25.8826C150.524 24.6764 149.135 24.0713 147.311 24.0693C145.553 24.0693 143.894 24.8861 142.309 26.5596C140.716 28.245 139.307 30.3978 138.085 33.0218C136.859 35.6498 135.846 38.5354 135.043 41.6787C134.24 44.8239 133.732 47.8373 133.522 50.721C133.31 53.6186 133.172 56.5382 133.108 59.4817C133.097 59.969 133.094 60.4483 133.094 60.9195C133.094 63.288 133.226 65.4507 133.489 67.4057C133.804 69.7482 134.35 71.6473 135.117 73.1071C135.494 73.824 135.951 74.3492 136.491 74.6987C137.032 75.0481 137.659 75.2239 138.39 75.2259C139.287 75.2239 140.094 74.7526 140.855 73.7401C141.624 72.7097 142.315 71.4196 142.926 69.87C143.537 68.3163 144.064 66.5969 144.509 64.7118C144.955 62.8167 145.357 61.0414 145.718 59.3819C146.079 57.7204 146.387 56.2826 146.642 55.0664C146.771 54.4533 146.894 53.9541 147.014 53.5667C147.137 53.1773 147.248 52.9037 147.391 52.714L147.696 52.3166L147.796 52.8238C148.004 53.8882 148.3 54.9885 148.678 56.1248C149.057 57.2611 149.474 58.2376 149.933 59.0644C150.635 60.3264 151.49 60.9595 152.557 61.0493C152.64 61.0553 152.722 61.0593 152.805 61.0593C153.782 61.0593 154.712 60.5821 155.628 59.5776L155.631 59.5736L155.635 59.5696C156.164 59.0304 156.638 58.3315 157.053 57.4608C157.475 56.5761 157.867 55.7034 158.226 54.8407C158.585 53.9761 158.915 53.1593 159.21 52.3905C159.515 51.6016 159.819 51.0285 160.153 50.6591L160.829 49.9142L160.537 50.9167C159.818 53.3889 159.225 55.8492 158.759 58.2975C158.293 60.7418 157.997 63.2201 157.87 65.7362V65.7402C157.838 66.2235 157.822 66.6888 157.822 67.1341C157.822 68.3942 157.954 69.5005 158.213 70.4571C158.567 71.7671 159.054 72.8215 159.667 73.6303C160.284 74.4451 160.993 75.0242 161.807 75.3816C162.63 75.7431 163.471 75.9248 164.334 75.9248C165.173 75.9248 165.904 75.7311 166.542 75.3497C167.179 74.9683 167.726 74.3951 168.188 73.6183C169.124 72.0367 169.947 69.8141 170.643 66.9504C171.343 64.0827 172.01 60.6499 172.647 56.654C173.285 52.6461 174.135 48.2527 175.199 43.474C175.324 42.8769 175.471 41.9922 175.642 40.826C175.81 39.6637 175.948 38.3817 176.053 36.9838C176.128 35.9853 176.166 34.9628 176.166 33.9164C176.166 33.5011 176.16 33.0837 176.148 32.6603C176.106 31.1786 175.937 29.8546 175.645 28.6824L175.644 28.6903Z" fill="white"/>
<path d="M278.206 35.7514C277.117 34.2197 275.686 33.4669 273.831 33.4629C272 33.4629 270.454 33.9981 269.157 35.0625C267.837 36.1488 266.761 37.357 265.927 38.689C264.964 40.2107 264.188 41.968 263.599 43.959L263.084 45.7004L263.147 43.8691C263.169 43.264 263.178 42.6769 263.178 42.1078C263.178 41.5387 263.167 40.9855 263.147 40.4503V40.4403C263.147 39.5097 263.116 38.6271 263.053 37.7943C262.991 36.9716 262.852 36.3945 262.672 36.0829L262.669 36.0769V36.0729C262.36 35.4679 262.003 35.0145 261.597 34.701C261.189 34.3875 260.732 34.2118 260.206 34.1678C260.125 34.1618 260.045 34.1578 259.967 34.1578C259.021 34.1598 258.196 34.6251 257.44 35.6196C256.959 36.2786 256.454 37.4289 255.95 39.0504C255.442 40.682 254.976 42.4193 254.552 44.2605C254.127 46.1057 253.758 47.893 253.438 49.6184C253.121 51.3518 252.876 52.6618 252.706 53.5525C252.394 55.1361 252.238 56.5679 252.238 57.846C252.238 58.2913 252.256 58.7186 252.294 59.126C252.443 60.7176 252.766 62.0456 253.259 63.108C253.756 64.1824 254.35 64.9891 255.038 65.5463C255.732 66.1095 256.444 66.427 257.188 66.5168C257.322 66.5328 257.454 66.5408 257.587 66.5408C258.18 66.5408 258.74 66.381 259.284 66.0555C259.942 65.6601 260.469 65.0491 260.879 64.1944V64.1904C261.126 63.6951 261.508 62.7485 262.016 61.3726C262.525 59.9927 263.109 58.4011 263.769 56.5999C264.427 54.7966 265.142 52.9114 265.907 50.9424C266.674 48.9734 267.417 47.1701 268.142 45.5266C268.867 43.8811 269.551 42.5272 270.198 41.4588C270.523 40.9216 270.824 40.5122 271.112 40.2266C271.398 39.9431 271.681 39.7693 271.984 39.7673C272.082 39.7673 272.185 39.7953 272.27 39.8572C272.356 39.9171 272.421 40.005 272.466 40.1008C272.555 40.2945 272.582 40.5222 272.584 40.8038C272.584 41.1173 272.544 41.5027 272.466 41.964C272.252 43.2321 271.957 44.8137 271.572 46.7108C271.192 48.602 270.82 50.6588 270.459 52.8775C270.12 54.9623 269.951 56.8994 269.951 58.6867C269.951 58.7945 269.951 58.9004 269.953 59.0062C269.973 60.8734 270.287 62.4111 270.882 63.6272C271.17 64.2183 271.561 64.6497 272.067 64.9432C272.573 65.2348 273.2 65.3885 273.96 65.3885C275.186 65.3885 276.29 64.6596 277.309 63.108C278.329 61.5484 279.149 59.5753 279.76 57.185C280.371 54.7946 280.761 52.2025 280.931 49.4087C280.976 48.6379 281 47.8831 281 47.1442C281 45.2071 280.84 43.3759 280.521 41.6485C280.081 39.2701 279.307 37.3071 278.206 35.7534V35.7514Z" fill="white"/>
<path d="M211.418 45.6565C210.336 46.3334 209.964 47.9789 210.026 49.267C210.06 49.9659 210.258 50.6789 210.664 51.226C211.119 51.8371 211.565 51.8411 212.225 51.8411C212.506 51.8411 212.673 52.1127 212.651 52.3763C212.754 51.5955 212.831 50.8146 212.861 50.0418C212.87 49.8082 212.874 49.5725 212.874 49.3389C212.874 48.3763 212.8 47.4178 212.662 46.4632C211.975 42.0639 210.414 37.6745 207.546 34.4814C204.926 31.5638 201.321 29.8344 197.639 29.3172C196.829 29.2034 196.006 29.1475 195.177 29.1475C192.365 29.1475 189.508 29.7925 186.95 30.9867C183.393 32.6482 180.707 35.5578 179.012 39.38C177.62 42.5192 176.82 45.958 176.82 49.4148C176.82 50.607 176.915 51.8012 177.114 52.9874C177.734 56.6937 179.072 60.2004 181.529 62.8444C184.995 66.5788 189.903 68.3681 194.782 68.3681C197.006 68.3681 199.224 67.9966 201.292 67.2717C204.442 66.1674 207.366 64.1564 209.4 61.2788C211.166 58.7846 212.212 55.6214 212.644 52.4402C212.627 52.5241 212.595 52.6039 212.537 52.6738C211.926 53.4007 210.882 52.9973 210.274 52.4602C209.531 51.8032 209.123 50.7767 208.996 49.7543C208.797 48.1407 209.344 44.9895 211.222 44.8677C211.609 44.8417 211.737 45.4568 211.416 45.6565H211.418ZM181.822 58.7267C180.067 58.3872 178.902 55.9768 178.809 54.1955C178.755 53.1531 179.029 51.9809 179.587 51.1302C179.835 50.7507 180.486 50.1417 180.881 50.5431C180.95 50.3454 181.104 50.1816 181.344 50.1576C183.345 49.9619 184.23 52.9394 184.406 54.6468C184.585 56.3942 183.931 59.136 181.824 58.7287L181.822 58.7267ZM188.222 46.9465C188.212 47.0643 188.157 47.1742 188.074 47.248C187.99 47.3219 187.882 47.3579 187.775 47.3459C187.668 47.3339 187.568 47.274 187.501 47.1802C187.434 47.0883 187.401 46.9685 187.414 46.8507C187.446 46.5172 187.374 46.1637 187.218 45.8761C187.06 45.5886 186.814 45.3509 186.531 45.2231C186.132 45.0454 185.635 45.0853 185.264 45.325C185.03 45.4767 184.83 45.7104 184.709 45.978C184.585 46.2456 184.535 46.5571 184.564 46.8546C184.576 46.9825 184.54 47.1103 184.462 47.2041C184.384 47.3 184.274 47.3539 184.156 47.3519C183.947 47.3479 183.775 47.1722 183.757 46.9445C183.712 46.4732 183.79 45.9959 183.984 45.5726C184.178 45.1492 184.48 44.7958 184.85 44.5561C185.448 44.1687 186.192 44.1068 186.835 44.3964C187.285 44.5981 187.664 44.9575 187.914 45.4148C188.163 45.8741 188.271 46.4153 188.221 46.9465H188.222ZM188.619 36.6082C188.378 38.2756 187.242 39.7274 185.652 39.8433C184.188 39.9491 182.829 38.5991 182.968 36.9457C183.092 35.4759 184.141 33.5688 185.619 33.5428C186.119 33.5348 186.139 34.2637 185.729 34.4394C184.879 34.8049 184.339 35.6157 184.107 36.5742C183.84 37.6686 184.457 38.723 185.548 38.683C186.544 38.6451 187.271 37.7484 187.512 36.744C187.707 35.9232 187.682 34.3416 186.611 34.3496C185.92 34.3536 185.922 33.1634 186.611 33.1694C188.255 33.1873 188.841 35.0685 188.619 36.6062V36.6082ZM197.996 48.6479C197.77 49.4527 197.271 50.1477 196.611 50.575C195.884 51.0463 194.985 51.1761 194.175 50.8746C193.716 50.7048 193.302 50.4053 192.98 50.0099C192.657 49.6145 192.429 49.1292 192.323 48.61C192.296 48.4802 192.323 48.3424 192.396 48.2366C192.468 48.1307 192.583 48.0648 192.704 48.0608C192.902 48.0528 193.076 48.2026 193.118 48.4163C193.192 48.7837 193.355 49.1332 193.583 49.4128C193.812 49.6923 194.111 49.91 194.434 50.0298C195.001 50.2395 195.674 50.1497 196.2 49.8082C196.68 49.4966 197.057 48.9714 197.222 48.3843C197.249 48.2645 197.32 48.1647 197.418 48.1048C197.516 48.0448 197.63 48.0309 197.737 48.0688C197.844 48.1048 197.931 48.1886 197.982 48.2985C198.033 48.4083 198.036 48.5361 197.998 48.6519L197.996 48.6479ZM193.823 47.1941C193.817 47.0384 193.846 46.8926 193.912 46.7568C193.953 46.617 194.024 46.4952 194.124 46.3933C194.216 46.2835 194.327 46.2056 194.454 46.1597C194.577 46.0878 194.709 46.0559 194.851 46.0618C195.036 46.0618 195.21 46.1138 195.369 46.2156C195.438 46.2755 195.509 46.3334 195.578 46.3933C195.705 46.5351 195.794 46.7009 195.843 46.8926C195.855 46.9924 195.868 47.0923 195.879 47.1941C195.884 47.3499 195.855 47.4957 195.79 47.6315C195.748 47.7713 195.678 47.8931 195.578 47.9949C195.485 48.1048 195.375 48.1826 195.248 48.2286C195.125 48.3005 194.994 48.3324 194.853 48.3264C194.668 48.3264 194.494 48.2745 194.334 48.1726C194.265 48.1127 194.194 48.0548 194.126 47.9949C193.999 47.8531 193.91 47.6874 193.861 47.4957L193.825 47.1941H193.823ZM199.133 33.1873C198.68 33.2413 198.272 32.9896 197.839 32.8658C197.371 32.73 196.89 32.6422 196.408 32.6102C195.491 32.5503 194.561 32.8199 193.656 32.728C193.382 32.7001 193.168 32.3167 193.413 32.079C194.187 31.3242 195.411 31.1744 196.408 31.1704C197.336 31.1664 198.917 31.2283 199.563 32.0431C199.927 32.5044 199.663 33.1234 199.133 33.1873ZM200.962 33.381C200.928 33.3411 200.892 33.3032 200.863 33.2572C200.841 33.2213 200.834 33.2073 200.832 33.2033C200.747 33.0755 200.665 32.9777 200.671 32.8059C200.676 32.5922 200.827 32.4485 201.004 32.4005C201.22 32.3446 201.04 32.4065 201.147 32.3686C201.202 32.3506 201.256 32.3426 201.312 32.3366C201.579 32.2428 201.873 32.3466 202.076 32.5663C202.259 32.764 202.306 33.0795 202.208 33.3351C202.105 33.6027 201.883 33.7525 201.624 33.7685C201.349 33.7844 201.1 33.6287 200.962 33.381ZM201.477 46.9445C201.432 46.4732 201.51 45.9959 201.704 45.5726C201.898 45.1492 202.201 44.7958 202.571 44.5561C203.171 44.1687 203.912 44.1068 204.556 44.3964C205.006 44.5981 205.384 44.9575 205.635 45.4148C205.883 45.8741 205.992 46.4153 205.941 46.9465C205.93 47.0643 205.876 47.1742 205.792 47.248C205.709 47.3239 205.6 47.3579 205.493 47.3459C205.386 47.3339 205.287 47.274 205.219 47.1802C205.152 47.0883 205.122 46.9685 205.132 46.8507C205.165 46.5172 205.094 46.1637 204.937 45.8761C204.781 45.5886 204.532 45.3509 204.249 45.2231C203.851 45.0454 203.354 45.0853 202.984 45.325C202.75 45.4767 202.551 45.7104 202.429 45.978C202.308 46.2456 202.255 46.5571 202.284 46.8546C202.297 46.9825 202.261 47.1103 202.183 47.2041C202.105 47.3 201.994 47.3539 201.878 47.3519C201.67 47.3479 201.497 47.1722 201.479 46.9445H201.477ZM206.775 59.3118C206.436 60.7875 205.087 61.8939 203.697 61.6602C202.275 61.4226 201.369 59.9348 201.68 58.3952C201.914 57.2309 203.111 55.5954 204.318 56.2724C204.4 56.0048 204.63 55.7871 204.949 55.869C206.351 56.2285 207.121 57.8001 206.773 59.3098L206.775 59.3118Z" fill="white"/>
<path d="M181.342 51.3219C181.119 51.3439 180.97 51.2321 180.894 51.0703C180.767 51.2081 180.58 51.3259 180.508 51.4118C180.055 51.949 179.886 52.8636 179.857 53.5705C179.799 54.9684 180.321 56.3264 181.336 57.1851C181.964 57.7143 182.662 57.7063 183.099 56.9035C183.436 56.2824 183.43 55.4697 183.365 54.7727C183.262 53.6564 182.696 51.1821 181.338 51.3219H181.342Z" fill="white"/>
<path d="M204.668 57.0034C204.485 56.9575 204.376 56.8377 204.324 56.6919C203.452 56.9395 202.779 57.5845 202.648 58.611C202.527 59.5635 203.011 60.4103 203.91 60.5201C205.738 60.7458 206.633 57.5027 204.67 57.0014L204.668 57.0034Z" fill="white"/>
<path d="M249.376 45.6564C248.293 46.3334 247.922 47.9789 247.985 49.2669C248.019 49.9659 248.217 50.6788 248.623 51.226C249.078 51.8371 249.524 51.841 250.184 51.841C250.467 51.841 250.634 52.1126 250.612 52.3782C250.715 51.5974 250.793 50.8166 250.822 50.0438C250.831 49.8101 250.835 49.5765 250.835 49.3428C250.835 48.3803 250.761 47.4197 250.623 46.4652C249.936 42.0659 248.375 37.6765 245.507 34.4833C242.889 31.5658 239.283 29.8364 235.6 29.3192C234.79 29.2053 233.967 29.1494 233.14 29.1494C230.328 29.1494 227.469 29.7944 224.913 30.9886C221.355 32.6501 218.67 35.5597 216.975 39.3819C215.583 42.5212 214.783 45.96 214.783 49.4167C214.783 50.6089 214.877 51.8031 215.077 52.9893C215.697 56.6957 217.035 60.2024 219.492 62.8464C222.958 66.5807 227.866 68.37 232.745 68.37C234.969 68.37 237.187 67.9986 239.255 67.2737C242.405 66.1693 245.329 64.1584 247.363 61.2808C249.129 58.7845 250.177 55.6233 250.607 52.4401C250.59 52.524 250.558 52.6059 250.5 52.6738C249.889 53.4007 248.844 52.9973 248.237 52.4601C247.494 51.8031 247.086 50.7767 246.959 49.7542C246.759 48.1407 247.307 44.9894 249.185 44.8676C249.571 44.8417 249.7 45.4567 249.379 45.6564H249.376ZM219.78 58.7266C218.025 58.3871 216.859 55.9768 216.767 54.1955C216.712 53.1531 216.984 51.9808 217.543 51.1301C217.791 50.7507 218.442 50.1416 218.837 50.543C218.906 50.3453 219.06 50.1816 219.299 50.1576C221.301 49.9619 222.186 52.9394 222.362 54.6468C222.541 56.3942 221.887 59.136 219.78 58.7286V58.7266ZM226.18 46.9465C226.169 47.0643 226.115 47.1741 226.031 47.248C225.948 47.3239 225.839 47.3578 225.732 47.3459C225.625 47.3339 225.525 47.274 225.458 47.1801C225.391 47.0882 225.359 46.9684 225.371 46.8506C225.404 46.5171 225.331 46.1636 225.175 45.8761C225.02 45.5885 224.771 45.3509 224.488 45.2231C224.089 45.0453 223.593 45.0853 223.221 45.3249C222.987 45.4767 222.788 45.7103 222.666 45.9779C222.545 46.2455 222.492 46.5571 222.521 46.8546C222.534 46.9824 222.498 47.1102 222.42 47.2041C222.342 47.2999 222.231 47.3538 222.115 47.3518C221.907 47.3479 221.734 47.1721 221.716 46.9445C221.671 46.4732 221.751 45.9959 221.945 45.5725C222.139 45.1492 222.441 44.7957 222.811 44.5561C223.411 44.1687 224.153 44.1068 224.797 44.3963C225.246 44.598 225.625 44.9575 225.875 45.4148C226.125 45.8741 226.234 46.4153 226.182 46.9465H226.18ZM226.577 36.6081C226.336 38.2756 225.199 39.7274 223.609 39.8432C222.144 39.9491 220.786 38.5991 220.926 36.9456C221.049 35.4758 222.099 33.5687 223.576 33.5428C224.077 33.5348 224.097 34.2637 223.687 34.4394C222.837 34.8049 222.298 35.6156 222.064 36.5742C221.8 37.6685 222.414 38.7229 223.507 38.683C224.501 38.645 225.23 37.7484 225.469 36.7439C225.665 35.9232 225.64 34.3416 224.568 34.3495C223.877 34.3535 223.879 33.1633 224.568 33.1693C226.212 33.1873 226.798 35.0685 226.577 36.6061V36.6081ZM235.954 48.6479C235.727 49.4527 235.229 50.1476 234.569 50.575C233.842 51.0463 232.942 51.1761 232.132 50.8745C231.673 50.7048 231.26 50.4052 230.937 50.0098C230.614 49.6144 230.386 49.1292 230.281 48.6099C230.254 48.4801 230.281 48.3424 230.353 48.2365C230.426 48.1307 230.54 48.0648 230.662 48.0608C230.859 48.0528 231.033 48.2026 231.073 48.4162C231.148 48.7837 231.311 49.1332 231.539 49.4127C231.768 49.6923 232.067 49.91 232.389 50.0298C232.957 50.2395 233.63 50.1496 234.155 49.8081C234.636 49.4966 235.013 48.9714 235.178 48.3843C235.205 48.2645 235.276 48.1646 235.374 48.1047C235.472 48.0448 235.586 48.0308 235.693 48.0688C235.8 48.1047 235.887 48.1886 235.936 48.2984C235.985 48.4082 235.992 48.5361 235.952 48.6519L235.954 48.6479ZM231.78 47.1941C231.775 47.0383 231.804 46.8925 231.869 46.7568C231.911 46.617 231.981 46.4951 232.081 46.3933C232.174 46.2835 232.284 46.2056 232.411 46.1597C232.534 46.0878 232.665 46.0558 232.806 46.0618C232.991 46.0618 233.165 46.1137 233.325 46.2156C233.394 46.2755 233.465 46.3334 233.533 46.3933C233.66 46.5351 233.749 46.7008 233.798 46.8925C233.811 46.9924 233.822 47.0922 233.834 47.1941C233.84 47.3499 233.811 47.4956 233.746 47.6314C233.704 47.7712 233.633 47.893 233.533 47.9949C233.441 48.1047 233.33 48.1826 233.202 48.2285C233.078 48.3004 232.948 48.3324 232.806 48.3264C232.621 48.3264 232.447 48.2745 232.288 48.1726C232.219 48.1127 232.148 48.0548 232.079 47.9949C231.952 47.8531 231.864 47.6873 231.815 47.4956L231.778 47.1941H231.78ZM237.091 33.1873C236.637 33.2412 236.229 32.9896 235.796 32.8658C235.328 32.73 234.848 32.6421 234.366 32.6102C233.448 32.5503 232.518 32.8199 231.613 32.728C231.34 32.7 231.126 32.3166 231.371 32.079C232.145 31.3241 233.368 31.1743 234.367 31.1704C235.294 31.1664 236.877 31.2283 237.522 32.043C237.887 32.5043 237.622 33.1234 237.092 33.1873H237.091ZM238.92 33.381C238.885 33.3411 238.849 33.3031 238.82 33.2572C238.802 33.2272 238.793 33.2133 238.791 33.2073C238.706 33.0775 238.623 32.9796 238.628 32.8079C238.635 32.5942 238.784 32.4504 238.962 32.4025C239.177 32.3466 238.998 32.4085 239.105 32.3705C239.159 32.3526 239.214 32.3446 239.27 32.3386C239.536 32.2447 239.83 32.3486 240.033 32.5682C240.216 32.7659 240.263 33.0815 240.165 33.3371C240.062 33.6047 239.841 33.7544 239.582 33.7704C239.306 33.7864 239.058 33.6306 238.92 33.383V33.381ZM239.435 46.9445C239.39 46.4732 239.467 45.9959 239.661 45.5725C239.855 45.1492 240.158 44.7957 240.528 44.5561C241.126 44.1687 241.87 44.1068 242.513 44.3963C242.963 44.598 243.344 44.9575 243.592 45.4148C243.84 45.8721 243.949 46.4153 243.898 46.9465C243.888 47.0643 243.833 47.1741 243.75 47.248C243.666 47.3239 243.558 47.3578 243.451 47.3459C243.344 47.3339 243.244 47.274 243.177 47.1801C243.11 47.0882 243.077 46.9684 243.09 46.8506C243.123 46.5171 243.052 46.1636 242.894 45.8761C242.736 45.5885 242.49 45.3509 242.207 45.2231C241.808 45.0453 241.311 45.0853 240.94 45.3249C240.706 45.4767 240.506 45.7103 240.385 45.9779C240.262 46.2455 240.211 46.5571 240.24 46.8546C240.252 46.9824 240.216 47.1102 240.138 47.2041C240.06 47.2999 239.95 47.3538 239.832 47.3518C239.623 47.3479 239.451 47.1721 239.433 46.9445H239.435ZM244.732 59.3117C244.395 60.7875 243.045 61.8938 241.654 61.6602C240.233 61.4225 239.328 59.9348 239.638 58.3951C239.872 57.2309 241.068 55.5954 242.276 56.2723C242.357 56.0047 242.588 55.7871 242.909 55.869C244.31 56.2284 245.079 57.8 244.732 59.3097V59.3117Z" fill="white"/>
<path d="M219.299 51.3219C219.076 51.3439 218.927 51.2321 218.853 51.0703C218.726 51.2081 218.539 51.3259 218.467 51.4118C218.013 51.949 217.845 52.8636 217.816 53.5705C217.759 54.9684 218.28 56.3264 219.295 57.1851C219.922 57.7143 220.62 57.7063 221.057 56.9035C221.395 56.2824 221.389 55.4697 221.326 54.7727C221.222 53.6564 220.655 51.1821 219.299 51.3219Z" fill="white"/>
<path d="M242.626 57.0034C242.443 56.9575 242.334 56.8377 242.281 56.6919C241.409 56.9395 240.736 57.5845 240.606 58.611C240.486 59.5635 240.969 60.4103 241.868 60.5201C243.695 60.7458 244.591 57.5027 242.627 57.0014L242.626 57.0034Z" fill="white"/>
</g>
<defs>
<clipPath id="clip0_354_629">
<rect width="281" height="57.2853" fill="white" transform="translate(0 21.3574)"/>
</clipPath>
</defs>
</svg>
