<?xml version="1.0" encoding="UTF-8"?>
<svg id="Layer_2" data-name="Layer 2" xmlns="http://www.w3.org/2000/svg" viewBox="0 0 384 384">
  <defs>
    <style>
      .cls-1 {
        fill: #fff;
        stroke-width: 0px;
      }
    </style>
  </defs>
  <g id="Layer_1-2" data-name="Layer 1">
    <path class="cls-1" d="m361.5,0h7.5c7.65,2.35,12.58,7.42,15,15v7.5c-1.8,5.64-5.66,9.77-9.75,13.86-50.86,50.77-101.66,101.6-152.47,152.41-1.03,1.03-2.01,2.1-3.41,3.56,1.41,1.21,2.61,2.12,3.66,3.17,50.65,50.63,101.27,101.28,151.95,151.87,4.18,4.17,8.14,8.38,10.02,14.12v7.5c-2.4,7.6-7.42,12.58-15,15h-7.5c-5.64-1.81-9.77-5.67-13.86-9.76-50.77-50.86-101.6-101.66-152.42-152.47-1.03-1.03-2.1-2.01-3.72-3.55-1.15,1.47-1.97,2.76-3.02,3.81-50.71,50.74-101.45,101.45-152.14,152.22-4.09,4.09-8.21,7.96-13.86,9.75h-7.5c-7.52-2.48-12.62-7.38-15-15v-7.5c1.83-5.63,5.67-9.77,9.77-13.86,50.86-50.77,101.66-101.6,152.48-152.42,1.03-1.03,2.01-2.1,3.57-3.73-1.56-1.24-2.94-2.14-4.08-3.28C110.98,137.51,60.27,86.77,9.5,36.09,5.49,32.09,1.76,28.01,0,22.5v-7.5C2.38,7.38,7.39,2.39,15,0h7.5c5.53,1.74,9.59,5.48,13.59,9.49,50.86,50.95,101.78,101.83,152.65,152.77,1.03,1.03,1.51,2.6,2.25,3.91.59-.22,1.17-.43,1.76-.65,1.01-1.27,1.9-2.66,3.03-3.8,50.71-50.75,101.45-101.46,152.13-152.23,4-4.01,8.07-7.75,13.59-9.5Z"/>
  </g>
</svg>