<?xml version="1.0" encoding="utf-8"?>
<!-- Generator: Adobe Illustrator 24.0.2, SVG Export Plug-In . SVG Version: 6.00 Build 0)  -->
<svg version="1.1" id="Layer_1" xmlns="http://www.w3.org/2000/svg" xmlns:xlink="http://www.w3.org/1999/xlink" x="0px" y="0px"
	 viewBox="0 0 1080 1080" style="enable-background:new 0 0 1080 1080;" xml:space="preserve">
<g>
	<path d="M502.05,87.17c23.54,0,47.08,0,70.62,0c0.35,1.39,1.4,1.58,2.63,1.67c68.2,5.06,132.27,24.31,190.58,59.86
		c139.91,85.29,215.88,210.19,224.6,373.98c4.69,88.11-16.42,171.27-62.92,246.42c-86.2,139.31-211.88,214.63-375.81,221.37
		c-108.1,4.45-205.73-28.69-290.77-95.87C167,820.36,110.67,723.6,92,605.07c-1.52-9.63-0.78-19.67-4.82-28.87
		c0-24.72,0-49.43,0-74.15c2.36-0.72,1.66-2.77,1.82-4.37c1.9-18.41,4.73-36.66,8.55-54.8c38.17-181.02,191.76-324.72,374.76-350.79
		C482.23,90.67,492.55,91.28,502.05,87.17z M716.52,399.35c0.04-19.11-14.01-34.94-33.09-37.27c-13.3-1.62-24,3.33-33.27,12.64
		c-34.88,35.03-70.01,69.81-104.69,105.03c-5.3,5.39-8.05,5.17-12.85-0.23c-7.62-8.55-16.1-16.34-24.22-24.45
		c-27.05-27.04-54.03-54.16-81.19-81.1c-13.81-13.69-32.24-16.12-47.48-6.74c-21.35,13.14-24.32,41.22-5.9,59.81
		c35.01,35.31,70.13,70.52,105.59,105.37c5.67,5.58,5.26,8.19-0.13,13.51c-35.21,34.69-70.09,69.72-104.97,104.75
		c-15.43,15.5-16.87,36.99-3.84,52.48c14.64,17.39,39.67,18.04,56.86,0.98c35.51-35.23,70.89-70.59,106.02-106.19
		c4.74-4.8,7.1-4.63,11.61,0.09c13.61,14.26,27.76,27.99,41.7,41.93c21.64,21.64,43.07,43.49,64.97,64.86
		c20.96,20.45,54.02,12.98,62.85-14.07c5.18-15.87,0.42-29.29-11.24-40.89c-35.04-34.86-69.82-70-105.02-104.7
		c-5.1-5.03-4.54-7.53,0.19-12.21c34.94-34.55,69.54-69.44,104.38-104.09C711.08,420.62,716.48,411.3,716.52,399.35z"/>
</g>
</svg>
