<svg width="103" height="41" viewBox="0 0 103 41" fill="none" xmlns="http://www.w3.org/2000/svg">
<g clip-path="url(#clip0_307_582)">
<path d="M92.0831 18.7581C101.286 16.3052 102.036 9.4302 102.087 7.88149C100.078 6.86201 88.5155 2.00812 79.6033 17.6494L79.4722 17.5552C77.9385 16.4594 76.3721 15.3847 74.8233 14.3669C70.8247 11.6851 62.7026 6.69805 53.2284 3.41396C46.6942 1.14773 40.4725 0 34.7336 0C33.2213 0 31.7204 0.0811688 30.2749 0.24026C21.5845 1.19643 14.0901 5.03409 7.9995 11.6429C4.33985 15.2841 2.12945 18.8084 1.13262 20.5942L0.5 21.7419L1.18177 22.8474C2.1786 24.4562 4.38018 27.6445 7.92893 30.9188C12.3334 34.9805 17.3578 37.862 22.8637 39.4805C26.2876 40.4886 29.9183 40.9984 33.6536 40.9984C37.7959 40.9984 42.1474 40.3718 46.5846 39.1347C51.4906 37.7679 56.6335 35.625 61.8696 32.7646C67.5582 29.6558 73.5026 25.6234 79.534 20.7808L79.6638 20.677C89.1771 35.7192 100.535 30.1185 102.5 28.9692C102.389 27.4253 101.371 20.6088 92.0831 18.7565V18.7581ZM60.7354 29.3182C55.6669 32.086 50.7004 34.1591 45.9708 35.4773C41.7302 36.6575 37.5867 37.2565 33.6523 37.2565C30.1351 37.2565 26.7224 36.7776 23.5101 35.8328C18.3836 34.3247 13.7095 31.6477 9.62013 27.8766C7.03922 25.4951 5.24468 23.1786 4.17603 21.6201C5.25477 19.875 7.11105 17.2403 9.86335 14.5211L10.8488 13.5308L10.8287 13.4968C17.2381 7.04545 25.3047 3.7776 34.8243 3.7776C40.3251 3.7776 46.2607 4.86851 52.4672 7.01786C60.341 9.74675 67.2192 13.6282 71.9059 16.6429L71.9009 16.6558L73.0363 17.3945C73.3854 17.6218 73.7357 17.8523 74.0873 18.086C74.8031 18.5747 75.3891 18.9886 75.834 19.3101C70.6709 23.3003 65.6011 26.6607 60.7367 29.3182H60.7354Z" fill="white"/>
<path d="M16.4242 15.8476C15.2207 15.8865 14.2693 17.1755 14.2995 18.7258C14.331 20.2762 15.3316 21.5018 16.5351 21.4628C17.7386 21.4239 18.6901 20.1349 18.6599 18.5846C18.6296 17.0343 17.629 15.8086 16.4242 15.8476Z" fill="white"/>
<path d="M41.5567 13.3312C39.0376 11.3426 36.5323 11.1981 35.2632 11.289L35.3615 13.5585C36.4251 13.4822 38.5259 13.604 40.6368 15.2696C42.42 16.677 43.4344 18.5812 43.9511 19.841C43.3891 21.1202 42.2864 23.039 40.3633 24.3442C38.2398 25.7858 36.2021 25.7338 35.1763 25.5764L34.9658 27.8329C35.2973 27.8848 35.7169 27.927 36.2033 27.927C37.5203 27.927 39.3249 27.6186 41.1862 26.3556C43.8112 24.5731 45.1622 21.8394 45.733 20.367L45.9233 19.8767L45.7444 19.3799C45.2264 17.9449 43.994 15.2517 41.5605 13.3312H41.5567Z" fill="white"/>
</g>
<defs>
<clipPath id="clip0_307_582">
<rect width="102" height="41" fill="white" transform="translate(0.5)"/>
</clipPath>
</defs>
</svg>
