<svg width="200" height="122" viewBox="0 0 200 122" fill="none" xmlns="http://www.w3.org/2000/svg">
<g clip-path="url(#clip0_104_102)">
<path d="M134.343 47.8082L131.962 53.3276L136.8 53.7383L135.382 47.8964L134.343 47.8082Z" fill="white"/>
<path d="M198.45 25.9403C199.01 19.3345 196.08 15.8816 189.435 15.3176C132.572 10.4913 75.7119 5.66525 18.8491 0.838959C12.0967 0.265839 8.69635 3.16054 8.11932 9.95897C4.80389 49.021 6.43204 29.8384 3.1166 68.9004C2.51316 76.0102 5.28633 79.3034 12.3839 79.9088C16.0995 80.2242 19.8187 80.4981 23.5265 80.8695C28.6468 81.3817 31.2091 84.4391 30.85 89.5181C30.7531 90.8715 30.6265 92.2225 30.5117 93.5745C30.1149 98.2501 29.718 102.926 29.2781 108.108C30.2833 107.501 30.8372 107.192 31.3647 106.843C41.2711 100.287 51.2254 93.8036 61.0463 87.1239C63.9488 85.1485 66.857 84.4845 70.325 84.7848C107.821 88.036 145.324 91.1953 182.829 94.3756C189.364 94.9302 192.842 92.0063 193.393 85.5221C196.726 46.2496 195.116 65.2158 198.449 25.9432L198.45 25.9403ZM45.0469 52.798L39.0626 52.2901L39.6177 45.7496L32.5735 45.1517L32.0184 51.6922L26.0341 51.1843L27.5681 33.1105L33.5524 33.6184L32.9973 40.1589L40.0415 40.7568L40.5966 34.2163L46.5809 34.7242L45.0469 52.798ZM54.4938 53.5998L48.5095 53.0919L50.0435 35.0181L56.0278 35.526L54.4938 53.5998ZM81.179 55.8648L65.5156 54.5353L67.0496 36.4615L73.0339 36.9695L71.9217 50.0741L81.6008 50.8957L81.179 55.8648ZM99.3314 57.4055L98.7333 54.9478L90.9567 54.2878L89.953 56.6095L83.7752 56.0851L91.9872 38.5781L100.371 39.2897L105.512 57.9301L99.3344 57.4057L99.3314 57.4055ZM110.032 58.3137L104.888 39.6731L111.066 40.1974L114.371 53.047L115.02 53.1021L120.444 40.9934L126.622 41.5178L118.413 59.025L110.029 58.3134L110.032 58.3137ZM138.491 60.7292L137.893 58.2716L130.117 57.6115L129.113 59.9332L122.935 59.4089L131.147 41.9019L139.531 42.6135L144.672 61.2538L138.494 60.7295L138.491 60.7292ZM155.318 62.7636C149.053 62.211 146.258 60.0208 146.808 55.3432L152.188 55.7999C152.149 57.0329 153.122 57.8739 155.713 58.1147C158.001 58.3298 159.115 57.7734 159.186 56.9373C159.236 56.3562 158.962 55.7268 157.213 55.3185L154.91 54.7557C151.521 53.9038 147.429 53.1473 147.822 48.5192C148.125 44.9465 151.229 43.0002 156.996 43.4896C162.203 43.9316 165.71 45.6806 165.165 50.8363L159.83 50.3834C159.718 49.1585 158.763 48.319 156.474 48.1247C154.485 47.9559 153.615 48.4883 153.546 49.3066C153.502 49.8225 153.773 50.4756 155.137 50.8063L157.033 51.2927C160.59 52.2009 165.529 52.7306 165.109 57.6789C164.775 61.6163 161.539 63.3125 155.318 62.7636ZM170.709 63.8101C169.089 63.6727 167.839 62.2227 167.974 60.6306C168.109 59.0385 169.583 57.8198 171.206 57.9575C172.825 58.095 174.073 59.5446 173.938 61.1368C173.802 62.7289 172.329 63.9476 170.709 63.8101ZM173.242 56.7865L169.396 56.4601L169.182 45.1301L175.36 45.6545L173.239 56.7863L173.242 56.7865Z" fill="white"/>
<path d="M95.1863 44.4847L92.8017 50.0039L97.6427 50.4148L96.2224 44.5727L95.1863 44.4847Z" fill="white"/>
</g>
<defs>
<clipPath id="clip0_104_102">
<rect width="191" height="106" fill="white" transform="translate(8.9646) rotate(4.85141)"/>
</clipPath>
</defs>
</svg>
