<?xml version="1.0" encoding="utf-8"?>
<!-- Generator: Adobe Illustrator 27.4.0, SVG Export Plug-In . SVG Version: 6.00 Build 0)  -->
<svg version="1.1" id="Layer_2_00000109714299663442494350000010616301665117609638_"
	 xmlns="http://www.w3.org/2000/svg" xmlns:xlink="http://www.w3.org/1999/xlink" x="0px" y="0px" viewBox="0 0 350.2 54.5"
	 style="enable-background:new 0 0 350.2 54.5;" xml:space="preserve">
<style type="text/css">
	.st0{fill:#838383;}
</style>
<g id="Layer_1-2">
	<g>
		<path class="st0" d="M247.1,0.1c0.4,0,0.9,0,1.2,0c5.5,0,11.1-0.1,16.6,0c11,0.2,19.2,7.8,20,18.1c0.4,4.7,0.1,9.4,0.2,14
			c0.1,4.6-0.6,9-3.2,12.9c-3.6,5.4-8.6,8.6-15.1,9c-6.3,0.4-12.7,0.2-19,0.3c-0.6,0-0.9-0.1-0.9-0.8c0-17.7,0-35.4,0.1-53.1
			C247,0.4,247,0.3,247.1,0.1L247.1,0.1z M256.9,27.2L256.9,27.2c0,4.9,0,9.8,0,14.7c0,2.2,0.8,3.2,3,3.6c0.9,0.2,1.8,0.2,2.7,0.2
			c6.6,0.3,13-5.6,12.9-12.8c-0.1-3.9-0.1-7.8,0-11.6c0-3.5-1.2-6.5-3.7-8.9c-3.3-3.3-7.4-4.1-11.8-3.5c-2,0.2-3,1.5-3,3.6
			C256.9,17.4,256.9,22.3,256.9,27.2L256.9,27.2z"/>
		<path class="st0" d="M239.1,27.1c0,3.3,0.2,6.6,0,9.9c-0.5,7.9-5.4,14.1-13.1,16.3c-6.6,2-13.1,1.6-19.2-1.8
			c-5.1-2.8-7.9-7.3-8.8-13c-0.3-1.9-0.4-3.8-0.4-5.8c-0.1-4.3-0.1-8.6,0-12.8c0.1-5,1.4-9.6,4.8-13.4c2.7-2.9,6-4.7,9.9-5.6
			c5.6-1.3,11.1-1.1,16.3,1.3c6.3,2.9,9.8,8,10.4,14.9C239.4,20.3,239.1,23.7,239.1,27.1C239.1,27.1,239.1,27.1,239.1,27.1
			L239.1,27.1z M229.4,27.1C229.4,27.1,229.4,27.1,229.4,27.1c0-1.3,0.1-2.6,0-3.9c-0.1-2.2,0-4.5-0.5-6.6
			c-2.1-8.1-12.3-9.8-17.6-5.1c-3.2,2.9-4,6.5-3.9,10.5c0.1,3.8,0.1,7.6,0,11.4c0,4.8,1.5,8.6,6.1,10.9c6.5,3.4,14.8-0.4,15.8-8.4
			C229.7,33.1,229.4,30,229.4,27.1L229.4,27.1z"/>
		<path class="st0" d="M148.4,27.4c0-2.7,0-5.4,0-8.2c0-9.7,6.7-17.3,16.3-18.8c5.5-0.8,10.8-0.4,15.8,2.3c5.4,3,8.6,7.6,9.1,13.7
			c0.5,5.7,0.4,11.5,0.4,17.3c0,2.5-0.4,5-1.1,7.4c-1.6,5.6-5.3,9.5-10.7,11.5c-6.8,2.5-13.6,2.4-20.1-0.9
			c-5.7-2.9-8.8-7.7-9.5-13.9c-0.4-3.5-0.1-7-0.1-10.6H148.4L148.4,27.4z M158.3,27.8C158.3,27.8,158.3,27.8,158.3,27.8
			c-0.1,2.2-0.1,4.5-0.1,6.7c0,0.8,0,1.5,0.1,2.2c0.9,5.2,5.9,9.1,10.9,8.9c6.4-0.3,10.5-5.2,10.8-10.2c0.1-1.8,0-3.6,0-5.4
			c0-3.6,0.1-7.2-0.1-10.8c-0.1-2.8-1.3-5.4-3.4-7.3c-3.3-3-7.2-3.7-11.4-2.3c-4.2,1.4-6.4,4.7-6.9,8.9
			C158,21.6,158.3,24.7,158.3,27.8L158.3,27.8z"/>
		<path class="st0" d="M315.4,27.3c0-8.6,0-17.3,0-25.9c0-0.9,0.5-1.3,1.4-1.3c10.7,0,21.4,0,32.2,0c1,0,1.2,0.3,1.2,1.2
			c-0.1,2.1-0.1,4.2,0,6.2c0,1-0.2,1.3-1.2,1.3c-6.3,0-12.6,0-18.9,0c-3.3,0-4.7,1.4-4.7,4.7c0,1.8,0,3.7,0,5.5c0,2.7,1.3,4.1,4,4.1
			c6.5,0,13,0,19.5,0c0.9,0,1.3,0.5,1.3,1.4c0,2,0,4,0,6c0,0.8-0.2,1.1-1.1,1.1c-6.2,0-12.4,0-18.6,0c-0.7,0-1.4,0.1-2,0.2
			c-1.8,0.4-3,1.8-3,3.8c0,2,0,4.1,0,6.1c0.1,2.3,1.9,3.9,4.5,4c2.7,0.1,5.4,0,8.1,0c3.7,0,7.4,0,11.2,0c0.9,0,1.1,0.3,1.1,1.1
			c0,2.2,0,4.3,0,6.5c0,0.8-0.2,1.1-1,1.1c-10.9,0-21.9,0-32.8,0c-1,0-0.9-0.5-0.9-1.2C315.4,44.6,315.4,36,315.4,27.3L315.4,27.3
			L315.4,27.3z"/>
		<path class="st0" d="M15.3,29.8c-0.6,0.6-1,1.2-1.5,1.7c-1.2,1.5-2.5,2.9-3.7,4.4c-0.4,0.5-0.7,1.1-0.7,1.7c0,4.6,0,9.2,0,13.8
			c0,3.1-0.1,3.1-3.1,3.1c-1.6,0-3.2,0-4.8,0c-1.5,0-1.6-0.2-1.6-1.6C0,35.8,0,18.7,0,1.6C0,0.1,0.1,0,1.6,0c2,0,4,0,6,0
			C9,0,9.4,0.5,9.4,1.8c0,6.9,0,13.8,0,20.7c0,0.5,0,1,0.1,1.7c1.2-1.4,2.3-2.6,3.3-3.8c5.3-6.3,10.6-12.5,15.9-18.8
			c0.9-1,1.9-1.6,3.2-1.6c1.8,0.1,3.5,0,5.3,0c0.3,0,0.6-0.1,0.9,0c0.6,0.2,1.2,0.4,1.8,0.6c-0.3,0.5-0.4,1-0.8,1.5
			c-5,6.2-10.1,12.4-15.2,18.6c-0.3,0.3-0.6,0.7-0.8,1c-1.3,1.7-1.3,1.7-0.1,3.5c5.8,9,11.6,18,17.4,27c0.1,0.2,0.3,0.4,0.4,0.6
			c0.5,0.9,0.2,1.5-0.8,1.5c-2.6,0.1-5.3,0.1-7.9,0c-0.7,0-1.5-0.7-1.9-1.3c-4.6-7-9.2-14.1-13.7-21.2
			C16.2,31.2,15.8,30.6,15.3,29.8L15.3,29.8z"/>
		<path class="st0" d="M106,0.1h34.7c0,0.6,0.1,1.1,0.1,1.7c0,1.9-0.1,3.9,0,5.8c0,0.9-0.3,1.1-1.1,1.1c-6.3,0-12.6,0-18.8,0
			c-0.7,0-1.4,0.1-2.1,0.2c-1.6,0.4-2.8,1.8-2.9,3.6c-0.1,2.3-0.1,4.6,0,6.9c0.1,2.2,1.8,3.6,4.2,3.6c5.4,0,10.9,0,16.3,0.1
			c1.2,0,2.4,0,3.6,0c0.7,0,0.9,0.3,0.9,0.9c0,2.2,0,4.5,0,6.7c0,0.7-0.4,0.8-1,0.8c-3,0-6,0-9,0c-3.3,0-6.6,0-9.9,0
			c-3.4,0-5,1.5-5,4.9c-0.1,5.5,0,11.1,0,16.6c0,1.3,0,1.3-1.4,1.3c-2.4,0-4.8,0-7.3,0c-0.8,0-1.1-0.2-1.1-1.1c0-16.8,0-33.6,0-50.4
			C106,2.1,106,1.1,106,0.1L106,0.1z"/>
		<path class="st0" d="M49.5,27.1c0-8.3,0-16.6,0-24.9c0-1.9,0.4-2.2,2.3-2.2c2,0,4,0,6,0C58.7,0,59,0.3,59,1.1c0,0.3,0,0.7,0,1
			c0,14.3,0,28.5,0,42.8c0,1.4,0,1.4,1.4,1.4c5.6,0,11.1,0,16.7,0c2.5,0,5,0,7.5,0c1.6,0,2,0.4,2,1.9c0,1.6,0,3.1,0,4.7
			c-0.1,1.2-0.4,1.5-1.6,1.5c-11.4,0-22.7,0-34.1,0c-0.8,0-1.2-0.4-1.3-1.1c-0.1-0.7-0.1-1.4-0.1-2C49.5,43.2,49.5,35.2,49.5,27.1
			C49.5,27.1,49.5,27.1,49.5,27.1L49.5,27.1z"/>
		<path class="st0" d="M295.3,0.1c3.2,0,6.2,0,9.3,0c0.2,0,0.5,0.3,0.6,0.6c0.1,0.2,0,0.5,0,0.7c0,17.3,0,34.5,0,51.8
			c0,0.9-0.2,1.3-1.2,1.3c-2.6,0-5.2,0-7.8,0c-0.7,0-1-0.1-1-0.9c0-17.3,0-34.6,0-51.9C295.3,1.2,295.3,0.7,295.3,0.1L295.3,0.1z"/>
	</g>
</g>
</svg>
