<svg width="54" height="27" viewBox="0 0 54 27" fill="none" xmlns="http://www.w3.org/2000/svg">
<g clip-path="url(#clip0_523_693)">
<path d="M3.19195 6.40654C6.58512 4.3228 9.80099 4.48817 12.9178 6.92704C12.9073 6.85045 12.8986 6.78778 12.8882 6.72511C12.7631 5.97656 13.1942 5.24716 13.8964 5.0226C14.6526 4.78063 15.4157 5.12357 15.7651 5.83033C17.307 8.93593 18.8558 12.038 20.4046 15.1419C20.4203 15.1732 20.4498 15.1976 20.4985 15.2585C20.568 15.1332 20.6341 15.027 20.6897 14.9156C22.1968 11.8866 23.7057 8.85759 25.2111 5.82859C25.5691 5.10964 26.3305 4.77889 27.0815 5.02086C27.8029 5.25413 28.2183 5.97482 28.081 6.75644C28.0706 6.81563 28.0636 6.87482 28.0427 7.01234C30.1496 5.12531 32.5571 4.55955 35.2028 5.2315C37.8746 5.91041 39.5694 7.71737 40.5551 10.2851C40.6194 10.1232 40.675 9.99086 40.7254 9.85682C42.608 4.87115 49.0641 3.33402 52.9631 6.94445C53.8861 7.79918 53.9035 8.67481 53.017 9.5574C51.6593 10.9083 50.2983 12.2539 48.9459 13.6083C48.5478 14.0069 48.0854 14.2053 47.5274 14.1235C46.9381 14.0365 46.507 13.7144 46.3106 13.1469C46.0985 12.5342 46.2028 11.9597 46.6652 11.4897C47.5795 10.5601 48.5061 9.64096 49.4274 8.71659C49.5108 8.63303 49.589 8.54425 49.6985 8.42936C48.819 8.02375 47.9324 7.94889 47.0337 8.10731C44.8678 8.48854 43.2981 10.3773 43.2946 12.5707C43.2912 14.7641 44.8521 16.6773 47.0094 17.0585C48.5165 17.3249 49.8567 16.9402 50.9901 15.88C51.19 15.6937 51.4299 15.5162 51.6819 15.4257C52.3686 15.1819 53.1126 15.4761 53.488 16.0941C53.8513 16.6895 53.7592 17.445 53.2377 17.9742C52.0818 19.1492 50.6911 19.8717 49.0588 20.131C45.5475 20.6864 42.1022 18.7454 40.7706 15.4518C40.7028 15.2846 40.6402 15.114 40.5551 14.8877C39.6511 17.3144 38.0762 19.0465 35.6444 19.8316C33.2194 20.615 30.9057 20.2616 28.7259 18.7506C28.7259 18.9316 28.7259 19.057 28.7259 19.1823C28.7259 21.0606 28.7311 22.939 28.7224 24.8173C28.719 25.5867 28.1436 26.2117 27.3839 26.3179C26.6556 26.4188 25.9307 25.9645 25.7169 25.2473C25.6595 25.054 25.6508 24.8399 25.6508 24.6345C25.6508 20.4392 25.6578 16.2438 25.663 12.0485C25.663 12.0154 25.6508 11.9823 25.63 11.8866C25.557 12.0032 25.5048 12.0746 25.4666 12.1529C23.3041 16.5015 21.1434 20.85 18.981 25.1985C18.5829 25.9993 17.9867 26.3979 17.3087 26.3301C16.1701 26.2169 15.5826 25.0419 16.1302 23.9243C16.6934 22.7771 17.2861 21.6455 17.8685 20.5071C18.1396 19.9761 18.4212 19.4504 18.6785 18.9125C18.7324 18.8011 18.7515 18.6235 18.6994 18.5173C17.6286 16.3448 16.5456 14.1792 15.4644 12.0119C15.4557 11.9928 15.4279 11.9823 15.3497 11.9232C15.3583 12.1112 15.3705 12.2574 15.3705 12.4019C15.3723 14.5117 15.3844 16.6216 15.3705 18.7314C15.3636 19.6628 14.7326 20.2338 13.7939 20.2146C12.8708 20.1955 12.2868 19.6158 12.2868 18.6949C12.285 16.5728 12.2798 14.4508 12.2955 12.3288C12.3094 10.4139 10.7049 8.54077 8.66414 8.12297C6.28787 7.63729 3.91857 9.08042 3.31711 11.3922C3.23889 11.6951 3.19891 12.0172 3.19717 12.3305C3.18674 14.416 3.19369 16.5015 3.19195 18.587C3.19195 19.7829 2.28804 20.467 1.14076 20.145C0.551471 19.9796 0.189904 19.5601 0.113418 18.9508C0.0995118 18.8429 0.0925586 18.7314 0.0925586 18.6218C0.0908203 13.1243 0.0942969 7.6251 0.0908203 2.12416C0.0908203 1.45569 0.349828 0.936929 0.944328 0.621843C1.96819 0.0804529 3.17631 0.828999 3.18848 2.01797C3.20238 3.33576 3.19195 4.65181 3.19195 5.9696C3.19195 6.1019 3.19195 6.2342 3.19195 6.40828V6.40654ZM28.7276 12.6038C28.5521 14.6458 30.4486 17.1682 33.2716 17.1421C35.7938 17.1177 37.8103 15.0705 37.7877 12.5498C37.7651 10.0309 35.74 8.03593 33.2333 8.03593C30.4573 8.03593 28.5555 10.4713 28.7276 12.6038Z" fill="white" fill-opacity="0.5"/>
<path d="M33.8936 14.2209V10.4312L36.8296 12.3269L33.8936 14.2209Z" fill="white" fill-opacity="0.5"/>
<path d="M30.957 14.2209V10.4312L33.893 12.3269L30.957 14.2209Z" fill="white" fill-opacity="0.5"/>
</g>
<defs>
<clipPath id="clip0_523_693">
<rect width="53.6197" height="25.898" fill="white" transform="translate(0.0898438 0.442383)"/>
</clipPath>
</defs>
</svg>
