<svg width="82" height="27" viewBox="0 0 82 27" fill="none" xmlns="http://www.w3.org/2000/svg">
<g clip-path="url(#clip0_523_633)">
<path d="M34.4022 0.271729C34.3351 0.282918 34.268 0.299702 34.2064 0.299702C32.8189 0.299702 31.4258 0.299702 30.0384 0.299702C29.7306 0.299702 29.4285 0.305297 29.1208 0.299702C29.0313 0.299702 28.9418 0.282918 28.8467 0.271729C30.6985 0.271729 32.5504 0.271729 34.4022 0.271729Z" fill="white" fill-opacity="0.5"/>
<path d="M30.5378 9.74949C30.5098 9.72711 30.4818 9.71033 30.4426 9.67676C30.3923 9.79985 30.3419 9.91174 30.2972 10.0292C30.1237 10.4768 29.9559 10.93 29.7825 11.3776C29.6762 11.6461 29.5643 11.9147 29.4524 12.1776C29.43 12.2224 29.4076 12.2839 29.3629 12.3063C29.2398 12.3734 29.2118 12.4853 29.167 12.6084C29.016 13.028 28.8426 13.442 28.6747 13.856C28.6076 14.0183 28.5293 14.1805 28.4565 14.3428C28.3558 14.5721 28.2439 14.7959 28.1544 15.0253C28.0649 15.2547 28.0033 15.4953 27.9026 15.7191C27.8299 15.8925 27.6956 16.0436 27.6285 16.2226C27.4271 16.7373 27.2369 17.2576 27.0467 17.7779C27.0243 17.8451 27.0355 17.9234 27.0299 17.9905C27.0131 17.9905 27.0019 17.9905 26.9851 17.9905C26.9795 17.9234 26.9739 17.8562 26.9627 17.7555C26.9292 17.8059 26.9068 17.8283 26.8956 17.8562C26.7222 18.3486 26.5487 18.8409 26.3753 19.3388C26.3137 19.5067 26.2578 19.6745 26.1907 19.8368C26.1347 19.9655 26.0676 20.0829 26.006 20.206C25.9893 20.2396 25.9557 20.2676 25.9389 20.3011C25.827 20.5753 25.7095 20.8494 25.6032 21.1292C25.4969 21.4257 25.3962 21.7222 25.3011 22.0187C25.2619 22.1362 25.2116 22.2201 25.0885 22.2089C24.971 22.6677 24.8032 23.0929 24.6185 23.5125C24.557 23.6524 24.5066 23.7978 24.4395 23.9377C24.2996 24.2398 24.1486 24.5419 24.0087 24.844C23.964 24.9503 23.9416 25.0622 23.9024 25.1741C23.8297 25.3979 23.757 25.6217 23.6842 25.8455C23.6786 25.8679 23.6507 25.8847 23.6227 25.9126C23.6003 25.8455 23.5835 25.8007 23.5555 25.7336C23.5276 25.7952 23.5052 25.8343 23.4716 25.8903C23.4492 25.8623 23.4325 25.8511 23.4269 25.8287C23.3653 25.6497 23.3094 25.4763 23.2478 25.2972C23.1415 25.0007 23.0352 24.6986 22.9177 24.4021C22.8898 24.3349 22.8114 24.2846 22.7723 24.2174C22.7107 24.1167 22.6548 24.016 22.6156 23.9097C22.5205 23.6692 22.4422 23.4174 22.3415 23.1768C22.2855 23.0314 22.196 22.8971 22.1345 22.7572C22.017 22.4719 21.9051 22.1866 21.7932 21.8956C21.7708 21.8341 21.7764 21.767 21.7652 21.6942C21.7037 21.7054 21.6589 21.7166 21.6142 21.7278C21.5135 21.4481 21.4184 21.1627 21.3065 20.8886C21.1778 20.5753 21.0323 20.262 20.8925 19.9543C20.8757 19.9207 20.8365 19.9039 20.8141 19.8759C20.7918 19.848 20.775 19.82 20.7638 19.7864C20.7246 19.6689 20.6966 19.5514 20.6519 19.4395C20.5903 19.2941 20.4952 19.1598 20.4393 19.0088C20.3274 18.7122 20.2211 18.4101 20.126 18.108C20.0868 17.9681 19.9917 18.0688 19.9637 18.0577C19.8071 17.6213 19.6616 17.2129 19.5162 16.7988C19.4826 16.7149 19.4546 16.6254 19.421 16.5415C19.4099 16.5079 19.4043 16.4632 19.3819 16.452C19.242 16.3904 19.2308 16.2729 19.2364 16.1387C19.2364 16.1219 19.214 16.0995 19.2029 16.0827C19.1637 16.038 19.1133 15.9988 19.091 15.9484C18.9958 15.6855 18.9063 15.4225 18.8112 15.1596C18.8 15.1316 18.8 15.098 18.7833 15.0813C18.5091 14.7512 18.4644 14.326 18.3133 13.9399C18.3133 13.9288 18.3133 13.9008 18.3077 13.9008C18.0895 13.8057 18.1566 13.5819 18.0839 13.4196C18.0783 13.4084 18.0671 13.3973 18.0447 13.3749C18.028 13.4196 18.0168 13.4532 17.9944 13.5259C17.9832 13.3357 17.9664 13.1847 17.972 13.0392C17.972 12.9665 17.9273 12.8602 18.0503 12.821C18.0671 12.821 18.0615 12.7595 18.0727 12.7259C18.1119 12.5748 18.1287 12.4126 18.2014 12.2727C18.3525 11.9706 18.3413 11.6349 18.3916 11.316C18.4532 10.958 18.4867 10.5999 18.5259 10.2418C18.5371 10.1299 18.5259 10.018 18.5259 9.91174C18.5091 9.91174 18.4923 9.91174 18.4755 9.91174C18.4699 9.9509 18.4644 9.99007 18.4532 10.0292C18.4196 10.1411 18.4028 10.2754 18.3357 10.3705C18.0559 10.7789 17.8881 11.2433 17.7091 11.6965C17.6028 11.965 17.5244 12.2503 17.2615 12.4238C17.2335 12.4406 17.2167 12.4909 17.2111 12.5245C17.172 12.8098 17.0377 13.0504 16.8866 13.2854C16.8139 13.3973 16.7915 13.5371 16.7412 13.6602C16.6517 13.8952 16.551 14.119 16.4223 14.3316C16.2488 14.6225 16.1425 14.9526 16.0083 15.2715C15.9076 15.5121 15.8236 15.7526 15.7285 15.9988C15.6334 15.9317 15.5999 15.9373 15.5663 16.0547C15.4712 16.3792 15.3593 16.6981 15.225 17.0058C15.1131 17.2688 14.9565 17.515 14.8222 17.7723C14.8054 17.8003 14.7886 17.8339 14.7774 17.8618C14.7159 18.0241 14.6655 18.1863 14.5984 18.3486C14.4697 18.6507 14.341 18.9528 14.2068 19.2493C14.1452 19.3892 14.0613 19.5179 13.9886 19.6521C13.9886 19.6577 13.9718 19.6689 13.9718 19.6745C13.9326 20.0326 13.6249 20.2732 13.5634 20.6312C13.5298 20.8382 13.3732 21.0173 13.2892 21.2187C13.2053 21.4145 13.1662 21.6327 13.0543 21.8061C12.6906 22.3768 12.5284 23.0258 12.2878 23.6412C12.2766 23.6748 12.2598 23.7139 12.243 23.7587C12.215 23.7363 12.1927 23.7139 12.1535 23.6859C12.1311 23.7419 12.1087 23.7811 12.092 23.8258C11.9633 24.1671 11.8066 24.4972 11.7283 24.844C11.6612 25.1406 11.5157 25.37 11.3367 25.6049C11.2807 25.6777 11.2639 25.7896 11.2304 25.8791C11.2192 25.8791 11.2024 25.8791 11.1912 25.8791C11.18 25.8287 11.1632 25.7784 11.1521 25.7224C11.1073 25.5322 11.0737 25.3364 10.9059 25.2021C10.8723 25.1741 10.8667 25.107 10.8443 25.0566C10.7604 24.8217 10.6765 24.5867 10.6038 24.3461C10.559 24.2118 10.531 24.0776 10.4975 23.9433C10.4863 23.9097 10.4695 23.8762 10.4415 23.809C10.4024 23.8874 10.38 23.9321 10.352 23.9992C10.2961 23.8202 10.2457 23.6692 10.1954 23.5181C10.117 23.2831 10.0387 23.0537 9.95478 22.8188C9.9324 22.7684 9.88205 22.7292 9.85408 22.6733C9.80932 22.5894 9.76456 22.5055 9.73659 22.4159C9.70302 22.3152 9.68064 22.2145 9.65267 22.1082C9.65267 22.0914 9.64707 22.0635 9.63029 22.0579C9.42328 21.9516 9.46804 21.7166 9.36734 21.5544C9.26663 21.3809 9.1939 21.1907 9.12117 21.0005C9.04844 20.8103 8.9869 20.62 8.91976 20.4242C8.86941 20.2844 8.82465 20.1445 8.76311 19.9655C8.72394 20.0438 8.70716 20.0773 8.69038 20.1165C8.67919 20.1053 8.668 20.0941 8.6624 20.0829C8.49456 19.6018 8.32672 19.1207 8.15888 18.6395C8.09174 18.4549 8.01901 18.2814 7.86795 18.1416C7.8176 18.0968 7.812 18.0129 7.78403 17.9458C7.66095 17.6381 7.53227 17.3359 7.40918 17.0282C7.34764 16.8716 7.30848 16.7037 7.22456 16.5583C7.09588 16.3233 7.00636 16.0715 6.90566 15.8254C6.6483 15.1988 6.39654 14.5721 6.10561 13.9623C6.00491 13.7553 5.96015 13.5147 5.83707 13.3469C5.70839 13.1735 5.66923 12.9832 5.58531 12.8098C5.46222 12.5524 5.36711 12.2783 5.24403 11.9818C5.22724 12.0713 5.21605 12.1217 5.19927 12.2168C4.94191 11.4727 4.69575 10.7621 4.44398 10.0404C4.4272 10.1187 4.41601 10.1915 4.39923 10.2754C4.23698 9.83341 4.09152 9.40822 3.92927 8.99421C3.88451 8.88231 3.80619 8.78161 3.76143 8.66971C3.69989 8.51865 3.65513 8.362 3.60478 8.20535C3.59918 8.21654 3.58799 8.23892 3.56561 8.28927C3.48169 8.03191 3.40337 7.79134 3.32504 7.55636C3.31944 7.53958 3.32504 7.51161 3.30826 7.50042C3.12363 7.36614 3.10125 7.14795 3.02292 6.96332C2.92781 6.73953 2.86068 6.50456 2.78795 6.29196C2.74878 6.26398 2.70403 6.2472 2.69284 6.21363C2.54178 5.85557 2.40191 5.49751 2.25645 5.13385C2.25645 5.12266 2.25645 5.11147 2.24526 5.10588C2.02706 5.00517 2.10539 4.77019 2.01587 4.60794C1.92076 4.4457 1.8816 4.24988 1.80887 4.07085C1.76971 3.95896 1.71935 3.85266 1.65222 3.74636C1.66341 3.78552 1.68019 3.83028 1.69138 3.87504C1.59068 3.81349 1.57949 3.78552 1.41724 3.31556C1.34451 3.10856 1.26059 2.90155 1.18226 2.69455C1.10394 2.49873 1.02561 2.30292 0.936094 2.07354C0.91931 2.15746 0.908121 2.22459 0.896931 2.29733C0.751468 1.89451 0.606006 1.49728 0.466138 1.10005C0.438164 1.02732 0.426975 0.943403 0.337459 0.954592C0.287107 0.814724 0.231159 0.669261 0.164023 0.529393C0.12486 0.439878 0.147239 0.411904 0.236754 0.40631C0.320675 0.40631 0.399001 0.389525 0.482922 0.389525C1.669 0.378336 2.85508 0.367146 4.04116 0.367146C4.80764 0.367146 5.57412 0.411904 6.335 0.411904C6.94482 0.411904 7.37562 0.708424 7.73368 1.1616C7.85117 1.31265 7.98544 1.45812 8.08055 1.62596C8.18126 1.79939 8.2428 1.99521 8.32112 2.17984C8.37707 2.3253 8.42742 2.47076 8.48337 2.61063C8.5561 2.80085 8.62883 2.98548 8.70716 3.18129C8.72394 3.13653 8.74073 3.09178 8.7687 3.01345C8.81346 3.16451 8.84703 3.2764 8.88619 3.39389C8.9813 3.66244 9.07641 3.93098 9.17712 4.19394C9.22747 4.32821 9.31139 4.4457 9.36734 4.57997C9.41769 4.69746 9.44566 4.82614 9.48483 4.94922C9.48483 4.96041 9.49042 4.9772 9.49601 4.98839C9.55196 5.06671 9.6191 5.13944 9.65267 5.22896C9.86527 5.74927 10.0667 6.27517 10.2681 6.80108C10.3017 6.885 10.3184 6.98011 10.352 7.10319C10.3912 7.01368 10.4135 6.95773 10.4247 6.92975C10.6821 7.59553 10.9395 8.26689 11.208 8.96623C11.3814 8.82077 11.4933 8.65293 11.5717 8.4683C11.6836 8.19976 11.7899 7.93121 11.885 7.65707C11.9745 7.4109 12.0472 7.15354 12.1311 6.90738C12.1367 6.885 12.1479 6.86821 12.1759 6.81226C12.1983 6.89619 12.2095 6.94654 12.2318 7.03046C12.3437 6.72275 12.4444 6.44301 12.5395 6.16328C12.6011 5.98425 12.6738 5.81081 12.7242 5.63178C12.7801 5.43037 12.8864 5.25134 13.0207 5.09469C13.0766 5.03314 13.0934 4.93244 13.1214 4.84852C13.2221 4.57997 13.306 4.31142 13.4179 4.04847C13.5969 3.63446 13.7872 3.22605 13.983 2.81763C14.0557 2.66658 14.1564 2.5323 14.2236 2.37565C14.3131 2.15746 14.3746 1.92807 14.4585 1.70988C14.5704 1.41895 14.6935 1.13362 14.8222 0.853887C14.8502 0.79794 14.9285 0.753182 14.99 0.736398C15.0963 0.70283 15.2082 0.697235 15.3145 0.663667C15.4096 0.635693 15.432 0.674856 15.4488 0.753182C15.5047 1.01054 15.5607 1.2623 15.6222 1.51406C15.6278 1.53644 15.6446 1.56442 15.6726 1.62036C15.6782 1.50287 15.6838 1.43014 15.6894 1.35182H15.7117C15.7397 1.43014 15.7677 1.51406 15.7901 1.59798C15.9132 2.10151 16.053 2.60503 16.1593 3.11415C16.2377 3.489 16.3887 3.83587 16.5174 4.19394C16.6069 4.43451 16.6684 4.69187 16.7244 4.94363C16.7636 5.10028 16.8083 5.24015 16.9538 5.34085C17.0545 5.41359 17.116 5.54786 17.2055 5.66535C17.2503 5.38561 17.4461 5.20099 17.5692 4.9716C17.6755 4.77019 17.7482 4.552 17.8266 4.3338C17.9329 4.0205 18.0671 3.72398 18.2685 3.46103C18.3189 3.39949 18.3301 3.30997 18.3636 3.23724C18.4588 3.00226 18.5539 2.76169 18.649 2.52671C18.649 2.51552 18.6546 2.49874 18.6658 2.48755C18.9231 2.18543 18.9399 1.77142 19.1413 1.44693C19.1861 1.37979 19.2196 1.30706 19.27 1.23992C19.4434 0.993755 19.5329 0.708424 19.6281 0.423094C19.6281 0.40631 19.6448 0.389525 19.6672 0.355957C19.7679 0.635693 19.863 0.89305 19.9693 1.17838C19.9973 1.11124 20.0141 1.07208 20.0365 1.01613C20.0588 1.0497 20.0756 1.06649 20.0868 1.09446C20.1819 1.37979 20.2826 1.67072 20.3722 1.95605C20.4057 2.06794 20.4393 2.17424 20.4673 2.28614C20.4729 2.31411 20.4784 2.34768 20.4952 2.37006C20.7694 2.69455 20.9092 3.08059 21.0435 3.47781C21.0995 3.64006 21.2058 3.77993 21.2729 3.93658C21.3848 4.20513 21.4799 4.47927 21.5806 4.74781C21.5918 4.77579 21.603 4.81495 21.5918 4.84292C21.5582 4.93803 21.5806 4.96601 21.6813 4.96041C21.7093 4.96041 21.7485 4.99398 21.7596 5.01636C21.8324 5.17861 21.9051 5.34085 21.9722 5.5087C22.0729 5.74367 22.1848 5.97306 22.28 6.20803C22.3751 6.44861 22.4478 6.70037 22.5541 6.94094C22.6268 7.0976 22.7499 7.23187 22.845 7.37733C22.8562 7.39412 22.873 7.4165 22.8786 7.43887C23.0129 7.8305 23.1415 8.22213 23.2814 8.61376C23.3262 8.73685 23.3989 8.84874 23.4604 8.96064C23.4772 8.96064 23.4996 8.96064 23.5164 8.95504C23.5611 8.85434 23.6171 8.75923 23.6562 8.65852C23.7626 8.37319 23.8633 8.08786 23.9696 7.80253C23.9919 7.74099 24.0479 7.69623 24.0759 7.63469C24.0982 7.57874 24.0982 7.51161 24.1206 7.45566C24.1877 7.31579 24.2717 7.18711 24.3332 7.04724C24.4003 6.90738 24.4507 6.76191 24.5066 6.61645C24.6353 6.31433 24.764 6.01222 24.8871 5.70451C24.943 5.57024 24.9822 5.43037 25.0326 5.2961C25.0661 5.20099 25.0885 5.08909 25.234 5.08909C25.2563 5.08909 25.2899 5.02195 25.3011 4.98279C25.3235 4.90447 25.3235 4.81495 25.3514 4.73662C25.4242 4.53521 25.5025 4.3394 25.5864 4.14358C25.7375 3.8023 25.8941 3.46103 26.0452 3.11975C26.1123 2.97429 26.1739 2.82882 26.2466 2.68336C26.3026 2.57147 26.3809 2.47076 26.4368 2.36446C26.4704 2.29733 26.4816 2.219 26.5096 2.15186C26.627 1.87772 26.7445 1.60358 26.862 1.32944C26.8732 1.30706 26.9012 1.27909 26.9124 1.28468C27.0466 1.34063 27.0522 1.21754 27.1082 1.156C27.2704 0.965782 27.3935 0.741993 27.6285 0.630098C27.9194 0.49023 28.2215 0.40631 28.5516 0.40631C29.5139 0.40631 30.4762 0.367146 31.4441 0.361552C32.4008 0.361552 33.3519 0.378336 34.3086 0.389525C34.3645 0.389525 34.4261 0.383931 34.51 0.378336C34.4988 0.445473 34.4932 0.507014 34.4708 0.557367C34.3701 0.814724 34.2694 1.07208 34.1631 1.32384C34.068 1.54204 33.9673 1.74904 33.8666 1.96164C33.861 1.97843 33.8386 1.98962 33.8219 1.99521C33.7156 2.01759 33.6988 2.10151 33.6876 2.19103C33.6708 2.36446 33.5981 2.50433 33.4862 2.6442C33.3967 2.7505 33.3463 2.89596 33.2904 3.03023C33.212 3.21486 33.1505 3.39949 33.0834 3.58411C33.0554 3.66244 33.0554 3.75755 32.9267 3.75195C32.9099 3.75195 32.8763 3.81909 32.8652 3.85825C32.7309 4.26667 32.6134 4.68068 32.4567 5.0779C32.356 5.34645 32.1938 5.59262 32.0763 5.85557C31.9756 6.07936 31.9085 6.31433 31.8134 6.54372C31.7071 6.80667 31.584 7.06403 31.4777 7.33257C31.4441 7.42209 31.4273 7.5172 31.3993 7.60672C31.3826 7.65707 31.3602 7.70183 31.3378 7.74658C31.2371 7.92561 31.1028 8.09346 31.0357 8.28368C30.8567 8.75923 30.7056 9.25156 30.5378 9.7439V9.74949Z" fill="white" fill-opacity="0.5"/>
<path d="M52.6209 2.17946C52.5929 2.22981 52.5705 2.25778 52.5426 2.30813C52.6321 2.3417 52.7104 2.36968 52.7943 2.40324C53.0237 2.49276 53.2531 2.58228 53.4825 2.6662C53.6223 2.72214 53.7622 2.7725 53.9021 2.82285C53.9245 2.82844 53.958 2.82844 53.9692 2.84523C54.1147 3.07461 54.3832 3.13056 54.579 3.28721C54.7916 3.46065 55.049 3.57814 55.2672 3.74598C55.5805 3.98655 55.8714 4.26069 56.1791 4.50686C56.3022 4.60756 56.4533 4.6803 56.5875 4.76981C56.6211 4.79219 56.6771 4.82576 56.6771 4.84814C56.6491 4.98801 56.7554 5.04395 56.8281 5.12228C56.9624 5.27893 57.1023 5.44118 57.2365 5.60342C57.2421 5.59783 57.2701 5.56426 57.3037 5.53069C57.4268 5.71532 57.5442 5.89994 57.6673 6.07338C57.7233 6.15171 57.8016 6.21325 57.8687 6.28598C57.8855 6.30836 57.9135 6.32514 57.9247 6.35312C58.003 6.5881 58.1541 6.77272 58.3107 6.95735C58.4786 7.16435 58.624 7.38814 58.7191 7.65109C58.7863 7.84691 58.9429 8.00915 59.038 8.19938C59.1611 8.44554 59.245 8.70849 59.3737 8.94907C59.536 9.25118 59.6423 9.57008 59.7206 9.89458C59.8437 10.3925 59.9947 10.8848 60.1122 11.3828C60.3304 12.2779 60.3528 13.1731 60.3416 14.0794C60.3304 14.6333 60.2968 15.1928 60.1905 15.7355C60.0675 16.3789 59.8437 17.0055 59.6814 17.6433C59.5695 18.102 59.3346 18.5048 59.1667 18.9412C59.0828 19.1538 58.9261 19.3273 58.8087 19.5287C58.7639 19.6014 58.7527 19.6909 58.7079 19.7637C58.6072 19.9371 58.5065 20.1105 58.3946 20.2784C58.2436 20.5134 58.0869 20.7483 57.9359 20.9889C57.9247 21.0057 57.9191 21.0281 57.9023 21.0337C57.6953 21.1456 57.5834 21.3246 57.4995 21.5372C57.4603 21.6435 57.3484 21.7218 57.2589 21.8225C57.2477 21.7889 57.2365 21.7666 57.2309 21.7386C57.2198 21.7386 57.2086 21.7386 57.203 21.7498C57.1135 21.8617 57.0239 21.9736 56.94 22.0911C56.8561 22.203 56.7778 22.326 56.6883 22.4379C56.6491 22.4883 56.6099 22.5442 56.5596 22.5666C56.2127 22.7177 55.9833 23.0198 55.698 23.2436C55.6812 23.2604 55.67 23.2827 55.6476 23.2939C55.3959 23.4674 55.1385 23.6408 54.8868 23.8086C54.8028 23.8646 54.7077 23.9093 54.6294 23.9709C54.3553 24.1835 54.0699 24.3793 53.7342 24.4912C53.6279 24.5248 53.544 24.6143 53.4433 24.6702C53.2363 24.7765 53.0405 24.9276 52.7664 24.8716C52.7831 24.9332 52.7943 24.9779 52.8055 25.0507C52.6209 25.1122 52.4307 25.1905 52.2404 25.2409C51.8376 25.3528 51.4236 25.4479 51.0208 25.5598C50.8697 25.599 50.7243 25.6549 50.5844 25.7108C50.1368 25.9011 49.6557 25.9458 49.1801 25.9906C48.7773 26.0297 48.3689 26.0521 47.9661 26.0857C47.9213 26.0857 47.871 26.0969 47.7982 26.1081C47.8486 26.136 47.871 26.1528 47.9101 26.1752H46.5338C46.5842 26.1528 46.6122 26.136 46.6401 26.1249C46.6401 26.1137 46.6401 26.1025 46.6401 26.0913C45.7506 26.0353 44.8666 25.9738 43.9826 25.778C43.9994 25.7444 44.005 25.722 44.0106 25.7053C43.2162 25.4815 42.4217 25.2521 41.6217 25.0283C41.6217 25.0115 41.6217 25.0003 41.6273 24.9835C41.6944 24.9779 41.7559 24.9723 41.8622 24.9556C41.8063 24.9164 41.7839 24.894 41.7559 24.8884C41.3923 24.8213 41.0622 24.6758 40.7433 24.48C40.4748 24.3178 40.1782 24.1947 39.9321 24.0101C39.7139 23.8422 39.4285 23.7695 39.2607 23.5289C39.2327 23.4897 39.1712 23.473 39.132 23.4394C38.925 23.2716 38.7236 23.1037 38.5222 22.9415C38.4662 22.8967 38.4215 22.824 38.3599 22.8072C38.1026 22.7233 37.9292 22.5498 37.8061 22.3093C37.7669 22.2309 37.6886 22.175 37.627 22.1078C37.4592 21.9456 37.2969 21.7834 37.1235 21.6267C37.0676 21.5708 36.9948 21.5316 36.9109 21.4645C36.9109 21.4589 36.9333 21.4085 36.9389 21.3917C36.8102 21.2015 36.6983 21.0281 36.5752 20.8602C36.5529 20.8323 36.5081 20.8267 36.4801 20.7987C36.4018 20.7204 36.2843 20.6532 36.2563 20.5581C36.1948 20.3623 36.0829 20.2168 35.9486 20.077C35.8367 19.9651 35.7472 19.8476 35.7416 19.6797C35.7416 19.6406 35.7136 19.5734 35.6913 19.5734C35.5626 19.5567 35.5514 19.4448 35.5066 19.3552C35.4059 19.165 35.2996 18.9748 35.2101 18.779C35.115 18.572 35.0367 18.3594 34.964 18.1468C34.9192 18.0125 34.8968 17.8726 34.8632 17.716C34.8409 17.7272 34.7961 17.7384 34.7234 17.7663C34.6506 17.4978 34.5723 17.2293 34.4996 16.9551C34.2982 16.1886 34.2366 15.3942 34.1136 14.6165C34.0128 13.9563 34.0464 13.2962 34.0688 12.6192C34.0856 12.636 34.0968 12.6472 34.1415 12.6975C34.2366 11.5898 34.4325 10.5324 34.7569 9.45259C34.7737 9.5533 34.7849 9.61484 34.8017 9.71554C34.8297 9.64841 34.8465 9.61484 34.8577 9.58127C35.0031 9.17286 35.1262 8.75325 35.294 8.35603C35.3892 8.13783 35.557 7.94761 35.6913 7.74061C35.7192 7.70145 35.7304 7.65669 35.7472 7.61193C35.792 7.51122 35.8199 7.40492 35.8815 7.31541C36.0102 7.11959 36.1724 6.94056 36.2731 6.73356C36.357 6.56012 36.5193 6.48739 36.62 6.34193C36.8326 6.03981 37.0564 5.74329 37.2914 5.45796C37.3697 5.36285 37.4872 5.30131 37.5823 5.22298C37.6662 5.15585 37.7445 5.08312 37.8229 5.01598C37.8396 5.00479 37.862 4.98801 37.862 4.97682C37.8452 4.77541 38.0634 4.74743 38.1418 4.61875C38.1641 4.58519 38.2145 4.54602 38.2425 4.54602C38.3935 4.55721 38.4551 4.45091 38.5334 4.3614C38.8411 4.01452 39.2215 3.76276 39.6188 3.52219C39.9321 3.33197 40.223 3.10818 40.5251 2.90117C40.5475 2.88439 40.5699 2.86761 40.5978 2.85642C40.8776 2.74452 41.1517 2.63263 41.4314 2.52633C41.6664 2.44241 41.907 2.36408 42.142 2.25778C42.1028 2.24659 42.0637 2.2354 42.0021 2.21302C42.0581 2.18505 42.0972 2.16267 42.1364 2.15148C42.584 2.01721 43.0259 1.86056 43.4847 1.74866C43.9547 1.63677 44.447 1.60879 44.9058 1.46333C45.3254 1.32906 45.745 1.33465 46.1646 1.2899C46.4611 1.25633 46.7632 1.25633 47.0653 1.25073C47.4066 1.25073 47.7535 1.25073 48.0948 1.26752C48.5815 1.2899 49.0682 1.32906 49.5606 1.36263C49.6109 1.36263 49.6613 1.42417 49.7116 1.45214C49.734 1.46333 49.762 1.47452 49.79 1.47452C50.3494 1.55285 50.9089 1.63677 51.446 1.83258C51.7929 1.96126 52.1621 2.03959 52.5202 2.14029C52.5538 2.15148 52.5817 2.15708 52.6377 2.16827L52.6209 2.17946ZM52.5426 19.7972C52.4251 19.7413 52.4922 19.7021 52.5426 19.6574C52.6321 19.5846 52.716 19.5063 52.8111 19.4392C52.8671 19.4 52.9622 19.3944 53.0013 19.3497C53.1524 19.1762 53.2867 18.986 53.4321 18.807C53.5832 18.6223 53.7398 18.4377 53.8909 18.2531C53.9748 18.1524 54.0531 18.0461 54.1203 17.9398C54.1762 17.8503 54.193 17.7272 54.2601 17.6545C54.4168 17.4978 54.5063 17.3132 54.579 17.1118C54.607 17.0278 54.663 16.9495 54.7021 16.8656C54.814 16.6082 54.9931 16.3789 55.049 16.0935C55.1105 15.769 55.2001 15.4557 55.2616 15.1312C55.3399 14.7228 55.4238 14.3088 55.4574 13.8948C55.5022 13.3633 55.4574 12.8318 55.3064 12.3115C55.1553 11.7856 55.1385 11.2261 54.8364 10.745C54.7581 10.6163 54.6797 10.482 54.6126 10.3477C54.5287 10.1743 54.4895 9.96171 54.3664 9.82184C54.2266 9.66519 54.165 9.48057 54.0587 9.31272C54.0084 9.2344 53.9524 9.16726 53.8965 9.09453C53.7398 8.89872 53.5832 8.7029 53.4153 8.51827C53.2363 8.31686 53.1692 7.99796 52.8447 7.94202C52.8279 7.94202 52.8167 7.91964 52.7999 7.90845C52.716 7.83572 52.6265 7.76858 52.5482 7.69026C52.5202 7.66788 52.5034 7.62871 52.4866 7.60074C52.4531 7.55598 52.4363 7.48885 52.3915 7.47206C51.9271 7.25946 51.5579 6.87343 51.0544 6.72796C51.0376 6.72796 51.0208 6.71118 51.004 6.69999C50.7523 6.51536 50.4725 6.38669 50.176 6.28598C49.997 6.22444 49.8179 6.14052 49.6389 6.07338C49.583 6.051 49.5326 6.02303 49.4767 6.01184C48.9787 5.93911 48.4808 5.844 47.9829 5.81602C47.608 5.79365 47.2444 5.68735 46.8583 5.76008C46.3268 5.86078 45.7785 5.87197 45.247 5.97827C44.7995 6.06779 44.3743 6.24122 43.9379 6.3755C43.9099 6.38669 43.8875 6.40347 43.8652 6.42025C43.6693 6.53215 43.4735 6.64964 43.2777 6.75594C43.1322 6.83426 42.9364 6.86224 42.8413 6.97413C42.7294 7.1084 42.5784 7.14197 42.4553 7.23149C42.293 7.34898 42.0301 7.37136 42.0189 7.65109C42.0189 7.65669 42.0077 7.66788 42.0021 7.67347C41.9126 7.73501 41.8287 7.81334 41.728 7.8581C41.5545 7.92523 41.4426 8.04272 41.3419 8.19378C41.3028 8.24973 41.2412 8.28889 41.1909 8.33924C41.1629 8.36722 41.1293 8.39519 41.107 8.42876C41.0342 8.54065 40.9783 8.67493 40.8888 8.76444C40.6706 8.97704 40.4859 9.21202 40.3405 9.48616C40.1782 9.79946 39.9544 10.0848 39.809 10.4037C39.5628 10.9408 39.3726 11.4891 39.2663 12.0765C39.1208 12.843 39.1096 13.6151 39.16 14.3815C39.2103 15.1928 39.3614 15.9872 39.7083 16.7369C39.8481 17.0334 39.9489 17.3467 40.1782 17.5929C40.2454 17.6712 40.2845 17.7719 40.3349 17.8671C40.374 17.9454 40.3964 18.0405 40.4524 18.1076C40.6426 18.3538 40.844 18.5888 41.0454 18.8237C41.1181 18.9077 41.1965 18.9916 41.2748 19.0755C41.3363 19.1426 41.4203 19.1986 41.4594 19.2769C41.5154 19.4 41.6105 19.4448 41.7224 19.5007C41.8343 19.5567 41.9741 19.635 42.0133 19.7357C42.0525 19.8308 42.0972 19.8923 42.17 19.9371C42.2986 20.021 42.4385 20.0882 42.5728 20.1665C42.735 20.2616 42.9308 20.3231 43.0539 20.4574C43.3057 20.7316 43.7085 20.7204 43.9603 20.9721C44.5197 21.14 45.0792 21.3246 45.6667 21.3638C45.7002 21.3638 45.7394 21.3805 45.8121 21.3973C45.7002 21.4253 45.6275 21.4421 45.5548 21.4589C45.5548 21.4756 45.5604 21.498 45.5659 21.5148C46.7185 21.6435 47.871 21.6603 49.0291 21.5036C49.0291 21.4924 49.0291 21.4812 49.0291 21.4645C48.9116 21.4421 48.7997 21.4197 48.6822 21.3973C48.8277 21.3582 48.9787 21.3638 49.1186 21.3358C49.5941 21.2239 50.0641 21.0952 50.5341 20.9721C50.5564 20.9665 50.5732 20.9386 50.5956 20.9274C50.6404 20.8938 50.6795 20.849 50.7243 20.8267C50.9537 20.7148 51.2222 20.6532 51.4068 20.4966C51.5467 20.3735 51.6978 20.2952 51.8544 20.2056C52.0782 20.0714 52.3076 19.9427 52.5538 19.7972H52.5426Z" fill="white" fill-opacity="0.5"/>
<path d="M77.4769 24.95C77.5664 24.9724 77.6056 24.9836 77.6839 25.006C77.6168 25.034 77.5888 25.0563 77.5552 25.0619C76.9286 25.213 76.3076 25.3697 75.681 25.5039C75.3789 25.5655 75.06 25.5487 74.7579 25.6158C74.1704 25.7445 73.583 25.7221 72.9955 25.7221C70.0303 25.7221 67.0651 25.7221 64.0999 25.7221C63.9713 25.7221 63.9209 25.6941 63.9209 25.5543C63.9209 18.0462 63.9209 10.538 63.9209 3.02993C63.9209 2.71663 63.9209 2.40332 63.9209 2.09002C63.9209 1.99491 63.9489 1.95575 64.0496 1.95575C65.079 1.93896 66.114 1.92218 67.1435 1.8942C67.7253 1.88301 68.3072 1.88301 68.8834 1.82707C69.9968 1.72077 71.1045 1.6816 72.2179 1.77112C73.1242 1.84385 74.0306 1.92777 74.9369 2.01729C75.2838 2.05086 75.6251 2.11799 75.9719 2.16834C75.9831 2.16834 75.9943 2.18513 76.0167 2.20191C75.9831 2.22989 75.9551 2.25786 75.8824 2.31381C77.1356 2.49843 78.1651 3.04672 78.9651 4.00901C78.9707 3.97544 78.9819 3.94187 78.9875 3.90271C78.9987 3.9139 79.0043 3.92509 79.0099 3.93628C79.1665 4.18804 79.3288 4.4398 79.4854 4.69716C79.5302 4.76989 79.5302 4.87059 79.5805 4.94333C79.6421 5.03844 79.726 5.12236 79.7931 5.21187C79.8379 5.27341 79.8882 5.33496 79.9106 5.40769C80.0169 5.83289 80.1008 6.26368 80.2183 6.68888C80.4029 7.36025 80.375 8.0428 80.2855 8.71417C80.1959 9.39672 80.0001 10.0625 79.8491 10.7339C79.8323 10.8122 79.754 10.8793 79.726 10.9577C79.5805 11.3101 79.4518 11.6682 79.3064 12.0206C79.2392 12.1885 79.1441 12.3507 79.0658 12.5186C78.9931 12.5074 78.9483 12.4962 78.8812 12.485C78.9203 12.7256 78.7693 12.8878 78.6686 13.0725C78.6126 13.1788 78.6294 13.2627 78.7189 13.3466C78.8085 13.4249 78.8924 13.5088 78.9819 13.5928C78.9875 13.5592 78.9987 13.5256 79.0043 13.4865C79.0155 13.4865 79.0266 13.4865 79.0322 13.4865C79.1218 13.5984 79.2001 13.7214 79.3008 13.8277C79.4742 14.0012 79.5861 14.2473 79.8435 14.3313C79.8547 14.3313 79.8658 14.3481 79.877 14.3592C80.1344 14.7005 80.3973 15.0418 80.6547 15.3831C80.7722 15.5453 80.9121 15.6964 80.996 15.8754C81.1247 16.1328 81.203 16.4125 81.3149 16.6811C81.589 17.3356 81.7065 18.0238 81.6897 18.7287C81.6785 19.1483 81.645 19.5735 81.5331 19.9763C81.3596 20.6085 81.1079 21.224 80.8897 21.845C80.8729 21.8897 80.8393 21.9289 80.817 21.9681C80.7107 22.1359 80.6155 22.3037 80.5037 22.466C80.4141 22.5891 80.3078 22.701 80.2183 22.8241C80.1232 22.9583 80.0393 23.0982 79.9498 23.2325C79.9162 23.2772 79.8882 23.3444 79.8435 23.3611C79.547 23.4842 79.4183 23.7696 79.2001 23.971C79.1329 24.0325 79.0994 24.1276 78.9819 24.0941C78.9651 24.0941 78.9371 24.1108 78.9203 24.1276C78.5903 24.4913 78.1595 24.6983 77.7063 24.8661C77.6448 24.8885 77.5888 24.9165 77.4881 24.9556L77.4769 24.95ZM68.9282 15.2824C68.9226 15.3215 68.917 15.3439 68.917 15.3607C68.917 17.3916 68.917 19.4281 68.917 21.4589C68.917 21.5596 68.9617 21.5764 69.0457 21.5764C69.7058 21.5932 70.3716 21.61 71.0318 21.638C72.0053 21.6715 72.9788 21.638 73.9466 21.5373C74.0194 21.5317 74.0921 21.5149 74.1648 21.5037C74.1648 21.4925 74.1648 21.4757 74.1648 21.4645C74.0809 21.4366 74.0026 21.4142 73.8851 21.375C73.9634 21.3638 74.0138 21.3526 74.0585 21.3526C74.3886 21.3415 74.6963 21.2463 74.9984 21.1233C75.1439 21.0617 75.3062 21.0058 75.3789 20.8323C75.3901 20.81 75.4292 20.7876 75.446 20.7932C75.6083 20.8211 75.681 20.7037 75.7537 20.5974C75.9216 20.3512 76.095 20.105 76.2629 19.8589C76.2796 19.8309 76.302 19.8085 76.3188 19.7861C76.2964 19.7414 76.2796 19.7022 76.2629 19.6686C76.274 19.6686 76.2908 19.6742 76.302 19.6798C76.3356 19.6239 76.3915 19.5735 76.4083 19.512C76.5594 18.9469 76.5482 18.3707 76.4587 17.8C76.4195 17.5426 76.3244 17.2909 76.2573 17.0335C76.2461 17.0335 76.2349 17.0391 76.2237 17.0447L76.2405 17.2014C76.1957 17.1622 76.1789 17.1118 76.1566 17.0671C76.0503 16.8545 75.944 16.6363 75.8321 16.4237C75.7817 16.323 75.7202 16.2223 75.6586 16.1272C75.6362 16.088 75.5971 16.0433 75.5635 16.0321C75.3621 15.9873 75.211 15.881 75.0936 15.7188C75.0712 15.6908 75.032 15.6796 74.9929 15.6628C74.4502 15.4446 73.8683 15.3831 73.2977 15.2936C72.8333 15.2208 72.3521 15.232 71.8766 15.232C71.278 15.232 70.6737 15.2656 70.0751 15.2768C69.6946 15.2824 69.3086 15.2768 68.917 15.2768L68.9282 15.2824ZM68.9841 11.8192C69.7002 11.836 70.4108 11.8696 71.1213 11.8584C71.6752 11.8584 72.2347 11.8192 72.7885 11.7689C73.2473 11.7241 73.6445 11.478 74.0641 11.3045C74.1425 11.271 74.1928 11.1591 74.2544 11.0807C74.2655 11.0639 74.2711 11.036 74.2879 11.0248C74.3942 10.9521 74.5117 10.8905 74.6012 10.801C74.7747 10.6332 74.9649 10.4709 75.0824 10.2695C75.2055 10.0569 75.2726 9.80514 75.3118 9.55897C75.4292 8.88201 75.4404 8.19386 75.2782 7.52249C75.2222 7.28751 75.1159 7.05813 74.9873 6.85113C74.8754 6.67209 74.7131 6.51544 74.5565 6.36998C74.3551 6.17976 74.1425 6.00632 73.9299 5.82729C73.8795 5.78813 73.8124 5.76016 73.7508 5.73218C73.4879 5.6091 73.2361 5.44685 72.962 5.38531C72.5759 5.30139 72.1787 5.26222 71.7815 5.25663C71.1549 5.24544 70.5339 5.27341 69.9073 5.27901C69.5995 5.27901 69.2918 5.27901 68.9785 5.27901V11.8136L68.9841 11.8192Z" fill="white" fill-opacity="0.5"/>
</g>
<defs>
<clipPath id="clip0_523_633">
<rect width="81.627" height="25.898" fill="white" transform="translate(0.146484 0.271973)"/>
</clipPath>
</defs>
</svg>
