<svg width="89" height="27" viewBox="0 0 89 27" fill="none" xmlns="http://www.w3.org/2000/svg">
<g clip-path="url(#clip0_523_640)">
<path d="M20.0518 25.5426C20.1771 25.3232 20.2893 25.145 20.3867 24.9586C21.878 22.1177 23.3678 19.2752 24.8592 16.4326C26.0965 14.0751 27.3355 11.7176 28.5695 9.35844C30.0246 6.57529 31.478 3.79049 32.9265 1.00404C32.9974 0.867113 33.0766 0.824219 33.2268 0.824219C36.1848 0.829168 39.1411 0.829168 42.0992 0.824219C42.307 0.824219 42.3565 0.891859 42.378 1.08983C42.4473 1.73984 42.5496 2.38654 42.6337 3.0349C42.7541 3.95382 42.8696 4.87273 42.99 5.79C43.0907 6.55384 43.1963 7.31603 43.2953 8.07987C43.4157 8.99879 43.5295 9.91771 43.65 10.8366C43.7489 11.6005 43.8562 12.3627 43.9568 13.1265C44.0739 14.0108 44.1894 14.895 44.3066 15.781C44.422 16.652 44.5375 17.5231 44.653 18.3942C44.7718 19.2983 44.8889 20.204 45.0077 21.1097C45.138 22.1028 45.2684 23.096 45.402 24.0875C45.4581 24.5065 45.5191 24.9239 45.5802 25.3413C45.6016 25.4948 45.5587 25.5591 45.3839 25.5574C42.8927 25.5525 40.4016 25.5525 37.9104 25.5574C37.7603 25.5574 37.7092 25.5195 37.7042 25.3644C37.6828 24.5808 37.6514 23.7972 37.6201 23.0119C37.6102 22.7595 37.5854 22.5087 37.5722 22.2563C37.5656 22.1309 37.5095 22.0682 37.3792 22.0715C37.2621 22.0748 37.1466 22.0715 37.0295 22.0715C34.7726 22.0715 32.5141 22.0715 30.2572 22.0666C30.112 22.0666 30.046 22.1061 29.9916 22.248C29.5808 23.3022 29.1617 24.3531 28.7345 25.4024C28.7064 25.47 28.6041 25.5228 28.5249 25.5492C28.4507 25.5739 28.3616 25.5541 28.2791 25.5541C25.6098 25.5541 22.9405 25.5541 20.2712 25.5541C20.2184 25.5541 20.1639 25.5492 20.0551 25.5426H20.0518ZM32.1049 17.2822C32.1841 17.2888 32.2682 17.3037 32.3524 17.3037C33.8207 17.302 35.2873 17.2987 36.7556 17.2938C37.2373 17.2938 37.2423 17.2921 37.2093 16.8187C37.1416 15.8404 37.0723 14.8604 36.9965 13.8821C36.9206 12.912 36.8298 11.942 36.7572 10.9719C36.6896 10.0678 36.6385 9.16377 36.5791 8.25805C36.5725 8.14751 36.5576 8.03698 36.5477 7.92809L36.5098 7.93139C35.0464 11.0379 33.5831 14.1427 32.1049 17.2822Z" fill="white" fill-opacity="0.5"/>
<path d="M85.4949 8.11466C85.1237 7.84245 84.7806 7.58344 84.4325 7.33267C83.469 6.63977 82.4478 6.064 81.2551 5.86603C80.6364 5.7621 80.0161 5.73405 79.4106 5.96832C78.6748 6.25373 78.2063 6.92848 78.2343 7.69892C78.2492 8.10971 78.4488 8.44626 78.7293 8.72837C79.3479 9.35033 80.1151 9.74132 80.9086 10.0944C82.3175 10.7213 83.7017 11.3812 84.9456 12.3216C85.9932 13.1134 86.6366 14.128 86.9368 15.3786C87.3625 17.1504 87.2602 18.8959 86.5079 20.5621C85.7738 22.1888 84.6206 23.4822 83.1028 24.4391C81.7516 25.2903 80.2669 25.7688 78.693 26.0195C77.5662 26.1994 76.4345 26.2076 75.3093 26.1136C73.5441 25.9684 71.8597 25.4735 70.2445 24.7393C68.7383 24.0547 67.3575 23.1753 66.0541 22.1657C65.909 22.0535 65.9024 21.9826 66.0113 21.8242C67.2057 20.0903 68.3886 18.3514 69.5698 16.6076C69.6919 16.4278 69.7562 16.502 69.8585 16.6142C70.8071 17.6651 71.896 18.5412 73.1679 19.178C74.237 19.7125 75.3704 20.0127 76.5681 20.0028C77.2313 19.9962 77.8813 19.861 78.4026 19.4007C79.1087 18.7771 79.1269 17.8598 78.4521 17.2048C77.9308 16.6984 77.2841 16.4031 76.6225 16.1309C75.1955 15.5452 73.7948 14.9133 72.5377 13.9977C71.4456 13.2025 70.6141 12.2028 70.1505 10.9407C69.9624 10.4309 69.8799 9.86835 69.8354 9.32393C69.7034 7.71047 70.0053 6.17619 70.8071 4.75574C71.2789 3.91766 71.9257 3.23136 72.6515 2.60115C73.7519 1.64594 75.0305 1.04708 76.4246 0.682481C77.6058 0.367377 78.8184 0.263442 80.0441 0.27169C81.3029 0.281589 82.5452 0.41522 83.7643 0.725375C85.0759 1.06028 86.3 1.5981 87.4351 2.33389C87.7106 2.51207 87.9844 2.69519 88.2649 2.86512C88.4183 2.9575 88.4249 3.05154 88.3375 3.20002C87.737 4.21792 87.1414 5.23912 86.5491 6.26198C86.2373 6.7998 85.9387 7.34422 85.6319 7.88534C85.5923 7.95463 85.5494 8.02392 85.4949 8.11466Z" fill="white" fill-opacity="0.5"/>
<path d="M4.59395 16.4178C4.69128 16.5399 4.76717 16.6537 4.85956 16.7511C5.79498 17.736 6.84917 18.5708 8.07165 19.1795C8.94932 19.6167 9.87814 19.8774 10.8581 19.9764C11.6665 20.0572 12.4303 19.9632 13.1265 19.5276C13.9844 18.9915 14.1015 17.9719 13.3971 17.2543C12.8824 16.7296 12.2373 16.4129 11.5658 16.144C10.1388 15.5748 8.73485 14.9545 7.48763 14.0455C6.43343 13.2767 5.597 12.3248 5.10373 11.1039C4.87441 10.5364 4.75068 9.94251 4.71603 9.33539C4.65994 8.35709 4.71108 7.38703 4.99649 6.44006C5.46337 4.89588 6.3064 3.60577 7.56187 2.57137C8.68866 1.64255 9.96392 1.03214 11.3646 0.664245C12.4567 0.375537 13.5736 0.279851 14.7004 0.271602C16.0845 0.263353 17.4505 0.395334 18.7868 0.763231C20.2947 1.17897 21.6789 1.85207 22.9443 2.76934C23.2808 3.01351 23.2841 3.01351 23.0812 3.37315C22.3058 4.73916 21.5271 6.10351 20.7501 7.46951C20.6626 7.62459 20.5801 7.78132 20.5026 7.94135C20.4284 8.09642 20.3525 8.11457 20.2073 8.00239C19.4896 7.44147 18.7588 6.8987 17.9389 6.48955C17.0381 6.03917 16.0994 5.74551 15.0765 5.8016C14.4216 5.8379 13.8607 6.08206 13.4614 6.61329C13.0242 7.194 12.9945 8.05188 13.6082 8.71508C14.118 9.2628 14.7614 9.60925 15.4279 9.92271C16.2396 10.3038 17.0612 10.6635 17.8613 11.0693C18.7687 11.5296 19.5969 12.1136 20.3525 12.7966C21.1757 13.5423 21.6343 14.4876 21.8637 15.5517C22.1359 16.8105 22.1161 18.0725 21.8175 19.3247C21.4776 20.7501 20.7154 21.9363 19.7223 23.002C18.3728 24.4505 16.6834 25.2787 14.7994 25.7687C13.6346 26.0722 12.4468 26.1646 11.2392 26.1547C8.95922 26.1349 6.83268 25.5394 4.79192 24.5759C3.42922 23.9325 2.16385 23.134 0.994168 22.1837C0.830842 22.0501 0.799496 21.9742 0.933127 21.7812C1.71181 20.6577 2.46906 19.521 3.23454 18.3876C3.63709 17.7937 4.03963 17.1982 4.44217 16.6042C4.47187 16.5597 4.50816 16.5201 4.589 16.4162L4.59395 16.4178Z" fill="white" fill-opacity="0.5"/>
<path d="M71.0746 0.887137C70.8881 1.12965 70.7001 1.37217 70.5136 1.61468C69.8174 2.5204 69.1212 3.42612 68.425 4.33019C66.7555 6.49633 65.0843 8.66082 63.4131 10.827C62.3275 12.2342 61.2469 13.6464 60.1531 15.0487C59.9453 15.316 59.9766 15.6294 59.9172 15.9231C59.7291 16.8502 59.5559 17.7807 59.3827 18.7112C59.1715 19.8363 58.9703 20.9614 58.7574 22.0849C58.5743 23.055 58.3813 24.0234 58.1949 24.9935C58.1701 25.1205 58.152 25.2492 58.1404 25.3779C58.1289 25.5016 58.0777 25.556 57.9441 25.556C55.316 25.5527 52.688 25.556 50.0599 25.5544C50.0269 25.5544 49.9939 25.5461 49.9395 25.5379C49.9939 25.2294 50.0417 24.9308 50.0978 24.6322C50.3288 23.408 50.5647 22.1856 50.794 20.9614C51.0728 19.4701 51.3467 17.977 51.6222 16.484C51.6833 16.1557 51.736 15.8274 51.8004 15.4991C51.8185 15.4083 51.8532 15.3127 51.9076 15.2368C52.9321 13.7932 53.9599 12.3513 54.9894 10.9111C55.5371 10.144 56.0419 9.33722 56.6556 8.62452C57.3436 7.82604 57.8187 6.89557 58.4423 6.06079C59.3464 4.85152 60.2092 3.60924 61.0902 2.38182C61.4366 1.89844 61.7831 1.41506 62.1411 0.939929C62.1873 0.877238 62.2962 0.832695 62.377 0.831045C62.768 0.819497 63.159 0.826096 63.55 0.826096C65.9784 0.826096 68.4085 0.826096 70.837 0.826096C70.9096 0.826096 70.9822 0.826096 71.0531 0.826096L71.0746 0.885487V0.887137Z" fill="white" fill-opacity="0.5"/>
<path d="M50.7654 12.7635C49.0777 8.77112 47.4065 4.81994 45.7188 0.827518C45.8177 0.827518 45.8837 0.827518 45.9481 0.827518C48.4936 0.827518 51.0376 0.829168 53.5832 0.824219C53.7564 0.824219 53.8405 0.88526 53.9016 1.04034C54.4823 2.50368 55.0597 3.97031 55.6635 5.42375C55.7757 5.69267 55.7295 5.85599 55.5711 6.07376C54.6885 7.28304 53.8207 8.50221 52.9513 9.71974C52.2716 10.6716 51.5985 11.6252 50.9204 12.5771C50.8858 12.6266 50.8429 12.6695 50.7654 12.7602V12.7635Z" fill="white" fill-opacity="0.5"/>
</g>
<defs>
<clipPath id="clip0_523_640">
<rect width="87.5413" height="25.898" fill="white" transform="translate(0.851562 0.272217)"/>
</clipPath>
</defs>
</svg>
