<svg width="98" height="27" viewBox="0 0 98 27" fill="none" xmlns="http://www.w3.org/2000/svg">
<g clip-path="url(#clip0_523_649)">
<path d="M26.4794 10.6179C26.4794 7.63412 26.4876 4.65029 26.4733 1.66851C26.4692 0.94095 26.5059 0.78154 27.4057 0.699791C28.179 0.628261 28.9625 0.63848 29.7398 0.632349C31.0375 0.62213 32.3372 0.636436 33.6348 0.626217C34.8692 0.615999 36.1056 0.568993 37.34 0.573081C40.3903 0.581256 43.4426 0.626217 46.4929 0.624174C49.8472 0.624174 53.2035 0.589431 56.5578 0.564906C57.2046 0.560818 57.8514 0.519944 58.4981 0.511769C58.7287 0.507682 58.9695 0.5179 59.1857 0.583299C59.3224 0.624174 59.4551 0.759059 59.5346 0.885769C59.6122 1.00635 59.6489 1.17189 59.6509 1.31699C59.6795 2.76599 59.6979 4.21498 59.7121 5.66398C59.7121 5.80295 59.6815 5.94396 59.653 6.08294C59.5999 6.35066 59.4306 6.48146 59.1592 6.48146C58.186 6.48146 57.2107 6.48555 56.2375 6.47942C55.8947 6.47737 55.5519 6.44263 55.2092 6.42424C54.95 6.40993 54.8378 6.53869 54.846 6.79211C54.8501 6.89429 54.846 6.99443 54.846 7.09662C54.846 11.5213 54.8419 15.9459 54.8501 20.3706C54.8501 20.908 54.7909 21.1247 54.0462 21.1513C53.5014 21.1717 52.9566 21.1083 52.4098 21.1042C51.3142 21.0961 50.2185 21.0961 49.1229 21.1042C48.5985 21.1083 48.0721 21.1308 47.5478 21.1615C46.6786 21.2126 46.3215 20.6097 46.3236 19.9475C46.3276 18.8766 46.3909 17.8057 46.4297 16.7348C46.4297 16.7143 46.4297 16.6939 46.4297 16.6735C46.4521 15.6618 46.4786 14.6481 46.4929 13.6365C46.5174 11.9341 46.5419 10.2317 46.5521 8.52926C46.5562 7.94885 46.5215 7.36639 46.4888 6.78598C46.4684 6.42628 46.2011 6.18104 45.8196 6.18717C45.2748 6.1933 44.728 6.2403 44.1833 6.2403C43.5263 6.2403 42.8693 6.17899 42.2123 6.18921C39.8333 6.21987 37.4543 6.26892 35.0753 6.30366C34.8406 6.30775 34.7448 6.39358 34.7509 6.62657C34.759 7.02305 34.759 7.41748 34.7509 7.81396C34.7468 8.02855 34.8182 8.143 35.0488 8.12665C35.8628 8.06943 36.6769 8.01016 37.491 7.95498C37.642 7.94476 37.795 7.94885 37.946 7.94272C38.45 7.92432 38.956 7.87119 39.4599 7.89162C40.0108 7.91411 40.5617 7.99381 41.1085 8.0633C41.3533 8.096 41.4554 8.25132 41.4533 8.51291C41.4431 9.96395 41.4513 11.415 41.4472 12.866C41.4472 13.4362 41.1534 13.7244 40.5841 13.7305C40.2699 13.7346 39.9557 13.7244 39.6415 13.7305C38.1949 13.7694 36.7504 13.8082 35.3038 13.8552C34.8284 13.8715 34.8121 13.8981 34.8121 14.362C34.8121 15.0017 34.808 15.6414 34.8162 16.279C34.8325 17.6565 34.857 19.034 34.8733 20.4114C34.8794 20.9673 34.6897 21.1533 34.1225 21.1553C32.2352 21.1574 30.3499 21.1553 28.4626 21.1594C28.0892 21.1594 27.7179 21.2064 27.3445 21.2126C26.912 21.2207 26.7487 21.1124 26.6386 20.7016C26.5529 20.3828 26.4794 20.0497 26.4774 19.7227C26.4651 16.6878 26.4713 13.6549 26.4713 10.62L26.4794 10.6179Z" fill="white" fill-opacity="0.5"/>
<path d="M77.1819 10.6957C77.1819 7.75278 77.19 4.80982 77.1778 1.86687C77.1737 0.875672 77.3635 0.834798 78.253 0.697869C78.7101 0.628383 79.1794 0.634514 79.6445 0.628383C81.9236 0.603858 84.2047 0.534372 86.4837 0.581377C88.6117 0.624295 90.7051 0.971727 92.6557 1.88322C93.9839 2.50451 95.002 3.47937 95.7325 4.75873C96.4078 5.94 96.871 7.19688 97.0729 8.53756C97.2423 9.65752 97.2668 10.7897 97.1668 11.926C97.077 12.952 96.8648 13.9432 96.4751 14.8915C95.4978 17.2765 93.9268 19.1281 91.5498 20.2133C90.4419 20.7181 89.2789 21.0758 88.0507 21.086C85.4186 21.1085 82.7846 21.088 80.1526 21.0962C79.3834 21.0982 78.6142 21.1248 77.847 21.1636C77.5961 21.1759 77.4512 21.088 77.3981 20.8632C77.3145 20.5015 77.1941 20.1336 77.1921 19.7698C77.1758 16.7451 77.1819 13.7225 77.1819 10.6978V10.6957ZM84.9208 10.5527C84.8861 10.5527 84.8535 10.5527 84.8188 10.5527C84.8739 11.9894 84.9167 13.4261 84.9902 14.8629C85.0126 15.2941 85.1044 15.7233 85.186 16.1484C85.2309 16.3813 85.3901 16.5203 85.6451 16.4937C85.9165 16.4651 86.1878 16.4386 86.4551 16.3936C87.5406 16.2035 88.3955 15.6742 88.9525 14.6973C89.538 13.6693 89.6666 12.531 89.7074 11.3885C89.7421 10.4587 89.7176 9.52263 89.6462 8.59479C89.5768 7.70577 89.3238 6.85354 88.6995 6.17707C87.8446 5.24922 86.7142 5.03259 85.5186 5.02237C85.4472 5.02237 85.337 5.06325 85.3125 5.11638C85.1718 5.42294 84.9473 5.73767 84.9392 6.05445C84.9004 7.55249 84.9208 9.05258 84.9208 10.5527Z" fill="white" fill-opacity="0.5"/>
<path d="M68.25 0.749023C70.6331 0.749023 73.0162 0.749023 75.4013 0.749023C75.895 0.749023 75.9705 0.824641 75.9726 1.30287C75.9726 2.67216 75.9665 4.04349 75.9767 5.41278C75.9807 6.00546 75.7481 6.38355 75.032 6.36515C73.6527 6.33245 72.2735 6.36107 70.8942 6.35085C70.2066 6.34676 69.519 6.3161 68.8335 6.29158C68.6172 6.28341 68.4989 6.33654 68.4785 6.58588C68.4418 7.02732 68.352 7.46263 68.3132 7.90407C68.2765 8.31895 68.3255 8.35778 68.7376 8.35778C70.6943 8.35778 72.653 8.35778 74.6096 8.35778C75.134 8.35778 75.3013 8.52332 75.3054 9.04242C75.3074 9.45934 75.2993 9.87421 75.3074 10.2911C75.3238 11.1107 75.3503 11.9302 75.3646 12.7497C75.3727 13.2014 75.3217 13.2218 74.8851 13.2402C73.8568 13.2852 72.8305 13.3526 71.8022 13.4119C71.6818 13.418 71.5594 13.4139 71.4369 13.418C70.5372 13.4385 69.6374 13.463 68.7356 13.4773C68.5397 13.4814 68.4254 13.5366 68.4275 13.7532C68.4316 14.1987 68.4295 14.6463 68.4275 15.0918C68.4275 15.2839 68.5152 15.3698 68.707 15.3616C69.6966 15.3207 70.6861 15.2839 71.6736 15.2451C71.7042 15.2451 71.7348 15.241 71.7654 15.241C73.01 15.2206 74.2546 15.192 75.5013 15.1817C76.0297 15.1777 76.2133 15.3779 76.2195 15.893C76.2378 17.3317 76.2623 18.7705 76.2766 20.2093C76.2827 20.806 76.1154 20.9695 75.5257 20.9695C73.6384 20.9695 71.7532 20.9634 69.8659 20.9716C68.9457 20.9757 68.0255 21.0084 67.1033 21.0309C66.3035 21.0492 65.5057 21.0676 64.7059 21.0901C63.5328 21.1228 62.3616 21.18 61.1884 21.1841C60.7069 21.1841 60.3968 20.9287 60.3866 20.2788C60.3662 18.8686 60.3723 17.4584 60.3825 16.0483C60.3927 14.6299 60.4253 13.2116 60.4376 11.7933C60.4457 10.9104 60.4355 10.0275 60.4417 9.14461C60.46 6.48778 60.4804 3.83299 60.5008 1.17616C60.5029 0.826685 60.5926 0.749023 61.0048 0.749023C62.4147 0.749023 63.8245 0.749023 65.2344 0.749023C66.2382 0.749023 67.2421 0.749023 68.2459 0.749023H68.25Z" fill="white" fill-opacity="0.5"/>
<path d="M0.7945 12.337C0.7945 9.95199 0.800621 7.56902 0.79246 5.18401C0.788379 4.22142 0.731251 3.26087 0.741452 2.30032C0.747573 1.86092 0.839387 1.42153 0.925081 0.986214C0.98629 0.685788 1.17604 0.557034 1.51473 0.557034C3.04293 0.557034 4.57317 0.497766 6.10137 0.518203C6.8318 0.528422 7.56224 0.663307 8.29063 0.751187C8.42733 0.767537 8.55995 0.832935 8.69258 0.881985C9.02107 1.00256 9.14349 1.24577 9.13941 1.58911C9.11288 3.79837 9.09656 6.00762 9.07615 8.21688C9.05575 10.3342 9.04147 12.4535 9.00882 14.5708C9.00474 14.8671 9.09248 14.955 9.38424 14.9407C9.91065 14.9182 10.4391 14.9284 10.9655 14.9346C12.2509 14.9509 13.5363 14.9693 14.8217 15C15.1114 15.0061 15.4032 15.0572 15.6868 15.1165C16.1091 15.2023 16.2499 15.3597 16.252 15.7766C16.2601 17.2889 16.256 18.7992 16.256 20.3116C16.256 20.5936 16.1153 20.7816 15.8459 20.8307C15.4011 20.9124 14.9523 21.0003 14.5034 21.0208C13.4934 21.0657 12.4794 21.0821 11.4694 21.0882C8.12537 21.1127 4.78128 21.1291 1.4372 21.1495C1.1842 21.1495 1.00057 21.0596 0.943444 20.8C0.886315 20.5364 0.798581 20.2687 0.798581 20.003C0.788379 17.4463 0.79246 14.8896 0.79246 12.3329L0.7945 12.337Z" fill="white" fill-opacity="0.5"/>
<path d="M25.1472 12.9888C25.1472 14.0536 25.139 15.1184 25.1492 16.1831C25.1574 17.1539 25.1961 18.1267 25.2022 19.0975C25.2043 19.6125 25.1716 20.1275 25.141 20.6425C25.1166 21.0697 25.0227 21.1514 24.6004 21.1514C23.0599 21.1514 21.5174 21.1473 19.977 21.1555C19.4934 21.1575 19.0078 21.2066 18.5243 21.2086C18.1203 21.2086 17.7184 21.1718 17.3144 21.1534C17.1267 21.1453 17.043 21.0431 17.043 20.8612C17.043 19.6431 17.0389 18.4271 17.0471 17.2091C17.0491 16.8065 17.0961 16.4018 17.1022 15.9992C17.1267 14.1455 17.143 12.2919 17.1654 10.4382C17.1838 8.9402 17.2062 7.44012 17.2266 5.94207C17.2328 5.53537 17.3266 5.43319 17.7265 5.44136C18.2611 5.45158 18.7956 5.48428 19.3323 5.49246C19.5016 5.49654 19.673 5.43932 19.8423 5.44136C21.4725 5.45771 23.1028 5.48224 24.733 5.4945C24.988 5.4945 25.0778 5.61917 25.0839 5.84397C25.0839 5.87463 25.0839 5.90529 25.0839 5.93594C25.0839 8.28621 25.0839 10.6365 25.0839 12.9888C25.1043 12.9888 25.1268 12.9888 25.1472 12.9888Z" fill="white" fill-opacity="0.5"/>
<path d="M21.1008 4.04359C19.8847 4.04359 18.6667 4.0395 17.4506 4.04768C17.2017 4.04768 17.1058 3.9598 17.1038 3.71251C17.0915 2.76014 17.0732 1.80981 17.0426 0.859481C17.0344 0.599929 17.1099 0.50183 17.3854 0.50183C19.4726 0.491612 21.5598 0.467087 23.645 0.448694C24.0001 0.444606 24.3551 0.442563 24.7101 0.448694C25.0386 0.454825 25.1467 0.569273 25.1467 0.890136C25.1467 1.8139 25.1406 2.73765 25.1508 3.65937C25.1549 3.95367 25.0386 4.04972 24.7529 4.04768C23.5369 4.03746 22.3188 4.04359 21.1028 4.04359H21.1008Z" fill="white" fill-opacity="0.5"/>
<path d="M59.0503 24.4482C59.0503 24.9244 59.0462 25.4006 59.0503 25.8788C59.0523 26.1098 58.9523 26.212 58.7218 26.2099C58.3566 26.2038 57.9913 26.1997 57.6261 26.2099C57.4262 26.2161 57.3344 26.1261 57.2752 25.9504C57.1609 25.605 57.0406 25.2616 56.9059 24.9244C56.8712 24.8365 56.7753 24.7732 56.708 24.6976C56.6774 24.7834 56.6223 24.8692 56.6203 24.9571C56.6101 25.2719 56.608 25.5866 56.6203 25.8993C56.6284 26.1547 56.5346 26.2712 56.2673 26.2692C55.2614 26.2631 55.3206 26.3509 55.3349 25.3659C55.3471 24.5157 55.3757 23.6675 55.3899 22.8174C55.394 22.6252 55.4614 22.5394 55.6593 22.5435C56.0551 22.5496 56.4509 22.5312 56.8447 22.5558C56.9426 22.5619 57.0793 22.6661 57.1201 22.7581C57.2854 23.126 57.416 23.5102 57.569 23.8821C57.5976 23.9516 57.6812 23.9986 57.7384 24.0538C57.7669 23.9761 57.82 23.9005 57.822 23.8229C57.8322 23.5286 57.8302 23.2343 57.8261 22.94C57.822 22.6682 57.9179 22.5128 58.2199 22.5415C58.3402 22.5537 58.4627 22.5415 58.5851 22.5415C59.0034 22.5415 59.0442 22.5782 59.0482 23.0136C59.0544 23.4897 59.0482 23.9659 59.0482 24.4442L59.0503 24.4482Z" fill="white" fill-opacity="0.5"/>
<path d="M30.8491 23.9677C30.8736 23.5957 30.9083 23.2258 30.9164 22.8538C30.9205 22.6392 30.9817 22.5309 31.2143 22.5452C31.4061 22.5575 31.6 22.5555 31.7917 22.5452C32.0039 22.535 32.0855 22.6413 32.0855 22.8375C32.0855 23.8716 32.0835 24.9057 32.0876 25.9398C32.0876 26.136 32.008 26.2137 31.8142 26.2096C31.449 26.2035 31.0838 26.1974 30.7206 26.2096C30.4961 26.2178 30.388 26.1054 30.3186 25.9153C30.1983 25.5842 30.0779 25.2511 29.9453 24.9241C29.9167 24.8546 29.8269 24.8097 29.7657 24.7545C29.7269 24.826 29.6596 24.8955 29.6576 24.967C29.6453 25.2899 29.6412 25.6169 29.6576 25.9398C29.6698 26.1974 29.5637 26.2873 29.3168 26.2689C29.1352 26.2546 28.9516 26.2566 28.77 26.2689C28.4946 26.2873 28.3681 26.1381 28.3722 25.8908C28.3844 24.8485 28.4048 23.8062 28.4395 22.766C28.4415 22.6903 28.5782 22.5616 28.6578 22.5575C29.072 22.5371 29.4882 22.5309 29.9024 22.5575C30.0085 22.5636 30.1493 22.6883 30.1962 22.7946C30.3411 23.1154 30.4411 23.4567 30.5737 23.7837C30.6104 23.8757 30.6941 23.9472 30.7553 24.029C30.7879 24.0085 30.8205 23.9861 30.8532 23.9656L30.8491 23.9677Z" fill="white" fill-opacity="0.5"/>
<path d="M63.6139 23.784C64.1382 23.8555 64.1545 23.8412 64.1566 23.3834C64.1566 23.3017 64.1566 23.222 64.1566 23.1402C64.1668 22.4515 64.0505 22.57 64.7932 22.5026C65.6277 22.4249 65.6358 22.5292 65.6256 23.269C65.6113 24.1396 65.6154 25.0123 65.6256 25.8849C65.6297 26.167 65.5032 26.2692 65.2461 26.2692C65.0033 26.2692 64.7585 26.2508 64.5177 26.2732C64.1974 26.3039 64.1035 26.1343 64.0974 25.8645C64.0913 25.6417 64.0954 25.419 64.0974 25.1962C64.0974 25.0572 64.0974 24.9223 63.8995 24.9346C63.724 24.9448 63.6118 25.0123 63.6159 25.2105C63.62 25.4435 63.6057 25.6765 63.6179 25.9095C63.6322 26.1608 63.5037 26.263 63.2772 26.2671C63.0446 26.2732 62.812 26.2692 62.5774 26.2671C62.2142 26.2671 62.0959 26.1731 62.0938 25.8093C62.0918 25.3761 62.1305 24.9428 62.1408 24.5095C62.151 23.9925 62.1469 23.4754 62.1489 22.9583C62.151 22.5946 62.1938 22.5516 62.5488 22.5496C62.761 22.5496 62.9752 22.5373 63.1874 22.5537C63.5139 22.5762 63.6118 22.6886 63.6159 23.0156C63.62 23.2669 63.6159 23.5183 63.6159 23.784H63.6139Z" fill="white" fill-opacity="0.5"/>
<path d="M78.8937 24.4231C78.8937 24.9095 78.8815 25.398 78.8978 25.8844C78.9059 26.1684 78.7754 26.2686 78.5183 26.2686C78.2755 26.2686 78.0306 26.2604 77.7878 26.2706C77.5308 26.2808 77.4104 26.1787 77.4226 25.915C77.4328 25.6718 77.4226 25.4286 77.4226 25.1854C77.4226 25.0076 77.3369 24.932 77.1594 24.932C76.986 24.932 76.8901 25.0015 76.8881 25.1793C76.886 25.4225 76.8758 25.6657 76.8881 25.9089C76.9003 26.1398 76.7942 26.2563 76.5759 26.2645C76.2923 26.2747 76.0087 26.2747 75.7251 26.2645C75.517 26.2584 75.417 26.1337 75.417 25.9273C75.417 24.9136 75.417 23.8999 75.419 22.8842C75.419 22.6532 75.5292 22.5306 75.7802 22.5449C76.0026 22.5572 76.227 22.5429 76.4494 22.549C76.7758 22.5592 76.8819 22.6696 76.886 22.9925C76.886 23.1846 76.8901 23.3788 76.886 23.5709C76.8819 23.7528 76.9717 23.8223 77.1472 23.8243C77.3329 23.8243 77.4349 23.7609 77.4287 23.5607C77.4226 23.3481 77.4287 23.1356 77.4287 22.921C77.4287 22.6921 77.4838 22.5286 77.7674 22.5347C77.998 22.5388 78.2286 22.4897 78.4591 22.4897C78.7876 22.4897 78.8917 22.6062 78.8937 22.9312C78.8937 23.4278 78.8937 23.9244 78.8937 24.4211V24.4231Z" fill="white" fill-opacity="0.5"/>
<path d="M36.7708 25.1368C36.7708 25.3698 36.7891 25.6048 36.7626 25.8357C36.7524 25.9359 36.6667 26.0912 36.5912 26.1096C35.7649 26.3017 34.9284 26.4795 34.1 26.1505C33.3818 25.8664 33.0003 25.1143 33.0288 24.2825C33.0635 23.232 33.8286 22.5821 34.7978 22.4759C35.3324 22.4166 35.8424 22.4513 36.2505 22.7947C36.4607 22.9725 36.5606 23.2913 36.6851 23.557C36.7014 23.5938 36.579 23.7552 36.5137 23.7593C36.1913 23.7798 35.8649 23.7777 35.5425 23.7614C35.467 23.7573 35.363 23.6919 35.3262 23.6244C35.214 23.4262 35.0263 23.4282 34.8774 23.4855C34.757 23.5304 34.606 23.6796 34.5978 23.7941C34.5632 24.1905 34.5468 24.5972 34.5978 24.9896C34.6325 25.2594 35.2569 25.4188 35.467 25.2431C35.5058 25.2104 35.5466 25.1245 35.5303 25.0898C35.5017 25.0264 35.4364 24.9569 35.3732 24.9385C35.0365 24.8404 34.8876 24.585 35.0222 24.2539C35.0569 24.1701 35.1997 24.0843 35.2977 24.0781C35.6915 24.0577 36.0873 24.07 36.4831 24.07C36.6851 24.07 36.7769 24.1762 36.7749 24.3745C36.7728 24.6279 36.7749 24.8813 36.7749 25.1347L36.7708 25.1368Z" fill="white" fill-opacity="0.5"/>
<path d="M83.5254 24.3744C83.5294 24.9589 83.3642 25.4821 82.9235 25.8745C82.3297 26.4039 81.6319 26.4345 80.9097 26.2036C80.2384 25.989 79.9323 25.4617 79.8018 24.8098C79.6385 23.9984 79.814 23.2872 80.5118 22.7987C81.1933 22.3226 81.9482 22.2551 82.6807 22.6761C83.3213 23.0419 83.5192 23.6714 83.5254 24.3744ZM82.2012 24.3622C82.1563 24.1231 82.1522 23.888 82.0624 23.6939C82.0033 23.5672 81.8217 23.4302 81.6911 23.4262C81.5585 23.4221 81.3442 23.5488 81.2994 23.6673C81.1239 24.1292 81.0749 24.6197 81.2626 25.0877C81.3177 25.2226 81.5177 25.382 81.6503 25.382C81.787 25.382 81.9788 25.2226 82.04 25.0836C82.14 24.8588 82.1522 24.5972 82.1991 24.3601L82.2012 24.3622Z" fill="white" fill-opacity="0.5"/>
<path d="M19.7445 22.5475C19.7955 22.5475 19.8465 22.5475 19.8975 22.5475C20.7892 22.5598 20.5913 22.4208 20.8789 23.273C21.1666 24.1232 21.4217 24.9857 21.691 25.842C21.8073 26.2139 21.7706 26.265 21.3809 26.2671C21.1381 26.2671 20.8932 26.263 20.6504 26.2671C20.4382 26.2711 20.2913 26.1894 20.275 25.9646C20.2587 25.7643 20.1444 25.7173 19.9669 25.7153C19.7874 25.7132 19.6037 25.6642 19.4262 25.6826C19.3365 25.6907 19.2018 25.7888 19.1814 25.8685C19.0998 26.1996 18.9019 26.3059 18.5795 26.2711C18.3897 26.2507 18.1939 26.2711 18.0021 26.2671C17.7001 26.2609 17.6328 26.1874 17.7246 25.8971C17.9531 25.1655 18.198 24.4379 18.4367 23.7104C18.5183 23.461 18.6203 23.2178 18.6815 22.9644C18.755 22.666 18.8896 22.4964 19.2263 22.5434C19.3956 22.5679 19.5711 22.5475 19.7425 22.5475H19.7445ZM19.6323 24.8549C19.9996 24.8549 20.073 24.7608 19.9894 24.395C19.9404 24.1804 19.9016 23.9617 19.8425 23.7492C19.8221 23.6736 19.7568 23.6082 19.7119 23.5387C19.6507 23.6082 19.5609 23.6675 19.5364 23.7472C19.4609 23.9965 19.4099 24.252 19.3528 24.5074C19.2916 24.7772 19.3548 24.8528 19.6343 24.8528L19.6323 24.8549Z" fill="white" fill-opacity="0.5"/>
<path d="M52.6399 22.547C53.2384 22.547 53.6301 22.8338 53.8151 23.4074C54.0824 24.2433 54.3456 25.0812 54.6088 25.9171C54.7027 26.2114 54.668 26.2605 54.3681 26.2666C54.0947 26.2707 53.8213 26.2625 53.5478 26.2686C53.3479 26.2727 53.2173 26.2155 53.1949 25.9887C53.1765 25.7965 53.0521 25.7189 52.8603 25.7148C52.6909 25.7128 52.5154 25.6555 52.3522 25.6801C52.242 25.6964 52.0829 25.8006 52.0605 25.8926C51.9829 26.2012 51.8095 26.2973 51.5096 26.2686C51.2892 26.2482 51.0648 26.2646 50.8403 26.2646C50.6526 26.2646 50.5445 26.2094 50.6159 25.9887C50.9648 24.9137 51.3096 23.8387 51.6544 22.7616C51.7095 22.59 51.8238 22.5307 52.0013 22.5409C52.2135 22.5532 52.4257 22.5429 52.6399 22.5429V22.547ZM52.6685 23.4361C52.4502 23.6261 52.1523 24.5458 52.2543 24.7072C52.3094 24.7931 52.4869 24.8483 52.6011 24.838C52.7195 24.8278 52.9296 24.7052 52.9235 24.6562C52.8643 24.2576 52.7644 23.8652 52.6685 23.4361Z" fill="white" fill-opacity="0.5"/>
<path d="M42.7814 26.2667C42.6692 26.2667 42.557 26.2585 42.4468 26.2667C42.2183 26.2892 42.0734 26.2054 42.0306 25.9724C41.9918 25.7599 41.8571 25.6924 41.6572 25.7149C41.598 25.721 41.5327 25.7272 41.4756 25.7149C41.1308 25.6352 40.8615 25.6495 40.8186 26.1053C40.8125 26.1686 40.6105 26.2463 40.4942 26.2565C40.2534 26.281 40.0086 26.2647 39.7658 26.2626C39.4271 26.2606 39.3802 26.1972 39.4883 25.858C39.7434 25.0609 39.9964 24.2618 40.2596 23.4668C40.5656 22.541 40.5676 22.541 41.5511 22.541H41.7633C42.4182 22.541 42.4121 22.5431 42.6039 23.1725C42.8793 24.0799 43.165 24.9833 43.4486 25.8886C43.5486 26.2095 43.52 26.2544 43.1793 26.2606C43.0466 26.2626 42.9161 26.2606 42.7834 26.2606L42.7814 26.2667ZM41.5184 23.4668C41.4776 23.4689 41.4368 23.4729 41.394 23.475C41.1818 23.851 41.1308 24.2802 41.0696 24.6992C41.0634 24.7401 41.1838 24.8341 41.2573 24.8484C41.698 24.9363 41.8388 24.783 41.7347 24.3517C41.6633 24.0554 41.5898 23.7611 41.5164 23.4648L41.5184 23.4668Z" fill="white" fill-opacity="0.5"/>
<path d="M44.8181 25.1063C45.0854 25.1206 45.3975 25.0245 45.6159 25.3454C45.6607 25.4108 45.8607 25.3985 45.979 25.3719C46.0423 25.3576 46.1382 25.2105 46.1198 25.1737C46.0647 25.0674 45.975 24.9407 45.8709 24.9039C45.5873 24.8079 45.2813 24.7711 44.9956 24.6771C44.3958 24.4829 44.1121 24.1375 44.1346 23.6532C44.1489 23.3098 44.2937 23.0114 44.5671 22.8193C45.2792 22.3166 46.0607 22.2778 46.836 22.6334C47.0502 22.7315 47.2012 22.9992 47.3379 23.2158C47.4644 23.4161 47.3665 23.5878 47.1257 23.5755C46.7238 23.5551 46.2994 23.7145 45.9178 23.4325C45.8566 23.3875 45.6914 23.4815 45.5751 23.5122C45.6546 23.5878 45.722 23.6961 45.8158 23.7329C46.1627 23.8637 46.5258 23.9536 46.8707 24.0885C47.6909 24.4093 47.6827 25.5252 47.0033 25.9932C46.4095 26.402 45.2262 26.4449 44.6406 26.028C44.4468 25.891 44.2937 25.6662 44.1856 25.4516C44.0591 25.1982 44.1407 25.1103 44.4304 25.1042C44.5529 25.1022 44.6732 25.1042 44.8201 25.1042L44.8181 25.1063Z" fill="white" fill-opacity="0.5"/>
<path d="M13.7988 22.5494C14.2436 22.5494 14.666 22.5391 15.0883 22.5596C15.1577 22.5637 15.2638 22.6924 15.2821 22.7803C15.3944 23.3117 15.4821 23.8471 15.5902 24.3805C15.6065 24.4623 15.6759 24.5318 15.7228 24.6074C15.7759 24.5297 15.8555 24.4582 15.8759 24.3723C15.9901 23.8716 16.0983 23.3689 16.1901 22.8641C16.2329 22.6331 16.337 22.531 16.5777 22.5432C16.8409 22.5575 17.1041 22.5494 17.3673 22.5453C17.5469 22.5432 17.6326 22.5943 17.5795 22.7987C17.3204 23.7817 17.0776 24.7709 16.8103 25.7519C16.6818 26.228 16.6573 26.2158 16.1697 26.2117C15.7983 26.2096 15.425 26.2628 15.0536 26.2566C14.9455 26.2546 14.7721 26.1442 14.7435 26.0502C14.417 24.9385 14.111 23.8205 13.8029 22.7026C13.7947 22.6761 13.8029 22.6454 13.8029 22.5494H13.7988Z" fill="white" fill-opacity="0.5"/>
<path d="M3.16839 24.8321C3.16839 24.1658 3.17247 23.4975 3.16839 22.8313C3.16839 22.6371 3.25816 22.5492 3.44179 22.5492C4.18243 22.5492 4.92102 22.5472 5.66166 22.5492C5.85345 22.5492 5.96362 22.6596 5.97383 22.8497C6.00647 23.428 5.88813 23.6999 5.24339 23.5445C5.08017 23.5057 4.89858 23.518 4.72923 23.5384C4.6721 23.5445 4.59049 23.6529 4.59049 23.7142C4.59049 23.7693 4.6823 23.8695 4.73943 23.8736C4.99243 23.892 5.24543 23.8838 5.49843 23.8838C5.69226 23.8838 5.80448 23.9594 5.79632 24.174C5.79224 24.2619 5.82284 24.3518 5.83304 24.4417C5.85753 24.6543 5.79428 24.8014 5.5474 24.8014C5.3148 24.8014 5.08017 24.7953 4.84757 24.8076C4.69863 24.8157 4.5354 24.8668 4.59661 25.0528C4.62109 25.1284 4.79044 25.1938 4.8945 25.1959C5.17606 25.204 5.45763 25.1754 5.73919 25.1611C5.75959 25.1611 5.78204 25.155 5.8004 25.1652C6.15337 25.3471 5.91466 25.67 5.97179 25.9214C6.00851 26.0767 5.94934 26.2055 5.75143 26.2014C5.74123 26.2014 5.73103 26.2014 5.72083 26.2014C4.99447 26.2218 4.26608 26.2463 3.53973 26.2606C3.19695 26.2668 3.1133 26.1768 3.11126 25.8294C3.10922 25.4942 3.11126 25.1611 3.11126 24.8259H3.17043L3.16839 24.8321Z" fill="white" fill-opacity="0.5"/>
<path d="M11.8094 22.5493C12.1747 22.5493 12.5399 22.5514 12.9031 22.5493C13.1193 22.5493 13.2234 22.6474 13.2152 22.862C13.2152 22.9029 13.2152 22.9438 13.2152 22.9846C13.2173 23.5773 13.1336 23.6386 12.5297 23.5446C12.3522 23.516 12.1645 23.518 11.9849 23.5446C11.9217 23.5528 11.8482 23.6652 11.8319 23.7408C11.8237 23.7776 11.9359 23.8777 11.9992 23.8818C12.242 23.9002 12.4848 23.8839 12.7276 23.892C13.0296 23.9023 13.0867 24.0044 13.0948 24.4193C13.101 24.6809 13.0214 24.8281 12.7337 24.8117C12.5419 24.8015 12.3481 24.8056 12.1563 24.8117C11.9931 24.8178 11.7992 24.8199 11.8278 25.057C11.8543 25.2756 12.038 25.2225 12.1889 25.2143C12.4501 25.198 12.7133 25.1653 12.9724 25.1816C13.0581 25.1878 13.1357 25.3267 13.2152 25.4044C13.2213 25.4085 13.2152 25.4248 13.2152 25.435C13.2622 26.2117 13.2622 26.2035 12.4787 26.2137C11.9135 26.2219 11.3483 26.2566 10.7832 26.2689C10.4526 26.2771 10.3486 26.1871 10.3506 25.8663C10.3608 24.8444 10.3873 23.8246 10.4057 22.8027C10.4098 22.5943 10.5404 22.5534 10.7097 22.5514C11.0749 22.5514 11.4401 22.5514 11.8033 22.5514L11.8094 22.5493Z" fill="white" fill-opacity="0.5"/>
<path d="M84.4268 24.3829C84.4268 23.8965 84.4268 23.4101 84.4268 22.9216C84.4268 22.7234 84.4941 22.5579 84.7042 22.5579C85.4408 22.5619 86.1835 22.5456 86.9139 22.6212C87.4526 22.6764 87.8035 23.1465 87.8402 23.6717C87.8769 24.2031 87.5607 24.7078 87.0506 24.8713C86.8058 24.949 86.5405 24.9797 86.2814 24.9878C86.0549 24.994 85.955 25.0512 85.9488 25.2985C85.9284 26.2713 85.9203 26.2713 84.943 26.2692C84.5206 26.2692 84.4308 26.1793 84.4288 25.7522C84.4288 25.2964 84.4288 24.8386 84.4288 24.3829H84.4268ZM85.7734 23.7861C85.7672 24.1581 85.8223 24.248 86.0243 24.246C86.2957 24.2439 86.5426 24.0109 86.5507 23.7555C86.5589 23.5 86.3467 23.2916 86.0447 23.3099C85.706 23.3304 85.8244 23.6308 85.7734 23.7861Z" fill="white" fill-opacity="0.5"/>
<path d="M69.209 24.3497C69.209 23.8633 69.211 23.3769 69.209 22.8905C69.209 22.7065 69.2518 22.5512 69.4661 22.5532C70.2026 22.5635 70.9433 22.5614 71.6778 22.6166C72.1756 22.6534 72.5021 23.0662 72.6102 23.665C72.6775 24.039 72.4062 24.5581 72.0511 24.7686C71.7329 24.9567 71.3942 25.02 71.033 24.9914C70.8392 24.975 70.729 25.0261 70.7311 25.255C70.7351 25.4758 70.6739 25.6985 70.6862 25.9172C70.7025 26.2094 70.5821 26.2953 70.3108 26.2748C70.0884 26.2565 69.866 26.2728 69.6415 26.2708C69.2926 26.2708 69.2192 26.2033 69.2151 25.8436C69.2069 25.347 69.2151 24.8504 69.2131 24.3538L69.209 24.3497ZM70.5495 23.7897C70.5882 23.9552 70.4515 24.2209 70.78 24.2454C71.0453 24.2659 71.3187 23.9981 71.3146 23.7345C71.3105 23.4852 71.1146 23.3012 70.8229 23.3094C70.4944 23.3176 70.5699 23.5812 70.5495 23.7897Z" fill="white" fill-opacity="0.5"/>
<path d="M23.5599 22.5474C23.9659 22.5474 24.3719 22.5638 24.7759 22.5413C25.0799 22.5249 25.1839 22.6435 25.1472 22.9296C25.135 23.0195 25.1472 23.1115 25.1472 23.2034C25.1431 23.5161 24.9983 23.6306 24.682 23.5713C24.3291 23.5039 24.2964 23.5284 24.2944 23.8901C24.2944 24.54 24.2944 25.1879 24.2944 25.8378C24.2944 26.2057 24.2311 26.2649 23.8741 26.267C23.6211 26.267 23.3681 26.2608 23.113 26.267C22.8702 26.2751 22.756 26.173 22.7662 25.9236C22.7886 25.3371 22.7927 24.7505 22.8274 24.166C22.8559 23.6694 22.7988 23.5754 22.2928 23.5917C21.9888 23.602 21.9072 23.4773 21.9113 23.1973C21.9174 22.5454 21.9092 22.5454 22.5581 22.5454C22.8927 22.5454 23.2273 22.5454 23.5619 22.5454L23.5599 22.5474Z" fill="white" fill-opacity="0.5"/>
<path d="M6.81875 24.3665C6.81875 23.8596 6.82691 23.3528 6.81467 22.8459C6.80854 22.5925 6.93504 22.5005 7.16152 22.4903C7.17172 22.4903 7.18192 22.4903 7.19212 22.4903C7.92256 22.4563 8.2871 22.803 8.28574 23.5306C8.28574 23.9557 8.30002 24.3828 8.27961 24.8079C8.26737 25.0961 8.38163 25.1901 8.65503 25.1696C8.86723 25.1533 9.08146 25.1635 9.29365 25.1696C9.36302 25.1696 9.4834 25.1819 9.48952 25.2105C9.54461 25.4578 9.60582 25.7112 9.60582 25.9626C9.60582 26.0484 9.4426 26.1588 9.33242 26.2099C9.21816 26.261 9.07738 26.2671 8.94884 26.2671C8.38163 26.2732 7.81442 26.2712 7.24517 26.2692C6.85139 26.2692 6.81671 26.2324 6.81671 25.8277C6.81671 25.3413 6.81671 24.8549 6.81671 24.3665H6.81875Z" fill="white" fill-opacity="0.5"/>
<path d="M68.1783 24.3703C68.1783 24.8465 68.1824 25.3226 68.1783 25.7988C68.1742 26.2096 68.111 26.2668 67.7009 26.2689C67.4377 26.2689 67.1745 26.2648 66.9113 26.2689C66.6766 26.273 66.5869 26.1585 66.591 25.9317C66.6134 24.9425 66.6338 23.9513 66.6522 22.9621C66.6583 22.5698 66.6746 22.5493 67.0664 22.5493C67.2989 22.5493 67.5315 22.5493 67.7641 22.5493C68.1294 22.5493 68.1742 22.5943 68.1783 22.9744C68.1824 23.4404 68.1783 23.9063 68.1783 24.3723V24.3703Z" fill="white" fill-opacity="0.5"/>
<path d="M49.8593 24.3766C49.8593 24.8835 49.8511 25.3903 49.8634 25.8971C49.8695 26.1751 49.7532 26.2814 49.4818 26.2691C49.188 26.2568 48.8942 26.263 48.6004 26.2691C48.429 26.2711 48.329 26.218 48.3331 26.0279C48.3556 24.9346 48.3699 23.8432 48.4025 22.7498C48.4025 22.6803 48.527 22.5618 48.5963 22.5577C48.9391 22.5373 49.286 22.5516 49.6287 22.5475C49.8246 22.5475 49.8613 22.6619 49.8613 22.8254C49.8572 23.3425 49.8613 23.8596 49.8613 24.3766H49.8593Z" fill="white" fill-opacity="0.5"/>
<path d="M27.3995 24.3746C27.3995 24.8916 27.3934 25.4087 27.4016 25.9258C27.4056 26.171 27.2995 26.2773 27.0547 26.2711C26.7507 26.263 26.4467 26.263 26.1427 26.2711C25.9509 26.2752 25.8652 26.1996 25.8693 26.0014C25.8938 24.9182 25.908 23.8371 25.9407 22.7539C25.9427 22.6844 26.0611 22.5618 26.1325 22.5577C26.4753 22.5373 26.8221 22.5516 27.1649 22.5475C27.3587 22.5475 27.4016 22.6558 27.3995 22.8214C27.3954 23.3384 27.3995 23.8555 27.3995 24.3725V24.3746Z" fill="white" fill-opacity="0.5"/>
</g>
<defs>
<clipPath id="clip0_523_649">
<rect width="96.4826" height="25.898" fill="white" transform="translate(0.741211 0.442383)"/>
</clipPath>
</defs>
</svg>
