<svg width="165" height="25" viewBox="0 0 165 25" fill="none" xmlns="http://www.w3.org/2000/svg">
<g clip-path="url(#clip0_306_545)">
<path d="M61.1018 9.26595H67.1541C67.1034 9.37409 67.0865 9.47546 67.0257 9.52615C66.3566 10.0736 66.1707 10.8272 66.1674 11.6315C66.1572 15.2439 66.1505 18.8598 66.1674 22.4722C66.1707 23.3441 66.3363 24.1855 67.2082 24.7499C62.9469 24.8614 58.7295 24.8614 54.5088 24.8411L54.475 24.7093C54.6811 24.5133 54.9143 24.3342 55.09 24.1112C55.4956 23.6009 55.259 23.0501 55.0731 22.5533C54.8062 21.8335 54.4683 21.1374 54.1303 20.448C54.0763 20.3365 53.8667 20.2453 53.7282 20.2453C52.1974 20.2453 50.6665 20.2689 49.1357 20.2926C49.0107 20.2926 48.8113 20.3399 48.7775 20.4176C48.4768 21.1543 48.1557 21.8876 47.9395 22.6479C47.7232 23.4083 47.9969 24.0537 48.6559 24.5099C48.7336 24.564 48.8316 24.5944 48.9228 24.635C48.8924 24.6857 48.8654 24.7363 48.835 24.787C48.7201 24.8039 48.6086 24.8377 48.4937 24.8377C46.0504 24.8377 43.6038 24.8242 41.1606 24.8445C40.7078 24.8479 40.4611 24.6451 40.3361 24.2801C39.9745 23.2258 39.6399 22.1613 39.2986 21.0968C39.0992 20.4717 38.9641 19.8229 38.714 19.2213C38.2916 18.2042 37.5583 17.5858 36.3721 17.6736C36.0376 17.6973 35.6997 17.677 35.3077 17.677C35.3009 17.8392 35.284 17.9845 35.284 18.1332C35.284 19.5322 35.2806 20.9346 35.284 22.3337C35.2874 23.2258 35.4023 24.0774 36.2404 24.6282C36.2674 24.6451 36.2674 24.7026 36.2978 24.7972H30.2354C30.3165 24.6789 30.3502 24.6012 30.4077 24.5572C31.0362 24.0875 31.2728 23.4218 31.2762 22.6851C31.2897 18.9037 31.2863 15.1223 31.2796 11.3408C31.2796 10.7326 31.0531 10.1953 30.6476 9.73229C30.5327 9.6005 30.4212 9.46195 30.259 9.26933C30.4314 9.24905 30.5226 9.23216 30.6105 9.23216C33.4761 9.23216 36.3451 9.21526 39.2107 9.25243C40.2718 9.26595 41.2992 9.52277 42.2149 10.0939C43.374 10.8204 43.9688 11.8443 43.935 13.2434C43.8877 15.2034 43.0936 16.3827 41.2552 17.0552C41.0356 17.1363 40.7923 17.1566 40.5591 17.1904C40.3563 17.2208 40.1536 17.2309 39.9474 17.2512C39.9407 17.2884 39.9339 17.3222 39.9272 17.3594C40.2212 17.4911 40.5084 17.65 40.8125 17.748C42.1642 18.167 42.8131 19.1977 43.222 20.4514C43.516 21.3537 43.81 22.2559 44.1344 23.1481C44.3439 23.7226 44.7866 24.1146 45.2969 24.4356C45.5402 24.591 45.7632 24.5809 45.9186 24.3376C46.3647 23.6448 46.875 22.9791 47.2129 22.239C48.7066 18.9679 50.1529 15.6765 51.6094 12.3884C52.0284 11.4422 52.4238 10.4859 52.8327 9.53291C52.8969 9.38084 52.9746 9.23216 53.0895 8.99561C53.201 9.18147 53.2821 9.29636 53.3429 9.42478C54.4074 11.77 55.4618 14.1186 56.533 16.4605C57.5637 18.7144 58.591 20.9684 59.669 23.1954C59.9157 23.7057 60.3651 24.1281 60.7571 24.5572C60.8348 24.6417 61.1052 24.6485 61.2235 24.5809C61.8993 24.1855 62.2203 23.5536 62.2203 22.7966C62.2305 19.0152 62.2271 15.2338 62.2203 11.4523C62.2203 10.7528 62.0007 10.131 61.4465 9.65795C61.3451 9.57008 61.2674 9.45181 61.1018 9.25919V9.26595ZM35.382 9.84043C35.3178 9.94857 35.3077 9.9587 35.3077 9.97222C35.3009 12.2397 35.2908 14.5072 35.3009 16.7747C35.3009 16.8694 35.4935 17.0349 35.605 17.0451C35.9666 17.0789 36.335 17.0687 36.6999 17.0552C38.2308 16.991 39.373 16.1158 39.7616 14.6863C40.0116 13.7604 39.9711 12.8277 39.6534 11.9221C39.2817 10.8644 38.5788 10.1412 37.4468 9.96546C36.7608 9.8607 36.0545 9.88098 35.382 9.84381V9.84043ZM53.762 19.6336C52.9881 17.8527 52.2481 16.1428 51.4607 14.3247C51.2917 14.6052 51.143 14.8046 51.0484 15.0243C50.4503 16.3929 49.8657 17.7649 49.2709 19.1369C49.0715 19.5931 49.1087 19.6573 49.6257 19.6573C50.8186 19.6573 52.0081 19.6573 53.201 19.6573C53.3497 19.6573 53.5018 19.6438 53.7654 19.6336H53.762Z" fill="white" fill-opacity="0.5"/>
<path d="M121.152 9.25274C121.426 9.25274 121.561 9.25274 121.693 9.25274C123.126 9.25274 124.559 9.2595 125.992 9.2426C126.289 9.2426 126.431 9.32033 126.542 9.61095C127.647 12.4394 128.766 15.2611 129.891 18.0795C130.003 18.3599 130.168 18.6201 130.351 18.975C130.719 18.0254 131.037 17.211 131.351 16.3966C132.199 14.1899 133.051 11.9866 133.879 9.77315C134.024 9.38791 134.21 9.22909 134.639 9.23922C135.903 9.26626 137.167 9.24936 138.434 9.24936C138.569 9.24936 138.708 9.24936 138.897 9.24936C138.85 9.37778 138.843 9.47577 138.792 9.51633C137.961 10.155 137.85 11.0674 137.853 12.0102C137.86 15.5686 137.866 19.1237 137.897 22.682C137.904 23.4221 138.184 24.0743 138.799 24.544C138.86 24.5913 138.901 24.6623 139.019 24.8042H132.683C132.862 24.6353 132.953 24.5407 133.054 24.4596C133.598 24.0169 133.899 23.4525 133.903 22.7496C133.919 20.0056 133.93 17.2617 133.946 14.5177C133.946 13.9432 133.97 13.3687 133.963 12.7976C133.96 12.4394 133.923 12.0812 133.903 11.7264C133.859 11.7196 133.811 11.7129 133.767 11.7061C132.068 16.1093 130.368 20.5159 128.665 24.9191C128.611 24.9259 128.556 24.9327 128.502 24.9428C126.715 20.5159 124.927 16.0857 123.139 11.6588C123.096 11.6689 123.052 11.6791 123.004 11.6892C122.991 11.7872 122.964 11.8886 122.964 11.9866C122.967 15.2206 122.964 18.4579 122.987 21.6919C122.994 22.7057 123.194 23.6756 124.042 24.3717C124.19 24.4933 124.356 24.5913 124.508 24.7671C123.302 24.882 122.099 24.8853 120.821 24.8313C120.899 24.7096 120.916 24.6522 120.956 24.6251C121.899 23.9696 122.227 23.0031 122.23 21.9251C122.251 18.3667 122.234 14.8117 122.241 11.2533C122.241 10.645 122.078 10.128 121.592 9.7326C121.46 9.62446 121.355 9.48591 121.146 9.26288L121.152 9.25274Z" fill="white" fill-opacity="0.5"/>
<path d="M95.3042 11.0268C95.3211 10.7463 95.3244 10.5436 95.3481 10.3442C95.5711 8.49909 95.7975 6.65399 96.0206 4.8089C96.0848 4.26146 96.0915 4.2547 96.6457 4.37635C96.835 4.4169 97.0344 4.44056 97.2304 4.44056C102.093 4.44732 106.953 4.4507 111.815 4.44394C112.231 4.44394 112.647 4.36959 113.086 4.32904C113.356 6.51544 113.627 8.68833 113.911 10.9795C113.704 10.6551 113.539 10.4185 113.4 10.1651C112.775 9.00598 112.15 7.85364 111.271 6.84999C110.342 5.78552 109.24 5.16711 107.784 5.23469C106.949 5.27186 106.953 5.23469 106.953 6.06262C106.953 11.1316 106.953 16.2039 106.963 21.2728C106.963 21.7763 106.98 22.2866 107.074 22.7766C107.226 23.564 107.588 24.2533 108.321 24.7467C105.841 24.8887 103.377 24.865 100.819 24.838C100.927 24.6859 100.971 24.5913 101.042 24.5304C101.938 23.7971 102.272 22.8205 102.276 21.7054C102.282 18.0794 102.279 14.45 102.279 10.824C102.279 9.12764 102.269 7.43461 102.286 5.74159C102.289 5.34959 102.164 5.2009 101.779 5.24483C101.113 5.32255 100.42 5.29552 99.7919 5.48476C98.6767 5.81931 97.9501 6.69793 97.3452 7.63399C96.6491 8.7086 96.0206 9.82715 95.3008 11.0268H95.3042Z" fill="white" fill-opacity="0.5"/>
<path d="M13.1702 4.25471V9.88461C12.7715 9.20538 12.4133 8.5329 11.9942 7.90097C11.2778 6.81622 10.4465 5.82271 9.28068 5.19416C7.41193 4.18713 5.20187 4.8123 4.55305 6.85001C4.13401 8.16455 4.27594 9.29662 5.46208 10.3476C6.40828 11.1856 7.55048 11.6317 8.72647 12.0271C10.2134 12.5272 11.6394 13.1524 12.7546 14.298C13.6602 15.2273 14.157 16.3627 14.2077 17.6502C14.2449 18.5424 14.2685 19.4548 14.1131 20.3266C13.6805 22.7834 11.3657 24.7332 8.87516 24.936C7.21593 25.0711 5.59725 24.9427 4.0056 24.4629C3.19119 24.2162 2.43423 24.2601 1.72796 24.7873C1.6063 24.8785 1.4272 24.8887 1.27175 24.9394C1.23796 24.794 1.19065 24.6521 1.17713 24.5068C1.07914 23.3511 0.981136 22.1954 0.893274 21.0363C0.829068 20.232 0.778378 19.4244 0.795275 18.5728C0.879757 18.6978 0.974377 18.8161 1.04196 18.9479C1.95099 20.6679 2.98843 22.2832 4.5767 23.4829C5.66821 24.3074 6.8611 24.6893 8.2331 24.544C9.90247 24.3683 11.1731 22.611 10.9331 20.793C10.7743 19.6035 10.2134 18.6606 9.14888 18.1031C8.09792 17.5522 6.99627 17.096 5.9149 16.5993C5.21539 16.2782 4.48884 16.0045 3.81974 15.626C1.60293 14.3656 0.754723 12.3549 0.920308 9.90489C1.07238 7.65766 2.09968 5.87339 4.17119 4.85961C5.57359 4.17361 7.09765 4.00127 8.64537 4.33244C9.42599 4.49802 10.1965 4.7143 10.9602 4.93733C11.6158 5.12995 12.1733 4.95085 12.7005 4.57575C12.8323 4.48113 12.9641 4.39326 13.1669 4.25471H13.1702Z" fill="white" fill-opacity="0.5"/>
<path d="M152.066 13.2906C151.626 12.6756 151.258 12.118 150.849 11.5874C149.96 10.4283 148.737 9.91806 147.304 9.87751C146.588 9.85723 145.871 9.88427 145.155 9.87075C144.841 9.86399 144.709 9.94509 144.712 10.2965C144.729 12.1991 144.729 14.105 144.712 16.0109C144.712 16.3624 144.82 16.4908 145.169 16.4705C145.885 16.4333 146.601 16.4468 147.314 16.3826C148.136 16.3083 148.771 15.9028 149.153 15.156C149.332 14.8113 149.491 14.4598 149.737 14.1253V19.4443C149.714 19.4544 149.693 19.4679 149.67 19.4781C149.609 19.3395 149.545 19.2077 149.491 19.0658C149.156 18.1906 148.663 17.4674 147.679 17.2444C147.409 17.1835 147.122 17.1802 146.845 17.17C146.257 17.1464 145.665 17.1362 145.077 17.1193C144.841 17.1126 144.719 17.1971 144.719 17.4606C144.726 19.6166 144.719 21.7726 144.733 23.9286C144.733 24.0266 144.861 24.2091 144.929 24.2091C146.148 24.2091 147.379 24.2767 148.585 24.1381C149.94 23.9827 150.863 23.0635 151.599 21.9754C151.809 21.6645 151.981 21.3232 152.177 20.9988C152.251 20.8737 152.343 20.7622 152.427 20.6439L152.562 20.6845C152.495 21.1407 152.427 21.5969 152.363 22.0531C152.255 22.8405 152.14 23.6312 152.055 24.422C152.025 24.7261 151.893 24.8376 151.603 24.8376C151.055 24.8376 150.508 24.8613 149.96 24.8579C146.716 24.8545 143.469 24.8444 140.225 24.8376C140.079 24.8376 139.934 24.814 139.728 24.7971C139.802 24.6788 139.826 24.6045 139.873 24.5707C140.617 24.0807 140.799 23.3271 140.802 22.5194C140.813 18.836 140.809 15.1526 140.802 11.4725C140.802 10.8001 140.569 10.2154 140.093 9.72882C139.981 9.61392 139.88 9.48213 139.711 9.28613C139.92 9.26586 140.039 9.24558 140.154 9.24896C142.191 9.26248 144.226 9.28613 146.263 9.28951C147.639 9.28951 149.018 9.26248 150.393 9.23544C150.629 9.23206 150.866 9.17461 151.096 9.11717C151.322 9.05972 151.427 9.11041 151.467 9.3571C151.643 10.4892 151.836 11.6178 152.018 12.7499C152.042 12.8986 152.042 13.054 152.059 13.2872L152.066 13.2906Z" fill="white" fill-opacity="0.5"/>
<path d="M30.0942 14.1018C29.9861 13.9295 29.8881 13.747 29.7732 13.5814C29.2223 12.7907 28.6952 11.9797 28.1106 11.2159C27.2556 10.0974 26.0627 9.77297 24.7076 9.87435C24.4136 9.89463 24.4237 10.0906 24.4237 10.29C24.4237 10.9186 24.4237 11.5505 24.4237 12.179C24.4237 15.3589 24.4204 18.5355 24.4237 21.7154C24.4237 22.175 24.4575 22.6379 24.5116 23.0941C24.5792 23.6551 24.8124 24.1383 25.3024 24.4695C25.4004 24.5337 25.4781 24.6283 25.5288 24.8041H19.3954C19.4562 24.6959 19.4697 24.6317 19.5103 24.6081C20.2976 24.0944 20.47 23.2969 20.4734 22.4453C20.4869 18.3834 20.4835 14.3249 20.4936 10.263C20.4936 9.97911 20.4125 9.88787 20.1151 9.86422C18.5235 9.73242 17.3441 10.4015 16.4723 11.6789C16.0465 12.3041 15.6477 12.9461 15.2287 13.5747C15.1003 13.7707 14.9482 13.9532 14.7759 14.1897C14.7353 14.085 14.6981 14.0376 14.7049 13.9971C14.8941 12.6994 15.0868 11.3984 15.2828 10.1008C15.2997 9.97573 15.3334 9.85408 15.3436 9.72904C15.401 9.0667 15.3943 9.12077 16.0397 9.16132C17.1718 9.23229 18.3106 9.2458 19.446 9.24918C22.3252 9.25932 25.2044 9.24918 28.0869 9.24243C28.4485 9.24243 28.8134 9.19174 29.175 9.14443C29.4285 9.11063 29.5772 9.16808 29.6076 9.44856C29.7867 10.9861 29.9725 12.5203 30.155 14.0579C30.1347 14.0714 30.1145 14.085 30.0942 14.0985V14.1018Z" fill="white" fill-opacity="0.5"/>
<path d="M67.293 14.0477C67.5228 12.4087 67.7526 10.7698 67.9756 9.17473C69.0468 9.20176 70.0775 9.24569 71.1082 9.24907C74.3523 9.25921 77.5998 9.25245 80.8439 9.24907C81.1514 9.24907 81.4556 9.16797 81.7631 9.16797C81.8746 9.16797 82.0706 9.28624 82.0841 9.37073C82.297 10.8509 82.4863 12.3344 82.6789 13.8179C82.6856 13.8719 82.6687 13.926 82.6518 14.1051C82.5133 13.8956 82.4288 13.7638 82.341 13.6354C81.6786 12.7196 81.0703 11.7531 80.3337 10.8982C79.5294 9.96548 78.3939 9.783 77.2112 9.90128C77.1132 9.91141 76.9679 10.1446 76.9611 10.2798C76.9408 10.7698 76.9814 11.2598 76.9814 11.7497C76.9814 15.0952 76.9814 18.4441 76.9814 21.7896C76.9814 22.1816 76.9949 22.5736 77.0287 22.9656C77.0828 23.5773 77.3599 24.0842 77.8296 24.4863C77.9208 24.564 78.0087 24.6485 78.1912 24.8141H71.9834C71.9733 24.7837 71.9632 24.7533 71.953 24.7195C72.0916 24.5978 72.2436 24.4829 72.372 24.3477C72.9398 23.7631 73.0783 23.0298 73.0749 22.256C73.0648 19.0794 73.0479 15.8995 73.0344 12.723C73.031 11.8984 73.0209 11.0705 73.0344 10.246C73.0378 9.97562 72.9567 9.89452 72.6829 9.87086C71.0136 9.72555 69.8241 10.4791 68.9319 11.8106C68.4892 12.4729 68.0499 13.142 67.6106 13.8077C67.543 13.9091 67.4653 14.0004 67.391 14.095L67.2963 14.0544L67.293 14.0477Z" fill="white" fill-opacity="0.5"/>
<path d="M93.4183 13.3146C92.7661 12.0913 91.9686 11.0471 90.8703 10.236C89.9309 9.54329 88.9036 9.27633 87.7817 9.64805C85.9265 10.2631 85.7744 12.5711 86.8625 13.5883C87.4843 14.1662 88.2142 14.5244 89.0016 14.8048C89.9106 15.1259 90.8399 15.4199 91.7118 15.8288C93.6448 16.731 94.4828 18.3261 94.3916 20.4145C94.3071 22.3745 93.2764 23.7059 91.5158 24.5034C90.5088 24.9596 89.4375 25.0779 88.3494 24.9596C87.6161 24.8785 86.8862 24.7264 86.1562 24.6048C85.3621 24.473 84.568 24.3378 83.8549 24.8887C83.8043 24.9258 83.7265 24.9224 83.5745 24.9596C83.4393 23.3071 83.3041 21.6851 83.1689 20.0596C83.1994 20.0461 83.2332 20.0326 83.2636 20.0191C83.348 20.1644 83.4393 20.3063 83.517 20.455C84.2165 21.7865 85.112 22.9625 86.3658 23.8242C87.3356 24.4933 88.4035 24.7974 89.5964 24.5541C90.7149 24.3277 91.5259 23.3409 91.5935 22.2123C91.6746 20.7896 90.8433 20.0022 89.7079 19.4683C88.6434 18.9681 87.5417 18.5525 86.4367 18.1436C84.3922 17.3866 83.2636 15.7815 83.3244 13.6491C83.3852 11.5303 84.6254 9.93529 86.6598 9.30674C88.0655 8.87419 89.4477 8.9215 90.8366 9.35743C91.1035 9.44191 91.3772 9.5095 91.6543 9.55005C92.1477 9.62439 92.6343 9.63115 93.0399 9.25267C93.1142 9.18171 93.2257 9.14791 93.4217 9.03978V13.3146H93.4183Z" fill="white" fill-opacity="0.5"/>
<path d="M153.435 20.073C153.647 20.4279 153.854 20.7861 154.077 21.1375C154.965 22.5298 156.013 23.77 157.611 24.3749C158.76 24.8108 159.913 24.8176 160.906 23.9795C162.136 22.9421 162.15 21.053 160.852 20.1068C160.041 19.5155 159.058 19.1505 158.135 18.7179C157.226 18.2888 156.243 17.988 155.388 17.4777C154.151 16.7377 153.607 15.5617 153.512 14.1086C153.313 11.0436 155.604 9.32013 157.99 9.06668C158.96 8.96192 159.886 9.0633 160.815 9.32013C161.112 9.40123 161.416 9.4553 161.714 9.52626C162.285 9.65806 162.826 9.65468 163.289 9.21537C163.343 9.1613 163.434 9.14778 163.606 9.07006V13.355C163.491 13.1725 163.403 13.0407 163.322 12.9056C162.744 11.9188 162.062 11.0132 161.146 10.3136C160.156 9.56006 159.054 9.23227 157.834 9.69861C156.358 10.2629 155.881 12.1925 156.898 13.4057C157.341 13.9362 157.895 14.3012 158.537 14.5479C159.663 14.9771 160.818 15.3386 161.91 15.8388C165.066 17.2817 165.066 21.0294 163.772 22.8441C162.94 24.0065 161.775 24.6689 160.369 24.8953C159.179 25.0913 157.99 24.9831 156.814 24.7534C156.486 24.6891 156.168 24.554 155.837 24.5202C155.219 24.456 154.597 24.4357 154.066 24.8581C154.026 24.8919 153.965 24.9088 153.914 24.9223C153.877 24.9325 153.833 24.9223 153.735 24.9223C153.607 23.3104 153.478 21.7052 153.347 20.0967C153.377 20.0866 153.408 20.0798 153.435 20.0697V20.073Z" fill="white" fill-opacity="0.5"/>
<path d="M114.215 24.797C114.434 24.5977 114.56 24.4726 114.695 24.3645C115.107 24.0367 115.286 23.5873 115.337 23.0905C115.384 22.6309 115.401 22.168 115.401 21.7084C115.408 18.7008 115.411 15.6899 115.404 12.6823C115.404 12.1517 115.371 11.6212 115.344 11.0906C115.313 10.5668 115.097 10.1208 114.732 9.74568C114.607 9.61726 114.489 9.48547 114.303 9.28271H120.379C120.372 9.32665 120.379 9.38409 120.358 9.40099C119.324 10.2154 119.291 11.3846 119.287 12.5336C119.28 15.2607 119.314 17.9912 119.331 20.7182C119.331 21.2218 119.314 21.7253 119.331 22.2288C119.361 23.1953 119.446 24.1415 120.433 24.7126C120.416 24.743 120.396 24.77 120.379 24.8004H114.218L114.215 24.797Z" fill="white" fill-opacity="0.5"/>
<path d="M22.2069 4.69046C22.2069 4.0957 22.2069 3.49757 22.2069 2.90281C22.2069 2.3993 22.2373 1.8924 22.1798 1.39227C22.1021 0.723168 22.0649 0.713031 21.3451 0.081103C21.5986 0.0675858 21.798 0.0439308 22.0007 0.0439308C24.4541 0.0270343 26.9108 0.0202757 29.3676 0C29.594 0 29.6818 0.0473101 29.6987 0.297378C29.7224 0.642065 29.8238 0.983374 29.8914 1.32468C29.9319 1.52744 29.9691 1.72682 30.0063 1.92958C29.9691 1.94985 29.9319 1.96675 29.8947 1.98702C29.8035 1.84847 29.7089 1.70992 29.621 1.56799C29.1581 0.841444 28.5363 0.425791 27.634 0.473101C27.0764 0.503514 26.5121 0.479859 25.9275 0.479859V3.59219C26.5661 3.5415 27.1677 3.53474 27.7556 3.43674C28.1341 3.37591 28.3707 3.07178 28.4856 2.69667C28.516 2.59192 28.5464 2.49054 28.5836 2.37226C28.8708 2.65612 28.9046 4.59246 28.6512 4.97432C28.6309 4.96418 28.5903 4.95742 28.5903 4.9439C28.4721 4.23087 28.0057 3.9335 27.3265 3.8997C26.8669 3.87605 26.4107 3.85239 25.9207 3.82874C25.9207 4.88983 25.9207 5.89348 25.9207 6.89713C25.9207 7.12355 26.0221 7.23168 26.2519 7.2283C26.8703 7.21479 27.4921 7.24858 28.1037 7.17762C29.1378 7.05934 29.7258 6.32941 30.2901 5.515C30.2158 5.91038 30.138 6.30914 30.0671 6.70789C29.9218 7.53582 29.9218 7.5392 29.0634 7.54258C27.3772 7.54934 25.6909 7.54934 24.0046 7.54934C23.9134 7.54934 23.8222 7.54934 23.6262 7.54934C24.2277 6.93769 24.1905 6.24831 24.1871 5.56231C24.1804 4.21736 24.2006 2.8724 24.1601 1.53082C24.1499 1.1591 24.0384 0.753582 23.8526 0.435929C23.6397 0.0743444 23.3592 0.111517 23.0517 0.408894C22.6631 0.783996 22.6124 1.26048 22.609 1.76399C22.6022 3.52798 22.5887 5.29197 22.5752 7.05596C22.5752 7.2452 22.5448 7.43444 22.4603 7.66085C20.5138 5.56907 18.7228 3.35902 16.7898 1.13882C16.773 1.35848 16.7594 1.46323 16.7594 1.56799C16.7594 3.12247 16.7223 4.67694 16.7865 6.23141C16.8034 6.6741 17.1176 7.10665 17.2866 7.52906H15.7287C15.7287 7.52906 15.7119 7.48175 15.722 7.47161C16.2052 6.97148 16.2931 6.36996 16.2796 5.69411C16.2458 4.18356 16.2998 2.66964 16.2593 1.1591C16.2492 0.800892 16.0025 0.446066 15.8605 0.0844823C16.533 0.0844823 17.2866 0.0709651 18.0334 0.0979995C18.1618 0.101379 18.3004 0.277102 18.4051 0.395377C19.5879 1.78089 20.7639 3.17315 21.9399 4.56204C21.994 4.62625 22.0277 4.70735 22.0683 4.77832L22.2035 4.70059L22.2069 4.69046Z" fill="white" fill-opacity="0.5"/>
<path d="M39.3797 0.0742188H40.941C39.6028 2.41607 38.7917 5.00461 37.7104 7.47149C37.6901 7.5188 37.6563 7.55935 37.5819 7.67425C36.9433 6.03529 36.3248 4.45378 35.6693 2.77765C34.9765 4.45716 34.3142 6.06232 33.6214 7.73845C33.0605 6.36984 32.54 5.09585 32.0129 3.82523C31.6749 3.01082 31.3472 2.19303 30.9822 1.39214C30.7828 0.952835 30.5226 0.540561 30.2793 0.0944945H32.9557C32.9625 0.128287 32.9793 0.168839 32.9658 0.178977C32.5231 0.604768 32.6347 1.07449 32.834 1.56449C33.3071 2.71345 33.7735 3.86578 34.2838 5.12626C34.4426 4.79171 34.5778 4.5315 34.6893 4.26454C34.8954 3.77454 35.0711 3.27103 35.2975 2.79117C35.4462 2.47352 35.4564 2.19979 35.3144 1.87538C35.0407 1.25359 34.8515 0.59125 34.2162 0.0877359H37.1697C36.3891 0.756836 36.852 1.37863 37.0582 1.99028C37.3555 2.86213 37.6799 3.72723 37.9976 4.59233C38.0618 4.76805 38.1632 4.93026 38.2781 5.16343C38.7546 3.94351 39.1939 2.81144 39.6433 1.68276C39.8765 1.10152 40.0319 0.54732 39.2817 0.151942C39.3121 0.124908 39.3426 0.101253 39.373 0.0742188H39.3797Z" fill="white" fill-opacity="0.5"/>
</g>
<defs>
<clipPath id="clip0_306_545">
<rect width="163.788" height="25" fill="white" transform="translate(0.794922)"/>
</clipPath>
</defs>
</svg>
