<svg width="30" height="30" viewBox="0 0 30 30" fill="none" xmlns="http://www.w3.org/2000/svg">
<g clip-path="url(#clip0_523_601)">
<path d="M20.9013 21.03H20.7344V21.3638H20.9013C20.9468 21.3638 20.9862 21.3486 21.0196 21.3153C21.053 21.2819 21.0682 21.2424 21.0682 21.1969C21.0682 21.1514 21.053 21.112 21.0196 21.0786C20.9862 21.0452 20.9468 21.03 20.9013 21.03Z" fill="white" fill-opacity="0.5"/>
<path d="M21.8623 21.5324H22.0367L21.951 21.3367L21.8623 21.5324Z" fill="white" fill-opacity="0.5"/>
<path d="M13.9734 21.03C13.8824 21.03 13.8035 21.0634 13.7367 21.1271C13.673 21.1939 13.6396 21.2697 13.6396 21.3638C13.6396 21.4579 13.673 21.5337 13.7367 21.6005C13.8005 21.6673 13.8794 21.6976 13.9734 21.6976C14.0675 21.6976 14.1434 21.6642 14.2101 21.6005C14.2769 21.5368 14.3072 21.4579 14.3072 21.3638C14.3072 21.2697 14.2738 21.1939 14.2101 21.1271C14.1434 21.0604 14.0675 21.03 13.9734 21.03Z" fill="white" fill-opacity="0.5"/>
<path d="M16.4111 21.5324H16.5885L16.4998 21.3367L16.4111 21.5324Z" fill="white" fill-opacity="0.5"/>
<path d="M14.8896 21.03V21.6976C14.9807 21.6976 15.0596 21.6642 15.1233 21.6005C15.1901 21.5368 15.2204 21.4579 15.2204 21.3668C15.2204 21.2758 15.187 21.1969 15.1233 21.1302C15.0565 21.0634 14.9807 21.0331 14.8896 21.0331V21.03Z" fill="white" fill-opacity="0.5"/>
<path d="M18.4248 21.03V21.6976C18.5158 21.6976 18.5947 21.6642 18.6585 21.6005C18.7252 21.5368 18.7556 21.4579 18.7556 21.3668C18.7556 21.2758 18.7222 21.1969 18.6585 21.1302C18.5947 21.0634 18.5158 21.0331 18.4248 21.0331V21.03Z" fill="white" fill-opacity="0.5"/>
<path d="M12.7244 21.03C12.6334 21.03 12.5545 21.0634 12.4877 21.1271C12.424 21.1939 12.3906 21.2697 12.3906 21.3638C12.3906 21.4579 12.424 21.5337 12.4877 21.6005C12.5514 21.6673 12.6303 21.6976 12.7244 21.6976C12.8185 21.6976 12.8943 21.6642 12.9611 21.6005C13.0278 21.5368 13.0582 21.4579 13.0582 21.3638C13.0582 21.2697 13.0248 21.1939 12.9611 21.1271C12.8943 21.0604 12.8185 21.03 12.7244 21.03Z" fill="white" fill-opacity="0.5"/>
<path d="M4.90332 21.5324H5.07768L4.99203 21.3367L4.90332 21.5324Z" fill="white" fill-opacity="0.5"/>
<path d="M14.559 0.718018C6.55121 0.718018 0.0576172 7.21161 0.0576172 15.2194C0.0576172 23.2271 6.55121 29.7207 14.559 29.7207C22.5667 29.7207 29.0603 23.2271 29.0603 15.2194C29.0603 7.21161 22.5697 0.718018 14.559 0.718018ZM8.49625 7.51808L14.3101 6.54404L14.4528 4.55652L14.559 4.49583L14.6652 4.55652L14.7774 6.53798L20.6217 7.51808V7.64249L17.6874 7.36636V7.6607C17.8877 7.70621 18.0394 7.88524 18.0394 8.10069C18.0394 8.34951 17.8391 8.54977 17.5903 8.54977C17.3415 8.54977 17.1412 8.34951 17.1412 8.10069C17.1412 7.89738 17.2747 7.72746 17.4598 7.6698V7.34512L15.36 7.14789C15.3813 7.22375 15.3934 7.30264 15.3934 7.38457C15.3934 7.80635 15.0809 8.1553 14.6743 8.21296V8.22206V8.41626H14.6773C14.6985 8.41626 14.7137 8.43143 14.7137 8.45267C14.7137 8.47392 14.6985 8.48909 14.6773 8.48909H14.6318V8.6226H14.7289C14.7835 8.6226 14.826 8.66812 14.826 8.7197V8.96549C14.826 9.02011 14.7805 9.06259 14.7289 9.06259H14.6985C14.647 9.06259 14.6045 9.02011 14.6045 8.96852V8.64991H14.559V8.96852C14.559 9.02011 14.5165 9.06259 14.4649 9.06259H14.4346C14.3799 9.06259 14.3375 9.01707 14.3375 8.96549V8.7197C14.3375 8.66508 14.383 8.6226 14.4346 8.6226H14.4831V8.48909H14.4346C14.4133 8.48909 14.3981 8.47392 14.3981 8.45267C14.3981 8.43143 14.4133 8.41626 14.4346 8.41626H14.4376V8.21296C14.031 8.1553 13.7184 7.80635 13.7184 7.38457C13.7184 7.30264 13.7306 7.22375 13.7518 7.14789L11.652 7.34512V7.6698C11.8371 7.72442 11.9706 7.89738 11.9706 8.10069C11.9706 8.34951 11.7704 8.54977 11.5215 8.54977C11.2727 8.54977 11.0724 8.34951 11.0724 8.10069C11.0724 7.88524 11.2242 7.70621 11.4244 7.6607V7.36636L8.49018 7.64249V7.51808H8.49625ZM4.36341 21.892H4.1419V21.4459L3.82329 21.8738L3.50468 21.4459V21.892H3.28317V20.7814L3.82633 21.5036L4.36948 20.7814V21.892H4.36341ZM4.46052 19.7012H3.28014V10.9196L7.40994 17.2372L11.5337 10.9196V19.7012H10.3533V15.1314L7.40994 19.7012L4.46355 15.1314V19.7012H4.46052ZM5.44366 21.9223H5.25249L5.1827 21.7645V21.7554H4.8034V21.7645L4.72754 21.9223H4.49086L4.96726 20.8633L4.99153 20.8117L5.01581 20.8633L5.49221 21.9223H5.44669H5.44366ZM6.27508 21.9223H5.60751V20.8117H5.82902V21.7008H6.27205V21.9223H6.27508ZM7.38567 21.9223H7.1945L7.12471 21.7645V21.7554H6.74541V21.7645L6.66955 21.9223H6.43287L6.90927 20.8633L6.93354 20.8117L6.95782 20.8633L7.43422 21.9223H7.3887H7.38567ZM8.09571 21.4247V21.9223H7.8742V21.4247L7.54042 20.8117H7.79227L7.98344 21.1637L8.17461 20.8117H8.42646L8.09268 21.4247H8.09571ZM8.827 21.2335C8.85734 21.2548 8.88465 21.2669 8.89983 21.2699C8.90893 21.2699 8.92714 21.279 8.96355 21.2881C8.99693 21.2972 9.03334 21.3154 9.07279 21.3397C9.11223 21.364 9.14561 21.3943 9.17595 21.4338C9.2063 21.4732 9.22147 21.5248 9.22147 21.5855C9.22147 21.6765 9.18809 21.7554 9.12437 21.8222C9.06065 21.8889 8.98175 21.9193 8.89072 21.9193C8.79969 21.9193 8.7208 21.8859 8.65404 21.8222C8.59032 21.7554 8.55694 21.6796 8.55694 21.5855H8.77845C8.77845 21.6159 8.78755 21.6432 8.81183 21.6644C8.83307 21.6856 8.86038 21.6978 8.89072 21.6978C8.92107 21.6978 8.94838 21.6856 8.96962 21.6644C8.99086 21.6432 9.00299 21.6159 9.00299 21.5855C9.00299 21.54 8.98479 21.5096 8.94534 21.4945C8.90893 21.4793 8.88162 21.4702 8.86948 21.4672C8.86341 21.4672 8.84217 21.4581 8.80879 21.4459C8.77542 21.4338 8.739 21.4156 8.70259 21.3913C8.66618 21.367 8.6328 21.3337 8.60246 21.2942C8.57211 21.2517 8.55694 21.2032 8.55694 21.1425C8.55694 21.0515 8.59032 20.9726 8.65404 20.9088C8.7208 20.8421 8.79666 20.8117 8.89072 20.8117C8.98479 20.8117 9.06065 20.8451 9.12437 20.9088C9.19113 20.9756 9.22147 21.0515 9.22147 21.1425H8.99996C8.99996 21.1121 8.98782 21.0848 8.96658 21.0636C8.94534 21.0424 8.91803 21.0302 8.88769 21.0302C8.85734 21.0302 8.83004 21.0424 8.80879 21.0636C8.78755 21.0848 8.77542 21.1121 8.77542 21.1425C8.77542 21.1819 8.79059 21.2123 8.82397 21.2335H8.827ZM9.60987 21.9223H9.38836V20.8117H9.60987V21.9223ZM10.7387 21.9223H10.5475L10.4777 21.7645V21.7554H10.0984V21.7645L10.0225 21.9223H9.78587L10.2623 20.8633L10.2865 20.8117L10.3108 20.8633L10.7872 21.9223H10.7417H10.7387ZM11.9888 21.0332H11.5458V21.2548H11.8796V21.4763H11.5458V21.9223H11.3243V20.8117H11.9919V21.0332H11.9888ZM13.1116 21.7585C13.0023 21.8677 12.8718 21.9223 12.7201 21.9223C12.5684 21.9223 12.4379 21.8677 12.3287 21.7585C12.2194 21.6492 12.1648 21.5188 12.1648 21.367C12.1648 21.2153 12.2194 21.0848 12.3287 20.9756C12.4379 20.8664 12.5684 20.8117 12.7201 20.8117C12.8718 20.8117 13.0023 20.8664 13.1116 20.9756C13.2208 21.0848 13.2754 21.2153 13.2754 21.367C13.2754 21.5188 13.2208 21.6523 13.1116 21.7585ZM14.3617 21.7585C14.2525 21.8677 14.122 21.9223 13.9703 21.9223C13.8186 21.9223 13.6881 21.8677 13.5789 21.7585C13.4696 21.6492 13.415 21.5188 13.415 21.367C13.415 21.2153 13.4696 21.0848 13.5789 20.9756C13.6881 20.8664 13.8186 20.8117 13.9703 20.8117C14.122 20.8117 14.2525 20.8664 14.3617 20.9756C14.471 21.0848 14.5256 21.2153 14.5256 21.367C14.5256 21.5188 14.471 21.6523 14.3617 21.7585ZM14.3314 17.3981V19.7012H13.1298V10.9196H18.2093V12.1152H14.3344V16.1964H17.3233V17.3981H14.3344H14.3314ZM15.2781 21.7585C15.1689 21.8677 15.0384 21.9223 14.8867 21.9223H14.6652V20.8117H14.8867C15.0384 20.8117 15.1689 20.8664 15.2781 20.9756C15.3873 21.0848 15.442 21.2153 15.442 21.367C15.442 21.5188 15.3873 21.6523 15.2781 21.7585ZM16.947 21.9223H16.7559L16.6861 21.7645V21.7554H16.3068V21.7645L16.2309 21.9223H15.9942L16.4706 20.8633L16.4949 20.8117L16.5192 20.8633L16.9956 21.9223H16.9501H16.947ZM18.003 21.9223L17.3354 21.3154V21.9223H17.1139V20.8117L17.7815 21.4186V20.8117H18.003V21.9223ZM18.8132 21.7585C18.7039 21.8677 18.5735 21.9223 18.4217 21.9223H18.2002V20.8117H18.4217C18.5735 20.8117 18.7039 20.8664 18.8132 20.9756C18.9224 21.0848 18.977 21.2153 18.977 21.367C18.977 21.5188 18.9224 21.6523 18.8132 21.7585ZM20.3243 21.0332H20.0451V21.9223H19.8236V21.0332H19.5445V20.8117H20.3213V21.0332H20.3243ZM21.2862 21.9223H21.0131L20.7279 21.5157V21.9223H20.5064V20.8117H20.8948C21.001 20.8117 21.095 20.8512 21.1709 20.927C21.2468 21.0029 21.2862 21.0939 21.2862 21.2001C21.2862 21.2821 21.2619 21.3579 21.2164 21.4247C21.1679 21.4914 21.1102 21.537 21.0374 21.5643L21.2892 21.9223H21.2862ZM22.3998 21.9223H22.2087L22.1389 21.7645V21.7554H21.7596V21.7645L21.6837 21.9223H21.447L21.9234 20.8633L21.9477 20.8117L21.972 20.8633L22.4484 21.9223H22.4029H22.3998ZM23.0492 21.9223L23.0249 21.8707L22.5485 20.8117H22.7822L23.0461 21.3974L23.3101 20.8117H23.5468L23.0461 21.9223H23.0492ZM24.3358 21.0332H23.8927V21.2548H24.2265V21.4763H23.8927V21.6978H24.3358V21.9193H23.6682V20.8087H24.3358V21.0302V21.0332ZM25.1763 21.9223H24.5087V20.8117H24.7302V21.7008H25.1733V21.9223H25.1763ZM23.1615 12.1213V19.7012H21.9477V12.1213H19.7993V10.9196H25.3068V12.1213H23.1584H23.1615Z" fill="white" fill-opacity="0.5"/>
<path d="M6.8457 21.5324H7.02312L6.93441 21.3367L6.8457 21.5324Z" fill="white" fill-opacity="0.5"/>
<path d="M10.2012 21.5324H10.3755L10.2899 21.3367L10.2012 21.5324Z" fill="white" fill-opacity="0.5"/>
</g>
<defs>
<clipPath id="clip0_523_601">
<rect width="29.0027" height="29.0057" fill="white" transform="translate(0.0585938 0.718262)"/>
</clipPath>
</defs>
</svg>
