<svg width="134" height="27" viewBox="0 0 134 27" fill="none" xmlns="http://www.w3.org/2000/svg">
<g clip-path="url(#clip0_523_678)">
<path d="M116.788 0.442028C116.719 0.491388 116.653 0.536636 116.583 0.585997C116.595 0.60245 116.608 0.643584 116.628 0.647698C117.412 0.798522 117.805 1.27568 117.805 2.07916C117.805 3.07049 117.805 4.05771 117.805 4.9462C117.118 4.92152 116.472 4.83102 115.847 4.89684C114.847 5.00379 114.107 6.00334 114.242 6.97411C114.255 7.0646 114.477 7.19212 114.604 7.19623C115.439 7.22502 116.278 7.23736 117.113 7.22502C117.475 7.22091 117.632 7.30318 117.619 7.70218C117.591 8.73053 117.595 9.75888 117.611 10.7872C117.615 11.1657 117.484 11.2849 117.101 11.2685C116.315 11.2397 115.53 11.2808 114.744 11.2562C114.362 11.2438 114.197 11.3343 114.197 11.7539C114.205 14.6538 114.185 17.5579 114.172 20.4578C114.172 20.6553 114.152 20.8527 114.139 21.0625H109.236V11.2685C108.722 11.2685 108.253 11.2479 107.788 11.2726C107.426 11.2932 107.319 11.1739 107.328 10.8119C107.352 9.78356 107.361 8.75521 107.319 7.72686C107.303 7.29495 107.472 7.20034 107.85 7.2168C108.274 7.23325 108.702 7.2168 109.142 7.2168C109.232 6.50106 109.277 5.79356 109.417 5.10662C109.853 2.97177 111.059 1.47038 113.218 0.832801C113.613 0.717625 114.049 0.725852 114.526 0.668265C114.329 0.57777 114.172 0.503729 114.016 0.429688C114.937 0.429688 115.863 0.429688 116.784 0.429688L116.788 0.442028Z" fill="white" fill-opacity="0.5"/>
<path d="M103.46 0.442102C103.596 0.52437 103.723 0.635431 103.871 0.684792C105.216 1.14961 106.035 2.54816 105.706 3.83154C105.36 5.18074 103.937 6.11859 102.559 5.90881C101.375 5.72782 100.28 4.52259 100.206 3.30914C100.141 2.2232 101.083 0.98507 102.205 0.664225C102.358 0.618978 102.493 0.516143 102.637 0.437988C102.909 0.437988 103.184 0.437988 103.456 0.437988L103.46 0.442102Z" fill="white" fill-opacity="0.5"/>
<path d="M38.0168 8.71392C38.1608 8.60697 38.3295 8.50825 38.4734 8.38073C39.9666 7.03154 41.6901 6.79296 43.5206 7.4799C45.3181 8.15861 46.2107 9.62709 46.3177 11.4411C46.4699 13.9626 46.4287 16.4965 46.4699 19.0221C46.4781 19.6309 46.4781 20.2355 46.5028 20.8443C46.5151 21.1158 46.4411 21.2474 46.1367 21.2474C44.7546 21.2433 43.3684 21.2557 41.9863 21.2557C41.8546 21.2557 41.7271 21.2104 41.5667 21.1775C41.5667 19.598 41.579 18.0472 41.5626 16.4965C41.5503 15.3529 41.5585 14.2012 41.4515 13.0659C41.3651 12.1404 40.7481 11.6221 39.9172 11.5851C39.1192 11.5481 38.3788 12.1034 38.1773 12.9466C38.0827 13.3538 38.0456 13.7816 38.0415 14.1971C38.0292 16.3566 38.0251 18.5161 38.0415 20.6757C38.0415 21.0952 37.9181 21.2433 37.4944 21.2392C36.1946 21.2269 34.8989 21.2351 33.599 21.2557C33.1754 21.2639 33.0479 21.1117 33.0479 20.6921C33.0602 14.4315 33.0643 8.17095 33.0479 1.91036C33.0479 1.38384 33.2124 1.25221 33.7183 1.26867C34.9318 1.30157 36.1452 1.28101 37.3587 1.28101C38.0292 1.28101 38.021 1.28101 38.021 1.97206C38.0168 4.19329 38.021 6.41864 38.021 8.71803L38.0168 8.71392Z" fill="white" fill-opacity="0.5"/>
<path d="M26.6717 8.70187C26.6717 8.27819 26.6306 8.00671 26.6882 7.75168C26.7211 7.60359 26.9062 7.38147 27.0255 7.37736C28.3911 7.34856 29.7568 7.34856 31.1224 7.37736C31.217 7.37736 31.3816 7.62005 31.3898 7.75579C31.4186 8.3111 31.398 8.86641 31.398 9.42583C31.3939 13.169 31.3816 16.9163 31.3898 20.6595C31.3898 21.075 31.2746 21.2231 30.8468 21.2148C29.6498 21.1943 28.4569 21.1984 27.2599 21.2231C26.828 21.2313 26.6183 21.1285 26.6841 20.6595C26.7129 20.4415 26.6635 20.2071 26.6429 19.8944C26.2234 20.2276 25.9107 20.5361 25.5447 20.7541C23.4674 21.9964 20.6621 21.6632 18.7082 19.9602C16.2114 17.7884 15.5038 13.9177 17.0381 10.9272C17.8773 9.2942 19.1072 8.07664 20.8718 7.47608C22.8134 6.82205 24.6356 7.02772 26.2398 8.39748C26.3344 8.47975 26.4414 8.54145 26.6717 8.70187ZM26.7211 14.3331C26.7334 12.8482 25.4089 11.5072 23.9034 11.4784C22.365 11.4496 20.9541 12.7865 20.9253 14.3043C20.8965 15.7769 22.3239 17.1549 23.8705 17.1549C25.3801 17.1549 26.7046 15.8427 26.717 14.3372L26.7211 14.3331Z" fill="white" fill-opacity="0.5"/>
<path d="M0.304688 7.35693C0.925811 7.35693 1.45233 7.35693 1.97473 7.35693C2.96606 7.36105 3.95739 7.39807 4.9446 7.36105C5.36828 7.34459 5.56161 7.49268 5.69735 7.85877C6.53237 10.0677 7.37562 12.2683 8.22298 14.4731C8.35872 14.8269 8.51092 15.1765 8.71248 15.6742C8.86878 15.3287 8.96751 15.1271 9.05389 14.9174C9.99997 12.5357 10.9378 10.1499 11.8921 7.77239C11.9579 7.61196 12.1431 7.38573 12.2747 7.38161C13.8748 7.35282 15.479 7.36516 17.1737 7.36516C17.075 7.63253 17.0174 7.81763 16.9434 7.99451C14.7551 13.1692 12.5626 18.3397 10.3702 23.5103C10.0329 24.3041 9.72026 25.1063 9.34594 25.8796C9.24722 26.0811 8.96339 26.3156 8.75772 26.3238C7.28924 26.3608 5.82076 26.3444 4.35227 26.3403C4.29057 26.3403 4.22887 26.3074 4.09724 26.2662C4.31525 25.7521 4.52092 25.2626 4.7307 24.7731C5.15439 23.7817 5.59452 22.7945 5.9894 21.7867C6.08401 21.5482 6.10458 21.2068 6.00586 20.9764C4.70602 17.9366 3.36917 14.9091 2.06522 11.8734C1.49346 10.5407 0.971058 9.1874 0.428089 7.84231C0.378729 7.72303 0.366388 7.5914 0.308801 7.35693H0.304688Z" fill="white" fill-opacity="0.5"/>
<path d="M133.015 15.4724H123.365C123.344 16.2663 123.937 17.0478 124.78 17.3481C125.903 17.7471 126.94 17.6031 127.795 16.7311C128.034 16.4884 128.207 16.4349 128.536 16.5789C129.642 17.0602 130.769 17.4962 131.888 17.9528C132.04 18.0145 132.188 18.0885 132.365 18.1667C131.44 19.6557 130.14 20.5977 128.511 21.0666C126.611 21.6096 124.685 21.626 122.822 20.9556C120.083 19.9683 118.717 17.924 118.375 15.1228C117.927 11.4454 120.251 8.02304 123.883 7.2127C128.651 6.14733 132.608 9.03493 132.883 13.7859C132.912 14.3042 132.966 14.8225 133.015 15.4765V15.4724ZM127.972 12.5766C127.972 11.5688 127.096 10.7914 125.973 10.7626C124.48 10.7255 123.439 11.4454 123.386 12.5766H127.972Z" fill="white" fill-opacity="0.5"/>
<path d="M70.8252 21.4862C67.1272 21.5808 63.4581 18.6438 63.5033 14.2466C63.5486 9.86585 67.2918 7.03171 71.0309 7.12632C75.1813 7.23327 78.3815 10.3595 78.3486 14.4153C78.3157 18.5163 75.1155 21.5232 70.8211 21.4862H70.8252ZM70.9116 17.0725C72.4541 17.0725 73.684 15.8426 73.6758 14.3042C73.6717 12.8069 72.4253 11.5647 70.9239 11.5565C69.3937 11.5523 68.0939 12.8439 68.1062 14.3618C68.1186 15.8097 69.4225 17.0684 70.9075 17.0684L70.9116 17.0725Z" fill="white" fill-opacity="0.5"/>
<path d="M54.9914 21.4861C51.277 21.5602 47.6161 18.7548 47.6407 14.2795C47.6654 9.82465 51.3757 7.06456 55.1271 7.12626C59.22 7.19207 62.5148 10.3183 62.4819 14.2095C62.449 18.4669 59.3269 21.4985 54.9955 21.4861H54.9914ZM55.0284 17.0725C56.4928 17.1753 57.8584 15.7767 57.8584 14.337C57.8584 12.8439 56.5668 11.5564 55.0613 11.5564C53.5558 11.5564 52.2807 12.7986 52.2724 14.2795C52.2642 15.8055 53.5106 17.0683 55.0325 17.0725H55.0284Z" fill="white" fill-opacity="0.5"/>
<path d="M92.8184 21.0873V1.12906C93.1104 1.11672 93.4066 1.09204 93.7069 1.09204C94.8874 1.09204 96.0638 1.09615 97.2444 1.09204C97.5899 1.09204 97.812 1.13317 97.812 1.58565C97.7956 6.86725 97.7997 12.1489 97.7997 17.4305C97.7997 18.4753 97.7956 19.5242 97.8203 20.569C97.8285 20.9474 97.7503 21.1078 97.3143 21.0996C95.8335 21.0749 94.3485 21.0914 92.8225 21.0914L92.8184 21.0873Z" fill="white" fill-opacity="0.5"/>
<path d="M91.9644 1.27686C91.5777 2.16946 91.2322 2.95101 90.899 3.73667C90.0105 5.83039 89.1262 7.92822 88.2418 10.0261C87.7564 11.1737 87.2834 12.3296 86.7856 13.4731C86.728 13.6006 86.5594 13.7693 86.436 13.7693C84.6138 13.7898 82.7915 13.7816 80.9199 13.7816C80.9611 13.6212 80.9775 13.5101 81.0228 13.4073C82.664 9.52834 84.3135 5.6494 85.9506 1.76635C86.0946 1.42905 86.2632 1.26452 86.6622 1.26863C88.3857 1.2892 90.1051 1.27686 91.9685 1.27686H91.9644Z" fill="white" fill-opacity="0.5"/>
<path d="M105.467 21.0664H100.552V7.35229H105.467V21.0664Z" fill="white" fill-opacity="0.5"/>
<path d="M85.5046 18.1998C85.5046 19.9356 84.0073 21.4823 82.2468 21.4411C80.4698 21.3959 79.1452 20.0015 79.1329 18.3232C79.1206 16.719 80.3422 15.0859 82.3619 15.0859C84.3569 15.0859 85.5169 16.6202 85.5046 18.2039V18.1998Z" fill="white" fill-opacity="0.5"/>
</g>
<defs>
<clipPath id="clip0_523_678">
<rect width="132.711" height="25.898" fill="white" transform="translate(0.301758 0.442383)"/>
</clipPath>
</defs>
</svg>
