<svg width="46" height="30" viewBox="0 0 46 30" fill="none" xmlns="http://www.w3.org/2000/svg">
<g clip-path="url(#clip0_523_615)">
<path d="M6.93849 8.51388C6.55822 8.54769 6.17796 8.57726 5.80192 8.61106C5.47236 8.64064 5.1428 8.67021 4.81323 8.69979C4.64423 8.71247 4.49212 8.61106 4.471 8.44628C4.36959 7.6604 4.85971 6.98015 5.55686 6.89565C5.9667 6.84495 6.38077 6.8196 6.79061 6.78157C7.07369 6.75622 7.35678 6.73509 7.64409 6.70974C8.16378 6.66749 8.49335 6.9379 8.5018 7.46182C8.51025 8.15475 8.55672 8.8519 8.37927 9.53215C8.07928 10.6941 7.34833 11.5095 6.27091 12.0039C5.00337 12.5827 3.67667 12.7475 2.32039 12.3799C1.08664 12.0461 0.414843 11.1842 0.203585 9.94199C0.131757 9.55327 0.140207 9.16456 0.140207 8.77584C0.140207 8.03222 0.119082 7.28436 0.19936 6.54496C0.376816 4.90982 1.25987 3.81551 2.80206 3.27469C4.002 2.85217 5.23575 2.77189 6.47372 3.11836C7.12862 3.30004 7.68212 3.64228 8.08773 4.20422C8.32857 4.54223 8.4849 4.9056 8.49757 5.32389C8.50602 5.55205 8.37927 5.68303 8.15111 5.70415C7.53424 5.75908 6.91736 5.80978 6.29626 5.86471C5.95825 5.89429 5.89487 5.86471 5.74277 5.56472C5.53996 5.17178 5.20195 4.98588 4.77943 4.9394C4.41607 4.90137 4.0527 4.9394 3.71047 5.0746C3.12739 5.30699 2.84008 5.76753 2.76403 6.35905C2.67953 6.99283 2.70065 7.63505 2.70065 8.27305C2.70065 8.67444 2.66685 9.08006 2.75558 9.48145C2.89924 10.149 3.23725 10.4617 3.90905 10.5208C4.34847 10.5589 4.78366 10.5208 5.20195 10.3899C5.66672 10.242 6.00895 9.92931 6.14838 9.46455C6.27936 9.02513 6.51597 8.71247 6.93004 8.51388" fill="white" fill-opacity="0.5"/>
<path d="M40.0045 13.0601C40.351 13.1954 40.5157 13.4277 40.5115 13.7953C40.5115 13.9559 40.5031 14.1164 40.5073 14.277C40.5073 14.5685 40.6678 14.6995 40.9552 14.6742C41.8974 14.5897 42.8396 14.5094 43.7818 14.4291C43.9804 14.4122 44.1282 14.5305 44.1282 14.7333C44.1282 15.1558 44.124 15.5783 44.1071 16.0009C44.0987 16.191 43.9423 16.3177 43.7184 16.3389C43.3762 16.3727 43.0339 16.398 42.6875 16.4276C41.8086 16.5037 40.9298 16.5797 40.051 16.6558C40.0256 16.6558 39.996 16.6558 39.9749 16.6896C40.3679 16.8248 40.4988 17.1163 40.465 17.505C40.4566 17.6233 40.4608 17.7459 40.4566 17.8642C40.4481 18.2106 40.6045 18.3501 40.9467 18.3162C41.8424 18.2317 42.7382 18.1599 43.6339 18.0796C43.9846 18.0501 44.3395 18.0163 44.6902 17.9909C44.9606 17.9698 45.062 18.0627 45.0578 18.3374C45.0578 18.7599 45.0451 19.1824 45.0367 19.6049C45.0367 19.8204 44.9099 19.9598 44.6944 19.981C43.7522 20.0655 42.81 20.1457 41.8678 20.2302C40.8622 20.319 39.8566 20.4077 38.851 20.4922C38.7116 20.5049 38.5764 20.5176 38.437 20.5302C38.1285 20.5514 38.0144 20.4415 38.0187 20.1373C38.0271 19.5542 38.0356 18.9711 38.044 18.3881C38.0694 16.3938 38.0947 14.3995 38.1243 12.4095C38.1327 11.7419 38.606 11.2011 39.2609 11.1335C40.0467 11.0532 40.8326 10.9898 41.6227 10.9222C42.6325 10.8335 43.6466 10.749 44.6564 10.6603C44.9184 10.6391 45.0493 10.749 45.0493 11.0109C45.0493 11.4208 45.0451 11.8264 45.0367 12.2362C45.0324 12.5109 44.9099 12.6334 44.6353 12.6545C43.2029 12.7813 41.7706 12.9038 40.3425 13.0306C40.2284 13.039 40.1143 13.0517 40.0003 13.0601" fill="white" fill-opacity="0.5"/>
<path d="M2.35535 16.4441C2.71449 16.6047 2.8666 16.8624 2.8497 17.2427C2.8328 17.53 2.84125 17.8215 2.82857 18.1089C2.82435 18.2272 2.85815 18.261 2.97645 18.2483C3.54685 18.1934 4.12147 18.1469 4.69187 18.0962C5.13551 18.0582 5.57915 18.0159 6.02279 17.9779C6.2425 17.961 6.35235 18.0582 6.35235 18.2821C6.35235 18.7469 6.34813 19.2116 6.33968 19.6764C6.33545 19.9341 6.22983 20.0482 5.97632 20.0736C5.16508 20.1496 4.35808 20.2172 3.54685 20.289C3.12011 20.3271 2.68914 20.3651 2.22015 20.4031C2.34268 20.4496 2.43141 20.475 2.50746 20.5257C2.69759 20.6482 2.79477 20.8172 2.79477 21.0453C2.78632 21.7974 2.77787 22.5537 2.76519 23.3058C2.76519 23.5297 2.62999 23.6607 2.40606 23.6776C1.83566 23.7283 1.26104 23.779 0.690641 23.8297C0.454032 23.8509 0.335728 23.7325 0.339953 23.4706C0.365304 21.5439 0.390655 19.6215 0.416006 17.6948C0.424456 17.0483 0.445582 16.3977 0.437132 15.7512C0.428681 14.978 1.08781 14.4499 1.70045 14.4034C3.43277 14.2724 5.16086 14.1076 6.88895 13.9555C7.12133 13.9344 7.26921 14.0696 7.26921 14.302C7.26921 14.7456 7.26499 15.1935 7.25654 15.6371C7.25654 15.8822 7.12133 16.0259 6.8805 16.047C5.61718 16.1568 4.35385 16.2667 3.09476 16.3765C2.8497 16.3977 2.60464 16.423 2.35958 16.4441" fill="white" fill-opacity="0.5"/>
<path d="M25.5596 26.2047C25.5596 27.1174 25.5596 28.0342 25.5596 28.9469C25.5596 29.1624 25.492 29.23 25.2765 29.2511C24.9639 29.2764 24.6554 29.306 24.3428 29.3314C24.085 29.3525 24.0385 29.3018 24.0428 29.0356C24.0554 28.1272 24.0639 27.2188 24.0766 26.3062C24.0766 26.2724 24.0766 26.2428 24.0766 26.209C24.0766 26.1878 24.0766 26.1625 24.047 26.154C24.0216 26.1456 24.0005 26.154 23.9878 26.1794C23.9709 26.209 23.9498 26.2428 23.9329 26.2766C23.6794 26.7582 23.4217 27.2399 23.1724 27.7258C23.071 27.9244 22.9316 28.03 22.7076 28.03C22.6273 28.03 22.5428 28.0385 22.4626 28.0511C22.2682 28.0849 22.1372 28.0089 22.0443 27.8357C21.8077 27.3962 21.5668 26.9568 21.326 26.5174C21.3091 26.4878 21.2964 26.4583 21.2795 26.4329C21.2668 26.4076 21.2457 26.3864 21.2119 26.3949C21.1823 26.4033 21.1781 26.4329 21.1781 26.4625C21.1781 26.4878 21.1781 26.509 21.1781 26.5301C21.1654 27.4469 21.157 28.368 21.1443 29.2849C21.1443 29.5426 21.0809 29.606 20.8232 29.6271C20.5063 29.6567 20.1937 29.6863 19.8768 29.7074C19.6782 29.7243 19.619 29.6652 19.6233 29.4623C19.6444 27.785 19.6655 26.1076 19.6909 24.4344C19.6951 24.033 20.012 23.6823 20.4091 23.6359C20.5443 23.619 20.6838 23.6147 20.819 23.5936C21.0049 23.5682 21.1316 23.6316 21.2246 23.8006C21.6556 24.5738 22.0907 25.347 22.5259 26.116C22.5513 26.1583 22.5555 26.2259 22.6147 26.2301C22.6823 26.2301 22.6907 26.1583 22.7161 26.1118C23.1724 25.2668 23.6287 24.426 24.0808 23.5809C24.1822 23.3866 24.3132 23.2809 24.5413 23.2725C24.8118 23.264 25.0822 23.226 25.3526 23.2049C25.5807 23.188 25.6272 23.2387 25.6272 23.4668C25.6272 24.3753 25.6272 25.2837 25.6272 26.1963C25.6061 26.1963 25.5807 26.1963 25.5596 26.1963" fill="white" fill-opacity="0.5"/>
<path d="M36.9342 16.0006C36.9131 17.4203 36.8962 18.8399 36.875 20.2554C36.875 20.5638 36.7694 20.6821 36.4652 20.7117C35.8821 20.7666 35.2948 20.8173 34.7075 20.8638C34.4413 20.8849 34.323 20.7708 34.3273 20.5004C34.3611 17.9357 34.4033 15.3668 34.4202 12.8022C34.4202 12.0923 34.9484 11.4712 35.7216 11.4417C36.0173 11.429 36.3173 11.3952 36.6131 11.3656C36.8666 11.3403 36.9891 11.4501 36.9849 11.7036C36.968 13.0388 36.9511 14.3782 36.9342 15.7133C36.9342 15.8105 36.9342 15.9077 36.9342 16.0006Z" fill="white" fill-opacity="0.5"/>
<path d="M27.5708 26.6313C27.8328 26.7412 27.9215 26.9059 27.9046 27.1383C27.8962 27.2397 27.8962 27.3411 27.9046 27.4425C27.9088 27.6242 28.006 27.7129 28.1835 27.7003C28.9525 27.6327 29.7214 27.5693 30.4904 27.4975C30.8538 27.4637 30.8876 27.489 30.8834 27.8524C30.8834 28.0721 30.8749 28.2918 30.8707 28.5157C30.8665 28.689 30.7904 28.765 30.6214 28.7819C29.3327 28.896 28.0398 28.9974 26.7511 29.1241C26.3751 29.1622 26.3244 29.0946 26.3329 28.7312C26.3624 27.1299 26.3751 25.5243 26.3962 23.923C26.4005 23.4286 26.692 23.0906 27.1821 23.0441C28.099 22.9554 29.0201 22.8794 29.9411 22.8033C30.1693 22.7822 30.3975 22.7611 30.6256 22.7442C30.8073 22.7315 30.8791 22.7991 30.8791 22.985C30.8791 23.2385 30.8707 23.492 30.8665 23.7413C30.8665 23.9483 30.7946 24.0202 30.5876 24.0371C30.2749 24.0666 29.9665 24.092 29.6538 24.1173C28.982 24.1765 28.3102 24.2314 27.592 24.2948C27.9257 24.4215 27.9595 24.6666 27.9384 24.9412C27.9384 24.9877 27.9384 25.0342 27.9384 25.0807C27.9384 25.2708 28.0229 25.3553 28.2131 25.3384C28.7074 25.3004 29.2017 25.2539 29.6961 25.2117C29.8144 25.199 29.9327 25.1863 30.051 25.1821C30.1904 25.1736 30.2792 25.2497 30.2834 25.3933C30.2834 25.6511 30.2834 25.9088 30.2707 26.1623C30.2623 26.3229 30.1778 26.3989 30.0172 26.4116C29.282 26.475 28.5426 26.5384 27.8074 26.606C27.7441 26.6102 27.6807 26.6186 27.5793 26.6313" fill="white" fill-opacity="0.5"/>
<path d="M38.772 25.0511C38.772 25.9553 38.772 26.8595 38.772 27.7637C38.772 28.0087 38.7128 28.0721 38.472 28.0932C38.1129 28.127 37.7495 28.1608 37.3904 28.1904C37.2087 28.2073 37.1199 28.1312 37.1242 27.9496C37.1453 26.2679 37.1664 24.5863 37.196 22.9089C37.2044 22.4738 37.5213 22.1484 37.9523 22.1019C38.1593 22.0808 38.3621 22.0639 38.5692 22.047C38.7973 22.0301 38.8523 22.085 38.8523 22.3216C38.8523 23.2301 38.8523 24.1385 38.8523 25.0469H38.7762L38.772 25.0511Z" fill="white" fill-opacity="0.5"/>
<path d="M34.9058 3.23646C34.6861 2.03229 34.0016 1.23373 32.8144 0.88727C32.2778 0.735165 31.7285 0.688688 31.175 0.726714C30.4229 0.777416 29.6751 0.849244 28.923 0.912621C28.6779 0.933747 28.4371 0.950648 28.1963 0.980224C27.5245 1.06473 27.0555 1.5802 27.0428 2.25622C27.0217 3.53645 27.0048 4.82089 26.9963 5.49692C26.971 7.39402 26.9541 8.69114 26.9414 9.98404C26.9414 10.3178 27.0301 10.4023 27.3597 10.3812C27.3893 10.3812 27.4146 10.377 27.4442 10.3728C28.3526 10.2925 29.2652 10.2122 30.1737 10.1361C30.8117 10.0812 31.4539 10.0347 32.0792 9.86151C33.5031 9.46012 34.458 8.59819 34.8129 7.12783C34.9523 6.55321 34.9734 5.96591 34.9819 5.37439C34.9903 4.66034 35.041 3.93784 34.9101 3.22801M32.4764 5.22651C32.4679 5.69128 32.4595 6.15604 32.4045 6.61659C32.2989 7.47007 31.7919 7.97286 30.93 8.06582C30.5877 8.10384 30.2455 8.12919 29.9032 8.15877C29.6033 8.18835 29.4511 8.04892 29.4554 7.74893C29.4723 6.42645 29.4892 5.10398 29.5061 3.7815C29.5061 3.67588 29.5145 3.56602 29.4976 3.46462C29.4512 3.18998 29.2737 3.02098 29.016 2.89845C29.2314 2.87732 29.4511 2.85619 29.6666 2.83929C30.0765 2.80549 30.4905 2.77169 30.9004 2.73789C31.099 2.72521 31.2975 2.73789 31.4877 2.78014C32.0158 2.9069 32.3454 3.28716 32.4214 3.87868C32.4806 4.32655 32.4764 4.77442 32.4679 5.22651" fill="white" fill-opacity="0.5"/>
<path d="M33.4177 14.5049C33.2149 13.3895 32.6022 12.6036 31.5164 12.2233C30.9206 12.0163 30.2953 11.9614 29.6657 12.0078C28.9221 12.0585 28.1827 12.1261 27.4433 12.1895C27.1983 12.2107 26.949 12.2276 26.7039 12.2614C26.0406 12.3416 25.5673 12.8613 25.5547 13.5289C25.5335 14.8134 25.5166 16.102 25.5082 16.8245C25.4828 18.6709 25.4659 19.9511 25.4533 21.2314C25.449 21.6201 25.542 21.7004 25.9307 21.6581C25.9392 21.6581 25.9476 21.6581 25.9603 21.6581C26.9701 21.5694 27.9799 21.4807 28.9939 21.3961C29.5601 21.3497 30.1263 21.2821 30.6756 21.1215C32.0656 20.7117 32.9825 19.8371 33.3247 18.409C33.4642 17.8343 33.4811 17.247 33.4895 16.6555C33.498 15.9372 33.5487 15.219 33.4177 14.5091M30.9882 16.5161C30.9798 16.9809 30.9713 17.4456 30.9164 17.9062C30.8108 18.7597 30.3037 19.2624 29.4418 19.3554C29.0996 19.3934 28.7573 19.4188 28.4109 19.4484C28.1109 19.4779 27.9588 19.3385 27.963 19.0385C27.9799 17.7667 27.9968 16.495 28.0137 15.2232C28.0137 15.1218 28.0137 15.0204 28.0137 14.919C28.0137 14.5767 27.8785 14.3697 27.5658 14.2345C27.5489 14.2261 27.5278 14.2303 27.5278 14.188C27.7433 14.1669 27.963 14.1458 28.1785 14.1289C28.5926 14.0951 29.0024 14.0613 29.4122 14.0275C29.5643 14.0148 29.7164 14.0232 29.8643 14.0444C30.4854 14.1458 30.853 14.526 30.9333 15.1683C30.9924 15.6161 30.9882 16.0682 30.9798 16.5161" fill="white" fill-opacity="0.5"/>
<path d="M26.1675 5.78411C26.1295 6.45168 26.159 7.13193 26.0196 7.80373C25.6985 9.34592 24.7394 10.2966 23.2606 10.7444C22.2592 11.0487 21.2325 11.1332 20.2016 10.8881C18.8875 10.5754 18.0805 9.6459 17.9284 8.3023C17.8524 7.63895 17.8777 6.97138 17.8904 6.30803C17.8989 5.79678 17.8904 5.28554 17.9749 4.78274C18.2369 3.20676 19.158 2.17582 20.6452 1.6519C21.6846 1.28431 22.7536 1.19981 23.831 1.46599C25.1492 1.79556 25.99 2.79692 26.1168 4.14897C26.1675 4.68979 26.1548 5.23061 26.1675 5.78833M20.4551 7.07701C20.4551 7.33052 20.4551 7.5798 20.4889 7.83331C20.5776 8.43328 20.9156 8.84735 21.4353 8.95298C21.8325 9.03748 22.2254 8.99945 22.593 8.82622C23.1972 8.54736 23.4592 8.02344 23.5183 7.39812C23.6028 6.54886 23.5902 5.69115 23.569 4.83767C23.569 4.69824 23.5479 4.55459 23.5183 4.41516C23.4127 3.89124 23.1381 3.5152 22.593 3.38844C21.5663 3.15183 20.6579 3.78983 20.5185 4.84612C20.4551 5.34047 20.4678 5.83481 20.4551 6.32915C20.4551 6.57844 20.4551 6.8235 20.4551 7.07278" fill="white" fill-opacity="0.5"/>
<path d="M17.2945 4.90538C17.1678 3.54487 16.327 2.54351 15.0045 2.20972C13.944 1.94354 12.8919 2.02804 11.8694 2.37873C10.3526 2.89843 9.41038 3.93359 9.14842 5.54337C9.06815 6.04617 9.0766 6.54896 9.06815 7.05598C9.05547 7.72356 9.03012 8.38691 9.10617 9.05026C9.2625 10.3939 10.0653 11.3234 11.3835 11.6361C12.4187 11.8811 13.4496 11.7966 14.4594 11.4882C15.9298 11.0361 16.8847 10.0854 17.2016 8.54746C17.341 7.87566 17.3114 7.19541 17.3495 6.52361C17.3368 5.97857 17.3495 5.44197 17.2988 4.90538M14.7045 8.14607C14.6707 8.53056 14.5524 8.89393 14.2904 9.19391C13.8637 9.68826 13.0229 9.89106 12.4229 9.64178C11.9455 9.4432 11.7427 9.05026 11.6751 8.56859C11.6032 8.07424 11.6497 7.5799 11.6413 7.14048C11.6497 6.58699 11.6413 6.09265 11.7046 5.5983C11.8441 4.54624 12.744 3.90401 13.7665 4.1364C14.32 4.26315 14.5989 4.63497 14.7045 5.16734C14.7341 5.30677 14.751 5.45042 14.7552 5.58985C14.7763 6.44333 14.7848 7.29682 14.7045 8.1503" fill="white" fill-opacity="0.5"/>
<path d="M24.6252 15.4262C24.4984 14.0742 23.6576 13.0686 22.3394 12.7433C21.2239 12.4644 20.1169 12.5658 19.048 12.963C17.6072 13.5038 16.7284 14.5305 16.4791 16.0685C16.3988 16.5755 16.4072 17.0867 16.3988 17.5937C16.3861 18.2613 16.3608 18.9247 16.441 19.588C16.5974 20.9232 17.4044 21.8612 18.7142 22.1611C19.9226 22.44 21.1098 22.3175 22.2549 21.8485C23.5055 21.3372 24.2703 20.3993 24.5407 19.0683C24.6759 18.3965 24.6463 17.7163 24.6843 17.0529C24.6717 16.4994 24.6843 15.9586 24.6336 15.422M22.0394 18.6712C22.0056 19.0557 21.8873 19.419 21.6253 19.719C21.1986 20.2133 20.3578 20.4162 19.7578 20.1669C19.2804 19.9683 19.0775 19.5753 19.0099 19.0937C18.9381 18.5993 18.9846 18.105 18.9761 17.6656C18.9846 17.1163 18.9761 16.6177 19.0395 16.1234C19.179 15.0713 20.0789 14.4333 21.1014 14.6615C21.6549 14.784 21.9338 15.1643 22.0394 15.6924C22.069 15.8319 22.0859 15.9755 22.0901 16.1149C22.1112 16.9684 22.1197 17.8219 22.0394 18.6754" fill="white" fill-opacity="0.5"/>
<path d="M15.8019 16.1952C15.6752 14.8432 14.8344 13.8418 13.5161 13.5123C12.4387 13.2419 11.3655 13.3306 10.3304 13.6982C8.8431 14.2221 7.92202 15.2488 7.66006 16.829C7.57555 17.3403 7.58401 17.8557 7.57556 18.367C7.56288 19.0345 7.53753 19.6979 7.61781 20.3612C7.77414 21.6964 8.58114 22.6217 9.89094 22.9344C10.9219 23.1794 11.9486 23.0991 12.95 22.7907C14.4245 22.3428 15.3879 21.3922 15.709 19.85C15.8484 19.1782 15.8188 18.4979 15.8569 17.8304C15.8442 17.2769 15.8569 16.7318 15.8062 16.191M13.2119 19.4233C13.1528 20.0655 12.8908 20.5936 12.2739 20.8725C11.9021 21.0415 11.5134 21.0795 11.1162 20.9908C10.5965 20.8767 10.267 20.4669 10.1783 19.8627C10.1445 19.6176 10.1487 19.3683 10.1445 19.119C10.1445 18.8698 10.1445 18.6247 10.1445 18.3754C10.1571 17.8811 10.1445 17.3825 10.2078 16.8924C10.3473 15.8319 11.2514 15.1939 12.2782 15.4305C12.8232 15.5572 13.1021 15.9291 13.2077 16.4572C13.2373 16.6009 13.2584 16.7487 13.2584 16.8924C13.2795 17.7374 13.288 18.5825 13.2077 19.4233" fill="white" fill-opacity="0.5"/>
<path d="M36.5453 24.1089C36.465 23.4287 36.0932 22.9259 35.451 22.6512C35.0243 22.4695 34.5722 22.4273 34.1159 22.4611C33.499 22.5033 32.8821 22.5625 32.261 22.6132C31.7793 22.6555 31.4582 22.9935 31.4582 23.4751C31.454 24.2906 31.4582 25.1103 31.4582 25.9257H31.3906C31.3906 26.7665 31.3906 27.6073 31.3906 28.4481C31.3906 28.6594 31.454 28.7228 31.6653 28.7059C32.1512 28.6679 32.637 28.6298 33.1187 28.5833C33.6215 28.5326 34.1285 28.52 34.6186 28.3974C35.6073 28.1482 36.2876 27.5735 36.4946 26.551C36.6594 25.744 36.6509 24.9244 36.5495 24.1089M34.9144 26.3187C34.8384 26.8595 34.5341 27.1383 33.9975 27.2059C33.7736 27.2355 33.5497 27.2524 33.3257 27.2651C33.0934 27.282 33.0131 27.2017 33.0131 26.9609C33.0215 26.1032 33.03 25.2455 33.0511 24.3878C33.0553 24.1554 32.9793 23.9864 32.7638 23.8638C33.0004 23.8427 33.237 23.8174 33.4736 23.8005C33.6976 23.7836 33.9215 23.754 34.1454 23.7624C34.5848 23.7836 34.8848 24.0413 34.9355 24.4765C35.0031 25.0891 34.9989 25.706 34.9144 26.3144" fill="white" fill-opacity="0.5"/>
<path d="M44.9945 27.2102C44.3692 25.4568 43.7396 23.7033 43.1101 21.9541C43.0298 21.7344 42.9495 21.6753 42.7171 21.6964C42.3158 21.726 41.9144 21.7767 41.5087 21.7978C41.2595 21.8105 41.1285 21.9288 41.0482 22.1527C40.5834 23.4456 40.1144 24.7385 39.6455 26.0356C39.4384 26.606 39.2314 27.1722 39.0286 27.7426C38.9525 27.9496 39.0244 28.051 39.2314 28.0384C39.4933 28.0214 39.7511 27.9961 40.013 27.975C40.5243 27.9285 40.4989 27.9496 40.6806 27.4468C40.7778 27.1806 40.7567 27.1004 40.537 26.9018C40.5792 26.8933 40.6003 26.8891 40.6257 26.8891C41.4242 26.83 42.1974 26.6778 42.9284 26.3356C43.0087 26.2976 43.0171 26.3356 43.0383 26.3948C43.165 26.7455 43.2918 27.0919 43.4185 27.4426C43.4819 27.6116 43.5622 27.6665 43.7439 27.6496C44.0861 27.6243 44.4283 27.5947 44.7706 27.5609C44.9861 27.5398 45.0579 27.4215 44.9861 27.2187M42.6115 25.1737C42.1974 25.4018 41.7411 25.5033 41.2595 25.5962C41.5299 24.8188 41.7876 24.0667 42.0496 23.3062C42.1003 23.3611 42.1087 23.4287 42.1298 23.4879C42.3073 23.9991 42.4805 24.5103 42.658 25.0216C42.6833 25.0934 42.6876 25.1357 42.6115 25.1779" fill="white" fill-opacity="0.5"/>
</g>
<defs>
<clipPath id="clip0_523_615">
<rect width="44.9303" height="29.0057" fill="white" transform="translate(0.138672 0.718262)"/>
</clipPath>
</defs>
</svg>
