<svg width="188" height="35" viewBox="0 0 188 35" fill="none" xmlns="http://www.w3.org/2000/svg">
<g clip-path="url(#clip0_284_297)">
<path d="M24.7026 12.0173C24.7447 11.0978 24.7724 10.151 24.7869 9.17561C24.7893 9.03745 24.7893 8.8993 24.7893 8.76234C24.7893 7.93938 24.7531 7.14739 24.6821 6.38636C24.5978 5.50028 24.458 4.69161 24.2629 3.96155C24.069 3.23625 23.8076 2.67531 23.4872 2.27991V2.27752L23.4848 2.27633C23.0788 1.74516 22.6223 1.49387 22.079 1.47958H22.0393C21.5165 1.47958 21.0588 1.71896 20.636 2.23941C20.3168 2.63243 19.9952 3.30295 19.688 4.24262C19.3784 5.18706 19.0978 6.18866 18.8448 7.24505C18.5907 8.30501 18.3654 9.32805 18.1691 10.3166C17.9715 11.3086 17.8149 12.0554 17.7029 12.5603V12.5627V12.5639C17.6716 12.6866 17.633 12.7866 17.5704 12.87C17.5198 12.9355 17.456 12.9676 17.3849 12.995C17.3138 13.0212 17.2307 13.0403 17.1319 13.0546C16.9332 13.0844 16.661 13.0987 16.3032 13.0987C15.9539 13.0987 15.454 13.1129 14.8072 13.1403H14.8036H14.7999C14.7084 13.1403 14.6289 13.1308 14.5542 13.1058C14.4807 13.0808 14.4085 13.0331 14.3663 12.9593C14.3386 12.9105 14.3265 12.8557 14.3265 12.8033L14.329 12.764C14.3422 12.6294 14.3494 12.4948 14.3494 12.3603V12.3543C14.3771 11.6004 14.406 10.7846 14.4338 9.90567C14.4434 9.61507 14.447 9.32448 14.4482 9.03388C14.4482 8.45031 14.4289 7.86673 14.3916 7.28316C14.3362 6.41018 14.2302 5.56459 14.076 4.74759C13.923 3.93773 13.6809 3.23387 13.3509 2.63601V2.63362C13.0473 2.06196 12.6944 1.62726 12.2933 1.32237C11.8849 1.01391 11.4645 0.823353 11.0249 0.744749C10.8586 0.714975 10.6936 0.700684 10.5286 0.700684C10.2528 0.700684 9.97691 0.742367 9.69987 0.824544C9.25418 0.959123 8.87354 1.16992 8.55193 1.46052C8.1725 1.80828 7.8834 2.2275 7.67863 2.72414C7.46904 3.23625 7.29438 3.72693 7.15465 4.19617C6.67524 5.92427 6.30183 7.35938 6.03442 8.50033C5.7658 9.64485 5.55501 10.5714 5.39962 11.2824C5.24423 11.9934 5.13101 12.5246 5.06114 12.8712C4.98766 13.2297 4.91298 13.475 4.80578 13.637C4.75278 13.7156 4.68532 13.7823 4.60462 13.8263C4.52391 13.8716 4.43237 13.893 4.33841 13.893C4.20711 13.893 3.99752 13.9073 3.71807 13.9347H3.71566H3.71325C2.8267 13.9895 2.08108 14.1872 1.47037 14.523C1.17285 14.6874 0.953622 14.8922 0.801848 15.1435C0.65128 15.3936 0.568166 15.6926 0.553711 16.0475C0.554915 16.4608 0.682598 16.8276 0.94519 17.1658C1.20537 17.5005 1.5836 17.7482 2.09795 17.909H2.10035L2.10397 17.9114C2.40752 18.0209 2.65927 18.0876 2.8544 18.1126C3.06881 18.1412 3.24106 18.1698 3.37477 18.1984H3.37597C3.5145 18.2317 3.61809 18.2627 3.70482 18.3437C3.77468 18.4163 3.78673 18.4997 3.78793 18.5783C3.78793 18.6331 3.7807 18.6891 3.76866 18.7522V18.7557L3.76745 18.7593C3.57232 19.5334 3.36754 20.6053 3.15675 21.969C2.94595 23.3314 2.80502 24.7499 2.73515 26.2231C2.71106 26.715 2.70022 27.1985 2.70022 27.6713C2.70022 28.6146 2.7472 29.5197 2.84115 30.3867C2.97968 31.6813 3.31454 32.6448 3.82527 33.2808L3.82648 33.2844C4.31793 33.9311 4.93828 34.3777 5.70076 34.6337C6.15487 34.7862 6.60538 34.8612 7.05226 34.8624C7.35822 34.8624 7.66297 34.8267 7.96652 34.7564C8.71334 34.5813 9.40716 34.1931 10.0552 33.5797C10.6912 32.9771 11.1526 32.1196 11.4308 30.9953C11.5994 30.3284 11.7536 29.6126 11.8946 28.848C12.0355 28.081 12.1909 27.2235 12.3607 26.2743C12.5306 25.3263 12.7125 24.2592 12.9112 23.073C13.1087 21.8868 13.334 20.5267 13.5894 18.9904C13.6062 18.8284 13.6701 18.6819 13.7893 18.5842C13.911 18.4842 14.07 18.4437 14.2483 18.4437H16.6044V18.5962C16.6044 18.6652 16.5947 18.795 16.5767 19.007C16.5586 19.2178 16.5321 19.5037 16.4972 19.8669C16.4261 20.5922 16.349 21.4223 16.2647 22.3572C16.1804 23.291 16.1093 24.2247 16.0527 25.1584C15.9961 26.0921 15.9684 26.8365 15.9684 27.3891C15.9684 27.8452 16.0563 28.3299 16.2358 28.848C16.414 29.3649 16.6622 29.8472 16.979 30.2962C17.2909 30.7393 17.6836 31.1001 18.1606 31.3824C18.6292 31.6611 19.1568 31.8004 19.7543 31.8004C20.3866 31.8004 20.9227 31.698 21.3635 31.5003C21.8128 31.2978 22.1911 31.037 22.5018 30.7166C22.8138 30.3939 23.0571 30.033 23.2342 29.6317C23.4125 29.2232 23.5281 28.8313 23.5835 28.4562V28.4526L23.5847 28.449C23.6955 27.8988 23.751 27.3855 23.751 26.9091C23.751 26.4327 23.757 25.7705 23.7714 24.9595C23.7859 24.1473 23.828 23.0849 23.8991 21.7725C23.9702 20.4564 24.1183 18.7105 24.3448 16.531C24.4002 16.0296 24.4641 15.3805 24.5351 14.5862C24.605 13.793 24.6616 12.9367 24.7038 12.0173H24.7026Z" fill="white"/>
<path d="M36.1505 24.0686C36.6854 23.441 37.1262 22.7347 37.4828 21.9546C37.4936 21.7843 37.4996 21.6188 37.5117 21.4473C37.5972 20.1884 37.7177 18.9784 37.873 17.816C38.0296 16.6525 38.2212 15.7175 38.4512 15.0053V15.003L38.4536 15.0006C38.5139 14.8362 38.5861 14.6147 38.6692 14.3479C38.6006 13.65 38.4669 12.945 38.2609 12.2352C38.0248 11.4277 37.6731 10.7048 37.2045 10.0628C36.7384 9.42685 36.1288 8.90402 35.3712 8.49552C34.6232 8.09178 33.6836 7.88574 32.5441 7.88574C31.7997 7.88574 31.0697 8.01556 30.353 8.274C29.6351 8.53363 28.9967 8.9064 28.433 9.39708C27.8692 9.88657 27.4163 10.4761 27.0718 11.1716C26.7297 11.8612 26.5587 12.6258 26.5587 13.4702C26.5611 13.7143 26.6382 13.8835 26.802 14.0252C26.9767 14.1729 27.167 14.2479 27.3886 14.261H27.4501C27.6512 14.2622 27.8548 14.2086 28.0668 14.0919C28.2848 13.9716 28.4595 13.7667 28.592 13.4547L28.5944 13.4499L28.5968 13.4452C28.6895 13.2606 28.8257 13.076 29.0015 12.8878C29.1786 12.6972 29.3725 12.5353 29.5821 12.4019C29.7869 12.2709 30.0013 12.1613 30.2217 12.0744C30.4446 11.9862 30.6361 11.9386 30.8083 11.9386C31.2817 11.9386 31.6828 12.0422 31.9972 12.259C32.3213 12.4841 32.52 12.8604 32.6092 13.3535C32.6092 13.3535 32.6092 13.357 32.6092 13.3582C32.6092 13.3582 32.6092 13.3606 32.6092 13.3618C32.6947 13.731 32.7453 14.1014 32.7597 14.4706C32.7742 14.835 32.7814 15.215 32.7814 15.6068C32.7814 15.6937 32.779 15.7688 32.7718 15.8331C32.7645 15.8974 32.7561 15.9498 32.7344 16.0022C32.72 16.0355 32.6995 16.0748 32.6501 16.1094C32.6501 16.1094 32.6501 16.1094 32.6489 16.1094C32.6128 16.132 32.5826 16.1403 32.5513 16.1487C32.52 16.1558 32.4863 16.1606 32.4477 16.1653C32.3719 16.1725 32.2779 16.1761 32.1623 16.1761C30.8842 16.1761 29.7833 16.4369 28.8497 16.9526C27.9054 17.4742 27.1248 18.1233 26.5033 18.9022C25.8781 19.6847 25.4144 20.5207 25.1096 21.4104C24.829 22.2309 24.6904 22.9813 24.6904 23.6649C24.6904 23.7268 24.6904 23.7875 24.694 23.8483V23.8542C24.694 24.4461 24.8229 24.9785 25.0783 25.4573C25.3385 25.9432 25.6697 26.3445 26.0757 26.6661C26.4852 26.99 26.9478 27.239 27.4693 27.4152C27.9885 27.5915 28.5354 27.6796 29.1123 27.6796C29.8845 27.6796 30.6939 27.5438 31.5419 27.2687C32.3875 26.9948 33.1994 26.5899 33.9787 26.0539C34.7569 25.518 35.4808 24.857 36.1505 24.071V24.0686ZM32.1864 19.6037C32.155 19.8157 32.0755 20.1063 31.9466 20.4886C31.8166 20.8756 31.6419 21.2555 31.4263 21.6259C31.2083 21.9987 30.9601 22.3238 30.6819 22.599C30.3928 22.8872 30.0435 23.0432 29.6628 23.0408C29.4388 23.0408 29.2497 23.0158 29.0919 22.9574C28.9353 22.9003 28.8052 22.8026 28.7329 22.6656C28.6835 22.5751 28.6618 22.4727 28.6618 22.3655C28.6618 21.9689 28.8449 21.5616 29.1822 21.14C29.5183 20.7208 29.9531 20.3349 30.4867 19.9776C31.0252 19.618 31.5407 19.4286 32.0334 19.4286H32.2104L32.1851 19.6025L32.1864 19.6037Z" fill="white"/>
<path d="M54.7369 14.2586C55.2536 13.0676 55.5102 11.8243 55.5102 10.5201C55.5102 10.4546 55.5102 10.3891 55.5078 10.3224C55.4801 8.94807 55.1609 7.72613 54.5538 6.64593C53.9467 5.57048 53.0626 4.74276 51.8881 4.15323C51.1425 3.78046 50.2668 3.59229 49.255 3.59229C48.69 3.59229 48.083 3.65064 47.4337 3.76974H47.4313H47.4289C47.2349 3.79713 47.0579 3.83048 46.8941 3.87097C46.7146 3.91504 46.5206 3.93647 46.3171 3.93767C45.5269 3.99245 44.8114 4.25923 44.1549 4.74514C43.49 5.2382 42.8865 5.84202 42.3433 6.5566C41.8 7.27357 41.3326 8.06556 40.9424 8.93496C40.5485 9.81152 40.204 10.6595 39.9089 11.4777C39.6138 12.2994 39.374 13.0283 39.1922 13.6667C39.0091 14.3074 38.8609 14.7814 38.7453 15.0946C38.5236 15.7795 38.3345 16.7001 38.1791 17.8517C38.0249 19.007 37.9057 20.2099 37.8202 21.4639C37.7359 22.718 37.6792 23.9376 37.6515 25.1202C37.6238 26.304 37.6094 27.2723 37.6094 28.0238C37.6371 29.2576 37.9479 30.1723 38.5212 30.7928C39.1115 31.43 39.7378 31.7992 40.4039 31.9183C40.5882 31.9516 40.7677 31.9671 40.9424 31.9671C41.4073 31.9671 41.8398 31.8527 42.2493 31.6217C42.5276 31.4645 42.7311 31.2739 42.8721 31.0465C43.0118 30.819 43.0901 30.5534 43.1033 30.2402C43.131 29.5697 43.1744 28.7586 43.231 27.8094C43.2876 26.8578 43.3647 25.8515 43.4647 24.7903C43.5635 23.7292 43.6695 22.6609 43.7827 21.5854C43.8947 20.51 44.008 19.5108 44.1224 18.5889L44.1489 18.371L44.3452 18.4722C45.0981 18.8581 45.7413 19.0892 46.2665 19.1689C46.5327 19.2094 46.823 19.2297 47.1374 19.2297C47.4518 19.2297 47.7902 19.2094 48.1516 19.1678C49.7922 18.9748 51.1582 18.421 52.2627 17.5064C53.3745 16.5845 54.1985 15.5031 54.7393 14.255L54.7369 14.2586ZM49.5284 9.87226C49.2285 10.3903 48.7286 10.8584 48.0372 11.2859C47.3301 11.723 46.452 11.9374 45.4149 11.9374C45.3739 11.9374 45.3269 11.9255 45.2896 11.8993C45.2523 11.8731 45.2282 11.8385 45.2125 11.8064C45.1824 11.7409 45.1776 11.6801 45.1764 11.6087C45.1764 11.5384 45.1848 11.4574 45.1993 11.3633C45.245 11.0811 45.3474 10.7512 45.5052 10.3677C45.663 9.98421 45.8497 9.60191 46.0641 9.2208C46.2809 8.83373 46.5219 8.5086 46.7881 8.24539L46.7917 8.24182L46.7953 8.23944C47.0639 8.00363 47.3554 7.84285 47.665 7.76663C47.9589 7.69398 48.2684 7.65706 48.5913 7.65706C48.9057 7.65706 49.1695 7.71184 49.3802 7.8357C49.591 7.95837 49.7356 8.15607 49.7994 8.39784C49.8356 8.53004 49.8524 8.66581 49.8524 8.80396C49.8524 9.15053 49.7416 9.50782 49.5296 9.87345L49.5284 9.87226Z" fill="white"/>
<path d="M71.378 14.2586C71.8947 13.0676 72.1513 11.8231 72.1513 10.519C72.1513 10.4534 72.1513 10.3879 72.1489 10.3224C72.1212 8.94807 71.802 7.72613 71.1937 6.64593C70.5866 5.57048 69.7024 4.74276 68.528 4.15323C67.7824 3.78046 66.9067 3.59229 65.8949 3.59229C65.3299 3.59229 64.7228 3.65064 64.0736 3.76974H64.0712H64.0676C63.8736 3.79713 63.6965 3.83048 63.5327 3.87097C63.3533 3.91504 63.1593 3.93647 62.9558 3.93767C62.1656 3.99245 61.4501 4.25923 60.7936 4.74514C60.1287 5.2382 59.5252 5.84202 58.9819 6.5566C58.4387 7.27357 57.9713 8.06556 57.581 8.93496C57.1872 9.81152 56.8426 10.6595 56.5475 11.4777C56.2524 12.2994 56.0127 13.0283 55.8308 13.6667C55.6477 14.3074 55.4996 14.7814 55.3839 15.0946C55.1623 15.7795 54.9732 16.7001 54.8178 17.8517C54.6636 19.007 54.5444 20.2099 54.4588 21.4639C54.3745 22.718 54.3179 23.9376 54.2902 25.1202C54.2625 26.304 54.248 27.2723 54.248 28.0238C54.2758 29.2576 54.5865 30.1723 55.1599 30.7928C55.7513 31.4311 56.3765 31.7992 57.0426 31.9183C57.2269 31.9516 57.4064 31.9671 57.581 31.9671C58.046 31.9671 58.4784 31.8527 58.888 31.6217C59.1662 31.4645 59.3698 31.2739 59.5107 31.0465C59.6505 30.819 59.7288 30.5534 59.742 30.2402C59.7697 29.5685 59.8131 28.7586 59.8697 27.8094C59.9263 26.8578 60.0034 25.8515 60.1034 24.7903C60.2021 23.7292 60.3081 22.6609 60.4214 21.5854C60.5334 20.51 60.6466 19.5108 60.7611 18.5889L60.7876 18.371L60.9839 18.4722C61.7367 18.8581 62.38 19.0892 62.9052 19.1689C63.1714 19.2094 63.4617 19.2297 63.7761 19.2297C64.0904 19.2297 64.4289 19.2094 64.7903 19.1678C66.4309 18.9748 67.7968 18.421 68.9014 17.5064C70.0132 16.5845 70.8371 15.5031 71.378 14.255V14.2586ZM66.1695 9.87226C65.8696 10.3903 65.3697 10.8584 64.6783 11.2859C63.9712 11.723 63.0931 11.9374 62.0559 11.9374C62.015 11.9374 61.968 11.9255 61.9307 11.8993C61.8933 11.8731 61.8692 11.8385 61.8536 11.8064C61.8235 11.7409 61.8187 11.6801 61.8174 11.6087C61.8174 11.5384 61.8259 11.4574 61.8403 11.3633C61.8861 11.0811 61.9885 10.7512 62.1463 10.3677C62.3041 9.98421 62.4908 9.60191 62.7052 9.2208C62.922 8.83373 63.1629 8.5086 63.4291 8.24539L63.4327 8.24182L63.4364 8.23944C63.705 8.00363 63.9965 7.84285 64.306 7.76663C64.6 7.69398 64.9095 7.65706 65.2323 7.65706C65.5467 7.65706 65.8105 7.71184 66.0213 7.8357C66.2321 7.95837 66.3767 8.15607 66.4405 8.39784C66.4767 8.53004 66.4935 8.66581 66.4935 8.80396C66.4935 9.15053 66.3827 9.50782 66.1707 9.87345L66.1695 9.87226Z" fill="white"/>
<path d="M88.3897 11.8553C88.4885 11.2157 88.5728 10.569 88.6427 9.9152C88.6921 9.45072 88.7174 8.99101 88.7174 8.53368C88.7174 8.35265 88.7138 8.17162 88.7053 7.99179C88.6776 7.36177 88.5813 6.81035 88.4174 6.33872C88.256 5.87306 88.0031 5.50147 87.6598 5.21207C87.3261 4.93338 86.8732 4.78809 86.277 4.78809C86.0397 4.78809 85.8216 4.85716 85.6072 5.00246C85.3928 5.14776 85.1856 5.37166 84.9893 5.68012C84.5882 6.31014 84.2099 7.10928 83.8606 8.07873C83.5089 9.05175 83.1788 10.1153 82.8693 11.2693C82.5573 12.4293 82.2393 13.5131 81.9141 14.5207C81.5876 15.5318 81.2383 16.3964 80.8673 17.1182C80.6782 17.485 80.4722 17.7768 80.2434 17.9911C80.0157 18.2055 79.7603 18.3437 79.4869 18.3913H79.4857C79.4375 18.3996 79.3893 18.4044 79.3424 18.4044C79.1737 18.4056 79.0123 18.3437 78.8991 18.2246C78.7846 18.1067 78.716 17.9447 78.675 17.7506C78.6256 17.516 78.6028 17.2444 78.6028 16.9324C78.6028 16.6727 78.6196 16.3857 78.6521 16.0713C78.7232 15.3817 78.8364 14.6243 78.993 13.7978C79.1484 12.9724 79.3183 12.1614 79.5026 11.3634C79.6857 10.5678 79.8483 9.85684 79.9904 9.2292C80.1301 8.60633 80.1988 8.15733 80.1988 7.90127V7.89413C80.2 7.85602 80.2012 7.81791 80.2012 7.7798C80.2012 7.24743 80.0302 6.77581 79.682 6.3423C79.305 5.87901 78.8389 5.58722 78.2643 5.45265C78.08 5.41096 77.8897 5.38952 77.6933 5.38952C77.2814 5.38952 76.8405 5.48361 76.3671 5.67536C75.6877 5.95047 75.0216 6.56144 74.3832 7.52374C73.8243 8.37885 73.3413 9.31257 72.9366 10.3225C72.5306 11.3313 72.2524 12.365 72.0982 13.4286C72.0175 13.9847 71.9777 14.5338 71.9777 15.0769C71.9777 15.5723 72.0115 16.0618 72.0777 16.5465C72.2162 17.5612 72.5342 18.5045 73.0329 19.381C73.6689 20.4731 74.5109 21.2496 75.5673 21.7248C76.2948 22.0523 77.0152 22.2143 77.7307 22.2143C78.0583 22.2143 78.3847 22.181 78.7112 22.1119C79.1014 22.0297 79.4435 21.9404 79.7326 21.8439C80.0241 21.7486 80.265 21.6593 80.4566 21.5783C80.6758 21.47 80.8673 21.3616 81.0287 21.2544L81.3419 21.0484L81.2648 21.4128C81.1203 22.1 80.8589 22.7455 80.4831 23.3457C80.1639 23.8626 79.7374 24.3545 79.205 24.8237C78.657 25.3061 77.9186 25.6443 76.9971 25.8432H76.9947H76.9923C76.6743 25.9004 76.3828 25.9289 76.1178 25.9289C75.8528 25.9289 75.6131 25.9004 75.3987 25.8396C74.9879 25.7241 74.6314 25.555 74.3326 25.3335C74.0447 25.1203 73.7773 24.8916 73.5328 24.6498C73.3076 24.4283 73.0522 24.2664 72.7631 24.1615H72.7607L72.7583 24.1604C72.5523 24.0794 72.3608 24.0401 72.1813 24.0401C72.0163 24.0401 71.8621 24.0722 71.7127 24.1377C71.3875 24.2806 71.1225 24.5022 70.9105 24.8154C70.6997 25.1298 70.5588 25.505 70.4901 25.9468C70.4588 26.1493 70.4443 26.3553 70.4443 26.5661C70.4443 26.8174 70.466 27.0747 70.5106 27.3402C70.619 27.8452 70.8406 28.3025 71.1779 28.7182C71.52 29.1374 71.9368 29.503 72.4331 29.8163C72.9269 30.1283 73.4834 30.3665 74.105 30.5296C74.7277 30.694 75.3697 30.7762 76.0347 30.7762C77.4825 30.7762 78.7569 30.5082 79.8627 29.9747C80.9745 29.4375 81.9478 28.7301 82.7826 27.8512C83.6185 26.9687 84.3292 25.9432 84.9158 24.7689C85.506 23.5899 86.0035 22.362 86.4107 21.0853C86.8178 19.8062 87.1551 18.5211 87.4225 17.2277C87.6899 15.9308 87.9224 14.7124 88.1199 13.5691C88.2042 13.0689 88.2958 12.4972 88.3946 11.8553H88.3897Z" fill="white"/>
<path d="M117.252 5.07279C117.059 4.37846 116.765 3.81513 116.374 3.37447C115.994 2.95049 115.478 2.73731 114.774 2.73492C114.271 2.73492 113.732 2.89213 113.157 3.21727C112.576 3.54597 111.992 3.97829 111.406 4.51542C110.819 5.05493 110.237 5.6647 109.662 6.34355C109.085 7.02479 108.53 7.72746 107.996 8.45038C106.758 10.1463 105.533 12.0816 104.322 14.254L104.077 14.6946L104.034 14.1932C103.921 12.8546 103.788 11.4742 103.632 10.0522C103.478 8.63736 103.212 7.35707 102.834 6.21017C102.458 5.06922 101.925 4.13312 101.238 3.39829C100.563 2.67895 99.6403 2.31809 98.4285 2.31689C97.2601 2.31689 96.1579 2.804 95.1052 3.80203C94.0464 4.80721 93.1104 6.09107 92.2986 7.656C91.4843 9.22331 90.8109 10.9443 90.2773 12.8188C89.7437 14.6946 89.4064 16.4918 89.2667 18.2115C89.1258 19.9396 89.0342 21.6808 88.9921 23.4363C88.9848 23.7269 88.9824 24.0127 88.9824 24.2938C88.9824 25.7063 89.0704 26.9961 89.245 28.1621C89.4546 29.5591 89.8172 30.6917 90.3267 31.5623C90.5773 31.9898 90.8808 32.3031 91.2398 32.5115C91.5987 32.7199 92.0155 32.8247 92.5009 32.8259C93.0972 32.8247 93.6332 32.5436 94.1391 31.9398C94.6498 31.3253 95.1088 30.5559 95.5147 29.6317C95.9206 28.7052 96.2712 27.6797 96.5663 26.5555C96.8626 25.4252 97.13 24.3665 97.3697 23.3768C97.6094 22.3859 97.8142 21.5284 97.984 20.8031C98.0696 20.4375 98.1515 20.1397 98.231 19.9087C98.3129 19.6764 98.3864 19.5133 98.4815 19.4001L98.6839 19.1631L98.7501 19.4656C98.8887 20.1004 99.085 20.7566 99.3367 21.4343C99.5885 22.112 99.8655 22.6943 100.17 23.1874C100.636 23.9401 101.205 24.3176 101.913 24.3712C101.969 24.3748 102.023 24.3772 102.078 24.3772C102.728 24.3772 103.345 24.0925 103.954 23.4935L103.956 23.4911L103.959 23.4887C104.31 23.1672 104.625 22.7503 104.901 22.2311C105.181 21.7035 105.441 21.183 105.68 20.6685C105.918 20.1528 106.138 19.6657 106.334 19.2072C106.536 18.7368 106.739 18.395 106.96 18.1746L107.41 17.7304L107.216 18.3283C106.738 19.8027 106.344 21.2699 106.034 22.7301C105.724 24.1878 105.528 25.6658 105.444 27.1664V27.1688C105.422 27.457 105.411 27.7345 105.411 28.0001C105.411 28.7516 105.499 29.4114 105.671 29.9819C105.906 30.7631 106.23 31.392 106.638 31.8743C107.047 32.3602 107.518 32.7056 108.059 32.9188C108.606 33.1344 109.165 33.2427 109.738 33.2427C110.296 33.2427 110.781 33.1272 111.205 32.8997C111.628 32.6723 111.992 32.3305 112.299 31.8672C112.92 30.9239 113.467 29.5984 113.93 27.8905C114.395 26.1803 114.838 24.133 115.261 21.7499C115.685 19.3596 116.25 16.7395 116.957 13.8895C117.04 13.5334 117.138 13.0058 117.251 12.3103C117.363 11.6172 117.454 10.8526 117.524 10.0189C117.574 9.4234 117.599 8.81362 117.599 8.18955C117.599 7.94183 117.595 7.69292 117.587 7.44044C117.559 6.55674 117.447 5.76713 117.253 5.06803L117.252 5.07279Z" fill="white"/>
<path d="M185.393 9.28379C184.669 8.37032 183.719 7.92133 182.487 7.91895C181.27 7.91895 180.243 8.23812 179.381 8.87291C178.505 9.5208 177.789 10.2413 177.235 11.0357C176.595 11.9432 176.08 12.9913 175.688 14.1787L175.346 15.2172L175.388 14.1251C175.403 13.7642 175.409 13.4141 175.409 13.0746C175.409 12.7352 175.402 12.4053 175.388 12.0861V12.0802C175.388 11.5252 175.368 10.9988 175.326 10.5022C175.285 10.0115 175.192 9.66729 175.073 9.48149L175.07 9.47792V9.47554C174.866 9.11468 174.628 8.84433 174.359 8.65735C174.087 8.47036 173.784 8.36556 173.435 8.33936C173.38 8.33578 173.327 8.3334 173.276 8.3334C172.647 8.33459 172.099 8.61209 171.596 9.20519C171.277 9.59821 170.941 10.2842 170.606 11.2513C170.269 12.2243 169.959 13.2604 169.678 14.3585C169.396 15.459 169.15 16.5249 168.938 17.5539C168.727 18.5876 168.565 19.3689 168.451 19.9001C168.244 20.8445 168.141 21.6984 168.141 22.4607C168.141 22.7262 168.153 22.9811 168.178 23.2241C168.277 24.1733 168.491 24.9653 168.819 25.5989C169.149 26.2396 169.544 26.7207 170 27.053C170.462 27.3889 170.935 27.5782 171.429 27.6318C171.518 27.6414 171.606 27.6461 171.694 27.6461C172.088 27.6461 172.46 27.5509 172.822 27.3567C173.259 27.1209 173.609 26.7565 173.882 26.2467V26.2444C174.045 25.949 174.299 25.3845 174.637 24.5639C174.975 23.7409 175.363 22.7917 175.802 21.7175C176.239 20.642 176.713 19.5178 177.222 18.3435C177.731 17.1692 178.225 16.0937 178.707 15.1136C179.189 14.1322 179.643 13.3247 180.073 12.6876C180.289 12.3672 180.488 12.1231 180.68 11.9528C180.87 11.7836 181.058 11.68 181.259 11.6788C181.324 11.6788 181.393 11.6955 181.45 11.7324C181.506 11.7682 181.55 11.8206 181.58 11.8777C181.639 11.9932 181.657 12.129 181.658 12.2969C181.658 12.4839 181.632 12.7138 181.58 12.9889C181.438 13.7452 181.241 14.6884 180.986 15.8198C180.733 16.9477 180.486 18.1744 180.246 19.4975C180.021 20.7409 179.909 21.8961 179.909 22.9621C179.909 23.0264 179.909 23.0895 179.91 23.1526C179.924 24.2662 180.132 25.1832 180.527 25.9085C180.719 26.261 180.979 26.5183 181.315 26.6934C181.651 26.8672 182.068 26.9589 182.572 26.9589C183.387 26.9589 184.12 26.5242 184.797 25.5989C185.475 24.6687 186.02 23.492 186.426 22.0664C186.832 20.6409 187.091 19.095 187.204 17.4288C187.234 16.9691 187.25 16.5189 187.25 16.0783C187.25 14.923 187.144 13.8309 186.932 12.8007C186.639 11.3823 186.125 10.2116 185.393 9.28498V9.28379Z" fill="white"/>
<path d="M141.02 15.1909C140.301 15.5947 140.054 16.576 140.095 17.3442C140.117 17.761 140.249 18.1862 140.519 18.5126C140.821 18.877 141.117 18.8794 141.556 18.8794C141.742 18.8794 141.853 19.0413 141.839 19.1985C141.907 18.7329 141.958 18.2672 141.978 17.8063C141.984 17.667 141.987 17.5264 141.987 17.3871C141.987 16.813 141.938 16.2414 141.846 15.6721C141.389 13.0484 140.352 10.4306 138.447 8.52629C136.706 6.78629 134.312 5.75491 131.865 5.44645C131.327 5.37856 130.78 5.34521 130.229 5.34521C128.361 5.34521 126.463 5.7299 124.763 6.4421C122.4 7.43298 120.616 9.16822 119.49 11.4477C118.564 13.3199 118.033 15.3708 118.033 17.4323C118.033 18.1433 118.096 18.8555 118.228 19.563C118.64 21.7734 119.529 23.8648 121.161 25.4416C123.465 27.6687 126.725 28.7358 129.967 28.7358C131.445 28.7358 132.918 28.5143 134.292 28.082C136.385 27.4234 138.327 26.2241 139.679 24.5079C140.852 23.0204 141.547 21.1339 141.834 19.2367C141.823 19.2867 141.801 19.3343 141.763 19.376C141.357 19.8095 140.663 19.5689 140.26 19.2486C139.766 18.8567 139.495 18.2446 139.41 17.6348C139.278 16.6725 139.642 14.7932 140.89 14.7205C141.146 14.705 141.232 15.0718 141.018 15.1909H141.02ZM121.357 22.9858C120.191 22.7834 119.416 21.3459 119.355 20.2835C119.318 19.6618 119.5 18.9627 119.871 18.4554C120.036 18.2291 120.469 17.8659 120.731 18.1052C120.777 17.9873 120.88 17.8897 121.039 17.8754C122.368 17.7587 122.956 19.5344 123.073 20.5527C123.192 21.5948 122.757 23.23 121.358 22.987L121.357 22.9858ZM125.609 15.9603C125.601 16.0306 125.565 16.0961 125.51 16.1401C125.454 16.1842 125.382 16.2056 125.311 16.1985C125.24 16.1914 125.174 16.1556 125.129 16.0996C125.085 16.0449 125.063 15.9734 125.071 15.9031C125.093 15.7042 125.045 15.4934 124.941 15.3219C124.837 15.1504 124.673 15.0087 124.485 14.9325C124.22 14.8265 123.89 14.8503 123.643 14.9932C123.487 15.0838 123.355 15.2231 123.274 15.3827C123.192 15.5423 123.159 15.7281 123.178 15.9055C123.186 15.9817 123.162 16.058 123.11 16.1139C123.059 16.1711 122.985 16.2033 122.907 16.2021C122.768 16.1997 122.654 16.0949 122.642 15.9591C122.612 15.678 122.663 15.3934 122.792 15.1409C122.921 14.8884 123.122 14.6776 123.368 14.5347C123.766 14.3037 124.26 14.2668 124.687 14.4394C124.986 14.5597 125.238 14.7741 125.404 15.0468C125.569 15.3208 125.641 15.6435 125.607 15.9603H125.609ZM125.872 9.79467C125.712 10.7891 124.957 11.655 123.901 11.724C122.928 11.7872 122.025 10.9821 122.118 9.99594C122.2 9.11939 122.897 7.98202 123.879 7.96653C124.211 7.96177 124.225 8.39647 123.952 8.50128C123.387 8.71923 123.028 9.20276 122.874 9.77442C122.697 10.4271 123.107 11.0559 123.832 11.0321C124.493 11.0095 124.976 10.4747 125.136 9.87565C125.267 9.38617 125.25 8.44292 124.538 8.44768C124.079 8.45007 124.08 7.74025 124.538 7.74382C125.63 7.75454 126.019 8.87643 125.872 9.79348V9.79467ZM132.102 16.975C131.952 17.455 131.621 17.8694 131.182 18.1243C130.699 18.4054 130.102 18.4828 129.563 18.3029C129.258 18.2017 128.984 18.0231 128.769 17.7872C128.555 17.5514 128.403 17.262 128.333 16.9524C128.315 16.875 128.333 16.7928 128.381 16.7297C128.43 16.6666 128.506 16.6272 128.586 16.6249C128.718 16.6201 128.833 16.7094 128.861 16.8369C128.91 17.056 129.019 17.2644 129.17 17.4312C129.322 17.5979 129.521 17.7277 129.735 17.7992C130.112 17.9242 130.559 17.8706 130.909 17.667C131.228 17.4812 131.478 17.1679 131.588 16.8178C131.606 16.7463 131.653 16.6868 131.718 16.6511C131.783 16.6153 131.859 16.607 131.93 16.6296C132.001 16.6511 132.059 16.7011 132.093 16.7666C132.126 16.8321 132.129 16.9083 132.104 16.9774L132.102 16.975ZM129.329 16.108C129.326 16.0151 129.345 15.9282 129.389 15.8472C129.416 15.7638 129.463 15.6911 129.529 15.6304C129.591 15.5649 129.664 15.5185 129.749 15.4911C129.831 15.4482 129.919 15.4291 130.012 15.4327C130.135 15.4327 130.251 15.4637 130.357 15.5244C130.403 15.5601 130.45 15.5947 130.495 15.6304C130.58 15.715 130.639 15.8138 130.671 15.9282C130.68 15.9877 130.688 16.0472 130.695 16.108C130.699 16.2009 130.68 16.2878 130.636 16.3688C130.609 16.4522 130.562 16.5248 130.495 16.5856C130.434 16.6511 130.361 16.6975 130.276 16.7249C130.194 16.7678 130.108 16.7868 130.014 16.7833C129.891 16.7833 129.775 16.7523 129.669 16.6916C129.623 16.6558 129.576 16.6213 129.531 16.5856C129.446 16.501 129.387 16.4022 129.355 16.2878L129.331 16.108H129.329ZM132.858 7.75454C132.556 7.7867 132.285 7.63664 131.998 7.5628C131.687 7.48181 131.368 7.42941 131.047 7.41035C130.438 7.37462 129.82 7.5354 129.219 7.48062C129.037 7.46395 128.895 7.23528 129.057 7.09355C129.572 6.64337 130.385 6.55405 131.047 6.55166C131.664 6.54928 132.714 6.5862 133.143 7.07212C133.385 7.34723 133.209 7.71643 132.858 7.75454ZM134.073 7.87007C134.05 7.84625 134.026 7.82362 134.007 7.79623C133.992 7.77479 133.987 7.76645 133.986 7.76407C133.93 7.68785 133.875 7.62949 133.879 7.52707C133.883 7.39963 133.983 7.31388 134.101 7.2853C134.244 7.25195 134.125 7.28887 134.196 7.26625C134.232 7.25553 134.268 7.25076 134.305 7.24719C134.483 7.19121 134.678 7.25314 134.813 7.38415C134.934 7.50206 134.966 7.69023 134.901 7.84267C134.832 8.00226 134.685 8.09159 134.513 8.10111C134.33 8.11064 134.165 8.01775 134.073 7.87007ZM134.415 15.9591C134.385 15.678 134.437 15.3934 134.566 15.1409C134.695 14.8884 134.896 14.6776 135.141 14.5347C135.54 14.3037 136.033 14.2668 136.46 14.4394C136.759 14.5597 137.011 14.7741 137.177 15.0468C137.342 15.3208 137.414 15.6435 137.381 15.9603C137.373 16.0306 137.337 16.0961 137.282 16.1401C137.227 16.1854 137.154 16.2056 137.083 16.1985C137.012 16.1914 136.946 16.1556 136.901 16.0996C136.857 16.0449 136.836 15.9734 136.843 15.9031C136.865 15.7042 136.818 15.4934 136.713 15.3219C136.61 15.1504 136.445 15.0087 136.257 14.9325C135.992 14.8265 135.662 14.8503 135.416 14.9932C135.261 15.0838 135.128 15.2231 135.047 15.3827C134.967 15.5423 134.932 15.7281 134.951 15.9055C134.96 15.9817 134.935 16.058 134.884 16.1139C134.832 16.1711 134.758 16.2033 134.681 16.2021C134.543 16.1997 134.428 16.0949 134.416 15.9591H134.415ZM137.935 23.3348C137.71 24.2149 136.813 24.8747 135.889 24.7354C134.945 24.5936 134.343 23.7064 134.55 22.7881C134.705 22.0938 135.5 21.1184 136.303 21.5221C136.357 21.3625 136.51 21.2327 136.722 21.2815C137.653 21.4959 138.165 22.4332 137.934 23.3336L137.935 23.3348Z" fill="white"/>
<path d="M121.038 18.57C120.89 18.5831 120.791 18.5164 120.741 18.4199C120.656 18.5021 120.532 18.5724 120.484 18.6236C120.183 18.9439 120.071 19.4894 120.052 19.911C120.013 20.7447 120.36 21.5545 121.035 22.0667C121.451 22.3823 121.915 22.3775 122.205 21.8987C122.43 21.5283 122.426 21.0436 122.383 20.628C122.314 19.9622 121.938 18.4866 121.036 18.57H121.038Z" fill="white"/>
<path d="M136.536 21.9583C136.414 21.9309 136.342 21.8594 136.307 21.7725C135.728 21.9201 135.281 22.3048 135.194 22.917C135.113 23.4851 135.435 23.99 136.032 24.0555C137.246 24.1901 137.842 22.256 136.537 21.9571L136.536 21.9583Z" fill="white"/>
<path d="M166.239 15.1912C165.52 15.595 165.273 16.5763 165.315 17.3445C165.338 17.7613 165.469 18.1865 165.739 18.5128C166.041 18.8773 166.337 18.8796 166.776 18.8796C166.964 18.8796 167.075 19.0416 167.06 19.2C167.129 18.7343 167.181 18.2687 167.2 17.8078C167.206 17.6684 167.208 17.5291 167.208 17.3897C167.208 16.8157 167.159 16.2428 167.067 15.6736C166.611 13.0499 165.574 10.4321 163.668 8.52775C161.929 6.78775 159.533 5.75637 157.087 5.44791C156.548 5.38003 156.001 5.34668 155.452 5.34668C153.584 5.34668 151.684 5.73136 149.986 6.44356C147.622 7.43445 145.838 9.16968 144.712 11.4492C143.787 13.3214 143.256 15.3722 143.256 17.4338C143.256 18.1448 143.318 18.857 143.451 19.5644C143.863 21.7749 144.752 23.8662 146.384 25.4431C148.687 27.6702 151.948 28.7373 155.189 28.7373C156.667 28.7373 158.14 28.5158 159.515 28.0834C161.607 27.4248 163.55 26.2255 164.902 24.5093C166.075 23.0206 166.771 21.1353 167.057 19.2369C167.046 19.287 167.024 19.3358 166.986 19.3763C166.58 19.8098 165.886 19.5692 165.482 19.2488C164.988 18.857 164.717 18.2449 164.633 17.6351C164.501 16.6728 164.864 14.7934 166.112 14.7208C166.369 14.7053 166.454 15.0721 166.241 15.1912H166.239ZM146.576 22.9861C145.41 22.7836 144.635 21.3461 144.574 20.2838C144.537 19.6621 144.718 18.963 145.089 18.4557C145.254 18.2294 145.687 17.8661 145.949 18.1055C145.995 17.9876 146.097 17.8899 146.256 17.8757C147.586 17.7589 148.174 19.5347 148.291 20.5529C148.41 21.595 147.975 23.2302 146.576 22.9873V22.9861ZM150.828 15.9606C150.82 16.0308 150.784 16.0963 150.729 16.1404C150.673 16.1857 150.601 16.2059 150.53 16.1988C150.459 16.1916 150.393 16.1559 150.348 16.0999C150.304 16.0451 150.282 15.9737 150.29 15.9034C150.312 15.7045 150.264 15.4937 150.16 15.3222C150.057 15.1507 149.892 15.009 149.704 14.9328C149.439 14.8268 149.109 14.8506 148.862 14.9935C148.706 15.084 148.574 15.2234 148.493 15.383C148.413 15.5426 148.378 15.7283 148.397 15.9058C148.405 15.982 148.381 16.0582 148.329 16.1142C148.278 16.1714 148.204 16.2035 148.127 16.2023C147.989 16.2 147.874 16.0952 147.862 15.9594C147.832 15.6783 147.885 15.3937 148.014 15.1412C148.143 14.8887 148.344 14.6779 148.59 14.535C148.988 14.3039 149.481 14.267 149.909 14.4397C150.207 14.56 150.459 14.7744 150.625 15.0471C150.792 15.321 150.864 15.6438 150.829 15.9606H150.828ZM151.091 9.79494C150.931 10.7894 150.176 11.6552 149.12 11.7243C148.146 11.7874 147.244 10.9823 147.337 9.99622C147.419 9.11966 148.116 7.98229 149.098 7.96681C149.43 7.96204 149.444 8.39675 149.171 8.50155C148.606 8.7195 148.249 9.20303 148.093 9.7747C147.917 10.4273 148.326 11.0562 149.052 11.0324C149.712 11.0097 150.196 10.475 150.355 9.87593C150.486 9.38644 150.469 8.44319 149.757 8.44796C149.298 8.45034 149.299 7.74052 149.757 7.7441C150.849 7.75482 151.238 8.87671 151.091 9.79375V9.79494ZM157.321 16.9753C157.171 17.4552 156.84 17.8697 156.401 18.1246C155.918 18.4056 155.321 18.483 154.782 18.3032C154.477 18.202 154.203 18.0233 153.988 17.7875C153.774 17.5517 153.622 17.2623 153.552 16.9527C153.534 16.8752 153.552 16.7931 153.601 16.7299C153.649 16.6668 153.725 16.6275 153.805 16.6251C153.937 16.6204 154.052 16.7097 154.079 16.8371C154.128 17.0563 154.237 17.2647 154.388 17.4314C154.54 17.5982 154.739 17.728 154.953 17.7994C155.33 17.9245 155.777 17.8709 156.126 17.6672C156.446 17.4814 156.696 17.1682 156.806 16.8181C156.824 16.7466 156.871 16.6871 156.936 16.6513C157.001 16.6156 157.077 16.6073 157.148 16.6299C157.219 16.6513 157.277 16.7014 157.309 16.7669C157.342 16.8324 157.347 16.9086 157.32 16.9777L157.321 16.9753ZM154.549 16.1083C154.545 16.0154 154.564 15.9284 154.608 15.8474C154.635 15.7641 154.682 15.6914 154.748 15.6307C154.81 15.5652 154.883 15.5187 154.968 15.4913C155.05 15.4485 155.136 15.4294 155.23 15.433C155.353 15.433 155.469 15.4639 155.575 15.5247C155.621 15.5604 155.668 15.595 155.713 15.6307C155.798 15.7152 155.857 15.8141 155.889 15.9284C155.898 15.988 155.905 16.0475 155.913 16.1083C155.917 16.2012 155.898 16.2881 155.854 16.3691C155.827 16.4524 155.78 16.5251 155.713 16.5858C155.652 16.6513 155.578 16.6978 155.493 16.7252C155.411 16.7681 155.324 16.7871 155.23 16.7835C155.107 16.7835 154.992 16.7526 154.886 16.6918C154.84 16.6561 154.793 16.6216 154.747 16.5858C154.663 16.5013 154.604 16.4024 154.571 16.2881L154.547 16.1083H154.549ZM158.077 7.75482C157.776 7.78697 157.504 7.63691 157.217 7.56307C156.906 7.48208 156.587 7.42968 156.266 7.41063C155.657 7.3749 155.039 7.53568 154.438 7.48089C154.256 7.46422 154.114 7.23555 154.276 7.09383C154.791 6.64364 155.604 6.55432 156.267 6.55194C156.883 6.54956 157.935 6.58648 158.363 7.07239C158.605 7.3475 158.43 7.7167 158.078 7.75482H158.077ZM159.292 7.87034C159.269 7.84652 159.245 7.82389 159.226 7.7965C159.214 7.77863 159.208 7.7703 159.207 7.76673C159.15 7.68931 159.094 7.63095 159.098 7.52853C159.103 7.4011 159.202 7.31535 159.32 7.28677C159.463 7.25342 159.344 7.29034 159.415 7.26771C159.451 7.25699 159.487 7.25223 159.525 7.24865C159.702 7.19268 159.897 7.25461 160.032 7.38562C160.153 7.50352 160.185 7.69169 160.12 7.84414C160.051 8.00373 159.904 8.09305 159.732 8.10258C159.549 8.11211 159.384 8.01921 159.292 7.87153V7.87034ZM159.634 15.9594C159.604 15.6783 159.656 15.3937 159.785 15.1412C159.914 14.8887 160.115 14.6779 160.36 14.535C160.758 14.3039 161.252 14.267 161.679 14.4397C161.978 14.56 162.231 14.7744 162.396 15.0471C162.561 15.3198 162.633 15.6438 162.6 15.9606C162.593 16.0308 162.556 16.0963 162.501 16.1404C162.446 16.1857 162.373 16.2059 162.302 16.1988C162.231 16.1916 162.165 16.1559 162.12 16.0999C162.076 16.0451 162.054 15.9737 162.063 15.9034C162.084 15.7045 162.037 15.4937 161.932 15.3222C161.828 15.1507 161.664 15.009 161.476 14.9328C161.211 14.8268 160.881 14.8506 160.634 14.9935C160.479 15.084 160.346 15.2234 160.265 15.383C160.183 15.5426 160.15 15.7283 160.169 15.9058C160.177 15.982 160.153 16.0582 160.102 16.1142C160.05 16.1714 159.976 16.2035 159.898 16.2023C159.759 16.2 159.645 16.0952 159.633 15.9594H159.634ZM163.154 23.335C162.93 24.2152 162.032 24.875 161.109 24.7356C160.164 24.5939 159.563 23.7066 159.769 22.7884C159.924 22.0941 160.719 21.1187 161.522 21.5224C161.576 21.3628 161.729 21.233 161.942 21.2818C162.873 21.4962 163.384 22.4335 163.154 23.3339V23.335Z" fill="white"/>
<path d="M146.257 18.57C146.108 18.5831 146.01 18.5164 145.96 18.4199C145.876 18.5021 145.752 18.5724 145.704 18.6236C145.403 18.9439 145.291 19.4894 145.271 19.911C145.234 20.7447 145.58 21.5545 146.254 22.0667C146.671 22.3823 147.135 22.3775 147.425 21.8987C147.649 21.5283 147.645 21.0436 147.603 20.628C147.535 19.9622 147.158 18.4866 146.257 18.57Z" fill="white"/>
<path d="M161.754 21.9583C161.633 21.9309 161.56 21.8594 161.525 21.7725C160.946 21.9201 160.499 22.3048 160.412 22.917C160.333 23.4851 160.653 23.99 161.251 24.0555C162.465 24.1901 163.06 22.256 161.755 21.9571L161.754 21.9583Z" fill="white"/>
</g>
<defs>
<clipPath id="clip0_284_297">
<rect width="186.693" height="34.1641" fill="white" transform="translate(0.556641 0.699219)"/>
</clipPath>
</defs>
</svg>
