<svg id="Layer_2" xmlns="http://www.w3.org/2000/svg" viewBox="0 0 383.25 66.5"><defs><style>.cls-1{fill:#fff;}</style></defs><g id="Layer_1-2"><g><g><path class="cls-1" d="M86.51,51.71l-.7,.9c-.65-.62-1.52-.99-2.56-.99-1.78,0-3.05,1.29-3.05,3.16s1.27,3.18,3.05,3.18c1.13,0,2.05-.39,2.66-1.11l.73,.78c-.76,.93-1.95,1.48-3.44,1.48-2.5,0-4.25-1.77-4.25-4.33s1.78-4.33,4.25-4.33c1.38-.02,2.52,.45,3.31,1.27"/><path class="cls-1" d="M96.38,54.76c0,2.58-1.81,4.35-4.35,4.35s-4.35-1.77-4.35-4.35,1.81-4.32,4.35-4.32,4.35,1.76,4.35,4.32m-7.43,.02c0,1.89,1.29,3.19,3.08,3.19s3.08-1.3,3.08-3.19-1.29-3.18-3.08-3.18-3.08,1.3-3.08,3.18"/><path class="cls-1" d="M106.47,53.76v5.29h-1.27v-4.95c0-1.52-.91-2.41-2.43-2.41-1.69,.02-2.74,1.12-2.88,2.76v4.61h-1.27v-8.59h1.27v1.89c.6-1.3,1.76-1.92,3.33-1.94,2.05,0,3.26,1.27,3.26,3.34"/><path class="cls-1" d="M116,51.71l-.7,.9c-.65-.62-1.52-.99-2.56-.99-1.78,0-3.05,1.29-3.05,3.16s1.27,3.18,3.05,3.18c1.12,0,2.05-.39,2.66-1.11l.73,.78c-.77,.93-1.96,1.48-3.44,1.48-2.49,0-4.25-1.77-4.25-4.33s1.78-4.33,4.25-4.33c1.39-.02,2.53,.45,3.31,1.27"/><path class="cls-1" d="M125.43,55.26h-7.01c.23,1.68,1.45,2.74,3.11,2.74,1.06,0,1.99-.37,2.66-1.08l.7,.75c-.81,.92-2.02,1.43-3.45,1.43-2.52,0-4.27-1.77-4.27-4.33s1.76-4.33,4.25-4.33c2.77-.02,4.14,1.91,4.01,4.82m-1.14-1.04c-.08-1.64-1.19-2.69-2.87-2.69s-2.8,1.06-3,2.69h5.87Z"/><path class="cls-1" d="M128.88,52.38c.57-1.25,1.63-1.94,3.08-1.96v1.29c-1.81-.03-2.93,1.09-3.08,2.79v4.56h-1.27v-8.59h1.27v1.91Z"/><path class="cls-1" d="M138.11,58.47c-.6,.4-1.25,.63-1.94,.65-1.25,0-2.19-.75-2.19-2.44v-4.9h-1.24v-1.03h1.24v-2.26h1.25v2.26h2.72s0,1.03,0,1.03h-2.72v4.68c0,1.04,.41,1.44,1.14,1.44,.44,0,.9-.15,1.37-.44l.36,1.03Z"/><path class="cls-1" d="M145.05,51.2l-.49,1.01c-.67-.42-1.53-.7-2.33-.7-.96,0-1.69,.34-1.69,1.14,0,1.9,4.79,.93,4.79,4.01,0,1.7-1.5,2.44-3.14,2.44-1.22,0-2.48-.42-3.29-1.21l.49-.96c.73,.68,1.84,1.09,2.85,1.09s1.82-.38,1.84-1.22c.05-2.07-4.76-1.01-4.74-4.06,0-1.65,1.42-2.33,2.98-2.33,1.03,0,2.02,.29,2.74,.78"/><path class="cls-1" d="M166.93,55.26h-7.01c.23,1.68,1.45,2.74,3.11,2.74,1.06,0,1.99-.37,2.66-1.08l.7,.75c-.81,.92-2.02,1.43-3.45,1.43-2.52,0-4.27-1.77-4.27-4.33s1.76-4.33,4.25-4.33c2.77-.02,4.14,1.91,4.01,4.82m-1.14-1.04c-.08-1.64-1.19-2.69-2.87-2.69s-2.8,1.06-3,2.69h5.87Z"/><polygon class="cls-1" points="170.75 59.06 167.35 50.47 168.7 50.47 171.44 57.74 174.16 50.47 175.45 50.47 172.07 59.06 170.75 59.06"/><path class="cls-1" d="M184.07,55.26h-7.01c.23,1.68,1.45,2.74,3.11,2.74,1.06,0,1.99-.37,2.66-1.08l.7,.75c-.81,.92-2.02,1.43-3.45,1.43-2.52,0-4.27-1.77-4.27-4.33s1.76-4.33,4.25-4.33c2.77-.02,4.14,1.91,4.01,4.82m-1.14-1.04c-.08-1.64-1.19-2.69-2.87-2.69s-2.8,1.06-3,2.69h5.87Z"/><path class="cls-1" d="M194.1,53.76v5.29h-1.27v-4.95c0-1.52-.91-2.41-2.43-2.41-1.7,.02-2.74,1.12-2.88,2.76v4.61h-1.27v-8.59h1.27v1.89c.6-1.3,1.76-1.92,3.32-1.94,2.05,0,3.26,1.27,3.26,3.34"/><path class="cls-1" d="M201.37,58.47c-.6,.4-1.25,.63-1.94,.65-1.26,0-2.19-.75-2.19-2.44v-4.9h-1.24v-1.03h1.24v-2.26h1.26v2.26h2.72s0,1.03,0,1.03h-2.72v4.68c0,1.04,.41,1.44,1.14,1.44,.44,0,.9-.15,1.37-.44l.36,1.03Z"/><path class="cls-1" d="M208.31,51.2l-.49,1.01c-.67-.42-1.53-.7-2.33-.7-.96,0-1.7,.34-1.7,1.14,0,1.9,4.79,.93,4.79,4.01,0,1.7-1.5,2.44-3.14,2.44-1.22,0-2.48-.42-3.29-1.21l.49-.96c.73,.68,1.84,1.09,2.85,1.09s1.83-.38,1.84-1.22c.05-2.07-4.76-1.01-4.74-4.06,0-1.65,1.42-2.33,2.98-2.33,1.03,0,2.02,.29,2.74,.78"/><path class="cls-1" d="M236.98,53.76v5.29h-1.27v-4.95c0-1.53-.89-2.43-2.38-2.43-1.78,.05-2.8,1.32-2.8,3.16v4.22h-1.29v-4.95c0-1.53-.88-2.43-2.38-2.43-1.76,.05-2.82,1.32-2.82,3.16v4.22h-1.25v-8.59h1.25v1.94c.57-1.34,1.73-1.97,3.27-1.99,1.62,0,2.72,.83,3.08,2.25,.54-1.51,1.74-2.23,3.39-2.25,2,0,3.19,1.27,3.19,3.34"/><path class="cls-1" d="M245.13,57.74c-.69,.93-1.78,1.38-3.14,1.38-1.78,0-2.92-1.14-2.92-2.62s1.19-2.45,3.21-2.46h2.82v-.51c0-1.25-.78-2-2.3-2-.94,0-1.83,.36-2.72,.98l-.54-.93c1.11-.73,2.04-1.16,3.5-1.16,2.12,0,3.29,1.13,3.31,2.97l.02,5.67h-1.24v-1.32Zm-.02-1.65v-1.03h-2.67c-1.43,0-2.19,.44-2.19,1.39s.77,1.56,1.97,1.56c1.45,0,2.56-.73,2.88-1.92"/><path class="cls-1" d="M250.47,52.38c.57-1.25,1.63-1.94,3.08-1.96v1.29c-1.81-.03-2.93,1.09-3.08,2.79v4.56h-1.27v-8.59h1.27v1.91Z"/><polygon class="cls-1" points="256.61 56.6 256.61 59.06 255.34 59.06 255.34 46.97 256.61 46.97 256.61 54.87 261.03 50.47 262.53 50.47 259.32 53.79 262.87 59.06 261.36 59.06 258.42 54.72 256.61 56.6"/><path class="cls-1" d="M271.62,55.26h-7.01c.23,1.68,1.45,2.74,3.11,2.74,1.06,0,1.99-.37,2.66-1.08l.7,.75c-.82,.92-2.02,1.43-3.46,1.43-2.53,0-4.27-1.77-4.27-4.33s1.76-4.33,4.25-4.33c2.77-.02,4.14,1.91,4.01,4.82m-1.14-1.04c-.08-1.64-1.19-2.69-2.87-2.69s-2.8,1.06-3,2.69h5.87Z"/><path class="cls-1" d="M278.23,58.47c-.6,.4-1.25,.63-1.94,.65-1.26,0-2.18-.75-2.18-2.44v-4.9h-1.24v-1.03h1.24v-2.26h1.25v2.26h2.72s0,1.03,0,1.03h-2.72v4.68c0,1.04,.41,1.44,1.14,1.44,.44,0,.9-.15,1.37-.44l.36,1.03Z"/><path class="cls-1" d="M281.61,48.01c0,.5-.36,.88-.83,.88s-.83-.38-.83-.88,.36-.88,.83-.88,.83,.38,.83,.88m-1.45,2.46h1.26v8.59h-1.26v-8.59Z"/><path class="cls-1" d="M292.36,53.76v5.29h-1.27v-4.95c0-1.52-.91-2.41-2.43-2.41-1.7,.02-2.74,1.12-2.88,2.76v4.61h-1.27v-8.59h1.27v1.89c.6-1.3,1.76-1.92,3.32-1.94,2.05,0,3.26,1.27,3.26,3.34"/><path class="cls-1" d="M302.67,58.16c0,2.51-1.71,4.09-4.32,4.09-1.35-.02-2.48-.46-3.52-1.24l.59-.98c.85,.7,1.74,1.08,2.88,1.09,1.87,0,3.09-1.14,3.09-2.93v-1.3c-.6,1.14-1.71,1.79-3.16,1.79-2.32,0-3.91-1.71-3.91-4.16s1.58-4.09,3.88-4.11c1.47,0,2.58,.65,3.19,1.8v-1.75h1.27v7.69Zm-1.27-3.59c0-1.79-1.22-3.05-2.93-3.05s-2.93,1.27-2.95,3.05c.01,1.76,1.22,3.03,2.95,3.03s2.93-1.27,2.93-3.03"/></g><path class="cls-1" d="M93.52,41.64v-13.11c0-2.99-1.56-3.92-3.97-3.92-2.23,0-3.97,1.25-4.9,2.5v14.53h-5.71V11.91h5.71v10.97c1.38-1.6,4.01-3.3,7.53-3.3,4.73,0,7,2.59,7,6.78v15.29h-5.66Zm15.6-21.53h-5.66v21.53h5.66V20.11Zm5.44,16.14v-11.19h-3.56v-4.95h3.56v-5.89h5.66v5.89h4.37v4.95h-4.37v9.67c0,1.38,.71,2.41,1.96,2.41,.85,0,1.65-.31,1.96-.67l1.2,4.32c-.85,.76-2.36,1.38-4.72,1.38-3.97,0-6.06-2.05-6.06-5.93m39.27,5.39v-13.6c0-2.01-.89-3.43-3.21-3.43-2.01,0-3.66,1.34-4.46,2.5v14.53h-5.71v-13.6c0-2.01-.89-3.43-3.21-3.43-1.96,0-3.61,1.34-4.46,2.5v14.53h-5.66V20.11h5.66v2.76c.94-1.25,3.75-3.3,7.04-3.3s5.22,1.47,5.97,3.88c1.25-1.92,4.1-3.88,7.4-3.88,3.97,0,6.33,2.1,6.33,6.51v15.56h-5.71Zm24.78,0v-2.76c-1.7,2.14-4.01,3.3-6.64,3.3-5.39,0-9.54-4.1-9.54-11.32s4.06-11.28,9.54-11.28c2.54,0,4.9,1.07,6.64,3.3v-2.76h5.71v21.53h-5.71Zm0-6.95v-7.58c-.94-1.43-2.99-2.5-4.86-2.5-3.25,0-5.48,2.54-5.48,6.24s2.23,6.29,5.48,6.29c1.87,0,3.92-1.03,4.86-2.45m24.51,6.95v-13.02c0-2.99-1.56-4.01-3.97-4.01-2.23,0-3.92,1.25-4.9,2.5v14.53h-5.66V20.11h5.66v2.76c1.38-1.6,4.06-3.3,7.53-3.3,4.77,0,7.04,2.68,7.04,6.87v15.2h-5.71Zm-50.44,12.82c0,.49-.32,.85-.77,.85s-.77-.36-.77-.85,.33-.82,.77-.82,.77,.34,.77,.82m63.26,0c0,.49-.33,.85-.76,.85s-.76-.36-.76-.85,.32-.82,.76-.82,.76,.34,.76,.82M47.87,35.8V14.6h-7.58v14.69h-14.77V14.61h-7.54v10H9.21c-.86,2.37-1.37,4.89-1.49,7.52h10.26s0,19.78,0,19.78h7.54v-16.28h14.77v16.27h7.58v-8.58h8.89c1.02-2.35,1.69-4.87,1.96-7.52h-10.84Z"/><path class="cls-1" d="M102.93,14.4c0-1.87,1.51-3.34,3.34-3.34s3.39,1.47,3.39,3.34-1.51,3.39-3.39,3.39-3.34-1.52-3.34-3.39m117.89,27.77c5.97,0,9.36-2.9,9.36-6.87,0-8.69-12.79-6.02-12.79-9.18,0-1.2,1.34-2.1,3.39-2.1,2.63,0,5.08,1.16,6.37,2.5l2.28-4.01c-2.14-1.69-5.04-2.94-8.65-2.94-5.7,0-8.83,3.17-8.83,6.78,0,8.47,12.75,5.57,12.75,9.09,0,1.34-1.16,2.27-3.61,2.27-2.68,0-5.84-1.47-7.44-2.99l-2.45,4.1c2.27,2.1,5.88,3.35,9.63,3.35m22.36-.41c7.13,0,11.41-5.22,11.41-11.32s-4.28-11.28-11.41-11.28-11.37,5.17-11.37,11.28,4.28,11.32,11.37,11.32m0-5.04c-3.52,0-5.48-2.9-5.48-6.29s1.96-6.24,5.48-6.24,5.52,2.9,5.52,6.24-1.96,6.29-5.52,6.29m20.16,5.45c2.32,0,3.88-.63,4.73-1.38l-1.2-4.32c-.31,.36-1.12,.67-1.96,.67-1.25,0-1.96-1.03-1.96-2.41V11.91h-5.66v24.34c0,3.88,2.1,5.93,6.06,5.93m26.07-.54V20.11h-5.66v14.58c-.98,1.25-2.72,2.45-4.9,2.45-2.41,0-3.97-.98-3.97-3.97v-13.06h-5.66v15.29c0,4.19,2.23,6.78,6.95,6.78,3.52,0,6.11-1.65,7.58-3.26v2.72h5.66Zm11.5,.54c2.36,0,3.88-.63,4.73-1.38l-1.2-4.32c-.31,.36-1.12,.67-1.96,.67-1.25,0-1.96-1.03-1.96-2.41v-9.67h4.37v-4.95h-4.37v-5.89h-5.66v5.89h-3.57v4.95h3.57v11.19c0,3.88,2.09,5.93,6.06,5.93m9.32-24.38c1.87,0,3.39-1.52,3.39-3.39s-1.52-3.34-3.39-3.34-3.34,1.47-3.34,3.34,1.52,3.39,3.34,3.39m2.85,2.32h-5.66v21.53h5.66V20.11Zm14.26,22.07c7.13,0,11.41-5.22,11.41-11.32s-4.28-11.28-11.41-11.28-11.37,5.17-11.37,11.28,4.28,11.32,11.37,11.32m0-5.04c-3.52,0-5.48-2.9-5.48-6.29s1.96-6.24,5.48-6.24,5.53,2.9,5.53,6.24-1.96,6.29-5.53,6.29m34.54,4.5v-15.2c0-4.19-2.27-6.87-7.04-6.87-3.48,0-6.15,1.7-7.53,3.3v-2.76h-5.66v21.53h5.66v-14.53c.98-1.25,2.67-2.5,4.9-2.5,2.41,0,3.97,1.02,3.97,4.01v13.02h5.7Zm11.99,.54c5.97,0,9.36-2.9,9.36-6.87,0-8.69-12.79-6.02-12.79-9.18,0-1.2,1.34-2.1,3.39-2.1,2.63,0,5.08,1.16,6.38,2.5l2.27-4.01c-2.14-1.69-5.04-2.94-8.65-2.94-5.7,0-8.82,3.17-8.82,6.78,0,8.47,12.75,5.57,12.75,9.09,0,1.34-1.16,2.27-3.61,2.27-2.67,0-5.84-1.47-7.44-2.99l-2.45,4.1c2.27,2.1,5.88,3.35,9.63,3.35M35.86,.01c-.06,0-.91,0-1-.01V7.73c.09,0,.95,.01,1.01,.02,12.9,.9,22.37,11.37,22.94,24.37h7.73C65.96,14.85,53.04,.91,35.86,.01m-4.92,58.7c-12.19-1.1-21.91-10.75-23.11-22.91H.08c1.25,16.43,14.41,29.51,30.87,30.65v-7.75Zm25.84-15.4c-3.71,8.66-12.06,14.85-21.93,15.46v7.73c16.8-.79,30.35-14.03,31.61-30.71h-7.76c-.26,2.65-.94,5.17-1.96,7.51M9.21,24.61h.26s0,0,0,0h-.27c3.2-8.92,11.99-15.53,21.74-16.71V.12C14.37,1.66,.56,15.31,0,32.13H7.72c.12-2.63,.63-5.15,1.49-7.51"/></g></g></svg>