<svg width="31" height="31" viewBox="0 0 31 31" fill="none" xmlns="http://www.w3.org/2000/svg">
<path d="M9.11682 0C6.70117 0.0074328 4.38659 0.970339 2.67847 2.67847C0.970339 4.38659 0.0074328 6.70117 0 9.11682L0 21.8832C0.0074328 24.2988 0.970339 26.6134 2.67847 28.3215C4.38659 30.0297 6.70117 30.9926 9.11682 31H21.8832C24.2988 30.9926 26.6134 30.0297 28.3215 28.3215C30.0297 26.6134 30.9926 24.2988 31 21.8832V9.11682C30.9926 6.70117 30.0297 4.38659 28.3215 2.67847C26.6134 0.970339 24.2988 0.0074328 21.8832 0L9.11682 0ZM9.11682 2.81818H21.8832C23.5537 2.81818 25.1558 3.48179 26.337 4.66301C27.5182 5.84423 28.1818 7.44632 28.1818 9.11682V21.8832C28.1818 23.5537 27.5182 25.1558 26.337 26.337C25.1558 27.5182 23.5537 28.1818 21.8832 28.1818H9.11682C7.44632 28.1818 5.84423 27.5182 4.66301 26.337C3.48179 25.1558 2.81818 23.5537 2.81818 21.8832V9.11682C2.81818 7.44632 3.48179 5.84423 4.66301 4.66301C5.84423 3.48179 7.44632 2.81818 9.11682 2.81818ZM23.8277 5.90409C23.5729 5.90131 23.3231 5.97449 23.1101 6.11431C22.8971 6.25413 22.7305 6.45424 22.6317 6.68912C22.533 6.92399 22.5064 7.18297 22.5554 7.43301C22.6044 7.68305 22.7268 7.91282 22.907 8.09299C23.0872 8.27316 23.3169 8.39557 23.567 8.4446C23.817 8.49363 24.076 8.46705 24.3109 8.36825C24.5458 8.26946 24.7459 8.10293 24.8857 7.88992C25.0255 7.6769 25.0987 7.42706 25.0959 7.17227C25.0959 6.83593 24.9623 6.51336 24.7245 6.27553C24.4866 6.0377 24.1641 5.90409 23.8277 5.90409ZM15.5 7.04545C13.8278 7.04545 12.1932 7.5413 10.8029 8.4703C9.41256 9.3993 8.32892 10.7197 7.68902 12.2646C7.04911 13.8095 6.88169 15.5094 7.20791 17.1494C7.53413 18.7894 8.33934 20.2959 9.52173 21.4783C10.7041 22.6607 12.2106 23.4659 13.8506 23.7921C15.4906 24.1183 17.1905 23.9509 18.7354 23.311C20.2803 22.6711 21.6007 21.5874 22.5297 20.1971C23.4587 18.8068 23.9545 17.1722 23.9545 15.5C23.9545 13.2577 23.0638 11.1073 21.4783 9.52173C19.8927 7.9362 17.7423 7.04545 15.5 7.04545ZM15.5 9.86364C16.6148 9.86364 17.7045 10.1942 18.6314 10.8135C19.5583 11.4329 20.2807 12.3131 20.7073 13.3431C21.1339 14.373 21.2455 15.5063 21.0281 16.5996C20.8106 17.6929 20.2738 18.6973 19.4855 19.4855C18.6973 20.2738 17.6929 20.8106 16.5996 21.0281C15.5063 21.2455 14.373 21.1339 13.3431 20.7073C12.3131 20.2807 11.4329 19.5583 10.8135 18.6314C10.1942 17.7045 9.86364 16.6148 9.86364 15.5C9.86364 14.0051 10.4575 12.5715 11.5145 11.5145C12.5715 10.4575 14.0051 9.86364 15.5 9.86364Z" fill="#FF0086"/>
</svg>
