<svg width="32" height="32" viewBox="0 0 32 32" fill="none" xmlns="http://www.w3.org/2000/svg">
<path d="M9.33349 0.5C6.91785 0.507433 4.60327 1.47034 2.89514 3.17847C1.18701 4.88659 0.224108 7.20117 0.216675 9.61682L0.216675 22.3832C0.224108 24.7988 1.18701 27.1134 2.89514 28.8215C4.60327 30.5297 6.91785 31.4926 9.33349 31.5H22.0999C24.5155 31.4926 26.8301 30.5297 28.5382 28.8215C30.2463 27.1134 31.2092 24.7988 31.2167 22.3832V9.61682C31.2092 7.20117 30.2463 4.88659 28.5382 3.17847C26.8301 1.47034 24.5155 0.507433 22.0999 0.5L9.33349 0.5ZM9.33349 3.31818H22.0999C23.7704 3.31818 25.3724 3.98179 26.5537 5.16301C27.7349 6.34423 28.3985 7.94632 28.3985 9.61682V22.3832C28.3985 24.0537 27.7349 25.6558 26.5537 26.837C25.3724 28.0182 23.7704 28.6818 22.0999 28.6818H9.33349C7.66299 28.6818 6.06091 28.0182 4.87968 26.837C3.69846 25.6558 3.03486 24.0537 3.03486 22.3832V9.61682C3.03486 7.94632 3.69846 6.34423 4.87968 5.16301C6.06091 3.98179 7.66299 3.31818 9.33349 3.31818ZM24.0444 6.40409C23.7896 6.40131 23.5398 6.47449 23.3268 6.61431C23.1137 6.75413 22.9472 6.95424 22.8484 7.18912C22.7496 7.42399 22.723 7.68297 22.7721 7.93301C22.8211 8.18305 22.9435 8.41282 23.1237 8.59299C23.3039 8.77316 23.5336 8.89557 23.7837 8.9446C24.0337 8.99363 24.2927 8.96705 24.5276 8.86825C24.7624 8.76946 24.9625 8.60293 25.1024 8.38992C25.2422 8.1769 25.3154 7.92706 25.3126 7.67227C25.3126 7.33593 25.179 7.01336 24.9411 6.77553C24.7033 6.5377 24.3807 6.40409 24.0444 6.40409ZM15.7167 7.54545C14.0445 7.54545 12.4099 8.0413 11.0196 8.9703C9.62924 9.8993 8.5456 11.2197 7.90569 12.7646C7.26579 14.3095 7.09836 16.0094 7.42458 17.6494C7.7508 19.2894 8.55602 20.7959 9.73841 21.9783C10.9208 23.1607 12.4273 23.9659 14.0673 24.2921C15.7073 24.6183 17.4072 24.4509 18.9521 23.811C20.497 23.1711 21.8174 22.0874 22.7464 20.6971C23.6754 19.3068 24.1712 17.6722 24.1712 16C24.1712 13.7577 23.2805 11.6073 21.6949 10.0217C20.1094 8.4362 17.959 7.54545 15.7167 7.54545ZM15.7167 10.3636C16.8314 10.3636 17.9212 10.6942 18.8481 11.3135C19.775 11.9329 20.4974 12.8131 20.924 13.8431C21.3506 14.873 21.4622 16.0063 21.2447 17.0996C21.0273 18.1929 20.4904 19.1973 19.7022 19.9855C18.9139 20.7738 17.9096 21.3106 16.8163 21.5281C15.7229 21.7455 14.5896 21.6339 13.5597 21.2073C12.5298 20.7807 11.6495 20.0583 11.0302 19.1314C10.4109 18.2045 10.0803 17.1148 10.0803 16C10.0803 14.5051 10.6741 13.0715 11.7312 12.0145C12.7882 10.9575 14.2218 10.3636 15.7167 10.3636Z" fill="white"/>
</svg>
