<svg width="25" height="25" viewBox="0 0 25 25" fill="none" xmlns="http://www.w3.org/2000/svg">
<path d="M7.35227 0C5.40417 0.0059942 3.53757 0.782531 2.16005 2.16005C0.782531 3.53757 0.0059942 5.40417 0 7.35227L0 17.6477C0.0059942 19.5958 0.782531 21.4624 2.16005 22.8399C3.53757 24.2175 5.40417 24.994 7.35227 25H17.6477C19.5958 24.994 21.4624 24.2175 22.8399 22.8399C24.2175 21.4624 24.994 19.5958 25 17.6477V7.35227C24.994 5.40417 24.2175 3.53757 22.8399 2.16005C21.4624 0.782531 19.5958 0.0059942 17.6477 0L7.35227 0ZM7.35227 2.27273H17.6477C18.9949 2.27273 20.2869 2.80789 21.2395 3.76049C22.1921 4.71309 22.7273 6.00509 22.7273 7.35227V17.6477C22.7273 18.9949 22.1921 20.2869 21.2395 21.2395C20.2869 22.1921 18.9949 22.7273 17.6477 22.7273H7.35227C6.00509 22.7273 4.71309 22.1921 3.76049 21.2395C2.80789 20.2869 2.27273 18.9949 2.27273 17.6477V7.35227C2.27273 6.00509 2.80789 4.71309 3.76049 3.76049C4.71309 2.80789 6.00509 2.27273 7.35227 2.27273ZM19.2159 4.76136C19.0104 4.75912 18.809 4.81814 18.6372 4.9309C18.4654 5.04365 18.3311 5.20504 18.2514 5.39445C18.1717 5.58386 18.1503 5.79272 18.1898 5.99436C18.2294 6.19601 18.3281 6.3813 18.4734 6.52661C18.6187 6.67191 18.804 6.77062 19.0056 6.81016C19.2073 6.8497 19.4161 6.82826 19.6056 6.74859C19.795 6.66892 19.9563 6.53462 20.0691 6.36284C20.1819 6.19105 20.2409 5.98957 20.2386 5.78409C20.2386 5.51285 20.1309 5.25271 19.9391 5.06091C19.7473 4.86911 19.4872 4.76136 19.2159 4.76136ZM12.5 5.68182C11.1515 5.68182 9.83327 6.0817 8.71202 6.83089C7.59078 7.58008 6.71687 8.64493 6.20082 9.89079C5.68477 11.1367 5.54975 12.5076 5.81283 13.8302C6.07591 15.1528 6.72528 16.3676 7.67882 17.3212C8.63236 18.2747 9.84724 18.9241 11.1698 19.1872C12.4924 19.4503 13.8633 19.3152 15.1092 18.7992C16.3551 18.2831 17.4199 17.4092 18.1691 16.288C18.9183 15.1667 19.3182 13.8485 19.3182 12.5C19.3182 10.6917 18.5998 8.95747 17.3212 7.67882C16.0425 6.40016 14.3083 5.68182 12.5 5.68182ZM12.5 7.95455C13.399 7.95455 14.2778 8.22113 15.0253 8.72059C15.7728 9.22005 16.3554 9.92996 16.6995 10.7605C17.0435 11.5911 17.1335 12.505 16.9581 13.3868C16.7827 14.2685 16.3498 15.0784 15.7141 15.7141C15.0784 16.3498 14.2685 16.7827 13.3868 16.9581C12.505 17.1335 11.5911 17.0435 10.7605 16.6995C9.92996 16.3554 9.22005 15.7728 8.72059 15.0253C8.22113 14.2778 7.95455 13.399 7.95455 12.5C7.95455 11.2945 8.43344 10.1383 9.28588 9.28588C10.1383 8.43344 11.2945 7.95455 12.5 7.95455Z" fill="#D9D9D9"/>
</svg>
