<svg width="26" height="25" viewBox="0 0 26 25" fill="none" xmlns="http://www.w3.org/2000/svg">
<g clip-path="url(#clip0_284_227)">
<path fill-rule="evenodd" clip-rule="evenodd" d="M13 1.5625C10.0992 1.5625 7.3172 2.71484 5.26602 4.76602C3.21484 6.8172 2.0625 9.59919 2.0625 12.5C2.0625 15.4008 3.21484 18.1828 5.26602 20.234C7.3172 22.2852 10.0992 23.4375 13 23.4375C15.9008 23.4375 18.6828 22.2852 20.734 20.234C22.7852 18.1828 23.9375 15.4008 23.9375 12.5C23.9375 9.59919 22.7852 6.8172 20.734 4.76602C18.6828 2.71484 15.9008 1.5625 13 1.5625ZM13 25C9.68479 25 6.50537 23.683 4.16117 21.3388C1.81696 18.9946 0.5 15.8152 0.5 12.5C0.5 9.18479 1.81696 6.00537 4.16117 3.66117C6.50537 1.31696 9.68479 0 13 0C16.3152 0 19.4946 1.31696 21.8388 3.66117C24.183 6.00537 25.5 9.18479 25.5 12.5C25.5 15.8152 24.183 18.9946 21.8388 21.3388C19.4946 23.683 16.3152 25 13 25ZM18.4688 13.2812C18.676 13.2812 18.8747 13.1989 19.0212 13.0524C19.1677 12.9059 19.25 12.7072 19.25 12.5C19.25 12.2928 19.1677 12.0941 19.0212 11.9476C18.8747 11.8011 18.676 11.7188 18.4688 11.7188L9.41719 11.7188L12.7719 8.36563C12.9186 8.21893 13.001 8.01996 13.001 7.8125C13.001 7.60504 12.9186 7.40607 12.7719 7.25937C12.6252 7.11268 12.4262 7.03026 12.2188 7.03026C12.0113 7.03026 11.8123 7.11268 11.6656 7.25937L6.97812 11.9469C6.90537 12.0194 6.84765 12.1057 6.80826 12.2006C6.76888 12.2955 6.7486 12.3972 6.7486 12.5C6.7486 12.6028 6.76888 12.7045 6.80826 12.7994C6.84765 12.8943 6.90537 12.9806 6.97812 13.0531L11.6656 17.7406C11.8123 17.8873 12.0113 17.9697 12.2188 17.9697C12.4262 17.9697 12.6252 17.8873 12.7719 17.7406C12.9186 17.5939 13.001 17.395 13.001 17.1875C13.001 16.98 12.9186 16.7811 12.7719 16.6344L9.41719 13.2813L18.4688 13.2812Z" fill="white"/>
</g>
<defs>
<clipPath id="clip0_284_227">
<rect width="25" height="25" fill="white" transform="matrix(0 1 -1 0 25.5 0)"/>
</clipPath>
</defs>
</svg>
