<svg id="Layer_1" data-name="Layer 1" xmlns="http://www.w3.org/2000/svg" viewBox="0 0 1190.55 487.12"><defs><style>.cls-1{fill:#ee3486;}</style></defs><path class="cls-1" d="M154.19,228.52a18.2,18.2,0,0,1-.8-1.76l-1.75-4.35c-.7-1.84-1.35-3.62-2.21-5.36a31.94,31.94,0,0,0-2.54-4.5,26.28,26.28,0,0,0-2-2.56,31.5,31.5,0,0,0-3.86-3.94l-1.56-1.41c-.78-.7-2.54-2.2-3.76-3.46a22.08,22.08,0,0,1-3.07-3.55l-.73-1.2a11.39,11.39,0,0,1-1.17-5.88L142.06,183a8.63,8.63,0,0,1,8.54-1.1,23.76,23.76,0,0,1,4.49,2.13,33.32,33.32,0,0,1,4.78,3.47,18.14,18.14,0,0,1,2.55,2.9,8.71,8.71,0,0,1,1.58,6.15c-.35,3.14-2.44,6.22-5.78,8.45l-3.12,2.09,1.06,1.59a39,39,0,0,1,2.12,4.1c.75,1.8,1.39,3.45,2.1,5.42s1.38,3.45,2.07,4.83Zm-1-33.91a2.82,2.82,0,0,0-.67-.78s-1.37-1.24-1.86-1.75a5.3,5.3,0,0,0-2.77-1.29,4.55,4.55,0,0,0-2.94.66l-3.07,2.06c1.91,2.4,5,4.85,7.37,7l3.08-2.05a2.67,2.67,0,0,0,.86-3.87"/><path class="cls-1" d="M182.29,210.31s-.69-1.73-1.7-4.67a58.33,58.33,0,0,0-4.32-11.11,41.53,41.53,0,0,0-4.14-6c-1.62-1.94-3.4-3.78-5.09-5.61a34.76,34.76,0,0,1-4-5.3l-.26-.44a12.68,12.68,0,0,1-1.33-6.35l8.59-4.88a10.24,10.24,0,0,0,0,1.55,11.65,11.65,0,0,0,.82,3.63,10,10,0,0,0,.89,1.84,22.27,22.27,0,0,0,1.83,2.7c1.28,1.61,2.76,3.19,4.43,5a54.24,54.24,0,0,1,4.69,5.68,34.77,34.77,0,0,1,2,3.13,36.29,36.29,0,0,1,1.66,3.3c1.82,4.11,2.74,8.57,4.49,12.69Z"/><path class="cls-1" d="M212.88,194.4a18.25,18.25,0,0,1-1.4-2c-.85-1.22-1.88-3-3.07-5a42.5,42.5,0,0,0-4.23-5.91,36.58,36.58,0,0,0-5-4.76,23.43,23.43,0,0,1,1.28,2l1,2.05c.42.92.88,2,1.3,3.26a48.6,48.6,0,0,1,1.79,7,53.63,53.63,0,0,0,1.56,6.37l-9,4.19-.39-1.29-.81-3.57c-.27-1.34-.69-3.46-1.19-5.28a34.36,34.36,0,0,0-2-6.21,35.9,35.9,0,0,0-3.76-6.27c-1.51-2-3.25-4-4.79-5.92a24.75,24.75,0,0,1-3.52-5.32l-.32-.7a11.22,11.22,0,0,1-.47-6.6l9-4.18a6.07,6.07,0,0,0,.42,2.4l.32.84a13.42,13.42,0,0,0,3.11,4,48.31,48.31,0,0,0,6.47,4.87c2.64,1.73,4.28,2.86,6.12,4.25a23.4,23.4,0,0,0-1.45-1.93c-.91-1.19-2.29-2.8-3.77-4.64a26.43,26.43,0,0,1-3.64-5.41l-.3-.63a11.19,11.19,0,0,1-.57-6.83l9-4.19a9.63,9.63,0,0,0-.25,1.59,11.29,11.29,0,0,0,.29,3.8,12.36,12.36,0,0,0,.74,2.05,19.06,19.06,0,0,0,1.61,2.69,60.36,60.36,0,0,0,4.12,5.25,53.88,53.88,0,0,1,4.45,5.95,31.06,31.06,0,0,1,1.65,3.1c.53,1.15,1,2.34,1.46,3.6,1.55,4.7,2.06,9.59,3.22,13.13Z"/><path class="cls-1" d="M243.76,182.39l-1.07-1.78c-.77-1.29-1.34-2.38-2.39-4.31a54.14,54.14,0,0,0-3.05-5.3,53.1,53.1,0,0,0-3.5-4.6l.26.79a44.52,44.52,0,0,1,1.51,5.87c.35,2,.51,3.94.76,6.07a46.61,46.61,0,0,0,.78,5.52l-9.36,3.15-.25-1.33c-.16-.89-.31-1.92-.47-3.61-.19-1.35-.37-3.5-.66-5.36a41.79,41.79,0,0,0-1.41-6.38,40.66,40.66,0,0,0-3-6.66c-1.27-2.2-2.67-4.35-4-6.46a27.88,27.88,0,0,1-2.84-5.64l-.26-.78a12,12,0,0,1,0-6.53l9.42-3.17a12.74,12.74,0,0,0-.46,2.24,11.13,11.13,0,0,0,.6,5,24.65,24.65,0,0,0,2.69,5.42c1.08,1.79,2.17,3.44,3,4.79l-1.23-6.85a24.81,24.81,0,0,1-.09-6.29,19.58,19.58,0,0,1,2.23-6.54l9.73-3.26a14.7,14.7,0,0,0-1.46,3,18.48,18.48,0,0,0-1,6.59,45.82,45.82,0,0,0,1,7.4c.55,2.63.84,4.49,1.09,6.62l1.92,1.91a39.33,39.33,0,0,1,4.06,4.89,55.65,55.65,0,0,1,3.79,6.45,61.47,61.47,0,0,0,3.32,5.88Z"/><path class="cls-1" d="M258.77,177.7l-.25-2-.18-5c-.13-2.06-.18-4.08-.44-6.17-.16-1.33-.36-2.53-.59-3.59l-.47-1.85s-.36-1.36-.94-3.12a52.53,52.53,0,0,0-2-5.12s-.6-1.3-1.32-3a53,53,0,0,1-2-5.11l-.41-1.54-.29-1.63a16.55,16.55,0,0,1-.18-2.89,14.57,14.57,0,0,1,.45-2.72l24.16-5.29-.23,1a11.85,11.85,0,0,0-.32,2.42,16.81,16.81,0,0,0,.36,3.44,17.85,17.85,0,0,0,.55,1.9l-14.45,3.17s.44,1.4,1.13,3.08,1.61,3.76,2.22,5.06l12-2.63,1.31,3a43.82,43.82,0,0,1,1.67,5.19L266.49,157l.39,1.48a39.21,39.21,0,0,1,.8,5.44c.19,2,.27,3.92.36,6.12s.15,3.95.32,5.6Z"/><path class="cls-1" d="M288.68,171.66s0-1.87.17-5a58.72,58.72,0,0,0,.16-11.92,42.9,42.9,0,0,0-1.59-7.12c-.77-2.4-1.73-4.78-2.62-7.1a33.34,33.34,0,0,1-1.68-6.4l-.07-.51a12.5,12.5,0,0,1,1.14-6.39L294,126a11.81,11.81,0,0,0-.58,1.43,11.66,11.66,0,0,0-.6,3.68,9.51,9.51,0,0,0,.14,2,19.66,19.66,0,0,0,.68,3.18c.59,2,1.36,4,2.24,6.27a53.81,53.81,0,0,1,2.23,7c.29,1.24.51,2.44.67,3.64a36,36,0,0,1,.3,3.69c.14,4.48-.67,9-.59,13.45Z"/><path class="cls-1" d="M308.76,166.41a11.52,11.52,0,0,1-2.63-7.21c0-.76,0-1.53,0-2.3a6.59,6.59,0,0,0,.08-.89l9.94-.46-.19,2.74a2.94,2.94,0,0,0,3.19,2.92,4.34,4.34,0,0,0,4.24-3.71l0-.38c-.06-1.27-1-2.83-2.43-4.41a51.75,51.75,0,0,0-6.45-5.64c-2.33-1.86-4.84-3.66-6.84-5.55s-3.75-4-4.25-6.43a11.82,11.82,0,0,1-.2-1.46c-.14-3.12,1.53-5.5,4.31-7.41a23.17,23.17,0,0,1,11.14-3.39c3.76-.18,5.48,1.27,7,3.63a32.83,32.83,0,0,1,2.11,4.24,40.89,40.89,0,0,1,1.84,5.21l-9.1.42-.31-1.2a4.85,4.85,0,0,0-1.59-2.54,3.74,3.74,0,0,0-2.72-1c-1.53.07-2.83.84-2.76,2.43l.09.51c.58,2.84,6.15,6,11.37,9.92a39,39,0,0,1,6.38,5.64,9.93,9.93,0,0,1,2.38,5.7,8.16,8.16,0,0,1,0,1.21,14.25,14.25,0,0,1-5.32,9.05,16.3,16.3,0,0,1-9.9,3.84,11.93,11.93,0,0,1-9.35-3.52"/><path class="cls-1" d="M353.79,169l.37-2c.35-1.51.68-2.7,1.24-4.85a48.71,48.71,0,0,0,1.38-6.05,28.67,28.67,0,0,0,.47-3.8l0-1.72-7.39-.43,0,1a53.8,53.8,0,0,1-.73,6c-.44,2-.93,3.84-1.5,6s-1,3.83-1.21,5.48l-9.86-.57.37-2c.35-1.51.67-2.7,1.24-4.84s1-4,1.31-6.06a27.09,27.09,0,0,0,.47-3.8l0-1.72a24.14,24.14,0,0,0-.07-3.26c-.13-2-.41-3.85-.64-5.46l-.33-1.94c-.14-1-.47-3-.63-4.63a21.59,21.59,0,0,1-.14-4.09l.16-1.59a12.33,12.33,0,0,1,2.07-5.05l9.86.57A8.43,8.43,0,0,0,349.2,126a11.81,11.81,0,0,0-1.16,4.54l0,.57a28.85,28.85,0,0,0,.29,5.12c.26,1.93.61,3.8.84,5.22l7.39.42s-.09-.7-.34-1.93l-.69-4.64a30.77,30.77,0,0,1-.09-4.09,13.22,13.22,0,0,1,.16-1.58,12.62,12.62,0,0,1,2.08-5.05l9.93.57a10.12,10.12,0,0,0-.84,1.3,13.89,13.89,0,0,0-1.29,3.5l-.24,1.9c-.06,1,0,2.17.06,3.38.2,2.06.59,4.19,1,6.57a64.67,64.67,0,0,1,.86,7.33c.05,1.28,0,2.49,0,3.7a36.9,36.9,0,0,1-.4,3.68c-.77,4.49-2.35,8.61-3,13.1Z"/><path class="cls-1" d="M370.2,170.25l.52-2,1.66-4.7c.65-2,1.35-3.84,1.87-5.89.34-1.3.6-2.48.77-3.55l.25-1.9s.16-1.39.27-3.25a53.52,53.52,0,0,0,0-5.48s-.09-1.43-.1-3.31a50.3,50.3,0,0,1,0-5.49l.19-1.58.32-1.62a18.49,18.49,0,0,1,.91-2.76,12.51,12.51,0,0,1,1.42-2.36l24.4,4-.59.87a11.64,11.64,0,0,0-1.19,2.13,16.34,16.34,0,0,0-.93,3.34c-.11.69-.15,1.33-.19,2l-14.6-2.38s-.1,1.47-.08,3.28.11,4.09.2,5.52l12.14,2,.11,3.31a47.49,47.49,0,0,1-.37,5.43l-12.2-2-.18,1.51a40.35,40.35,0,0,1-1.26,5.36c-.58,2-1.19,3.74-1.92,5.82s-1.32,3.72-1.77,5.33Z"/><path class="cls-1" d="M398.53,175.19s.51-1.38,1.29-3,1.67-3.65,2.3-5c0,0,.7-1.53,1.43-3.44a45.32,45.32,0,0,0,1.55-4.66l.36-1.29s.32-1.37.62-3.2.53-3.82.71-5.42c0,0,.07-1.44.25-3.31.19-2.06.4-3.79.65-5.44l.37-1.55.51-1.58a12.84,12.84,0,0,1,2.73-4.86l23.83,6.61-.69.8a10.8,10.8,0,0,0-1.28,2,16.65,16.65,0,0,0-1.29,3.22,18.56,18.56,0,0,0-.41,1.93l-14.25-4s-.26,1.45-.43,3.25-.4,4.06-.53,5.48l11.91,3.3-.31,3.29c-.3,2-.58,3.74-1,5.35L415,160.44l-.29,1c-.19.68-.42,1.54-.77,2.57a58.7,58.7,0,0,1-2.27,5.78l14.24,4-1.41,3c-.86,1.88-1.62,3.45-2.19,5Z"/><path class="cls-1" d="M431.81,182.08a11.61,11.61,0,0,1,.34-7.67c.26-.72.58-1.42.9-2.11a6,6,0,0,0,.42-.8l9.35,3.38-1.23,2.47a3,3,0,0,0,1.84,3.92,4.3,4.3,0,0,0,5.32-1.8l.13-.36c.44-1.2.2-3-.56-5a50.16,50.16,0,0,0-3.79-7.68c-1.43-2.61-3-5.24-4.18-7.74s-1.93-5.18-1.46-7.58a12.14,12.14,0,0,1,.38-1.42c1.06-2.94,3.52-4.49,6.83-5.19a23,23,0,0,1,11.57,1.14c3.55,1.28,4.59,3.28,5.08,6a36.76,36.76,0,0,1,.32,4.72,45.68,45.68,0,0,1-.3,5.52l-8.58-3.1.18-1.23a4.83,4.83,0,0,0-.49-3,3.72,3.72,0,0,0-2.15-1.93c-1.44-.52-2.93-.32-3.48,1.17l-.11.51c-.55,2.84,3.39,7.87,6.69,13.53a38.54,38.54,0,0,1,3.74,7.66,10,10,0,0,1,0,6.17,8.2,8.2,0,0,1-.47,1.11,14.23,14.23,0,0,1-8.39,6.32,16.41,16.41,0,0,1-10.62-.25,12,12,0,0,1-7.28-6.84"/><path class="cls-1" d="M462.33,196.58s.75-1.28,2.12-3.39a83.26,83.26,0,0,0,5.24-8.09,29.12,29.12,0,0,0,1.37-2.88c.34-.83.69-1.65,1-2.5a43.53,43.53,0,0,0,1.44-5.83c.87-4.33,1.1-7.49,2.19-10.69l-8-3.41s.15-.5.47-1.26a11.38,11.38,0,0,1,.86-1.71,13.39,13.39,0,0,1,1.71-2.4,11,11,0,0,1,2.29-1.79l25.1,10.66-.9.65a11.42,11.42,0,0,0-1.77,1.74,13.55,13.55,0,0,0-2,3.32l-.56,1.5-8-3.42a35,35,0,0,0-.95,3.89c-.48,2.43-.93,5.91-1.87,9.59a34.58,34.58,0,0,1-1.79,5.54,39.8,39.8,0,0,1-2.81,5.32c-2,3.35-4.4,6.44-5.86,9.07Z"/><path class="cls-1" d="M486.49,207.57s1-1.6,2.69-4.19a58,58,0,0,0,6.23-10.15,39.92,39.92,0,0,0,2.28-6.93c.57-2.46,1-5,1.39-7.45a35.21,35.21,0,0,1,1.83-6.35l.2-.47a12.48,12.48,0,0,1,4.25-4.91l9.08,3.9a11.68,11.68,0,0,0-1.23.93,11.84,11.84,0,0,0-2.4,2.85,11.1,11.1,0,0,0-.93,1.82,22.62,22.62,0,0,0-1.05,3.09c-.5,2-.86,4.13-1.26,6.53a54.53,54.53,0,0,1-1.7,7.18c-.39,1.22-.8,2.36-1.28,3.47a35,35,0,0,1-1.63,3.32c-2.17,3.93-5.17,7.35-7.4,11.26Z"/><path class="cls-1" d="M512.68,217.19s.37-1.84,1.29-4.77a59.69,59.69,0,0,0,2.74-11.58,51.71,51.71,0,0,0,.27-7.67c-.11-2.71-.36-5.46-.56-8.13a35,35,0,0,1,.16-7.52,12.24,12.24,0,0,1,.67-2.47,10.07,10.07,0,0,1,1.9-3.17l9.22,3.54a9.54,9.54,0,0,0-1.66,2.37l-.54,1.23a17.41,17.41,0,0,0-1,5.39c-.19,2.8,0,6,0,9a68.81,68.81,0,0,1-.28,8l1.23-2.53c.39-.81.67-1.52,1-2.35l2.51-6.75a36.57,36.57,0,0,1,2.22-4.88,16.57,16.57,0,0,1,5.81-5.89l9.28,3.55s-.52.29-1.43.89a16.68,16.68,0,0,0-3,2.67,23.5,23.5,0,0,0-3.08,4.48c-1,1.81-1.72,3.78-2.68,5.93a56.24,56.24,0,0,1-3.15,6.58,48.53,48.53,0,0,1-4.25,6.29c-3.24,4-7.17,7.48-9.68,10.48Z"/><path class="cls-1" d="M544.51,230.17l2.1-6-6.79-2.92-1.64,1.87c-1.06,1.2-1.92,2.22-2.69,3.21l-9.07-3.91s1.31-1.44,3.57-3.8a101.61,101.61,0,0,0,8.29-9.27,53.83,53.83,0,0,0,4.15-6.12c1.39-2.25,2.44-4.22,3.68-6.46,2.51-4.55,4.79-8.08,8.4-10.83l6.79,2.93-.3.7a21.94,21.94,0,0,0-1.23,4,34.76,34.76,0,0,0-.68,5.46c-.13,2.23-.18,4.44-.22,7s-.17,5.06-.48,7.71a52.45,52.45,0,0,1-1.22,7.52c-1,4.89-2.65,9.26-3.59,12.88Zm5.62-18.25c.4-2.39.67-4.64.87-6.7a67.14,67.14,0,0,1-5.47,9l3.74,1.61s.48-1.74.86-3.93"/><path class="cls-1" d="M556.62,235.51s.79-1.25,1.9-2.69l3.42-4.38s.94-1.24,2.26-3.3a29.69,29.69,0,0,0,2.18-3.83,39.88,39.88,0,0,0,1.86-4.83,52.38,52.38,0,0,0,1.33-5.79c.45-2,.8-4.06,1.36-6a18.78,18.78,0,0,1,1.24-3.5,19.48,19.48,0,0,1,1-1.73,12.23,12.23,0,0,1,4-3.59l8.93,4.23a10.81,10.81,0,0,0-3.37,2.78,11,11,0,0,0-1.65,2.6l-.46,1.12a26.82,26.82,0,0,0-1.43,5.1c-.42,1.93-.74,3.95-1.19,5.93a39.49,39.49,0,0,1-1.73,5.74c-.3.77-.63,1.47-1,2.15a39.79,39.79,0,0,1-4.44,7.14L584.28,239l-2.08,2.61A53.61,53.61,0,0,0,579,246.1Z"/><path class="cls-1" d="M1041.63,251.4c-19.28,0-28.83-12.11-35.15-20.12-5.92-7.5-8.37-9.84-12.11-9.84s-6.17,2.33-12.09,9.84c-6.32,8-15.86,20.12-35.14,20.12S918.33,239.29,912,231.28c-5.91-7.51-8.34-9.84-12.07-9.84s-6.17,2.33-12.09,9.84c-6.31,8-15.84,20.12-35.12,20.12s-28.82-12.11-35.14-20.12c-5.9-7.51-8.33-9.84-12.07-9.84V199c19.27,0,28.82,12.11,35.14,20.12,5.9,7.5,8.33,9.84,12.07,9.84s6.17-2.34,12.09-9.84c6.31-8,15.85-20.12,35.12-20.12s28.81,12.11,35.12,20.12c5.91,7.5,8.34,9.84,12.07,9.84s6.18-2.34,12.1-9.84c6.31-8,15.85-20.12,35.13-20.12s28.83,12.1,35.15,20.12c5.92,7.5,8.37,9.84,12.11,9.84s6.25-2.34,12.17-9.85c6.32-8,16.9-20.11,35.19-20.11v22.47s-6.24,2.33-12.16,9.84c-6.32,8-15.91,20.12-35.2,20.12"/><path class="cls-1" d="M1041.63,318.8c-19.28,0-28.83-12.1-35.15-20.11-5.92-7.51-8.37-9.84-12.11-9.84s-6.17,2.33-12.09,9.83c-6.32,8-15.86,20.12-35.14,20.12S918.33,306.69,912,298.68c-5.91-7.5-8.34-9.83-12.07-9.83s-6.17,2.33-12.09,9.83c-6.31,8-15.84,20.12-35.12,20.12s-28.82-12.11-35.14-20.12c-5.9-7.5-8.33-9.83-12.07-9.83V266.37c19.27,0,28.82,12.12,35.14,20.13,5.9,7.5,8.33,9.83,12.07,9.83s6.17-2.33,12.09-9.83c6.31-8,15.85-20.13,35.12-20.13s28.81,12.12,35.12,20.13c5.91,7.5,8.34,9.83,12.07,9.83s6.18-2.33,12.1-9.83c6.31-8,15.85-20.13,35.13-20.13s28.83,12.11,35.15,20.13c5.92,7.5,8.37,9.83,12.11,9.83s6.25-2.33,12.17-9.84c6.32-8,16.9-20.12,35.19-20.12v22.48s-6.24,2.33-12.16,9.83c-6.32,8-15.91,20.12-35.2,20.12"/><path class="cls-1" d="M316.79,368.82A323.39,323.39,0,0,1,244.66,361c-36.66-8.37-70.1-23.25-99.39-44.22-23.52-16.84-38-33.15-44.58-41.37l-.62-.78.58-.82c6.59-9.18,21.34-27.42,46-46.34l1.61,2.11c-23.68,18.16-38.09,35.66-44.87,45,6.74,8.33,20.9,23.94,43.43,40.08,29,20.77,62.12,35.5,98.45,43.79,48.16,11,101.28,10.37,157.9-1.87,33-7.13,67.58-18.33,102.88-33.3,37.88-16.06,77.49-36.87,117.77-61.85-11-6.08-22-11.92-32.83-17.37l1.2-2.36c11.46,5.8,23.2,12,34.89,18.51l2,1.09-1.91,1.18c-41,25.59-81.44,46.86-120,63.24-35.45,15-70.22,26.28-103.36,33.44a410.88,410.88,0,0,1-86.92,9.74"/><path class="cls-1" d="M717.81,259c63.16-13.07,68.31-49.69,68.66-58-14.22-5.6-98.22-33-160.05,60.26,66.46,90,149,58.42,162.88,52.11-.76-8.23-7.75-44.55-71.49-54.42"/><path class="cls-1" d="M183.94,259.48A15,15,0,1,1,168.6,244.9a15,15,0,0,1,15.34,14.58"/></svg>