<?xml version="1.0" encoding="utf-8"?>
<!-- Generator: Adobe Illustrator 26.2.1, SVG Export Plug-In . SVG Version: 6.00 Build 0)  -->
<svg version="1.1" id="Layer_1" xmlns="http://www.w3.org/2000/svg" xmlns:xlink="http://www.w3.org/1999/xlink" x="0px" y="0px"
	 viewBox="0 0 1190.6 841.9" style="enable-background:new 0 0 1190.6 841.9;" xml:space="preserve">
<style type="text/css">
	.st0{fill:#EE3486;}
</style>
<g>
	<rect x="790.7" y="302.9" class="st0" width="269.6" height="39.8"/>
	<polygon class="st0" points="921.7,358.4 938.2,329.9 905.2,329.9 	"/>
	<path class="st0" d="M181.2,407.2c0,0-0.3-0.6-0.8-1.7l-1.6-4.1c-0.7-1.7-1.3-3.4-2.1-5c-0.8-1.7-1.6-3-2.4-4.2
		c0,0-0.8-1.1-1.9-2.4c-1.2-1.4-2.4-2.7-3.6-3.7l-1.5-1.3c-0.7-0.7-2.4-2.1-3.5-3.2c-1-1-2-2.1-2.9-3.3l-0.7-1.1
		c-0.9-1.8-1.2-3.7-1.1-5.5l10.7-7.1c2.9-2,5.4-2,8-1c1.3,0.4,2.8,1.2,4.2,2c1.5,0.9,3.1,2,4.5,3.3c1,0.9,1.8,1.8,2.4,2.7
		c1.2,1.8,1.8,3.7,1.5,5.8c-0.3,3-2.3,5.8-5.4,7.9l-2.9,2l1,1.5c0.6,1,1.2,2.2,2,3.8c0.7,1.7,1.3,3.2,2,5.1c0.7,1.8,1.3,3.2,1.9,4.5
		L181.2,407.2z M180.2,375.4c-0.2-0.2-0.3-0.5-0.6-0.7c0,0-1.3-1.2-1.7-1.6c-0.7-0.7-1.6-1.1-2.6-1.2c-0.9-0.1-2,0.1-2.8,0.6
		l-2.9,1.9c1.8,2.3,4.7,4.6,6.9,6.6l2.9-1.9C180.8,378.1,181.1,376.6,180.2,375.4"/>
	<path class="st0" d="M207.6,390.1c0,0-0.7-1.6-1.6-4.4c-0.8-2.7-2-6.6-4.1-10.4c-1.1-2-2.3-3.8-3.9-5.6c-1.5-1.8-3.2-3.6-4.8-5.3
		c-1.4-1.7-2.7-3.3-3.7-5l-0.2-0.4c-1-1.9-1.4-3.8-1.3-6l8.1-4.6c0,0-0.1,0.5,0,1.5c0.1,0.9,0.2,2.1,0.8,3.4
		c0.2,0.6,0.5,1.2,0.8,1.7c0.4,0.8,1,1.6,1.7,2.5c1.2,1.5,2.6,3,4.2,4.7c1.6,1.7,3,3.4,4.4,5.3c0.7,1,1.3,1.9,1.9,2.9
		c0.6,1,1.1,2,1.6,3.1c1.7,3.9,2.6,8,4.2,11.9L207.6,390.1z"/>
	<path class="st0" d="M236.3,375.2c0,0-0.6-0.7-1.3-1.8c-0.8-1.1-1.8-2.8-2.9-4.7c-1.2-1.9-2.4-3.7-4-5.6c-1.6-1.8-3.2-3.3-4.7-4.5
		c0,0,0.5,0.7,1.2,1.9l1,1.9c0.4,0.9,0.8,1.9,1.2,3.1c0.7,2.2,1.2,4.2,1.7,6.6c0.5,2.4,0.8,4.2,1.5,6l-8.5,3.9l-0.4-1.2l-0.8-3.3
		c-0.3-1.3-0.7-3.3-1.1-5c-0.4-1.9-1.1-3.9-1.9-5.8c-1-2.1-2.1-3.9-3.5-5.9c-1.4-1.9-3.1-3.7-4.5-5.6c-1.3-1.6-2.5-3.3-3.3-5
		l-0.3-0.7c-0.7-2-0.9-4-0.4-6.2l8.5-3.9c0,0-0.1,1,0.4,2.3l0.3,0.8c0.6,1.2,1.5,2.4,2.9,3.7c1.7,1.6,3.9,3.1,6.1,4.6
		c2.5,1.6,4,2.7,5.7,4c0,0-0.5-0.7-1.4-1.8c-0.9-1.1-2.1-2.6-3.5-4.4c-1.2-1.5-2.6-3.2-3.4-5.1l-0.3-0.6c-0.9-2.1-1-4.2-0.5-6.4
		l8.5-3.9c0,0-0.2,0.5-0.2,1.5c-0.1,0.9-0.1,2.1,0.3,3.6c0.2,0.7,0.4,1.3,0.7,1.9c0.4,0.8,0.9,1.6,1.5,2.5c1.1,1.6,2.4,3.2,3.9,4.9
		c1.5,1.8,2.9,3.5,4.2,5.6c0.6,1,1.1,1.9,1.6,2.9c0.5,1.1,1,2.2,1.4,3.4c1.5,4.4,1.9,9,3,12.3L236.3,375.2z"/>
	<path class="st0" d="M265.3,363.9l-1-1.7c-0.7-1.2-1.3-2.2-2.2-4c-0.9-1.7-1.7-3.3-2.9-5c-1.1-1.7-2.2-3.1-3.3-4.3l0.3,0.7
		c0.3,1,1,3,1.4,5.5c0.3,1.9,0.5,3.7,0.7,5.7c0.2,2.1,0.4,3.7,0.7,5.2l-8.8,3l-0.2-1.3c-0.2-0.8-0.3-1.8-0.4-3.4
		c-0.2-1.3-0.4-3.3-0.6-5c-0.3-1.9-0.7-3.9-1.3-6c-0.7-2.2-1.6-4.1-2.8-6.3c-1.2-2.1-2.5-4.1-3.7-6.1c-1.1-1.8-2.1-3.5-2.7-5.3
		l-0.3-0.7c-0.6-2.1-0.5-4,0-6.1l8.8-3c0,0-0.3,0.9-0.4,2.1c-0.2,1.4,0,2.9,0.6,4.7c0.6,1.8,1.5,3.4,2.5,5.1c1,1.7,2,3.2,2.8,4.5
		l-1.2-6.4c-0.2-1.8-0.4-3.9-0.1-5.9c0.3-2.2,1-4.2,2.1-6.1l9.1-3.1c0,0-0.8,1.1-1.4,2.9c-0.6,1.9-1,3.8-1,6.2
		c0.1,2.3,0.5,4.6,0.9,6.9c0.5,2.5,0.8,4.2,1,6.2l1.8,1.8c1.2,1.2,2.5,2.7,3.8,4.6c1.4,2,2.4,3.9,3.6,6.1c1.2,2.2,2,3.9,3.1,5.5
		L265.3,363.9z"/>
	<path class="st0" d="M279.4,359.5l-0.2-1.9l-0.2-4.7c-0.1-1.9-0.2-3.8-0.4-5.8c-0.2-1.3-0.3-2.4-0.6-3.4l-0.4-1.7
		c0,0-0.3-1.3-0.9-2.9c-0.6-1.8-1.2-3.4-1.9-4.8c0,0-0.6-1.2-1.2-2.9c-0.8-1.8-1.4-3.3-1.9-4.8l-0.4-1.4l-0.3-1.5
		c-0.1-0.8-0.2-1.7-0.2-2.7c0-0.9,0.2-1.8,0.4-2.5l22.7-5l-0.2,1c-0.2,0.6-0.2,1.4-0.3,2.3c0,1.2,0.1,2.2,0.3,3.2
		c0.1,0.6,0.3,1.2,0.5,1.8l-13.6,3c0,0,0.4,1.3,1.1,2.9c0.7,1.6,1.5,3.5,2.1,4.8l11.3-2.5l1.2,2.9c0.7,1.8,1.2,3.4,1.6,4.9
		l-11.3,2.5l0.4,1.4c0.3,1.2,0.6,3,0.8,5.1c0.2,1.9,0.3,3.7,0.3,5.7c0,2.1,0.1,3.7,0.3,5.3L279.4,359.5z"/>
	<path class="st0" d="M307.5,353.8c0,0,0-1.8,0.2-4.7c0.2-2.8,0.7-6.9,0.1-11.2c-0.3-2.3-0.8-4.4-1.5-6.7c-0.7-2.3-1.6-4.5-2.5-6.7
		c-0.7-2.1-1.3-4.1-1.6-6l-0.1-0.5c-0.2-2.2,0.2-4.1,1.1-6l9.2-1.2c0,0-0.2,0.5-0.5,1.3c-0.3,0.8-0.6,2-0.6,3.5c0,0.6,0,1.3,0.1,1.9
		c0.1,0.9,0.3,1.9,0.6,3c0.6,1.9,1.3,3.8,2.1,5.9c0.8,2.2,1.5,4.3,2.1,6.6c0.3,1.2,0.5,2.3,0.6,3.4c0.1,1.1,0.2,2.3,0.3,3.5
		c0.1,4.2-0.6,8.4-0.6,12.6L307.5,353.8z"/>
	<path class="st0" d="M326.3,348.9c-1.6-1.8-2.4-4.1-2.5-6.8c0-0.7,0-1.4,0-2.2c0,0,0.1-0.5,0.1-0.8l9.3-0.4l-0.2,2.6
		c0.1,1.6,1.3,2.8,3,2.7c2.2-0.1,3.8-1.6,4-3.5l0-0.4c-0.1-1.2-0.9-2.7-2.3-4.1c-1.6-1.7-3.7-3.5-6.1-5.3c-2.2-1.8-4.5-3.4-6.4-5.2
		c-1.9-1.8-3.5-3.8-4-6c-0.1-0.5-0.2-1-0.2-1.4c-0.1-2.9,1.4-5.2,4-7c3-1.9,6.9-3,10.5-3.2c3.5-0.2,5.1,1.2,6.6,3.4
		c0.7,1.1,1.4,2.5,2,4c0.6,1.5,1.3,3.2,1.7,4.9l-8.6,0.4l-0.3-1.1c-0.2-0.9-0.8-1.8-1.5-2.4c-0.7-0.6-1.6-0.9-2.6-0.9
		c-1.4,0.1-2.7,0.8-2.6,2.3l0.1,0.5c0.5,2.7,5.8,5.6,10.7,9.3c2.2,1.7,4.4,3.4,6,5.3c1.3,1.6,2.1,3.4,2.2,5.3c0,0.4,0,0.8,0,1.1
		c-0.4,3.4-2.5,6.4-5,8.5c-2.5,2.2-5.8,3.4-9.3,3.6C331.6,352.4,328.4,351.1,326.3,348.9"/>
	<path class="st0" d="M368.6,351.3l0.3-1.9c0.3-1.4,0.6-2.5,1.2-4.6c0.5-1.9,1-3.7,1.3-5.7c0.3-1.3,0.4-2.5,0.4-3.6l0-1.6l-6.9-0.4
		l0,0.9c-0.1,1.1-0.3,3.2-0.7,5.7c-0.4,1.9-0.9,3.6-1.4,5.6c-0.5,2-0.9,3.6-1.1,5.2l-9.3-0.5l0.4-1.9c0.3-1.4,0.6-2.5,1.2-4.5
		c0.5-1.9,0.9-3.7,1.2-5.7c0.3-1.3,0.4-2.5,0.4-3.6l0-1.6c0,0,0.1-1.3-0.1-3.1c-0.1-1.9-0.4-3.6-0.6-5.1l-0.3-1.8
		c-0.1-1-0.4-2.8-0.6-4.4c-0.2-1.3-0.2-2.6-0.1-3.8l0.1-1.5c0.3-1.8,1-3.4,1.9-4.7l9.3,0.5c0,0-0.5,0.6-1,1.7
		c-0.5,1.1-1,2.5-1.1,4.3l0,0.5c-0.1,1.6,0.1,3.2,0.3,4.8c0.3,1.8,0.6,3.6,0.8,4.9l6.9,0.4c0,0-0.1-0.7-0.3-1.8l-0.7-4.4
		c-0.1-1.3-0.1-2.5-0.1-3.8c0-0.5,0.1-1,0.1-1.5c0.3-1.8,1-3.4,2-4.7l9.3,0.5c0,0-0.3,0.4-0.8,1.2c-0.4,0.8-0.9,1.9-1.2,3.3
		l-0.2,1.8c-0.1,1,0,2,0.1,3.2c0.2,1.9,0.6,3.9,1,6.2c0.4,2.3,0.7,4.5,0.8,6.9c0,1.2,0,2.3,0,3.5c-0.1,1.1-0.2,2.3-0.4,3.5
		c-0.7,4.2-2.2,8.1-2.9,12.3L368.6,351.3z"/>
	<path class="st0" d="M384,352.5l0.5-1.9l1.6-4.4c0.6-1.8,1.3-3.6,1.8-5.5c0.3-1.2,0.6-2.3,0.7-3.3l0.2-1.8c0,0,0.2-1.3,0.3-3.1
		c0.1-1.9,0.1-3.6,0-5.1c0,0-0.1-1.3-0.1-3.1c-0.1-2-0.1-3.6,0-5.2l0.2-1.5l0.3-1.5c0.2-0.8,0.5-1.7,0.9-2.6
		c0.4-0.9,0.9-1.6,1.3-2.2l22.9,3.7l-0.6,0.8c-0.4,0.5-0.7,1.2-1.1,2c-0.4,1.1-0.7,2.1-0.9,3.1c-0.1,0.6-0.1,1.2-0.2,1.9l-13.7-2.2
		c0,0-0.1,1.4-0.1,3.1c0,1.8,0.1,3.8,0.2,5.2l11.4,1.9l0.1,3.1c0,1.9-0.2,3.6-0.4,5.1l-11.5-1.9l-0.2,1.4c-0.2,1.2-0.6,3-1.2,5
		c-0.5,1.9-1.1,3.5-1.8,5.5c-0.7,1.9-1.2,3.5-1.7,5L384,352.5z"/>
	<path class="st0" d="M410.6,357.1c0,0,0.5-1.3,1.2-2.8c0.7-1.6,1.6-3.4,2.2-4.7c0,0,0.7-1.4,1.3-3.2c0.6-1.6,1.1-3,1.5-4.4l0.3-1.2
		c0,0,0.3-1.3,0.6-3c0.3-1.8,0.5-3.6,0.7-5.1c0,0,0.1-1.4,0.2-3.1c0.2-1.9,0.4-3.6,0.6-5.1l0.3-1.5l0.5-1.5c0.6-1.8,1.4-3.3,2.6-4.6
		l22.4,6.2l-0.7,0.8c-0.4,0.5-0.8,1.1-1.2,1.9c-0.5,1-0.9,2-1.2,3c-0.2,0.6-0.3,1.2-0.4,1.8l-13.4-3.7c0,0-0.3,1.4-0.4,3.1
		c-0.2,1.7-0.4,3.8-0.5,5.1l11.2,3.1l-0.3,3.1c-0.3,1.9-0.5,3.5-0.9,5l-11.2-3.1l-0.3,1c-0.2,0.6-0.4,1.4-0.7,2.4
		c-0.6,2-1.4,3.8-2.1,5.4l13.4,3.7l-1.3,2.8c-0.8,1.8-1.5,3.2-2.1,4.7L410.6,357.1z"/>
	<path class="st0" d="M441.9,363.6c-0.8-2.3-0.6-4.7,0.3-7.2c0.2-0.7,0.5-1.3,0.8-2c0,0,0.3-0.5,0.4-0.8l8.8,3.2l-1.2,2.3
		c-0.5,1.5,0.1,3.1,1.7,3.7c2,0.7,4.1-0.1,5-1.7l0.1-0.3c0.4-1.1,0.2-2.8-0.5-4.7c-0.8-2.2-2.1-4.6-3.6-7.2
		c-1.3-2.5-2.9-4.9-3.9-7.3c-1.1-2.4-1.8-4.9-1.4-7.1c0.1-0.5,0.2-0.9,0.4-1.3c1-2.8,3.3-4.2,6.4-4.9c3.5-0.7,7.6-0.1,10.9,1.1
		c3.3,1.2,4.3,3.1,4.8,5.7c0.2,1.3,0.3,2.8,0.3,4.4c0,1.6,0,3.5-0.3,5.2l-8.1-2.9l0.2-1.2c0.2-1,0-2-0.5-2.8c-0.4-0.8-1.1-1.5-2-1.8
		c-1.4-0.5-2.8-0.3-3.3,1.1l-0.1,0.5c-0.5,2.7,3.2,7.4,6.3,12.7c1.4,2.4,2.8,4.8,3.5,7.2c0.6,2,0.7,3.9,0,5.8
		c-0.1,0.3-0.3,0.7-0.5,1c-1.6,3-4.7,5-7.9,5.9c-3.2,1-6.6,1-10-0.2C445.4,368.8,442.9,366.4,441.9,363.6"/>
	<path class="st0" d="M470.6,377.2c0,0,0.7-1.2,2-3.2c1.2-1.7,3.4-4.7,4.9-7.6c0.5-0.9,0.9-1.8,1.3-2.7c0.3-0.8,0.7-1.5,0.9-2.3
		c0.6-1.8,1-3.6,1.4-5.5c0.8-4.1,1-7,2.1-10l-7.5-3.2c0,0,0.1-0.5,0.4-1.2c0.2-0.4,0.4-1,0.8-1.6c0.4-0.7,1-1.5,1.6-2.2
		c0.7-0.7,1.4-1.2,2.1-1.7l23.6,10l-0.8,0.6c-0.5,0.4-1.1,1-1.7,1.6c-0.8,1-1.4,2.1-1.8,3.1l-0.5,1.4l-7.5-3.2c0,0-0.5,1.4-0.9,3.7
		c-0.5,2.3-0.9,5.5-1.8,9c-0.4,1.7-0.9,3.4-1.7,5.2c-0.7,1.8-1.6,3.3-2.6,5c-1.9,3.1-4.1,6-5.5,8.5L470.6,377.2z"/>
	<path class="st0" d="M493.3,387.5c0,0,0.9-1.5,2.5-3.9c1.6-2.3,4.1-5.6,5.9-9.5c0.9-2.1,1.6-4.1,2.1-6.5c0.5-2.3,0.9-4.7,1.3-7
		c0.5-2.1,0.9-4.2,1.7-6l0.2-0.4c1-1.9,2.2-3.4,4-4.6l8.5,3.7c0,0-0.4,0.3-1.2,0.9c-0.6,0.6-1.5,1.4-2.3,2.7
		c-0.3,0.5-0.6,1.1-0.9,1.7c-0.4,0.8-0.7,1.8-1,2.9c-0.5,1.9-0.8,3.9-1.2,6.1c-0.4,2.3-0.9,4.5-1.6,6.7c-0.4,1.1-0.8,2.2-1.2,3.3
		c-0.4,1-1,2.1-1.5,3.1c-2,3.7-4.9,6.9-6.9,10.6L493.3,387.5z"/>
	<path class="st0" d="M517.9,396.6c0,0,0.3-1.7,1.2-4.5c0.8-2.6,2.1-6.4,2.6-10.9c0.3-2.3,0.4-4.6,0.3-7.2c-0.1-2.5-0.3-5.1-0.5-7.6
		c-0.2-2.6-0.2-4.9,0.1-7.1c0.1-0.8,0.4-1.6,0.6-2.3c0.4-1.1,1-2.1,1.8-3l8.7,3.3c0,0-0.8,0.8-1.6,2.2l-0.5,1.1
		c-0.5,1.3-0.9,2.9-1,5.1c-0.2,2.6,0,5.6,0,8.4c0.1,3,0,5.3-0.3,7.5l1.2-2.4c0.4-0.8,0.6-1.4,0.9-2.2l2.4-6.3
		c0.6-1.6,1.3-3.2,2.1-4.6c1.4-2.4,3.2-4.2,5.5-5.5l8.7,3.3c0,0-0.5,0.3-1.3,0.8c-0.8,0.5-1.8,1.4-2.8,2.5c-1,1.2-2,2.5-2.9,4.2
		c-0.9,1.7-1.6,3.5-2.5,5.6c-0.9,2.1-1.8,4.1-3,6.2c-1.2,2.1-2.5,4-4,5.9c-3,3.8-6.7,7-9.1,9.8L517.9,396.6z"/>
	<path class="st0" d="M547.8,408.8l2-5.7l-6.4-2.7l-1.5,1.8c-1,1.1-1.8,2.1-2.5,3l-8.5-3.7c0,0,1.2-1.4,3.4-3.6
		c2.1-2.2,5.1-5.2,7.8-8.7c1.4-1.9,2.7-3.7,3.9-5.8c1.3-2.1,2.3-4,3.5-6.1c2.4-4.3,4.5-7.6,7.9-10.2l6.4,2.7l-0.3,0.7
		c-0.3,0.7-0.8,2-1.2,3.7c-0.3,1.4-0.5,3.1-0.6,5.1c-0.1,2.1-0.2,4.2-0.2,6.6c-0.1,2.4-0.2,4.8-0.4,7.2c-0.2,2.5-0.6,4.8-1.1,7.1
		c-1,4.6-2.5,8.7-3.4,12.1L547.8,408.8z M553,391.6c0.4-2.2,0.6-4.4,0.8-6.3c-1.5,3-3.1,5.6-5.1,8.5l3.5,1.5
		C552.2,395.3,552.7,393.7,553,391.6"/>
	<path class="st0" d="M559.1,413.8c0,0,0.8-1.2,1.8-2.5l3.2-4.1c0,0,0.9-1.2,2.1-3.1c0.7-1.1,1.4-2.2,2-3.6c0.6-1.3,1.2-2.8,1.8-4.5
		c0.5-1.8,0.9-3.5,1.3-5.4c0.4-1.9,0.8-3.8,1.3-5.6c0.3-1.2,0.7-2.3,1.2-3.3c0.3-0.5,0.6-1.1,0.9-1.6c1-1.4,2.2-2.5,3.8-3.4l8.4,4
		c0,0-1.6,0.8-3.2,2.6c-0.6,0.7-1.1,1.5-1.6,2.4l-0.4,1.1c-0.6,1.4-1,3-1.3,4.8c-0.4,1.8-0.7,3.7-1.1,5.6c-0.4,1.9-0.9,3.7-1.6,5.4
		c-0.3,0.7-0.6,1.4-0.9,2c-1.3,2.7-2.7,4.8-4.2,6.7l12.6,6l-2,2.5c-1.2,1.5-2.2,2.9-3,4.2L559.1,413.8z"/>
	<path class="st0" d="M1014.6,428.7c-18.1,0-27.1-11.4-33-18.9c-5.6-7-7.9-9.2-11.4-9.2c-3.5,0-5.8,2.2-11.4,9.2
		c-5.9,7.5-14.9,18.9-33,18.9c-18.1,0-27.1-11.4-33-18.9c-5.5-7.1-7.8-9.2-11.3-9.2c-3.5,0-5.8,2.2-11.4,9.2
		c-5.9,7.5-14.9,18.9-33,18.9c-18.1,0-27.1-11.4-33-18.9c-5.5-7.1-7.8-9.2-11.3-9.2v-21.1c18.1,0,27.1,11.4,33,18.9
		c5.5,7,7.8,9.2,11.3,9.2c3.5,0,5.8-2.2,11.4-9.2c5.9-7.5,14.9-18.9,33-18.9c18.1,0,27.1,11.4,33,18.9c5.5,7,7.8,9.2,11.3,9.2
		c3.5,0,5.8-2.2,11.4-9.2c5.9-7.5,14.9-18.9,33-18.9c18.1,0,27.1,11.4,33,18.9c5.6,7,7.9,9.2,11.4,9.2c3.5,0,5.9-2.2,11.4-9.2
		c5.9-7.5,15.9-18.9,33.1-18.9v21.1c0,0-5.9,2.2-11.4,9.2C1041.8,417.3,1032.8,428.7,1014.6,428.7"/>
	<path class="st0" d="M1014.6,492c-18.1,0-27.1-11.4-33-18.9c-5.6-7-7.9-9.2-11.4-9.2c-3.5,0-5.8,2.2-11.4,9.2
		c-5.9,7.5-14.9,18.9-33,18.9c-18.1,0-27.1-11.4-33-18.9c-5.5-7.1-7.8-9.2-11.3-9.2c-3.5,0-5.8,2.2-11.4,9.2
		c-5.9,7.5-14.9,18.9-33,18.9c-18.1,0-27.1-11.4-33-18.9c-5.5-7.1-7.8-9.2-11.3-9.2v-21.1c18.1,0,27.1,11.4,33,18.9
		c5.5,7,7.8,9.2,11.3,9.2c3.5,0,5.8-2.2,11.4-9.2c5.9-7.5,14.9-18.9,33-18.9c18.1,0,27.1,11.4,33,18.9c5.5,7,7.8,9.2,11.3,9.2
		c3.5,0,5.8-2.2,11.4-9.2c5.9-7.5,14.9-18.9,33-18.9c18.1,0,27.1,11.4,33,18.9c5.6,7,7.9,9.2,11.4,9.2c3.5,0,5.9-2.2,11.4-9.2
		c5.9-7.5,15.9-18.9,33.1-18.9v21.1c0,0-5.9,2.2-11.4,9.2C1041.8,480.6,1032.8,492,1014.6,492"/>
	<path class="st0" d="M333.9,539c-23.5,0-46.2-2.5-67.7-7.4c-34.4-7.9-65.8-21.8-93.4-41.5c-22.1-15.8-35.7-31.1-41.9-38.9l-0.6-0.7
		l0.5-0.8c6.2-8.6,20-25.8,43.2-43.5l1.5,2c-22.2,17.1-35.8,33.5-42.1,42.2c6.3,7.8,19.6,22.5,40.8,37.6
		c27.2,19.5,58.3,33.3,92.5,41.1c45.2,10.3,95.1,9.7,148.3-1.8c31-6.7,63.5-17.2,96.6-31.3c35.6-15.1,72.8-34.6,110.6-58.1
		c-10.3-5.7-20.7-11.2-30.8-16.3l1.1-2.2c10.8,5.4,21.8,11.3,32.8,17.4l1.8,1l-1.8,1.1c-38.6,24-76.5,44-112.8,59.4
		c-33.3,14.1-66,24.7-97.1,31.4C387.3,535.9,360.1,539,333.9,539"/>
	<path class="st0" d="M710.5,435.8c59.3-12.3,64.2-46.7,64.5-54.4c-13.4-5.3-92.2-30.9-150.3,56.6c62.4,84.5,139.9,54.9,153,48.9
		C777,479.2,770.4,445.1,710.5,435.8"/>
	<path class="st0" d="M209.1,436.3c0.2,7.8-5.9,14.2-13.7,14.4c-7.8,0.2-14.2-5.9-14.4-13.7c-0.2-7.8,5.9-14.2,13.7-14.4
		C202.5,422.4,208.9,428.5,209.1,436.3"/>
</g>
</svg>
