<svg width="26" height="25" viewBox="0 0 26 25" fill="none" xmlns="http://www.w3.org/2000/svg">
<g clip-path="url(#clip0_284_229)">
<path fill-rule="evenodd" clip-rule="evenodd" d="M13 1.5625C15.9008 1.5625 18.6828 2.71484 20.734 4.76602C22.7852 6.8172 23.9375 9.59919 23.9375 12.5C23.9375 15.4008 22.7852 18.1828 20.734 20.234C18.6828 22.2852 15.9008 23.4375 13 23.4375C10.0992 23.4375 7.3172 22.2852 5.26602 20.234C3.21484 18.1828 2.0625 15.4008 2.0625 12.5C2.0625 9.59919 3.21484 6.8172 5.26602 4.76602C7.3172 2.71484 10.0992 1.5625 13 1.5625ZM13 25C16.3152 25 19.4946 23.683 21.8388 21.3388C24.183 18.9946 25.5 15.8152 25.5 12.5C25.5 9.18479 24.183 6.00537 21.8388 3.66117C19.4946 1.31696 16.3152 0 13 0C9.68479 0 6.50537 1.31696 4.16117 3.66117C1.81696 6.00537 0.5 9.18479 0.5 12.5C0.5 15.8152 1.81696 18.9946 4.16117 21.3388C6.50537 23.683 9.68479 25 13 25ZM7.53125 13.2812C7.32405 13.2812 7.12534 13.1989 6.97882 13.0524C6.83231 12.9059 6.75 12.7072 6.75 12.5C6.75 12.2928 6.83231 12.0941 6.97882 11.9476C7.12534 11.8011 7.32405 11.7188 7.53125 11.7188L16.5828 11.7188L13.2281 8.36563C13.0814 8.21893 12.999 8.01996 12.999 7.8125C12.999 7.60504 13.0814 7.40607 13.2281 7.25937C13.3748 7.11268 13.5738 7.03026 13.7812 7.03026C13.9887 7.03026 14.1877 7.11268 14.3344 7.25937L19.0219 11.9469C19.0946 12.0194 19.1524 12.1057 19.1917 12.2006C19.2311 12.2955 19.2514 12.3972 19.2514 12.5C19.2514 12.6028 19.2311 12.7045 19.1917 12.7994C19.1524 12.8943 19.0946 12.9806 19.0219 13.0531L14.3344 17.7406C14.1877 17.8873 13.9887 17.9697 13.7812 17.9697C13.5738 17.9697 13.3748 17.8873 13.2281 17.7406C13.0814 17.5939 12.999 17.395 12.999 17.1875C12.999 16.98 13.0814 16.7811 13.2281 16.6344L16.5828 13.2813L7.53125 13.2812Z" fill="white"/>
</g>
<defs>
<clipPath id="clip0_284_229">
<rect width="25" height="25" fill="white" transform="matrix(0 1 1 0 0.5 0)"/>
</clipPath>
</defs>
</svg>
