<svg width="58" height="59" viewBox="0 0 58 59" fill="none" xmlns="http://www.w3.org/2000/svg">
<path d="M40.0203 31.9145L50.2214 40.3765C53.1078 42.7715 53.3855 47.1011 50.8298 49.845C48.263 52.6017 43.9005 52.6163 41.3137 49.8779L32.2416 40.276L30.0183 53.3745C29.3917 57.0647 25.7855 59.4634 22.141 58.6139C18.4964 57.7644 16.3207 54.0194 17.3894 50.4333L21.1819 37.7002L8.80136 42.3056C5.27007 43.6191 1.36427 41.6772 0.279126 38.071C-0.802367 34.4794 1.36062 30.718 5.00883 29.8465L17.899 26.7628L7.6815 18.2881C4.80605 15.9041 4.5375 11.5891 7.09508 8.86706C9.64901 6.14872 13.9658 6.14141 16.5271 8.85245L25.6503 18.5091L27.8736 5.41067C28.5002 1.72044 32.1064 -0.678203 35.751 0.17128C39.3955 1.02076 41.5713 4.76579 40.5026 8.35189L36.7101 21.085L49.1618 16.4539C52.6584 15.1532 56.5277 17.0659 57.6165 20.6338C58.7071 24.2052 56.5606 27.9576 52.927 28.8272L40.0167 31.9145H40.0203Z" fill="white"/>
</svg>
