<svg width="39" height="39" viewBox="0 0 39 39" fill="none" xmlns="http://www.w3.org/2000/svg">
<path d="M26.5508 21.1731L33.3185 26.7871C35.2335 28.376 35.4177 31.2484 33.7221 33.0688C32.0193 34.8977 29.125 34.9074 27.4089 33.0906L21.3901 26.7204L19.9151 35.4104C19.4994 37.8586 17.107 39.4499 14.6891 38.8864C12.2711 38.3228 10.8277 35.8382 11.5367 33.4591L14.0528 25.0115L5.83911 28.0669C3.49633 28.9384 0.905102 27.65 0.185181 25.2576C-0.532316 22.8748 0.902679 20.3793 3.32302 19.8012L11.8748 17.7553L5.09616 12.1329C3.18849 10.5513 3.01033 7.68856 4.70711 5.8827C6.40147 4.07926 9.2654 4.07441 10.9646 5.873L17.0173 12.2796L18.4923 3.58962C18.908 1.1414 21.3004 -0.449942 23.7184 0.113632C26.1363 0.677207 27.5798 3.16178 26.8707 5.54092L24.3547 13.9885L32.6156 10.9161C34.9353 10.0532 37.5023 11.3221 38.2247 13.6891C38.9482 16.0586 37.5241 18.548 35.1135 19.1249L26.5484 21.1731H26.5508Z" fill="white"/>
</svg>
