<svg width="24" height="25" viewBox="0 0 24 25" fill="none" xmlns="http://www.w3.org/2000/svg">
<path d="M19.5891 6.96475C18.5904 6.74222 17.6861 6.19324 17.0079 5.39782C16.3298 4.60241 15.9133 3.60215 15.8191 2.54287V2.0835H12.3741V16.3252C12.372 16.9557 12.1802 17.5696 11.8258 18.0807C11.4715 18.5919 10.9722 18.9745 10.3983 19.1749C9.82442 19.3752 9.20467 19.3832 8.62618 19.1977C8.04768 19.0122 7.53951 18.6426 7.17308 18.1408C6.80096 17.6306 6.59454 17.0101 6.58375 16.3695C6.57295 15.7288 6.75835 15.1012 7.11305 14.5777C7.46775 14.0542 7.97332 13.6619 8.55643 13.4579C9.13955 13.2538 9.7699 13.2486 10.3561 13.4429V9.79704C9.04894 9.60881 7.718 9.85088 6.54943 10.4894C5.38087 11.1279 4.43312 12.1309 3.83876 13.3582C3.2444 14.5854 3.03315 15.9755 3.23457 17.3339C3.43598 18.6924 4.03998 19.9513 4.96208 20.9345C5.84144 21.8718 6.96897 22.5148 8.20074 22.7815C9.43251 23.0483 10.7126 22.9266 11.8777 22.4321C13.0428 21.9375 14.04 21.0926 14.742 20.005C15.444 18.9175 15.819 17.6367 15.8191 16.3262V9.04912C17.2113 10.0859 18.8806 10.6419 20.5921 10.6387V7.07308C20.255 7.07351 19.9189 7.0372 19.5891 6.96475Z" fill="#D9D9D9"/>
</svg>
