<svg width="30" height="31" viewBox="0 0 30 31" fill="none" xmlns="http://www.w3.org/2000/svg">
<path d="M24.4863 8.74639C23.238 8.47936 22.1075 7.82058 21.2599 6.86608C20.4122 5.91158 19.8915 4.71127 19.7738 3.44014V2.88889H15.4675V19.9789C15.4649 20.7355 15.2252 21.4722 14.7822 22.0856C14.3393 22.6989 13.7152 23.1581 12.9979 23.3985C12.2805 23.6389 11.5058 23.6485 10.7827 23.426C10.0595 23.2034 9.42433 22.7598 8.96629 22.1576C8.50114 21.5454 8.24312 20.8008 8.22962 20.032C8.21613 19.2632 8.44788 18.5101 8.89125 17.8819C9.33463 17.2537 9.96658 16.783 10.6955 16.5382C11.4244 16.2933 12.2123 16.287 12.945 16.5201V12.1451C11.3111 11.9193 9.64744 12.2098 8.18673 12.976C6.72602 13.7422 5.54134 14.9458 4.79839 16.4185C4.05544 17.8912 3.79138 19.5592 4.04315 21.1894C4.29491 22.8195 5.04991 24.3302 6.20254 25.5101C7.30174 26.6348 8.71115 27.4065 10.2509 27.7265C11.7906 28.0466 13.3907 27.9006 14.8471 27.3072C16.3035 26.7137 17.55 25.6998 18.4275 24.3947C19.305 23.0897 19.7737 21.5528 19.7738 19.9801V11.2476C21.5141 12.4918 23.6007 13.1589 25.74 13.1551V8.87639C25.3187 8.87691 24.8985 8.83334 24.4863 8.74639Z" fill="#FF0086"/>
</svg>
