<svg width="31" height="30" viewBox="0 0 31 30" fill="none" xmlns="http://www.w3.org/2000/svg">
<path d="M24.703 8.3575C23.4546 8.09047 22.3242 7.43169 21.4765 6.47719C20.6288 5.5227 20.1082 4.32239 19.9905 3.05125V2.5H15.6842V19.59C15.6816 20.3466 15.4419 21.0833 14.9989 21.6967C14.5559 22.3101 13.9319 22.7692 13.2145 23.0096C12.4971 23.25 11.7225 23.2596 10.9993 23.0371C10.2762 22.8145 9.641 22.371 9.18297 21.7688C8.71782 21.1565 8.45979 20.412 8.4463 19.6432C8.43281 18.8743 8.66455 18.1212 9.10793 17.493C9.5513 16.8648 10.1833 16.3941 10.9122 16.1493C11.6411 15.9044 12.429 15.8981 13.1617 16.1312V11.7562C11.5278 11.5304 9.86411 11.8209 8.4034 12.5871C6.9427 13.3533 5.75801 14.5569 5.01506 16.0296C4.27211 17.5023 4.00805 19.1704 4.25982 20.8005C4.51159 22.4306 5.26659 23.9413 6.41922 25.1213C7.51841 26.2459 8.92782 27.0176 10.4675 27.3377C12.0072 27.6577 13.6074 27.5117 15.0638 26.9183C16.5201 26.3249 17.7666 25.3109 18.6441 24.0059C19.5217 22.7008 19.9904 21.1639 19.9905 19.5913V10.8588C21.7308 12.1029 23.8174 12.7701 25.9567 12.7663V8.4875C25.5354 8.48802 25.1152 8.44445 24.703 8.3575Z" fill="white"/>
</svg>
