<svg width="274" height="127" viewBox="0 0 274 127" fill="none" xmlns="http://www.w3.org/2000/svg">
<g clip-path="url(#clip0_98_36)">
<path d="M58.5815 48.3443C83.7396 46.2769 82.6499 33.0511 107.813 30.9837C132.971 28.9208 134.061 42.1467 159.223 40.0838C184.386 38.0164 183.296 24.7905 208.454 22.7231C233.617 20.6558 233.454 28.7132 258.509 31.7917C262.008 32.2205 264.36 31.2049 265.653 32.0806L267.538 31.9271L265.693 9.53789L263.808 9.69137C262.515 8.81566 260.159 9.8313 256.664 9.40248C231.605 6.32396 231.772 -1.73344 206.61 0.333949C181.447 2.39682 182.537 15.6272 157.378 17.6946C132.22 19.7575 131.131 6.5316 105.968 8.59448C80.8051 10.6619 81.8994 23.8877 56.7366 25.9551C31.5785 28.0225 30.4888 14.7921 5.32604 16.8595C3.39532 17.0175 1.64093 17.2477 -0.00492859 17.5276L2.23779 39.8491C3.76609 39.6008 5.39838 39.3932 7.17085 39.2487C32.329 37.1813 33.4187 50.4117 58.5769 48.3488L58.5815 48.3443Z" fill="white"/>
<path d="M61.8193 87.6474C86.9775 85.5845 85.8878 72.3541 111.051 70.2867C136.209 68.2239 137.298 81.4497 162.461 79.3868C187.624 77.3195 186.53 64.0936 211.692 62.0262C236.855 59.9588 236.688 68.0162 261.746 71.0947C265.246 71.5235 267.597 70.5079 268.891 71.3836L270.776 71.2301L268.931 48.8409L267.046 48.9944C265.753 48.1187 263.401 49.1343 259.902 48.7055C234.843 45.627 235.006 37.5696 209.848 39.637C184.685 41.7044 185.775 54.9303 160.616 56.9977C135.458 59.065 134.368 45.8347 109.206 47.8975C84.0475 49.9649 85.1372 63.1908 59.9745 65.2582C34.8163 67.3256 33.7266 54.0952 8.56391 56.1581C6.90901 56.2935 5.37618 56.4831 3.93379 56.7088L6.17651 79.0393C7.50134 78.8407 8.90755 78.6736 10.4087 78.5518C35.5669 76.4844 36.6566 89.7148 61.8148 87.6519L61.8193 87.6474Z" fill="white"/>
<path d="M272.16 87.9724L270.274 88.1259C268.981 87.2501 266.625 88.2658 263.13 87.837C238.071 84.7584 238.239 76.701 213.076 78.7684C187.913 80.8358 189.007 94.0617 163.845 96.1291C138.687 98.1965 137.597 84.9661 112.434 87.0335C87.2714 89.0964 88.3657 102.327 63.203 104.394C38.0448 106.462 36.9551 93.2311 11.7923 95.294C10.3997 95.4069 9.09747 95.5603 7.85855 95.7409L10.1013 118.076C11.2226 117.922 12.3892 117.787 13.6372 117.683C38.7954 115.616 39.8851 128.846 65.0478 126.783C90.206 124.716 89.1163 111.49 114.279 109.423C139.437 107.355 140.527 120.586 165.69 118.523C190.852 116.455 189.763 103.23 214.921 101.162C240.083 99.0948 239.921 107.152 264.975 110.231C268.475 110.659 270.826 109.644 272.119 110.52L274.005 110.366L272.16 87.9769V87.9724Z" fill="white"/>
</g>
<defs>
<clipPath id="clip0_98_36">
<rect width="274" height="127" fill="white"/>
</clipPath>
</defs>
</svg>
