<svg width="25" height="19" viewBox="0 0 25 19" fill="none" xmlns="http://www.w3.org/2000/svg">
<path d="M24.7222 4.09231C24.5833 3.21538 24.3056 2.19231 23.75 1.46154C23.0556 0.730769 22.2222 0.292308 21.25 0.292308C17.7778 0 12.5 0 12.5 0C12.5 0 7.22222 0 3.75 0.292308C2.77778 0.292308 1.94444 0.730769 1.25 1.46154C0.694444 2.19231 0.416667 3.21538 0.277778 4.09231C0.138889 5.55385 0 7.01538 0 8.47692V10.5231C0 11.9846 0.138889 13.4462 0.277778 14.9077C0.416667 15.7846 0.694444 16.8077 1.25 17.5385C1.94444 18.2692 3.05556 18.7077 4.02778 18.7077C5.97222 19 12.5 19 12.5 19C12.5 19 17.7778 19 21.25 18.7077C22.2222 18.7077 23.0556 18.2692 23.75 17.5385C24.3056 16.8077 24.5833 15.7846 24.7222 14.9077C24.8611 13.4462 25 11.9846 25 10.5231V8.47692C25 7.01538 24.8611 5.55385 24.7222 4.09231ZM9.86111 13.0077V5.40769L16.6667 9.20769L9.86111 13.0077Z" fill="#D9D9D9"/>
</svg>
