<svg width="31" height="23" viewBox="0 0 31 23" fill="none" xmlns="http://www.w3.org/2000/svg">
<path d="M30.6556 4.82222C30.4833 3.78889 30.1389 2.58333 29.45 1.72222C28.5889 0.861111 27.5556 0.344444 26.35 0.344444C22.0444 0 15.5 0 15.5 0C15.5 0 8.95556 0 4.65 0.344444C3.44444 0.344444 2.41111 0.861111 1.55 1.72222C0.861111 2.58333 0.516667 3.78889 0.344444 4.82222C0.172222 6.54444 0 8.26667 0 9.98889V12.4C0 14.1222 0.172222 15.8444 0.344444 17.5667C0.516667 18.6 0.861111 19.8056 1.55 20.6667C2.41111 21.5278 3.78889 22.0444 4.99444 22.0444C7.40556 22.3889 15.5 22.3889 15.5 22.3889C15.5 22.3889 22.0444 22.3889 26.35 22.0444C27.5556 22.0444 28.5889 21.5278 29.45 20.6667C30.1389 19.8056 30.4833 18.6 30.6556 17.5667C30.8278 15.8444 31 14.1222 31 12.4V9.98889C31 8.26667 30.8278 6.54444 30.6556 4.82222ZM12.2278 15.3278V6.37222L20.6667 10.85L12.2278 15.3278Z" fill="#FF0086"/>
</svg>
