<svg width="32" height="24" viewBox="0 0 32 24" fill="none" xmlns="http://www.w3.org/2000/svg">
<path d="M30.8722 5.62776C30.7 4.59443 30.3556 3.38888 29.6667 2.52776C28.8056 1.66665 27.7722 1.14999 26.5667 1.14999C22.2611 0.805542 15.7167 0.805542 15.7167 0.805542C15.7167 0.805542 9.17223 0.805542 4.86667 1.14999C3.66112 1.14999 2.62779 1.66665 1.76667 2.52776C1.07779 3.38888 0.733341 4.59443 0.561119 5.62776C0.388897 7.34999 0.216675 9.07221 0.216675 10.7944V13.2055C0.216675 14.9278 0.388897 16.65 0.561119 18.3722C0.733341 19.4055 1.07779 20.6111 1.76667 21.4722C2.62779 22.3333 4.00556 22.85 5.21112 22.85C7.62223 23.1944 15.7167 23.1944 15.7167 23.1944C15.7167 23.1944 22.2611 23.1944 26.5667 22.85C27.7722 22.85 28.8056 22.3333 29.6667 21.4722C30.3556 20.6111 30.7 19.4055 30.8722 18.3722C31.0445 16.65 31.2167 14.9278 31.2167 13.2055V10.7944C31.2167 9.07221 31.0445 7.34999 30.8722 5.62776ZM12.4445 16.1333V7.17776L20.8833 11.6555L12.4445 16.1333Z" fill="white"/>
</svg>
