<svg width="73" height="73" viewBox="0 0 73 73" fill="none" xmlns="http://www.w3.org/2000/svg">
<path d="M73 36.5C73 56.6344 56.6344 73 36.5 73C16.3656 73 1.95158e-07 56.6344 4.35258e-07 36.5C6.75359e-07 16.3656 16.3656 1.95158e-07 36.5 4.35258e-07C56.6344 6.75359e-07 73 16.3656 73 36.5ZM5.09302 36.5C5.09302 53.8163 19.1837 67.907 36.5 67.907C53.8163 67.907 67.907 53.8163 67.907 36.5C67.907 19.1837 53.8163 5.09303 36.5 5.09303C19.1837 5.09303 5.09302 19.1837 5.09302 36.5Z" fill="#F33288"/>
<path d="M50.9302 36.4999C50.9302 37.892 49.7758 39.0464 48.3837 39.0464L28.0116 39.0464C26.6195 39.0464 25.4651 37.892 25.4651 36.4999C25.4651 35.1078 26.6195 33.9534 28.0116 33.9534L48.3837 33.9534C49.7758 33.9534 50.9302 35.1078 50.9302 36.4999Z" fill="#F33288"/>
<path d="M37.3486 26.3155C37.3486 26.9607 37.1109 27.6058 36.6016 28.1151L28.2152 36.5016L36.6016 44.8883C37.5862 45.8729 37.5862 47.5027 36.6016 48.4873C35.6169 49.472 33.9872 49.472 33.0025 48.4873L22.8166 38.3011C21.832 37.3165 21.832 35.6867 22.8166 34.7021L33.0025 24.516C33.9872 23.5314 35.6169 23.5314 36.6016 24.516C37.1109 25.0253 37.3486 25.6704 37.3486 26.3155Z" fill="#F33288"/>
</svg>
