<svg width="73" height="73" viewBox="0 0 73 73" fill="none" xmlns="http://www.w3.org/2000/svg">
<path d="M4.35258e-07 36.5C1.95158e-07 16.3656 16.3656 6.75359e-07 36.5 4.35258e-07C56.6344 1.95158e-07 73 16.3656 73 36.5C73 56.6344 56.6344 73 36.5 73C16.3656 73 6.75359e-07 56.6344 4.35258e-07 36.5ZM67.907 36.5C67.907 19.1837 53.8163 5.09302 36.5 5.09302C19.1837 5.09302 5.09303 19.1837 5.09303 36.5C5.09303 53.8163 19.1837 67.907 36.5 67.907C53.8163 67.907 67.907 53.8163 67.907 36.5Z" fill="#F33288"/>
<path d="M22.0698 36.5001C22.0698 35.108 23.2242 33.9536 24.6163 33.9536L44.9884 33.9536C46.3805 33.9536 47.5349 35.108 47.5349 36.5001C47.5349 37.8922 46.3805 39.0466 44.9884 39.0466L24.6163 39.0466C23.2242 39.0466 22.0698 37.8922 22.0698 36.5001Z" fill="#F33288"/>
<path d="M35.6514 46.6845C35.6514 46.0393 35.8891 45.3942 36.3984 44.8849L44.7848 36.4984L36.3984 28.1117C35.4138 27.1271 35.4138 25.4973 36.3984 24.5127C37.3831 23.528 39.0128 23.528 39.9975 24.5127L50.1834 34.6989C51.168 35.6835 51.168 37.3133 50.1834 38.2979L39.9975 48.484C39.0128 49.4686 37.3831 49.4686 36.3984 48.484C35.8891 47.9747 35.6514 47.3296 35.6514 46.6845Z" fill="#F33288"/>
</svg>
