<svg width="38" height="39" viewBox="0 0 38 39" fill="none" xmlns="http://www.w3.org/2000/svg">
<path d="M26.265 20.9453L32.9599 26.4988C34.8542 28.0706 35.0365 30.9121 33.3592 32.7129C31.6746 34.5221 28.8116 34.5317 27.1139 32.7345L21.1599 26.4328L19.7008 35.0293C19.2896 37.4511 16.9228 39.0253 14.5309 38.4678C12.1391 37.9103 10.7111 35.4525 11.4125 33.0989L13.9015 24.7423L5.77626 27.7648C3.4587 28.6269 0.89536 27.3524 0.183188 24.9857C-0.526587 22.6286 0.892963 20.16 3.28725 19.5881L11.747 17.5642L5.04131 12.0023C3.15417 10.4377 2.97793 7.60581 4.65645 5.81938C6.33257 4.03535 9.16567 4.03056 10.8466 5.80979L16.8341 12.1474L18.2932 3.55098C18.7045 1.12911 21.0712 -0.445099 23.4631 0.112409C25.855 0.669918 27.2829 3.12775 26.5815 5.48128L24.0925 13.8379L32.2645 10.7986C34.5593 9.94495 37.0987 11.2002 37.8132 13.5418C38.529 15.8857 37.1202 18.3483 34.7355 18.919L26.2626 20.9453H26.265Z" fill="#D9D9D9"/>
</svg>
