<svg width="30" height="30" viewBox="0 0 30 30" fill="none" xmlns="http://www.w3.org/2000/svg">
<path d="M20.1379 16.0591L25.271 20.3171C26.7234 21.5223 26.8632 23.7009 25.5771 25.0816C24.2856 26.4688 22.0904 26.4761 20.7887 25.0982L16.2237 20.2666L15.105 26.8576C14.7897 28.7145 12.9751 29.9215 11.1412 29.494C9.30726 29.0666 8.21242 27.1821 8.75019 25.3776L10.6586 18.9704L4.42877 21.2879C2.65186 21.9488 0.686491 20.9716 0.140454 19.157C-0.403745 17.3498 0.684652 15.457 2.5204 15.0185L9.00666 13.4668L3.86527 9.20243C2.41837 8.0028 2.28324 5.83152 3.57019 4.46184C4.85531 3.09399 7.0275 3.09031 8.3163 4.45448L12.9071 9.31366L14.0258 2.72261C14.3411 0.865714 16.1557 -0.341267 17.9896 0.0861865C19.8235 0.51364 20.9184 2.39811 20.3806 4.20261L18.4722 10.6098L24.7379 8.2795C26.4973 7.62499 28.4443 8.58745 28.9922 10.3828C29.541 12.1799 28.4608 14.068 26.6324 14.5056L20.1361 16.0591H20.1379Z" fill="#D9D9D9"/>
</svg>
